<?xml version="1.0" encoding="UTF-8"?>
<svg width="66px" height="62px" viewBox="0 0 66 62" version="1.1" xmlns="http://www.w3.org/2000/svg" xmlns:xlink="http://www.w3.org/1999/xlink">
    <!-- Generator: Sketch 51.1 (57501) - http://www.bohemiancoding.com/sketch -->
    <title>Fill 1</title>
    <desc>Created with Sketch.</desc>
    <defs></defs>
    <g stroke="none" stroke-width="1" fill="none" fill-rule="evenodd">
        <g id="sword" transform="translate(-643.000000, -9414.000000)" fill="#05BCB0">
            <path d="M656.563656,9463.73986 C658.007449,9462.29606 659.420481,9460.88303 660.79003,9459.51332 C660.130218,9458.85383 659.446732,9458.17034 658.759541,9457.48348 C658.401854,9457.75758 654.688095,9461.50242 654.554748,9461.73626 C655.353544,9462.27964 656.022858,9462.95829 656.563656,9463.73986 M691.201949,9459.45776 C692.619169,9460.87466 694.037193,9462.29252 695.441529,9463.69669 C695.727227,9463.36784 696.025649,9462.98325 696.367553,9462.64215 C696.707686,9462.30299 697.091301,9462.00747 697.413396,9461.7295 C695.997949,9460.31405 694.57928,9458.89522 693.171401,9457.48734 C692.522701,9458.13636 691.845657,9458.81357 691.201949,9459.45776 M671.781533,9448.64276 C671.194192,9449.14056 667.363835,9453.01263 667.27848,9453.16112 C667.978232,9453.86087 668.660268,9454.54307 669.322174,9455.20513 C670.808483,9453.71883 672.330867,9452.19628 673.832153,9450.69499 C673.165255,9450.02761 672.482574,9449.34445 671.781533,9448.64276 M669.621884,9446.52305 C668.942424,9445.84311 668.259582,9445.15979 667.614908,9444.51479 C666.116682,9446.01318 664.5885,9447.54168 663.106379,9449.02429 C663.761521,9449.67927 664.44549,9450.36275 665.112711,9451.02981 C666.607394,9449.53593 668.1301,9448.0142 669.621884,9446.52305 M670.762102,9461.72016 C670.766772,9461.16035 670.584788,9460.80235 670.276221,9460.49652 C669.58597,9459.81222 668.897492,9459.126 668.210462,9458.43849 C664.766136,9454.99271 661.322615,9451.54629 657.878449,9448.10068 C657.794705,9448.01693 657.711926,9447.92997 657.617713,9447.85943 C657.138757,9447.50078 656.613259,9447.43909 656.076809,9447.68904 C655.538588,9447.93979 655.250796,9448.38267 655.225994,9448.9829 C655.206024,9449.46781 655.424405,9449.84176 655.759062,9450.17594 C659.877212,9454.28893 663.991819,9458.40563 668.108036,9462.52072 C668.199994,9462.61268 668.29163,9462.70851 668.397278,9462.78323 C668.884125,9463.12707 669.408657,9463.18183 669.941725,9462.9169 C670.475759,9462.6515 670.73875,9462.19654 670.762102,9461.72016 M696.788854,9449.09982 C696.789176,9448.31149 696.267542,9447.69242 695.566341,9447.57309 C695.034561,9447.48258 694.585077,9447.63992 694.20726,9448.01967 C693.52168,9448.70895 692.8361,9449.39808 692.148587,9450.08527 C688.70265,9453.52976 685.255908,9456.9736 681.809649,9460.41793 C681.734279,9460.4933 681.657298,9460.56786 681.589336,9460.64967 C681.090249,9461.25006 681.131478,9462.10603 681.683549,9462.64956 C682.231916,9463.18972 683.100768,9463.22193 683.688592,9462.72107 C683.787637,9462.63668 683.877662,9462.5415 683.969782,9462.44938 C688.027216,9458.39227 692.084651,9454.33515 696.141603,9450.27772 C696.242097,9450.17707 696.344845,9450.07802 696.437287,9449.97028 C696.67,9449.69891 696.780318,9449.37972 696.788854,9449.09982 M645.976222,9467.88216 C645.975739,9470.33492 647.950988,9472.32579 650.394403,9472.33545 C652.852957,9472.34544 654.859611,9470.35022 654.864926,9467.89086 C654.870079,9465.43327 652.870833,9463.44095 650.403261,9463.44482 C647.951793,9463.44868 645.976544,9465.42844 645.976222,9467.88216 M701.61207,9463.44498 C699.153678,9463.43805 697.158297,9465.40541 697.147185,9467.84722 C697.13575,9470.32059 699.110839,9472.32547 701.568909,9472.33545 C704.01313,9472.34544 706.023971,9470.36117 706.037499,9467.92581 C706.051188,9465.4555 704.072395,9463.4519 701.61207,9463.44498 M700.919726,9417.40886 C700.776555,9417.42158 700.682664,9417.42126 700.592799,9417.43913 C698.166133,9417.92534 695.740433,9418.41508 693.312962,9418.89694 C693.139675,9418.9314 693.009709,9419.00323 692.887796,9419.1253 C688.019003,9423.99732 683.148438,9428.8674 678.279001,9433.73845 C678.224084,9433.79353 678.180279,9433.85972 678.177058,9433.86374 C678.883413,9434.56994 679.565772,9435.25197 680.291775,9435.97814 C680.352329,9435.90196 680.430759,9435.78053 680.530609,9435.68068 C684.033073,9432.17467 687.53747,9428.67076 691.041707,9425.16668 C691.1422,9425.06603 691.240439,9424.96264 691.347053,9424.86875 C691.948566,9424.33858 692.815164,9424.35806 693.37577,9424.91159 C693.944591,9425.47316 693.966815,9426.3594 693.42489,9426.96768 C693.338246,9427.06479 693.243389,9427.15498 693.15127,9427.2471 C689.630285,9430.76808 686.109783,9434.28939 682.586382,9437.8078 C682.495712,9437.89863 682.374927,9437.95935 682.293759,9438.01636 C683.041825,9438.76281 683.727566,9439.44726 684.428123,9440.14637 C684.467902,9440.10998 684.547943,9440.04234 684.621864,9439.96841 C689.459413,9435.13167 694.295675,9430.29396 699.136123,9425.46027 C699.295883,9425.30068 699.383331,9425.12836 699.426009,9424.91046 C699.696891,9423.52754 699.976953,9422.14624 700.252828,9420.76429 C700.47298,9419.66159 700.6912,9418.55858 700.919726,9417.40886 M689.018304,9448.95359 C688.901383,9448.86147 688.779309,9448.78384 688.679459,9448.68415 C678.861189,9438.86878 669.044689,9429.05196 659.228029,9419.23514 C659.186156,9419.19327 659.141063,9419.15397 659.102734,9419.10904 C658.997731,9418.98632 658.86696,9418.93156 658.706557,9418.89952 C656.267329,9418.41492 653.829711,9417.9226 651.390966,9417.43527 C651.30545,9417.4182 651.213492,9417.43318 651.111227,9417.43318 C651.121856,9417.53496 651.123949,9417.61741 651.139893,9417.69697 C651.626418,9420.12412 652.116647,9422.55047 652.597374,9424.97874 C652.634415,9425.16556 652.713329,9425.30309 652.844583,9425.43306 C653.535477,9426.11687 654.221057,9426.80615 654.908408,9427.49366 C659.636446,9432.22154 664.364483,9436.94942 669.092359,9441.67745 C673.543878,9446.12897 677.995235,9450.58049 682.447076,9455.03152 C682.535974,9455.12042 682.630026,9455.20433 682.721662,9455.29049 C682.710389,9455.26134 682.699277,9455.23235 682.688003,9455.20336 C683.370201,9454.52036 684.05256,9453.83752 684.780334,9453.1091 C684.700777,9453.04532 684.570167,9452.95949 684.461943,9452.85142 C675.934791,9444.32717 667.40925,9435.80131 658.883709,9427.27544 C658.77468,9427.16641 658.661463,9427.06109 658.560808,9426.94465 C658.039497,9426.34201 658.069291,9425.46849 658.626355,9424.91513 C659.183258,9424.36177 660.057746,9424.33826 660.6562,9424.86343 C660.762813,9424.95716 660.860408,9425.06136 660.961063,9425.16201 C667.541953,9431.74258 674.122683,9438.32347 680.703574,9444.9042 C682.682044,9446.88267 684.660354,9448.86114 686.639147,9450.83913 C686.728206,9450.92803 686.822419,9451.01145 686.895857,9451.08022 C687.600279,9450.37435 688.277001,9449.69618 689.018304,9448.95359 M660.868943,9446.88026 C662.409042,9445.34016 663.933036,9443.81633 665.476195,9442.27333 C665.419989,9442.21181 665.34623,9442.1242 665.265384,9442.04335 C660.276449,9437.05538 655.287354,9432.06742 650.296325,9427.08154 C650.035428,9426.82097 649.878085,9426.51868 649.806418,9426.15681 C649.300407,9423.60082 648.788275,9421.04596 648.277271,9418.49094 C648.100763,9417.6084 647.926187,9416.72521 647.743881,9415.8438 C647.51165,9414.72113 648.42012,9413.81379 649.545682,9414.03958 C652.958926,9414.72452 656.372976,9415.40607 659.787669,9416.08472 C660.170158,9416.16074 660.501916,9416.30794 660.782944,9416.58929 C665.65061,9421.46388 670.521657,9426.33492 675.391739,9431.20726 C675.58403,9431.39971 675.772455,9431.59635 675.978435,9431.80732 C676.065079,9431.73518 676.139805,9431.68267 676.203419,9431.61906 C681.200245,9426.62223 686.197071,9421.62541 691.18987,9416.62423 C691.478629,9416.33499 691.809099,9416.16734 692.206564,9416.08843 C695.633337,9415.40736 699.058337,9414.71759 702.484787,9414.03427 C703.678795,9413.79624 704.46664,9414.84401 704.276282,9415.76311 C703.988006,9417.15489 703.713259,9418.54956 703.435291,9419.94343 C703.020915,9422.02287 702.607506,9424.10248 702.196512,9426.18241 C702.127584,9426.53092 701.96863,9426.82258 701.71659,9427.07429 C696.74215,9432.04358 691.769964,9437.0148 686.796812,9441.98489 C686.704854,9442.07685 686.60436,9442.16011 686.468758,9442.28283 C688.021419,9443.83581 689.549117,9445.36399 691.093242,9446.9086 C691.180369,9446.83468 691.253806,9446.78009 691.318387,9446.71631 C691.613748,9446.42482 691.897192,9446.12076 692.201572,9445.83909 C693.494946,9444.64202 695.005573,9444.27177 696.676764,9444.81015 C698.354559,9445.35079 699.370126,9446.5522 699.680787,9448.27928 C699.945227,9449.74868 699.520544,9451.05461 698.475184,9452.12977 C697.533216,9453.09879 696.567735,9454.04543 695.610307,9454.99948 C695.518349,9455.09127 695.410286,9455.16697 695.294331,9455.26247 C695.384357,9455.36973 695.437019,9455.44316 695.499989,9455.50629 C697.108855,9457.11677 698.721748,9458.72338 700.324333,9460.34014 C700.486669,9460.50392 700.64208,9460.54451 700.858206,9460.52132 C704.556988,9460.12466 708.098748,9462.61623 708.8539,9466.43499 C709.649476,9470.45715 707.107339,9474.2181 703.265385,9475.10354 C699.327287,9476.01104 695.446843,9473.64944 694.421131,9469.74854 C694.202589,9468.91705 694.106444,9468.0701 694.221271,9467.21237 C694.257828,9466.93955 694.180687,9466.75402 693.984531,9466.55996 C692.408679,9465.00021 690.844423,9463.42887 689.276302,9461.8614 C689.193202,9461.77862 689.106236,9461.69986 688.961937,9461.56281 C688.874005,9461.68215 688.808137,9461.79907 688.716823,9461.89103 C687.789349,9462.82446 686.857205,9463.75354 685.927155,9464.68488 C684.948629,9465.66486 683.769921,9466.10887 682.387005,9466.02222 C680.448958,9465.90063 678.742496,9464.42382 678.373858,9462.51283 C678.07431,9460.96066 678.476124,9459.60222 679.578012,9458.46071 C679.913796,9458.11285 680.259082,9457.77417 680.573125,9457.45819 C679.023364,9455.90859 677.49325,9454.3788 675.981656,9452.86721 C674.485524,9454.36334 672.961529,9455.88717 671.419176,9457.42952 C671.472,9457.48782 671.538512,9457.56706 671.611145,9457.64018 C671.902963,9457.93538 672.208471,9458.21769 672.487566,9458.52417 C673.682862,9459.83638 674.058586,9461.35619 673.477848,9463.03688 C672.898077,9464.71484 671.672987,9465.71816 669.921433,9465.98599 C668.463629,9466.20904 667.177181,9465.76906 666.120064,9464.72337 C665.176163,9463.78946 664.239832,9462.84765 663.303501,9461.90601 C663.212187,9461.81421 663.144386,9461.69906 663.053716,9461.57876 C662.927455,9461.68521 662.853856,9461.73868 662.790403,9461.80197 C661.179765,9463.41083 659.571866,9465.02244 657.957363,9466.62744 C657.809199,9466.7748 657.761368,9466.90992 657.784559,9467.12363 C658.208436,9471.01969 655.460963,9474.59028 651.581325,9475.19936 C647.534197,9475.83486 643.760206,9473.10703 643.097656,9469.06763 C642.442836,9465.0751 645.150047,9461.2842 649.150793,9460.59073 C649.796433,9460.4788 650.445294,9460.42437 651.096893,9460.51697 C651.352315,9460.55321 651.533171,9460.49571 651.72353,9460.3031 C653.281988,9458.72596 654.85333,9457.16154 656.423223,9455.596 C656.506645,9455.5129 656.612776,9455.45266 656.733562,9455.36312 C656.598443,9455.21754 656.515986,9455.12284 656.42741,9455.03426 C655.471431,9454.07651 654.509654,9453.12456 653.55899,9452.16133 C652.665175,9451.2556 652.23244,9450.16064 652.257081,9448.88579 C652.296376,9446.85385 653.830838,9445.03208 655.834916,9444.66907 C657.389509,9444.38724 658.744081,9444.79711 659.877051,9445.90834 C660.139398,9446.16569 660.39643,9446.42852 660.657488,9446.68716 C660.731731,9446.76076 660.811772,9446.8284 660.868943,9446.88026" id="Fill-1"></path>
        </g>
    </g>
</svg>
