<?xml version="1.0" encoding="UTF-8"?>
<svg width="51px" height="47px" viewBox="0 0 51 47" version="1.1" xmlns="http://www.w3.org/2000/svg" xmlns:xlink="http://www.w3.org/1999/xlink">
    <!-- Generator: Sketch 50.2 (55047) - http://www.bohemiancoding.com/sketch -->
    <title>Group</title>
    <desc>Created with Sketch.</desc>
    <defs>
        <polygon id="path-1" points="0 0.073125 50.8096701 0.073125 50.8096701 24.5958051 0 24.5958051"></polygon>
    </defs>
    <g id="Page-1" stroke="none" stroke-width="1" fill="none" fill-rule="evenodd">
        <g id="Desktop" transform="translate(-493.000000, -1684.000000)">
            <g id="Group" transform="translate(493.000000, 1684.000000)">
                <g id="Group-3">
                    <mask id="mask-2" fill="white">
                        <use xlink:href="#path-1"></use>
                    </mask>
                    <g id="Clip-2"></g>
                    <path d="M14.8822732,0.073125 C15.0431598,0.113229167 15.2014175,0.174166667 15.3644072,0.190833333 C19.3292629,0.5778125 22.5648711,2.3090625 25.0927887,5.3528125 C25.1937371,5.47416667 25.3088814,5.5840625 25.4392732,5.72260417 C25.5733454,5.56322917 25.6806031,5.4371875 25.7862835,5.31010417 C27.9719227,2.698125 30.7175103,1.01427083 34.1034897,0.3996875 C34.8017165,0.273125 35.5057268,0.1809375 36.207634,0.073125 L37.2171186,0.073125 C37.4421495,0.116875 37.6656031,0.1840625 37.8932629,0.200208333 C40.0920464,0.358020833 42.1667474,0.960104167 44.0127371,2.14083333 C49.024933,5.3465625 51.3551598,9.90177083 50.7021495,15.8184375 C50.3782732,18.7507292 49.0501701,21.3423958 47.5217474,23.82625 C47.4071289,24.0127083 47.0453969,24.1413542 46.7977577,24.141875 C38.6619433,24.1580208 30.5266546,24.15125 22.3908402,24.166875 C21.9413041,24.1673958 21.779366,24.0184375 21.6705309,23.6069792 C21.0737784,21.3538542 20.4491598,19.1085417 19.8303247,16.8611458 C19.6973041,16.3757292 19.5511392,15.8934375 19.4112835,15.4095833 C18.6773041,18.3017708 18.0942216,21.1845833 17.4853763,24.1970833 C16.5410876,19.0517708 15.6220361,14.0429167 14.7029845,9.03458333 C14.6456753,9.03510417 14.5878402,9.035625 14.5305309,9.03666667 C13.501067,13.4340625 12.4716031,17.8325 11.4037577,22.3944792 C10.5020567,20.5033333 9.66660309,18.75125 8.7680567,16.8658333 C8.65133505,17.2194792 8.58193299,17.4121875 8.52304639,17.6085417 C7.8716134,19.760625 7.21124227,21.9101042 6.58241753,24.0684375 C6.46885052,24.4575 6.30901546,24.62 5.89312887,24.5929167 C5.36998454,24.5601042 4.84158247,24.56375 4.3173866,24.591875 C3.93725258,24.6121875 3.68908763,24.4976042 3.50664433,24.1548958 C2.84101546,22.9048958 2.09126289,21.6939583 1.49240722,20.41375 C0.285757732,17.8371875 -0.25578866,15.1429167 0.114881443,12.279375 C0.836768041,6.704375 5.01929381,1.97052083 10.5346546,0.605416667 C11.465799,0.375208333 12.423232,0.248125 13.3680464,0.073125 L14.8822732,0.073125 Z" id="Fill-1" fill="#C06D7E" mask="url(#mask-2)"></path>
                </g>
                <path d="M14.1579002,21 C15.1309005,26.2772381 16.1033691,31.5544761 17.0763694,36.8317142 C17.125817,36.8348454 17.1757962,36.8384986 17.2257755,36.8416299 C17.9536648,33.2458852 18.6815541,29.6501405 19.4126336,26.040827 C19.4992997,26.0804898 19.5540642,26.0888398 19.5615079,26.1123244 C20.0107895,27.4838218 20.0102578,27.4853874 21.5192058,27.4843436 C29.3638215,27.4780811 37.2084371,27.4712967 45.0519893,27.465556 C45.2986954,27.4650341 45.5454015,27.4650341 46,27.4650341 C44.9063051,28.7759936 43.9614846,29.9731835 42.9491389,31.1129667 C38.3771008,36.2607788 33.1563959,40.7254516 27.7224816,44.9636291 C26.8765562,45.6238057 26.0795466,46.3439984 25.3027415,47 C22.5735553,44.7684464 19.7651468,42.5468085 17.0428727,40.2281012 C12.8791757,36.681935 8.92549798,32.9254516 5.53541602,28.6350863 C5.3822881,28.4414693 5.24085745,28.2389803 5,27.9128061 C5.8103019,27.9128061 6.49831414,27.8914091 7.18313622,27.9211562 C7.59998444,27.9389 7.77863368,27.7865114 7.88763098,27.3951024 C8.18431632,26.3325572 8.52725905,25.2820153 8.89997666,24.0696909 C9.89318135,26.1112806 10.8231144,28.0218788 11.7525158,29.9324769 C11.7977098,29.9303894 11.8429038,29.9283019 11.8875661,29.9262144 L14.0132794,21.021397 C14.0616636,21.0140907 14.109516,21.0073063 14.1579002,21" id="Fill-4" fill="#C06D7E"></path>
            </g>
        </g>
    </g>
</svg>