<?xml version="1.0" encoding="UTF-8"?>
<svg width="84px" height="84px" viewBox="0 0 84 84" version="1.1" xmlns="http://www.w3.org/2000/svg" xmlns:xlink="http://www.w3.org/1999/xlink">
    <!-- Generator: Sketch 51 (57462) - http://www.bohemiancoding.com/sketch -->
    <title>Group 14</title>
    <desc>Created with Sketch.</desc>
    <defs></defs>
    <g id="Page-1" stroke="none" stroke-width="1" fill="none" fill-rule="evenodd">
        <g id="Desktop" transform="translate(-330.000000, -3866.000000)">
            <g id="Group-14" transform="translate(330.000000, 3866.000000)">
                <rect id="Rectangle-6" fill="#A9DDE8" x="0" y="0" width="84" height="84"></rect>
                <g id="lying" transform="translate(5.000000, 14.000000)" stroke="#A9DDE8">
                    <path d="M21.1512195,4 L33.3934155,6.48454496 C33.3934155,6.48454496 36.8911402,8.55505268 37.9198452,9.27957764 C38.9485501,10.0042634 40.1832197,11.2465359 40.0803173,12.2818701 C39.9774148,13.3170436 34.4141795,21.9258538 34.4141795,21.9258538 C34.4141795,21.9258538 35.2451803,25.1204917 37.0969451,26.4393008 C38.9485501,27.7579491 40.1090222,27.8968328 40.1090222,27.8968328 C40.1090222,27.8968328 43.2844219,27.4701828 47.9917213,26.4393008 C52.6990207,25.4084188 57.1733782,25.1998317 58.5671263,25.8756369 C59.9608744,26.5514421 65.4508849,33.7923503 67.7203314,36.6848224 C69.9896181,39.5774553 71.1998404,41.7089029 70.9729437,42.394034 C70.746047,43.0790044 69.3845069,44.2209432 68.4766005,44.7538051 C67.5690137,45.2865062 65.0725107,45.8955831 65.0725107,45.8955831 C65.0725107,45.8955831 65.6022027,47.1134153 64.3160818,47.8747614 C63.0301207,48.6359467 59.3235552,50.5389101 55.1630365,49.853779 C51.0025178,49.1688086 49.565239,37.8266004 49.565239,37.8266004 C49.565239,37.8266004 46.7773605,39.0801375 42.9234719,40.5729267 C39.0695834,42.0657158 35.2238173,41.5268914 34.4141795,41.2985679 C33.604382,41.0702445 27.7796877,36.9597793 26.1910912,35.1327094 C24.6024946,33.3058003 20.5932936,28.0360309 20.5932936,28.0360309 C20.5932936,28.0360309 16.507986,26.8077432 10.456395,25.1998317 C4.40480408,23.5920809 0.3956031,22.2978729 0.0173886517,19.6335634 C-0.360825796,16.9694147 5.53944742,13.1633272 7.12804397,12.1738185 C8.71664053,11.1841489 13.7091671,8.36773099 13.7091671,8.36773099 L21.1512195,4 Z" id="Stroke-1" fill="#F67102"></path>
                    <path d="M34,10.5 C34,16.2989268 29.2989268,21 23.5,21 C17.7010732,21 13,16.2989268 13,10.5 C13,4.70107324 17.7010732,0 23.5,0 C29.2989268,0 34,4.70107324 34,10.5 Z" id="Stroke-3" stroke-width="0.5" fill="#F67102"></path>
                    <path d="M9,19 L14,16" id="Stroke-5" stroke-width="0.5"></path>
                    <path d="M41,31.9609584 C41,31.9609584 51.594227,29.7925205 52.6448161,30.0161849 C53.6954052,30.239997 58.3018343,36.2042349 59.9989398,38.5154343 C61.6960453,40.8267813 65,46 65,46" id="Stroke-7" stroke-width="0.5"></path>
                </g>
            </g>
        </g>
    </g>
</svg>