<?xml version="1.0" encoding="UTF-8"?>
<svg width="84px" height="84px" viewBox="0 0 84 84" version="1.1" xmlns="http://www.w3.org/2000/svg" xmlns:xlink="http://www.w3.org/1999/xlink">
    <!-- Generator: Sketch 51 (57462) - http://www.bohemiancoding.com/sketch -->
    <title>Group 18</title>
    <desc>Created with Sketch.</desc>
    <defs></defs>
    <g id="Page-1" stroke="none" stroke-width="1" fill="none" fill-rule="evenodd">
        <g id="Desktop" transform="translate(-632.000000, -4094.000000)">
            <g id="Group-18" transform="translate(632.000000, 4094.000000)">
                <rect id="Rectangle-6" fill="#A9DDE8" x="0" y="0" width="84" height="84"></rect>
                <g id="pregent" transform="translate(28.000000, 6.000000)" fill="#F67102">
                    <path d="M29.3341594,37.5653048 C29.3331361,41.4270015 27.843136,44.3895537 24.4021161,46.3589368 C23.6289739,46.8008021 19.8431048,47.836094 19.6450863,48.7162279 C18.2026721,55.1412567 18.5846086,61.3268563 17.2706251,67.7811715 C16.6755461,70.7041614 14.846305,72.1011749 11.5516243,71.9943052 C8.48463939,71.8941148 7.09595118,70.6224677 6.64362975,67.6439878 C5.68577259,61.329939 4.71000678,55.0179455 3.67283986,48.7162279 C3.51831376,47.7775212 3.25377736,46.5207742 2.59218051,46.0609261 C-0.146820225,44.1578228 -0.00201596417,41.429048 0.00258911832,38.6329659 C0.0102642558,33.0819054 0.34490025,27.5873626 2.55278147,22.398015 C5.16693329,16.2560882 10.1281422,13.5833173 15.6803366,15.7361259 C17.5187879,16.4482482 20.5752925,18.3945191 21.7511236,20.0576793 C23.5291971,22.5727145 24.9112335,25.3975693 26.239544,28.197248 C27.6446058,31.1577451 29.571577,37.4676834 29.3341594,37.5653048 Z" id="Fill-1"></path>
                    <path d="M9.26383452,19.2087377 C8.87208818,19.5675935 8.23574895,19.86111 8.12637814,20.295004 C6.60264396,26.3337867 6.04187001,32.273029 10.2819773,37.5624514 C11.8589054,39.5956273 13.2678003,41.814612 15.102247,43.5619284 C15.7490261,44.1780578 17.9846648,44.1300742 18.5131247,43.5073088 C19.1857551,42.7145591 18.993362,41.0208413 18.9068596,39.7344734 C18.8690769,39.1688799 18.1715895,38.6497385 17.7728832,38.1096682 C17.7455405,37.9192653 17.7778546,37.6849626 17.6809123,37.5440747 C14.5563872,33.0035022 13.0072989,28.3756405 16.2317491,23.0806031 C16.948625,21.9029639 17.2280177,20.0586594 15.2603375,19.2056749 C13.2608403,17.4124168 11.2623374,17.7942435 9.26383452,19.2087377" id="Fill-4" stroke="#A9DDE8" stroke-width="0.5"></path>
                    <path d="M15.077976,13.9995955 C11.0594474,14.0388786 8.08412971,11.2131483 8.00168752,7.27846624 C7.91713142,3.2248731 11.0208687,-0.04518108 14.9104492,0.000472273824 C18.6684393,0.0450639218 21.9005962,3.22434225 21.9978357,6.97216409 C22.0950752,10.7199859 18.902554,13.9619049 15.077976,13.9995955" id="Fill-6"></path>
                </g>
            </g>
        </g>
    </g>
</svg>