<?xml version="1.0" encoding="UTF-8"?>
<svg width="103px" height="78px" viewBox="0 0 103 78" version="1.1" xmlns="http://www.w3.org/2000/svg" xmlns:xlink="http://www.w3.org/1999/xlink">
    <!-- Generator: Sketch 52.2 (67145) - http://www.bohemiancoding.com/sketch -->
    <title>Group 12</title>
    <desc>Created with Sketch.</desc>
    <g id="Page-1" stroke="none" stroke-width="1" fill="none" fill-rule="evenodd">
        <g id="Desktop" transform="translate(-531.000000, -2885.000000)">
            <g id="Group-12" transform="translate(531.000000, 2885.000000)">
                <path d="M8.37358541,0 C8.91592156,0.130036603 9.44099727,0.289614621 9.90702908,0.608498806 C11.1568545,1.46374999 11.5618617,3.19663498 10.8511656,4.51014059 C9.76432393,6.51922875 6.83816104,6.76761226 5.39243435,4.88738266 C4.13515769,3.25227433 4.97592019,0.769707946 7.00105052,0.179151473 C7.21355197,0.117168869 7.4273739,0.0596265397 7.64053558,0 L8.37358541,0 Z M11.7619689,12.8952323 C11.7619689,13.0006425 11.7611263,13.1060528 11.7620625,13.211463 C11.7809746,15.1746039 11.7932393,17.1377447 11.8205775,19.1007946 C11.8832119,23.6147907 11.9511829,28.1286959 12.0220562,32.6425101 C12.0351635,33.4766062 12.0748601,34.3103385 12.0976107,35.1444346 C12.1228891,36.0736637 11.8148664,36.5762496 11.0457459,36.8744724 C10.3155729,37.1575976 9.43382273,36.9511426 8.88724625,36.3625187 C8.516121,35.9627965 8.45910403,35.4620296 8.44992889,34.9585342 C8.38102168,31.1702226 8.31829364,27.3816382 8.25537837,23.5931448 C8.24760758,23.1260291 8.2504163,23.124392 7.71029987,23.207065 C7.71029987,23.3334845 7.71189147,23.4673619 7.710019,23.6012393 C7.66713924,26.693061 7.62968967,29.7850647 7.5769794,32.8767955 C7.56237406,33.7298091 7.5241755,34.5837321 7.45629815,35.43429 C7.39478723,36.2056311 6.89736331,36.7217685 6.09350828,36.9340442 C5.36726749,37.1257653 4.56659567,36.8831125 4.14004506,36.317044 C3.84269547,35.922324 3.84213372,35.4546627 3.85524107,34.9891841 C3.90813859,33.105442 3.99090214,31.2218819 4.00447761,29.3379579 C4.0423953,24.0370683 4.05166407,18.7359969 4.07207409,13.4350164 C4.07244858,13.3510702 4.07216771,13.267215 4.046702,13.1805403 C3.65778821,13.8811228 3.47100848,14.6363659 3.34602054,15.4103445 C3.16036429,16.5607623 3.17197366,17.7148181 3.24902615,18.8731485 C3.3079156,19.7599042 2.95823024,20.2475744 2.19453987,20.4153759 C1.41736765,20.5861787 0.499759552,20.1755426 0.234710217,19.4831455 C0.103917591,19.141267 0.0500838337,18.7595528 0.0285503307,18.3922085 C-0.0970929785,16.2470781 0.181999946,14.1569721 1.0642182,12.1733676 C1.82032503,10.4731613 2.96272418,9.07554322 4.75683949,8.33730768 C6.01233634,7.82080655 7.35050312,7.57688051 8.7274302,7.77942462 C9.4337291,7.88337968 10.1461136,7.9927917 10.8299427,8.18578613 C11.8170198,8.46436386 12.6471831,9.02815863 13.3445878,9.75784494 C15.016243,11.5065273 15.7057832,13.6602979 15.9364725,15.9678638 C16.0344968,16.9484792 16.0046308,17.9487397 15.9437752,18.9349031 C15.8731828,20.0783178 14.5580475,20.7831749 13.5010333,20.302235 C13.0213043,20.0840476 12.7765714,19.7117921 12.7732946,19.2071143 C12.7704858,18.7758327 12.8113059,18.3444601 12.8264729,17.9129057 C12.8779661,16.4399816 12.7240484,14.9937057 12.2029376,13.5995437 C12.1089392,13.347978 11.9754315,13.1103274 11.860274,12.8662195 C11.8275057,12.8758601 11.7947373,12.8855917 11.7619689,12.8952323 Z" id="person" fill="#FF8A57"></path>
                <path d="M25.3735854,0 C25.9159216,0.130036603 26.4409973,0.289614621 26.9070291,0.608498806 C28.1568545,1.46374999 28.5618617,3.19663498 27.8511656,4.51014059 C26.7643239,6.51922875 23.838161,6.76761226 22.3924344,4.88738266 C21.1351577,3.25227433 21.9759202,0.769707946 24.0010505,0.179151473 C24.213552,0.117168869 24.4273739,0.0596265397 24.6405356,0 L25.3735854,0 Z M28.7619689,12.8952323 C28.7619689,13.0006425 28.7611263,13.1060528 28.7620625,13.211463 C28.7809746,15.1746039 28.7932393,17.1377447 28.8205775,19.1007946 C28.8832119,23.6147907 28.9511829,28.1286959 29.0220562,32.6425101 C29.0351635,33.4766062 29.0748601,34.3103385 29.0976107,35.1444346 C29.1228891,36.0736637 28.8148664,36.5762496 28.0457459,36.8744724 C27.3155729,37.1575976 26.4338227,36.9511426 25.8872462,36.3625187 C25.516121,35.9627965 25.459104,35.4620296 25.4499289,34.9585342 C25.3810217,31.1702226 25.3182936,27.3816382 25.2553784,23.5931448 C25.2476076,23.1260291 25.2504163,23.124392 24.7102999,23.207065 C24.7102999,23.3334845 24.7118915,23.4673619 24.710019,23.6012393 C24.6671392,26.693061 24.6296897,29.7850647 24.5769794,32.8767955 C24.5623741,33.7298091 24.5241755,34.5837321 24.4562982,35.43429 C24.3947872,36.2056311 23.8973633,36.7217685 23.0935083,36.9340442 C22.3672675,37.1257653 21.5665957,36.8831125 21.1400451,36.317044 C20.8426955,35.922324 20.8421337,35.4546627 20.8552411,34.9891841 C20.9081386,33.105442 20.9909021,31.2218819 21.0044776,29.3379579 C21.0423953,24.0370683 21.0516641,18.7359969 21.0720741,13.4350164 C21.0724486,13.3510702 21.0721677,13.267215 21.046702,13.1805403 C20.6577882,13.8811228 20.4710085,14.6363659 20.3460205,15.4103445 C20.1603643,16.5607623 20.1719737,17.7148181 20.2490262,18.8731485 C20.3079156,19.7599042 19.9582302,20.2475744 19.1945399,20.4153759 C18.4173677,20.5861787 17.4997596,20.1755426 17.2347102,19.4831455 C17.1039176,19.141267 17.0500838,18.7595528 17.0285503,18.3922085 C16.902907,16.2470781 17.1819999,14.1569721 18.0642182,12.1733676 C18.820325,10.4731613 19.9627242,9.07554322 21.7568395,8.33730768 C23.0123363,7.82080655 24.3505031,7.57688051 25.7274302,7.77942462 C26.4337291,7.88337968 27.1461136,7.9927917 27.8299427,8.18578613 C28.8170198,8.46436386 29.6471831,9.02815863 30.3445878,9.75784494 C32.016243,11.5065273 32.7057832,13.6602979 32.9364725,15.9678638 C33.0344968,16.9484792 33.0046308,17.9487397 32.9437752,18.9349031 C32.8731828,20.0783178 31.5580475,20.7831749 30.5010333,20.302235 C30.0213043,20.0840476 29.7765714,19.7117921 29.7732946,19.2071143 C29.7704858,18.7758327 29.8113059,18.3444601 29.8264729,17.9129057 C29.8779661,16.4399816 29.7240484,14.9937057 29.2029376,13.5995437 C29.1089392,13.347978 28.9754315,13.1103274 28.860274,12.8662195 C28.8275057,12.8758601 28.7947373,12.8855917 28.7619689,12.8952323 Z" id="person" fill="#05BCB0"></path>
                <path d="M42.3735854,0 C42.9159216,0.130036603 43.4409973,0.289614621 43.9070291,0.608498806 C45.1568545,1.46374999 45.5618617,3.19663498 44.8511656,4.51014059 C43.7643239,6.51922875 40.838161,6.76761226 39.3924344,4.88738266 C38.1351577,3.25227433 38.9759202,0.769707946 41.0010505,0.179151473 C41.213552,0.117168869 41.4273739,0.0596265397 41.6405356,0 L42.3735854,0 Z M45.7619689,12.8952323 C45.7619689,13.0006425 45.7611263,13.1060528 45.7620625,13.211463 C45.7809746,15.1746039 45.7932393,17.1377447 45.8205775,19.1007946 C45.8832119,23.6147907 45.9511829,28.1286959 46.0220562,32.6425101 C46.0351635,33.4766062 46.0748601,34.3103385 46.0976107,35.1444346 C46.1228891,36.0736637 45.8148664,36.5762496 45.0457459,36.8744724 C44.3155729,37.1575976 43.4338227,36.9511426 42.8872462,36.3625187 C42.516121,35.9627965 42.459104,35.4620296 42.4499289,34.9585342 C42.3810217,31.1702226 42.3182936,27.3816382 42.2553784,23.5931448 C42.2476076,23.1260291 42.2504163,23.124392 41.7102999,23.207065 C41.7102999,23.3334845 41.7118915,23.4673619 41.710019,23.6012393 C41.6671392,26.693061 41.6296897,29.7850647 41.5769794,32.8767955 C41.5623741,33.7298091 41.5241755,34.5837321 41.4562982,35.43429 C41.3947872,36.2056311 40.8973633,36.7217685 40.0935083,36.9340442 C39.3672675,37.1257653 38.5665957,36.8831125 38.1400451,36.317044 C37.8426955,35.922324 37.8421337,35.4546627 37.8552411,34.9891841 C37.9081386,33.105442 37.9909021,31.2218819 38.0044776,29.3379579 C38.0423953,24.0370683 38.0516641,18.7359969 38.0720741,13.4350164 C38.0724486,13.3510702 38.0721677,13.267215 38.046702,13.1805403 C37.6577882,13.8811228 37.4710085,14.6363659 37.3460205,15.4103445 C37.1603643,16.5607623 37.1719737,17.7148181 37.2490262,18.8731485 C37.3079156,19.7599042 36.9582302,20.2475744 36.1945399,20.4153759 C35.4173677,20.5861787 34.4997596,20.1755426 34.2347102,19.4831455 C34.1039176,19.141267 34.0500838,18.7595528 34.0285503,18.3922085 C33.902907,16.2470781 34.1819999,14.1569721 35.0642182,12.1733676 C35.820325,10.4731613 36.9627242,9.07554322 38.7568395,8.33730768 C40.0123363,7.82080655 41.3505031,7.57688051 42.7274302,7.77942462 C43.4337291,7.88337968 44.1461136,7.9927917 44.8299427,8.18578613 C45.8170198,8.46436386 46.6471831,9.02815863 47.3445878,9.75784494 C49.016243,11.5065273 49.7057832,13.6602979 49.9364725,15.9678638 C50.0344968,16.9484792 50.0046308,17.9487397 49.9437752,18.9349031 C49.8731828,20.0783178 48.5580475,20.7831749 47.5010333,20.302235 C47.0213043,20.0840476 46.7765714,19.7117921 46.7732946,19.2071143 C46.7704858,18.7758327 46.8113059,18.3444601 46.8264729,17.9129057 C46.8779661,16.4399816 46.7240484,14.9937057 46.2029376,13.5995437 C46.1089392,13.347978 45.9754315,13.1103274 45.860274,12.8662195 C45.8275057,12.8758601 45.7947373,12.8855917 45.7619689,12.8952323 Z" id="person" fill="#05BCB0"></path>
                <path d="M60.3735854,0 C60.9159216,0.130036603 61.4409973,0.289614621 61.9070291,0.608498806 C63.1568545,1.46374999 63.5618617,3.19663498 62.8511656,4.51014059 C61.7643239,6.51922875 58.838161,6.76761226 57.3924344,4.88738266 C56.1351577,3.25227433 56.9759202,0.769707946 59.0010505,0.179151473 C59.213552,0.117168869 59.4273739,0.0596265397 59.6405356,0 L60.3735854,0 Z M63.7619689,12.8952323 C63.7619689,13.0006425 63.7611263,13.1060528 63.7620625,13.211463 C63.7809746,15.1746039 63.7932393,17.1377447 63.8205775,19.1007946 C63.8832119,23.6147907 63.9511829,28.1286959 64.0220562,32.6425101 C64.0351635,33.4766062 64.0748601,34.3103385 64.0976107,35.1444346 C64.1228891,36.0736637 63.8148664,36.5762496 63.0457459,36.8744724 C62.3155729,37.1575976 61.4338227,36.9511426 60.8872462,36.3625187 C60.516121,35.9627965 60.459104,35.4620296 60.4499289,34.9585342 C60.3810217,31.1702226 60.3182936,27.3816382 60.2553784,23.5931448 C60.2476076,23.1260291 60.2504163,23.124392 59.7102999,23.207065 C59.7102999,23.3334845 59.7118915,23.4673619 59.710019,23.6012393 C59.6671392,26.693061 59.6296897,29.7850647 59.5769794,32.8767955 C59.5623741,33.7298091 59.5241755,34.5837321 59.4562982,35.43429 C59.3947872,36.2056311 58.8973633,36.7217685 58.0935083,36.9340442 C57.3672675,37.1257653 56.5665957,36.8831125 56.1400451,36.317044 C55.8426955,35.922324 55.8421337,35.4546627 55.8552411,34.9891841 C55.9081386,33.105442 55.9909021,31.2218819 56.0044776,29.3379579 C56.0423953,24.0370683 56.0516641,18.7359969 56.0720741,13.4350164 C56.0724486,13.3510702 56.0721677,13.267215 56.046702,13.1805403 C55.6577882,13.8811228 55.4710085,14.6363659 55.3460205,15.4103445 C55.1603643,16.5607623 55.1719737,17.7148181 55.2490262,18.8731485 C55.3079156,19.7599042 54.9582302,20.2475744 54.1945399,20.4153759 C53.4173677,20.5861787 52.4997596,20.1755426 52.2347102,19.4831455 C52.1039176,19.141267 52.0500838,18.7595528 52.0285503,18.3922085 C51.902907,16.2470781 52.1819999,14.1569721 53.0642182,12.1733676 C53.820325,10.4731613 54.9627242,9.07554322 56.7568395,8.33730768 C58.0123363,7.82080655 59.3505031,7.57688051 60.7274302,7.77942462 C61.4337291,7.88337968 62.1461136,7.9927917 62.8299427,8.18578613 C63.8170198,8.46436386 64.6471831,9.02815863 65.3445878,9.75784494 C67.016243,11.5065273 67.7057832,13.6602979 67.9364725,15.9678638 C68.0344968,16.9484792 68.0046308,17.9487397 67.9437752,18.9349031 C67.8731828,20.0783178 66.5580475,20.7831749 65.5010333,20.302235 C65.0213043,20.0840476 64.7765714,19.7117921 64.7732946,19.2071143 C64.7704858,18.7758327 64.8113059,18.3444601 64.8264729,17.9129057 C64.8779661,16.4399816 64.7240484,14.9937057 64.2029376,13.5995437 C64.1089392,13.347978 63.9754315,13.1103274 63.860274,12.8662195 C63.8275057,12.8758601 63.7947373,12.8855917 63.7619689,12.8952323 Z" id="person" fill="#05BCB0"></path>
                <path d="M78.3735854,0 C78.9159216,0.130036603 79.4409973,0.289614621 79.9070291,0.608498806 C81.1568545,1.46374999 81.5618617,3.19663498 80.8511656,4.51014059 C79.7643239,6.51922875 76.838161,6.76761226 75.3924344,4.88738266 C74.1351577,3.25227433 74.9759202,0.769707946 77.0010505,0.179151473 C77.213552,0.117168869 77.4273739,0.0596265397 77.6405356,0 L78.3735854,0 Z M81.7619689,12.8952323 C81.7619689,13.0006425 81.7611263,13.1060528 81.7620625,13.211463 C81.7809746,15.1746039 81.7932393,17.1377447 81.8205775,19.1007946 C81.8832119,23.6147907 81.9511829,28.1286959 82.0220562,32.6425101 C82.0351635,33.4766062 82.0748601,34.3103385 82.0976107,35.1444346 C82.1228891,36.0736637 81.8148664,36.5762496 81.0457459,36.8744724 C80.3155729,37.1575976 79.4338227,36.9511426 78.8872462,36.3625187 C78.516121,35.9627965 78.459104,35.4620296 78.4499289,34.9585342 C78.3810217,31.1702226 78.3182936,27.3816382 78.2553784,23.5931448 C78.2476076,23.1260291 78.2504163,23.124392 77.7102999,23.207065 C77.7102999,23.3334845 77.7118915,23.4673619 77.710019,23.6012393 C77.6671392,26.693061 77.6296897,29.7850647 77.5769794,32.8767955 C77.5623741,33.7298091 77.5241755,34.5837321 77.4562982,35.43429 C77.3947872,36.2056311 76.8973633,36.7217685 76.0935083,36.9340442 C75.3672675,37.1257653 74.5665957,36.8831125 74.1400451,36.317044 C73.8426955,35.922324 73.8421337,35.4546627 73.8552411,34.9891841 C73.9081386,33.105442 73.9909021,31.2218819 74.0044776,29.3379579 C74.0423953,24.0370683 74.0516641,18.7359969 74.0720741,13.4350164 C74.0724486,13.3510702 74.0721677,13.267215 74.046702,13.1805403 C73.6577882,13.8811228 73.4710085,14.6363659 73.3460205,15.4103445 C73.1603643,16.5607623 73.1719737,17.7148181 73.2490262,18.8731485 C73.3079156,19.7599042 72.9582302,20.2475744 72.1945399,20.4153759 C71.4173677,20.5861787 70.4997596,20.1755426 70.2347102,19.4831455 C70.1039176,19.141267 70.0500838,18.7595528 70.0285503,18.3922085 C69.902907,16.2470781 70.1819999,14.1569721 71.0642182,12.1733676 C71.820325,10.4731613 72.9627242,9.07554322 74.7568395,8.33730768 C76.0123363,7.82080655 77.3505031,7.57688051 78.7274302,7.77942462 C79.4337291,7.88337968 80.1461136,7.9927917 80.8299427,8.18578613 C81.8170198,8.46436386 82.6471831,9.02815863 83.3445878,9.75784494 C85.016243,11.5065273 85.7057832,13.6602979 85.9364725,15.9678638 C86.0344968,16.9484792 86.0046308,17.9487397 85.9437752,18.9349031 C85.8731828,20.0783178 84.5580475,20.7831749 83.5010333,20.302235 C83.0213043,20.0840476 82.7765714,19.7117921 82.7732946,19.2071143 C82.7704858,18.7758327 82.8113059,18.3444601 82.8264729,17.9129057 C82.8779661,16.4399816 82.7240484,14.9937057 82.2029376,13.5995437 C82.1089392,13.347978 81.9754315,13.1103274 81.860274,12.8662195 C81.8275057,12.8758601 81.7947373,12.8855917 81.7619689,12.8952323 Z" id="person" fill="#05BCB0"></path>
                <path d="M8.37358541,41 C8.91592156,41.1300366 9.44099727,41.2896146 9.90702908,41.6084988 C11.1568545,42.46375 11.5618617,44.196635 10.8511656,45.5101406 C9.76432393,47.5192288 6.83816104,47.7676123 5.39243435,45.8873827 C4.13515769,44.2522743 4.97592019,41.7697079 7.00105052,41.1791515 C7.21355197,41.1171689 7.4273739,41.0596265 7.64053558,41 L8.37358541,41 Z M11.7619689,53.8952323 C11.7619689,54.0006425 11.7611263,54.1060528 11.7620625,54.211463 C11.7809746,56.1746039 11.7932393,58.1377447 11.8205775,60.1007946 C11.8832119,64.6147907 11.9511829,69.1286959 12.0220562,73.6425101 C12.0351635,74.4766062 12.0748601,75.3103385 12.0976107,76.1444346 C12.1228891,77.0736637 11.8148664,77.5762496 11.0457459,77.8744724 C10.3155729,78.1575976 9.43382273,77.9511426 8.88724625,77.3625187 C8.516121,76.9627965 8.45910403,76.4620296 8.44992889,75.9585342 C8.38102168,72.1702226 8.31829364,68.3816382 8.25537837,64.5931448 C8.24760758,64.1260291 8.2504163,64.124392 7.71029987,64.207065 C7.71029987,64.3334845 7.71189147,64.4673619 7.710019,64.6012393 C7.66713924,67.693061 7.62968967,70.7850647 7.5769794,73.8767955 C7.56237406,74.7298091 7.5241755,75.5837321 7.45629815,76.43429 C7.39478723,77.2056311 6.89736331,77.7217685 6.09350828,77.9340442 C5.36726749,78.1257653 4.56659567,77.8831125 4.14004506,77.317044 C3.84269547,76.922324 3.84213372,76.4546627 3.85524107,75.9891841 C3.90813859,74.105442 3.99090214,72.2218819 4.00447761,70.3379579 C4.0423953,65.0370683 4.05166407,59.7359969 4.07207409,54.4350164 C4.07244858,54.3510702 4.07216771,54.267215 4.046702,54.1805403 C3.65778821,54.8811228 3.47100848,55.6363659 3.34602054,56.4103445 C3.16036429,57.5607623 3.17197366,58.7148181 3.24902615,59.8731485 C3.3079156,60.7599042 2.95823024,61.2475744 2.19453987,61.4153759 C1.41736765,61.5861787 0.499759552,61.1755426 0.234710217,60.4831455 C0.103917591,60.141267 0.0500838337,59.7595528 0.0285503307,59.3922085 C-0.0970929785,57.2470781 0.181999946,55.1569721 1.0642182,53.1733676 C1.82032503,51.4731613 2.96272418,50.0755432 4.75683949,49.3373077 C6.01233634,48.8208066 7.35050312,48.5768805 8.7274302,48.7794246 C9.4337291,48.8833797 10.1461136,48.9927917 10.8299427,49.1857861 C11.8170198,49.4643639 12.6471831,50.0281586 13.3445878,50.7578449 C15.016243,52.5065273 15.7057832,54.6602979 15.9364725,56.9678638 C16.0344968,57.9484792 16.0046308,58.9487397 15.9437752,59.9349031 C15.8731828,61.0783178 14.5580475,61.7831749 13.5010333,61.302235 C13.0213043,61.0840476 12.7765714,60.7117921 12.7732946,60.2071143 C12.7704858,59.7758327 12.8113059,59.3444601 12.8264729,58.9129057 C12.8779661,57.4399816 12.7240484,55.9937057 12.2029376,54.5995437 C12.1089392,54.347978 11.9754315,54.1103274 11.860274,53.8662195 C11.8275057,53.8758601 11.7947373,53.8855917 11.7619689,53.8952323 Z" id="person" fill="#05BCB0"></path>
                <path d="M25.3735854,41 C25.9159216,41.1300366 26.4409973,41.2896146 26.9070291,41.6084988 C28.1568545,42.46375 28.5618617,44.196635 27.8511656,45.5101406 C26.7643239,47.5192288 23.838161,47.7676123 22.3924344,45.8873827 C21.1351577,44.2522743 21.9759202,41.7697079 24.0010505,41.1791515 C24.213552,41.1171689 24.4273739,41.0596265 24.6405356,41 L25.3735854,41 Z M28.7619689,53.8952323 C28.7619689,54.0006425 28.7611263,54.1060528 28.7620625,54.211463 C28.7809746,56.1746039 28.7932393,58.1377447 28.8205775,60.1007946 C28.8832119,64.6147907 28.9511829,69.1286959 29.0220562,73.6425101 C29.0351635,74.4766062 29.0748601,75.3103385 29.0976107,76.1444346 C29.1228891,77.0736637 28.8148664,77.5762496 28.0457459,77.8744724 C27.3155729,78.1575976 26.4338227,77.9511426 25.8872462,77.3625187 C25.516121,76.9627965 25.459104,76.4620296 25.4499289,75.9585342 C25.3810217,72.1702226 25.3182936,68.3816382 25.2553784,64.5931448 C25.2476076,64.1260291 25.2504163,64.124392 24.7102999,64.207065 C24.7102999,64.3334845 24.7118915,64.4673619 24.710019,64.6012393 C24.6671392,67.693061 24.6296897,70.7850647 24.5769794,73.8767955 C24.5623741,74.7298091 24.5241755,75.5837321 24.4562982,76.43429 C24.3947872,77.2056311 23.8973633,77.7217685 23.0935083,77.9340442 C22.3672675,78.1257653 21.5665957,77.8831125 21.1400451,77.317044 C20.8426955,76.922324 20.8421337,76.4546627 20.8552411,75.9891841 C20.9081386,74.105442 20.9909021,72.2218819 21.0044776,70.3379579 C21.0423953,65.0370683 21.0516641,59.7359969 21.0720741,54.4350164 C21.0724486,54.3510702 21.0721677,54.267215 21.046702,54.1805403 C20.6577882,54.8811228 20.4710085,55.6363659 20.3460205,56.4103445 C20.1603643,57.5607623 20.1719737,58.7148181 20.2490262,59.8731485 C20.3079156,60.7599042 19.9582302,61.2475744 19.1945399,61.4153759 C18.4173677,61.5861787 17.4997596,61.1755426 17.2347102,60.4831455 C17.1039176,60.141267 17.0500838,59.7595528 17.0285503,59.3922085 C16.902907,57.2470781 17.1819999,55.1569721 18.0642182,53.1733676 C18.820325,51.4731613 19.9627242,50.0755432 21.7568395,49.3373077 C23.0123363,48.8208066 24.3505031,48.5768805 25.7274302,48.7794246 C26.4337291,48.8833797 27.1461136,48.9927917 27.8299427,49.1857861 C28.8170198,49.4643639 29.6471831,50.0281586 30.3445878,50.7578449 C32.016243,52.5065273 32.7057832,54.6602979 32.9364725,56.9678638 C33.0344968,57.9484792 33.0046308,58.9487397 32.9437752,59.9349031 C32.8731828,61.0783178 31.5580475,61.7831749 30.5010333,61.302235 C30.0213043,61.0840476 29.7765714,60.7117921 29.7732946,60.2071143 C29.7704858,59.7758327 29.8113059,59.3444601 29.8264729,58.9129057 C29.8779661,57.4399816 29.7240484,55.9937057 29.2029376,54.5995437 C29.1089392,54.347978 28.9754315,54.1103274 28.860274,53.8662195 C28.8275057,53.8758601 28.7947373,53.8855917 28.7619689,53.8952323 Z" id="person" fill="#05BCB0"></path>
                <path d="M42.3735854,41 C42.9159216,41.1300366 43.4409973,41.2896146 43.9070291,41.6084988 C45.1568545,42.46375 45.5618617,44.196635 44.8511656,45.5101406 C43.7643239,47.5192288 40.838161,47.7676123 39.3924344,45.8873827 C38.1351577,44.2522743 38.9759202,41.7697079 41.0010505,41.1791515 C41.213552,41.1171689 41.4273739,41.0596265 41.6405356,41 L42.3735854,41 Z M45.7619689,53.8952323 C45.7619689,54.0006425 45.7611263,54.1060528 45.7620625,54.211463 C45.7809746,56.1746039 45.7932393,58.1377447 45.8205775,60.1007946 C45.8832119,64.6147907 45.9511829,69.1286959 46.0220562,73.6425101 C46.0351635,74.4766062 46.0748601,75.3103385 46.0976107,76.1444346 C46.1228891,77.0736637 45.8148664,77.5762496 45.0457459,77.8744724 C44.3155729,78.1575976 43.4338227,77.9511426 42.8872462,77.3625187 C42.516121,76.9627965 42.459104,76.4620296 42.4499289,75.9585342 C42.3810217,72.1702226 42.3182936,68.3816382 42.2553784,64.5931448 C42.2476076,64.1260291 42.2504163,64.124392 41.7102999,64.207065 C41.7102999,64.3334845 41.7118915,64.4673619 41.710019,64.6012393 C41.6671392,67.693061 41.6296897,70.7850647 41.5769794,73.8767955 C41.5623741,74.7298091 41.5241755,75.5837321 41.4562982,76.43429 C41.3947872,77.2056311 40.8973633,77.7217685 40.0935083,77.9340442 C39.3672675,78.1257653 38.5665957,77.8831125 38.1400451,77.317044 C37.8426955,76.922324 37.8421337,76.4546627 37.8552411,75.9891841 C37.9081386,74.105442 37.9909021,72.2218819 38.0044776,70.3379579 C38.0423953,65.0370683 38.0516641,59.7359969 38.0720741,54.4350164 C38.0724486,54.3510702 38.0721677,54.267215 38.046702,54.1805403 C37.6577882,54.8811228 37.4710085,55.6363659 37.3460205,56.4103445 C37.1603643,57.5607623 37.1719737,58.7148181 37.2490262,59.8731485 C37.3079156,60.7599042 36.9582302,61.2475744 36.1945399,61.4153759 C35.4173677,61.5861787 34.4997596,61.1755426 34.2347102,60.4831455 C34.1039176,60.141267 34.0500838,59.7595528 34.0285503,59.3922085 C33.902907,57.2470781 34.1819999,55.1569721 35.0642182,53.1733676 C35.820325,51.4731613 36.9627242,50.0755432 38.7568395,49.3373077 C40.0123363,48.8208066 41.3505031,48.5768805 42.7274302,48.7794246 C43.4337291,48.8833797 44.1461136,48.9927917 44.8299427,49.1857861 C45.8170198,49.4643639 46.6471831,50.0281586 47.3445878,50.7578449 C49.016243,52.5065273 49.7057832,54.6602979 49.9364725,56.9678638 C50.0344968,57.9484792 50.0046308,58.9487397 49.9437752,59.9349031 C49.8731828,61.0783178 48.5580475,61.7831749 47.5010333,61.302235 C47.0213043,61.0840476 46.7765714,60.7117921 46.7732946,60.2071143 C46.7704858,59.7758327 46.8113059,59.3444601 46.8264729,58.9129057 C46.8779661,57.4399816 46.7240484,55.9937057 46.2029376,54.5995437 C46.1089392,54.347978 45.9754315,54.1103274 45.860274,53.8662195 C45.8275057,53.8758601 45.7947373,53.8855917 45.7619689,53.8952323 Z" id="person" fill="#05BCB0"></path>
                <path d="M60.3735854,41 C60.9159216,41.1300366 61.4409973,41.2896146 61.9070291,41.6084988 C63.1568545,42.46375 63.5618617,44.196635 62.8511656,45.5101406 C61.7643239,47.5192288 58.838161,47.7676123 57.3924344,45.8873827 C56.1351577,44.2522743 56.9759202,41.7697079 59.0010505,41.1791515 C59.213552,41.1171689 59.4273739,41.0596265 59.6405356,41 L60.3735854,41 Z M63.7619689,53.8952323 C63.7619689,54.0006425 63.7611263,54.1060528 63.7620625,54.211463 C63.7809746,56.1746039 63.7932393,58.1377447 63.8205775,60.1007946 C63.8832119,64.6147907 63.9511829,69.1286959 64.0220562,73.6425101 C64.0351635,74.4766062 64.0748601,75.3103385 64.0976107,76.1444346 C64.1228891,77.0736637 63.8148664,77.5762496 63.0457459,77.8744724 C62.3155729,78.1575976 61.4338227,77.9511426 60.8872462,77.3625187 C60.516121,76.9627965 60.459104,76.4620296 60.4499289,75.9585342 C60.3810217,72.1702226 60.3182936,68.3816382 60.2553784,64.5931448 C60.2476076,64.1260291 60.2504163,64.124392 59.7102999,64.207065 C59.7102999,64.3334845 59.7118915,64.4673619 59.710019,64.6012393 C59.6671392,67.693061 59.6296897,70.7850647 59.5769794,73.8767955 C59.5623741,74.7298091 59.5241755,75.5837321 59.4562982,76.43429 C59.3947872,77.2056311 58.8973633,77.7217685 58.0935083,77.9340442 C57.3672675,78.1257653 56.5665957,77.8831125 56.1400451,77.317044 C55.8426955,76.922324 55.8421337,76.4546627 55.8552411,75.9891841 C55.9081386,74.105442 55.9909021,72.2218819 56.0044776,70.3379579 C56.0423953,65.0370683 56.0516641,59.7359969 56.0720741,54.4350164 C56.0724486,54.3510702 56.0721677,54.267215 56.046702,54.1805403 C55.6577882,54.8811228 55.4710085,55.6363659 55.3460205,56.4103445 C55.1603643,57.5607623 55.1719737,58.7148181 55.2490262,59.8731485 C55.3079156,60.7599042 54.9582302,61.2475744 54.1945399,61.4153759 C53.4173677,61.5861787 52.4997596,61.1755426 52.2347102,60.4831455 C52.1039176,60.141267 52.0500838,59.7595528 52.0285503,59.3922085 C51.902907,57.2470781 52.1819999,55.1569721 53.0642182,53.1733676 C53.820325,51.4731613 54.9627242,50.0755432 56.7568395,49.3373077 C58.0123363,48.8208066 59.3505031,48.5768805 60.7274302,48.7794246 C61.4337291,48.8833797 62.1461136,48.9927917 62.8299427,49.1857861 C63.8170198,49.4643639 64.6471831,50.0281586 65.3445878,50.7578449 C67.016243,52.5065273 67.7057832,54.6602979 67.9364725,56.9678638 C68.0344968,57.9484792 68.0046308,58.9487397 67.9437752,59.9349031 C67.8731828,61.0783178 66.5580475,61.7831749 65.5010333,61.302235 C65.0213043,61.0840476 64.7765714,60.7117921 64.7732946,60.2071143 C64.7704858,59.7758327 64.8113059,59.3444601 64.8264729,58.9129057 C64.8779661,57.4399816 64.7240484,55.9937057 64.2029376,54.5995437 C64.1089392,54.347978 63.9754315,54.1103274 63.860274,53.8662195 C63.8275057,53.8758601 63.7947373,53.8855917 63.7619689,53.8952323 Z" id="person" fill="#05BCB0"></path>
                <path d="M78.3735854,41 C78.9159216,41.1300366 79.4409973,41.2896146 79.9070291,41.6084988 C81.1568545,42.46375 81.5618617,44.196635 80.8511656,45.5101406 C79.7643239,47.5192288 76.838161,47.7676123 75.3924344,45.8873827 C74.1351577,44.2522743 74.9759202,41.7697079 77.0010505,41.1791515 C77.213552,41.1171689 77.4273739,41.0596265 77.6405356,41 L78.3735854,41 Z M81.7619689,53.8952323 C81.7619689,54.0006425 81.7611263,54.1060528 81.7620625,54.211463 C81.7809746,56.1746039 81.7932393,58.1377447 81.8205775,60.1007946 C81.8832119,64.6147907 81.9511829,69.1286959 82.0220562,73.6425101 C82.0351635,74.4766062 82.0748601,75.3103385 82.0976107,76.1444346 C82.1228891,77.0736637 81.8148664,77.5762496 81.0457459,77.8744724 C80.3155729,78.1575976 79.4338227,77.9511426 78.8872462,77.3625187 C78.516121,76.9627965 78.459104,76.4620296 78.4499289,75.9585342 C78.3810217,72.1702226 78.3182936,68.3816382 78.2553784,64.5931448 C78.2476076,64.1260291 78.2504163,64.124392 77.7102999,64.207065 C77.7102999,64.3334845 77.7118915,64.4673619 77.710019,64.6012393 C77.6671392,67.693061 77.6296897,70.7850647 77.5769794,73.8767955 C77.5623741,74.7298091 77.5241755,75.5837321 77.4562982,76.43429 C77.3947872,77.2056311 76.8973633,77.7217685 76.0935083,77.9340442 C75.3672675,78.1257653 74.5665957,77.8831125 74.1400451,77.317044 C73.8426955,76.922324 73.8421337,76.4546627 73.8552411,75.9891841 C73.9081386,74.105442 73.9909021,72.2218819 74.0044776,70.3379579 C74.0423953,65.0370683 74.0516641,59.7359969 74.0720741,54.4350164 C74.0724486,54.3510702 74.0721677,54.267215 74.046702,54.1805403 C73.6577882,54.8811228 73.4710085,55.6363659 73.3460205,56.4103445 C73.1603643,57.5607623 73.1719737,58.7148181 73.2490262,59.8731485 C73.3079156,60.7599042 72.9582302,61.2475744 72.1945399,61.4153759 C71.4173677,61.5861787 70.4997596,61.1755426 70.2347102,60.4831455 C70.1039176,60.141267 70.0500838,59.7595528 70.0285503,59.3922085 C69.902907,57.2470781 70.1819999,55.1569721 71.0642182,53.1733676 C71.820325,51.4731613 72.9627242,50.0755432 74.7568395,49.3373077 C76.0123363,48.8208066 77.3505031,48.5768805 78.7274302,48.7794246 C79.4337291,48.8833797 80.1461136,48.9927917 80.8299427,49.1857861 C81.8170198,49.4643639 82.6471831,50.0281586 83.3445878,50.7578449 C85.016243,52.5065273 85.7057832,54.6602979 85.9364725,56.9678638 C86.0344968,57.9484792 86.0046308,58.9487397 85.9437752,59.9349031 C85.8731828,61.0783178 84.5580475,61.7831749 83.5010333,61.302235 C83.0213043,61.0840476 82.7765714,60.7117921 82.7732946,60.2071143 C82.7704858,59.7758327 82.8113059,59.3444601 82.8264729,58.9129057 C82.8779661,57.4399816 82.7240484,55.9937057 82.2029376,54.5995437 C82.1089392,54.347978 81.9754315,54.1103274 81.860274,53.8662195 C81.8275057,53.8758601 81.7947373,53.8855917 81.7619689,53.8952323 Z" id="person" fill="#05BCB0"></path>
                <path d="M95.3735854,0 C95.9159216,0.130036603 96.4409973,0.289614621 96.9070291,0.608498806 C98.1568545,1.46374999 98.5618617,3.19663498 97.8511656,4.51014059 C96.7643239,6.51922875 93.838161,6.76761226 92.3924344,4.88738266 C91.1351577,3.25227433 91.9759202,0.769707946 94.0010505,0.179151473 C94.213552,0.117168869 94.4273739,0.0596265397 94.6405356,0 L95.3735854,0 Z M98.7619689,12.8952323 C98.7619689,13.0006425 98.7611263,13.1060528 98.7620625,13.211463 C98.7809746,15.1746039 98.7932393,17.1377447 98.8205775,19.1007946 C98.8832119,23.6147907 98.9511829,28.1286959 99.0220562,32.6425101 C99.0351635,33.4766062 99.0748601,34.3103385 99.0976107,35.1444346 C99.1228891,36.0736637 98.8148664,36.5762496 98.0457459,36.8744724 C97.3155729,37.1575976 96.4338227,36.9511426 95.8872462,36.3625187 C95.516121,35.9627965 95.459104,35.4620296 95.4499289,34.9585342 C95.3810217,31.1702226 95.3182936,27.3816382 95.2553784,23.5931448 C95.2476076,23.1260291 95.2504163,23.124392 94.7102999,23.207065 C94.7102999,23.3334845 94.7118915,23.4673619 94.710019,23.6012393 C94.6671392,26.693061 94.6296897,29.7850647 94.5769794,32.8767955 C94.5623741,33.7298091 94.5241755,34.5837321 94.4562982,35.43429 C94.3947872,36.2056311 93.8973633,36.7217685 93.0935083,36.9340442 C92.3672675,37.1257653 91.5665957,36.8831125 91.1400451,36.317044 C90.8426955,35.922324 90.8421337,35.4546627 90.8552411,34.9891841 C90.9081386,33.105442 90.9909021,31.2218819 91.0044776,29.3379579 C91.0423953,24.0370683 91.0516641,18.7359969 91.0720741,13.4350164 C91.0724486,13.3510702 91.0721677,13.267215 91.046702,13.1805403 C90.6577882,13.8811228 90.4710085,14.6363659 90.3460205,15.4103445 C90.1603643,16.5607623 90.1719737,17.7148181 90.2490262,18.8731485 C90.3079156,19.7599042 89.9582302,20.2475744 89.1945399,20.4153759 C88.4173677,20.5861787 87.4997596,20.1755426 87.2347102,19.4831455 C87.1039176,19.141267 87.0500838,18.7595528 87.0285503,18.3922085 C86.902907,16.2470781 87.1819999,14.1569721 88.0642182,12.1733676 C88.820325,10.4731613 89.9627242,9.07554322 91.7568395,8.33730768 C93.0123363,7.82080655 94.3505031,7.57688051 95.7274302,7.77942462 C96.4337291,7.88337968 97.1461136,7.9927917 97.8299427,8.18578613 C98.8170198,8.46436386 99.6471831,9.02815863 100.344588,9.75784494 C102.016243,11.5065273 102.705783,13.6602979 102.936473,15.9678638 C103.034497,16.9484792 103.004631,17.9487397 102.943775,18.9349031 C102.873183,20.0783178 101.558047,20.7831749 100.501033,20.302235 C100.021304,20.0840476 99.7765714,19.7117921 99.7732946,19.2071143 C99.7704858,18.7758327 99.8113059,18.3444601 99.8264729,17.9129057 C99.8779661,16.4399816 99.7240484,14.9937057 99.2029376,13.5995437 C99.1089392,13.347978 98.9754315,13.1103274 98.860274,12.8662195 C98.8275057,12.8758601 98.7947373,12.8855917 98.7619689,12.8952323 Z" id="person" fill="#05BCB0"></path>
            </g>
        </g>
    </g>
</svg>