<?xml version="1.0" encoding="UTF-8"?>
<svg width="94px" height="66px" viewBox="0 0 94 66" version="1.1" xmlns="http://www.w3.org/2000/svg" xmlns:xlink="http://www.w3.org/1999/xlink">
    <!-- Generator: Sketch 52.2 (67145) - http://www.bohemiancoding.com/sketch -->
    <title>Group 11</title>
    <desc>Created with Sketch.</desc>
    <g id="Page-1" stroke="none" stroke-width="1" fill="none" fill-rule="evenodd">
        <g id="Desktop" transform="translate(-83.000000, -5113.000000)">
            <g id="Group-11" transform="translate(83.000000, 5113.000000)">
                <path d="M14.6537745,0 C15.6028627,0.231957183 16.5217452,0.516609865 17.3373009,1.0854303 C19.5244954,2.6110135 20.233258,5.70210563 18.9895397,8.04511565 C17.0875669,11.6288945 11.9667818,12.071957 9.43676012,8.71803394 C7.23652595,5.80135421 8.70786034,1.37299255 12.2518384,0.319567492 C12.623716,0.209003929 12.9979043,0.106360855 13.3709373,0 L14.6537745,0 Z M20.5834456,23.0023063 C20.5834456,23.1903354 20.581971,23.3783644 20.5836094,23.5663935 C20.6167055,27.0682123 20.6381688,30.5700311 20.6860106,34.0716877 C20.7956208,42.1236807 20.91457,50.1755115 21.0385983,58.2271801 C21.0615362,59.7150272 21.1310051,61.2022254 21.1708187,62.6900725 C21.215056,64.3476163 20.6760162,65.2441209 19.3300553,65.7760858 C18.0522525,66.28112 16.5091898,65.912849 15.5526809,64.8628712 C14.9032118,64.1498532 14.8034321,63.2565933 14.7873755,62.3584664 C14.6667879,55.6009377 14.5570139,48.8429223 14.4469121,42.085069 C14.4333133,41.2518357 14.4382285,41.2489155 13.4930248,41.3963861 C13.4930248,41.6218913 13.4958101,41.8606996 13.4925332,42.0995079 C13.4174937,47.6146494 13.3519569,53.1301154 13.2597139,58.6450946 C13.2341546,60.1666864 13.1673071,61.6899005 13.0485218,63.207112 C12.9408777,64.5830177 12.0703858,65.5036951 10.6636395,65.882349 C9.3927181,66.2243381 7.99154242,65.791498 7.24507885,64.7817542 C6.72471707,64.0776591 6.72373402,63.2434524 6.74667188,62.4131393 C6.83924254,59.0529507 6.98407875,55.6930866 7.00783582,52.3325735 C7.07419178,42.8769327 7.09041213,33.4209675 7.12612965,23.9651645 C7.12678502,23.8154226 7.12629349,23.6658429 7.08172851,23.511234 C6.40112937,24.7609218 6.07426484,26.1081121 5.85553594,27.4887226 C5.53063751,29.5408192 5.5509539,31.5994052 5.68579576,33.6656162 C5.7888523,35.2473968 5.17690291,36.1172949 3.84044477,36.4166165 C2.4803934,36.7212918 0.874579216,35.9888057 0.410742879,34.753719 C0.181855785,34.1438818 0.0876467091,33.4629861 0.0499630787,32.8077233 C-0.169912712,28.9812745 0.318499906,25.2529772 1.86238186,21.7146558 C3.18556881,18.6818552 5.18476732,16.1888068 8.3244691,14.8719542 C10.5215886,13.9506279 12.8633805,13.5155166 15.2730029,13.8768115 C16.5090259,14.0622448 17.7556987,14.2574122 18.9523998,14.6016726 C20.6797846,15.098595 22.1325705,16.104283 23.3530286,17.4058856 C26.2784252,20.5251568 27.4851206,24.3670179 27.8888269,28.4832164 C28.0603694,30.2324224 28.0081038,32.0166708 27.9016066,33.775773 C27.7780698,35.8153776 25.4765831,37.0726904 23.6268083,36.2147975 C22.7872826,35.8255984 22.3589999,35.161575 22.3532655,34.2613391 C22.3483502,33.4920259 22.4197853,32.7225505 22.4463277,31.9527507 C22.5364407,29.3253726 22.2670847,26.7455291 21.3551408,24.2586456 C21.1906436,23.8099066 20.9570051,23.3859894 20.7554795,22.9505536 C20.6981349,22.9677504 20.6407902,22.9851095 20.5834456,23.0023063 Z" id="person" fill="#FF8A57"></path>
                <path d="M47.6537745,0 C48.6028627,0.231957183 49.5217452,0.516609865 50.3373009,1.0854303 C52.5244954,2.6110135 53.233258,5.70210563 51.9895397,8.04511565 C50.0875669,11.6288945 44.9667818,12.071957 42.4367601,8.71803394 C40.236526,5.80135421 41.7078603,1.37299255 45.2518384,0.319567492 C45.623716,0.209003929 45.9979043,0.106360855 46.3709373,0 L47.6537745,0 Z M53.5834456,23.0023063 C53.5834456,23.1903354 53.581971,23.3783644 53.5836094,23.5663935 C53.6167055,27.0682123 53.6381688,30.5700311 53.6860106,34.0716877 C53.7956208,42.1236807 53.91457,50.1755115 54.0385983,58.2271801 C54.0615362,59.7150272 54.1310051,61.2022254 54.1708187,62.6900725 C54.215056,64.3476163 53.6760162,65.2441209 52.3300553,65.7760858 C51.0522525,66.28112 49.5091898,65.912849 48.5526809,64.8628712 C47.9032118,64.1498532 47.8034321,63.2565933 47.7873755,62.3584664 C47.6667879,55.6009377 47.5570139,48.8429223 47.4469121,42.085069 C47.4333133,41.2518357 47.4382285,41.2489155 46.4930248,41.3963861 C46.4930248,41.6218913 46.4958101,41.8606996 46.4925332,42.0995079 C46.4174937,47.6146494 46.3519569,53.1301154 46.2597139,58.6450946 C46.2341546,60.1666864 46.1673071,61.6899005 46.0485218,63.207112 C45.9408777,64.5830177 45.0703858,65.5036951 43.6636395,65.882349 C42.3927181,66.2243381 40.9915424,65.791498 40.2450789,64.7817542 C39.7247171,64.0776591 39.723734,63.2434524 39.7466719,62.4131393 C39.8392425,59.0529507 39.9840788,55.6930866 40.0078358,52.3325735 C40.0741918,42.8769327 40.0904121,33.4209675 40.1261297,23.9651645 C40.126785,23.8154226 40.1262935,23.6658429 40.0817285,23.511234 C39.4011294,24.7609218 39.0742648,26.1081121 38.8555359,27.4887226 C38.5306375,29.5408192 38.5509539,31.5994052 38.6857958,33.6656162 C38.7888523,35.2473968 38.1769029,36.1172949 36.8404448,36.4166165 C35.4803934,36.7212918 33.8745792,35.9888057 33.4107429,34.753719 C33.1818558,34.1438818 33.0876467,33.4629861 33.0499631,32.8077233 C32.8300873,28.9812745 33.3184999,25.2529772 34.8623819,21.7146558 C36.1855688,18.6818552 38.1847673,16.1888068 41.3244691,14.8719542 C43.5215886,13.9506279 45.8633805,13.5155166 48.2730029,13.8768115 C49.5090259,14.0622448 50.7556987,14.2574122 51.9523998,14.6016726 C53.6797846,15.098595 55.1325705,16.104283 56.3530286,17.4058856 C59.2784252,20.5251568 60.4851206,24.3670179 60.8888269,28.4832164 C61.0603694,30.2324224 61.0081038,32.0166708 60.9016066,33.775773 C60.7780698,35.8153776 58.4765831,37.0726904 56.6268083,36.2147975 C55.7872826,35.8255984 55.3589999,35.161575 55.3532655,34.2613391 C55.3483502,33.4920259 55.4197853,32.7225505 55.4463277,31.9527507 C55.5364407,29.3253726 55.2670847,26.7455291 54.3551408,24.2586456 C54.1906436,23.8099066 53.9570051,23.3859894 53.7554795,22.9505536 C53.6981349,22.9677504 53.6407902,22.9851095 53.5834456,23.0023063 Z" id="person" fill="#05BCB0"></path>
                <path d="M80.6537745,0 C81.6028627,0.231957183 82.5217452,0.516609865 83.3373009,1.0854303 C85.5244954,2.6110135 86.233258,5.70210563 84.9895397,8.04511565 C83.0875669,11.6288945 77.9667818,12.071957 75.4367601,8.71803394 C73.236526,5.80135421 74.7078603,1.37299255 78.2518384,0.319567492 C78.623716,0.209003929 78.9979043,0.106360855 79.3709373,0 L80.6537745,0 Z M86.5834456,23.0023063 C86.5834456,23.1903354 86.581971,23.3783644 86.5836094,23.5663935 C86.6167055,27.0682123 86.6381688,30.5700311 86.6860106,34.0716877 C86.7956208,42.1236807 86.91457,50.1755115 87.0385983,58.2271801 C87.0615362,59.7150272 87.1310051,61.2022254 87.1708187,62.6900725 C87.215056,64.3476163 86.6760162,65.2441209 85.3300553,65.7760858 C84.0522525,66.28112 82.5091898,65.912849 81.5526809,64.8628712 C80.9032118,64.1498532 80.8034321,63.2565933 80.7873755,62.3584664 C80.6667879,55.6009377 80.5570139,48.8429223 80.4469121,42.085069 C80.4333133,41.2518357 80.4382285,41.2489155 79.4930248,41.3963861 C79.4930248,41.6218913 79.4958101,41.8606996 79.4925332,42.0995079 C79.4174937,47.6146494 79.3519569,53.1301154 79.2597139,58.6450946 C79.2341546,60.1666864 79.1673071,61.6899005 79.0485218,63.207112 C78.9408777,64.5830177 78.0703858,65.5036951 76.6636395,65.882349 C75.3927181,66.2243381 73.9915424,65.791498 73.2450789,64.7817542 C72.7247171,64.0776591 72.723734,63.2434524 72.7466719,62.4131393 C72.8392425,59.0529507 72.9840788,55.6930866 73.0078358,52.3325735 C73.0741918,42.8769327 73.0904121,33.4209675 73.1261297,23.9651645 C73.126785,23.8154226 73.1262935,23.6658429 73.0817285,23.511234 C72.4011294,24.7609218 72.0742648,26.1081121 71.8555359,27.4887226 C71.5306375,29.5408192 71.5509539,31.5994052 71.6857958,33.6656162 C71.7888523,35.2473968 71.1769029,36.1172949 69.8404448,36.4166165 C68.4803934,36.7212918 66.8745792,35.9888057 66.4107429,34.753719 C66.1818558,34.1438818 66.0876467,33.4629861 66.0499631,32.8077233 C65.8300873,28.9812745 66.3184999,25.2529772 67.8623819,21.7146558 C69.1855688,18.6818552 71.1847673,16.1888068 74.3244691,14.8719542 C76.5215886,13.9506279 78.8633805,13.5155166 81.2730029,13.8768115 C82.5090259,14.0622448 83.7556987,14.2574122 84.9523998,14.6016726 C86.6797846,15.098595 88.1325705,16.104283 89.3530286,17.4058856 C92.2784252,20.5251568 93.4851206,24.3670179 93.8888269,28.4832164 C94.0603694,30.2324224 94.0081038,32.0166708 93.9016066,33.775773 C93.7780698,35.8153776 91.4765831,37.0726904 89.6268083,36.2147975 C88.7872826,35.8255984 88.3589999,35.161575 88.3532655,34.2613391 C88.3483502,33.4920259 88.4197853,32.7225505 88.4463277,31.9527507 C88.5364407,29.3253726 88.2670847,26.7455291 87.3551408,24.2586456 C87.1906436,23.8099066 86.9570051,23.3859894 86.7554795,22.9505536 C86.6981349,22.9677504 86.6407902,22.9851095 86.5834456,23.0023063 Z" id="person" fill="#05BCB0"></path>
            </g>
        </g>
    </g>
</svg>