<?xml version="1.0" encoding="UTF-8"?>
<svg width="107px" height="57px" viewBox="0 0 107 57" version="1.1" xmlns="http://www.w3.org/2000/svg" xmlns:xlink="http://www.w3.org/1999/xlink">
    <!-- Generator: Sketch 52.2 (67145) - http://www.bohemiancoding.com/sketch -->
    <title>Group 12</title>
    <desc>Created with Sketch.</desc>
    <g id="Page-1" stroke="none" stroke-width="1" fill="none" fill-rule="evenodd">
        <g id="Desktop" transform="translate(-70.000000, -3032.000000)">
            <g id="Group-12" transform="translate(70.000000, 3032.000000)">
                <path d="M13.0837272,0 C13.9311274,0.200326658 14.7515582,0.446163065 15.4797329,0.937417079 C17.4325852,2.25496621 18.0654089,4.92454577 16.9549462,6.94805442 C15.2567561,10.0431362 10.6846266,10.425781 8.42567868,7.52921113 C6.46118389,5.01026046 7.7748753,1.18576629 10.9391414,0.275990106 C11.271175,0.180503393 11.6052717,0.0918571017 11.9383368,0 L13.0837272,0 Z M18.3780764,19.8656281 C18.3780764,20.0280169 18.3767598,20.1904057 18.3782227,20.3527944 C18.4077728,23.3770925 18.4269364,26.4013905 18.4696523,29.4255484 C18.5675186,36.3795424 18.6737232,43.3333963 18.7844628,50.2871101 C18.804943,51.572069 18.8669689,52.8564674 18.9025167,54.1414263 C18.9420143,55.5729414 18.4607288,56.3471953 17.2589779,56.8066196 C16.1180826,57.2427854 14.740348,56.9247332 13.8863223,56.0179342 C13.3064391,55.4021459 13.21735,54.6306942 13.2030139,53.8550392 C13.0953464,48.0189916 12.9973338,42.1825238 12.8990287,36.346196 C12.8868868,35.6265854 12.8912755,35.6240634 12.0473435,35.7514244 C12.0473435,35.9461788 12.0498304,36.1524223 12.0469047,36.3586659 C11.9799051,41.1217426 11.9213901,45.8850996 11.8390303,50.6480363 C11.8162095,51.9621383 11.7565242,53.2776414 11.6504659,54.5879603 C11.5543551,55.7762426 10.7771302,56.571373 9.52110669,56.8983923 C8.38635545,57.1937465 7.13530573,56.8199301 6.4688204,55.9478787 C6.00421167,55.3397965 6.00333394,54.6193452 6.02381418,53.9022566 C6.10646655,51.0002756 6.2357846,48.0985747 6.25699627,45.1963135 C6.31624266,37.0300783 6.33072511,28.8635628 6.36261576,20.6971875 C6.36320091,20.567865 6.36276205,20.4386825 6.32297188,20.3051566 C5.71529408,21.3844324 5.42345075,22.547915 5.22815709,23.7402604 C4.93806921,25.5125257 4.95620884,27.2903954 5.07660336,29.0748504 C5.16861813,30.4409336 4.62223474,31.1922093 3.42896854,31.4507142 C2.21463696,31.7138429 0.7808743,31.0812413 0.366734713,30.0145755 C0.162371237,29.4878979 0.0782559902,28.8998516 0.0446098917,28.3339429 C-0.151707779,25.0292825 0.284374916,21.8093894 1.66284094,18.7535664 C2.84425787,16.1343295 4.62925654,13.9812423 7.4325617,12.8439605 C9.39427553,12.0482696 11.4851611,11.6724916 13.6366097,11.984519 C14.7402017,12.144666 15.8533024,12.3132196 16.9217855,12.6105354 C18.4640934,13.0396957 19.7612236,13.9082444 20.8509184,15.0323557 C23.4628796,17.7262718 24.5402862,21.0442427 24.9007383,24.5991415 C25.0539012,26.1098193 25.0072356,27.6507612 24.9121488,29.1699858 C24.8018481,30.9314625 22.7469492,32.0173235 21.0953646,31.276416 C20.345788,30.9402895 19.9633928,30.3668148 19.9582727,29.5893383 C19.9538841,28.9249315 20.0176654,28.2603845 20.041364,27.5955574 C20.121822,25.3264582 19.8813256,23.0984115 19.06709,20.9506485 C18.9202175,20.5631012 18.7116117,20.1969909 18.5316782,19.8209327 C18.4804776,19.8357845 18.429277,19.8507764 18.3780764,19.8656281 Z" id="person" fill="#FF8A57"></path>
                <path d="M39.0837272,0 C39.9311274,0.200326658 40.7515582,0.446163065 41.4797329,0.937417079 C43.4325852,2.25496621 44.0654089,4.92454577 42.9549462,6.94805442 C41.2567561,10.0431362 36.6846266,10.425781 34.4256787,7.52921113 C32.4611839,5.01026046 33.7748753,1.18576629 36.9391414,0.275990106 C37.271175,0.180503393 37.6052717,0.0918571017 37.9383368,0 L39.0837272,0 Z M44.3780764,19.8656281 C44.3780764,20.0280169 44.3767598,20.1904057 44.3782227,20.3527944 C44.4077728,23.3770925 44.4269364,26.4013905 44.4696523,29.4255484 C44.5675186,36.3795424 44.6737232,43.3333963 44.7844628,50.2871101 C44.804943,51.572069 44.8669689,52.8564674 44.9025167,54.1414263 C44.9420143,55.5729414 44.4607288,56.3471953 43.2589779,56.8066196 C42.1180826,57.2427854 40.740348,56.9247332 39.8863223,56.0179342 C39.3064391,55.4021459 39.21735,54.6306942 39.2030139,53.8550392 C39.0953464,48.0189916 38.9973338,42.1825238 38.8990287,36.346196 C38.8868868,35.6265854 38.8912755,35.6240634 38.0473435,35.7514244 C38.0473435,35.9461788 38.0498304,36.1524223 38.0469047,36.3586659 C37.9799051,41.1217426 37.9213901,45.8850996 37.8390303,50.6480363 C37.8162095,51.9621383 37.7565242,53.2776414 37.6504659,54.5879603 C37.5543551,55.7762426 36.7771302,56.571373 35.5211067,56.8983923 C34.3863554,57.1937465 33.1353057,56.8199301 32.4688204,55.9478787 C32.0042117,55.3397965 32.0033339,54.6193452 32.0238142,53.9022566 C32.1064666,51.0002756 32.2357846,48.0985747 32.2569963,45.1963135 C32.3162427,37.0300783 32.3307251,28.8635628 32.3626158,20.6971875 C32.3632009,20.567865 32.362762,20.4386825 32.3229719,20.3051566 C31.7152941,21.3844324 31.4234508,22.547915 31.2281571,23.7402604 C30.9380692,25.5125257 30.9562088,27.2903954 31.0766034,29.0748504 C31.1686181,30.4409336 30.6222347,31.1922093 29.4289685,31.4507142 C28.214637,31.7138429 26.7808743,31.0812413 26.3667347,30.0145755 C26.1623712,29.4878979 26.078256,28.8998516 26.0446099,28.3339429 C25.8482922,25.0292825 26.2843749,21.8093894 27.6628409,18.7535664 C28.8442579,16.1343295 30.6292565,13.9812423 33.4325617,12.8439605 C35.3942755,12.0482696 37.4851611,11.6724916 39.6366097,11.984519 C40.7402017,12.144666 41.8533024,12.3132196 42.9217855,12.6105354 C44.4640934,13.0396957 45.7612236,13.9082444 46.8509184,15.0323557 C49.4628796,17.7262718 50.5402862,21.0442427 50.9007383,24.5991415 C51.0539012,26.1098193 51.0072356,27.6507612 50.9121488,29.1699858 C50.8018481,30.9314625 48.7469492,32.0173235 47.0953646,31.276416 C46.345788,30.9402895 45.9633928,30.3668148 45.9582727,29.5893383 C45.9538841,28.9249315 46.0176654,28.2603845 46.041364,27.5955574 C46.121822,25.3264582 45.8813256,23.0984115 45.06709,20.9506485 C44.9202175,20.5631012 44.7116117,20.1969909 44.5316782,19.8209327 C44.4804776,19.8357845 44.429277,19.8507764 44.3780764,19.8656281 Z" id="person" fill="#05BCB0"></path>
                <path d="M67.0837272,0 C67.9311274,0.200326658 68.7515582,0.446163065 69.4797329,0.937417079 C71.4325852,2.25496621 72.0654089,4.92454577 70.9549462,6.94805442 C69.2567561,10.0431362 64.6846266,10.425781 62.4256787,7.52921113 C60.4611839,5.01026046 61.7748753,1.18576629 64.9391414,0.275990106 C65.271175,0.180503393 65.6052717,0.0918571017 65.9383368,0 L67.0837272,0 Z M72.3780764,19.8656281 C72.3780764,20.0280169 72.3767598,20.1904057 72.3782227,20.3527944 C72.4077728,23.3770925 72.4269364,26.4013905 72.4696523,29.4255484 C72.5675186,36.3795424 72.6737232,43.3333963 72.7844628,50.2871101 C72.804943,51.572069 72.8669689,52.8564674 72.9025167,54.1414263 C72.9420143,55.5729414 72.4607288,56.3471953 71.2589779,56.8066196 C70.1180826,57.2427854 68.740348,56.9247332 67.8863223,56.0179342 C67.3064391,55.4021459 67.21735,54.6306942 67.2030139,53.8550392 C67.0953464,48.0189916 66.9973338,42.1825238 66.8990287,36.346196 C66.8868868,35.6265854 66.8912755,35.6240634 66.0473435,35.7514244 C66.0473435,35.9461788 66.0498304,36.1524223 66.0469047,36.3586659 C65.9799051,41.1217426 65.9213901,45.8850996 65.8390303,50.6480363 C65.8162095,51.9621383 65.7565242,53.2776414 65.6504659,54.5879603 C65.5543551,55.7762426 64.7771302,56.571373 63.5211067,56.8983923 C62.3863554,57.1937465 61.1353057,56.8199301 60.4688204,55.9478787 C60.0042117,55.3397965 60.0033339,54.6193452 60.0238142,53.9022566 C60.1064666,51.0002756 60.2357846,48.0985747 60.2569963,45.1963135 C60.3162427,37.0300783 60.3307251,28.8635628 60.3626158,20.6971875 C60.3632009,20.567865 60.362762,20.4386825 60.3229719,20.3051566 C59.7152941,21.3844324 59.4234508,22.547915 59.2281571,23.7402604 C58.9380692,25.5125257 58.9562088,27.2903954 59.0766034,29.0748504 C59.1686181,30.4409336 58.6222347,31.1922093 57.4289685,31.4507142 C56.214637,31.7138429 54.7808743,31.0812413 54.3667347,30.0145755 C54.1623712,29.4878979 54.078256,28.8998516 54.0446099,28.3339429 C53.8482922,25.0292825 54.2843749,21.8093894 55.6628409,18.7535664 C56.8442579,16.1343295 58.6292565,13.9812423 61.4325617,12.8439605 C63.3942755,12.0482696 65.4851611,11.6724916 67.6366097,11.984519 C68.7402017,12.144666 69.8533024,12.3132196 70.9217855,12.6105354 C72.4640934,13.0396957 73.7612236,13.9082444 74.8509184,15.0323557 C77.4628796,17.7262718 78.5402862,21.0442427 78.9007383,24.5991415 C79.0539012,26.1098193 79.0072356,27.6507612 78.9121488,29.1699858 C78.8018481,30.9314625 76.7469492,32.0173235 75.0953646,31.276416 C74.345788,30.9402895 73.9633928,30.3668148 73.9582727,29.5893383 C73.9538841,28.9249315 74.0176654,28.2603845 74.041364,27.5955574 C74.121822,25.3264582 73.8813256,23.0984115 73.06709,20.9506485 C72.9202175,20.5631012 72.7116117,20.1969909 72.5316782,19.8209327 C72.4804776,19.8357845 72.429277,19.8507764 72.3780764,19.8656281 Z" id="person" fill="#05BCB0"></path>
                <path d="M95.0837272,0 C95.9311274,0.200326658 96.7515582,0.446163065 97.4797329,0.937417079 C99.4325852,2.25496621 100.065409,4.92454577 98.9549462,6.94805442 C97.2567561,10.0431362 92.6846266,10.425781 90.4256787,7.52921113 C88.4611839,5.01026046 89.7748753,1.18576629 92.9391414,0.275990106 C93.271175,0.180503393 93.6052717,0.0918571017 93.9383368,0 L95.0837272,0 Z M100.378076,19.8656281 C100.378076,20.0280169 100.37676,20.1904057 100.378223,20.3527944 C100.407773,23.3770925 100.426936,26.4013905 100.469652,29.4255484 C100.567519,36.3795424 100.673723,43.3333963 100.784463,50.2871101 C100.804943,51.572069 100.866969,52.8564674 100.902517,54.1414263 C100.942014,55.5729414 100.460729,56.3471953 99.2589779,56.8066196 C98.1180826,57.2427854 96.740348,56.9247332 95.8863223,56.0179342 C95.3064391,55.4021459 95.21735,54.6306942 95.2030139,53.8550392 C95.0953464,48.0189916 94.9973338,42.1825238 94.8990287,36.346196 C94.8868868,35.6265854 94.8912755,35.6240634 94.0473435,35.7514244 C94.0473435,35.9461788 94.0498304,36.1524223 94.0469047,36.3586659 C93.9799051,41.1217426 93.9213901,45.8850996 93.8390303,50.6480363 C93.8162095,51.9621383 93.7565242,53.2776414 93.6504659,54.5879603 C93.5543551,55.7762426 92.7771302,56.571373 91.5211067,56.8983923 C90.3863554,57.1937465 89.1353057,56.8199301 88.4688204,55.9478787 C88.0042117,55.3397965 88.0033339,54.6193452 88.0238142,53.9022566 C88.1064666,51.0002756 88.2357846,48.0985747 88.2569963,45.1963135 C88.3162427,37.0300783 88.3307251,28.8635628 88.3626158,20.6971875 C88.3632009,20.567865 88.362762,20.4386825 88.3229719,20.3051566 C87.7152941,21.3844324 87.4234508,22.547915 87.2281571,23.7402604 C86.9380692,25.5125257 86.9562088,27.2903954 87.0766034,29.0748504 C87.1686181,30.4409336 86.6222347,31.1922093 85.4289685,31.4507142 C84.214637,31.7138429 82.7808743,31.0812413 82.3667347,30.0145755 C82.1623712,29.4878979 82.078256,28.8998516 82.0446099,28.3339429 C81.8482922,25.0292825 82.2843749,21.8093894 83.6628409,18.7535664 C84.8442579,16.1343295 86.6292565,13.9812423 89.4325617,12.8439605 C91.3942755,12.0482696 93.4851611,11.6724916 95.6366097,11.984519 C96.7402017,12.144666 97.8533024,12.3132196 98.9217855,12.6105354 C100.464093,13.0396957 101.761224,13.9082444 102.850918,15.0323557 C105.46288,17.7262718 106.540286,21.0442427 106.900738,24.5991415 C107.053901,26.1098193 107.007236,27.6507612 106.912149,29.1699858 C106.801848,30.9314625 104.746949,32.0173235 103.095365,31.276416 C102.345788,30.9402895 101.963393,30.3668148 101.958273,29.5893383 C101.953884,28.9249315 102.017665,28.2603845 102.041364,27.5955574 C102.121822,25.3264582 101.881326,23.0984115 101.06709,20.9506485 C100.920217,20.5631012 100.711612,20.1969909 100.531678,19.8209327 C100.480478,19.8357845 100.429277,19.8507764 100.378076,19.8656281 Z" id="person" fill="#05BCB0"></path>
            </g>
        </g>
    </g>
</svg>