<?xml version="1.0" encoding="UTF-8"?>
<svg width="72px" height="67px" viewBox="0 0 72 67" version="1.1" xmlns="http://www.w3.org/2000/svg" xmlns:xlink="http://www.w3.org/1999/xlink">
    <!-- Generator: Sketch 52.2 (67145) - http://www.bohemiancoding.com/sketch -->
    <title>Group 12</title>
    <desc>Created with Sketch.</desc>
    <g id="Page-1" stroke="none" stroke-width="1" fill="none" fill-rule="evenodd">
        <g id="Desktop" transform="translate(-572.000000, -5114.000000)">
            <g id="Group-12" transform="translate(572.000000, 5114.000000)">
                <path d="M6.80353815,0 C7.24418627,0.112464089 7.67081028,0.25047751 8.04946113,0.526269237 C9.0649443,1.26594594 9.39401265,2.76465728 8.81657203,3.90066213 C7.93351319,5.63825189 5.55600585,5.85307006 4.38135291,4.22692555 C3.35981562,2.8127778 4.04293516,0.665693358 5.68835355,0.154941814 C5.86101098,0.101335238 6.03474129,0.0515688992 6.20793516,0 L6.80353815,0 Z M9.55659974,11.1526333 C9.55659974,11.243799 9.55591511,11.3349646 9.5566758,11.4261302 C9.57204183,13.1239817 9.58200693,14.8218333 9.60421921,16.5196061 C9.65510966,20.4236028 9.71033607,24.3275207 9.76792064,28.2313601 C9.77857036,28.9527405 9.8108238,29.6738063 9.82930868,30.3951867 C9.84984743,31.1988443 9.59957897,31.6335131 8.97466852,31.8914356 C8.38140295,32.1363006 7.66498097,31.957745 7.22088757,31.4486648 C6.91934831,31.1029591 6.87302202,30.6698634 6.86556722,30.234408 C6.80958011,26.9580304 6.75861359,23.6814168 6.70749492,20.404882 C6.70118116,20.00089 6.70346324,19.9994742 6.26461864,20.0709751 C6.26461864,20.1803109 6.26591182,20.2960968 6.26439043,20.4118826 C6.22955063,23.0858906 6.19912285,25.7600559 6.15629576,28.4339853 C6.14442893,29.1717267 6.11339259,29.9102548 6.05824225,30.6458725 C6.00826463,31.3129783 5.60410769,31.7593673 4.95097548,31.9429571 C4.36090483,32.10877 3.71035898,31.8989081 3.36378661,31.4093354 C3.12219007,31.0679559 3.12173365,30.6634921 3.13238337,30.260916 C3.17536261,28.6317337 3.24260799,27.0027086 3.25363806,25.373369 C3.28444618,20.7888159 3.29197706,16.2041054 3.3085602,11.6194737 C3.30886447,11.5468716 3.30863627,11.4743481 3.28794538,11.3993862 C2.97195292,12.0052954 2.82019439,12.6584786 2.71864169,13.3278655 C2.56779599,14.3228214 2.5772286,15.3209237 2.63983375,16.322723 C2.68768143,17.0896469 2.40356207,17.5114157 1.78306364,17.6565413 C1.15161122,17.8042627 0.406054636,17.4491179 0.190702051,16.850288 C0.084433043,16.5546093 0.0406931149,16.2244781 0.0231971437,15.9067749 C-0.0788880451,14.051527 0.147874956,12.2438677 0.864677291,10.528318 C1.47901409,9.05786919 2.4072134,7.84911846 3.86493208,7.21064448 C4.88502327,6.7639408 5.97228378,6.55297774 7.09103704,6.72815102 C7.6649049,6.8180581 8.24371727,6.91268471 8.79932846,7.07959882 C9.60132857,7.32053091 10.2758363,7.80813719 10.8424776,8.43921724 C12.2006974,9.95159118 12.7609488,11.8143117 12.9483839,13.8100443 C13.0280286,14.6581442 13.0037625,15.5232343 12.9543174,16.3761324 C12.896961,17.3650316 11.8284136,17.9746378 10.9695896,17.5586897 C10.5798098,17.3699871 10.3809643,17.0480364 10.3783018,16.6115583 C10.3760197,16.238558 10.409186,15.865479 10.4215093,15.4922427 C10.4633475,14.2183625 10.3382893,12.9675293 9.9148868,11.7617676 C9.83851308,11.5441972 9.73003806,11.3386615 9.63647265,11.1275412 C9.60984834,11.135879 9.58322404,11.1442955 9.55659974,11.1526333 Z" id="person" fill="#FF8A57"></path>
                <path d="M21.8035381,0 C22.2441863,0.112464089 22.6708103,0.25047751 23.0494611,0.526269237 C24.0649443,1.26594594 24.3940126,2.76465728 23.816572,3.90066213 C22.9335132,5.63825189 20.5560058,5.85307006 19.3813529,4.22692555 C18.3598156,2.8127778 19.0429352,0.665693358 20.6883536,0.154941814 C20.861011,0.101335238 21.0347413,0.0515688992 21.2079352,0 L21.8035381,0 Z M24.5565997,11.1526333 C24.5565997,11.243799 24.5559151,11.3349646 24.5566758,11.4261302 C24.5720418,13.1239817 24.5820069,14.8218333 24.6042192,16.5196061 C24.6551097,20.4236028 24.7103361,24.3275207 24.7679206,28.2313601 C24.7785704,28.9527405 24.8108238,29.6738063 24.8293087,30.3951867 C24.8498474,31.1988443 24.599579,31.6335131 23.9746685,31.8914356 C23.381403,32.1363006 22.664981,31.957745 22.2208876,31.4486648 C21.9193483,31.1029591 21.873022,30.6698634 21.8655672,30.234408 C21.8095801,26.9580304 21.7586136,23.6814168 21.7074949,20.404882 C21.7011812,20.00089 21.7034632,19.9994742 21.2646186,20.0709751 C21.2646186,20.1803109 21.2659118,20.2960968 21.2643904,20.4118826 C21.2295506,23.0858906 21.1991229,25.7600559 21.1562958,28.4339853 C21.1444289,29.1717267 21.1133926,29.9102548 21.0582423,30.6458725 C21.0082646,31.3129783 20.6041077,31.7593673 19.9509755,31.9429571 C19.3609048,32.10877 18.710359,31.8989081 18.3637866,31.4093354 C18.1221901,31.0679559 18.1217337,30.6634921 18.1323834,30.260916 C18.1753626,28.6317337 18.242608,27.0027086 18.2536381,25.373369 C18.2844462,20.7888159 18.2919771,16.2041054 18.3085602,11.6194737 C18.3088645,11.5468716 18.3086363,11.4743481 18.2879454,11.3993862 C17.9719529,12.0052954 17.8201944,12.6584786 17.7186417,13.3278655 C17.567796,14.3228214 17.5772286,15.3209237 17.6398337,16.322723 C17.6876814,17.0896469 17.4035621,17.5114157 16.7830636,17.6565413 C16.1516112,17.8042627 15.4060546,17.4491179 15.1907021,16.850288 C15.084433,16.5546093 15.0406931,16.2244781 15.0231971,15.9067749 C14.921112,14.051527 15.147875,12.2438677 15.8646773,10.528318 C16.4790141,9.05786919 17.4072134,7.84911846 18.8649321,7.21064448 C19.8850233,6.7639408 20.9722838,6.55297774 22.091037,6.72815102 C22.6649049,6.8180581 23.2437173,6.91268471 23.7993285,7.07959882 C24.6013286,7.32053091 25.2758363,7.80813719 25.8424776,8.43921724 C27.2006974,9.95159118 27.7609488,11.8143117 27.9483839,13.8100443 C28.0280286,14.6581442 28.0037625,15.5232343 27.9543174,16.3761324 C27.896961,17.3650316 26.8284136,17.9746378 25.9695896,17.5586897 C25.5798098,17.3699871 25.3809643,17.0480364 25.3783018,16.6115583 C25.3760197,16.238558 25.409186,15.865479 25.4215093,15.4922427 C25.4633475,14.2183625 25.3382893,12.9675293 24.9148868,11.7617676 C24.8385131,11.5441972 24.7300381,11.3386615 24.6364726,11.1275412 C24.6098483,11.135879 24.583224,11.1442955 24.5565997,11.1526333 Z" id="person" fill="#FF8A57"></path>
                <path d="M36.8035381,0 C37.2441863,0.112464089 37.6708103,0.25047751 38.0494611,0.526269237 C39.0649443,1.26594594 39.3940126,2.76465728 38.816572,3.90066213 C37.9335132,5.63825189 35.5560058,5.85307006 34.3813529,4.22692555 C33.3598156,2.8127778 34.0429352,0.665693358 35.6883536,0.154941814 C35.861011,0.101335238 36.0347413,0.0515688992 36.2079352,0 L36.8035381,0 Z M39.5565997,11.1526333 C39.5565997,11.243799 39.5559151,11.3349646 39.5566758,11.4261302 C39.5720418,13.1239817 39.5820069,14.8218333 39.6042192,16.5196061 C39.6551097,20.4236028 39.7103361,24.3275207 39.7679206,28.2313601 C39.7785704,28.9527405 39.8108238,29.6738063 39.8293087,30.3951867 C39.8498474,31.1988443 39.599579,31.6335131 38.9746685,31.8914356 C38.381403,32.1363006 37.664981,31.957745 37.2208876,31.4486648 C36.9193483,31.1029591 36.873022,30.6698634 36.8655672,30.234408 C36.8095801,26.9580304 36.7586136,23.6814168 36.7074949,20.404882 C36.7011812,20.00089 36.7034632,19.9994742 36.2646186,20.0709751 C36.2646186,20.1803109 36.2659118,20.2960968 36.2643904,20.4118826 C36.2295506,23.0858906 36.1991229,25.7600559 36.1562958,28.4339853 C36.1444289,29.1717267 36.1133926,29.9102548 36.0582423,30.6458725 C36.0082646,31.3129783 35.6041077,31.7593673 34.9509755,31.9429571 C34.3609048,32.10877 33.710359,31.8989081 33.3637866,31.4093354 C33.1221901,31.0679559 33.1217337,30.6634921 33.1323834,30.260916 C33.1753626,28.6317337 33.242608,27.0027086 33.2536381,25.373369 C33.2844462,20.7888159 33.2919771,16.2041054 33.3085602,11.6194737 C33.3088645,11.5468716 33.3086363,11.4743481 33.2879454,11.3993862 C32.9719529,12.0052954 32.8201944,12.6584786 32.7186417,13.3278655 C32.567796,14.3228214 32.5772286,15.3209237 32.6398337,16.322723 C32.6876814,17.0896469 32.4035621,17.5114157 31.7830636,17.6565413 C31.1516112,17.8042627 30.4060546,17.4491179 30.1907021,16.850288 C30.084433,16.5546093 30.0406931,16.2244781 30.0231971,15.9067749 C29.921112,14.051527 30.147875,12.2438677 30.8646773,10.528318 C31.4790141,9.05786919 32.4072134,7.84911846 33.8649321,7.21064448 C34.8850233,6.7639408 35.9722838,6.55297774 37.091037,6.72815102 C37.6649049,6.8180581 38.2437173,6.91268471 38.7993285,7.07959882 C39.6013286,7.32053091 40.2758363,7.80813719 40.8424776,8.43921724 C42.2006974,9.95159118 42.7609488,11.8143117 42.9483839,13.8100443 C43.0280286,14.6581442 43.0037625,15.5232343 42.9543174,16.3761324 C42.896961,17.3650316 41.8284136,17.9746378 40.9695896,17.5586897 C40.5798098,17.3699871 40.3809643,17.0480364 40.3783018,16.6115583 C40.3760197,16.238558 40.409186,15.865479 40.4215093,15.4922427 C40.4633475,14.2183625 40.3382893,12.9675293 39.9148868,11.7617676 C39.8385131,11.5441972 39.7300381,11.3386615 39.6364726,11.1275412 C39.6098483,11.135879 39.583224,11.1442955 39.5565997,11.1526333 Z" id="person" fill="#FF8A57"></path>
                <path d="M51.8035381,0 C52.2441863,0.112464089 52.6708103,0.25047751 53.0494611,0.526269237 C54.0649443,1.26594594 54.3940126,2.76465728 53.816572,3.90066213 C52.9335132,5.63825189 50.5560058,5.85307006 49.3813529,4.22692555 C48.3598156,2.8127778 49.0429352,0.665693358 50.6883536,0.154941814 C50.861011,0.101335238 51.0347413,0.0515688992 51.2079352,0 L51.8035381,0 Z M54.5565997,11.1526333 C54.5565997,11.243799 54.5559151,11.3349646 54.5566758,11.4261302 C54.5720418,13.1239817 54.5820069,14.8218333 54.6042192,16.5196061 C54.6551097,20.4236028 54.7103361,24.3275207 54.7679206,28.2313601 C54.7785704,28.9527405 54.8108238,29.6738063 54.8293087,30.3951867 C54.8498474,31.1988443 54.599579,31.6335131 53.9746685,31.8914356 C53.381403,32.1363006 52.664981,31.957745 52.2208876,31.4486648 C51.9193483,31.1029591 51.873022,30.6698634 51.8655672,30.234408 C51.8095801,26.9580304 51.7586136,23.6814168 51.7074949,20.404882 C51.7011812,20.00089 51.7034632,19.9994742 51.2646186,20.0709751 C51.2646186,20.1803109 51.2659118,20.2960968 51.2643904,20.4118826 C51.2295506,23.0858906 51.1991229,25.7600559 51.1562958,28.4339853 C51.1444289,29.1717267 51.1133926,29.9102548 51.0582423,30.6458725 C51.0082646,31.3129783 50.6041077,31.7593673 49.9509755,31.9429571 C49.3609048,32.10877 48.710359,31.8989081 48.3637866,31.4093354 C48.1221901,31.0679559 48.1217337,30.6634921 48.1323834,30.260916 C48.1753626,28.6317337 48.242608,27.0027086 48.2536381,25.373369 C48.2844462,20.7888159 48.2919771,16.2041054 48.3085602,11.6194737 C48.3088645,11.5468716 48.3086363,11.4743481 48.2879454,11.3993862 C47.9719529,12.0052954 47.8201944,12.6584786 47.7186417,13.3278655 C47.567796,14.3228214 47.5772286,15.3209237 47.6398337,16.322723 C47.6876814,17.0896469 47.4035621,17.5114157 46.7830636,17.6565413 C46.1516112,17.8042627 45.4060546,17.4491179 45.1907021,16.850288 C45.084433,16.5546093 45.0406931,16.2244781 45.0231971,15.9067749 C44.921112,14.051527 45.147875,12.2438677 45.8646773,10.528318 C46.4790141,9.05786919 47.4072134,7.84911846 48.8649321,7.21064448 C49.8850233,6.7639408 50.9722838,6.55297774 52.091037,6.72815102 C52.6649049,6.8180581 53.2437173,6.91268471 53.7993285,7.07959882 C54.6013286,7.32053091 55.2758363,7.80813719 55.8424776,8.43921724 C57.2006974,9.95159118 57.7609488,11.8143117 57.9483839,13.8100443 C58.0280286,14.6581442 58.0037625,15.5232343 57.9543174,16.3761324 C57.896961,17.3650316 56.8284136,17.9746378 55.9695896,17.5586897 C55.5798098,17.3699871 55.3809643,17.0480364 55.3783018,16.6115583 C55.3760197,16.238558 55.409186,15.865479 55.4215093,15.4922427 C55.4633475,14.2183625 55.3382893,12.9675293 54.9148868,11.7617676 C54.8385131,11.5441972 54.7300381,11.3386615 54.6364726,11.1275412 C54.6098483,11.135879 54.583224,11.1442955 54.5565997,11.1526333 Z" id="person" fill="#FF8A57"></path>
                <path d="M65.8035381,0 C66.2441863,0.112464089 66.6708103,0.25047751 67.0494611,0.526269237 C68.0649443,1.26594594 68.3940126,2.76465728 67.816572,3.90066213 C66.9335132,5.63825189 64.5560058,5.85307006 63.3813529,4.22692555 C62.3598156,2.8127778 63.0429352,0.665693358 64.6883536,0.154941814 C64.861011,0.101335238 65.0347413,0.0515688992 65.2079352,0 L65.8035381,0 Z M68.5565997,11.1526333 C68.5565997,11.243799 68.5559151,11.3349646 68.5566758,11.4261302 C68.5720418,13.1239817 68.5820069,14.8218333 68.6042192,16.5196061 C68.6551097,20.4236028 68.7103361,24.3275207 68.7679206,28.2313601 C68.7785704,28.9527405 68.8108238,29.6738063 68.8293087,30.3951867 C68.8498474,31.1988443 68.599579,31.6335131 67.9746685,31.8914356 C67.381403,32.1363006 66.664981,31.957745 66.2208876,31.4486648 C65.9193483,31.1029591 65.873022,30.6698634 65.8655672,30.234408 C65.8095801,26.9580304 65.7586136,23.6814168 65.7074949,20.404882 C65.7011812,20.00089 65.7034632,19.9994742 65.2646186,20.0709751 C65.2646186,20.1803109 65.2659118,20.2960968 65.2643904,20.4118826 C65.2295506,23.0858906 65.1991229,25.7600559 65.1562958,28.4339853 C65.1444289,29.1717267 65.1133926,29.9102548 65.0582423,30.6458725 C65.0082646,31.3129783 64.6041077,31.7593673 63.9509755,31.9429571 C63.3609048,32.10877 62.710359,31.8989081 62.3637866,31.4093354 C62.1221901,31.0679559 62.1217337,30.6634921 62.1323834,30.260916 C62.1753626,28.6317337 62.242608,27.0027086 62.2536381,25.373369 C62.2844462,20.7888159 62.2919771,16.2041054 62.3085602,11.6194737 C62.3088645,11.5468716 62.3086363,11.4743481 62.2879454,11.3993862 C61.9719529,12.0052954 61.8201944,12.6584786 61.7186417,13.3278655 C61.567796,14.3228214 61.5772286,15.3209237 61.6398337,16.322723 C61.6876814,17.0896469 61.4035621,17.5114157 60.7830636,17.6565413 C60.1516112,17.8042627 59.4060546,17.4491179 59.1907021,16.850288 C59.084433,16.5546093 59.0406931,16.2244781 59.0231971,15.9067749 C58.921112,14.051527 59.147875,12.2438677 59.8646773,10.528318 C60.4790141,9.05786919 61.4072134,7.84911846 62.8649321,7.21064448 C63.8850233,6.7639408 64.9722838,6.55297774 66.091037,6.72815102 C66.6649049,6.8180581 67.2437173,6.91268471 67.7993285,7.07959882 C68.6013286,7.32053091 69.2758363,7.80813719 69.8424776,8.43921724 C71.2006974,9.95159118 71.7609488,11.8143117 71.9483839,13.8100443 C72.0280286,14.6581442 72.0037625,15.5232343 71.9543174,16.3761324 C71.896961,17.3650316 70.8284136,17.9746378 69.9695896,17.5586897 C69.5798098,17.3699871 69.3809643,17.0480364 69.3783018,16.6115583 C69.3760197,16.238558 69.409186,15.865479 69.4215093,15.4922427 C69.4633475,14.2183625 69.3382893,12.9675293 68.9148868,11.7617676 C68.8385131,11.5441972 68.7300381,11.3386615 68.6364726,11.1275412 C68.6098483,11.135879 68.583224,11.1442955 68.5565997,11.1526333 Z" id="person" fill="#FF8A57"></path>
                <path d="M6.80353815,35 C7.24418627,35.1124641 7.67081028,35.2504775 8.04946113,35.5262692 C9.0649443,36.2659459 9.39401265,37.7646573 8.81657203,38.9006621 C7.93351319,40.6382519 5.55600585,40.8530701 4.38135291,39.2269255 C3.35981562,37.8127778 4.04293516,35.6656934 5.68835355,35.1549418 C5.86101098,35.1013352 6.03474129,35.0515689 6.20793516,35 L6.80353815,35 Z M9.55659974,46.1526333 C9.55659974,46.243799 9.55591511,46.3349646 9.5566758,46.4261302 C9.57204183,48.1239817 9.58200693,49.8218333 9.60421921,51.5196061 C9.65510966,55.4236028 9.71033607,59.3275207 9.76792064,63.2313601 C9.77857036,63.9527405 9.8108238,64.6738063 9.82930868,65.3951867 C9.84984743,66.1988443 9.59957897,66.6335131 8.97466852,66.8914356 C8.38140295,67.1363006 7.66498097,66.957745 7.22088757,66.4486648 C6.91934831,66.1029591 6.87302202,65.6698634 6.86556722,65.234408 C6.80958011,61.9580304 6.75861359,58.6814168 6.70749492,55.404882 C6.70118116,55.00089 6.70346324,54.9994742 6.26461864,55.0709751 C6.26461864,55.1803109 6.26591182,55.2960968 6.26439043,55.4118826 C6.22955063,58.0858906 6.19912285,60.7600559 6.15629576,63.4339853 C6.14442893,64.1717267 6.11339259,64.9102548 6.05824225,65.6458725 C6.00826463,66.3129783 5.60410769,66.7593673 4.95097548,66.9429571 C4.36090483,67.10877 3.71035898,66.8989081 3.36378661,66.4093354 C3.12219007,66.0679559 3.12173365,65.6634921 3.13238337,65.260916 C3.17536261,63.6317337 3.24260799,62.0027086 3.25363806,60.373369 C3.28444618,55.7888159 3.29197706,51.2041054 3.3085602,46.6194737 C3.30886447,46.5468716 3.30863627,46.4743481 3.28794538,46.3993862 C2.97195292,47.0052954 2.82019439,47.6584786 2.71864169,48.3278655 C2.56779599,49.3228214 2.5772286,50.3209237 2.63983375,51.322723 C2.68768143,52.0896469 2.40356207,52.5114157 1.78306364,52.6565413 C1.15161122,52.8042627 0.406054636,52.4491179 0.190702051,51.850288 C0.084433043,51.5546093 0.0406931149,51.2244781 0.0231971437,50.9067749 C-0.0788880451,49.051527 0.147874956,47.2438677 0.864677291,45.528318 C1.47901409,44.0578692 2.4072134,42.8491185 3.86493208,42.2106445 C4.88502327,41.7639408 5.97228378,41.5529777 7.09103704,41.728151 C7.6649049,41.8180581 8.24371727,41.9126847 8.79932846,42.0795988 C9.60132857,42.3205309 10.2758363,42.8081372 10.8424776,43.4392172 C12.2006974,44.9515912 12.7609488,46.8143117 12.9483839,48.8100443 C13.0280286,49.6581442 13.0037625,50.5232343 12.9543174,51.3761324 C12.896961,52.3650316 11.8284136,52.9746378 10.9695896,52.5586897 C10.5798098,52.3699871 10.3809643,52.0480364 10.3783018,51.6115583 C10.3760197,51.238558 10.409186,50.865479 10.4215093,50.4922427 C10.4633475,49.2183625 10.3382893,47.9675293 9.9148868,46.7617676 C9.83851308,46.5441972 9.73003806,46.3386615 9.63647265,46.1275412 C9.60984834,46.135879 9.58322404,46.1442955 9.55659974,46.1526333 Z" id="person" fill="#FF8A57"></path>
                <path d="M21.8035381,35 C22.2441863,35.1124641 22.6708103,35.2504775 23.0494611,35.5262692 C24.0649443,36.2659459 24.3940126,37.7646573 23.816572,38.9006621 C22.9335132,40.6382519 20.5560058,40.8530701 19.3813529,39.2269255 C18.3598156,37.8127778 19.0429352,35.6656934 20.6883536,35.1549418 C20.861011,35.1013352 21.0347413,35.0515689 21.2079352,35 L21.8035381,35 Z M24.5565997,46.1526333 C24.5565997,46.243799 24.5559151,46.3349646 24.5566758,46.4261302 C24.5720418,48.1239817 24.5820069,49.8218333 24.6042192,51.5196061 C24.6551097,55.4236028 24.7103361,59.3275207 24.7679206,63.2313601 C24.7785704,63.9527405 24.8108238,64.6738063 24.8293087,65.3951867 C24.8498474,66.1988443 24.599579,66.6335131 23.9746685,66.8914356 C23.381403,67.1363006 22.664981,66.957745 22.2208876,66.4486648 C21.9193483,66.1029591 21.873022,65.6698634 21.8655672,65.234408 C21.8095801,61.9580304 21.7586136,58.6814168 21.7074949,55.404882 C21.7011812,55.00089 21.7034632,54.9994742 21.2646186,55.0709751 C21.2646186,55.1803109 21.2659118,55.2960968 21.2643904,55.4118826 C21.2295506,58.0858906 21.1991229,60.7600559 21.1562958,63.4339853 C21.1444289,64.1717267 21.1133926,64.9102548 21.0582423,65.6458725 C21.0082646,66.3129783 20.6041077,66.7593673 19.9509755,66.9429571 C19.3609048,67.10877 18.710359,66.8989081 18.3637866,66.4093354 C18.1221901,66.0679559 18.1217337,65.6634921 18.1323834,65.260916 C18.1753626,63.6317337 18.242608,62.0027086 18.2536381,60.373369 C18.2844462,55.7888159 18.2919771,51.2041054 18.3085602,46.6194737 C18.3088645,46.5468716 18.3086363,46.4743481 18.2879454,46.3993862 C17.9719529,47.0052954 17.8201944,47.6584786 17.7186417,48.3278655 C17.567796,49.3228214 17.5772286,50.3209237 17.6398337,51.322723 C17.6876814,52.0896469 17.4035621,52.5114157 16.7830636,52.6565413 C16.1516112,52.8042627 15.4060546,52.4491179 15.1907021,51.850288 C15.084433,51.5546093 15.0406931,51.2244781 15.0231971,50.9067749 C14.921112,49.051527 15.147875,47.2438677 15.8646773,45.528318 C16.4790141,44.0578692 17.4072134,42.8491185 18.8649321,42.2106445 C19.8850233,41.7639408 20.9722838,41.5529777 22.091037,41.728151 C22.6649049,41.8180581 23.2437173,41.9126847 23.7993285,42.0795988 C24.6013286,42.3205309 25.2758363,42.8081372 25.8424776,43.4392172 C27.2006974,44.9515912 27.7609488,46.8143117 27.9483839,48.8100443 C28.0280286,49.6581442 28.0037625,50.5232343 27.9543174,51.3761324 C27.896961,52.3650316 26.8284136,52.9746378 25.9695896,52.5586897 C25.5798098,52.3699871 25.3809643,52.0480364 25.3783018,51.6115583 C25.3760197,51.238558 25.409186,50.865479 25.4215093,50.4922427 C25.4633475,49.2183625 25.3382893,47.9675293 24.9148868,46.7617676 C24.8385131,46.5441972 24.7300381,46.3386615 24.6364726,46.1275412 C24.6098483,46.135879 24.583224,46.1442955 24.5565997,46.1526333 Z" id="person" fill="#FF8A57"></path>
                <path d="M36.8035381,35 C37.2441863,35.1124641 37.6708103,35.2504775 38.0494611,35.5262692 C39.0649443,36.2659459 39.3940126,37.7646573 38.816572,38.9006621 C37.9335132,40.6382519 35.5560058,40.8530701 34.3813529,39.2269255 C33.3598156,37.8127778 34.0429352,35.6656934 35.6883536,35.1549418 C35.861011,35.1013352 36.0347413,35.0515689 36.2079352,35 L36.8035381,35 Z M39.5565997,46.1526333 C39.5565997,46.243799 39.5559151,46.3349646 39.5566758,46.4261302 C39.5720418,48.1239817 39.5820069,49.8218333 39.6042192,51.5196061 C39.6551097,55.4236028 39.7103361,59.3275207 39.7679206,63.2313601 C39.7785704,63.9527405 39.8108238,64.6738063 39.8293087,65.3951867 C39.8498474,66.1988443 39.599579,66.6335131 38.9746685,66.8914356 C38.381403,67.1363006 37.664981,66.957745 37.2208876,66.4486648 C36.9193483,66.1029591 36.873022,65.6698634 36.8655672,65.234408 C36.8095801,61.9580304 36.7586136,58.6814168 36.7074949,55.404882 C36.7011812,55.00089 36.7034632,54.9994742 36.2646186,55.0709751 C36.2646186,55.1803109 36.2659118,55.2960968 36.2643904,55.4118826 C36.2295506,58.0858906 36.1991229,60.7600559 36.1562958,63.4339853 C36.1444289,64.1717267 36.1133926,64.9102548 36.0582423,65.6458725 C36.0082646,66.3129783 35.6041077,66.7593673 34.9509755,66.9429571 C34.3609048,67.10877 33.710359,66.8989081 33.3637866,66.4093354 C33.1221901,66.0679559 33.1217337,65.6634921 33.1323834,65.260916 C33.1753626,63.6317337 33.242608,62.0027086 33.2536381,60.373369 C33.2844462,55.7888159 33.2919771,51.2041054 33.3085602,46.6194737 C33.3088645,46.5468716 33.3086363,46.4743481 33.2879454,46.3993862 C32.9719529,47.0052954 32.8201944,47.6584786 32.7186417,48.3278655 C32.567796,49.3228214 32.5772286,50.3209237 32.6398337,51.322723 C32.6876814,52.0896469 32.4035621,52.5114157 31.7830636,52.6565413 C31.1516112,52.8042627 30.4060546,52.4491179 30.1907021,51.850288 C30.084433,51.5546093 30.0406931,51.2244781 30.0231971,50.9067749 C29.921112,49.051527 30.147875,47.2438677 30.8646773,45.528318 C31.4790141,44.0578692 32.4072134,42.8491185 33.8649321,42.2106445 C34.8850233,41.7639408 35.9722838,41.5529777 37.091037,41.728151 C37.6649049,41.8180581 38.2437173,41.9126847 38.7993285,42.0795988 C39.6013286,42.3205309 40.2758363,42.8081372 40.8424776,43.4392172 C42.2006974,44.9515912 42.7609488,46.8143117 42.9483839,48.8100443 C43.0280286,49.6581442 43.0037625,50.5232343 42.9543174,51.3761324 C42.896961,52.3650316 41.8284136,52.9746378 40.9695896,52.5586897 C40.5798098,52.3699871 40.3809643,52.0480364 40.3783018,51.6115583 C40.3760197,51.238558 40.409186,50.865479 40.4215093,50.4922427 C40.4633475,49.2183625 40.3382893,47.9675293 39.9148868,46.7617676 C39.8385131,46.5441972 39.7300381,46.3386615 39.6364726,46.1275412 C39.6098483,46.135879 39.583224,46.1442955 39.5565997,46.1526333 Z" id="person" fill="#FF8A57"></path>
                <path d="M51.8035381,35 C52.2441863,35.1124641 52.6708103,35.2504775 53.0494611,35.5262692 C54.0649443,36.2659459 54.3940126,37.7646573 53.816572,38.9006621 C52.9335132,40.6382519 50.5560058,40.8530701 49.3813529,39.2269255 C48.3598156,37.8127778 49.0429352,35.6656934 50.6883536,35.1549418 C50.861011,35.1013352 51.0347413,35.0515689 51.2079352,35 L51.8035381,35 Z M54.5565997,46.1526333 C54.5565997,46.243799 54.5559151,46.3349646 54.5566758,46.4261302 C54.5720418,48.1239817 54.5820069,49.8218333 54.6042192,51.5196061 C54.6551097,55.4236028 54.7103361,59.3275207 54.7679206,63.2313601 C54.7785704,63.9527405 54.8108238,64.6738063 54.8293087,65.3951867 C54.8498474,66.1988443 54.599579,66.6335131 53.9746685,66.8914356 C53.381403,67.1363006 52.664981,66.957745 52.2208876,66.4486648 C51.9193483,66.1029591 51.873022,65.6698634 51.8655672,65.234408 C51.8095801,61.9580304 51.7586136,58.6814168 51.7074949,55.404882 C51.7011812,55.00089 51.7034632,54.9994742 51.2646186,55.0709751 C51.2646186,55.1803109 51.2659118,55.2960968 51.2643904,55.4118826 C51.2295506,58.0858906 51.1991229,60.7600559 51.1562958,63.4339853 C51.1444289,64.1717267 51.1133926,64.9102548 51.0582423,65.6458725 C51.0082646,66.3129783 50.6041077,66.7593673 49.9509755,66.9429571 C49.3609048,67.10877 48.710359,66.8989081 48.3637866,66.4093354 C48.1221901,66.0679559 48.1217337,65.6634921 48.1323834,65.260916 C48.1753626,63.6317337 48.242608,62.0027086 48.2536381,60.373369 C48.2844462,55.7888159 48.2919771,51.2041054 48.3085602,46.6194737 C48.3088645,46.5468716 48.3086363,46.4743481 48.2879454,46.3993862 C47.9719529,47.0052954 47.8201944,47.6584786 47.7186417,48.3278655 C47.567796,49.3228214 47.5772286,50.3209237 47.6398337,51.322723 C47.6876814,52.0896469 47.4035621,52.5114157 46.7830636,52.6565413 C46.1516112,52.8042627 45.4060546,52.4491179 45.1907021,51.850288 C45.084433,51.5546093 45.0406931,51.2244781 45.0231971,50.9067749 C44.921112,49.051527 45.147875,47.2438677 45.8646773,45.528318 C46.4790141,44.0578692 47.4072134,42.8491185 48.8649321,42.2106445 C49.8850233,41.7639408 50.9722838,41.5529777 52.091037,41.728151 C52.6649049,41.8180581 53.2437173,41.9126847 53.7993285,42.0795988 C54.6013286,42.3205309 55.2758363,42.8081372 55.8424776,43.4392172 C57.2006974,44.9515912 57.7609488,46.8143117 57.9483839,48.8100443 C58.0280286,49.6581442 58.0037625,50.5232343 57.9543174,51.3761324 C57.896961,52.3650316 56.8284136,52.9746378 55.9695896,52.5586897 C55.5798098,52.3699871 55.3809643,52.0480364 55.3783018,51.6115583 C55.3760197,51.238558 55.409186,50.865479 55.4215093,50.4922427 C55.4633475,49.2183625 55.3382893,47.9675293 54.9148868,46.7617676 C54.8385131,46.5441972 54.7300381,46.3386615 54.6364726,46.1275412 C54.6098483,46.135879 54.583224,46.1442955 54.5565997,46.1526333 Z" id="person" fill="#FF8A57"></path>
                <path d="M65.8035381,35 C66.2441863,35.1124641 66.6708103,35.2504775 67.0494611,35.5262692 C68.0649443,36.2659459 68.3940126,37.7646573 67.816572,38.9006621 C66.9335132,40.6382519 64.5560058,40.8530701 63.3813529,39.2269255 C62.3598156,37.8127778 63.0429352,35.6656934 64.6883536,35.1549418 C64.861011,35.1013352 65.0347413,35.0515689 65.2079352,35 L65.8035381,35 Z M68.5565997,46.1526333 C68.5565997,46.243799 68.5559151,46.3349646 68.5566758,46.4261302 C68.5720418,48.1239817 68.5820069,49.8218333 68.6042192,51.5196061 C68.6551097,55.4236028 68.7103361,59.3275207 68.7679206,63.2313601 C68.7785704,63.9527405 68.8108238,64.6738063 68.8293087,65.3951867 C68.8498474,66.1988443 68.599579,66.6335131 67.9746685,66.8914356 C67.381403,67.1363006 66.664981,66.957745 66.2208876,66.4486648 C65.9193483,66.1029591 65.873022,65.6698634 65.8655672,65.234408 C65.8095801,61.9580304 65.7586136,58.6814168 65.7074949,55.404882 C65.7011812,55.00089 65.7034632,54.9994742 65.2646186,55.0709751 C65.2646186,55.1803109 65.2659118,55.2960968 65.2643904,55.4118826 C65.2295506,58.0858906 65.1991229,60.7600559 65.1562958,63.4339853 C65.1444289,64.1717267 65.1133926,64.9102548 65.0582423,65.6458725 C65.0082646,66.3129783 64.6041077,66.7593673 63.9509755,66.9429571 C63.3609048,67.10877 62.710359,66.8989081 62.3637866,66.4093354 C62.1221901,66.0679559 62.1217337,65.6634921 62.1323834,65.260916 C62.1753626,63.6317337 62.242608,62.0027086 62.2536381,60.373369 C62.2844462,55.7888159 62.2919771,51.2041054 62.3085602,46.6194737 C62.3088645,46.5468716 62.3086363,46.4743481 62.2879454,46.3993862 C61.9719529,47.0052954 61.8201944,47.6584786 61.7186417,48.3278655 C61.567796,49.3228214 61.5772286,50.3209237 61.6398337,51.322723 C61.6876814,52.0896469 61.4035621,52.5114157 60.7830636,52.6565413 C60.1516112,52.8042627 59.4060546,52.4491179 59.1907021,51.850288 C59.084433,51.5546093 59.0406931,51.2244781 59.0231971,50.9067749 C58.921112,49.051527 59.147875,47.2438677 59.8646773,45.528318 C60.4790141,44.0578692 61.4072134,42.8491185 62.8649321,42.2106445 C63.8850233,41.7639408 64.9722838,41.5529777 66.091037,41.728151 C66.6649049,41.8180581 67.2437173,41.9126847 67.7993285,42.0795988 C68.6013286,42.3205309 69.2758363,42.8081372 69.8424776,43.4392172 C71.2006974,44.9515912 71.7609488,46.8143117 71.9483839,48.8100443 C72.0280286,49.6581442 72.0037625,50.5232343 71.9543174,51.3761324 C71.896961,52.3650316 70.8284136,52.9746378 69.9695896,52.5586897 C69.5798098,52.3699871 69.3809643,52.0480364 69.3783018,51.6115583 C69.3760197,51.238558 69.409186,50.865479 69.4215093,50.4922427 C69.4633475,49.2183625 69.3382893,47.9675293 68.9148868,46.7617676 C68.8385131,46.5441972 68.7300381,46.3386615 68.6364726,46.1275412 C68.6098483,46.135879 68.583224,46.1442955 68.5565997,46.1526333 Z" id="person" fill="#05BCB0"></path>
            </g>
        </g>
    </g>
</svg>