<?xml version="1.0" encoding="UTF-8"?>
<svg width="64px" height="64px" viewBox="0 0 64 64" version="1.1" xmlns="http://www.w3.org/2000/svg" xmlns:xlink="http://www.w3.org/1999/xlink">
    <!-- Generator: Sketch 51 (57462) - http://www.bohemiancoding.com/sketch -->
    <title>activity</title>
    <desc>Created with Sketch.</desc>
    <defs></defs>
    <g id="Page-1" stroke="none" stroke-width="1" fill="none" fill-rule="evenodd">
        <g id="Lesson-1" transform="translate(-532.000000, -4384.000000)">
            <g id="activity" transform="translate(532.000000, 4384.000000)">
                <rect id="Rectangle-3" fill-opacity="0.7" fill="#05BCB0" fill-rule="nonzero" x="0" y="0" width="64" height="64"></rect>
                <path d="M38.8343474,25.155808 C36.9052947,28.5138168 35.0238421,31.7891 33.1055263,35.1282416 C34.7053158,36.7334097 36.2775474,38.3095513 37.8487053,39.8871442 C38.3336526,40.3744274 38.8164526,40.8638876 39.2978211,41.3547991 C40.5955474,42.6773212 40.9334,44.777392 40.0336526,46.4094097 C38.4188316,49.3371 36.7732316,52.2481 35.1140316,55.150392 C34.4014632,56.3970823 33.1073158,56.9057726 31.8840316,56.501215 C30.7194421,56.1162504 29.9449579,54.9570027 30.0580526,53.6718522 C30.0916947,53.2908788 30.2330632,52.8914009 30.4231053,52.5575956 C31.7555474,50.2140646 33.1141158,47.8857726 34.4633789,45.5524009 C34.5671684,45.3727991 34.6638,45.1892062 34.8005158,44.9406664 C34.5868526,44.7476398 34.3774842,44.5571531 34.1663263,44.3684805 C31.7755895,42.2346664 29.3683895,40.1197195 27.0016316,37.9586929 C26.0532105,37.0926133 25.3245368,36.0454805 25.0639895,34.7331177 C24.8549789,33.6798168 25.0997789,32.7067018 25.5260316,31.7441088 C26.8813789,28.683985 28.2120316,25.6129761 29.5509158,22.5452327 C29.5816947,22.4741177 29.5906421,22.393569 29.6289368,22.2419053 C28.5788737,22.3986487 27.5782,22.5263655 26.5882632,22.7143124 C26.3921368,22.7513212 26.1931474,22.9897018 26.0725368,23.1845425 C25.2583263,24.4983566 24.4816947,25.8361177 23.6553158,27.1415867 C23.3926211,27.5566664 23.0637158,27.9612239 22.6807684,28.2598345 C21.7681368,28.9717106 20.6958842,28.9263566 19.8863263,28.2228257 C19.1021789,27.5410646 18.8949579,26.5835513 19.4382421,25.5509319 C20.3827263,23.7570912 21.3923474,21.9984451 22.3751263,20.2256487 C22.5680316,19.8780558 22.7534211,19.5261088 22.9620737,19.1890381 C23.5085789,18.3059053 24.2905789,17.7453301 25.3073579,17.5896752 C27.925,17.1894717 30.5422842,16.7827372 33.1678,16.444215 C35.1848947,16.1837018 37.0713579,16.7294009 38.8354211,17.6883655 C41.0536526,18.8936929 42.7833579,20.7191 44.5789158,22.4552504 C44.6812737,22.5539407 44.7897158,22.6464628 44.9539895,22.7952239 C45.2313579,22.4011885 45.4940526,22.0379938 45.7463684,21.6671796 C46.7087474,20.2510469 47.6643263,18.8301973 48.6299263,17.4162416 C49.4144316,16.2671531 50.6312737,15.9119407 51.6963684,16.5084363 C52.8588105,17.1597195 53.2993789,18.4151177 52.6587474,19.6951885 C52.1476737,20.7176487 51.4687474,21.6566575 50.8363474,22.6134451 C49.7998842,24.1812416 48.7476737,25.7385159 47.6893789,27.2910735 C46.5985158,28.8911619 45.4786632,29.1241 43.8187474,28.1288522 C42.1842421,27.1492062 40.5458,26.176454 38.8343474,25.155808 Z M29,42.4914648 C27.4617102,44.5658987 26.0205218,46.7425679 24.3402305,48.7191169 C21.8948097,51.5962067 19.2964361,54.3474962 16.7228853,57.1147374 C15.7653784,58.1443411 14.2847654,58.2632531 13.1976684,57.5370924 C12.1310137,56.8243457 11.7006284,55.3916014 12.2197191,54.1952309 C12.3332474,53.933117 12.5106581,53.6840544 12.7074161,53.4737833 C14.5151073,51.5414637 16.3961721,49.6722254 18.1242841,47.6728366 C19.0744901,46.5729008 19.8034803,45.2775579 20.5777358,44.0365954 C21.8309272,42.0270555 23.0388534,39.9903254 24.2449543,38 C25.8160979,39.4842245 27.3602284,40.9427088 29,42.4914648 Z M34.0000211,11.5194063 C34.0074155,9.04576874 36.0741553,7.00770811 38.583451,7.00002146 C41.0114081,6.99270084 43.0249081,8.85945896 42.9997671,11.0944443 C42.9716683,13.606149 40.6402083,15.9952334 38.212621,15.9999918 C35.9292247,16.0047502 33.9926267,13.9450937 34.0000211,11.5194063 Z" id="running-man" fill="#FFFFFF"></path>
            </g>
        </g>
    </g>
</svg>