<?xml version="1.0" encoding="UTF-8"?>
<svg width="92px" height="90px" viewBox="0 0 92 90" version="1.1" xmlns="http://www.w3.org/2000/svg" xmlns:xlink="http://www.w3.org/1999/xlink">
    <!-- Generator: Sketch 52.2 (67145) - http://www.bohemiancoding.com/sketch -->
    <title>Group 10</title>
    <desc>Created with Sketch.</desc>
    <g id="Page-1" stroke="none" stroke-width="1" fill="none" fill-rule="evenodd">
        <g id="Lesson-10" transform="translate(-49.000000, -5007.000000)">
            <g id="Group-10" transform="translate(49.000000, 5007.000000)">
                <rect id="Rectangle" fill="#97B306" fill-rule="nonzero" x="0" y="0" width="92" height="90"></rect>
                <path d="M53.8805281,38.5764738 C52.692931,40.0374631 51.5929374,41.3777882 50.5072969,42.7298792 C48.3773431,45.3827415 46.2803024,48.0633916 44.1134758,50.6852116 C43.5076751,51.4182097 43.4492727,51.9181404 44.0449273,52.713223 C46.3585022,55.8016784 48.5857108,58.9564741 50.8577111,62.0769731 C53.9495716,66.3230047 52.9879124,70.3567472 48.2521244,72.6023049 C43.8538823,74.6878947 39.4234694,76.7058925 34.9782084,78.6875909 C33.3372506,79.4188366 31.4616934,78.8135124 30.451778,77.4226185 C29.4661145,76.0650199 29.4626499,74.100595 30.5685827,72.7752904 C30.9996713,72.2593379 31.6260119,71.8455244 32.2431962,71.5641413 C35.6589918,70.0080224 39.1002767,68.5092316 42.529683,66.9836543 C42.8645067,66.8347015 43.1778007,66.6369322 43.6366057,66.3880933 C43.3304883,65.9762826 43.0815358,65.6162924 42.8075892,65.2763295 C40.0728244,61.885212 37.3271711,58.5028564 34.6015627,55.1039784 C34.110092,54.4908936 33.6673724,53.8332481 33.2501419,53.165589 C31.5285097,50.410087 31.5918614,47.7432056 33.4260914,44.9999703 C35.9643669,41.2043019 38.3603484,37.3115013 40.8110204,33.4560015 C40.9812781,33.1878864 41.0988252,32.8854746 41.3475302,32.3835412 C38.8995804,32.5192259 36.6357466,31.7469243 34.4775814,33.4487416 C32.2117678,35.2351741 29.6824012,36.6816437 27.2547437,38.2552864 C25.3574095,39.4852111 23.4929883,39.1955667 22.5018805,37.5538313 C21.6627178,36.1639387 21.8648988,34.6185845 23.1913253,33.6685409 C26.6868055,31.1646315 30.2028256,28.6865071 33.7841771,26.3117736 C34.5241053,25.8211055 35.573368,25.6901772 36.4966697,25.6213334 C39.9075161,25.3664864 43.3247965,25.1912478 46.7408396,25.0167602 C50.0314167,24.8487815 53.0262699,25.948529 55.3923079,28.0881924 C57.8895037,30.3465175 60.0303461,33.0254152 62.1991524,35.6289603 C62.9596204,36.5417031 63.4914284,36.8268414 64.6117143,36.2778438 C67.4261636,34.8984656 70.2995103,33.6395014 73.1661753,32.3710241 C75.2196616,31.4622868 76.7720261,31.9829958 77.6497937,33.7992188 C78.4746033,35.5055422 77.8059458,37.5100216 76.0283858,38.4778395 C72.5475062,40.3731702 69.0582127,42.2532302 65.5538236,44.1034996 C63.5562649,45.1579354 61.6831824,45.189979 59.8645428,43.5282163 C58.0038337,41.8281514 55.9854878,40.3048272 53.8805281,38.5764738 Z M29.6132294,53.0717372 C31.426789,55.492867 33.1508991,57.794766 34.9496697,60.1965208 C34.6973028,60.4983237 34.4365872,60.8488125 34.1391376,61.1607997 C27.9361101,67.6700545 21.732367,74.1785641 15.5200367,80.677883 C13.8407706,82.4345497 11.6524771,82.520992 10.1134679,80.929758 C8.57970642,79.3442372 8.62550459,77.035383 10.281156,75.3201987 C16.700055,68.6715929 22.8293761,61.7512404 28.4883119,54.386008 C28.8327523,53.9374022 29.2220367,53.5265529 29.6132294,53.0717372 Z M56.928603,25.999983 C53.5990291,26.0079307 51.0074286,23.2252269 51.0000131,19.6341701 C50.9928532,16.0102971 53.9306824,13.028133 57.5361652,13.000188 C60.9910359,12.9732686 64.0349839,15.8408327 63.9996962,19.089115 C63.9615957,22.6119759 60.5036565,25.9915226 56.928603,25.999983 Z" id="Combined-Shape" fill="#FFFFFF"></path>
            </g>
        </g>
    </g>
</svg>