<?xml version="1.0" encoding="UTF-8"?>
<svg width="105px" height="105px" viewBox="0 0 105 105" version="1.1" xmlns="http://www.w3.org/2000/svg" xmlns:xlink="http://www.w3.org/1999/xlink">
    <!-- Generator: Sketch 52.2 (67145) - http://www.bohemiancoding.com/sketch -->
    <title>Group 7</title>
    <desc>Created with Sketch.</desc>
    <g id="Page-1" stroke="none" stroke-width="1" fill="none" fill-rule="evenodd">
        <g id="Desktop" transform="translate(-375.000000, -354.000000)">
            <g id="Group-7" transform="translate(375.000000, 354.000000)">
                <rect id="Rectangle" fill-opacity="0.7" fill="#05BCB0" fill-rule="nonzero" x="0" y="0" width="105" height="105"></rect>
                <path d="M66,60.5549589 C62.9004468,63.6102504 62.3247987,63.705488 58.9250609,61.3795623 C54.8072344,58.5620688 50.6464403,58.4289729 46.6645798,61.4132799 C44.3319689,63.1618649 42.5002542,63.131105 40.0711133,61.5037851 C38.0410413,60.1432487 35.5000669,59.5523027 33.0338443,58.5597027 C37.4500896,55.3630337 42.0835273,52.0090156 47.019504,48.4361287 C44.4879471,46.5313778 42.2936565,44.763272 39.9598684,43.205162 C39.3618535,42.8064657 38.2947267,42.9123509 37.4924686,43.0584607 C32.4882147,43.9717947 27.4986757,44.9626201 22,46.0250216 C22.6492228,42.8987456 23.1942639,39.9812823 23.9123525,37.1081843 C24.0318378,36.6296304 24.8546967,36.1682311 25.4397624,35.993136 C30.0331755,34.6178112 34.6248228,33.2241486 39.273564,32.0629604 C40.2153196,31.82812 41.5867512,32.2830124 42.4325655,32.8846061 C46.4291409,35.7263526 50.3203574,38.717758 54.2257003,41.6878682 C54.8390186,42.1545913 55.4688177,42.6993974 55.8567033,43.3494972 C59.2735104,49.0755808 62.6373438,54.8341991 66,60.5549589 Z M15,69.8985429 L15,62.0141964 C17.5031831,63.1729806 19.7143977,63.9324901 21.6253018,65.1545667 C23.5481231,66.3843331 25.1390535,66.6493333 27.0195691,65.210761 C31.635055,61.6799886 36.3142974,61.740915 40.9184621,65.2515757 C42.6732524,66.5901815 44.2933797,66.5724359 46.040424,65.2379708 C50.651739,61.7154797 55.3220435,61.7148882 59.9411045,65.2214083 C61.6804027,66.541677 63.2969549,66.6191659 65.0624706,65.2657721 C69.6582933,61.7450556 74.3387274,61.677031 78.9619594,65.19479 C80.834133,66.6203489 82.4256594,66.4133175 84.3574184,65.1717207 C86.2724935,63.9413628 88.4884749,63.1717976 91,62 L91,69.9239782 C89.1844325,70.988711 87.4153417,72.3273168 85.4257848,73.1264579 C81.8911782,74.5461017 78.371468,74.1740367 75.3278452,71.7789794 C73.1494026,70.064168 71.3034465,69.8938108 68.969486,71.6458878 C64.7693104,74.7992715 60.2878916,74.7726531 56.0704362,71.638198 C53.8919936,70.0192126 52.1497162,69.9943689 49.9587606,71.6204525 C45.6274971,74.8335795 41.1395239,74.6951643 36.7868097,71.5329078 C35.1422523,70.3374495 33.6091197,69.640641 31.7035783,71.1218026 C26.8300875,74.9087023 21.9113118,74.8176085 17.0104118,71.101691 C16.3865525,70.6284764 15.6602064,70.288945 15,69.8985429 Z M61.00023,46.4057211 C61.041351,39.5811336 66.6973001,33.980257 73.5276161,34.0000523 C80.368817,34.0192478 85.9854593,39.6315217 85.9999726,46.4615079 C86.0144859,53.4396592 80.2654098,59.1239161 73.3208017,58.9979459 C66.4366657,58.8731753 60.959109,53.2746981 61.00023,46.4057211 Z" id="Combined-Shape" fill="#FFFFFF"></path>
            </g>
        </g>
    </g>
</svg>