<?xml version="1.0" encoding="UTF-8"?>
<svg width="105px" height="105px" viewBox="0 0 105 105" version="1.1" xmlns="http://www.w3.org/2000/svg" xmlns:xlink="http://www.w3.org/1999/xlink">
    <!-- Generator: Sketch 52.2 (67145) - http://www.bohemiancoding.com/sketch -->
    <title>Group 10</title>
    <desc>Created with Sketch.</desc>
    <g id="Page-1" stroke="none" stroke-width="1" fill="none" fill-rule="evenodd">
        <g id="Desktop" transform="translate(-375.000000, -681.000000)">
            <g id="Group-10" transform="translate(375.000000, 681.000000)">
                <rect id="Rectangle" fill-opacity="0.7" fill="#05BCB0" fill-rule="nonzero" x="0" y="0" width="105" height="105"></rect>
                <path d="M54.4769816,18 C55.7455386,18.1794277 57.0204663,18.3227793 58.2818396,18.544137 C65.581024,19.8247717 71.8266243,23.1494937 77.0193182,28.439344 C82.1808369,33.6974745 85.357177,40.0011323 86.5461697,47.2837465 C86.8298635,49.0222077 86.8851655,50.8008292 86.9956339,52.5642034 C87.0520202,53.4620226 86.5567422,54.0086101 85.8291415,53.9998974 C85.1221436,53.9914569 84.7106317,53.500277 84.6953153,52.5994627 C84.596097,46.7415154 83.1613629,41.2426958 80.1106721,36.2398209 C75.0150278,27.8829547 67.6650143,22.6976572 58.0567008,20.8700266 C51.6224231,19.6461608 45.3833289,20.4686966 39.3750663,23.0414015 C36.9794602,24.0671889 34.7555884,25.4103101 32.6848814,27.0018803 C32.6206335,27.0511616 32.5661448,27.1131037 32.3869555,27.2832741 L34.5357359,27.2832741 C35.7329968,27.2832741 36.9302577,27.2727916 38.127383,27.2866775 C39.0333597,27.2972961 39.5730962,27.7631547 39.5580508,28.4804572 C39.5430054,29.1868687 39.0410857,29.608483 38.153543,29.6103889 C34.8115681,29.6177403 31.4695931,29.6133839 28.073265,29.6133839 C28.0499514,29.4140803 28.0126768,29.2432292 28.0124057,29.0723781 C28.0086105,25.8960447 28.0205384,22.7197112 28.0000712,19.543514 C27.9955983,18.8354688 28.2009476,18.3063068 28.8591496,18 L29.5368701,18 C30.1568487,18.3856743 30.3490502,18.9552688 30.336038,19.6684872 C30.3081159,21.2100952 30.3274987,22.7525201 30.3274987,24.2945366 L30.3274987,25.8989035 C30.7547336,25.5780301 31.0584879,25.3546304 31.3572271,25.1248322 C35.9047311,21.6259918 41.0162341,19.4291594 46.6587988,18.4861429 C47.9897061,18.2636961 49.3402674,18.1588711 50.6817472,18 L54.4769816,18 Z M52.5277393,29.2923749 C39.8444116,29.3850256 29.3798507,39.3889884 29.3234472,52.4252907 C29.2685386,65.1132701 39.3904648,75.6155359 52.4705202,75.651944 C65.1701574,75.6871296 75.6188165,65.559542 75.6742687,52.5500024 C75.7280899,39.887699 65.6201628,29.4484682 52.5277393,29.2923749 Z M52.5146917,78 C38.4840662,77.9073493 27.0206866,66.7788085 27.0000279,52.5188924 C26.9795052,38.3760802 38.2841394,26.9834442 52.5186332,27.0000181 C66.7993371,27.0165919 78.0047554,38.4229489 77.9999985,52.4894126 C77.9952416,66.7201207 66.5949251,77.8818093 52.5146917,78 Z M24.9998386,70.0226291 C24.9898475,70.5824832 24.5271686,71.0222674 23.9721917,70.999127 C23.4142413,70.9761048 22.9730906,70.5010198 23.0012795,69.9536804 C23.0280411,69.4355025 23.4959535,68.9928848 24.0094201,69.0000867 C24.5655864,69.0077608 25.0097106,69.4663169 24.9998386,70.0226291 Z M37.9999897,81.9991851 C37.9973787,82.5736057 37.559211,83.0100804 36.9954796,82.9998229 C36.4630797,82.9902728 35.9881211,82.497087 36.0002265,81.9665261 C36.0119758,81.454476 36.4719807,81.0066826 36.9932246,81.0000801 C37.5518529,80.9931238 38.002482,81.4403277 37.9999897,81.9991851 Z M40.9997502,83.0243409 C40.9873942,83.5959712 40.5279641,84.0264086 39.9598248,83.9987376 C39.4294664,83.9728404 38.983818,83.5026703 39.0004511,82.9865002 C39.0170842,82.4716309 39.49089,82.0046537 40.0014075,82.0000418 C40.5645569,81.994957 41.0121062,82.4541296 40.9997502,83.0243409 Z M83.9999724,66.002094 C83.9960751,66.5289303 83.5452803,66.9933066 83.0316554,66.9999186 C82.4816552,67.007121 81.9951937,66.5353062 82.0000358,65.9991422 C82.0049961,65.4574289 82.5014963,64.9787659 83.0360252,65.0007272 C83.5690188,65.0224524 84.0039879,65.4743131 83.9999724,66.002094 Z M21.9420599,67.9995054 C21.4118748,67.9822558 20.9948353,67.5279388 21.0000483,66.9730985 C21.0053798,66.3998191 21.4571331,65.977384 22.0398036,66.0009385 C22.5717659,66.0225897 23.0154627,66.4884461 22.9995867,67.0089062 C22.9829999,67.5561328 22.4907275,68.0172307 21.9420599,67.9995054 Z M26.9999964,73.0082348 C26.998456,73.5263156 26.5371574,73.994149 26.0221809,73.9999423 C25.4699971,74.0059719 24.9944792,73.5389662 25.0000484,72.9959389 C25.0053807,72.4676904 25.4499716,72.0115617 25.9706358,72.0002117 C26.5062304,71.9883888 27.0015368,72.4736018 26.9999964,73.0082348 Z M65.9963987,83.9999994 C65.4608301,83.9995254 65.0134156,83.5631255 65.0002459,83.0288525 C64.9873134,82.5027553 65.4865763,81.9992898 66.0206025,82.0000008 C66.5415776,82.0007117 66.9932633,82.4571365 66.9999075,82.9895137 C67.0072636,83.5653768 66.5749171,84.0005918 65.9963987,83.9999994 Z M84.9999912,63.0090086 C84.9976163,63.5679059 84.5324821,64.0153073 83.9699749,63.9995986 C83.4464169,63.984953 82.99482,63.5198351 83.0000449,63.0005046 C83.0052698,62.4807017 83.4610229,62.0146389 83.977931,62.0003476 C84.5233385,61.9853476 85.0023662,62.4579065 84.9999912,63.0090086 Z M21.0035764,64.9998404 C20.4557207,65.0092988 20.0218133,64.5973857 20.0007602,64.0476165 C19.9791124,63.4823592 20.4225353,63.0082572 20.9808581,63.0000993 C21.5289516,62.9920597 22.0097229,63.4731373 21.9998506,64.0197143 C21.990454,64.5399259 21.5322821,64.9907367 21.0035764,64.9998404 Z M86.9997228,55.9931841 C87.012515,56.5251099 86.5809294,56.9755653 86.0356491,56.9990118 C85.4677734,57.0236423 85.0072561,56.5849101 85.0000829,56.0127228 C84.9932684,55.4619687 85.4073992,55.0220524 85.9526795,55.0007374 C86.507524,54.9791857 86.9862134,55.4328383 86.9997228,55.9931841 Z M75.0210805,77.9999152 C74.4747762,78.0072762 73.9989359,77.5341544 74.0000018,76.9842171 C74.0010676,76.4448464 74.4277606,76.0120914 74.9701569,76.0002188 C75.5150401,75.9883462 76.0007098,76.4613493 75.9999992,77.0029758 C75.9991702,77.5214508 75.536357,77.9927917 75.0210805,77.9999152 Z M59.968148,84.0003393 C60.511343,83.9864406 60.9697378,84.4012623 60.9986766,84.9327378 C61.028327,85.4738354 60.5553441,85.9906995 60.0222303,85.9998465 C59.4579243,86.0095874 58.998462,85.554614 59.0000039,84.9877385 C59.0016643,84.4360684 59.4149906,84.0143567 59.968148,84.0003393 Z M46.9998204,84.9761657 C47.0104451,85.5362129 46.5483279,86.0040058 45.9887971,85.9999741 C45.4850165,85.9962982 45.0169303,85.5205605 45.0004559,84.9956126 C44.9839816,84.4648544 45.4160152,84.0199472 45.9663538,84.0007374 C46.560027,83.9803419 46.9887181,84.3849324 46.9998204,84.9761657 Z M57.9996437,85.9825293 C58.0143108,86.5111173 57.5741787,86.980251 57.0461632,86.9992811 C56.4677073,87.0198478 56.0132658,86.5968119 56.0002682,86.0255539 C55.9878667,85.4891647 56.407131,85.0319691 56.9392008,85.0014736 C57.4818833,84.9703872 57.9846189,85.4355021 57.9996437,85.9825293 Z M20.9996611,61.0105203 C20.9867858,61.5356863 20.5198167,62.0015383 20.0080223,61.9999962 C19.452118,61.9982168 18.9944478,61.527501 19.0000509,60.9631878 C19.0054156,60.4045687 19.475842,59.976559 20.0577354,60.0009964 C20.6095863,60.0242474 21.013371,60.4568836 20.9996611,61.0105203 Z M31.0045623,78.9999691 C30.4924133,79.0043392 30.0163379,78.5439444 30.0004371,78.0286281 C29.9835869,77.485674 30.4563398,77.0015389 31.0051556,77.0000035 C31.5345106,76.9985861 31.9808017,77.4327605 31.9994317,77.9676831 C32.0185365,78.512527 31.5532594,78.9953628 31.0045623,78.9999691 Z M70.9999995,81.0064665 C70.9994054,81.5325227 70.5502947,81.9889904 70.0225303,81.99976 C69.4435577,82.0115948 69.0046649,81.5843591 69.0000312,81.0043362 C68.995754,80.4704691 69.4314389,80.01625 69.9630053,80.0003914 C70.5030074,79.9842961 71.0005935,80.467037 70.9999995,81.0064665 Z M50.9999795,86.0133809 C51.003459,86.5467497 50.5628853,86.9891334 50.0175674,86.9997818 C49.4393745,87.0111402 48.9994007,86.5777485 49.0000006,85.9970533 C49.0003606,85.4483034 49.4253366,85.0126637 49.9724542,85.0002405 C50.5282106,84.9879357 50.9962601,85.4493683 50.9999795,86.0133809 Z M53.9953765,86.0081412 C53.9913765,86.5382588 53.5547882,86.9879059 53.0325529,86.9997882 C52.4940824,87.0120235 52.0020824,86.5313176 52.0073765,85.9980235 C52.0125529,85.4623765 52.5104353,84.9886118 53.0466706,85.0090824 C53.5814941,85.0294353 53.9993765,85.4694353 53.9953765,86.0081412 Z M63.026772,83.0002793 C63.5707303,83.0126322 63.9981947,83.4481901 63.9999943,83.9925483 C64.0019139,84.5448646 63.5159026,85.0187877 62.9678652,84.9994269 C62.4035114,84.979591 61.9765269,84.5093501 62.0010015,83.9345848 C62.0240363,83.3943838 62.4704565,82.9878077 63.026772,83.0002793 Z M19.9998888,57.0073099 C19.9922259,57.5575255 19.5593911,57.9963794 19.0209518,57.9999756 C18.4438388,58.0038116 17.9919665,57.5544088 18.0001083,56.984534 C18.0084896,56.406388 18.4633553,55.9782028 19.0450182,56.0008587 C19.6062067,56.0226756 20.0076714,56.4458262 19.9998888,57.0073099 Z M81.9999343,68.9786285 C82.0063026,69.5452539 81.5489865,70.0039957 80.9818472,69.9999738 C80.4448672,69.9961884 80.0050939,69.5542442 80.0000474,69.0134068 C79.9947605,68.4316398 80.4326112,67.9921799 81.0098437,68.0001055 C81.5612424,68.0074397 81.9938063,68.4351886 81.9999343,68.9786285 Z M76.9633008,74.0002726 C77.5211161,73.9872595 77.991587,74.4418823 77.9999056,75.0022813 C78.007511,75.5186267 77.5547466,75.979577 77.020342,75.9992757 C76.4521879,76.0202877 76.0033451,75.5816627 76.0000177,75.0022813 C75.9968091,74.4638493 76.4305598,74.0126887 76.9633008,74.0002726 Z M71.9774449,78.0001367 C72.5246156,77.9907849 73.0037757,78.4627532 72.9999776,79.0074048 C72.9962981,79.5427046 72.5476419,80.0018882 72.0300255,79.9999942 C71.4639827,79.9976266 70.9969292,79.541876 71.0000152,78.9947385 C71.0028638,78.4734071 71.4593537,78.0090149 71.9774449,78.0001367 Z M42.9754599,83.000254 C43.5461231,82.9885956 43.9763061,83.3795068 43.9990608,83.9305417 C44.0237316,84.5263065 43.5592968,85.0081051 42.9682742,84.9998966 C42.4530606,84.9926399 42.0013205,84.5195256 42.0000031,83.9856213 C41.9986857,83.4317314 42.4143776,83.0117933 42.9754599,83.000254 Z M84.9665409,58.0001414 C85.5510474,57.9909326 86.0065304,58.4325981 85.9999292,59.002709 C85.993688,59.562774 85.5797326,59.986261 85.0259517,59.9996557 C84.4385647,60.0138875 83.9983245,59.5853775 84.0000048,59.0010347 C84.0018051,58.4427637 84.4206814,58.0088719 84.9665409,58.0001414 Z M79.9623702,72.9999718 C79.4191736,72.9960213 79.0043127,72.5656636 79.0000309,72.0015896 C78.995749,71.4211154 79.4376092,70.9862087 80.0174392,71.0003345 C80.5595653,71.0135026 80.9989277,71.457627 80.9999982,71.9936888 C81.0010687,72.5416018 80.5242403,73.0041616 79.9623702,72.9999718 Z M28.9999964,76.0066067 C29.0014362,76.5460717 28.5679379,76.9877355 28.0252551,76.999721 C27.4504168,77.0126652 27.0008408,76.5737581 27.0000009,75.9992956 C26.999281,75.4613886 27.4326594,75.0163689 27.9725826,75.0004283 C28.5308632,74.9840082 28.9984366,75.4418524 28.9999964,76.0066067 Z M34.9999979,79.9839368 C34.9987937,80.5788086 34.5847913,80.9916136 33.9811281,80.9999058 C33.4414077,81.0073567 33.0105466,80.5720788 33.0001905,80.0086931 C32.9894732,79.4277618 33.4321354,78.9899602 34.0199032,79.0001751 C34.5884039,79.0100296 35.0010816,79.424517 34.9999979,79.9839368 Z M52.5122564,53.6132286 C53.739763,53.6076324 54.7343892,52.6144359 54.7461388,51.382334 C54.7582845,50.1223842 53.74676,49.1016064 52.4902094,49.105737 C51.2310184,49.1100007 50.24867,50.1261151 50.2671525,51.4052519 C50.284843,52.6420173 51.278149,53.618958 52.5122564,53.6132286 Z M50.191506,55.2715762 C48.3160535,57.1757579 46.4429772,59.0795398 44.5676567,60.9809234 C43.4044431,62.1602609 42.2384571,63.3369336 41.071943,64.5130732 C40.6717954,64.9164011 40.2210848,65.1523752 39.6501055,64.8882867 C38.9163475,64.5489157 38.768619,63.6409951 39.387653,62.9992948 C40.675888,61.6641957 41.9939591,60.3582769 43.2997525,59.0403663 C44.9474734,57.3772219 46.5901777,55.7090143 48.248196,54.0563962 C48.5176455,53.7879107 48.5823344,53.5883121 48.4171795,53.2047043 C47.3577323,50.7450307 48.4429231,48.1261313 50.9161547,47.1475917 C51.2630989,47.0102177 51.3751825,46.8404656 51.3710899,46.4752454 C51.3530034,44.9000417 51.3635648,43.3245715 51.3642249,41.7491013 C51.3642249,41.5716211 51.3545876,41.3929416 51.371618,41.2169271 C51.443568,40.4732956 51.9032558,39.9902882 52.5187253,40.0001482 C53.1481888,40.0102747 53.6000876,40.4886185 53.6098569,41.253569 C53.631772,42.9617497 53.6291316,44.6705965 53.6107811,46.3789104 C53.6065565,46.7831709 53.6989693,47.0004909 54.1107345,47.1590506 C56.5025108,48.0790964 57.619386,50.7314399 56.6528797,53.118096 C55.7102687,55.4458586 52.9648153,56.5307265 50.6567386,55.487164 C50.5179874,55.4245396 50.3804243,55.3592503 50.191506,55.2715762 Z M72.5433407,54 C72.0045808,53.9749191 71.5107668,53.9815685 71.0299635,53.9223076 C70.3801693,53.8420487 69.9590968,53.4372549 70.0031556,52.9533687 C70.0481016,52.4609667 70.3597662,52.0653886 71.0132566,52.0344749 C72.011234,51.9872295 73.0197086,51.9867629 74.0163553,52.0441573 C74.6621576,52.081487 74.9980694,52.4764819 74.9999914,52.9747166 C75.0019134,53.4705016 74.68123,53.8370326 74.0302531,53.9191579 C73.5260897,53.9828517 73.0080286,53.9772522 72.5433407,54 Z M32.4857706,51 C32.9816032,51.0228885 33.5005528,51.0193851 34.0079439,51.0775405 C34.6681155,51.1532126 34.9895323,51.5332078 34.9997572,52.0156172 C35.0101303,52.5028145 34.6881207,52.919945 34.0303201,52.9555623 C33.0073877,53.0107982 31.9720075,53.0176881 30.9501124,52.958365 C30.3028331,52.9207625 29.9901592,52.5142587 30.0002359,52.0097783 C30.0103126,51.5019113 30.3552911,51.1625548 30.9978285,51.0810438 C31.4798796,51.0200858 31.9752676,51.0253408 32.4857706,51 Z M53,32.552504 C52.9819331,33.0188181 52.9862739,33.4885306 52.9404028,33.9505598 C52.8754091,34.6067389 52.5270941,34.9665218 52.0303727,34.9978458 C51.5330648,35.0293176 51.0991081,34.7157819 51.0549968,34.0681726 C50.9854277,33.0473348 50.9820255,32.0095051 51.0438517,30.9877807 C51.0825664,30.3471159 51.5713102,29.9410857 52.0486742,30.0069844 C52.5516134,30.0764291 52.8910122,30.4273468 52.943805,31.0780589 C52.9833409,31.5643199 52.9516653,32.0598895 52.9516653,32.5513219 C52.9677377,32.5517652 52.9839275,32.5522085 53,32.552504 Z M52.9793209,72.4852426 C52.9793209,72.9504314 53.0046119,73.4181323 52.9733841,73.8800701 C52.9273141,74.5613027 52.5969879,74.9579249 52.0550725,74.9969369 C51.5149381,75.0358011 51.0943718,74.7044945 51.0502016,74.0226708 C50.9859649,73.0288988 50.985015,72.0209405 51.0379717,71.0258385 C51.074424,70.3437193 51.4933279,70.0149248 52.0243196,70.0002953 C52.5308514,69.9862569 52.9301638,70.4742026 52.9832392,71.1640061 C53.0168418,71.6006747 52.9895323,72.0445842 52.9895323,72.4852426 L52.9793209,72.4852426 Z" id="Combined-Shape" fill="#FFFFFF"></path>
            </g>
        </g>
    </g>
</svg>