<?xml version="1.0" encoding="UTF-8"?>
<svg width="105px" height="105px" viewBox="0 0 105 105" version="1.1" xmlns="http://www.w3.org/2000/svg" xmlns:xlink="http://www.w3.org/1999/xlink">
    <!-- Generator: Sketch 52.2 (67145) - http://www.bohemiancoding.com/sketch -->
    <title>Group 6</title>
    <desc>Created with Sketch.</desc>
    <g id="Page-1" stroke="none" stroke-width="1" fill="none" fill-rule="evenodd">
        <g id="Desktop" transform="translate(-679.000000, -301.000000)">
            <g id="Group-6" transform="translate(679.000000, 301.000000)">
                <rect id="Rectangle" fill-opacity="0.7" fill="#05BCB0" fill-rule="nonzero" x="0" y="0" width="105" height="105"></rect>
                <g id="Group-5" transform="translate(23.000000, 18.000000)" fill="#FFFFFF">
                    <path d="M7.56628689,52.4560362 L22.4642063,52.4560362 L22.4642063,36.3067847 L7.56628689,36.3067847 L7.56628689,52.4560362 Z M0.0033766616,49.2862445 C0.0033766616,43.6639576 -0.00630796227,38.0416707 0.00712554826,32.4193838 C0.0150919324,29.0491365 0.618662685,25.8148177 2.72350634,23.0799974 C3.65135579,21.8746078 4.77961447,20.7998347 5.93099129,19.7967756 C7.05362664,18.8188711 7.56941096,17.7572221 7.53551478,16.2185732 C7.43726271,11.7696467 7.49958795,7.31743918 7.49865072,2.8664816 C7.49818211,0.974418402 8.48492032,-0.00192370534 10.3952905,0.000107411222 C11.8526702,0.00166980858 13.3098937,-0.00301738349 14.7671171,0.00401340461 C16.4753598,0.0121378709 17.4928702,1.01675937 17.4955256,2.71867881 C17.502711,7.50805166 17.5114584,12.2972683 17.4884965,17.0864849 C17.4845914,17.8792453 17.735923,18.5042042 18.2954443,19.0302634 C18.7125079,19.4222689 19.1142636,19.8339606 19.5585067,20.1931558 C23.3058313,23.2232692 24.9628392,27.2322246 24.9806464,31.9591015 C25.0137616,40.7307128 24.9939237,49.5024802 24.9957982,58.2742477 C24.996423,61.2415528 24.9978288,64.2088578 24.994861,67.1763191 C24.9929865,68.9891688 24.0034367,69.9956652 22.2133433,69.9966026 C15.7076191,70.0001961 9.2018949,70.0012898 2.69617071,69.998165 C1.04697299,69.9973838 0.00775036271,68.971045 0.00603212299,67.3242782 C-0.00068463228,61.3115482 0.0033766616,55.2988182 0.0033766616,49.2862445 Z" id="Fill-1"></path>
                    <path d="M45.0804214,30.0079719 C43.0018034,30.0079719 40.9230295,30.0118772 38.8444115,30.0070347 C36.2569068,30.0007862 36.2542539,29.996881 35.545776,32.5075017 C34.5209799,36.1389353 34.8717857,39.507466 37.4535165,42.4462607 C39.4202449,44.6850746 41.9024143,46.1662658 44.6197547,47.2842669 C44.8831711,47.392521 45.3076336,47.3369099 45.5659004,47.1930397 C47.2390941,46.2607734 48.9714318,45.4009889 50.5225926,44.2911108 C52.6168158,42.7928926 54.1668842,40.8001108 54.7516126,38.2162271 C55.3496053,35.573452 54.7584789,33.0639247 53.7839316,30.6054784 C53.6015064,30.1448126 53.3675839,29.9909449 52.8753946,29.9956313 C50.2772782,30.0204688 47.6786937,30.0073471 45.0804214,30.0079719 M47.4965806,64.998577 C49.1473028,64.998577 50.702521,64.9937345 52.2578953,64.9999829 C53.8552476,65.0063876 54.9780446,66.0309745 54.9872517,67.4771746 C54.9967709,68.9550854 53.8569642,69.9985739 52.218414,69.9990425 C47.4082549,70.0007608 42.5980959,70.0004484 37.7879368,69.9957621 C36.1365904,69.9943562 35.0084876,68.9672698 35.0131692,67.4881093 C35.0180068,66.0100423 36.1454854,65.0027947 37.8065071,64.9995143 C39.3369129,64.9962339 40.8671627,64.9987333 42.4610819,64.9987333 C42.4757508,64.7017764 42.4986905,64.4513704 42.4988466,64.2011207 C42.5018116,60.3230302 42.4901076,56.4449396 42.5152321,52.5670053 C42.5186652,52.0144876 42.3381126,51.7606449 41.8362481,51.5338268 C38.4305606,49.9946813 35.375991,47.9617533 33.0540874,44.9717215 C29.6997411,40.6521791 29.3291167,35.8343241 30.8745036,30.7774666 C31.3336097,29.2750306 32.0725178,27.851325 32.7578999,26.4276193 C33.2404139,25.4250581 34.1194571,24.9978214 35.2442828,25.0000084 C41.7444893,25.0131301 48.2446958,25.0125052 54.7450584,25.0032888 C55.6965098,25.0020391 56.5390367,25.2646295 57.0243597,26.0950464 C59.7618308,30.7796535 60.9456443,35.7248203 59.1315352,41.0309904 C58.0070216,44.3200098 55.7572142,46.8171964 52.9385958,48.7578038 C51.3847821,49.8275357 49.6635242,50.6518603 48.0332448,51.6134943 C47.8082172,51.7461173 47.5207687,52.0305773 47.5192082,52.2466169 C47.488934,56.4600921 47.4965806,60.6738797 47.4965806,64.998577" id="Fill-3"></path>
                    <path d="M37.0925876,35 L51.8845695,35 C52.2036141,36.7732839 51.8517589,38.382123 50.9471222,39.872808 C49.9246796,41.557719 48.4966348,42.8209976 46.8436026,43.771896 C44.0059494,45.4040423 44.9699578,45.4113257 42.1315234,43.781931 C40.6408259,42.9260415 39.3465236,41.7909521 38.337674,40.3459103 C37.237892,38.7705751 36.7893234,37.0251303 37.0925876,35" id="Fill-4"></path>
                </g>
            </g>
        </g>
    </g>
</svg>