<?xml version="1.0" encoding="UTF-8"?>
<svg width="105px" height="105px" viewBox="0 0 105 105" version="1.1" xmlns="http://www.w3.org/2000/svg" xmlns:xlink="http://www.w3.org/1999/xlink">
    <!-- Generator: Sketch 52.2 (67145) - http://www.bohemiancoding.com/sketch -->
    <title>Group</title>
    <desc>Created with Sketch.</desc>
    <g id="Page-1" stroke="none" stroke-width="1" fill="none" fill-rule="evenodd">
        <g id="Desktop" transform="translate(-104.000000, -109.000000)" fill-rule="nonzero">
            <g id="Group" transform="translate(104.000000, 109.000000)">
                <rect id="Rectangle" fill-opacity="0.7" fill="#05BCB0" x="0" y="0" width="105" height="105"></rect>
                <g id="light-bulb" transform="translate(21.000000, 20.000000)" fill="#FFFFFF">
                    <path d="M30.666693,19.82192 C27.935415,19.97158 25.136602,21.21349 22.907928,23.56456 C20.913837,25.66787 19.914337,28.17558 19.832737,31.01134 C19.801291,32.10359 20.536752,32.90007 21.573536,32.96397 C22.653707,33.03068 23.450999,32.36252 23.576384,31.28107 C23.605707,31.02875 23.624946,30.77528 23.644053,30.52194 C23.751791,29.09301 24.245902,27.79393 25.131826,26.64539 C26.728797,24.57486 28.881842,23.49125 31.571855,23.39291 C32.905982,23.34412 33.762582,22.47764 33.607343,21.33775 C33.468159,20.31436 32.630532,19.77021 30.666693,19.82192 Z M31.723246,52.09606 C30.043348,52.09606 28.363318,52.10381 26.683287,52.09378 C25.219927,52.08501 24.181551,51.22132 23.933965,49.83406 C23.406152,46.87596 22.081446,44.29544 19.929728,42.11005 C16.761924,38.89264 15.208871,35.08749 15.291001,30.65433 C15.425807,23.38516 21.167394,16.91844 28.648984,15.65391 C37.635331,14.1349 45.933186,19.38042 47.821794,27.92098 C48.984362,33.17767 47.555632,37.87827 43.773639,41.84249 C41.547486,44.17602 40.050026,46.79579 39.526858,49.9277 C39.306472,51.24673 38.224973,52.08323 36.829547,52.09301 C35.127624,52.10496 33.425435,52.09594 31.723246,52.09606 Z M31.215418,54.47035 C33.011975,54.47035 34.808398,54.46678 36.604821,54.47159 C38.093964,54.47543 38.799725,55.20757 38.805051,56.74459 C38.807048,57.31627 38.813305,57.88837 38.795598,58.45937 C38.750464,59.91047 37.998637,60.99783 36.671257,61.45065 C36.280632,61.58406 36.122065,61.79517 36.019283,62.18484 C35.286095,64.96282 35.070013,65.12328 32.259083,65.12259 C31.172282,65.12246 30.085481,65.12644 28.99868,65.12163 C27.727484,65.11587 26.963275,64.51769 26.619514,63.2696 C26.57731,63.11601 26.527117,62.9631 26.501821,62.80608 C26.380266,62.0506 26.07192,61.56512 25.283746,61.26164 C24.126915,60.8161 23.592369,59.76909 23.538581,58.50041 C23.510489,57.83854 23.517945,57.17407 23.535253,56.51153 C23.568271,55.2438 24.321562,54.48064 25.55974,54.47323 C27.444966,54.46198 29.330192,54.47035 31.215418,54.47035 Z M5.3515,29.60616 C6.428953,29.60616 7.506543,29.59823 8.583996,29.60833 C9.762106,29.61933 10.57909,30.34653 10.583916,31.36828 C10.588604,32.37505 9.763347,33.1327 8.587167,33.14178 C6.409373,33.15853 4.231164,33.15789 2.05337,33.14127 C0.846027,33.13206 -0.023905,32.34385 0.000501,31.33681 C0.025045,30.32287 0.895529,29.60795 2.119004,29.6036 C3.196457,29.60002 4.274047,29.60296 5.3515,29.60296 L5.3515,29.60616 Z M57.074569,29.63434 C58.157523,29.6345 59.240884,29.6234 60.323702,29.63777 C61.423617,29.65214 62.252692,30.60512 62.270875,31.84668 C62.289193,33.08383 61.481829,34.12924 60.38897,34.1477 C58.178148,34.18526 55.966241,34.1833 53.755284,34.14966 C52.611948,34.13235 51.830501,33.11405 51.86076,31.80503 C51.889798,30.54469 52.691735,29.64937 53.825301,29.63663 C54.908255,29.62454 55.99148,29.63418 57.074569,29.63434 Z M29.4027,5.32803 C29.4027,4.24073 29.394964,3.15329 29.404855,2.066 C29.415761,0.86052 30.189172,-0.02167 31.197055,0.00041 C32.182111,0.02221 32.915704,0.88538 32.920904,2.0678 C32.930541,4.2424 32.9294,6.41728 32.921665,8.59187 C32.917607,9.76346 32.170064,10.64302 31.193758,10.65649 C30.174082,10.67038 29.417917,9.80484 29.407011,8.59007 C29.397374,7.50291 29.404982,6.41547 29.404982,5.32803 L29.4027,5.32803 Z M52.919678,51.52296 C52.871143,52.35352 52.571033,52.82723 52.003808,53.10605 C51.426899,53.38984 50.828594,53.34035 50.377472,52.90299 C48.975571,51.5438 47.595178,50.16082 46.245529,48.7493 C45.679431,48.15713 45.768732,47.2242 46.342487,46.65309 C46.921874,46.07621 47.833127,45.99807 48.425126,46.57144 C49.814077,47.91705 51.175212,49.29289 52.514614,50.68844 C52.754027,50.93792 52.835219,51.34108 52.919678,51.52296 Z M11.058942,9.47258 C11.4226,9.74601 11.847658,9.93485 12.139397,10.30727 C13.429046,11.9537 14.686467,13.64498 15.943097,15.33611 C16.620318,16.24744 16.633321,17.5135 16.004045,18.34804 C15.383816,19.17073 14.412367,19.14688 13.730397,18.25444 C12.455901,16.58687 11.19113,14.90624 9.930769,13.21976 C9.398966,12.50821 9.27311,11.62913 9.552072,10.81649 C9.809663,10.06609 10.359445,9.60982 11.058942,9.47258 Z M47.484978,18.94517 C46.801528,18.80756 46.315684,18.44022 46.042664,17.66967 C45.76322,16.88067 45.794557,16.0696 46.254136,15.43861 C47.597477,13.59424 48.958854,11.77163 50.347172,9.98744 C50.928381,9.2403 51.875945,9.33754 52.438329,10.07733 C53.027767,10.85238 53.101038,12.11377 52.5178,12.91643 C51.189226,14.74504 49.833711,16.54033 48.457905,18.30607 C48.209911,18.62449 47.813007,18.73749 47.484978,18.94517 Z M16.4639,48.0082 C16.359173,48.19871 16.229365,48.61292 15.96105,48.89307 C14.696753,50.21282 13.40263,51.50394 12.102519,52.78847 C11.436309,53.4467 10.514437,53.44045 9.881441,52.81608 C9.25737,52.20045 9.240762,51.24696 9.887767,50.58362 C11.177145,49.2616 12.481888,47.9548 13.792731,46.65437 C14.301116,46.14996 14.946991,46.04908 15.556263,46.34104 C16.159321,46.63017 16.439836,47.13037 16.4639,48.0082 Z"></path>
                </g>
            </g>
        </g>
    </g>
</svg>