<?xml version="1.0" encoding="UTF-8"?>
<svg width="48px" height="56px" viewBox="0 0 48 56" version="1.1" xmlns="http://www.w3.org/2000/svg" xmlns:xlink="http://www.w3.org/1999/xlink">
    <!-- Generator: Sketch 52.2 (67145) - http://www.bohemiancoding.com/sketch -->
    <title>apple</title>
    <desc>Created with Sketch.</desc>
    <g id="Page-1" stroke="none" stroke-width="1" fill="none" fill-rule="evenodd">
        <g id="Lesson-2" transform="translate(-807.000000, -1734.000000)" fill="#F67102">
            <path d="M807,1766.31903 C807.097604,1764.96446 807.114325,1763.86405 807.269922,1762.78401 C807.483986,1761.29858 807.827437,1759.84311 808.338936,1758.41759 C809.01896,1756.52222 809.972344,1754.79761 811.262063,1753.2845 C812.506005,1751.82519 813.971364,1750.60951 815.749576,1749.84187 C816.536097,1749.50238 817.326888,1749.16518 818.137484,1748.8934 C818.672822,1748.71401 819.242551,1748.61623 819.804691,1748.54817 C820.537845,1748.45949 821.2844,1748.3544 822.015063,1748.40461 C823.086212,1748.47807 824.149771,1748.67339 825.214042,1748.83409 C826.600891,1749.04367 827.883494,1749.58711 829.120795,1750.21382 C829.803427,1750.55954 830.486178,1750.81118 831.223008,1750.65672 C831.942523,1750.50585 832.637608,1750.23012 833.337081,1749.99022 C834.262121,1749.67266 835.174946,1749.31725 836.104374,1749.01383 C837.120377,1748.68202 838.168163,1748.49832 839.239075,1748.49904 C840.20669,1748.49952 841.188538,1748.42366 842.139194,1748.55907 C844.292759,1748.86572 846.291795,1749.63552 848.078545,1750.91843 C850.075209,1752.35209 851.623703,1754.17952 852.688922,1756.40251 C853.178245,1757.42359 853.621552,1758.47727 853.968798,1759.55455 C854.244531,1760.40895 854.347946,1761.32075 854.5173,1762.20906 C854.679182,1763.05758 854.864783,1763.90419 854.96796,1764.7605 C855.033899,1765.30729 854.981362,1765.87074 854.957998,1766.42568 C854.945309,1766.72754 854.886486,1767.02795 854.84225,1767.32813 C854.686297,1768.38768 854.550388,1769.45094 854.362889,1770.50498 C854.219271,1771.3118 854.059879,1772.12294 853.816878,1772.90316 C853.471056,1774.01388 853.083013,1775.11537 852.638994,1776.18953 C851.986603,1777.76795 851.15549,1779.25758 850.205901,1780.67338 C848.534543,1783.16539 846.573813,1785.403 844.294657,1787.34331 C843.603011,1787.93216 842.880768,1788.50891 842.0965,1788.95444 C841.429167,1789.33359 840.671464,1789.63017 839.919691,1789.75719 C838.94318,1789.92208 837.922315,1789.99386 836.94035,1789.89824 C836.06927,1789.81316 835.201037,1789.50723 834.375142,1789.18476 C833.331981,1788.77757 832.323213,1788.25583 831.195731,1788.15888 C830.705341,1788.1167 830.173206,1788.19016 829.704993,1788.3475 C828.826324,1788.64288 827.989874,1789.06349 827.118795,1789.385 C825.616553,1789.93958 824.043629,1790.14365 822.475567,1789.89596 C821.038553,1789.66888 819.722031,1789.06517 818.565375,1788.11467 C816.861047,1786.71396 815.307336,1785.16011 813.868186,1783.49313 C812.204181,1781.56589 810.74416,1779.48214 809.645615,1777.17131 C809.096521,1776.0165 808.659261,1774.80357 808.226271,1773.59674 C807.797906,1772.40287 807.497268,1771.17136 807.37642,1769.89911 C807.254979,1768.62147 807.10887,1767.34622 807,1766.31903 Z M841.521832,1744.37926 C839.106772,1744.41333 836.996985,1743.65697 835.051484,1742.39628 C834.604388,1742.10646 834.173302,1741.76642 833.809842,1741.37915 C833.368839,1740.90926 833.409582,1740.32447 833.703265,1739.78679 C834.748003,1737.87292 836.297785,1736.45764 838.154512,1735.35968 C839.16699,1734.76102 840.244824,1734.29041 841.419676,1734.17802 C842.56872,1734.06802 843.754923,1733.9047 844.879593,1734.07113 C847.413416,1734.4462 849.642445,1735.58207 851.588663,1737.26231 C851.801099,1737.44584 851.825712,1737.6143 851.695837,1737.82043 C850.699489,1739.40227 849.545188,1740.84995 848.069245,1742.01583 C847.057364,1742.81511 845.958502,1743.44893 844.726538,1743.86728 C843.659099,1744.2298 842.575411,1744.3942 841.521832,1744.37926 Z M832.6,1745.37767 C832.54194,1746.17785 832.351038,1746.86887 831.704132,1747.35785 C831.104603,1747.81103 830.526092,1747.57059 830.143475,1746.93106 C829.921685,1746.5604 829.863161,1746.06547 829.80661,1745.61645 C829.582382,1743.83414 829.017225,1742.18003 828.106493,1740.64721 C827.333945,1739.34663 826.295946,1738.28852 825.175152,1737.31044 C824.651102,1736.85309 824.54938,1736.2616 824.619865,1735.61839 C824.65923,1735.25962 825.387072,1734.74341 825.763302,1734.79204 C826.667763,1734.90882 827.366691,1735.42467 828.007442,1736.04387 C829.050667,1737.05191 829.887546,1738.2293 830.560928,1739.51335 C831.097868,1740.53721 831.593585,1741.59568 831.981427,1742.68577 C832.287288,1743.54589 832.40097,1744.47771 832.6,1745.37767 Z" id="apple"></path>
        </g>
    </g>
</svg>