<?xml version="1.0" encoding="UTF-8"?>
<svg width="53px" height="53px" viewBox="0 0 53 53" version="1.1" xmlns="http://www.w3.org/2000/svg" xmlns:xlink="http://www.w3.org/1999/xlink">
    <!-- Generator: Sketch 52.2 (67145) - http://www.bohemiancoding.com/sketch -->
    <title>Group 6</title>
    <desc>Created with Sketch.</desc>
    <g id="Page-1" stroke="none" stroke-width="1" fill="none" fill-rule="evenodd">
        <g id="Lesson-16" transform="translate(-522.000000, -2666.000000)">
            <g id="Group-6" transform="translate(548.500000, 2692.500000) scale(-1, 1) translate(-548.500000, -2692.500000) translate(522.000000, 2666.000000)">
                <g id="Group-3" fill="#F67102">
                    <path d="M19.6821897,20.8518103 C20.7696034,21.1305584 21.0831957,21.1436098 22.0083844,20.5923741 C23.016997,19.9914794 23.992068,19.3261766 24.9234919,18.6147164 C25.1873093,18.4132156 25.3650152,17.9564168 25.3785609,17.6090162 C25.4155426,16.6573255 25.3437292,15.7014965 25.3157779,14.7473653 C25.2869665,13.7647968 24.3061978,12.8454693 23.3431673,13.0535489 C22.0745,13.3276282 20.7830416,13.6254758 19.6015609,14.1380879 C17.4368387,15.0769395 16.0756095,16.8594629 15.0631268,18.9070464 C13.711788,21.639775 13.1666298,24.555966 13.1612546,27.5756131 C13.1573844,29.7627298 13.4107738,31.9186504 14.3798245,33.9209254 C14.6779361,34.5368876 14.8756379,35.1403289 14.9331531,35.8240946 C15.0358205,37.0454081 16.201498,38.1753618 17.4328611,38.2081494 C20.3221673,38.2851845 23.1529909,38.7896262 25.9953174,39.2330553 C27.4801775,39.464691 28.9606298,39.4054823 30.3563682,38.7635234 C30.6760882,38.6164565 30.9407657,38.6259002 31.2673661,38.7445299 C35.4878002,40.2783341 40.009571,37.0776652 39.7796176,32.6814673 C39.6480314,30.1638214 38.4019402,28.2724302 36.0654249,27.2147367 C33.767074,26.174445 31.5620375,26.4925595 29.5505101,27.9917722 C29.2569138,28.2105688 29.0688874,28.2222407 28.7554026,28.0600002 C26.6250822,26.9575287 24.110646,27.2563314 22.2891876,28.8014892 C22.1901755,28.8854214 22.0766501,28.9526944 21.9459239,29.0445847 C21.7838063,28.5569082 21.6528651,28.1196334 21.4938651,27.6925451 C20.9265609,26.1696701 20.3304452,24.6570878 19.7851795,23.1266791 C19.5288874,22.4074729 19.477285,21.6536753 19.6821897,20.8518103 M26.4895183,0.0334561366 C41.1978245,0.135426791 52.9865081,11.7087246 52.9468387,26.2452197 C52.9062018,41.086035 40.7124391,52.3273182 26.5317677,52.3117201 C11.771644,52.2953794 -0.00327890467,40.6365577 -5.37525354e-05,26.1027154 C0.00317139959,12.0850929 11.4799828,0.111870615 26.4895183,0.0334561366" id="Fill-1"></path>
                </g>
                <path d="M19.3674673,20.7289305 C19.1673863,21.5206512 19.217774,22.2649127 19.4680327,22.9750203 C20.0004622,24.486068 20.5825446,25.9795149 21.1364939,27.4831242 C21.2917508,27.9048095 21.4196095,28.3365524 21.5779107,28.8180594 C21.7055594,28.7273316 21.8164123,28.6609096 21.9130936,28.5780393 C23.6916728,27.052429 26.1469162,26.7574065 28.2270865,27.8459307 C28.5331915,28.0061188 28.7167915,27.9945945 29.0034763,27.7785659 C30.96765,26.2983195 33.1207775,25.9842294 35.3650226,27.0113605 C37.6465336,28.0556734 38.8632905,29.9231368 38.991779,32.4089324 C39.216319,36.7495147 34.8009958,39.9096924 30.6799155,38.3952922 C30.3610037,38.2781632 30.102557,38.268839 29.7903635,38.4140454 C28.4274824,39.0478829 26.9818816,39.1063426 25.5319769,38.8776373 C22.7565619,38.4398179 19.9923792,37.9417578 17.1710905,37.8656973 C15.9687151,37.8333245 14.830479,36.7176656 14.7302285,35.5118028 C14.6740673,34.8366873 14.4810196,34.24088 14.1899259,33.6327103 C13.2436878,31.6557658 12.9962634,29.5271193 13.0000425,27.3676715 C13.0052912,24.3862255 13.5376157,21.5069268 14.8571424,18.8087695 C15.8457902,16.7870897 17.1749745,15.0271167 19.2887366,14.1001424 C20.4424039,13.5940153 21.7034599,13.2999356 22.9422614,13.0293236 C23.882621,12.8238765 24.8403014,13.7315737 24.8684345,14.7017118 C24.8957278,15.6437725 24.9658506,16.5875094 24.9297394,17.5271605 C24.9165127,17.8701661 24.7429902,18.321186 24.4853833,18.5201377 C23.5758862,19.2225973 22.6237695,19.8794835 21.6389008,20.4727764 C20.7354921,21.0170385 20.4292821,21.0041522 19.3674673,20.7289305" id="Fill-4" fill="#FFFFFF"></path>
            </g>
        </g>
    </g>
</svg>