<?xml version="1.0" encoding="UTF-8"?>
<svg width="105px" height="95px" viewBox="0 0 105 95" version="1.1" xmlns="http://www.w3.org/2000/svg" xmlns:xlink="http://www.w3.org/1999/xlink">
    <!-- Generator: Sketch 52.2 (67145) - http://www.bohemiancoding.com/sketch -->
    <title>Group 4</title>
    <desc>Created with Sketch.</desc>
    <g id="Page-1" stroke="none" stroke-width="1" fill="none" fill-rule="evenodd">
        <g id="Lesson-11" transform="translate(-55.000000, -2394.000000)">
            <g id="Group-4" transform="translate(55.000000, 2394.000000)">
                <rect id="Rectangle-12" fill-opacity="0.7" fill="#05BCB0" fill-rule="nonzero" x="0" y="0.1" width="105" height="94"></rect>
                <path d="M49.9609954,72.0941865 L49.9609954,72.0976177 C50.9970773,72.0976177 52.0329198,72.1042352 53.0690018,72.0954119 C53.8958081,72.0883043 53.9992487,71.9679651 53.9980515,71.1447076 C53.995657,69.1668309 53.995657,67.1889543 53.999967,65.2113227 C54.0021221,64.2397857 53.9010759,64.1145447 52.9569412,64.1096429 C50.9846262,64.0988589 49.0125506,64.0981237 47.0402356,64.1025353 C46.2148659,64.1040058 46.0182809,64.3169891 46.0163654,65.14956 C46.0120553,67.1259661 46.0108581,69.1021272 46.000083,71.0782882 C45.995773,71.8978693 46.1571595,72.0851181 46.9724724,72.0922257 C47.9685669,72.101049 48.9646614,72.0941865 49.9609954,72.0941865 Z M49.3738546,18.3018468 C49.36814,18.23449 49.3624255,18.1671331 49.3567109,18.1 C47.8327477,18.2758887 46.3106133,18.4660991 44.7848215,18.6234144 C43.2873739,18.7780443 41.8651303,19.2614025 40.5656357,19.9155026 C39.2526547,20.5763161 38.0594512,21.5052143 36.9144787,22.4354552 C35.6776159,23.4404376 34.7559691,24.7367777 34.0514761,26.1514958 C33.605282,27.0481701 33.2093762,27.9775159 32.8932459,28.9247639 C32.5471711,29.9612989 32.2353839,31.0226731 32.0625751,32.0970264 C31.8874805,33.1850301 32.0303449,33.2781213 33.1341724,33.3962755 C34.1737681,33.5074927 35.2163353,33.5936468 36.255931,33.7041927 C36.897335,33.7724446 37.5350817,33.8706827 38.1755714,33.9460956 C38.5433615,33.9895083 38.7289709,33.8225707 38.7945743,33.4573666 C39.0988183,31.7649413 39.5690136,30.125775 40.375226,28.5843991 C41.1473795,27.1081424 42.2368063,25.8959425 43.6432777,25.0149325 C44.7747638,24.3062308 46.0381423,23.8886629 47.4089548,23.6921868 C50.2550422,23.2846889 52.8396307,23.7720751 55.1965504,25.4103464 C57.0069281,26.6688682 58.3948844,28.2751393 58.9309116,30.3828947 C59.6420334,33.1798832 59.2655572,35.8506615 57.1235055,38.0141373 C55.4191903,39.7356536 53.6330424,41.3819809 51.8366083,43.0124199 C50.5526574,44.1776267 49.3210519,45.3705818 48.3036288,46.7776914 C47.3143214,48.1456401 46.5732552,49.6402466 46.1659202,51.2375667 C45.6737809,53.1696571 45.4630273,55.1610485 45.6040631,57.1696706 C45.658923,57.9486383 45.7590424,58.0829045 46.5476539,58.0891703 C48.0693312,58.1008067 49.5912371,58.1025969 51.113143,58.0967787 C51.84118,58.0938696 51.9499855,57.9070158 52.0366185,57.1978665 C52.2492007,55.4564341 52.1214228,53.6924001 52.7456831,51.9728978 C53.272567,50.5214803 54.1000376,49.3204693 55.1410048,48.2425355 C56.0779666,47.2720148 57.1088762,46.3847391 58.1310995,45.4965682 C59.9108471,43.9500455 61.6729938,42.3755507 63.0863227,40.4994045 C63.9357373,39.372016 64.69189,38.137886 65.2526042,36.8527348 C65.8572063,35.4666602 65.9900131,33.9355781 65.9996136,32.4163561 C66.0098998,30.7248259 65.8169757,29.050079 65.1629996,27.4856541 C64.3499298,25.5399133 63.1023235,23.8589006 61.5042995,22.4406021 C60.1883469,21.2729338 58.7507882,20.2851822 57.0823605,19.6577116 C56.517989,19.4453472 55.9405882,19.2553606 55.3549585,19.1103531 C54.1850705,18.8207857 53.0156396,18.5036937 51.8260935,18.3246721 C51.02651,18.2042801 50.1924105,18.3018468 49.3738546,18.3018468 Z" id="Fill-1" fill="#FFFFFF"></path>
            </g>
        </g>
    </g>
</svg>