<?xml version="1.0" encoding="UTF-8"?>
<svg width="105px" height="105px" viewBox="0 0 105 105" version="1.1" xmlns="http://www.w3.org/2000/svg" xmlns:xlink="http://www.w3.org/1999/xlink">
    <!-- Generator: Sketch 52.2 (67145) - http://www.bohemiancoding.com/sketch -->
    <title>Group 5</title>
    <desc>Created with Sketch.</desc>
    <g id="Page-1" stroke="none" stroke-width="1" fill="none" fill-rule="evenodd">
        <g id="Desktop" transform="translate(-679.000000, -109.000000)">
            <g id="Group-5" transform="translate(679.000000, 109.000000)">
                <rect id="Rectangle" fill-opacity="0.7" fill="#05BCB0" fill-rule="nonzero" x="0" y="0" width="105" height="105"></rect>
                <path d="M53.5465748,17 C55.2779347,17.7183451 55.6897853,19.2825933 56.0420443,20.8776218 C56.5712682,23.2743239 56.4472117,25.6835046 56.2734492,28.1119576 C56.1286471,30.1356915 56.1922765,32.1753702 56.1896311,34.2079778 C56.1840617,38.643804 56.1949219,43.0797689 56.1997951,47.5157338 C56.1999343,47.7004155 56.2130222,47.8853745 56.209959,48.0700561 C56.1996558,48.7002199 56.3348509,49.1120101 57.1419834,49.0569661 C57.8023646,49.0120435 58.4762514,49.1608149 59.2590182,49.234438 C59.2590182,48.9165138 59.2590182,48.6516925 59.2588789,48.3868711 C59.2559551,41.1085833 59.2274123,33.8302954 59.2740553,26.5524235 C59.2821308,25.2790628 59.5108903,23.9839341 59.8233287,22.7452359 C59.987345,22.0953838 60.4685335,21.4623084 60.9573799,20.9702399 C61.8260533,20.095775 62.9134615,20.1081148 63.9145454,20.8483666 C65.2209668,21.8146178 65.6488292,23.2571313 65.7735817,24.7286227 C65.9428888,26.7255972 65.9115614,28.7414281 65.9207508,30.749356 C65.9511036,37.3802875 65.9536098,44.0114962 65.9815955,50.642705 C66.0009489,55.2400584 66.0441111,59.8374118 66.0783623,64.4347652 C66.0798939,64.6391351 66.0985511,64.8432278 66.111639,65.0912725 C66.7654762,64.99602 67.3846445,64.9336275 67.9868264,64.7967801 C68.1214645,64.7662771 68.2886831,64.4731712 68.285063,64.3044343 C68.2309015,61.7413522 68.155855,59.1789634 68.0749607,56.6165746 C68.0079897,54.4963403 67.7323088,52.3551699 68.331706,50.2808288 C68.5735534,49.4446312 69.0192376,48.605522 69.5754726,47.9351498 C70.4495762,46.8816878 71.7181262,46.8570081 72.7994082,47.7036044 C73.9799631,48.6278447 74.4168756,49.9537537 74.5555515,51.3462146 C74.7220739,53.019303 74.7390603,54.7079201 74.7968419,56.3907139 C74.8711922,58.5575346 74.9281385,60.7251871 74.9796546,62.8928396 C75.0020711,63.8320541 75.0076404,64.7725163 74.9878693,65.7115921 C74.9811862,66.0291004 74.9227084,66.3642172 74.8042213,66.6578777 C72.9215153,71.3197033 71.1170582,76.0203508 68.1387293,80.1464332 C66.5759804,82.3114514 64.8861119,84.3537644 62.7426229,85.9878922 C60.865347,87.4188978 58.7771334,88.1034123 56.3976449,87.9873624 C52.8772827,87.8155751 49.3545536,87.6916221 45.8316852,87.5797317 C43.5711015,87.5077724 41.6004004,86.6722681 39.7751976,85.4215073 C37.2825127,83.7134792 35.1951346,81.6097443 33.5093038,79.100597 C32.4174402,77.4752042 32.008235,75.6778856 31.8251438,73.7591096 C31.4262418,69.580063 30.9493695,65.4076715 30.4648394,61.2370825 C30.1206559,58.2742728 29.974183,55.3086901 30.0037003,52.3250829 C30.0510395,47.519616 30.016092,42.7133172 30.0187375,37.9074344 C30.0194336,36.4868275 30.4014884,35.1764473 31.1912169,33.9887723 C32.3146864,32.2991846 33.8671321,32.1927015 35.1904006,33.7407276 C36.1533347,34.867258 36.6822801,36.1909486 36.693558,37.6703431 C36.7187591,40.9731223 36.6991273,44.2761789 36.697735,47.5792355 C36.6975957,48.0385826 36.697735,48.4979297 36.697735,49.0139846 L39.7424779,49.0139846 C39.7424779,48.7244836 39.7435917,48.4537004 39.7423386,48.1831944 C39.7143528,41.8068242 39.6697983,35.4304539 39.6696591,29.0542223 C39.6696591,27.4885876 39.7509711,25.9164364 39.9158227,24.3599526 C40.0235889,23.3425397 40.4916896,22.4171902 41.2441036,21.6762452 C42.3720286,20.5655208 43.8446939,20.5829907 44.922495,21.7430744 C45.8275082,22.71709 46.2427005,23.9313858 46.3006213,25.2151452 C46.4057421,27.5444636 46.4362341,29.8786346 46.4338671,32.2107259 C46.4282978,37.5476379 46.384161,42.8842726 46.3558967,48.2211845 C46.3545044,48.4706157 46.3557575,48.7199082 46.3557575,49.0199466 L49.6036411,49.0199466 L49.6036411,48.330302 C49.6044765,40.1510671 49.5915278,31.9716935 49.6204882,23.7924586 C49.6249437,22.5337948 49.7056987,21.2515605 49.9621655,20.0239543 C50.2488459,18.6517363 51.021031,17.5308905 52.4327124,17 L53.5465748,17 Z" id="Fill-1" fill="#FFFFFF"></path>
            </g>
        </g>
    </g>
</svg>