<?xml version="1.0" encoding="UTF-8"?>
<svg width="50px" height="52px" viewBox="0 0 50 52" version="1.1" xmlns="http://www.w3.org/2000/svg" xmlns:xlink="http://www.w3.org/1999/xlink">
    <!-- Generator: Sketch 52.2 (67145) - http://www.bohemiancoding.com/sketch -->
    <title>Group 13</title>
    <desc>Created with Sketch.</desc>
    <g id="Page-1" stroke="none" stroke-width="1" fill="none" fill-rule="evenodd">
        <g id="Lesson-2" transform="translate(-469.000000, -5976.000000)">
            <g id="Group-13" transform="translate(469.000000, 5976.000000)">
                <polygon id="Rectangle-12" fill-opacity="0.7" fill="#05BCB0" fill-rule="nonzero" points="0 0 50 0 50 52 0 52"></polygon>
                <path d="M34.0162844,16.6871719 C33.4498311,17.8364659 32.9247556,18.9019907 32.3741778,20.0191956 C32.9809956,20.2399344 33.4424,20.4079796 33.9308267,20.5856515 C33.7702133,21.0924893 33.6280089,21.5407224 33.4827644,21.9990889 C32.9536356,21.8676927 32.4773689,21.7496389 31.8801778,21.6013538 C31.6717689,22.8450571 31.4802489,23.9881022 31.2769067,25.201912 C31.90568,25.2360277 32.3672533,25.2608545 32.8180178,25.2851746 L32.8180178,26.7423544 C32.31152,26.7649856 31.8700444,26.7847457 31.3024089,26.8099103 C31.4696089,28.0343602 31.6266756,29.1826408 31.7928622,30.3991529 C32.3667467,30.2468144 32.8198756,30.126565 33.3295822,29.9911155 C33.4753333,30.4692421 33.6183822,30.9379108 33.7739289,31.4489709 C33.2444622,31.6332295 32.7862667,31.7926613 32.2191378,31.9897555 C32.8183556,33.152054 33.3611644,34.2047431 33.9218756,35.2925613 C34.4672178,34.9480264 34.8872444,34.682363 35.3353067,34.3994729 C35.6415022,34.8181503 35.9127378,35.189032 36.18752,35.5649803 C35.6898044,35.9277552 35.2944356,36.2157121 34.8570133,36.5345757 C35.2508622,36.947342 35.5746222,37.2864724 35.89872,37.6262783 C42.3872622,31.2175921 41.6220267,19.6429095 35.8088711,14.3559882 C35.5437156,14.7121765 35.2824444,15.0627914 34.9924622,15.4522509 C35.47312,15.8079325 35.8882489,16.1154805 36.3408711,16.4507264 C36.0373778,16.8619727 35.7732356,17.2200188 35.4780178,17.6202872 C35.03384,17.3367215 34.61128,17.0670047 34.0162844,16.6871719 M10.1146222,14.3068414 C3.50160889,21.1965253 4.53740444,32.3310815 10.1657956,37.6509362 C10.4868533,37.2775212 10.8055467,36.9069774 11.144,36.5132956 C10.6673956,36.1707874 10.2662844,35.882155 9.81585778,35.5585625 C10.1228978,35.1495118 10.3888978,34.7951813 10.6748267,34.4141663 C11.15008,34.7002653 11.5952711,34.9682932 12.1613867,35.3091125 C12.7195644,34.1702896 13.2416,33.1057782 13.7906578,31.9860399 C13.1740444,31.7708745 12.71264,31.6099227 12.22776,31.4406953 C12.3971556,30.9036262 12.5383467,30.4558998 12.6832533,29.99652 C13.2110311,30.1331517 13.6872978,30.2564411 14.2775644,30.4092863 C14.4878311,29.1711563 14.6818844,28.028449 14.8870844,26.8198748 C14.2677689,26.782719 13.8056889,26.7550211 13.3420889,26.7273232 L13.3420889,25.2245432 L14.8325333,25.2245432 C14.6236178,23.9735777 14.4290578,22.8092525 14.2263911,21.5951049 C13.6349422,21.7526789 13.1801244,21.8736039 12.6800444,22.0068578 C12.5344622,21.5383579 12.3942844,21.0877604 12.2385689,20.5866648 C12.7256444,20.4076418 13.18536,20.2385833 13.7698844,20.0235868 C13.2027556,18.9016529 12.6648444,17.8374793 12.1063289,16.7327721 C11.5696,17.0616003 11.1266044,17.3331748 10.6641867,17.6164027 C10.3660978,17.1916453 10.1002667,16.8124881 9.82835556,16.4250552 C10.3108711,16.0781559 10.7099556,15.7913813 11.1573422,15.4698154 C10.7829156,15.0521513 10.4703022,14.7033942 10.1146222,14.3068414 M32.82072,15.7981369 C32.4525422,15.5453091 32.0863911,15.2938324 31.6977778,15.0269868 C32.0049867,14.628745 32.2915911,14.2571878 32.5846133,13.877355 C32.9755911,14.1411606 33.2991822,14.3595349 33.6737778,14.6121938 C34.0703289,14.090156 34.4518489,13.5878782 34.82864,13.0920182 C26.7525422,6.01182672 16.0061422,8.06586251 11.2086844,13.1592363 C11.5807467,13.6346606 11.9560178,14.1144761 12.3361867,14.6002027 C12.7362844,14.3446726 13.0792978,14.1254539 13.4481511,13.8900217 C13.7567111,14.298228 14.0249067,14.6528962 14.3096533,15.029689 C13.9004356,15.3146058 13.5192533,15.5799315 13.1885689,15.810128 C13.8235911,17.1148005 14.4207822,18.3417837 15.0287822,19.5908915 C15.4587733,19.4566243 15.8698489,19.3282681 16.3101422,19.190792 C16.4575822,19.6989809 16.5883022,20.1494096 16.7306756,20.6402028 C16.2662311,20.8268259 15.8641067,20.9887911 15.4673867,21.1482229 C15.6803556,22.5273757 15.8845422,23.8502882 16.0954844,25.2169432 C16.54912,25.2373788 17.0115378,25.2583211 17.4531822,25.2782501 L17.4531822,26.798088 L16.0995378,26.798088 C15.8796444,28.1872053 15.6703911,29.5092734 15.4557333,30.8646127 C15.8872444,31.0362046 16.2930844,31.1976631 16.7472267,31.378375 C16.5812089,31.9059862 16.4361333,32.3677305 16.2954489,32.8149503 C15.7783111,32.6673407 15.3614933,32.5482735 15.0124,32.4486287 C14.3783911,33.7583678 13.7943733,34.9647465 13.1909333,36.2114898 C13.5390133,36.4536776 13.9144533,36.7146121 14.3042489,36.9858488 C13.9884267,37.3947306 13.7166844,37.7465278 13.4268711,38.1218005 C13.0529511,37.8758972 12.7286844,37.6630963 12.3453067,37.4112818 C11.9501067,37.9245374 11.5657156,38.4237752 11.1847022,38.9182841 C18.6524622,45.5005889 28.9764711,44.5480513 34.6459022,38.7360522 C34.2593156,38.304708 33.8715467,37.8713372 33.4780356,37.4322241 C33.1191467,37.668163 32.79488,37.8813017 32.4278844,38.122645 C32.1259111,37.7255854 31.8457244,37.3570683 31.55152,36.9701421 C31.9747556,36.6843808 32.3412444,36.4367886 32.6658489,36.217401 C32.0445067,34.9294486 31.4522133,33.7021276 30.84472,32.4430553 C30.4111822,32.5687092 29.99352,32.6896342 29.5478222,32.8186659 C29.4008889,32.3194281 29.2683111,31.8693372 29.1218844,31.3716194 C29.5746756,31.191752 29.9810222,31.0304624 30.3956444,30.8659638 C30.1754133,29.480731 29.9619378,28.1367073 29.7395111,26.7366122 L28.3774222,26.7366122 L28.3774222,25.2025876 L29.7562311,25.2025876 C29.9776444,23.781719 30.1838578,22.4588065 30.3895644,21.1384273 C29.9404889,20.959742 29.5380267,20.7998036 29.1154667,20.6317584 C29.2801333,20.0980671 29.4187911,19.6484829 29.5569422,19.2004187 C30.0875911,19.3397526 30.5660533,19.4652376 30.9933422,19.5775492 C31.6143467,18.2931435 32.1992089,17.0837248 32.82072,15.7981369 M21.5644444,7 L24.4355556,7 C24.8738222,7.06130694 25.3122578,7.1205872 25.7501867,7.18442749 C33.5329244,8.31936586 39.8495378,14.2146276 41.53944,21.9306886 C41.7181244,22.7467633 41.8476622,23.573647 42,24.3956329 L42,27.604536 C41.9540622,27.7624478 41.8826222,27.9178263 41.8660711,28.078947 C41.0635111,35.8595238 35.3927289,42.4392953 27.8010044,44.3609216 C26.7489956,44.6270917 25.67064,44.7895635 24.6044444,45 L21.3955556,45 C21.2677067,44.9547376 21.1430667,44.8848173 21.0115022,44.8675905 C13.26744,43.8429371 7.97581333,39.6534607 5.16313778,32.4065751 C4.55344889,30.8357326 4.37628444,29.0970138 4,27.4356464 L4,24.5645225 C4.04610667,24.3760417 4.11028444,24.1900942 4.13578667,23.9989111 C5.15384889,16.3737128 9.25126222,11.0965871 16.36216,8.24353442 C17.9990311,7.58672261 19.8253956,7.40178845 21.5644444,7" id="baseball" fill="#FFFFFF"></path>
            </g>
        </g>
    </g>
</svg>