<?xml version="1.0" encoding="UTF-8"?>
<svg width="51px" height="84px" viewBox="0 0 51 84" version="1.1" xmlns="http://www.w3.org/2000/svg" xmlns:xlink="http://www.w3.org/1999/xlink">
    <!-- Generator: Sketch 51 (57462) - http://www.bohemiancoding.com/sketch -->
    <title>water bottle</title>
    <desc>Created with Sketch.</desc>
    <defs></defs>
    <g id="Page-1" stroke="none" stroke-width="1" fill="none" fill-rule="evenodd">
        <g id="Lesson-2" transform="translate(-581.000000, -7729.000000)" fill="#05BCB0">
            <path d="M623.273172,7794.68392 C623.273625,7799.19945 623.239629,7803.71543 623.297196,7808.23004 C623.312154,7809.38204 623.042906,7810.06431 621.866193,7810.38268 C613.677704,7812.59604 605.529103,7812.89462 597.365091,7810.19497 C595.946781,7809.72617 595.550614,7809.04159 595.56104,7807.59239 C595.623139,7798.8682 595.580984,7790.14264 595.597302,7781.41799 C595.603648,7777.8525 596.7858,7776.66921 600.232989,7776.66875 C606.567113,7776.66829 612.901237,7776.66783 619.235361,7776.66921 C622.292729,7776.66967 623.220592,7777.53137 623.258214,7780.67821 C623.313967,7785.34647 623.272719,7790.01566 623.273172,7794.68392 Z M595.297775,7753.08479 C595.734283,7751.24867 596.041153,7749.65869 596.510297,7748.11932 C596.726511,7747.41036 597.252315,7746.79572 597.653467,7746.14795 C602.887483,7737.70118 604.479399,7736.89101 614.273404,7737.8852 C614.912074,7737.95007 615.656812,7738.4405 616.077455,7738.96129 C617.940886,7741.26989 619.655188,7743.70225 621.517712,7746.01177 C623.183967,7748.07883 623.471799,7750.39663 623.09875,7753.08479 L595.297775,7753.08479 Z M602.925603,7736.48205 C603.12414,7733.65818 603.314064,7730.95853 603.5126,7728.13144 L615.511354,7728.13144 C615.631473,7730.8449 615.752499,7733.57491 615.881684,7736.48205 L602.925603,7736.48205 Z M609.540897,7758.484 C605.697542,7758.48446 601.854641,7758.46514 598.011739,7758.49458 C596.678192,7758.5047 595.543634,7758.37128 595.595761,7756.60832 C595.643355,7754.99258 596.72488,7754.87342 597.955533,7754.87572 C605.641335,7754.88906 613.327591,7754.8886 621.013394,7754.87664 C622.255379,7754.8748 623.268005,7755.0073 623.282056,7756.66537 C623.295655,7758.30182 622.352834,7758.5047 621.0696,7758.49458 C617.227152,7758.46468 613.383798,7758.484 609.540897,7758.484 Z M609.451465,7763.99648 C605.60811,7763.99648 601.765209,7763.98084 597.922761,7764.00568 C596.676696,7764.01351 595.621462,7763.86905 595.594719,7762.25284 C595.568428,7760.68218 596.518048,7760.37992 597.819413,7760.38314 C605.58046,7760.40201 613.34196,7760.40247 621.103007,7760.38268 C622.410264,7760.379 623.303678,7760.65872 623.281467,7762.2625 C623.257443,7763.94542 622.200396,7764.00798 620.980168,7764.00292 C617.137267,7763.9859 613.294366,7763.99648 609.451465,7763.99648 Z M609.647145,7765.90211 C613.414802,7765.90211 617.182912,7765.90947 620.950569,7765.89797 C622.152666,7765.89429 623.23691,7765.92052 623.280878,7767.61263 C623.327565,7769.40872 622.241508,7769.52097 620.907054,7769.51775 C613.296496,7769.49797 605.685938,7769.50119 598.074927,7769.51545 C596.777188,7769.51775 595.581437,7769.46715 595.595942,7767.68486 C595.610901,7765.88969 596.842914,7765.89199 598.117988,7765.89659 C601.960889,7765.91131 605.804244,7765.90211 609.647145,7765.90211 Z M609.595335,7771.40894 C613.438237,7771.40894 617.281591,7771.43194 621.124039,7771.39697 C622.448974,7771.38455 623.317457,7771.69372 623.280742,7773.28922 C623.246746,7774.77844 622.379623,7775.02136 621.185232,7775.01952 C613.424185,7775.00709 605.662685,7775.00571 597.901638,7775.02228 C596.645148,7775.02458 595.612124,7774.83963 595.594447,7773.23631 C595.576769,7771.65093 596.549506,7771.38869 597.840445,7771.39835 C601.758591,7771.42734 605.676736,7771.40894 609.595335,7771.40894 Z" id="water-bottle" transform="translate(609.297775, 7770.131440) rotate(23.000000) translate(-609.297775, -7770.131440) "></path>
        </g>
    </g>
</svg>