<?xml version="1.0" encoding="UTF-8"?>
<svg width="150px" height="150px" viewBox="0 0 150 150" version="1.1" xmlns="http://www.w3.org/2000/svg" xmlns:xlink="http://www.w3.org/1999/xlink">
    <!-- Generator: Sketch 51.1 (57501) - http://www.bohemiancoding.com/sketch -->
    <title>Group 3</title>
    <desc>Created with Sketch.</desc>
    <defs></defs>
    <g id="Page-1" stroke="none" stroke-width="1" fill="none" fill-rule="evenodd">
        <g id="Lesson-4" transform="translate(-589.000000, -9989.000000)">
            <g id="Group-3" transform="translate(589.000000, 9989.000000)">
                <circle id="Oval-2" fill="#F6AC31" fill-rule="nonzero" cx="75" cy="75" r="75"></circle>
                <path d="M25.0730738,87 C25.0730738,83.6089694 24.8812249,80.3890931 25.1192375,77.2024799 C25.460369,72.644214 28.1360626,69.4436907 31.7668045,66.9828198 C36.1775323,63.9939714 41.1590108,62.2134838 46.3587176,62.1167182 C57.1106535,61.9171391 67.8985612,61.9074625 78.6187221,62.6253425 C82.5798039,62.8908432 86.6254192,65.0033579 90.214194,67.0275739 C94.863534,69.6493177 97.2346675,74.0013519 96.9816666,79.5919862 C96.873152,81.9899595 96.9636808,84.3963998 96.9636808,87 L25.0730738,87 Z M111.61,44.5167514 C113.8702,44.6422108 115.6306,44.7397243 117.7108,44.8550757 C114.9772,66.2420486 112.2706,87.4238865 109.5394,108.794211 L102.0682,108.794211 C102.16,97.9773459 102.3868,87.2235081 102.2842,76.4732378 C102.2356,71.3549676 99.5764,67.2231297 95.8024,63.8583189 C90.7096,59.3179946 84.6856,56.9687514 77.8414,56.6809676 C76.9624,56.6441027 76.0846,56.5834541 75.007,56.5228054 C74.5222,52.6317784 74.0512,48.8572919 73.543,44.778373 L94.7548,44.778373 C98.2534,44.7777784 101.7562,44.6778865 105.2488,44.8205892 C106.9858,44.8907514 107.6668,44.2759405 108.1108,42.6592378 C110.0212,35.7030757 112.0684,28.784373 114.1654,21.5065351 C115.3936,21.8056162 116.4976,22.074373 117.925,22.4222108 C115.8334,29.7398865 113.7832,36.9124811 111.61,44.5167514 Z M25.088922,104 L96.7163758,104 C98.1299013,111.012297 94.1536084,115.980903 87.1588245,115.988161 C69.9280212,116.00691 52.6978198,115.999652 35.4670165,115.991789 C28.1194532,115.988765 24.3616909,111.738687 25.088922,104 Z M60.7059169,90.0019994 C71.9550074,90.0019994 83.2035005,89.9957162 94.452591,90.0054265 C97.8522285,90.0088537 99.9239106,91.4813917 99.9979846,93.8889743 C100.075045,96.4102244 97.9376525,97.9941453 94.3803091,97.9947165 C71.7829646,98.0015708 49.1856201,98.002142 26.588873,97.9941453 C23.2334409,97.9930029 21.0829058,96.4696286 21.0022608,94.106028 C20.9186289,91.6538923 23.1617564,90.0082825 26.6611548,90.0054265 C38.0094089,89.9957162 49.3576629,90.0019994 60.7059169,90.0019994 Z" id="Combined-Shape" fill="#FFFFFF"></path>
            </g>
        </g>
    </g>
</svg>