<?xml version="1.0" encoding="UTF-8"?>
<svg width="65px" height="58px" viewBox="0 0 65 58" version="1.1" xmlns="http://www.w3.org/2000/svg" xmlns:xlink="http://www.w3.org/1999/xlink">
    <!-- Generator: Sketch 52.2 (67145) - http://www.bohemiancoding.com/sketch -->
    <title>Group 6</title>
    <desc>Created with Sketch.</desc>
    <g id="Page-1" stroke="none" stroke-width="1" fill="none" fill-rule="evenodd">
        <g id="Lesson-2" transform="translate(-540.000000, -4661.000000)">
            <g id="Group-6" transform="translate(540.000000, 4661.000000)">
                <rect id="Rectangle-12" fill-opacity="0.7" fill="#05BCB0" fill-rule="nonzero" x="0" y="0" width="65" height="58"></rect>
                <g id="calculator" transform="translate(15.000000, 6.000000)" fill="#FFFFFF">
                    <path d="M1.54832232,23.3493378 C1.54832232,29.594058 1.54798037,35.8387782 1.5485503,42.0834984 C1.54866428,44.0458805 2.63449443,45.1408296 4.58205836,45.1409436 C13.2577569,45.1417415 21.9335695,45.1416275 30.609268,45.1410575 C32.5640131,45.1408296 33.6554285,44.049984 33.6555425,42.0962649 C33.6561125,29.5916643 33.6561125,17.0870637 33.6555425,4.58246313 C33.6554285,2.6341013 32.5608215,1.54770122 30.5992373,1.54758723 C21.9386988,1.54713129 13.2781604,1.54713129 4.61762198,1.54758723 C2.63061891,1.54770122 1.54866428,2.62908592 1.54843631,4.6151771 C1.54798037,10.8598973 1.54832232,17.1046175 1.54832232,23.3493378 Z M31.3716061,0 C32.0552938,0.270374671 32.8069171,0.437250101 33.408421,0.832781345 C34.6337699,1.63866201 35.1729235,2.87575151 35.2003941,4.33249194 C35.2122486,4.95519718 35.2029018,5.57835837 35.2029018,6.20140556 C35.2029018,18.1748316 35.2006221,30.1481437 35.2056374,42.1215697 C35.2063214,43.6248164 34.7123063,44.8823094 33.4986979,45.8158544 C32.7227955,46.4125708 31.8322233,46.6843133 30.8669903,46.6849972 C22.0236184,46.6906965 13.1803605,46.6993595 4.33710256,46.6813497 C1.79544386,46.6762203 0.00518054508,44.7994417 0.00301481204,42.2127585 C-0.00245651352,35.5878951 0.00119103686,28.9630318 0.00119103686,22.3380544 C0.00119103686,16.3969928 0.000621107111,10.4558171 0.0015329947,4.51475547 C0.00187495255,2.6640796 0.771280109,1.25977271 2.45325678,0.430866888 C2.88013415,0.220448826 3.37107164,0.140088732 3.83260075,0 L31.3716061,0 Z" id="Fill-1"></path>
                    <path d="M5.55888758,14.1858002 L29.4021265,14.1858002 L29.4021265,5.58692816 L5.55888758,5.58692816 L5.55888758,14.1858002 Z M17.4764605,15.7711168 C13.3741062,15.7711168 9.2717519,15.7713447 5.16939759,15.7708888 C4.20758415,15.7708888 4.0003577,15.5608127 4.00024371,14.5885126 C4.00001574,11.4434122 3.99978777,8.29819795 4.0003577,5.15309764 C4.00058567,4.23505481 4.23858833,4.00035774 5.16939759,4.00024375 C13.3892663,3.99990179 21.6091351,3.99990179 29.8291178,4.00035774 C30.7269852,4.00047172 30.9750186,4.2448576 30.9752466,5.13030045 C30.9760445,8.30583501 30.9760445,11.4813696 30.9752466,14.6569041 C30.9750186,15.5349379 30.7431712,15.7704329 29.8747122,15.7706608 C25.7419237,15.7715727 21.6092491,15.7711168 17.4764605,15.7711168 Z" id="Fill-4"></path>
                    <path d="M27.5472035,33.9851164 C27.5472035,35.3961484 27.5410482,36.8072945 27.5495972,38.2183266 C27.5543846,39.0202177 27.9441025,39.4146091 28.7416622,39.455644 C28.9080817,39.464193 29.0752991,39.4586077 29.2421745,39.4579238 C30.2858299,39.4530224 30.6612996,39.0758429 30.6616415,38.027856 C30.6624394,35.4787883 30.6619835,32.9297205 30.6619835,30.3807667 C30.6619835,28.7606844 30.4277424,28.5276971 28.8232762,28.5516342 C27.9516256,28.5645146 27.5519909,28.9626675 27.5485713,29.842981 C27.5431,31.2235788 27.5470895,32.6044046 27.5472035,33.9851164 Z M26.001554,33.9904737 C26.001554,32.6074822 25.9974505,31.2244907 26.0025799,29.8414992 C26.009305,28.0829239 27.0873841,27.011798 28.8509747,27.003249 C29.1092669,27.0019952 29.368357,26.9940162 29.6258512,27.0089483 C31.1078965,27.0942098 32.1826701,28.1370673 32.19897,29.6168329 C32.2310001,32.5344172 32.2280365,35.4527995 32.2004519,38.3704978 C32.1865456,39.8280361 31.1903084,40.8577852 29.7345938,40.9672117 C29.1636382,41.0102984 28.5701134,41.0172515 28.0115822,40.9106747 C26.8718367,40.6929615 26.0413351,39.6780306 26.017512,38.5038614 C25.9869638,36.9999307 26.0101029,35.4949743 26.0101029,33.9904737 L26.001554,33.9904737 Z" id="Fill-6"></path>
                    <path d="M7.16011639,20.5537976 C6.84152567,20.6104486 6.48908111,20.607257 6.19784701,20.7390247 C5.64341935,20.9901358 5.60455015,21.5218802 5.60831168,22.059096 C5.61241518,22.6422481 5.5400341,23.3547743 6.19944281,23.5407994 C6.80584806,23.7118923 7.54755463,23.7326377 8.14016758,23.5415973 C8.91504407,23.2917401 8.70599384,22.473207 8.72594138,21.8361395 C8.74144347,21.3428083 8.59200789,20.9120554 8.11155711,20.7193052 C7.82579434,20.6047493 7.49306935,20.607371 7.16011639,20.5537976 M10.3714425,22.1441295 C10.3495572,23.37324 9.97374556,24.3560269 8.86238256,24.9537692 C7.56111896,25.6535289 5.46115582,25.2936753 4.62746259,24.2430668 C3.50173736,22.8241697 3.95198185,20.1115321 5.48896839,19.3594528 C6.71568518,18.7593168 9.25517814,18.7710573 9.97283367,20.4884836 C10.188951,21.0055239 10.2430944,21.5903858 10.3714425,22.1441295" id="Fill-7"></path>
                    <path d="M29.1847271,20.5103176 C28.8494945,20.5604714 28.5165415,20.5540882 28.2292969,20.6656804 C27.725479,20.8613943 27.5833385,21.3076493 27.5972448,21.8171665 C27.6147987,22.4575395 27.4261519,23.2666118 28.2067277,23.5108837 C28.7899938,23.6933752 29.5212137,23.6834584 30.1080133,23.5032466 C30.8362696,23.2797202 30.7057557,22.5132787 30.7141906,21.894335 C30.7212577,21.3787765 30.6203802,20.8994656 30.102998,20.6794727 C29.8205408,20.5594455 29.486334,20.5617252 29.1847271,20.5103176 M29.1568006,19.0125422 C30.3765642,18.9255709 31.3559315,19.3120973 31.9528759,20.4195847 C32.7730048,21.9411832 32.2222247,24.1634532 30.8581549,24.8986626 C29.3144432,25.7305321 27.0721116,25.1814618 26.346819,23.7939108 C25.6760117,22.510429 26.0191094,20.3998652 27.0246934,19.5849796 C27.6557196,19.0736387 28.3886493,18.957259 29.1568006,19.0125422" id="Fill-8"></path>
                    <path d="M8.74194492,30.2096895 C8.73259807,30.2088916 8.72336521,30.2080937 8.71401836,30.2072958 C8.71401836,30.0404204 8.72370717,29.8726331 8.71230857,29.7064415 C8.67286943,29.1316104 8.36909688,28.7478197 7.80691818,28.6789722 C7.37548136,28.6260827 6.92785854,28.6377093 6.49459794,28.6855834 C6.02508982,28.737447 5.70524525,29.0434993 5.65623129,29.5139193 C5.60790125,29.9763603 5.5993523,30.4555572 5.66557814,30.9141227 C5.74593823,31.4702601 6.15115828,31.7503236 6.79232924,31.747246 C7.49972604,31.7439404 8.31495355,31.9450116 8.64984427,31.0185338 C8.73955121,30.7702724 8.71436032,30.4804061 8.74194492,30.2096895 M7.16985071,33.288336 C5.90073115,33.3759912 4.93128065,32.9704292 4.34721665,31.8570144 C3.66580864,30.5581445 4.02987977,28.4931751 5.06783582,27.6605077 C6.74046564,26.3185512 9.73533246,27.1320689 10.1597022,29.1036838 C10.3203084,29.8500638 10.274714,30.6871766 10.1236826,31.4430175 C9.90802118,32.5210966 8.90289308,33.2322549 7.79711538,33.2867402 C7.56994139,33.2979108 7.34162753,33.288336 7.16985071,33.288336" id="Fill-9"></path>
                    <path d="M21.0872893,23.7715791 C21.4299311,23.7082029 21.7783861,23.7038714 22.0730398,23.5757512 C22.5897381,23.3510849 22.6757975,22.8607173 22.6723779,22.3506302 C22.6685024,21.7450229 22.7815765,20.989524 22.0832985,20.7761423 C21.4831625,20.5927389 20.7596937,20.6232871 20.1363045,20.7628059 C19.5800531,20.8872786 19.5348007,21.4919741 19.5432357,22.0157395 C19.5528105,22.6053888 19.4584301,23.2514612 20.1231962,23.5672023 C20.4113526,23.7040994 20.7632273,23.707405 21.0872893,23.7715791 M18.0111505,22.149217 C17.9283967,20.9516807 18.2977112,19.9637644 19.4059966,19.3619186 C20.7096539,18.6540659 22.8432429,19.0296496 23.6723767,20.0961021 C24.2930302,20.8942317 24.2716008,21.8308543 24.1924945,22.7551664 C24.059017,24.315634 23.0088644,25.2748258 21.4420136,25.2545363 C20.7999307,25.2463293 20.1066682,25.2285475 19.5296713,24.9900889 C18.3066021,24.4846752 17.9277128,23.4167408 18.0111505,22.149217" id="Fill-10"></path>
                    <path d="M14.1123898,23.7206468 C14.4565134,23.6503175 14.8220663,23.6429084 15.1236731,23.500084 C15.7459224,23.2055443 15.6835721,22.5954915 15.6888155,22.031603 C15.6938309,21.5002005 15.6835721,20.9377938 15.1183158,20.701387 C14.4739532,20.4318102 13.7607431,20.4180179 13.1262974,20.7078842 C12.4707642,21.0074393 12.5626368,21.6775627 12.5595592,22.2688078 C12.5570515,22.7742215 12.6198578,23.272568 13.1359862,23.5064672 C13.4282461,23.6390329 13.7751054,23.6511154 14.1123898,23.7206468 M17.2069943,22.0997666 C17.3003488,23.2999247 16.9452826,24.2919444 15.8338056,24.8968678 C14.541091,25.6005031 12.431895,25.25239 11.5918185,24.2113563 C10.9434664,23.4078694 10.9593105,22.4574545 11.0384167,21.5170704 C11.1701845,19.9498776 12.2112182,19.0180425 13.7812606,19.005618 C14.2060862,19.0021984 14.637751,18.9823649 15.0548256,19.0457411 C16.2386837,19.2257249 17.1159196,20.2109054 17.2046006,21.4172187 C17.2212426,21.6434809 17.2069943,21.8722507 17.2069943,22.0997666" id="Fill-11"></path>
                    <path d="M8.73618585,37.1815545 C8.726839,35.8755035 8.43195735,35.5833575 7.10926439,35.587575 C6.92802674,35.588145 6.74439537,35.5943002 6.56600736,35.6233666 C6.02833564,35.7111358 5.70313373,36.0027119 5.64454495,36.5349123 C5.59860861,36.9535826 5.60066036,37.3866153 5.65229599,37.8043738 C5.71555819,38.3153728 6.03620067,38.6225649 6.55552065,38.6728327 C6.98900922,38.7147795 7.43435232,38.7078264 7.86738494,38.6597243 C8.34418817,38.6068349 8.61023137,38.2752497 8.6976586,37.8167982 C8.73698375,37.6101417 8.72490124,37.3935684 8.73618585,37.1815545 M10.2648514,37.1438252 C10.3520507,38.3748734 9.97418724,39.3716806 8.83546761,39.9656614 C7.56167463,40.6300854 5.47801148,40.28505 4.66608956,39.2923463 C3.48337135,37.8459786 3.94364661,35.1429158 5.50992754,34.3369212 C6.79910863,33.673523 8.89189065,34.0309829 9.70905592,35.0483075 C10.2072885,35.668619 10.3163731,36.3883263 10.2648514,37.1438252" id="Fill-12"></path>
                    <path d="M14.1639157,31.7045928 L14.1639157,31.7229446 C14.3006989,31.7229446 14.437596,31.7281879 14.5740372,31.7220327 C15.1908152,31.694904 15.5789373,31.3842923 15.6783331,30.8427451 C15.8762127,29.7632981 15.6592974,28.9697279 15.0903935,28.7197568 C14.9806251,28.6715407 14.8574063,28.6316456 14.7393168,28.628568 C14.3453814,28.6186512 13.9470005,28.5924344 13.5576245,28.636889 C13.017901,28.6986694 12.6958907,29.0041517 12.6379858,29.5456989 C12.5903397,29.9922959 12.6026502,30.4545089 12.660669,30.9004219 C12.7222215,31.3740336 13.0601898,31.6362013 13.5274182,31.6998054 C13.7358985,31.7281879 13.9515599,31.7045928 14.1639157,31.7045928 M14.1634598,33.2611849 C12.9373129,33.3524877 11.9413037,32.9745103 11.3457271,31.8364746 C10.6778835,30.5602879 11.0185875,28.4888212 12.0153946,27.6666406 C13.4497938,26.4834664 16.1688146,26.9438557 16.9717316,28.5059191 C17.6356998,29.7977219 17.2830273,31.8820689 16.2638789,32.7069853 C15.6455051,33.2076115 14.924658,33.3154423 14.1634598,33.2611849" id="Fill-13"></path>
                    <path d="M21.1045097,31.7589449 C21.4192249,31.7084492 21.7542296,31.7141485 22.0378266,31.596287 C22.5557788,31.3809675 22.6699927,30.9022265 22.6640654,30.3870101 C22.6571123,29.7695482 22.7754297,29.0670528 22.0680329,28.7516536 C21.4445298,28.4736419 20.7432882,28.4742118 20.1195571,28.7533634 C19.406689,29.0724101 19.5507672,29.7794649 19.5369749,30.3931653 C19.5252343,30.9112314 19.6393343,31.3879207 20.1627578,31.5998206 C20.4478366,31.7150604 20.7821574,31.7087911 21.1045097,31.7589449 M18.0130967,30.1635976 C17.922022,28.9420102 18.2964658,27.9430373 19.4346155,27.3472328 C20.7346253,26.6667366 22.8065479,27.0295539 23.6354537,28.0597589 C24.2718372,28.8508214 24.2591848,29.7848223 24.1914771,30.7103882 C24.0748695,32.3025439 23.0366855,33.2465756 21.4384885,33.2574042 C20.9692083,33.2605958 20.4863639,33.2844189 20.0329278,33.1884427 C18.8638879,32.9410932 18.10041,32.0048126 18.0151485,30.801007 C18.0002163,30.5894491 18.0130967,30.3760674 18.0130967,30.1635976" id="Fill-14"></path>
                    <path d="M15.7035992,37.1176764 C15.680346,36.8719227 15.6814859,36.5956207 15.6232391,36.3323132 C15.5129007,35.8331687 15.0661897,35.5502556 14.3946985,35.5477479 C13.7064513,35.5450122 12.8363966,35.4078871 12.6590345,36.2962936 C12.3095535,38.0473458 12.6195953,38.8063782 14.4189775,38.6758643 C14.569325,38.6649216 14.7219522,38.6530671 14.8676262,38.6175035 C15.2880064,38.5150301 15.5531377,38.2454534 15.6360055,37.8215396 C15.6793201,37.6004069 15.680688,37.3714091 15.7035992,37.1176764 M17.22212,37.1576854 C17.2989465,38.3233058 16.9340775,39.3256982 15.7927362,39.9216167 C14.4784782,40.6076982 12.3777171,40.2320005 11.5631735,39.1861794 C10.9518669,38.4012721 10.9656592,37.4832293 11.0296053,36.5728235 C11.1365241,35.0492873 12.0692712,34.1372858 13.5942892,34.0157767 C13.9264442,33.989446 14.2623608,34.0028963 14.5963396,34.0079117 C15.9772794,34.0283152 17.3650583,35.0388006 17.22212,37.1576854" id="Fill-15"></path>
                    <path d="M19.5796931,37.1254144 C19.6032882,37.3727639 19.6012365,37.6494078 19.6607372,37.9121454 C19.7744951,38.4150514 20.2335165,38.6788149 20.9446749,38.6878198 C22.0290232,38.7017261 22.5476593,38.5090898 22.6419257,37.9293573 C22.9443304,36.0687647 22.6002068,35.4352307 20.8064099,35.5576517 C20.6562904,35.5679104 20.5017255,35.5817027 20.359357,35.6264992 C19.9877628,35.7432208 19.7312945,35.9912542 19.6518463,36.3778945 C19.6035162,36.6130476 19.6037442,36.8580034 19.5796931,37.1254144 M21.1568027,40.2442979 C19.9410286,40.2848769 18.9347606,39.9268471 18.3432876,38.7810603 C17.6613096,37.4600771 18.0389451,35.3734504 19.0916053,34.5543473 C19.8775384,33.9428127 20.7966071,33.9669777 21.706329,34.0320637 C23.2144771,34.1400084 24.1287584,35.0497303 24.2492415,36.5558266 C24.2901625,37.0664837 24.2683912,37.5915029 24.1998856,38.0997663 C24.0537556,39.1828608 23.0730205,40.0798162 21.974082,40.1878749 C21.7024535,40.2146616 21.4293431,40.2259462 21.1568027,40.2442979" id="Fill-16"></path>
                </g>
            </g>
        </g>
    </g>
</svg>