<?xml version="1.0" encoding="UTF-8"?>
<svg width="150px" height="150px" viewBox="0 0 150 150" version="1.1" xmlns="http://www.w3.org/2000/svg" xmlns:xlink="http://www.w3.org/1999/xlink">
    <!-- Generator: Sketch 51.1 (57501) - http://www.bohemiancoding.com/sketch -->
    <title>Group 2</title>
    <desc>Created with Sketch.</desc>
    <defs></defs>
    <g id="Page-1" stroke="none" stroke-width="1" fill="none" fill-rule="evenodd">
        <g id="Lesson-4" transform="translate(-91.000000, -9941.000000)">
            <g id="Group-2" transform="translate(91.000000, 9941.000000)">
                <circle id="Oval" fill="#F16C68" fill-rule="nonzero" cx="75" cy="75" r="75"></circle>
                <path d="M51.7293384,122.270266 C51.4606393,121.996866 51.2248422,121.675681 50.9169742,121.460252 C50.3239561,121.045061 49.7105703,120.647888 49.0658492,120.321218 C48.5754538,120.072887 48.020038,119.954597 47.4990909,119.763452 C47.0462977,119.597376 46.5559023,119.479869 46.1634294,119.218221 C45.5249754,118.792846 44.9006222,118.318118 44.3687077,117.768969 C43.7780398,117.158717 43.2735436,116.458376 42.778448,115.763518 C42.551268,115.444683 42.4149601,115.05221 42.2778687,114.678538 C42.0804572,114.14349 41.9653004,113.57319 41.7295033,113.057727 C41.4537538,112.454525 41.1584199,111.831738 40.7408788,111.325675 C40.1353267,110.593216 39.4600538,109.899925 38.7252442,109.29829 C38.1988134,108.866648 37.5603594,108.50551 36.9117214,108.296348 C34.9211549,107.654761 33.0864809,106.779726 31.7187009,105.144814 C31.0622292,104.359085 30.557733,103.485617 30.2349808,102.482891 C29.9177122,101.500534 29.4539517,100.559696 28.9823575,99.6368749 C28.7418601,99.1676308 28.3423367,98.7782913 28,98.3325486 C28.1222072,98.2377597 28.1793938,98.1617719 28.2522481,98.1421874 C28.9134201,97.9674939 29.5792924,97.8069012 30.2404644,97.6322076 C31.0818136,97.4097279 31.919246,97.1700139 32.7605952,96.949101 C33.5322237,96.7462058 34.3085524,96.5558446 35.0833144,96.3654835 C35.8596432,96.1751224 36.6391055,96.0004288 37.4138675,95.8038006 C38.3390383,95.5680035 39.2618589,95.3188889 40.1846796,95.0705577 C40.9829429,94.8559118 41.7921736,94.6718177 42.5747694,94.4093857 C43.4545042,94.1140518 43.7506215,94.2378257 44.2700019,94.9812525 C45.1826387,96.2910625 46.0811746,97.6259406 47.1356029,98.8182437 C48.4266118,100.279246 49.8288605,101.650943 51.2671447,102.970153 C52.1993659,103.82482 53.2749455,104.524378 54.2956885,105.279555 C54.7194967,105.592907 55.1762067,105.860822 55.6015816,106.171041 C55.7002874,106.243111 55.767658,106.399004 55.7888092,106.525911 C55.813094,106.677103 55.7942929,106.84553 55.7535572,106.994372 C55.534211,107.791852 55.294497,108.582282 55.0767176,109.380545 C54.8965404,110.040934 54.7382978,110.707589 54.5675211,111.371111 C54.4547145,111.812154 54.3262403,112.250846 54.2228343,112.694239 C54.030123,113.513653 53.8609131,114.338552 53.6635015,115.1564 C53.4919415,115.863791 53.2960967,116.564915 53.1088691,117.267606 C52.8746387,118.149691 52.6372748,119.03021 52.4022611,119.912295 C52.2267841,120.573467 52.0497405,121.235422 51.877397,121.896594 C51.8460619,122.018801 51.8358779,122.145709 51.8147267,122.270266 L51.7293384,122.270266 Z M75.6078321,43.2989086 C76.9560277,43.4414836 78.4115462,43.5738747 79.861581,43.7556187 C80.8533391,43.8809594 81.8482306,44.0305848 82.8227543,44.2530645 C83.8082453,44.4778943 84.7851191,44.7630443 85.7361414,45.1030309 C86.6025588,45.4124656 87.4329407,45.8253064 88.2742899,46.2028952 C88.9746309,46.518597 89.6804555,46.8280318 90.361212,47.1813358 C90.941696,47.4829368 91.4971118,47.8331073 92.0525276,48.1801442 C92.6447623,48.5506826 93.2518811,48.9055533 93.8025967,49.332495 C94.7152334,50.0406697 95.619253,50.7676456 96.468436,51.5502414 C97.2972512,52.3132527 98.0962979,53.1177831 98.8279741,53.9724498 C99.6622729,54.9461901 100.434685,55.9771171 101.182812,57.0197948 C101.755462,57.8149246 102.280326,58.6500068 102.766021,59.5023233 C103.15066,60.1783796 103.457745,60.9006552 103.77423,61.6135302 C104.153386,62.4697636 104.51844,63.3322641 104.865477,64.2025983 C105.033904,64.6256231 105.160028,65.0674489 105.280668,65.507708 C105.481213,66.237034 105.719361,66.9632265 105.840001,67.7074367 C106.111834,69.3893518 106.339014,71.0791007 106.554443,72.7688495 C106.773006,74.4899336 106.668816,76.2071007 106.400117,77.9164341 C106.199572,79.1878584 106.056997,80.4694668 105.817283,81.7338407 C105.682542,82.4435823 105.409142,83.1282557 105.184313,83.8199795 C105.003352,84.3738285 104.816908,84.9268942 104.606179,85.469776 C104.371165,86.0761115 104.116567,86.6753965 103.851785,87.2707647 C103.534516,87.9836397 103.223515,88.7012151 102.862377,89.3921555 C102.547458,89.9953574 102.201205,90.5891589 101.806382,91.1430079 C100.896095,92.419916 100.01401,93.725809 98.9956172,94.9134119 C98.0430281,96.0258103 96.9737156,97.0512536 95.8738512,98.021077 C94.8491913,98.92588 93.7258255,99.7210098 92.6243944,100.534941 C92.166901,100.872577 91.6592713,101.145193 91.1641757,101.428776 C90.8093049,101.632455 90.5053538,101.507114 90.2437051,101.225881 C89.1125056,100.01086 87.9452707,98.8271742 86.863424,97.5690672 C86.1779673,96.7723706 85.6029669,95.8769682 85.0083822,95.0050672 C84.4725508,94.2177712 83.9516037,93.4187244 83.4737424,92.5953929 C83.0953702,91.9428381 82.7749681,91.2534644 82.458483,90.5680076 C82.0832443,89.7540767 81.7197564,88.9346621 81.3876036,88.10193 C81.1557234,87.5198793 80.9739794,86.9158939 80.7906687,86.3150421 C80.5548716,85.53793 80.3417925,84.7537674 80.1169626,83.9735218 C80.0895444,83.8771661 80.0394081,83.7855108 80.0221738,83.6883718 C79.8459134,82.7169816 79.6586858,81.7495083 79.5074936,80.775768 C79.2607292,79.1902086 79.0382495,77.602299 78.8095028,76.0151728 C78.7617167,75.6885037 78.7288147,75.3602678 78.6927793,75.032032 C78.6050408,74.2643204 78.5180858,73.4966088 78.4326974,72.7281138 C78.3708105,72.172698 78.3238077,71.614932 78.2517368,71.061083 C78.1663485,70.4085281 78.0582422,69.7583234 77.9658034,69.1065519 C77.9141004,68.7516812 77.8702312,68.396027 77.8294955,68.0403729 C77.8044273,67.8265104 77.8138279,67.6063808 77.770742,67.3972186 C77.5521792,66.3498406 77.326566,65.3040295 77.0946858,64.259785 C76.9129418,63.4380203 76.7429486,62.6123386 76.5220356,61.8015412 C76.3426418,61.1427193 76.1037112,60.499565 75.8773146,59.854844 C75.702621,59.3581816 75.5138266,58.8670028 75.3171985,58.3789576 C75.0673005,57.7593047 74.8040851,57.1451354 74.5447866,56.5293994 C74.3465917,56.0578051 74.1671979,55.5783771 73.942368,55.1201003 C73.6548679,54.534916 73.34935,53.9559988 73.0164139,53.3958827 C72.529152,52.5749014 72.033273,51.7586203 71.4997918,50.9681907 C71.0054795,50.2365145 70.4813989,49.5228561 69.9291166,48.8342658 C68.9451923,47.6090608 67.9283662,46.4104907 66.9295577,45.1978197 C66.6357905,44.8413822 66.6953273,44.7262255 67.1426369,44.5961845 C68.9350084,44.074454 70.7610652,43.7517018 72.6208074,43.6091268 C73.5780967,43.5347058 74.5306858,43.4124986 75.6078321,43.2989086 Z M75.6759078,105.748956 C73.9093878,105.580529 72.2016212,105.481824 70.5165726,105.237409 C69.1918784,105.044698 67.8781516,104.722729 66.5871427,104.360808 C65.6314201,104.092109 64.7148665,103.676135 63.7889123,103.30638 C62.9984827,102.989894 62.1986526,102.68516 61.4419083,102.299737 C60.6060427,101.874362 59.7874115,101.401985 59.009516,100.878688 C57.8634323,100.107842 56.7173486,99.3252467 55.6503861,98.4517789 C54.6468774,97.6315809 53.7029055,96.726778 52.8129868,95.7843728 C51.9536198,94.8740862 51.1467393,93.9026961 50.4072294,92.8913536 C49.712372,91.9395479 49.1240543,90.9086209 48.5122351,89.8980618 C48.1103616,89.2321895 47.7171053,88.5584834 47.3794689,87.8589258 C47.0339987,87.1429172 46.7449317,86.3979236 46.4621319,85.6544968 C46.1934328,84.9478888 45.9537188,84.2303135 45.7241887,83.5111714 C45.5455782,82.9526221 45.3630509,82.3917226 45.2525944,81.818289 C45.0496992,80.764644 44.8515043,79.7070822 44.7379143,78.6416865 C44.5773216,77.1454323 44.3932275,75.6397775 44.4073283,74.1403898 C44.4222125,72.5391628 44.5585205,70.9246183 44.8193857,69.3453259 C45.0590998,67.9023415 45.5095428,66.492259 45.9176833,65.0821765 C46.1973497,64.1139198 46.5240188,63.1542803 46.9039577,62.2220591 C47.1969415,61.5013503 47.5901979,60.819027 47.9670032,60.135137 C48.406479,59.3392238 48.8537885,58.5448773 49.3402669,57.7779491 C49.8118612,57.0329555 50.2873723,56.2801281 50.8529721,55.6079888 C51.8721484,54.3968846 52.9195263,53.2037982 54.0334915,52.0804324 C54.8756241,51.2312494 55.8086287,50.4635378 56.759651,49.7349952 C57.7075398,49.0095861 58.7274995,48.3789659 59.7169074,47.7076099 C60.0717781,47.4678959 60.4117647,47.4890471 60.7235496,47.8196331 C61.6385365,48.7878898 62.5801582,49.736562 63.4348249,50.7580884 C64.4312832,51.9488247 65.3846557,53.1810802 66.2808414,54.4501544 C66.8433077,55.246851 67.2718161,56.1399033 67.7465439,56.9984868 C68.1178656,57.6698428 68.4743031,58.3505993 68.8213401,59.0352727 C68.9889832,59.3642919 69.1440923,59.7034951 69.2631659,60.0513155 C69.6141198,61.0744087 69.9517562,62.1014187 70.2784253,63.1323457 C70.5103056,63.8640219 70.7484528,64.5972648 70.9262799,65.3430417 C71.1440593,66.2603787 71.3093523,67.1894664 71.4816957,68.1177708 C71.583535,68.6661362 71.6704901,69.2192019 71.7402109,69.7730509 C71.8522341,70.6692367 71.9321387,71.5693394 72.0496456,72.4647418 C72.267425,74.126289 72.5118393,75.7847027 72.7264852,77.4470333 C72.7836719,77.8872924 72.734319,78.3424356 72.8040398,78.7779945 C73.0226026,80.1473413 73.269367,81.5127711 73.515348,82.8774177 C73.6829912,83.8049386 73.8428005,84.7363764 74.0550963,85.6544968 C74.2407572,86.4574604 74.4843881,87.2486734 74.7209686,88.039103 C74.8854782,88.5851183 75.0633053,89.1287834 75.2701174,89.6599145 C75.6586735,90.6524559 76.060547,91.6379469 76.4788714,92.6171708 C76.7906563,93.3472802 77.1008745,94.0813065 77.4761131,94.778514 C77.9336066,95.6300471 78.4451532,96.4525953 78.9582665,97.2720099 C79.4047926,97.9848849 79.8591525,98.6961932 80.3597318,99.3706827 C81.0122867,100.251984 81.7032271,101.105868 82.3988678,101.954267 C82.9527169,102.62954 83.5410346,103.275828 84.1074178,103.93935 C84.3573157,104.233117 84.3048293,104.366292 83.9201902,104.468914 C82.2609931,104.914657 80.5970957,105.311047 78.8697447,105.41367 C77.7847645,105.477907 76.7060514,105.636933 75.6759078,105.748956 Z M123,50.7708575 C122.88641,50.8515455 122.825306,50.922833 122.751669,50.9432009 C122.103031,51.1139775 121.451259,51.2722201 120.804188,51.4437802 C119.949522,51.6701768 119.097988,51.9059739 118.244888,52.1394209 C118.120331,52.1731062 117.998124,52.2146253 117.873567,52.2467438 C116.880242,52.5052589 115.890051,52.7700411 114.893592,53.0191557 C114.118047,53.2126503 113.333884,53.3724597 112.559906,53.5722214 C111.731874,53.7860839 110.91481,54.0414655 110.087561,54.2545446 C109.285381,54.4613567 108.4785,54.6438841 107.670053,54.8232779 C107.38647,54.8851649 107.22431,54.74494 107.054317,54.4903418 C106.434664,53.5683045 105.778192,52.6713353 105.115454,51.7790665 C104.689295,51.2056329 104.253737,50.6345495 103.776659,50.1034184 C103.023831,49.2667695 102.26082,48.4348208 101.449239,47.6545751 C100.586739,46.8249766 99.6976033,46.0133958 98.7551981,45.2754526 C97.7023365,44.4513377 96.5734872,43.7251452 95.4892904,42.9394159 C95.3608162,42.8469772 95.2605437,42.6605329 95.2299919,42.5022904 C95.1963066,42.3275968 95.2331254,42.1278351 95.2809115,41.950008 C95.6436161,40.6143466 96.0274719,39.2849521 96.3815593,37.9477239 C96.5852378,37.1760954 96.7348633,36.3895827 96.9299247,35.6140373 C97.1281196,34.8267413 97.3513827,34.0464956 97.5668119,33.2638998 C97.5965803,33.1542267 97.6545504,33.0508207 97.6804019,32.9395809 C97.8707631,32.1193829 98.0376228,31.2937012 98.2467851,30.4789869 C98.4457634,29.7057916 98.690961,28.9451305 98.9079571,28.1766355 C98.9620102,27.9839242 98.9839449,27.7825958 99.0348645,27.5891011 C99.0795171,27.4175411 99.1437542,27.2522481 99.226009,27 C99.6090814,27.2718326 99.9349672,27.4723776 100.224817,27.7160086 C100.958844,28.3340947 101.807243,28.6850486 102.719097,28.9717654 C104.726114,29.603169 106.41978,30.7061668 107.647335,32.4679866 C108.208235,33.2733004 108.609325,34.1295338 108.903092,35.0672387 C109.474959,36.8948623 110.526254,38.3887663 112.053843,39.5920367 C113.105921,40.4208519 114.28569,40.861111 115.518729,41.2786521 C116.649928,41.6609411 117.668321,42.297045 118.504187,43.1587621 C119.097205,43.7705812 119.623636,44.4513377 120.142233,45.1297441 C120.352962,45.4062769 120.490053,45.7501804 120.613044,46.0815498 C120.815156,46.6283484 120.929529,47.2119659 121.170026,47.7399635 C121.481811,48.4215033 121.863317,49.0732748 122.245606,49.7195626 C122.461035,50.0830506 122.737568,50.4097197 123,50.7708575 Z" id="Combined-Shape" fill="#FFFFFF"></path>
            </g>
        </g>
    </g>
</svg>