<?xml version="1.0" encoding="UTF-8"?>
<svg width="50px" height="52px" viewBox="0 0 50 52" version="1.1" xmlns="http://www.w3.org/2000/svg" xmlns:xlink="http://www.w3.org/1999/xlink">
    <!-- Generator: Sketch 52.2 (67145) - http://www.bohemiancoding.com/sketch -->
    <title>Group 14</title>
    <desc>Created with Sketch.</desc>
    <g id="Page-1" stroke="none" stroke-width="1" fill="none" fill-rule="evenodd">
        <g id="Lesson-2" transform="translate(-467.000000, -6168.000000)">
            <g id="Group-14" transform="translate(467.000000, 6168.000000)">
                <polygon id="Rectangle-12" fill-opacity="0.7" fill="#05BCB0" fill-rule="nonzero" points="0 0 50 0 50 52 0 52"></polygon>
                <g id="cd" transform="translate(6.000000, 7.000000)" fill="#FFFFFF">
                    <path d="M19.5146627,37.3858182 C29.749835,37.3063761 37.6588836,28.8907612 37.3650935,18.9552449 C37.0797496,9.31307102 28.9983532,1.35013929 18.9560735,1.63731801 C9.336331,1.91262607 1.32752616,9.98650284 1.64071964,20.0834144 C1.93131389,29.4445732 9.57465024,37.3198447 19.5146627,37.3858182 Z M18.2066462,39 C17.6848092,38.9280912 17.1611461,38.8682813 16.6420484,38.7819907 C10.185058,37.7099786 5.37689878,34.2905429 2.24564875,28.5570129 C0.560521701,25.4713255 -0.148500869,22.1247118 0.0256730589,18.6205836 C0.267644702,13.7570362 2.06942034,9.5299389 5.44241374,6.00640667 C8.44331867,2.87186692 12.1048518,0.923708572 16.3900327,0.260092881 C21.8853,-0.590714026 26.9135164,0.64086721 31.3377168,4.02788682 C35.571764,7.26949081 38.0403313,11.5881292 38.8217171,16.8662366 C38.8874604,17.311843 38.941105,17.7592757 39,18.2057952 L39,20.7956542 C38.9778573,20.8634539 38.9404202,20.9303405 38.9351699,20.99951 C38.7395381,23.6503202 38.0547127,26.1703249 36.7852746,28.503595 C33.6506005,34.2647471 28.8399303,37.7040432 22.3594275,38.782219 C21.8405581,38.8685096 21.3173515,38.9280912 20.7961993,39 L18.2066462,39 Z" id="Fill-1"></path>
                    <path d="M19.5176575,15.5872404 C17.322981,15.5834846 15.582924,17.311578 15.580715,19.4965489 C15.5785059,21.6717991 17.3022161,23.416462 19.4619898,23.42552 C21.6595381,23.434799 23.4115239,21.711566 23.4177092,19.5341066 C23.4243363,17.3378683 21.6977544,15.5909962 19.5176575,15.5872404 M14.0014757,19.6275588 C13.932112,16.6189709 16.3167655,14.1335388 19.3115545,14.0049591 C22.2840323,13.8774841 24.8208884,16.2224064 24.9920886,19.3288651 C25.1548945,22.2833259 22.7852624,24.8440942 19.7029956,24.993662 C16.6792682,25.1401368 14.0730484,22.72982 14.0014757,19.6275588" id="Fill-4"></path>
                    <path d="M4.00139914,19.342888 C4.31373171,14.9557003 6.02320335,11.2288852 9.26114655,8.25183085 C12.2201873,5.53099053 15.7372717,4.12420327 19.7603445,4.00637348 C19.9575821,4.00063735 20.1612669,3.98844806 20.3520572,4.02788399 C20.7422341,4.1086679 20.9934374,4.43945172 20.9998846,4.82903093 C21.006093,5.21789312 20.761337,5.54987197 20.3764134,5.65025435 C20.2369621,5.6865832 20.0886758,5.70187957 19.94421,5.70426962 C13.7063937,5.80680305 8.26803403,9.85149566 6.37899504,15.8048874 C5.95467166,17.141646 5.72639189,18.5128214 5.72137738,19.9188917 C5.71946709,20.4901152 5.53130342,20.8146848 5.14184285,20.949962 C4.57018828,21.1485757 4.0126221,20.7336619 4.0021155,20.0991019 C3.99781734,19.846951 4.00139914,19.595039 4.00139914,19.342888" id="Fill-6"></path>
                    <path d="M34.9968412,19.6033971 C34.3962442,26.0985995 31.2564777,30.8420908 25.3156756,33.6314107 C23.2964187,34.5794883 21.1336965,34.9722325 18.9062837,34.9999276 C18.4083324,35.0058963 18.0211431,34.6422796 18.0008526,34.177194 C17.9800848,33.7011258 18.3405384,33.3327341 18.8824125,33.287849 C19.6221781,33.2264902 20.3679115,33.2126427 21.1012318,33.1087863 C27.0050337,32.2724439 32.0244111,27.3974012 33.0296234,21.5141159 C33.1718952,20.6808773 33.2146245,19.8290162 33.2750184,18.9836013 C33.3261025,18.2716478 33.8347958,17.8387935 34.4248895,18.0565338 C34.8042014,18.1966802 34.9786992,18.4948794 34.9951703,18.8873849 C35.0049574,19.1258965 34.9968412,19.3646468 34.9968412,19.6033971" id="Fill-8"></path>
                    <path d="M20.1610424,19.4988228 C20.160293,19.1412247 19.8693674,18.8424458 19.5136252,18.8340163 C19.1513264,18.8252122 18.8334251,19.1371036 18.8337997,19.5008834 C18.8343617,19.8522998 19.1337172,20.1585716 19.4845888,20.1664392 C19.8500723,20.1746813 20.1617917,19.8670983 20.1610424,19.4988228 M19.5063193,21.499986 C18.4055602,21.5041071 17.4992511,20.6000901 17.5000005,19.4988228 C17.5005625,18.4099188 18.3901991,17.5105849 19.4772829,17.5000949 C20.5801026,17.4894175 21.4890343,18.3814459 21.4998996,19.4855229 C21.5109521,20.5839804 20.6083896,21.4960522 19.5063193,21.499986" id="Fill-10"></path>
                </g>
            </g>
        </g>
    </g>
</svg>