<?xml version="1.0" encoding="UTF-8"?>
<svg width="35px" height="35px" viewBox="0 0 35 35" version="1.1" xmlns="http://www.w3.org/2000/svg" xmlns:xlink="http://www.w3.org/1999/xlink">
    <!-- Generator: Sketch 52.2 (67145) - http://www.bohemiancoding.com/sketch -->
    <title>Combined Shape</title>
    <desc>Created with Sketch.</desc>
    <g id="Page-1" stroke="none" stroke-width="1" fill="none" fill-rule="evenodd">
        <g id="Lesson-14" transform="translate(-322.000000, -1876.000000)" fill="#F67102">
            <path d="M357,1885.08256 C356.925992,1885.46476 356.867107,1885.85074 356.775233,1886.22857 C356.426004,1887.66523 355.742267,1888.92353 354.701807,1889.96823 C352.350216,1892.32922 349.994811,1894.68672 347.620937,1897.02491 C346.340052,1898.28644 344.890006,1899.2983 343.124456,1899.76131 C340.538662,1900.43941 338.376106,1899.64075 336.561507,1897.77136 C335.772112,1896.9581 335.834678,1895.65734 336.625746,1894.85128 C337.40236,1894.05996 338.658554,1894.0062 339.510983,1894.7285 C339.570604,1894.77902 339.626077,1894.83453 339.682285,1894.88896 C340.643518,1895.81989 341.57765,1896.00766 342.751271,1895.36495 C343.418011,1894.99976 344.058588,1894.53568 344.603208,1894.00445 C346.980562,1891.68598 349.328405,1889.33649 351.667082,1886.97846 C353.165307,1885.46772 353.111173,1883.05741 351.581565,1881.58059 C351.077227,1881.0937 350.509387,1880.70261 349.841643,1880.47918 C348.64855,1880.07988 347.573896,1880.27862 346.658969,1881.16764 C345.905172,1881.89996 345.179881,1882.66229 344.418523,1883.38634 C343.242694,1884.50437 341.342177,1883.97475 340.913654,1882.41686 C340.715786,1881.69745 340.836434,1881.01034 341.34927,1880.47178 C342.22793,1879.54906 343.124188,1878.63899 344.065748,1877.78227 C345.150305,1876.7955 346.448253,1876.22639 347.909408,1876.05436 C347.974248,1876.04669 348.036747,1876.01857 348.100316,1876 L349.438614,1876 C349.50118,1876.01965 349.562407,1876.04938 349.626378,1876.05739 C352.985573,1876.47902 355.944551,1879.09836 356.763456,1882.38712 C356.863025,1882.78696 356.922111,1883.19708 357,1883.60244 L357,1885.08256 Z M322,1902.03259 C322.108259,1901.51064 322.190542,1900.98135 322.329799,1900.46816 C322.682428,1899.1685 323.330042,1898.03053 324.26166,1897.07875 C326.510533,1894.78104 328.761079,1892.48484 331.036933,1890.21527 C332.461308,1888.79472 334.093699,1887.69549 336.059102,1887.21851 C338.443081,1886.63994 340.541315,1887.2079 342.315708,1888.95127 C343.178769,1889.79934 343.228848,1891.11837 342.446529,1891.99759 C341.649348,1892.89358 340.339994,1892.98414 339.450019,1892.13723 C338.47495,1891.20935 337.422351,1891.15623 336.270197,1891.68209 C335.350028,1892.10205 334.57494,1892.73353 333.865598,1893.44921 C331.705903,1895.62822 329.551297,1897.81271 327.402717,1900.00322 C325.896394,1901.53891 325.858835,1903.9191 327.301622,1905.44774 C328.771188,1907.00478 331.182483,1907.08022 332.727905,1905.60114 C333.346596,1905.00895 333.927192,1904.37562 334.538452,1903.77508 C335.18312,1903.14175 335.947629,1902.94802 336.788931,1903.27078 C337.628225,1903.59279 338.089782,1904.24535 338.164767,1905.159 C338.214712,1905.76735 338.033678,1906.31997 337.616709,1906.75671 C336.915669,1907.49094 336.213959,1908.22784 335.469802,1908.91532 C334.209456,1910.07992 332.714783,1910.74316 331.024881,1910.94188 C330.961077,1910.94941 330.899885,1910.98008 330.837487,1911 L329.364572,1911 C329.290458,1910.97953 329.217482,1910.94907 329.142095,1910.94017 C325.89057,1910.55813 323.190115,1908.22216 322.301613,1905.003 C322.169385,1904.52403 322.09902,1904.02719 322,1903.53857 L322,1902.03259 Z" id="Combined-Shape"></path>
        </g>
    </g>
</svg>