<?xml version="1.0" encoding="UTF-8"?>
<svg width="71px" height="56px" viewBox="0 0 71 56" version="1.1" xmlns="http://www.w3.org/2000/svg" xmlns:xlink="http://www.w3.org/1999/xlink">
    <!-- Generator: Sketch 52.2 (67145) - http://www.bohemiancoding.com/sketch -->
    <title>Fill 1</title>
    <desc>Created with Sketch.</desc>
    <g id="Page-1" stroke="none" stroke-width="1" fill="none" fill-rule="evenodd">
        <g id="Lesson-11" transform="translate(-502.000000, -832.000000)" fill="#F67102">
            <path d="M554.631345,867 C554.250222,867.012512 553.868521,867.02547 553.486819,867.037535 C551.955966,868.890165 550.51649,870.793288 548.869391,872.582019 C547.259884,874.33098 548.03254,875.504848 549.980373,876.647884 C550.705027,876.023638 551.314592,875.499039 551.980256,874.92484 C552.7292,875.569641 553.342236,876.096474 554.057636,876.71089 C554.822774,876.054024 555.437544,875.52585 556.152366,874.911882 C556.857935,875.531659 557.466344,876.066982 558.528167,877 C559.147564,875.778319 560.29556,874.626793 559.929474,874.037848 C558.4125,871.599401 556.438064,869.331203 554.631345,867 M545.38567,834.530509 C542.084655,834.01608 539.127111,833.47295 536.130956,833.118981 C534.236676,832.895032 531.7321,832.81328 531.285471,834.51355 C530.732229,836.618666 531.1535,838.869023 531.1535,841.479872 C536.349372,839.854832 540.828909,843.372781 546,841.357244 C543.312162,839.110801 543.529425,836.811306 545.38567,834.530509 M535.211619,870.943327 C538.67798,868.129921 538.690929,868.04626 536.467661,865.091172 C535.118162,863.296529 533.787242,861.49289 532.428735,859.701845 C530.723986,857.452919 529.664992,857.424133 527.829628,859.667661 C526.140643,861.732625 524.575516,863.861459 522.936638,865.95296 C521.288188,868.057055 521.762793,869.374476 524.781573,870.753967 C525.497702,870.01677 526.223403,869.268327 527.069022,868.397543 C528.057078,869.301161 528.930846,870.09998 529.914962,871 C530.94468,870.01677 531.738503,869.258432 532.614523,868.422281 C533.568237,869.347939 534.323213,870.081089 535.211619,870.943327 M549.241664,832.748791 C548.977657,833.275355 548.655753,834.248812 548.036263,835.084446 C546.401849,837.286856 546.287794,839.331756 548.474538,841.367956 C549.681097,842.49114 549.181452,843.490695 547.458457,843.699032 C545.024496,843.993449 542.533217,844.057095 540.065097,844.069 C539.038595,844.074037 538.017304,843.658738 536.978644,843.491611 C532.864531,842.829056 531.486019,843.704068 531.506283,847.012721 C531.531757,851.100689 531.199432,854.907059 535.278229,858.58797 C539.706139,862.582988 542.478794,867.725457 546.27853,872.773603 C548.042052,870.619269 549.43967,868.750196 551.041082,866.999257 C552.824868,865.048681 555.420939,864.925511 556.975455,866.912717 C562.343023,873.773158 567.502744,880.734791 573,888 L502,888 C504.231324,885.114888 506.256538,882.472452 508.310699,879.844669 C513.98975,872.579461 519.680959,865.318831 525.369273,858.057743 C525.673807,857.669917 525.887445,857.140606 526.333246,856.935017 C529.72076,855.375014 529.299854,852.819577 529.277853,850.318169 C529.232694,845.13037 529.328223,839.941654 529.229221,834.754771 C529.197957,833.095865 529.738708,832.120577 532.027929,832.110962 C534.12725,832.102262 536.234097,831.935593 538.324154,832.027627 C541.894042,832.184681 545.453508,832.490088 549.241664,832.748791" id="Fill-1"></path>
        </g>
    </g>
</svg>