<?xml version="1.0" encoding="UTF-8"?>
<svg width="64px" height="64px" viewBox="0 0 64 64" version="1.1" xmlns="http://www.w3.org/2000/svg" xmlns:xlink="http://www.w3.org/1999/xlink">
    <!-- Generator: Sketch 51 (57462) - http://www.bohemiancoding.com/sketch -->
    <title>change</title>
    <desc>Created with Sketch.</desc>
    <defs></defs>
    <g id="Page-1" stroke="none" stroke-width="1" fill="none" fill-rule="evenodd">
        <g id="Lesson-1" transform="translate(-55.000000, -4469.000000)">
            <g id="change" transform="translate(55.000000, 4469.000000)">
                <rect id="Rectangle-3" fill-opacity="0.7" fill="#05BCB0" fill-rule="nonzero" x="0" y="0" width="64" height="64"></rect>
                <path d="M18.6774288,49.23775 C17.8002773,50.462 16.9631318,51.63125 15.9826106,53 C13.6533136,47.0105 11.408253,41.23775 9.03025303,35.124 C14.5227621,37.95225 19.7185803,40.628 25.1111985,43.40475 C24.0456955,44.258 23.1034409,45.0125 22.1388227,45.78475 C27.4904409,49.1435 39.3911258,49.3075 46.4543076,39.4625 C47.5662773,40.2045 48.685453,40.95125 49.8001561,41.69525 C46.1730227,48.8975 31.3307742,56.9865 18.6774288,49.23775 Z M13.5901712,28.5628007 C12.3929712,27.7715404 11.2695712,27.0291021 10.1506439,26.2898692 C14.5523045,18.501787 29.3190136,11.5229651 41.3108924,18.878061 C42.1828258,17.7129925 43.0607227,16.5402801 44.0305591,15.2440336 C46.3419652,21.1115404 48.5890136,26.8163075 50.969747,32.8606089 C45.44245,30.0341158 40.244147,27.3760336 34.8999833,24.6434856 C35.9657348,23.7940336 36.9380561,23.0185541 38.0174742,22.1580062 C33.5720803,20.1084719 29.1358803,19.7008829 24.5794136,20.8834582 C20.0117652,22.069239 16.3664924,24.6405267 13.5901712,28.5628007 Z" fill="#FFFFFF"></path>
            </g>
        </g>
    </g>
</svg>