<?xml version="1.0" encoding="UTF-8"?>
<svg width="59px" height="59px" viewBox="0 0 59 59" version="1.1" xmlns="http://www.w3.org/2000/svg" xmlns:xlink="http://www.w3.org/1999/xlink">
    <!-- Generator: Sketch 52.2 (67145) - http://www.bohemiancoding.com/sketch -->
    <title>change</title>
    <desc>Created with Sketch.</desc>
    <g id="Page-1" stroke="none" stroke-width="1" fill="none" fill-rule="evenodd">
        <g id="Lesson-9" transform="translate(-469.000000, -1607.000000)" fill-rule="nonzero">
            <g id="change" transform="translate(469.000000, 1607.000000)">
                <circle id="Oval-3" fill="#F67102" cx="29.5" cy="29.5" r="29.5"></circle>
                <path d="M19.8208854,41.9109584 C19.109786,42.9161439 18.431119,43.876171 17.6362186,45 C15.7478769,40.0822475 13.9278249,35.3424602 12,30.3226906 C16.4527316,32.64486 20.6649383,34.8418174 25.0366891,37.1217021 C24.1728947,37.8222735 23.4090167,38.441765 22.6270087,39.0758304 C26.9655212,41.8335733 36.6133078,41.9682275 42.3393707,33.8848693 C43.2408353,34.4940975 44.1481418,35.1072258 45.0518224,35.7180961 C42.1113354,41.631592 30.0788476,48.2731648 19.8208854,41.9109584 Z M15.6966878,24.9355373 C14.7261277,24.2858633 13.8153967,23.6762753 12.9082916,23.069319 C16.4766813,16.6748184 28.44793,10.944771 38.1696467,16.9837628 C38.8765158,16.027169 39.5882196,15.0642991 40.3744579,14 C42.2482957,18.8175885 44.0699592,23.5015576 46,28.4643055 C41.5190662,26.1435787 37.304845,23.9611276 32.9723758,21.7175355 C33.8363717,21.0200825 34.6246245,20.3833656 35.4996998,19.6768021 C31.8958559,17.9940068 28.2994653,17.6593509 24.6055755,18.6303188 C20.9026209,19.6039187 17.9474284,21.7151061 15.6966878,24.9355373 Z" id="Shape" stroke="#FFFFFF" stroke-width="3" fill="#FFFFFF"></path>
            </g>
        </g>
    </g>
</svg>