<?xml version="1.0" encoding="UTF-8"?>
<svg width="54px" height="53px" viewBox="0 0 54 53" version="1.1" xmlns="http://www.w3.org/2000/svg" xmlns:xlink="http://www.w3.org/1999/xlink">
    <!-- Generator: Sketch 52.2 (67145) - http://www.bohemiancoding.com/sketch -->
    <title>Combined Shape</title>
    <desc>Created with Sketch.</desc>
    <g id="Page-1" stroke="none" stroke-width="1" fill="none" fill-rule="evenodd">
        <g id="Lesson-11" transform="translate(-593.000000, -7404.000000)" fill="#32C5DD">
            <path d="M643.941226,7421.89963 C643.963971,7422.28169 643.986026,7422.48038 643.986164,7422.6792 C643.987267,7429.57265 644.02297,7436.46652 643.975136,7443.35997 C643.929233,7449.97862 639.491335,7455.37084 633.027752,7456.72523 C632.092588,7456.92116 631.112622,7456.97066 630.153334,7456.973 C622.296377,7456.99189 614.439145,7456.92957 606.582878,7456.99947 C599.917071,7457.0589 593.989031,7452.06944 593.164145,7445.20039 C592.899889,7443.00024 593.035118,7440.74921 593.030845,7438.52148 C593.018852,7432.2023 593.020506,7425.88326 593.032913,7419.56408 C593.045181,7413.29578 597.069809,7407.98671 603.03052,7406.46368 C604.217672,7406.16035 605.478987,7406.03005 606.70708,7406.02398 C614.471953,7405.98579 622.23724,7406.00344 630.002251,7406.0084 C630.482654,7406.00868 630.963332,7406.05625 631.540228,7406.08699 C631.403207,7406.29437 631.323117,7406.44603 631.215043,7406.57412 C629.704223,7408.36532 628.179755,7410.14522 626.684236,7411.9491 C626.387999,7412.30635 626.075772,7412.42107 625.626799,7412.42024 C619.263157,7412.40797 612.899514,7412.403 606.535734,7412.41583 C603.093517,7412.42286 600.3881,7414.54028 599.630071,7417.81355 C599.491533,7418.41168 599.430328,7419.04069 599.429225,7419.65563 C599.416543,7427.58332 599.41544,7435.51101 599.423987,7443.43856 C599.428398,7447.46107 602.511933,7450.58709 606.520846,7450.59619 C614.423568,7450.61411 622.326428,7450.61549 630.22915,7450.59274 C634.477093,7450.58047 637.575378,7447.46907 637.593987,7443.22981 C637.613562,7438.79504 637.604739,7434.35999 637.588887,7429.92521 C637.586957,7429.41368 637.708126,7429.01782 638.055228,7428.62638 C639.98952,7426.44471 641.898309,7424.24014 643.941226,7421.89963 Z M616.908347,7431.4403 C617.095373,7431.17725 617.232673,7430.92811 617.42039,7430.72801 C625.410576,7422.20311 633.405598,7413.68284 641.399237,7405.16146 C642.460479,7404.02999 643.887071,7403.70062 645.237417,7404.28195 C647.083505,7405.07658 647.569994,7407.10695 646.263574,7408.64761 C642.505095,7413.0803 638.737776,7417.50526 634.97239,7421.9319 C629.17389,7428.74893 623.374008,7435.56497 617.573713,7442.38059 C617.410997,7442.57198 617.238751,7442.75507 617.019126,7443 C616.071564,7441.91673 615.157153,7440.87478 614.246471,7439.82946 C611.833917,7437.06108 609.423987,7434.29032 607.011157,7431.52222 C605.930025,7430.28172 605.721174,7429.19817 606.359052,7428.09706 C607.020135,7426.95646 608.462889,7426.32469 609.838235,7426.68245 C610.374174,7426.82184 610.884145,7427.14729 611.349086,7427.47231 C613.165753,7428.7419 614.959905,7430.04494 616.908347,7431.4403 Z" id="Combined-Shape"></path>
        </g>
    </g>
</svg>