<?xml version="1.0" encoding="UTF-8"?>
<svg width="60px" height="59px" viewBox="0 0 60 59" version="1.1" xmlns="http://www.w3.org/2000/svg" xmlns:xlink="http://www.w3.org/1999/xlink">
    <!-- Generator: Sketch 51.1 (57501) - http://www.bohemiancoding.com/sketch -->
    <title>Group 11</title>
    <desc>Created with Sketch.</desc>
    <defs></defs>
    <g id="Page-1" stroke="none" stroke-width="1" fill="none" fill-rule="evenodd">
        <g id="Lesson-4" transform="translate(-387.000000, -6696.000000)" fill="#F67102">
            <g id="Group-11" transform="translate(387.000000, 6696.000000)">
                <path d="M45.8446934,54.0170333 C45.8446934,55.3357 45.8882978,56.6287 45.8273198,57.9167 C45.7939352,58.6287 45.2148143,58.9960333 44.362144,58.9963667 C40.5678802,58.9997 36.7732758,59.0000333 32.9786714,59.0000333 C27.5380011,59.0000333 22.0969901,58.9980333 16.6559791,58.9983667 C15.4422099,58.9983667 15.0249022,58.5970333 15.0238802,57.4153667 C15.0228582,56.2977 15.0235396,55.1797 15.0233171,54.0170333 L45.8446934,54.0170333 Z" id="Fill-4"></path>
                <path d="M38.04648,43.9370533 L38.04648,45.1600933 C38.04648,45.5885733 38.0406514,46.0167067 38.0481943,46.4444933 C38.0629371,47.2927867 38.5628229,47.8443333 39.31368,47.85196 C40.0854514,47.8595867 40.6117371,47.2900133 40.6155086,46.4150267 C40.6223657,44.7642 40.6223657,43.1130267 40.6155086,41.4618533 C40.6117371,40.6055867 40.0611086,40.0023867 39.3153943,40.01244 C38.5676229,40.0221467 38.0540229,40.6152933 38.0481943,41.4909733 C38.0420229,42.3063333 38.0468229,43.1216933 38.04648,43.9370533 Z M54.0747086,22.8302533 C53.7887657,21.6685733 53.6091086,20.4670267 53.1980229,19.3521467 C51.8211086,15.6126533 48.1875086,13.09724 44.2583657,13.0591067 C43.2918514,13.0494 42.6709371,13.6872667 42.7881943,14.5691867 C42.8817943,15.2711867 43.4108229,15.65252 44.3509371,15.6965467 C47.3670514,15.8366 49.9028229,17.67012 50.8679657,20.5252667 C51.1566514,21.3798 51.2204229,22.3161467 51.3489943,23.2206 C51.4487657,23.92156 51.8197371,24.3840133 52.4557371,24.4897467 C53.32968,24.6353467 53.95848,23.9447867 54.0747086,22.8302533 Z M14.7606514,51.7443333 L14.7606514,36.1720667 C13.5205371,35.96788 12.3102514,35.8583333 11.1469371,35.5615867 C6.26019429,34.31428 2.58785143,31.5340133 0.850937143,26.6266 C-1.69237714,19.44228 1.47150857,10.94236 10.2678514,8.25985333 C12.2759657,7.64729333 14.3379086,7.38868 16.43208,7.55854667 C16.8798514,7.59494667 16.9871657,7.33044 17.1644229,7.07598667 C19.4804229,3.74590667 22.5764229,1.54977333 26.5093371,0.655373333 C32.6677371,-0.744813333 38.8995086,1.71513333 42.51288,6.94633333 C42.8492229,7.43270667 43.1577943,7.56028 43.7279657,7.5322 C51.1669371,7.16750667 58.0257943,12.5789733 59.5206514,19.9577733 C61.2633943,28.561 55.9172229,36.8005733 47.4191657,38.6004667 C46.90968,38.70828 46.3899086,38.7668667 45.81048,38.8587333 L45.81048,51.7443333 L14.7606514,51.7443333 Z" id="Fill-1"></path>
            </g>
        </g>
    </g>
</svg>