<?xml version="1.0" encoding="UTF-8"?>
<svg width="105px" height="95px" viewBox="0 0 105 95" version="1.1" xmlns="http://www.w3.org/2000/svg" xmlns:xlink="http://www.w3.org/1999/xlink">
    <!-- Generator: Sketch 52.2 (67145) - http://www.bohemiancoding.com/sketch -->
    <title>Group</title>
    <desc>Created with Sketch.</desc>
    <g id="Page-1" stroke="none" stroke-width="1" fill="none" fill-rule="evenodd">
        <g id="Lesson-11" transform="translate(-55.000000, -2762.000000)">
            <g id="Group" transform="translate(55.000000, 2762.000000)">
                <rect id="Rectangle-12" fill-opacity="0.7" fill="#05BCB0" fill-rule="nonzero" x="0" y="0.1" width="105" height="94"></rect>
                <path d="M74.9412256,39.8996287 C74.9639706,40.2816943 74.9860264,40.4803795 74.9861642,40.6792025 C74.987267,47.572653 75.0229698,54.4665171 74.9751363,61.3599676 C74.9292328,67.9786231 70.4913351,73.3708357 64.0277524,74.7252314 C63.0925875,74.9211589 62.1126219,74.9706578 61.1533335,74.9730018 C53.2963772,74.9918914 45.4391452,74.9295696 37.5828781,74.9994748 C30.9170715,75.0589011 24.9890305,70.0694361 24.1641446,63.2003903 C23.8998888,61.0002385 24.0351183,58.749209 24.030845,56.5214812 C24.0188521,50.2023011 24.0205063,43.8832589 24.0329127,37.5640788 C24.0451812,31.2957764 28.0698088,25.9867054 34.0305198,24.4636825 C35.2176719,24.1603464 36.4789866,24.0300498 37.7070797,24.0239831 C45.4719531,23.9857903 53.2372401,24.0034389 61.0022514,24.0084026 C61.4826538,24.0086784 61.9633318,24.056247 62.5402282,24.0869942 C62.4032067,24.2943658 62.3231167,24.4460339 62.2150434,24.5741244 C60.7042228,26.365324 59.1797552,28.1452175 57.6842358,29.949102 C57.3879992,30.3063492 57.0757721,30.4210654 56.6267992,30.4202381 C50.2631567,30.4079668 43.8995142,30.4030031 37.5357339,30.415826 C34.0935166,30.4228578 31.3881001,32.5402816 30.6300707,35.8135538 C30.4915329,36.4116774 30.4303281,37.0406861 30.4292253,37.6556311 C30.4165432,45.5833198 30.4154404,53.5110084 30.4239871,61.4385592 C30.4283982,65.4610715 33.5119334,68.5870877 37.5208462,68.5961878 C45.4235683,68.6141122 53.3264282,68.615491 61.2291502,68.5927408 C65.4770925,68.5804695 68.5753775,65.4690685 68.5939871,61.2298088 C68.6135616,56.7950352 68.6047393,52.3599858 68.5888867,47.9252122 C68.5869568,47.4136773 68.7081257,47.0178237 69.0552285,46.6263823 C70.9895199,44.4447064 72.8983094,42.2401424 74.9412256,39.8996287 Z M47.9083471,49.4402996 C48.0953732,49.177247 48.232673,48.9281058 48.4203898,48.7280059 C56.4105764,40.2031063 64.4055975,31.6828437 72.3992373,23.1614571 C73.4604793,22.0299936 74.8870714,21.7006158 76.2374166,22.2819452 C78.0835052,23.0765833 78.5699941,25.1069503 77.2635739,26.6476066 C73.5050948,31.0802959 69.7377756,35.5052566 65.9723901,39.9319035 C60.1738899,46.7489286 54.3740084,53.56497 48.5737125,60.3805898 C48.410997,60.5719774 48.2387507,60.7550744 48.0191262,61 C47.0715641,59.9167348 46.1571528,58.8747823 45.246471,57.8294573 C42.833917,55.0610816 40.4239874,52.2903171 38.0111571,49.5222225 C36.9300246,48.2817159 36.7211742,47.1981696 37.359052,46.0970584 C38.0201355,44.9564612 39.4628886,44.3246853 40.838235,44.682448 C41.374174,44.8218434 41.8841447,45.1472867 42.3490856,45.4723084 C44.1657529,46.7419026 45.9599051,48.0449404 47.9083471,49.4402996 Z" id="Combined-Shape" fill="#FFFFFF"></path>
            </g>
        </g>
    </g>
</svg>