<?xml version="1.0" encoding="UTF-8"?>
<svg width="48px" height="48px" viewBox="0 0 48 48" version="1.1" xmlns="http://www.w3.org/2000/svg" xmlns:xlink="http://www.w3.org/1999/xlink">
    <!-- Generator: Sketch 52.2 (67145) - http://www.bohemiancoding.com/sketch -->
    <title>Combined Shape</title>
    <desc>Created with Sketch.</desc>
    <g id="Page-1" stroke="none" stroke-width="1" fill="none" fill-rule="evenodd">
        <g id="Lesson-11" transform="translate(-721.000000, -6392.000000)" fill="#32C5DD">
            <path d="M744.998006,6394.40744 C738.671176,6394.40744 732.344444,6394.40539 726.017614,6394.40881 C724.377632,6394.40969 723.409697,6395.36327 723.409307,6396.98743 C723.406182,6409.67224 723.406377,6422.35706 723.409209,6435.04187 C723.409599,6436.61272 724.383101,6437.58983 725.951698,6437.59032 C738.652231,6437.59354 751.352569,6437.59364 764.053102,6437.59022 C765.617696,6437.58973 766.590123,6436.6093 766.590514,6435.0364 C766.593541,6422.35149 766.59276,6409.66668 766.588561,6396.98186 C766.588463,6396.70355 766.570886,6396.41509 766.497939,6396.14879 C766.194532,6395.04199 765.28968,6394.4092 764.025271,6394.40871 C757.682817,6394.40617 751.340363,6394.40754 744.998006,6394.40744 Z M764.875242,6440 L725.126532,6440 C725.041183,6439.96904 724.957983,6439.92715 724.8699,6439.90889 C722.602206,6439.43791 721.005289,6437.51376 721.004312,6435.20124 C720.999234,6422.42473 720.997574,6409.64822 721.005289,6396.87171 C721.006949,6394.09944 723.099454,6392.00684 725.871721,6392.00518 C738.648228,6391.99756 751.424735,6391.99932 764.201144,6392.0042 C766.440324,6392.00508 768.336156,6393.51587 768.871782,6395.6865 C768.908402,6395.83473 768.957033,6395.97994 769,6396.12652 L769,6435.87514 C768.497771,6438.12282 767.122819,6439.49777 764.875242,6440 Z M747.50694,6421.54509 C747.509896,6420.22878 746.399847,6419.14278 745.028593,6419.12075 C743.653874,6419.09853 742.495621,6420.20096 742.49134,6421.53545 C742.487162,6422.86758 743.640727,6423.97443 745.018504,6423.96008 C746.386497,6423.94582 747.503883,6422.86149 747.50694,6421.54509 Z M743.739584,6416.86261 L743.739584,6416.27821 C743.739584,6411.65493 743.738871,6407.03155 743.740501,6402.40827 C743.740705,6401.71235 744.044919,6401.24153 744.59342,6401.06502 C745.357878,6400.81909 746.136705,6401.29512 746.246059,6402.08327 C746.269601,6402.25349 746.259614,6402.42862 746.259614,6402.60139 C746.260225,6407.19331 746.264811,6411.78522 746.251257,6416.37703 C746.250136,6416.74638 746.34726,6416.90568 746.728113,6417.03607 C748.721756,6417.7188 750.008014,6419.52864 749.999962,6421.56416 C749.992013,6423.59575 748.689143,6425.38386 746.682251,6426.06246 C746.342164,6426.17751 746.239842,6426.32659 746.252378,6426.65778 C746.277856,6427.33304 746.267563,6428.00997 746.257575,6428.68602 C746.246467,6429.44712 745.73017,6429.98649 745.019319,6429.99976 C744.293589,6430.01314 743.749877,6429.45873 743.741724,6428.67776 C743.733163,6427.86188 743.739788,6427.04571 743.739788,6426.24556 C741.049256,6425.11039 739.921475,6423.59968 740.004229,6421.27496 C740.075671,6419.26904 741.426338,6417.65695 743.739584,6416.86261 Z M758.008502,6414.28376 C759.381945,6414.281 760.496637,6413.213 760.50693,6411.89023 C760.517121,6410.55487 759.380212,6409.45717 757.99077,6409.4611 C756.622627,6409.46494 755.504266,6410.53875 755.491833,6411.86024 C755.479298,6413.19412 756.613659,6414.28661 758.008502,6414.28376 Z M756.740129,6416.56353 C756.553023,6416.49381 756.387928,6416.43148 756.22212,6416.37071 C754.256581,6415.64999 752.992997,6413.87679 753.000029,6411.84854 C753.007061,6409.85224 754.274415,6408.07216 756.233025,6407.38988 C756.649939,6407.24465 756.758881,6407.06069 756.750932,6406.65401 C756.722907,6405.23892 756.737786,6403.82294 756.740945,6402.40725 C756.742881,6401.57119 757.239183,6401.0129 757.981496,6401.00022 C758.737669,6400.98724 759.257512,6401.55959 759.259449,6402.41954 C759.262914,6403.88233 759.268621,6405.34531 759.253742,6406.80799 C759.250684,6407.10592 759.340773,6407.23551 759.644159,6407.33993 C761.718233,6408.05426 763.008619,6409.82972 762.999957,6411.9095 C762.991498,6413.95201 761.687864,6415.71498 759.623879,6416.418 C759.301028,6416.52793 759.255067,6416.6826 759.255678,6416.96312 C759.262914,6420.69092 759.260468,6424.41883 759.260468,6428.14673 C759.260468,6428.30395 759.261997,6428.46137 759.26006,6428.61869 C759.250277,6429.44403 758.73451,6430.00527 757.991789,6429.99996 C757.249068,6429.99485 756.741658,6429.43538 756.741149,6428.60335 C756.738805,6424.78106 756.740129,6420.95886 756.740129,6417.13657 L756.740129,6416.56353 Z M731.989048,6405.8452 C730.612675,6405.84765 729.503147,6406.90774 729.490421,6408.23232 C729.477695,6409.56074 730.622653,6410.67441 731.998211,6410.67166 C733.374788,6410.669 734.517506,6409.54894 734.49633,6408.22347 C734.47495,6406.89476 733.365829,6405.84274 731.989048,6405.8452 Z M733.249052,6403.57872 C734.800946,6404.03654 735.936742,6404.9216 736.577841,6406.33104 C737.737663,6408.88129 736.420748,6411.81807 733.69152,6412.76163 C733.333249,6412.88553 733.243453,6413.04423 733.244369,6413.39507 C733.257401,6418.39458 733.253328,6423.3943 733.252819,6428.39392 C733.252819,6428.56678 733.262491,6428.74161 733.239686,6428.91201 C733.154572,6429.54918 732.611822,6430.01044 731.974999,6429.99982 C731.335325,6429.9891 730.8109,6429.51496 730.743094,6428.87651 C730.726601,6428.72076 730.73556,6428.56235 730.73556,6428.40513 C730.735255,6423.40551 730.730775,6418.40589 730.74452,6413.40627 C730.74564,6413.03194 730.639553,6412.87864 730.262652,6412.74865 C728.265134,6412.05937 726.991793,6410.26271 727.00004,6408.21944 C727.008083,6406.21186 728.294557,6404.42317 730.276192,6403.74539 C730.665209,6403.61235 730.776794,6403.44204 730.741364,6403.07931 C730.712449,6402.78324 730.72202,6402.48157 730.741058,6402.18393 C730.78504,6401.4973 731.337768,6400.98993 732.010938,6401.00015 C732.667817,6401.01008 733.203441,6401.50094 733.24386,6402.16997 C733.271247,6402.62356 733.249052,6403.0799 733.249052,6403.57872 Z" id="Combined-Shape"></path>
        </g>
    </g>
</svg>