<?xml version="1.0" encoding="UTF-8"?>
<svg width="66px" height="58px" viewBox="0 0 66 58" version="1.1" xmlns="http://www.w3.org/2000/svg" xmlns:xlink="http://www.w3.org/1999/xlink">
    <!-- Generator: Sketch 52.2 (67145) - http://www.bohemiancoding.com/sketch -->
    <title>Fill-1</title>
    <desc>Created with Sketch.</desc>
    <g id="Page-1" stroke="none" stroke-width="1" fill="none" fill-rule="evenodd">
        <g id="Lesson-13" transform="translate(-533.000000, -8763.000000)" fill="#F67102" fill-rule="nonzero">
            <g id="cook" transform="translate(533.000000, 8763.000000)">
                <path d="M57.057675,11.895693 C57.013904,11.109363 56.753727,10.633277 56.191669,10.379347 C55.571248,10.099069 55.014483,10.25432 54.54255,10.726014 C52.017869,13.249425 49.49009,15.769737 46.97561,18.303351 C46.344085,18.939726 46.348088,19.798773 46.929902,20.375475 C47.519592,20.959669 48.359517,20.956569 49.001759,20.317999 C51.533024,17.801304 54.057963,15.278022 56.565729,12.737949 C56.82087,12.479628 56.945987,12.092663 57.057675,11.895693 Z M59.921425,14.755567 C59.767772,14.83371 59.385319,14.928643 59.144252,15.166815 C56.559531,17.720191 53.983332,20.282738 51.436314,22.873571 C50.611109,23.712856 51.045984,25.101204 52.188178,25.248705 C52.60898,25.303082 53.201253,25.102496 53.507267,24.804522 C56.048991,22.330579 58.542683,19.80691 61.047737,17.295511 C61.16769,17.175263 61.278733,17.037836 61.36124,16.890076 C61.889728,15.945395 61.205005,14.767063 59.921425,14.755567 Z M66,17.326768 C65.897866,17.830236 65.807482,18.336287 65.691791,18.836526 C64.366117,24.577845 59.461887,29.014383 53.614824,29.676719 C50.917897,29.982184 48.399027,29.386366 46.228652,27.840313 C43.503706,30.56444 40.801486,33.266092 38.054203,36.012564 C38.070214,36.031809 38.163955,36.167427 38.278613,36.28238 C40.801744,38.810829 43.321389,41.342764 45.86363,43.852097 C46.056922,44.043125 46.417683,44.168928 46.691675,44.154591 C47.635542,44.104993 48.423044,44.389792 49.086203,45.054066 C51.731482,47.703925 54.387219,50.343451 57.020876,53.004935 C58.300325,54.297833 58.217043,56.257587 56.87949,57.335691 C55.766864,58.232453 54.178303,58.241494 53.157739,57.239466 C50.363328,54.495836 47.60197,51.718237 44.846165,48.9356 C44.240722,48.324283 44.042911,47.540924 44.120641,46.674902 C44.140267,46.455071 44.060988,46.152964 43.912112,46.00275 C41.293174,43.357153 38.656418,40.728993 36.022373,38.09825 C35.729529,38.141131 35.572003,38.276104 35.425581,38.422443 C32.960296,40.887344 30.499788,43.356895 28.028046,45.81508 C27.753408,46.088255 27.590976,46.339214 27.642624,46.760277 C27.757282,47.6954 27.413436,48.483409 26.748727,49.146778 C24.113391,51.776359 21.488384,54.416402 18.849045,57.041721 C17.611948,58.272363 15.860179,58.304653 14.693968,57.147633 C13.510068,55.973046 13.551645,54.213749 14.810176,52.950429 C17.422658,50.328598 20.047794,47.719166 22.656015,45.092943 C23.33893,44.405421 24.130047,44.096985 25.097155,44.15937 C25.340288,44.174998 25.668381,44.096856 25.832105,43.935018 C28.448977,41.347931 31.045706,38.740694 33.645664,36.136687 C33.703122,36.078952 33.745086,36.005848 33.766262,35.977561 C31.069335,33.283658 28.395909,30.613263 25.676257,27.896627 C22.956606,25.179992 23.776904,29.801617 22.806827,30.773938 C22.381248,31.200427 21.957864,31.62924 21.528153,32.051595 C19.448936,34.094658 16.440314,34.110932 14.368715,32.053274 C10.918246,28.626126 7.489339,25.17715 4.050361,21.738249 C2.682465,20.370438 1.311729,19.005468 0,17.696684 C5.894321,11.798177 11.754813,5.933639 17.684126,0 C18.700945,1.034318 19.777675,2.143291 20.869254,3.237411 C24.531997,6.90906 28.201067,10.574122 31.865488,14.243962 C34.124569,16.506469 34.116435,19.457014 31.848574,21.73037 C30.511796,23.070282 29.17321,24.408257 27.871553,25.710971 C30.563702,28.399837 33.237258,31.070104 35.845995,33.675661 C38.484301,31.036134 41.19698,28.322341 43.952914,25.565278 C42.653581,23.729906 41.960208,21.539083 42.09333,19.14677 C42.410578,13.451949 45.346634,9.468765 50.371462,7.015359 C53.370013,5.551323 56.544941,5.304885 59.694819,6.567817 C63.22005,7.981093 65.212369,10.674609 65.869072,14.389785 C65.898124,14.553431 65.955712,14.711911 66,14.872716 L66,17.326768 Z" id="Fill-1"></path>
            </g>
        </g>
    </g>
</svg>