<?xml version="1.0" encoding="UTF-8"?>
<svg width="66px" height="58px" viewBox="0 0 66 58" version="1.1" xmlns="http://www.w3.org/2000/svg" xmlns:xlink="http://www.w3.org/1999/xlink">
    <!-- Generator: Sketch 52.2 (67145) - http://www.bohemiancoding.com/sketch -->
    <title>Fill 1</title>
    <desc>Created with Sketch.</desc>
    <g id="Page-1" stroke="none" stroke-width="1" fill="none" fill-rule="evenodd">
        <g id="Lesson-8" transform="translate(-479.000000, -686.000000)" fill="#F67102">
            <path d="M536.057675,697.895693 C536.013904,697.109363 535.753727,696.633277 535.191669,696.379347 C534.571248,696.099069 534.014483,696.25432 533.54255,696.726014 C531.017869,699.249425 528.49009,701.769737 525.97561,704.303351 C525.344085,704.939726 525.348088,705.798773 525.929902,706.375475 C526.519592,706.959669 527.359517,706.956569 528.001759,706.317999 C530.533024,703.801304 533.057963,701.278022 535.565729,698.737949 C535.82087,698.479628 535.945987,698.092663 536.057675,697.895693 Z M538.921425,700.755567 C538.767772,700.83371 538.385319,700.928643 538.144252,701.166815 C535.559531,703.720191 532.983332,706.282738 530.436314,708.873571 C529.611109,709.712856 530.045984,711.101204 531.188178,711.248705 C531.60898,711.303082 532.201253,711.102496 532.507267,710.804522 C535.048991,708.330579 537.542683,705.80691 540.047737,703.295511 C540.16769,703.175263 540.278733,703.037836 540.36124,702.890076 C540.889728,701.945395 540.205005,700.767063 538.921425,700.755567 Z M545,703.326768 C544.897866,703.830236 544.807482,704.336287 544.691791,704.836526 C543.366117,710.577845 538.461887,715.014383 532.614824,715.676719 C529.917897,715.982184 527.399027,715.386366 525.228652,713.840313 C522.503706,716.56444 519.801486,719.266092 517.054203,722.012564 C517.070214,722.031809 517.163955,722.167427 517.278613,722.28238 C519.801744,724.810829 522.321389,727.342764 524.86363,729.852097 C525.056922,730.043125 525.417683,730.168928 525.691675,730.154591 C526.635542,730.104993 527.423044,730.389792 528.086203,731.054066 C530.731482,733.703925 533.387219,736.343451 536.020876,739.004935 C537.300325,740.297833 537.217043,742.257587 535.87949,743.335691 C534.766864,744.232453 533.178303,744.241494 532.157739,743.239466 C529.363328,740.495836 526.60197,737.718237 523.846165,734.9356 C523.240722,734.324283 523.042911,733.540924 523.120641,732.674902 C523.140267,732.455071 523.060988,732.152964 522.912112,732.00275 C520.293174,729.357153 517.656418,726.728993 515.022373,724.09825 C514.729529,724.141131 514.572003,724.276104 514.425581,724.422443 C511.960296,726.887344 509.499788,729.356895 507.028046,731.81508 C506.753408,732.088255 506.590976,732.339214 506.642624,732.760277 C506.757282,733.6954 506.413436,734.483409 505.748727,735.146778 C503.113391,737.776359 500.488384,740.416402 497.849045,743.041721 C496.611948,744.272363 494.860179,744.304653 493.693968,743.147633 C492.510068,741.973046 492.551645,740.213749 493.810176,738.950429 C496.422658,736.328598 499.047794,733.719166 501.656015,731.092943 C502.33893,730.405421 503.130047,730.096985 504.097155,730.15937 C504.340288,730.174998 504.668381,730.096856 504.832105,729.935018 C507.448977,727.347931 510.045706,724.740694 512.645664,722.136687 C512.703122,722.078952 512.745086,722.005848 512.766262,721.977561 C510.069335,719.283658 507.395909,716.613263 504.676257,713.896627 C501.956606,711.179992 502.776904,715.801617 501.806827,716.773938 C501.381248,717.200427 500.957864,717.62924 500.528153,718.051595 C498.448936,720.094658 495.440314,720.110932 493.368715,718.053274 C489.918246,714.626126 486.489339,711.17715 483.050361,707.738249 C481.682465,706.370438 480.311729,705.005468 479,703.696684 C484.894321,697.798177 490.754813,691.933639 496.684126,686 C497.700945,687.034318 498.777675,688.143291 499.869254,689.237411 C503.531997,692.90906 507.201067,696.574122 510.865488,700.243962 C513.124569,702.506469 513.116435,705.457014 510.848574,707.73037 C509.511796,709.070282 508.17321,710.408257 506.871553,711.710971 C509.563702,714.399837 512.237258,717.070104 514.845995,719.675661 C517.484301,717.036134 520.19698,714.322341 522.952914,711.565278 C521.653581,709.729906 520.960208,707.539083 521.09333,705.14677 C521.410578,699.451949 524.346634,695.468765 529.371462,693.015359 C532.370013,691.551323 535.544941,691.304885 538.694819,692.567817 C542.22005,693.981093 544.212369,696.674609 544.869072,700.389785 C544.898124,700.553431 544.955712,700.711911 545,700.872716 L545,703.326768 Z" id="Fill-1"></path>
        </g>
    </g>
</svg>