<?xml version="1.0" encoding="UTF-8"?>
<svg width="50px" height="52px" viewBox="0 0 50 52" version="1.1" xmlns="http://www.w3.org/2000/svg" xmlns:xlink="http://www.w3.org/1999/xlink">
    <!-- Generator: Sketch 51 (57462) - http://www.bohemiancoding.com/sketch -->
    <title>Group 8</title>
    <desc>Created with Sketch.</desc>
    <defs></defs>
    <g id="Page-1" stroke="none" stroke-width="1" fill="none" fill-rule="evenodd">
        <g id="Lesson-2" transform="translate(-467.000000, -5711.000000)">
            <g id="Group-8" transform="translate(467.000000, 5711.000000)">
                <rect id="Rectangle-12" fill-opacity="0.6" fill="#F67102" fill-rule="nonzero" x="0" y="0" width="50" height="52"></rect>
                <g id="dice" transform="translate(25.319214, 27.916040) rotate(-1.000000) translate(-25.319214, -27.916040) translate(1.319214, 9.416040)" fill="#FFFFFF">
                    <path d="M36.3060402,19.6582721 C36.3269783,19.6726594 36.3397924,19.6828644 36.3538628,19.6909782 C36.7407146,19.9138139 37.1243838,20.1425887 37.5160095,20.3567252 C37.7332629,20.475504 37.920868,20.6265706 38.0993442,20.794283 C38.1312538,20.8242287 38.1848553,20.8467297 38.2284902,20.8468134 C39.3448244,20.8486536 40.4615774,20.8631245 41.5774929,20.8407908 C42.3863725,20.8245632 43.0341126,20.4557633 43.4433263,19.758565 C44.7352891,17.5571414 46.0076538,15.3442582 47.2856299,13.1345535 C47.3390639,13.0419562 47.3841226,12.9409942 47.4131847,12.8382756 C47.5104211,12.4945698 47.3558981,12.2156905 47.0112575,12.1176561 C46.9036358,12.0869576 46.7872201,12.0750797 46.6748245,12.0747451 C45.6195457,12.0721521 44.5642669,12.0734904 43.5089881,12.0743269 C42.0149311,12.0754143 40.5207065,12.0648748 39.0269007,12.0832771 C38.1983394,12.0935657 37.5404652,12.4689738 37.1196099,13.1838216 C36.1156713,14.8889672 35.1317494,16.6060742 34.1397873,18.3183297 C34.1264707,18.3414163 34.1147454,18.3653394 34.0998375,18.3936121 C34.3479118,18.5363976 34.5897884,18.6755864 34.8330888,18.8156116 C35.1112301,18.5221776 35.438534,18.3149002 35.8194394,18.1953685 C36.0743814,18.1153183 36.3340135,18.0778444 36.5979169,18.1491117 C36.9067954,18.2325078 37.0603133,18.4821107 36.9838475,18.7903502 C36.957633,18.8959964 36.9096429,18.9994678 36.855204,19.0944909 C36.7232941,19.3250222 36.528905,19.4987572 36.3060402,19.6582721 Z M37.5823413,3.17854467 L37.5823413,3.16909255 C36.279742,3.16909255 34.9771427,3.16733596 33.6745434,3.17193655 C33.5466536,3.17243843 33.4131525,3.19569232 33.2922142,3.23726491 C33.0222806,3.33002951 32.8813255,3.57051484 32.9397846,3.84705205 C32.9694329,3.98774643 33.0251281,4.12910997 33.0972389,4.2539114 C34.3612284,6.44320616 35.630578,8.62940598 36.8958238,10.8180316 C37.0428928,11.072486 37.2285716,11.2885463 37.4638318,11.4620304 C37.8446535,11.7425826 38.2622424,11.9388187 38.7439855,11.940157 C41.3296699,11.9473507 43.9154379,11.9493582 46.5011223,11.950111 C46.6079064,11.9501947 46.718292,11.9327961 46.8206373,11.9022649 C47.0448421,11.8353472 47.1969363,11.6930636 47.2304372,11.4499852 C47.2561491,11.2624484 47.1964338,11.0932304 47.1066513,10.9338828 C46.959666,10.6731548 46.8081582,10.4149363 46.6580741,10.1558814 C45.520048,8.19159722 44.3897271,6.22262884 43.239557,4.26537105 C42.8382998,3.58256002 42.2055513,3.20363879 41.4148459,3.18615655 C40.1379586,3.15796749 38.8598987,3.17854467 37.5823413,3.17854467 Z M33.9624837,18.3145656 C33.9820818,18.2813577 33.9963197,18.2576856 34.0101388,18.2338462 C34.9423017,16.6181194 35.8714496,15.0007196 36.8088889,13.3881714 C37.0011004,13.0574309 37.1273989,12.7136415 37.1476669,12.3317089 C37.1711176,11.8882122 37.1034457,11.4651253 36.8752208,11.0754972 C36.6944833,10.7670069 36.5178497,10.4561743 36.3392061,10.1464292 C35.2494214,8.25692558 34.1603904,6.36692003 33.0676743,4.47908931 C33.0005887,4.36307083 32.9166689,4.2510674 32.8195163,4.15930657 C32.5922963,3.94483548 32.2906206,3.94475183 32.0624794,4.15847009 C31.9670018,4.24788881 31.884422,4.35755012 31.8186765,4.47114284 C30.5653235,6.63743466 29.3174144,8.80690506 28.0624702,10.9723604 C27.8733575,11.2985003 27.7527542,11.6391112 27.7329887,12.0146865 C27.7101243,12.4490658 27.7738598,12.8657955 27.9948821,13.2488991 C28.5724378,14.2499872 29.1503286,15.250908 29.7263768,16.2529163 C29.7550201,16.3026863 29.7867622,16.3187465 29.843295,16.319583 C30.2542675,16.3259402 30.6468982,16.4060741 31.0074518,16.6142716 C31.7087935,17.0192071 32.4111401,17.4223023 33.1129843,17.8260667 C33.3939732,17.9876729 33.6750459,18.1491954 33.9624837,18.3145656 Z M38.8174363,26.2477374 L38.8238852,26.2477374 C38.8238852,24.9578159 38.8260628,23.6679781 38.8208701,22.3780566 C38.8203676,22.2366094 38.796582,22.089056 38.7506857,21.9555553 C38.6654259,21.7075417 38.4508525,21.5861698 38.1889591,21.606747 C38.0299135,21.6192104 37.8892934,21.682113 37.7536985,21.760574 C35.5469932,23.0361081 33.3385292,24.3087146 31.1344203,25.5887658 C30.5166634,25.947528 30.181738,26.5113093 30.0602972,27.2024014 C30.0271313,27.3914438 30.0404479,27.5893527 30.0401967,27.7833303 C30.0361766,30.216038 30.0335802,32.6488294 30.0305652,35.0816208 C30.0303976,35.2431433 30.0401129,35.4028255 30.106026,35.5541431 C30.2036811,35.7786518 30.3852561,35.8978489 30.6288077,35.8929974 C30.8007512,35.8895678 30.9524266,35.8228175 31.0978205,35.7387522 C33.292633,34.4702443 35.4898742,33.2061698 37.6803315,31.9303011 C38.4278206,31.4949181 38.807386,30.8222283 38.8147562,29.9592415 C38.825309,28.722185 38.8174363,27.4848775 38.8174363,26.2477374 Z M21.1173956,26.3943707 L21.124347,26.3943707 C21.124347,27.653761 21.1276134,28.9131513 21.123007,30.1724579 C21.1206619,30.8015675 21.371165,31.3209322 21.78331,31.7771433 C21.977029,31.9914471 22.2296259,32.1212673 22.4746851,32.2627982 C24.5926967,33.4866385 26.7099545,34.7118171 28.8293061,35.9334825 C28.9406129,35.9977235 29.0640638,36.0498356 29.1886034,36.0807014 C29.4867616,36.1546454 29.7449699,36.0162931 29.84363,35.726456 C29.8855899,35.6030766 29.9056905,35.4663973 29.905858,35.3358242 C29.9076168,32.7865125 29.913982,30.2372007 29.8981528,27.6879726 C29.8931276,26.8740866 29.5225238,26.216788 28.8186696,25.8044079 C26.610038,24.5100531 24.3888436,23.237363 22.1715019,21.9580647 C22.0858233,21.9086293 21.992607,21.8674749 21.8978831,21.8395368 C21.5393396,21.7338069 21.250813,21.8934055 21.1573454,22.2543426 C21.1271946,22.370612 21.1193219,22.4953298 21.1189869,22.6161998 C21.1163906,23.8756738 21.1173956,25.1350641 21.1173956,26.3943707 Z M29.8273821,25.8241486 C30.1788067,25.8190461 30.539444,25.7571473 30.8686743,25.5677703 C33.092465,24.2884721 35.3164232,23.0093411 37.5382039,21.726446 C37.653782,21.6596956 37.763665,21.5712806 37.8518562,21.4715733 C38.039545,21.2591098 38.0441514,20.9895989 37.8602314,20.7740404 C37.7686901,20.6668049 37.6518557,20.5722 37.5294099,20.5014346 C35.3486678,19.241877 33.1644082,17.988342 30.9833312,16.7292027 C30.704436,16.5681821 30.4127268,16.4573497 30.0932119,16.4266513 C29.6017534,16.3793907 29.1315681,16.4415404 28.6956375,16.6959948 C28.0320681,17.0831971 27.3644786,17.4635403 26.6985642,17.8466439 C25.1599509,18.7318809 23.6204164,19.6156121 22.084232,20.5049478 C21.9618699,20.5757969 21.8464592,20.67174 21.7548342,20.7791429 C21.5822208,20.9814851 21.5782007,21.2375288 21.7468778,21.4433006 C21.837749,21.554133 21.9555047,21.6532548 22.0798769,21.7251076 C24.2677378,22.9890985 26.4598702,24.2456448 28.6471449,25.5106394 C29.009206,25.7200917 29.3915352,25.8193807 29.8273821,25.8241486 Z M29.6242828,36.2915756 C29.5263764,36.2756827 29.4288887,36.2552728 29.3303123,36.2449006 C29.1613839,36.2271674 29.0077822,36.1691163 28.8622208,36.0848837 C27.0973926,35.0645568 25.3324806,34.0443135 23.567485,33.0242375 C23.1064286,32.7577379 22.6442835,32.4931622 22.1842322,32.2249897 C21.7617857,31.9787327 21.4756041,31.6092636 21.260612,31.1801541 C21.0865747,30.8326842 21.0070101,30.4647208 21.0075126,30.0732525 C21.0103602,27.6377007 21.0086014,25.2020654 21.0026549,22.7665136 C21.0019849,22.4835356 20.9858207,22.2020632 21.042186,21.9219292 C21.1323872,21.4729953 21.3032419,21.0603643 21.6173967,20.7232666 C21.7457052,20.5856672 21.9029083,20.4662192 22.065974,20.3709452 C22.7074327,19.9957044 23.357853,19.6357711 24.0024106,19.2658837 C25.527456,18.3904335 27.0516638,17.5136449 28.5746992,16.6347652 C28.8785525,16.4594409 29.2029251,16.3601518 29.5509996,16.3314609 C29.5750365,16.3294534 29.5988221,16.3240163 29.6338306,16.3183283 C29.6132275,16.2817745 29.5976496,16.2535018 29.5814854,16.2255637 C29.0400269,15.286709 28.5020859,14.3457631 27.9554348,13.409836 C27.6808948,12.9399068 27.6056015,12.4344275 27.6489014,11.9036869 C27.6788847,11.536058 27.8005768,11.1998804 27.9863393,10.8791776 C29.2159904,8.75638223 30.4417051,6.63149572 31.6641535,4.50451802 C32.0072029,3.90777983 32.4973212,3.47515718 33.1028503,3.16365549 C33.2657485,3.07984113 33.441377,3.0506483 33.625632,3.05307407 C34.0255492,3.05842748 34.4254664,3.05625265 34.8254673,3.05683818 C36.9807486,3.05959854 39.13603,3.06336266 41.2913113,3.06403183 C41.7839423,3.06419913 42.2207104,3.23015491 42.6263228,3.49247212 C42.955553,3.70543756 43.2151851,3.98197478 43.4127567,4.32450953 C44.6027092,6.38691168 45.7982731,8.4462189 46.9921619,10.5064462 C47.0435858,10.5951121 47.1015424,10.6801812 47.1501187,10.7703527 C47.4372216,11.3036028 47.5968534,11.8714828 47.6043911,12.4786768 C47.6073225,12.7109648 47.5431682,12.9235956 47.4253288,13.1265234 C46.1444213,15.3317111 44.8753229,17.5439252 43.5836114,19.742672 C43.12155,20.5290381 42.3955015,20.9372358 41.4830203,20.9560564 C40.447507,20.9773028 39.4111562,20.9615771 38.3751404,20.9619954 L38.2700313,20.9619954 C38.3348556,21.0401217 38.395241,21.1009332 38.4416398,21.1710294 C38.5744709,21.3716151 38.7086421,21.5720335 38.8285753,21.7803983 C38.9167665,21.9337234 38.9464985,22.1072911 38.9397984,22.285292 C38.9386258,22.3158232 38.9384583,22.3463544 38.9384583,22.3768019 C38.9351082,24.8984265 38.9415572,27.4200511 38.9234667,29.9415083 C38.9168502,30.8571092 38.4957437,31.5811582 37.7049547,32.0442284 C35.5222026,33.3223556 33.3268876,34.5789019 31.1383566,35.8473261 C30.8392772,36.0206428 30.538439,36.18342 30.1942171,36.2468245 C30.1045184,36.2634702 30.0142335,36.2767701 29.9242835,36.2915756 L29.6242828,36.2915756 Z" id="Fill-1" stroke="#FFFFFF" stroke-width="0.9"></path>
                    <path d="M29.7296417,22.1193662 C29.4006518,22.1108267 29.0838977,22.0466934 28.8026274,21.8379986 C28.7355599,21.7881559 28.6723162,21.7264624 28.6192434,21.6580593 C28.4475599,21.4367296 28.4486306,21.1691298 28.6169492,20.9433561 C28.7387718,20.7800601 28.8974548,20.6769762 29.0723501,20.6109259 C29.5893124,20.4156503 30.1000803,20.4251484 30.5915768,20.7094786 C30.6969576,20.7705621 30.7950734,20.8650193 30.8724648,20.9677547 C31.0311477,21.1781922 31.0222003,21.4335927 30.8666528,21.6473414 C30.7235705,21.8440111 30.5322332,21.9585972 30.3212423,22.019855 C30.1286815,22.0758845 29.9296204,22.1028972 29.7333889,22.1426319 C29.7321653,22.1348767 29.7309417,22.1271214 29.7296417,22.1193662" id="Fill-4"></path>
                    <path d="M29.3228835,33.9719929 C29.3135639,34.0370452 29.307423,34.1378931 29.2838712,34.2329567 C29.2070749,34.5432966 28.985572,34.6863111 28.715954,34.6040736 C28.5052878,34.5398596 28.3358735,34.3961744 28.1893608,34.2159392 C27.8808028,33.8366069 27.6842244,33.3944858 27.6595166,32.866187 C27.6540983,32.7519263 27.6671024,32.6315459 27.6940497,32.5213091 C27.7712795,32.2057717 27.9968281,32.0669487 28.2692637,32.1571501 C28.5134515,32.2378787 28.7007825,32.4173595 28.860805,32.6368273 C29.1343242,33.011968 29.3017879,33.439335 29.3228835,33.9719929" id="Fill-6"></path>
                    <path d="M21.8322883,23.6679013 C21.8494541,23.559198 21.85678,23.4468041 21.8856529,23.3426301 C21.9653766,23.0549354 22.1722271,22.9238372 22.4241826,22.9931188 C22.6481271,23.0546838 22.8246683,23.2093512 22.977867,23.4003368 C23.2532368,23.7435574 23.4323636,24.1450718 23.4861591,24.6151968 C23.5057668,24.7871426 23.5013138,24.9592562 23.4485238,25.1251629 C23.3646344,25.3886174 23.1680545,25.5149347 22.9316129,25.45857 C22.7383369,25.4124382 22.582768,25.2879662 22.4392654,25.1377443 C22.0917134,24.7738902 21.8470121,24.1716605 21.8322883,23.6679013" id="Fill-8"></path>
                    <path d="M33.4843252,29.0126813 C33.4996668,28.4928746 33.644872,28.0973149 33.8753564,27.7404302 C34.0131428,27.527088 34.1756344,27.3423537 34.3864556,27.2296003 C34.469646,27.1852204 34.5616237,27.1514111 34.6520888,27.1397499 C34.8495131,27.1141623 35.0096278,27.2349695 35.0875603,27.4529258 C35.1670054,27.674993 35.1611713,27.905114 35.1160107,28.1331376 C35.0049461,28.6937166 34.7625773,29.1577338 34.3435278,29.4753561 C34.2448517,29.5501056 34.1231271,29.5970023 34.0065164,29.6235128 C33.8081558,29.6687316 33.6328436,29.5533775 33.5560635,29.333911 C33.5137119,29.2126843 33.4984424,29.078538 33.4843252,29.0126813" id="Fill-10"></path>
                    <path d="M37.6457669,23.6576434 C37.6249028,24.160696 37.4601554,24.5849391 37.1930366,24.9595582 C37.0507417,25.1591475 36.8852724,25.3299718 36.6725881,25.4180334 C36.582634,25.4552093 36.4803348,25.4787597 36.3863378,25.4699283 C36.1678057,25.4494058 36.0212514,25.2460316 35.9904966,24.9545117 C35.9535331,24.6039476 36.0299147,24.2791207 36.1622468,23.9700222 C36.3246117,23.5907771 36.5426384,23.2659503 36.8756706,23.0722485 C36.9633866,23.0212788 37.0647474,22.9867102 37.1622097,22.9768695 C37.3992235,22.9529827 37.5823803,23.1506376 37.6271408,23.4599044 C37.6370314,23.5283687 37.6403523,23.5981787 37.6457669,23.6576434" id="Fill-12"></path>
                    <path d="M30.9874601,33.9210889 C31.0583399,33.1910487 31.3233277,32.5998598 31.8851019,32.2251378 C31.9576401,32.17667 32.0453204,32.1481102 32.1288186,32.1354263 C32.3563837,32.1012384 32.5299417,32.2328657 32.6047151,32.4878044 C32.6814354,32.748959 32.6564148,33.0109536 32.5898614,33.2677403 C32.4601435,33.7680417 32.2279637,34.1877035 31.8442902,34.473302 C31.7520672,34.5420136 31.6423226,34.5937573 31.5348132,34.6166052 C31.2503569,34.6773369 31.0375735,34.466246 30.9989249,34.1042919 C30.9925075,34.0435602 30.9911375,33.9822405 30.9874601,33.9210889" id="Fill-14"></path>
                    <path d="M31.8417696,11.7386786 C31.8470127,11.4065408 31.9131635,11.0877987 32.122102,10.8028139 C32.164047,10.7457098 32.214381,10.691591 32.2698707,10.6442083 C32.5111418,10.4385263 32.8172528,10.4395214 33.0581744,10.6464282 C33.2507718,10.8116934 33.3547604,11.0201311 33.4139204,11.2457154 C33.5361725,11.712423 33.50952,12.1682609 33.25217,12.5996803 C33.2007,12.6857958 33.1293061,12.7668591 33.0503971,12.8355984 C32.8181267,13.0379889 32.5141129,13.0368407 32.2755507,12.8395789 C32.0996439,12.6940628 31.9925094,12.5103498 31.9356215,12.3091075 C31.8831029,12.1232512 31.8572368,11.9316538 31.8197485,11.7425825 C31.8270889,11.7412812 31.8344292,11.7399799 31.8417696,11.7386786" id="Fill-16"></path>
                    <path d="M45.2324528,10.4905951 C44.5694776,10.4284755 44.0080398,10.173439 43.6182668,9.67093284 C43.5523388,9.58596872 43.5061473,9.4819075 43.4836394,9.38130538 C43.4213227,9.10291999 43.6087766,8.89285181 43.9500904,8.84226249 C44.259658,8.7965015 44.5536884,8.85170295 44.8375567,8.95425081 C45.2414391,9.10010948 45.5885479,9.3111145 45.818414,9.63792727 C45.8884573,9.73752049 45.9413676,9.85491365 45.9620279,9.96942423 C46.0096472,10.2341894 45.7964101,10.4364026 45.4528286,10.4749571 C45.3895042,10.4820194 45.3253399,10.4841814 45.2324528,10.4905951" id="Fill-18"></path>
                    <path d="M34.9910375,3.83228835 C35.4581352,3.84817436 35.8544708,3.9930981 36.2118115,4.22416734 C36.4278799,4.36396423 36.6118448,4.52990083 36.7273166,4.74320663 C36.763286,4.80963903 36.7937927,4.88148713 36.8061467,4.95347964 C36.8550583,5.23820027 36.6560502,5.44572933 36.3048444,5.48616645 C35.9638076,5.52537601 35.6468905,5.45316687 35.3428315,5.32911157 C34.9838941,5.18267144 34.6732799,4.98272434 34.4672964,4.68551152 C34.3977948,4.58521303 34.3430003,4.46823423 34.3230827,4.35356612 C34.2777008,4.09137473 34.4745239,3.89604901 34.8054758,3.84940191 C34.8711956,3.84015914 34.938176,3.83705415 34.9910375,3.83228835" id="Fill-20"></path>
                    <path d="M40.8253967,3.83228835 C41.5776109,3.91260394 42.1630765,4.17504463 42.5387642,4.72478732 C42.5890069,4.7982965 42.6158477,4.88799777 42.6319522,4.97325697 C42.6714586,5.18224946 42.5538622,5.35355596 42.3250441,5.43530448 C42.1001683,5.51562007 41.8673241,5.50910025 41.6369124,5.46281669 C41.0742615,5.3497587 40.6094958,5.10666253 40.2934451,4.68473699 C40.226343,4.59525066 40.1828944,4.48742286 40.1557181,4.38281914 C40.1018687,4.17533122 40.2170326,3.98840581 40.4492057,3.91031125 C40.575777,3.86768166 40.7158526,3.85406885 40.8253967,3.83228835" id="Fill-22"></path>
                    <path d="M39.4685725,10.4905951 C38.95446,10.4730937 38.5287015,10.3022745 38.1524848,10.0303522 C37.9431682,9.87898696 37.7724121,9.70028485 37.6843097,9.47269458 C37.578352,9.19910896 37.6944527,8.96884286 37.9883511,8.87424862 C38.0652206,8.84958759 38.1492155,8.83468972 38.2311148,8.82955502 C38.6256896,8.80482166 38.9817039,8.91199954 39.3148334,9.08274647 C39.625581,9.24206689 39.8883794,9.44506844 40.0530161,9.72942971 C40.1158865,9.83805398 40.1547823,9.95333166 40.1391905,10.0762029 C40.1134555,10.2791322 39.9463878,10.4231208 39.6848468,10.4680313 C39.6089832,10.4810489 39.5308562,10.4843756 39.4685725,10.4905951" id="Fill-24"></path>
                    <path d="M39.9867912,17.1489019 C39.9152706,17.1392963 39.8113016,17.1342407 39.7135372,17.1104794 C39.3886341,17.0314677 39.2455091,16.8078661 39.3379911,16.5280753 C39.418651,16.2839624 39.5985005,16.0963278 39.8195185,15.9378711 C40.2125883,15.656058 40.6551273,15.4762956 41.1788291,15.4846012 C41.2635974,15.4859012 41.3507972,15.5007069 41.4317085,15.5228793 C41.7273494,15.6036965 41.8615029,15.8143702 41.7869639,16.0734332 C41.7247502,16.2900291 41.5779359,16.463147 41.3938102,16.6132259 C41.0077834,16.9279003 40.5542606,17.1166183 39.9867912,17.1489019" id="Fill-26"></path>
                    <path d="M45.3188127,12.9874601 C45.3943541,13.0009282 45.5150861,13.0107952 45.6257572,13.0445734 C45.8917031,13.125958 46.0142797,13.3276188 45.953243,13.5643543 C45.8964821,13.7845968 45.7502622,13.9607619 45.5653073,14.1129439 C45.1996736,14.4140668 44.7699848,14.6044922 44.2601434,14.6471291 C44.1064615,14.660021 43.954708,14.6485695 43.8092426,14.6001709 C43.5504232,14.514105 43.427679,14.3183499 43.4861166,14.083703 C43.5417037,13.8600755 43.6902712,13.6830461 43.8776574,13.5292077 C44.2685275,13.2081348 44.7290701,13.0174932 45.3188127,12.9874601" id="Fill-28"></path>
                    <path d="M39.4653781,12.9874601 C39.5347291,12.9957666 39.627225,13.0001726 39.7156118,13.0186634 C40.0550709,13.0895929 40.2115508,13.3249893 40.1140234,13.6143412 C40.0461819,13.8153563 39.9077316,13.979751 39.7333059,14.1205266 C39.3419384,14.4362423 38.8884318,14.638702 38.3421777,14.6517756 C38.2307298,14.6543758 38.1137473,14.6374019 38.0071632,14.6082211 C37.7282499,14.5318021 37.5972629,14.3236363 37.6620855,14.077261 C37.7201156,13.8566717 37.8676227,13.6807925 38.0532015,13.5284602 C38.4423886,13.208844 38.9004236,13.0173632 39.4653781,12.9874601" id="Fill-30"></path>
                    <path d="M42.8029667,17.9811902 C42.8739737,17.9909239 42.9749933,17.9961873 43.0701445,18.0192597 C43.3911435,18.0971292 43.5345828,18.3180477 43.4460545,18.5944843 C43.3727001,18.8236945 43.2077155,19.0032269 43.0058441,19.1575959 C42.6679945,19.415935 42.2787549,19.5855895 41.8264725,19.635772 C41.6656795,19.6535811 41.5046351,19.6500481 41.3483692,19.6049848 C41.0551192,19.5201215 40.9203147,19.3108113 40.9953458,19.0526884 C41.0589755,18.8342213 41.2081994,18.659736 41.3954837,18.5093326 C41.7835496,18.1974943 42.2367543,18.0086608 42.8029667,17.9811902" id="Fill-32"></path>
                    <path d="M15.3441434,17.2920762 C15.3650815,17.3064635 15.3778956,17.3166685 15.391966,17.3247822 C15.7788178,17.547618 16.162487,17.7763928 16.5541127,17.9905293 C16.7713661,18.1093081 16.9589713,18.2603747 17.1374474,18.4280871 C17.169357,18.4580327 17.2229585,18.4805338 17.2665934,18.4806174 C18.3829276,18.4824577 19.4996806,18.4969286 20.6155961,18.4745949 C21.4244757,18.4583673 22.0722158,18.0895674 22.4814295,17.3923691 C23.7733923,15.1909455 25.045757,12.9780622 26.3237332,10.7683576 C26.3771671,10.6757603 26.4222258,10.5747983 26.4512879,10.4720797 C26.5485243,10.1283739 26.3940013,9.84949453 26.0493607,9.75146017 C25.941739,9.72076169 25.8253233,9.70888381 25.7129277,9.70854922 C24.6576489,9.70595616 23.6023701,9.70729451 22.5470913,9.70813098 C21.0530343,9.7092184 19.5588097,9.69867886 18.065004,9.71708122 C17.2364426,9.72736981 16.5785684,10.1027779 16.1577131,10.8176257 C15.1537745,12.5227712 14.1698526,14.2398783 13.1778905,15.9521338 C13.1645739,15.9752204 13.1528486,15.9991435 13.1379407,16.0274162 C13.386015,16.1702017 13.6278916,16.3093904 13.871192,16.4494156 C14.1493333,16.1559817 14.4766372,15.9487043 14.8575426,15.8291726 C15.1124846,15.7491224 15.3721167,15.7116485 15.6360201,15.7829158 C15.9448986,15.8663119 16.0984165,16.1159148 16.0219507,16.4241542 C15.9957362,16.5298005 15.9477462,16.6332719 15.8933072,16.728295 C15.7613973,16.9588263 15.5670083,17.1325613 15.3441434,17.2920762 Z M16.6204445,0.812348745 L16.6204445,0.802896626 C15.3178452,0.802896626 14.0152459,0.801140038 12.7126466,0.805740627 C12.5847569,0.806242509 12.4512557,0.829496395 12.3303174,0.871068988 C12.0603838,0.963833589 11.9194287,1.20431891 11.9778878,1.48085613 C12.0075361,1.6215505 12.0632314,1.76291405 12.1353421,1.88771548 C13.3993316,4.07701024 14.6686812,6.26321006 15.933927,8.45183564 C16.080996,8.70629003 16.2666749,8.92235041 16.501935,9.09583443 C16.8827567,9.3763867 17.3003456,9.57262273 17.7820887,9.57396108 C20.3677731,9.58115473 22.9535412,9.58316226 25.5392255,9.58391508 C25.6460097,9.58399873 25.7563952,9.56660014 25.8587405,9.53606896 C26.0829453,9.4691513 26.2350395,9.32686764 26.2685404,9.08378925 C26.2942524,8.89625252 26.234537,8.7270345 26.1447545,8.56768683 C25.9977693,8.30695892 25.8462614,8.04874041 25.6961773,7.78968543 C24.5581512,5.82540129 23.4278304,3.85643291 22.2776602,1.89917512 C21.876403,1.21636409 21.2436545,0.837442866 20.4529491,0.819960629 C19.1760618,0.791771566 17.8980019,0.812348745 16.6204445,0.812348745 Z M13.000587,15.9483697 C13.020185,15.9151618 13.0344229,15.8914897 13.048242,15.8676503 C13.980405,14.2519235 14.9095528,12.6345237 15.8469922,11.0219755 C16.0392037,10.691235 16.1655021,10.3474455 16.1857702,9.96551302 C16.2092208,9.52201625 16.1415489,9.09892937 15.913324,8.70930132 C15.7325865,8.40081093 15.555953,8.08997842 15.3773093,7.78023332 C14.2875246,5.89072965 13.1984936,4.00072411 12.1057775,2.11289339 C12.0386919,1.9968749 11.9547722,1.88487148 11.8576195,1.79311064 C11.6303995,1.57863955 11.3287238,1.57855591 11.1005826,1.79227417 C11.005105,1.88169289 10.9225252,1.9913542 10.8567797,2.10494692 C9.60342671,4.27123873 8.35551765,6.44070914 7.10057339,8.60616448 C6.91146073,8.93230441 6.79085743,9.27291528 6.77109189,9.64849062 C6.74822752,10.0828699 6.81196301,10.4995996 7.03298529,10.8827031 C7.61054106,11.8837913 8.18843184,12.8847121 8.76448006,13.8867204 C8.79312334,13.9364904 8.82486546,13.9525506 8.88139825,13.9533871 C9.29237072,13.9597443 9.68500144,14.0398781 10.045555,14.2480757 C10.7468967,14.6530112 11.4492434,15.0561064 12.1510875,15.4598708 C12.4320764,15.6214769 12.7131491,15.7829994 13.000587,15.9483697 Z M17.8555395,23.8815415 L17.8619884,23.8815415 C17.8619884,22.59162 17.864166,21.3017822 17.8589733,20.0118607 C17.8584708,19.8704135 17.8346852,19.7228601 17.7887889,19.5893594 C17.7035291,19.3413458 17.4889557,19.2199739 17.2270623,19.2405511 C17.0680167,19.2530145 16.9273967,19.3159171 16.7918017,19.394378 C14.5850965,20.6699122 12.3766324,21.9425187 10.1725235,23.2225698 C9.55476663,23.5813321 9.21984124,24.1451134 9.09840043,24.8362055 C9.06523452,25.0252478 9.07855113,25.2231568 9.07829988,25.4171344 C9.07427977,27.8498421 9.07168345,30.2826335 9.06866836,32.7154249 C9.06850086,32.8769473 9.07821613,33.0366296 9.14412917,33.1879472 C9.24178434,33.4124559 9.4233593,33.531653 9.66691095,33.5268014 C9.83885439,33.5233719 9.99052978,33.4566215 10.1359237,33.3725562 C12.3307362,32.1040484 14.5279774,30.8399739 16.7184347,29.5641051 C17.4659239,29.1287221 17.8454892,28.4560324 17.8528594,27.5930456 C17.8634122,26.3559891 17.8555395,25.1186816 17.8555395,23.8815415 Z M0.155498794,24.0281748 L0.162450234,24.0281748 C0.162450234,25.287565 0.165716573,26.5469553 0.161110198,27.806262 C0.158765134,28.4353716 0.409268222,28.9547362 0.821413223,29.4109474 C1.01513226,29.6252512 1.26772916,29.7550714 1.51278835,29.8966022 C3.63079992,31.1204425 5.74805772,32.3456212 7.86740932,33.5672866 C7.97871611,33.6315276 8.10216698,33.6836397 8.22670663,33.7145055 C8.52486477,33.7884495 8.78307307,33.6500972 8.88173326,33.3602601 C8.92369316,33.2368807 8.94379371,33.1002014 8.94396121,32.9696283 C8.94572001,30.4203166 8.95208518,27.8710048 8.936256,25.3217767 C8.93123086,24.5078907 8.560627,23.850592 7.85677278,23.438212 C5.64814124,22.1438572 3.42694685,20.8711671 1.20960507,19.5918688 C1.12392648,19.5424333 1.03071019,19.501279 0.935986351,19.4733409 C0.577442813,19.367611 0.288916187,19.5272096 0.195448635,19.8881467 C0.165297812,20.0044161 0.157425097,20.1291339 0.157090088,20.2500039 C0.154493767,21.5094778 0.155498794,22.7688681 0.155498794,24.0281748 Z M8.86548532,23.4579527 C9.21690991,23.4528502 9.57754726,23.3909514 9.90677749,23.2015744 C12.1305682,21.9222761 14.3545264,20.6431451 16.5763071,19.36025 C16.6918852,19.2934997 16.8017682,19.2050847 16.8899594,19.1053774 C17.0776483,18.8929138 17.0822546,18.623403 16.8983346,18.4078445 C16.8067934,18.3006089 16.6899589,18.2060041 16.5675131,18.1352387 C14.386771,16.8756811 12.2025114,15.6221461 10.0214344,14.3630068 C9.74253926,14.2019862 9.45083005,14.0911538 9.13131508,14.0604553 C8.63985666,14.0131947 8.16967132,14.0753445 7.73374067,14.3297989 C7.07017131,14.7170012 6.40258183,15.0973444 5.7366674,15.480448 C4.19805415,16.3656849 2.65851962,17.2494162 1.12233519,18.1387519 C0.999973098,18.2096009 0.884562447,18.3055441 0.792937446,18.412947 C0.620323984,18.6152892 0.616303874,18.8713329 0.784980979,19.0771047 C0.875852209,19.1879371 0.993607924,19.2870588 1.11798007,19.3589117 C3.30584105,20.6229025 5.49797339,21.8794488 7.6852481,23.1444435 C8.04730923,23.3538957 8.42963842,23.4531848 8.86548532,23.4579527 Z M8.66238602,33.9253797 C8.5644796,33.9094868 8.46699194,33.8890769 8.3684155,33.8787047 C8.19948714,33.8609715 8.04588544,33.8029204 7.90032397,33.7186878 C6.13549579,32.6983609 4.37058386,31.6781175 2.60558818,30.6580415 C2.14453184,30.391542 1.68238673,30.1269663 1.22233542,29.8587938 C0.799888886,29.6125368 0.513707323,29.2430677 0.298715204,28.8139582 C0.124677953,28.4664883 0.045113281,28.0985248 0.0456157947,27.7070565 C0.0484633724,25.2715048 0.0467045744,22.8358694 0.0407581621,20.4003177 C0.0400881438,20.1173397 0.0239239525,19.8358673 0.0802892412,19.5557332 C0.170490454,19.1067994 0.341345118,18.6941684 0.655499944,18.3570707 C0.783808447,18.2194713 0.941011488,18.1000233 1.10407719,18.0047493 C1.74553595,17.6295085 2.39595621,17.2695752 3.0405138,16.8996878 C4.56555918,16.0242376 6.08976704,15.147449 7.61280237,14.2685692 C7.91665567,14.093245 8.24102827,13.9939559 8.58910277,13.965265 C8.61313968,13.9632574 8.63692533,13.9578204 8.67193378,13.9521324 C8.65133072,13.9155786 8.6357528,13.8873059 8.61958861,13.8593678 C8.07813007,12.9205131 7.54018914,11.9795672 6.99353797,11.0436401 C6.71899797,10.5737109 6.64370467,10.0682316 6.6870046,9.53749096 C6.71698792,9.16986209 6.83867999,8.83368451 7.02444256,8.51298165 C8.25409363,6.39018631 9.47980834,4.26529979 10.7022567,2.1383221 C11.0453061,1.5415839 11.5354245,1.10896126 12.1409535,0.797459567 C12.3038517,0.713645203 12.4794802,0.684452375 12.6637353,0.68687814 C13.0636524,0.692231553 13.4635696,0.690056729 13.8635705,0.690642259 C16.0188518,0.693402612 18.1741332,0.69716673 20.3294145,0.697835907 C20.8220455,0.698003201 21.2588136,0.863958987 21.664426,1.1262762 C21.9936562,1.33924164 22.2532883,1.61577885 22.4508599,1.9583136 C23.6408124,4.02071576 24.8363763,6.08002297 26.0302651,8.1402503 C26.0816891,8.2289162 26.1396456,8.31398527 26.188222,8.40415681 C26.4753248,8.93740688 26.6349567,9.50528684 26.6424944,10.1124809 C26.6454257,10.3447688 26.5812714,10.5573997 26.463432,10.7603275 C25.1825245,12.9655152 23.9134261,15.1777292 22.6217146,17.3764761 C22.1596532,18.1628422 21.4336047,18.5710399 20.5211235,18.5898605 C19.4856102,18.6111069 18.4492594,18.5953812 17.4132437,18.5957995 L17.3081345,18.5957995 C17.3729588,18.6739258 17.4333442,18.7347372 17.479743,18.8048335 C17.6125741,19.0054192 17.7467453,19.2058375 17.8666785,19.4142024 C17.9548697,19.5675275 17.9846018,19.7410951 17.9779016,19.9190961 C17.976729,19.9496273 17.9765615,19.9801585 17.9765615,20.010606 C17.9732114,22.5322306 17.9796604,25.0538551 17.9615699,27.5753124 C17.9549535,28.4909132 17.533847,29.2149623 16.7430579,29.6780325 C14.5603058,30.9561597 12.3649909,32.212706 10.1764599,33.4811301 C9.87738044,33.6544469 9.57654223,33.8172241 9.23232033,33.8806285 C9.14262163,33.8972743 9.05233667,33.9105742 8.96238671,33.9253797 L8.66238602,33.9253797 Z" id="Fill-1" stroke="#FFFFFF" stroke-width="0.9"></path>
                    <path d="M8.76774488,19.7531703 C8.43875499,19.7446308 8.12200089,19.6804974 7.84073059,19.4718027 C7.77366314,19.42196 7.71041939,19.3602665 7.65734663,19.2918634 C7.48566316,19.0705337 7.48673379,18.8029339 7.65505242,18.5771602 C7.77687504,18.4138642 7.93555799,18.3107803 8.11045336,18.24473 C8.62741563,18.0494544 9.13818352,18.0589524 9.62968005,18.3432827 C9.73506082,18.4043662 9.83317659,18.4988234 9.91056798,18.6015587 C10.0692509,18.8119962 10.0603035,19.0673968 9.90475598,19.2811455 C9.76167367,19.4778152 9.57033645,19.5924013 9.35934549,19.653659 C9.16678469,19.7096886 8.96772363,19.7367012 8.77149209,19.776436 C8.77026851,19.7686808 8.76904493,19.7609255 8.76774488,19.7531703" id="Fill-4"></path>
                    <path d="M8.36098667,31.605797 C8.35166708,31.6708493 8.34552626,31.7716972 8.32197442,31.8667608 C8.24517808,32.1771007 8.02367518,32.3201152 7.75405718,32.2378777 C7.54339102,32.1736636 7.3739767,32.0299785 7.22746402,31.8497432 C6.91890601,31.470411 6.72232761,31.0282898 6.69761985,30.4999911 C6.69220148,30.3857304 6.70520557,30.26535 6.73215292,30.1551131 C6.80938273,29.8395758 7.03493134,29.7007527 7.30736689,29.7909542 C7.55155469,29.8716828 7.73888575,30.0511635 7.89890822,30.2706313 C8.17242745,30.6457721 8.33989116,31.0731391 8.36098667,31.605797" id="Fill-6"></path>
                    <path d="M0.87039156,21.3017053 C0.887557284,21.193002 0.894883241,21.0806082 0.923756131,20.9764342 C1.00347978,20.6887395 1.21033034,20.5576413 1.46228581,20.6269229 C1.68623027,20.6884879 1.86277147,20.8431552 2.01597017,21.0341409 C2.29133997,21.3773615 2.47046681,21.7788759 2.52426232,22.2490009 C2.54387003,22.4209467 2.53941699,22.5930603 2.48662701,22.758967 C2.40273762,23.0224215 2.20615776,23.1487388 1.96971608,23.0923741 C1.7764401,23.0462423 1.62087124,22.9217703 1.47736866,22.7715484 C1.12981663,22.4076943 0.885115298,21.8054646 0.87039156,21.3017053" id="Fill-8"></path>
                    <path d="M12.5224284,26.6464853 C12.53777,26.1266787 12.6829752,25.731119 12.9134596,25.3742343 C13.0512461,25.1608921 13.2137376,24.9761577 13.4245588,24.8634043 C13.5077492,24.8190245 13.5997269,24.7852152 13.6901921,24.773554 C13.8876164,24.7479663 14.047731,24.8687735 14.1256635,25.0867299 C14.2051086,25.3087971 14.1992745,25.538918 14.1541139,25.7669417 C14.0430493,26.3275207 13.8006805,26.7915379 13.3816311,27.1091602 C13.2829549,27.1839097 13.1612303,27.2308064 13.0446196,27.2573168 C12.846259,27.3025356 12.6709468,27.1871815 12.5941667,26.9677151 C12.5518152,26.8464884 12.5365456,26.712342 12.5224284,26.6464853" id="Fill-10"></path>
                    <path d="M16.6838701,21.2914474 C16.663006,21.7945001 16.4982586,22.2187432 16.2311398,22.5933622 C16.0888449,22.7929516 15.9233756,22.9637759 15.7106913,23.0518374 C15.6207373,23.0890134 15.518438,23.1125638 15.424441,23.1037324 C15.205909,23.0832099 15.0593546,22.8798356 15.0285998,22.5883157 C14.9916364,22.2377517 15.0680179,21.9129248 15.20035,21.6038262 C15.3627149,21.2245812 15.5807416,20.8997543 15.9137738,20.7060526 C16.0014899,20.6550828 16.1028506,20.6205143 16.2003129,20.6106736 C16.4373267,20.5867868 16.6204836,20.7844416 16.665244,21.0937084 C16.6751346,21.1621727 16.6784556,21.2319827 16.6838701,21.2914474" id="Fill-12"></path>
                    <path d="M10.0255634,31.5548929 C10.0964431,30.8248528 10.3614309,30.2336639 10.9232051,29.8589419 C10.9957433,29.8104741 11.0834236,29.7819143 11.1669218,29.7692303 C11.3944869,29.7350425 11.5680449,29.8666698 11.6428183,30.1216085 C11.7195386,30.3827631 11.694518,30.6447577 11.6279646,30.9015444 C11.4982468,31.4018457 11.2660669,31.8215075 10.8823934,32.107106 C10.7901704,32.1758177 10.6804258,32.2275614 10.5729165,32.2504093 C10.2884601,32.311141 10.0756767,32.1000501 10.0370281,31.738096 C10.0306107,31.6773643 10.0292407,31.6160446 10.0255634,31.5548929" id="Fill-14"></path>
                    <path d="M10.8798728,9.37248269 C10.885116,9.04034487 10.9512667,8.72160279 11.1602052,8.43661798 C11.2021502,8.37951385 11.2524842,8.32539505 11.3079739,8.27801241 C11.549245,8.07233038 11.8553561,8.07332549 12.0962776,8.28023227 C12.288875,8.44549744 12.3928637,8.65393516 12.4520236,8.87951943 C12.5742757,9.34622704 12.5476232,9.80206496 12.2902732,10.2334844 C12.2388032,10.3195998 12.1674093,10.4006632 12.0885003,10.4694025 C11.8562299,10.671793 11.5522161,10.6706448 11.313654,10.4733829 C11.1377471,10.3278669 11.0306126,10.1441539 10.9737247,9.9429116 C10.9212061,9.75705527 10.89534,9.5654579 10.8578517,9.37638659 C10.8651921,9.37508529 10.8725325,9.37378399 10.8798728,9.37248269" id="Fill-16"></path>
                    <path d="M24.270556,8.12439919 C23.6075808,8.06227954 23.046143,7.80724307 22.65637,7.30473691 C22.5904421,7.2197728 22.5442505,7.11571158 22.5217426,7.01510945 C22.4594259,6.73672407 22.6468798,6.52665588 22.9881936,6.47606656 C23.2977612,6.43030557 23.5917916,6.48550702 23.8756599,6.58805489 C24.2795424,6.73391355 24.6266511,6.94491857 24.8565173,7.27173134 C24.9265605,7.37132456 24.9794709,7.48871772 25.0001311,7.60322831 C25.0477504,7.86799349 24.8345133,8.07020664 24.4909319,8.10876118 C24.4276074,8.1158235 24.3634431,8.11798544 24.270556,8.12439919" id="Fill-18"></path>
                    <path d="M14.0291407,1.46609242 C14.4962385,1.48197843 14.892574,1.62690217 15.2499147,1.85797141 C15.4659831,1.99776831 15.649948,2.16370491 15.7654198,2.3770107 C15.8013892,2.44344311 15.8318959,2.5152912 15.8442499,2.58728371 C15.8931615,2.87200434 15.6941534,3.07953341 15.3429476,3.11997052 C15.0019108,3.15918009 14.6849937,3.08697095 14.3809347,2.96291565 C14.0219973,2.81647552 13.7113832,2.61652841 13.5053996,2.3193156 C13.435898,2.21901711 13.3811036,2.1020383 13.3611859,1.98737019 C13.315804,1.72517881 13.5126271,1.52985309 13.8435791,1.48320599 C13.9092988,1.47396322 13.9762792,1.47085822 14.0291407,1.46609242" id="Fill-20"></path>
                    <path d="M19.8634999,1.46609242 C20.6157142,1.54640801 21.2011797,1.80884871 21.5768674,2.35859139 C21.6271101,2.43210058 21.653951,2.52180185 21.6700555,2.60706104 C21.7095618,2.81605354 21.5919654,2.98736003 21.3631474,3.06910855 C21.1382715,3.14942415 20.9054274,3.14290433 20.6750156,3.09662076 C20.1123648,2.98356277 19.647599,2.7404666 19.3315483,2.31854106 C19.2644462,2.22905473 19.2209976,2.12122693 19.1938213,2.01662321 C19.1399719,1.80913529 19.2551358,1.62220988 19.487309,1.54411533 C19.6138802,1.50148573 19.7539558,1.48787292 19.8634999,1.46609242" id="Fill-22"></path>
                    <path d="M18.5066757,8.12439919 C17.9925633,8.1068978 17.5668047,7.93607855 17.190588,7.66415628 C16.9812714,7.51279103 16.8105153,7.33408892 16.7224129,7.10649866 C16.6164552,6.83291303 16.732556,6.60264694 17.0264543,6.5080527 C17.1033239,6.48339166 17.1873188,6.46849379 17.269218,6.46335909 C17.6637928,6.43862574 18.0198071,6.54580361 18.3529366,6.71655055 C18.6636842,6.87587096 18.9264826,7.07887251 19.0911193,7.36323378 C19.1539897,7.47185805 19.1928856,7.58713574 19.1772937,7.710007 C19.1515587,7.91293623 18.984491,8.05692486 18.72295,8.10183542 C18.6470864,8.11485298 18.5689594,8.11817969 18.5066757,8.12439919" id="Fill-24"></path>
                    <path d="M19.0248944,14.782706 C18.9533738,14.7731003 18.8494048,14.7680447 18.7516404,14.7442835 C18.4267373,14.6652718 18.2836123,14.4416702 18.3760944,14.1618793 C18.4567542,13.9177665 18.6366038,13.7301318 18.8576217,13.5716752 C19.2506915,13.2898621 19.6932305,13.1100997 20.2169324,13.1184053 C20.3017006,13.1197053 20.3889004,13.134511 20.4698118,13.1566833 C20.7654526,13.2375006 20.8996061,13.4481743 20.8250671,13.7072372 C20.7628534,13.9238332 20.6160391,14.0969511 20.4319134,14.2470299 C20.0458866,14.5617044 19.5923638,14.7504224 19.0248944,14.782706" id="Fill-26"></path>
                    <path d="M24.3569159,10.6212642 C24.4324573,10.6347323 24.5531894,10.6445993 24.6638604,10.6783775 C24.9298063,10.759762 25.0523829,10.9614229 24.9913462,11.1981584 C24.9345853,11.4184008 24.7883654,11.594566 24.6034106,11.7467479 C24.2377768,12.0478708 23.808088,12.2382963 23.2982466,12.2809332 C23.1445647,12.2938251 22.9928112,12.2823736 22.8473458,12.233975 C22.5885264,12.147909 22.4657822,11.9521539 22.5242199,11.7175071 C22.5798069,11.4938796 22.7283744,11.3168502 22.9157607,11.1630117 C23.3066307,10.8419388 23.7671733,10.6512973 24.3569159,10.6212642" id="Fill-28"></path>
                    <path d="M18.5034813,10.6212642 C18.5728323,10.6295706 18.6653282,10.6339766 18.753715,10.6524674 C19.0931741,10.7233969 19.249654,10.9587933 19.1521266,11.2481453 C19.0842851,11.4491604 18.9458348,11.6135551 18.7714091,11.7543306 C18.3800417,12.0700464 17.926535,12.2725061 17.380281,12.2855796 C17.2688331,12.2881799 17.1518505,12.2712059 17.0452664,12.2420252 C16.7663531,12.1656062 16.6353662,11.9574404 16.7001888,11.7110651 C16.7582188,11.4904757 16.9057259,11.3145966 17.0913047,11.1622642 C17.4804918,10.8426481 17.9385268,10.6511673 18.5034813,10.6212642" id="Fill-30"></path>
                    <path d="M21.8410699,15.6149943 C21.912077,15.624728 22.0130965,15.6299914 22.1082477,15.6530638 C22.4292467,15.7309333 22.572686,15.9518518 22.4841577,16.2282884 C22.4108033,16.4574986 22.2458187,16.637031 22.0439473,16.7914 C21.7060977,17.0497391 21.3168581,17.2193936 20.8645757,17.2695761 C20.7037827,17.2873852 20.5427383,17.2838522 20.3864724,17.2387888 C20.0932224,17.1539256 19.9584179,16.9446153 20.033449,16.6864925 C20.0970787,16.4680254 20.2463026,16.2935401 20.4335869,16.1431367 C20.8216528,15.8312984 21.2748575,15.6424649 21.8410699,15.6149943" id="Fill-32"></path>
                </g>
            </g>
        </g>
    </g>
</svg>