<?xml version="1.0" encoding="UTF-8"?>
<svg width="105px" height="105px" viewBox="0 0 105 105" version="1.1" xmlns="http://www.w3.org/2000/svg" xmlns:xlink="http://www.w3.org/1999/xlink">
    <!-- Generator: Sketch 52.2 (67145) - http://www.bohemiancoding.com/sketch -->
    <title>Group 4</title>
    <desc>Created with Sketch.</desc>
    <g id="Page-1" stroke="none" stroke-width="1" fill="none" fill-rule="evenodd">
        <g id="Desktop" transform="translate(-104.000000, -628.000000)">
            <g id="Group-4" transform="translate(104.000000, 628.000000)">
                <rect id="Rectangle" fill-opacity="0.7" fill="#05BCB0" fill-rule="nonzero" x="0" y="0" width="105" height="105"></rect>
                <g id="Group-18" transform="translate(21.000000, 22.000000)" fill="#FFFFFF">
                    <path d="M34.525879,49.6415342 C35.8887596,49.4974601 37.2681266,49.4429864 38.6119104,49.1953162 C51.4813774,46.8238571 59.8995005,34.3005277 57.0467936,21.5668502 C53.9494002,7.74026804 39.8909848,-0.0336940837 26.4987597,4.86207986 C13.6725697,9.55121043 7.83952331,24.2259086 13.7793196,36.5174846 C14.5102192,38.0299878 14.4141856,38.7273063 13.302174,39.9821228 C11.4206569,42.1049512 11.5382603,45.5370699 13.5600497,47.5118451 C15.6523186,49.5555014 19.0213265,49.6042121 21.1469805,47.6213414 C22.1758729,46.6615337 23.0451214,46.5372183 24.3255697,47.1575601 C27.5429021,48.7164415 30.9278468,49.5652435 34.525879,49.6415342 M34.3757354,53 C30.3499997,52.8638664 26.5127475,52.0365599 22.9008684,50.2581892 C22.5128058,50.067228 22.2812363,50.1178824 21.9633506,50.395474 C19.4473559,52.5928944 15.934618,53.0705132 13.1047724,51.6280153 C10.0213099,50.0561474 8.27322669,46.9440705 8.6223822,43.5365579 C8.78968288,41.9023794 9.42660709,40.4285104 10.51471,39.1889177 C10.8657388,38.7890074 10.9341865,38.5042205 10.699735,38.0040088 C7.4410463,31.0528499 7.08079505,23.9268472 9.90040953,16.7998372 C13.167312,8.54217021 19.2695358,3.19554559 27.8193067,0.897248191 C42.7103642,-3.105597 57.9234863,6.71026701 60.5955419,21.8726117 C63.152317,36.3797597 53.3139995,50.2286888 38.8061052,52.5157616 C37.340315,52.7468721 35.8530537,52.841849 34.3757354,53" id="Fill-1"></path>
                    <path d="M2.75024934,56.4512908 C2.7354863,57.5412541 3.37718637,58.2241898 4.43815674,58.2475923 C5.54636883,58.2721976 6.24012229,57.6096023 6.24799591,56.5194203 C6.25576017,55.4378775 5.60618648,54.7680646 4.53253083,54.7503487 C3.45461031,54.7326329 2.76457496,55.3910726 2.75024934,56.4512908 Z M4.5148218,60.9999713 C2.17860013,61.0091115 -0.00561386628,58.8309431 1.08398167e-05,56.4979546 C0.00563554591,54.1582164 2.18281866,51.9932661 4.52283701,52.0000157 C6.82643539,52.006906 8.98955674,54.1666535 8.99996244,56.469831 C9.01036815,58.8160376 6.85694942,60.9911124 4.5148218,60.9999713" id="Fill-4"></path>
                    <path d="M34.0841985,26.0024299 C38.2363328,26.0033645 42.3886128,26.0024299 46.5407471,26.0041121 C47.4306568,26.004486 47.9428214,26.4975686 47.9960352,27.392706 C48.052019,28.3356937 47.5109877,28.9869067 46.635803,28.9897104 C43.9647618,28.9983085 41.2938665,28.9955048 38.6228253,28.9955048 C32.9165565,28.995131 27.2104335,28.9893366 21.5041647,28.9999908 C20.9624045,29.0011123 20.4831888,28.9009256 20.1790682,28.2627968 C19.6776922,27.2110243 20.2818511,26.0140186 21.336359,26.008785 C24.1286985,25.9945795 26.9210379,26.0020561 29.7135232,26.0013084 C31.170415,26.0009346 32.6273067,26.0013084 34.0841985,26.0024299" id="Fill-8"></path>
                    <path d="M34.0038849,35.9955306 C29.9233918,35.9942235 25.8428986,35.9942235 21.7625513,35.9942235 C21.5924943,35.9942235 21.4222915,36.0005725 21.2525262,35.9917959 C20.506813,35.9533286 20.0138519,35.3759455 20.0002882,34.5298514 C19.9861411,33.6480911 20.4939786,33.0165549 21.2797994,33.0118866 C23.8058607,32.9973213 26.3317761,33.003857 28.8578373,33.0036703 C34.6870299,33.0032968 40.5162225,33.0034835 46.3454151,33.003857 C46.5396826,33.003857 46.7358461,32.989105 46.9279259,33.0173019 C47.5603163,33.1101089 48.0077734,33.745193 47.9998977,34.5179004 C47.9918761,35.2911681 47.5377101,35.903844 46.9007985,35.9888082 C46.7564105,36.0080419 46.6096889,35.996651 46.4639883,35.996651 C42.3105719,35.9970245 38.1573013,35.9970245 34.0038849,35.9955306" id="Fill-10"></path>
                    <path d="M34.0841985,18.002243 C38.2363328,18.0033645 42.3886128,18.0024299 46.5407471,18.0041121 C47.4306568,18.0042991 47.9428214,18.497569 47.9960352,19.3927073 C48.052019,20.335509 47.5109877,20.9869095 46.635803,20.9897132 C43.9647618,20.9983113 41.2938665,20.9955076 38.6228253,20.9953207 C32.9165565,20.9951338 27.2104335,20.9893394 21.5041647,20.9999936 C20.9624045,21.0009281 20.4831888,20.9007414 20.1790682,20.262612 C19.6776922,19.2108385 20.2818511,18.0140187 21.336359,18.008785 C24.1286985,17.9945795 26.9210379,18.0020561 29.7135232,18.0013084 C31.170415,18.0009346 32.6273067,18.0011215 34.0841985,18.002243" id="Fill-16"></path>
                </g>
            </g>
        </g>
    </g>
</svg>