<?xml version="1.0" encoding="UTF-8"?>
<svg width="103px" height="103px" viewBox="0 0 103 103" version="1.1" xmlns="http://www.w3.org/2000/svg" xmlns:xlink="http://www.w3.org/1999/xlink">
    <!-- Generator: Sketch 52.2 (67145) - http://www.bohemiancoding.com/sketch -->
    <title>Group 7</title>
    <desc>Created with Sketch.</desc>
    <g id="Page-1" stroke="none" stroke-width="1" fill="none" fill-rule="evenodd">
        <g id="Desktop" transform="translate(-531.000000, -3017.000000)">
            <g id="Group-7" transform="translate(531.000000, 3017.000000)">
                <rect id="Rectangle-6" fill-opacity="0.7" fill="#05BCB0" x="-1.13686838e-13" y="0" width="103" height="103"></rect>
                <g id="eye" transform="translate(11.000000, 40.000000)" fill="#97B306">
                    <path d="M56.8898178,17.021072 C56.8844314,23.1865825 53.8391403,27.7781678 48.4811124,30.9934892 C59.7972653,29.3245345 69.5915073,24.6455221 77.9563868,17.0044419 C69.5897934,9.36478711 59.7957963,4.68339899 48.4884575,3.0201461 C53.8545651,6.24710854 56.8956939,10.8446332 56.8898178,17.021072 Z M3.04560379,17.0051546 C11.4192975,24.6507487 21.2120704,29.3266727 32.5174505,30.9920637 C27.1552603,27.7703279 24.1097244,23.1744663 24.1116831,17.0001656 C24.1141314,10.8270527 27.1596674,6.23142868 32.5265095,3.0156322 C21.2054597,4.68316142 11.4063211,9.3657374 3.04560379,17.0051546 Z M40.5238876,2.4708759 C32.2353975,2.45448332 25.5187652,8.97160277 25.5177859,17.0317629 C25.5165617,25.0330047 32.2491084,31.5475108 40.5116457,31.5396709 C48.7795695,31.531831 55.4839598,25.0256399 55.4834702,17.0108564 C55.4829805,8.9875202 48.7952391,2.48726848 40.5238876,2.4708759 Z M4.53274789,21.5078874 C3.11758607,20.3872526 1.80501124,19.1433172 0.462566212,17.9378686 C-0.160545697,17.3781452 -0.146100273,16.6502196 0.457424621,16.0710152 C8.16932203,8.67178487 17.2848739,3.73405482 27.8670035,1.37827484 C33.0629488,0.221766473 38.3286729,-0.210379935 43.6470371,0.0949021622 C56.1949685,0.814987794 67.3103546,5.08109723 76.9638148,12.8967941 C78.1946138,13.8934154 79.3448613,14.984591 80.5156751,16.0498711 C81.1671882,16.6426173 81.1542118,17.3543878 80.5200822,17.9625763 C72.7724385,25.3953045 63.6022878,30.3268576 52.9729045,32.6724219 C48.8659972,33.5785277 44.6983701,34.0030717 38.3928204,33.9999833 C27.0093371,33.8778704 14.9917241,29.7904164 4.53274789,21.5078874 Z" id="Fill-1"></path>
                    <path d="M43.3022196,7.26751276 C42.7633477,8.96159652 43.1400704,10.4247985 44.7205987,11.4828602 C46.3135626,12.5490422 47.9872353,12.4410633 49.6260399,11.4931752 C51.6852133,14.4713741 51.6366905,19.1649451 48.0552649,22.3705142 C44.50505,25.5482106 38.9924635,25.881804 34.9699432,23.1746498 C31.0461755,20.5339948 29.849441,15.6156871 32.1995077,11.7291048 C34.6770993,7.63117344 39.6676383,6.38700181 43.3022196,7.26751276" id="Fill-4"></path>
                </g>
            </g>
        </g>
    </g>
</svg>