<?xml version="1.0" encoding="UTF-8"?>
<svg width="103px" height="103px" viewBox="0 0 103 103" version="1.1" xmlns="http://www.w3.org/2000/svg" xmlns:xlink="http://www.w3.org/1999/xlink">
    <!-- Generator: Sketch 52.2 (67145) - http://www.bohemiancoding.com/sketch -->
    <title>Group 15</title>
    <desc>Created with Sketch.</desc>
    <g id="Page-1" stroke="none" stroke-width="1" fill="none" fill-rule="evenodd">
        <g id="Desktop" transform="translate(-70.000000, -4156.000000)">
            <g id="Group-15" transform="translate(70.000000, 4156.000000)">
                <rect id="Rectangle-6" fill-opacity="0.7" fill="#05BCB0" x="0" y="0" width="103" height="103"></rect>
                <g id="family" transform="translate(9.809524, 22.071429)" fill="#FFFFFF" stroke="#05BCB0" stroke-opacity="0.7" stroke-width="0.3">
                    <path d="M10.0681392,49.052718 C10.0681392,46.8789019 10.066234,44.7046694 10.0709971,42.5308532 C10.0715686,42.3118897 10.0088862,42.1603637 9.86999414,41.9917701 C9.33252564,41.3390425 8.79410453,40.6834008 8.30845859,39.9852986 C7.8247179,39.2896941 7.37965359,38.557665 6.96393,37.8110662 C6.68976582,37.3188146 6.49524071,36.7736955 6.26889807,36.2502229 C6.12181347,35.9099136 5.97396676,35.5696044 5.84079041,35.2226347 C5.72266547,34.9145872 5.60930363,34.602377 5.52070992,34.2830899 C5.38505676,33.7945849 5.25664352,33.3023333 5.15337945,32.8046701 C4.98209828,31.9787698 4.8138655,31.1512044 4.68221335,30.3171866 C4.60924261,29.8551154 4.59800169,29.3788907 4.58580815,28.9080775 C4.56999465,28.3036384 4.58295029,27.6981586 4.57913981,27.0933032 C4.57837771,26.971333 4.58637972,26.8337524 4.53855817,26.7323881 C4.49092715,26.6310238 4.38175684,26.5078048 4.29335365,26.5015606 C4.20761781,26.4957327 4.05767534,26.6085447 4.03328825,26.7001264 C3.90316029,27.189464 3.79170369,27.6856702 3.69587007,28.1845822 C3.53849716,29.0042383 3.38741154,29.8257676 3.2542352,30.6504191 C3.17631084,31.1335125 3.1214399,31.6228501 3.08733608,32.1117714 C3.05475646,32.5794624 2.78954691,32.8250678 2.4298374,32.9214367 C1.28669279,33.2280273 0.800856327,32.832769 0.245097519,31.7138073 C-0.136903307,30.9441049 0.00598977032,30.1681583 0.150978612,29.3801395 C0.306065232,28.5382124 0.428381706,27.688376 0.600424971,26.8508199 C0.710166854,26.3161077 0.881257498,25.7961735 1.03081892,25.2716602 C1.16418579,24.8043855 1.29926738,24.337527 1.44578041,23.8750395 C1.55876121,23.5184954 1.67783877,23.1627838 1.81730241,22.8178955 C2.05755331,22.2236552 2.30485359,21.6319126 2.57006314,21.0503689 C2.78135437,20.5870489 3.00464862,20.127059 3.25709306,19.6893402 C3.67986604,18.9562705 4.09368439,18.2111286 4.57799666,17.527388 C5.16652561,16.6969087 5.77734589,15.8722572 6.4643758,15.141477 C7.2659107,14.2885185 8.14079738,13.5125718 9.02159031,12.7557741 C9.54648421,12.3047343 10.1376805,11.9434029 10.7109675,11.5633389 C11.1329784,11.2833904 11.5715649,11.0321651 12.0095798,10.7826051 C12.1004598,10.7307781 12.2214426,10.7418096 12.3285172,10.7249502 C12.5182792,10.6951862 12.7280462,10.7128781 12.8939927,10.6279569 C13.3312455,10.4037899 13.750208,10.1369542 14.1750768,9.88406384 C14.3633146,9.77208441 14.4936331,9.76937859 14.6454808,9.99375372 C15.2919291,10.9497416 16.0873672,11.7177789 17.0497044,12.2974494 C18.3709891,13.0935856 19.7743896,13.3485574 21.2469504,13.128345 C21.737931,13.0548715 22.2031909,12.7940719 22.6886463,12.653161 C23.3764383,12.4535545 23.9240046,11.9862798 24.4711898,11.5383621 C24.8556674,11.2236541 25.1896562,10.8217354 25.4998294,10.4164865 C25.9086941,9.88219058 26.058065,9.84722302 26.622588,10.187116 C26.9550525,10.3871387 27.3298134,10.5009914 27.6754242,10.6772861 C28.2041285,10.9470358 28.7286414,11.2282332 29.2466764,11.5223353 C29.61877,11.7333895 29.9893394,11.9531855 30.3393322,12.2046189 C30.8687986,12.584891 31.3923589,12.978276 31.8949615,13.3993436 C32.4139491,13.8341484 32.922839,14.2874778 33.4042934,14.7705712 C34.3134744,15.6826415 35.163974,16.6571539 35.8780583,17.7638353 C36.2110945,18.280023 36.5654693,18.781849 36.8699268,19.3176018 C37.2380194,19.9653341 37.5769618,20.6340886 37.9037106,21.3080465 C38.1700633,21.8571203 38.4057416,22.4245105 38.6438967,22.989403 C38.7641175,23.2751795 38.8740499,23.5682409 38.9630246,23.8671302 C39.1964166,24.6530676 39.4269508,25.4404619 39.6370989,26.2341005 C39.8089516,26.8820409 39.9811854,27.5333116 40.0960715,28.1951974 C40.2530633,29.0974851 40.4279644,30.0080985 40.4622588,30.9210013 C40.499411,31.9065452 40.0231007,32.6785371 39.2585275,33.1986795 C38.8620468,33.4684292 37.8692257,33.2715286 37.5786765,32.8743971 C37.463981,32.7178756 37.408729,32.4849668 37.3845324,32.2786998 C37.3228026,31.7531458 37.3237552,31.2176011 37.2435446,30.6962099 C37.1549509,30.1190372 36.9981495,29.5547691 36.883073,28.9819673 C36.831822,28.7257467 36.8110549,28.4622412 36.7748553,28.2024823 C36.7594228,28.0919598 36.7453241,27.9810211 36.7203654,27.8729964 C36.6315812,27.4887696 36.5401296,27.1051672 36.4465823,26.7221892 C36.3503676,26.3288043 36.2636791,25.9314646 36.1421247,25.547446 C36.1154514,25.4623166 35.9495049,25.3655314 35.8658648,25.3823908 C35.7624102,25.403413 35.6292339,25.5195552 35.5974163,25.6263311 C35.5535958,25.7730699 35.5953206,25.9493647 35.5955111,26.113171 C35.5966542,27.0337751 35.598369,27.954171 35.5953206,28.8747751 C35.594368,29.1307875 35.5939869,29.3886732 35.5661704,29.6423961 C35.5151099,30.1067569 35.4449971,30.56862 35.3805999,31.0311075 C35.369359,31.1118659 35.3449719,31.1903348 35.3306826,31.2706769 C35.2100808,31.952336 35.1317754,32.6466917 34.9595416,33.312324 C34.7673028,34.0558008 34.5043796,34.779088 34.2448857,35.4994612 C34.0475028,36.0479106 33.8303053,36.5909484 33.5807187,37.112964 C33.2831201,37.735095 32.9702795,38.3534795 32.6113321,38.9346069 C32.1942748,39.6100219 31.7345402,40.256089 31.2650888,40.8900841 C30.9604407,41.3013691 30.5993976,41.662076 30.2776023,42.0589994 C30.20768,42.1453776 30.1665268,42.2894106 30.1657647,42.4070098 C30.1642405,42.7031933 30.20768,42.9993768 30.2078705,43.2955603 C30.2113,46.9975418 30.2124431,50.6995232 30.207299,54.4012966 C30.2065369,54.9024982 30.1791014,55.4051567 30.1432829,55.9051095 C30.0727889,56.88878 29.6582085,57.7078117 29.1013065,58.4604466 C28.6114691,59.1225406 27.9972194,59.6039689 27.2690362,59.8674744 C26.8493116,60.0194167 26.3850044,60.0845646 25.9408927,60.0833157 C25.2757731,60.0816506 24.5986504,59.9933992 24.0164088,59.6075073 C23.3423345,59.1606303 22.7522813,58.6132215 22.3403682,57.8399807 C21.820428,56.8635951 21.6047547,55.8249755 21.6060883,54.7124662 C21.6087557,52.2410095 21.607041,49.769761 21.6062789,47.2983043 C21.6062789,47.1755016 21.6135188,47.0487442 21.5885601,46.9313532 C21.5512174,46.755891 21.4563364,46.6670151 21.2656218,46.6707617 C20.4989528,46.6851233 19.7317122,46.6899106 18.9650432,46.6728431 C18.7648024,46.6684721 18.6813528,46.7517282 18.6619194,46.9365567 C18.6449627,47.0984898 18.655251,47.2639612 18.655251,47.4277675 C18.6550605,49.9300289 18.6476301,52.4320822 18.6598236,54.9343436 C18.6634436,55.6915576 18.5775172,56.4294146 18.3092593,57.1218971 C18.0269025,57.8505959 17.6397576,58.5272596 17.0510381,59.0061902 C16.6364576,59.3435855 16.1900597,59.6841028 15.7080337,59.859565 C15.2231498,60.0358598 14.6752025,60.0729087 14.157358,60.0595878 C12.6964192,60.0221225 11.6094792,59.247841 10.8327124,57.9136624 C10.3177258,57.0286503 10.0620424,56.0680833 10.0631856,55.0209299 C10.0654719,53.031526 10.0639477,51.042122 10.0639477,49.052718 L10.0681392,49.052718 Z M18.6443946,0.26498282 C19.1543657,-0.00447351149 19.7045927,0.0264283468 20.2476714,0.00891073288 C21.1445884,-0.0513183668 21.976795,0.19727429 22.7444793,0.648598883 C23.6590788,1.18613376 24.3808638,1.93289586 24.9243187,2.89144395 C25.6873002,4.23636368 25.8646896,5.68619227 25.6859834,7.18936101 C25.5981352,7.92864369 25.3246206,8.6297419 24.975297,9.29993825 C24.5813909,10.0559512 24.0537374,10.6798932 23.4094545,11.1837706 C23.0253302,11.483932 22.5631395,11.6768226 22.1304824,11.9065198 C21.2612178,12.3680794 20.3300644,12.2692722 19.4079404,12.2104209 C18.6872841,12.1643634 18.0571096,11.8325128 17.4545875,11.4512587 C16.6906655,10.9678513 16.0845693,10.3011978 15.6323485,9.50601625 C15.3189543,8.95450665 15.0270048,8.37760635 14.9391566,7.71981011 C14.8729412,7.2234121 14.7482231,6.73232843 14.7205707,6.23435581 C14.6729784,5.38229119 14.9026629,4.57510316 15.1731676,3.77736283 C15.4376528,2.9977306 15.8610925,2.32320405 16.3985279,1.7350846 C16.6940515,1.41130399 17.0471373,1.13043168 17.4124504,0.895223268 C17.7997726,0.645646476 18.2360039,0.480705347 18.6443946,0.26498282 Z" id="Combined-Shape"></path>
                    <path d="M52.9848059,49.052718 C52.9848059,46.8789019 52.9829006,44.7046694 52.9876637,42.5308532 C52.9882353,42.3118897 52.9255529,42.1603637 52.7866608,41.9917701 C52.2491923,41.3390425 51.7107712,40.6834008 51.2251253,39.9852986 C50.7413846,39.2896941 50.2963203,38.557665 49.8805967,37.8110662 C49.6064325,37.3188146 49.4119074,36.7736955 49.1855647,36.2502229 C49.0384801,35.9099136 48.8906334,35.5696044 48.7574571,35.2226347 C48.6393321,34.9145872 48.5259703,34.602377 48.4373766,34.2830899 C48.3017234,33.7945849 48.1733102,33.3023333 48.0700461,32.8046701 C47.898765,31.9787698 47.7305322,31.1512044 47.59888,30.3171866 C47.5259093,29.8551154 47.5146684,29.3788907 47.5024748,28.9080775 C47.4866613,28.3036384 47.499617,27.6981586 47.4958065,27.0933032 C47.4950444,26.971333 47.5030464,26.8337524 47.4552248,26.7323881 C47.4075938,26.6310238 47.2984235,26.5078048 47.2100203,26.5015606 C47.1242845,26.4957327 46.974342,26.6085447 46.9499549,26.7001264 C46.819827,27.189464 46.7083704,27.6856702 46.6125367,28.1845822 C46.4551638,29.0042383 46.3040782,29.8257676 46.1709019,30.6504191 C46.0929775,31.1335125 46.0381066,31.6228501 46.0040027,32.1117714 C45.9714231,32.5794624 45.7062136,32.8250678 45.3465041,32.9214367 C44.2033595,33.2280273 43.717523,32.832769 43.1617642,31.7138073 C42.7797634,30.9441049 42.9226564,30.1681583 43.0676453,29.3801395 C43.2227319,28.5382124 43.3450484,27.688376 43.5170916,26.8508199 C43.6268335,26.3161077 43.7979242,25.7961735 43.9474856,25.2716602 C44.0808525,24.8043855 44.215934,24.337527 44.3624471,23.8750395 C44.4754279,23.5184954 44.5945054,23.1627838 44.7339691,22.8178955 C44.97422,22.2236552 45.2215203,21.6319126 45.4867298,21.0503689 C45.698021,20.5870489 45.9213153,20.127059 46.1737597,19.6893402 C46.5965327,18.9562705 47.0103511,18.2111286 47.4946633,17.527388 C48.0831923,16.6969087 48.6940126,15.8722572 49.3810425,15.141477 C50.1825774,14.2885185 51.057464,13.5125718 51.938257,12.7557741 C52.4631509,12.3047343 53.0543472,11.9434029 53.6276342,11.5633389 C54.0496451,11.2833904 54.4882316,11.0321651 54.9262465,10.7826051 C55.0171265,10.7307781 55.1381093,10.7418096 55.2451838,10.7249502 C55.4349458,10.6951862 55.6447129,10.7128781 55.8106594,10.6279569 C56.2479122,10.4037899 56.6668747,10.1369542 57.0917434,9.88406384 C57.2799812,9.77208441 57.4102997,9.76937859 57.5621474,9.99375372 C58.2085957,10.9497416 59.0040338,11.7177789 59.9663711,12.2974494 C61.2876557,13.0935856 62.6910563,13.3485574 64.1636171,13.128345 C64.6545977,13.0548715 65.1198575,12.7940719 65.605313,12.653161 C66.293105,12.4535545 66.8406712,11.9862798 67.3878565,11.5383621 C67.7723341,11.2236541 68.1063229,10.8217354 68.4164961,10.4164865 C68.8253608,9.88219058 68.9747317,9.84722302 69.5392546,10.187116 C69.8717192,10.3871387 70.2464801,10.5009914 70.5920908,10.6772861 C71.1207952,10.9470358 71.6453081,11.2282332 72.1633431,11.5223353 C72.5354367,11.7333895 72.906006,11.9531855 73.2559988,12.2046189 C73.7854653,12.584891 74.3090255,12.978276 74.8116281,13.3993436 C75.3306158,13.8341484 75.8395057,14.2874778 76.3209601,14.7705712 C77.2301411,15.6826415 78.0806407,16.6571539 78.794725,17.7638353 C79.1277611,18.280023 79.482136,18.781849 79.7865935,19.3176018 C80.1546861,19.9653341 80.4936284,20.6340886 80.8203773,21.3080465 C81.08673,21.8571203 81.3224083,22.4245105 81.5605634,22.989403 C81.6807841,23.2751795 81.7907165,23.5682409 81.8796913,23.8671302 C82.1130833,24.6530676 82.3436175,25.4404619 82.5537656,26.2341005 C82.7256183,26.8820409 82.8978521,27.5333116 83.0127381,28.1951974 C83.16973,29.0974851 83.3446311,30.0080985 83.3789254,30.9210013 C83.4160776,31.9065452 82.9397674,32.6785371 82.1751942,33.1986795 C81.7787135,33.4684292 80.7858924,33.2715286 80.4953432,32.8743971 C80.3806476,32.7178756 80.3253957,32.4849668 80.3011991,32.2786998 C80.2394693,31.7531458 80.2404219,31.2176011 80.1602113,30.6962099 C80.0716175,30.1190372 79.9148162,29.5547691 79.7997397,28.9819673 C79.7484887,28.7257467 79.7277215,28.4622412 79.691522,28.2024823 C79.6760895,28.0919598 79.6619907,27.9810211 79.6370321,27.8729964 C79.5482478,27.4887696 79.4567963,27.1051672 79.3632489,26.7221892 C79.2670343,26.3288043 79.1803458,25.9314646 79.0587914,25.547446 C79.032118,25.4623166 78.8661715,25.3655314 78.7825315,25.3823908 C78.6790769,25.403413 78.5459005,25.5195552 78.514083,25.6263311 C78.4702625,25.7730699 78.5119872,25.9493647 78.5121778,26.113171 C78.5133209,27.0337751 78.5150356,27.954171 78.5119872,28.8747751 C78.5110346,29.1307875 78.5106536,29.3886732 78.4828371,29.6423961 C78.4317766,30.1067569 78.3616637,30.56862 78.2972666,31.0311075 C78.2860257,31.1118659 78.2616386,31.1903348 78.2473493,31.2706769 C78.1267475,31.952336 78.0484421,32.6466917 77.8762083,33.312324 C77.6839695,34.0558008 77.4210462,34.779088 77.1615524,35.4994612 C76.9641694,36.0479106 76.746972,36.5909484 76.4973854,37.112964 C76.1997867,37.735095 75.8869462,38.3534795 75.5279987,38.9346069 C75.1109415,39.6100219 74.6512068,40.256089 74.1817554,40.8900841 C73.8771074,41.3013691 73.5160642,41.662076 73.194269,42.0589994 C73.1243467,42.1453776 73.0831935,42.2894106 73.0824314,42.4070098 C73.0809072,42.7031933 73.1243467,42.9993768 73.1245372,43.2955603 C73.1279666,46.9975418 73.1291098,50.6995232 73.1239656,54.4012966 C73.1232035,54.9024982 73.0957681,55.4051567 73.0599495,55.9051095 C72.9894556,56.88878 72.5748752,57.7078117 72.0179732,58.4604466 C71.5281357,59.1225406 70.913886,59.6039689 70.1857029,59.8674744 C69.7659783,60.0194167 69.3016711,60.0845646 68.8575594,60.0833157 C68.1924397,60.0816506 67.5153171,59.9933992 66.9330754,59.6075073 C66.2590012,59.1606303 65.668948,58.6132215 65.2570349,57.8399807 C64.7370946,56.8635951 64.5214213,55.8249755 64.522755,54.7124662 C64.5254223,52.2410095 64.5237076,49.769761 64.5229455,47.2983043 C64.5229455,47.1755016 64.5301854,47.0487442 64.5052268,46.9313532 C64.4678841,46.755891 64.3730031,46.6670151 64.1822884,46.6707617 C63.4156194,46.6851233 62.6483789,46.6899106 61.8817099,46.6728431 C61.6814691,46.6684721 61.5980195,46.7517282 61.578586,46.9365567 C61.5616294,47.0984898 61.5719177,47.2639612 61.5719177,47.4277675 C61.5717272,49.9300289 61.5642967,52.4320822 61.5764903,54.9343436 C61.5801102,55.6915576 61.4941839,56.4294146 61.2259259,57.1218971 C60.9435692,57.8505959 60.5564242,58.5272596 59.9677048,59.0061902 C59.5531243,59.3435855 59.1067263,59.6841028 58.6247004,59.859565 C58.1398165,60.0358598 57.5918692,60.0729087 57.0740247,60.0595878 C55.6130859,60.0221225 54.5261459,59.247841 53.7493791,57.9136624 C53.2343924,57.0286503 52.9787091,56.0680833 52.9798522,55.0209299 C52.9821385,53.031526 52.9806143,51.042122 52.9806143,49.052718 L52.9848059,49.052718 Z M61.5610612,0.26498282 C62.0710323,-0.00447351149 62.6212593,0.0264283468 63.1643381,0.00891073288 C64.0612551,-0.0513183668 64.8934617,0.19727429 65.6611459,0.648598883 C66.5757455,1.18613376 67.2975304,1.93289586 67.8409854,2.89144395 C68.6039668,4.23636368 68.7813563,5.68619227 68.6026501,7.18936101 C68.5148019,7.92864369 68.2412873,8.6297419 67.8919637,9.29993825 C67.4980576,10.0559512 66.970404,10.6798932 66.3261211,11.1837706 C65.9419968,11.483932 65.4798062,11.6768226 65.047149,11.9065198 C64.1778844,12.3680794 63.246731,12.2692722 62.324607,12.2104209 C61.6039507,12.1643634 60.9737762,11.8325128 60.3712541,11.4512587 C59.6073321,10.9678513 59.0012359,10.3011978 58.5490152,9.50601625 C58.2356209,8.95450665 57.9436714,8.37760635 57.8558232,7.71981011 C57.7896079,7.2234121 57.6648898,6.73232843 57.6372373,6.23435581 C57.589645,5.38229119 57.8193295,4.57510316 58.0898343,3.77736283 C58.3543195,2.9977306 58.7777591,2.32320405 59.3151945,1.7350846 C59.6107182,1.41130399 59.963804,1.13043168 60.3291171,0.895223268 C60.7164393,0.645646476 61.1526705,0.480705347 61.5610612,0.26498282 Z" id="Combined-Shape"></path>
                    <path d="M34.2984735,51.743112 C34.2984735,50.0994949 34.2970879,48.455563 34.300552,46.8119459 C34.3009677,46.6463882 34.2553804,46.5318197 34.154368,46.4043465 C33.7634819,45.9108207 33.3719029,45.4150917 33.0187058,44.8872583 C32.6668944,44.3613134 32.3432113,43.807828 32.0408668,43.2433265 C31.8414747,42.8711363 31.7000019,42.458973 31.5353891,42.0631766 C31.4284185,41.8058697 31.3208936,41.5485627 31.2240381,41.2862198 C31.138129,41.0533058 31.055684,40.8172444 30.9912522,40.5758322 C30.8925954,40.2064747 30.7992039,39.8342845 30.7241028,39.4580026 C30.5995347,38.8335414 30.4771836,38.2078212 30.3814365,37.5772224 C30.3283669,37.2278515 30.3201917,36.8677791 30.3113237,36.5117985 C30.2998229,36.0547835 30.3092452,35.5969817 30.306474,35.139652 C30.3059197,35.0474307 30.3117394,34.9434063 30.2769601,34.866765 C30.2423193,34.7901237 30.1629227,34.6969581 30.0986295,34.6922369 C30.0362762,34.6878304 29.9272271,34.7731273 29.909491,34.842372 C29.8148525,35.2123589 29.7337932,35.5875392 29.664096,35.9647654 C29.549643,36.5845054 29.4397625,37.2056617 29.342907,37.8291787 C29.2862347,38.1944444 29.2463286,38.5644314 29.2215258,38.9341036 C29.1978315,39.2877236 29.0049519,39.4734253 28.743345,39.5462896 C27.911967,39.7781019 27.5586314,39.4792481 27.1544432,38.6332039 C26.8766244,38.0512338 26.9805467,37.4645424 27.0859931,36.8687234 C27.1987834,36.2321443 27.2877408,35.5895851 27.4128632,34.956311 C27.4926755,34.5520164 27.617105,34.1588954 27.725877,33.7623122 C27.8228711,33.4090069 27.9211122,33.0560164 28.0276671,32.7063307 C28.109835,32.4367485 28.1964369,32.1677959 28.297865,31.9070267 C28.4725929,31.457723 28.6524476,31.0103079 28.8453273,30.5706042 C28.9989937,30.220289 29.1613895,29.8724918 29.3449854,29.5415337 C29.6524567,28.9872614 29.9534155,28.4238614 30.3056426,27.9068869 C30.7336637,27.2789635 31.1778966,26.6554465 31.6775547,26.1029054 C32.2604892,25.4579855 32.8967704,24.8712941 33.5373471,24.2990812 C33.9190881,23.9580511 34.349049,23.6848494 34.765985,23.3974839 C35.072902,23.1858155 35.391874,22.9958647 35.7104303,22.8071729 C35.7765249,22.7679867 35.8645124,22.7763276 35.9423848,22.7635802 C36.0803935,22.7410757 36.2329513,22.7544525 36.3536397,22.6902438 C36.6716418,22.5207517 36.9763418,22.3189979 37.2853372,22.1277881 C37.4222374,22.0431207 37.5170145,22.0410749 37.6274492,22.2107244 C38.0975934,22.9335445 38.6760939,23.5142556 39.3759755,23.952543 C40.3369098,24.5544997 41.3575647,24.7472832 42.428518,24.5807812 C42.7855949,24.5252281 43.1239657,24.3280381 43.4770241,24.2214957 C43.9772365,24.0705737 44.3754665,23.7172685 44.7734194,23.378599 C45.0530395,23.1406491 45.2959404,22.8367593 45.521521,22.5303515 C45.8188771,22.1263717 45.9275105,22.0999329 46.3380726,22.3569251 C46.579865,22.5081618 46.8524184,22.5942455 47.1037717,22.7275415 C47.488284,22.9314986 47.8697479,23.1441113 48.2465006,23.3664812 C48.5171141,23.5260587 48.7866191,23.6922459 49.0411593,23.8823541 C49.4262258,24.1698769 49.8069969,24.4673143 50.1725261,24.7856825 C50.5499716,25.1144374 50.9200734,25.4571986 51.270222,25.8224644 C51.9314446,26.5120785 52.5499898,27.248905 53.0693238,28.0856641 C53.3115319,28.4759523 53.5692591,28.8553817 53.7906827,29.2604632 C54.0583864,29.750212 54.3048899,30.2558556 54.5425255,30.7654335 C54.7362365,31.1805869 54.9076389,31.6095892 55.0808427,32.0367031 C55.1682759,32.252778 55.2482267,32.474361 55.3129356,32.7003505 C55.4826753,33.2945958 55.6503365,33.8899427 55.8031715,34.4900109 C55.9281553,34.9799171 56.0534162,35.4723413 56.1369697,35.9727915 C56.2511456,36.6550091 56.3783464,37.3435216 56.4032878,38.0337652 C56.4303076,38.7789325 56.0839001,39.3626338 55.5278468,39.7559121 C55.2394973,39.9598692 54.5174456,39.8109931 54.306137,39.510723 C54.2227221,39.3923775 54.1825388,39.2162757 54.1649413,39.0603178 C54.1200469,38.6629477 54.1207397,38.2580236 54.0624047,37.863801 C53.9979729,37.4274021 53.8839356,37.0007604 53.8002436,36.5676663 C53.7629701,36.3739386 53.7478667,36.1747027 53.7215398,35.9782996 C53.7103162,35.8947339 53.7000625,35.8108534 53.6819108,35.7291761 C53.6173404,35.4386632 53.5508302,35.1486223 53.4827958,34.8590536 C53.4128215,34.5616162 53.3497753,34.2611887 53.2613721,33.9708331 C53.2419733,33.906467 53.1212849,33.833288 53.0604558,33.8460353 C52.9852161,33.8619301 52.8883606,33.949745 52.8652205,34.030478 C52.8333511,34.1414269 52.8636963,34.2747229 52.8638349,34.3985765 C52.8646663,35.094643 52.8659134,35.7905521 52.8636963,36.4866186 C52.8630035,36.680189 52.8627264,36.8751757 52.8424962,37.067015 C52.8053613,37.418117 52.7543702,37.7673306 52.7075359,38.1170162 C52.6993607,38.1780775 52.6816246,38.2374076 52.6712324,38.2981541 C52.583522,38.8135549 52.5265726,39.3385555 52.4013117,39.8418385 C52.2615016,40.4039795 52.0702847,40.9508551 51.8815619,41.4955276 C51.7380107,41.9102088 51.5800489,42.3207984 51.3985314,42.7154931 C51.182096,43.1858848 50.9545756,43.6534439 50.6935229,44.0928329 C50.3902085,44.6035125 50.055856,45.0920023 49.7144369,45.5713644 C49.4928746,45.882336 49.2302978,46.1550656 48.9962649,46.4551784 C48.9454123,46.5204887 48.9154827,46.6293917 48.9149284,46.7183082 C48.9138199,46.9422518 48.9454123,47.1661955 48.9455509,47.3901391 C48.948045,50.1891982 48.9488764,52.9882574 48.9451352,55.7871592 C48.9445809,56.1661165 48.9246278,56.5461754 48.898578,56.9241885 C48.8473097,57.6679394 48.5457966,58.2872072 48.140777,58.8562727 C47.7845316,59.3568803 47.3378046,59.720887 46.8082168,59.9201229 C46.5029626,60.0350061 46.1652846,60.0842643 45.8422943,60.08332 C45.3585709,60.082061 44.8661181,60.0153343 44.4426696,59.7235624 C43.9524337,59.3856798 43.5233042,58.9717854 43.223731,58.3871399 C42.8455926,57.6488971 42.6887393,56.8635994 42.6897093,56.0224338 C42.6916491,54.1537714 42.6904021,52.2852664 42.6898478,50.4166041 C42.6898478,50.3237533 42.6951132,50.2279123 42.6769615,50.1391532 C42.6498031,50.0064867 42.5807988,49.9392879 42.4420972,49.9421206 C41.8845198,49.9529794 41.3265266,49.956599 40.7689492,49.9436943 C40.6233195,49.9403895 40.5626289,50.0033392 40.5484955,50.1430876 C40.5361634,50.2655248 40.5436458,50.3906373 40.5436458,50.5144909 C40.5435072,52.4064447 40.5381033,54.298241 40.5469713,56.1901948 C40.549604,56.7627224 40.4871121,57.3206143 40.2920154,57.8441986 C40.0866651,58.395166 39.8051051,58.9067898 39.3769455,59.2689081 C39.0754324,59.5240118 38.7507793,59.7814761 38.400215,59.9141427 C38.0475722,60.0474387 37.649065,60.0754513 37.2724509,60.0653794 C36.2099499,60.037052 35.4194481,59.4516196 34.8545268,58.4428504 C34.479991,57.7736949 34.2940395,57.0474125 34.2948709,56.2556625 C34.2965337,54.751479 34.2954251,53.2472955 34.2954251,51.743112 L34.2984735,51.743112 Z M40.4555609,15.7580471 C40.852205,15.5694277 41.2801594,15.591059 41.702554,15.5787967 C42.4001561,15.5366363 43.0474279,15.7106512 43.6445156,16.0265784 C44.3558708,16.4028528 44.9172591,16.9255863 45.3399463,17.5965699 C45.9333763,18.5380138 46.0713459,19.5528938 45.9323522,20.6051119 C45.8640258,21.1226098 45.6512922,21.6133785 45.3795961,22.082516 C45.0732247,22.611725 44.6628275,23.0484844 44.1617185,23.4011986 C43.8629552,23.6113116 43.5034736,23.746335 43.1669625,23.9071231 C42.4908678,24.2302148 41.7666374,24.1610497 41.0494298,24.1198538 C40.4889194,24.0876135 39.9987836,23.8553182 39.5301553,23.5884403 C38.9359938,23.2500551 38.4645856,22.7833977 38.1128584,22.2267706 C37.8691073,21.8407138 37.6420355,21.4368836 37.5737091,20.9764263 C37.5222082,20.6289476 37.4252053,20.2851891 37.4036978,19.9366082 C37.3666816,19.340163 37.5453251,18.7751314 37.7557177,18.2167132 C37.9614284,17.6709706 38.2907703,17.198802 38.7087756,16.7871184 C38.9386274,16.560472 39.2132497,16.3638614 39.4973821,16.1992155 C39.7986327,16.0245117 40.1379236,15.9090529 40.4555609,15.7580471 Z" id="Combined-Shape"></path>
                </g>
            </g>
        </g>
    </g>
</svg>