<?xml version="1.0" encoding="UTF-8"?>
<svg width="84px" height="84px" viewBox="0 0 84 84" version="1.1" xmlns="http://www.w3.org/2000/svg" xmlns:xlink="http://www.w3.org/1999/xlink">
    <!-- Generator: Sketch 51 (57462) - http://www.bohemiancoding.com/sketch -->
    <title>Group 15</title>
    <desc>Created with Sketch.</desc>
    <defs></defs>
    <g id="Page-1" stroke="none" stroke-width="1" fill="none" fill-rule="evenodd">
        <g id="Desktop" transform="translate(-563.000000, -3866.000000)">
            <g id="Group-15" transform="translate(563.000000, 3866.000000)">
                <rect id="Rectangle-6" fill="#A9DDE8" x="0" y="0" width="84" height="84"></rect>
                <g id="family" transform="translate(8.000000, 18.000000)" fill="#F67102">
                    <g id="overweight">
                        <path d="M8.21090964,40.0041584 L8.20749131,40.0041584 C8.20749131,41.6265849 8.20873434,43.2490115 8.20686979,44.871438 C8.20593752,45.7254271 8.41445597,46.5088021 8.83444509,47.2305596 C9.46792478,48.3186276 10.3543613,48.9500805 11.5458065,48.9806347 C11.9681263,48.9914984 12.414996,48.9612837 12.8104352,48.8175093 C13.2035438,48.674414 13.5675965,48.3967105 13.905701,48.1215532 C14.3858217,47.730969 14.7015516,47.1791267 14.9318231,46.5848481 C15.1505966,46.0201051 15.2206724,45.4183577 15.2177202,44.8008239 C15.207776,42.7601447 15.2138358,40.7196353 15.2139911,38.6789561 C15.2139911,38.5453664 15.2056007,38.4104188 15.2194294,38.2783569 C15.235278,38.127623 15.303334,38.0597248 15.4666372,38.0632895 C16.0918818,38.0772086 16.7175926,38.0733045 17.3428372,38.061592 C17.4983714,38.0585366 17.5757501,38.1310179 17.6062044,38.2741133 C17.626559,38.3698497 17.6206546,38.4732246 17.6206546,38.5733744 C17.6212761,40.5889313 17.6226745,42.6043184 17.6204992,44.6198753 C17.6194116,45.5271645 17.7953005,46.374194 18.2193294,47.1704697 C18.5552586,47.8010739 19.036467,48.2475043 19.5861974,48.6119477 C20.0610353,48.9266556 20.6132518,48.9986277 21.1556795,48.9999856 C21.5178677,49.0010041 21.896526,48.9478738 22.2388257,48.8239597 C22.8326838,48.609062 23.3336253,48.2164409 23.7331044,47.6764808 C24.1872768,47.0626814 24.5253813,46.3947332 24.5828715,45.5925165 C24.6120827,45.184788 24.6344572,44.7748529 24.6350788,44.366106 C24.639274,41.347184 24.6383417,38.3280923 24.6355449,35.3090006 C24.6353895,35.0674529 24.5999631,34.8259052 24.6012062,34.5843575 C24.6018277,34.4884513 24.6353895,34.3709875 24.6924136,34.3005432 C24.9548485,33.9768387 25.2492915,33.6826699 25.4977423,33.347253 C25.8805959,32.8302085 26.2555251,32.3033188 26.5956495,31.752495 C26.8883833,31.2785658 27.1435154,30.7742522 27.3862172,30.2668832 C27.5897635,29.8411618 27.7668955,29.398296 27.927868,28.9510169 C28.139494,28.3635281 28.3539169,27.7736628 28.5106942,27.1673322 C28.6511567,26.6244864 28.7150174,26.0582158 28.8133722,25.5022996 C28.8250256,25.4367779 28.8449141,25.3727838 28.8540815,25.3069226 C28.9065995,24.9297483 28.963779,24.5530833 29.0054205,24.1743813 C29.0281058,23.9674617 29.0284166,23.7571471 29.0291935,23.5483603 C29.0316795,22.7975764 29.0302811,22.0469622 29.0293489,21.2961783 C29.0291935,21.1625887 28.9951655,21.0188143 29.0309026,20.8991438 C29.0568509,20.8120644 29.1654608,20.7173465 29.2498315,20.7002022 C29.3180428,20.6864528 29.4533778,20.7653844 29.4751309,20.8348103 C29.5742626,21.1479906 29.64496,21.4720345 29.7234263,21.7928533 C29.7997173,22.1051849 29.8742992,22.4180257 29.9467058,22.7313757 C29.9670604,22.8194735 29.9785584,22.9099478 29.9911441,23.0000826 C30.0206661,23.2119249 30.0376024,23.4268226 30.0793993,23.6357792 C30.1732482,24.1029185 30.301125,24.5630983 30.3733762,25.0338023 C30.4387907,25.4590145 30.4380138,25.8957694 30.4883565,26.3243766 C30.5080897,26.4925943 30.5531495,26.6825394 30.6466876,26.8101879 C30.8836404,27.1340621 31.6933198,27.2946413 32.0166632,27.0746512 C32.6401986,26.6504575 33.0286458,26.0208718 32.998347,25.2171273 C32.9703788,24.472624 32.827741,23.7299879 32.6997088,22.9941415 C32.6060153,22.4543512 32.4655528,21.9232178 32.325401,21.3948004 C32.1540181,20.7475612 31.9660097,20.1054143 31.7756706,19.4644557 C31.7031086,19.2207013 31.613455,18.9816998 31.5154109,18.7486393 C31.3211873,18.2879503 31.1289837,17.8252244 30.911764,17.377436 C30.6452892,16.8278004 30.3688702,16.2824084 30.0686782,15.7541607 C29.8203827,15.3172361 29.531378,14.9079799 29.2597757,14.4870113 C28.6774157,13.584475 27.9838044,12.789727 27.2423364,12.0459027 C26.8496939,11.6519236 26.4346769,11.2822181 26.0114249,10.92762 C25.6015354,10.5842251 25.1745542,10.2634062 24.7427563,9.9532814 C24.4573253,9.74822895 24.1551134,9.56897781 23.8516584,9.39685597 C23.4291833,9.15700572 23.0014252,8.92767969 22.5702488,8.70768965 C22.2883915,8.56391529 21.9827613,8.47106456 21.7116251,8.30793923 C21.2512375,8.03074499 21.1294205,8.05926222 20.7959774,8.49499866 C20.5430206,8.82549296 20.2706414,9.15327132 19.9570868,9.40992637 C19.5108387,9.77521847 19.0642798,10.1562969 18.503362,10.3190827 C18.1074566,10.4340004 17.7280214,10.6466914 17.32761,10.7066115 C16.1266867,10.8862021 14.9821658,10.678264 13.9046133,10.0289878 C13.1197946,9.55624691 12.4710878,8.92988638 11.9438872,8.15024575 C11.8200503,7.96726021 11.7137711,7.9694669 11.5602568,8.06078993 C11.2137619,8.26703059 10.8720837,8.48464419 10.5154892,8.66745999 C10.3801542,8.73671611 10.209082,8.72228775 10.0543247,8.74656134 C9.96700174,8.76031072 9.86833615,8.75131422 9.79422043,8.79358082 C9.43700438,8.99710556 9.0793222,9.20198825 8.73515798,9.43029582 C8.26762293,9.74025092 7.78548227,10.0349289 7.35741346,10.4027672 C6.63909689,11.0199615 5.92559708,11.6527723 5.27191813,12.348389 C4.71162189,12.9443651 4.2134772,13.6168964 3.73351184,14.2941805 C3.33853873,14.8517942 3.0010558,15.4594827 2.65627007,16.057326 C2.45039305,16.4143006 2.268289,16.7894379 2.09597383,17.1672912 C1.87968643,17.6415598 1.67800464,18.124146 1.48207187,18.6087691 C1.36833453,18.8900372 1.27122273,19.1801321 1.17908306,19.470906 C1.0595967,19.8480803 0.949433072,20.2288192 0.840667856,20.6098976 C0.718695435,21.0376561 0.579165201,21.4616801 0.489666966,21.897756 C0.349359838,22.5808115 0.249606597,23.273882 0.123128189,23.9605021 C0.00488486123,24.6031582 -0.111649299,25.2359691 0.199885355,25.8636875 C0.653125548,26.7762388 1.04934169,27.0985853 1.98161497,26.8485504 C2.2749703,26.7699582 2.4912577,26.5696587 2.51782748,26.1882407 C2.5456403,25.7895088 2.59038942,25.3904374 2.65393938,24.9964583 C2.76254922,24.323927 2.88576467,23.6539419 3.01410763,22.9854845 C3.0922632,22.5786048 3.18315985,22.1739318 3.28928362,21.7748603 C3.30917212,21.7001724 3.4314553,21.6081703 3.50137579,21.6129232 C3.57347159,21.6180156 3.66250369,21.7185049 3.70134841,21.8011709 C3.74034851,21.8838369 3.7338226,21.9960386 3.73444411,22.0955094 C3.73755169,22.5887895 3.72698593,23.0825789 3.73988237,23.5755195 C3.74982662,23.9594836 3.75899398,24.3478611 3.81850409,24.7246959 C3.92587089,25.4048657 4.06307044,26.0797734 4.20275606,26.7533232 C4.28697141,27.1591844 4.39169678,27.5606323 4.50232654,27.9590248 C4.57457772,28.2194142 4.66702815,28.4740323 4.76336306,28.7252555 C4.87197289,29.0082211 4.9925469,29.2857548 5.1124994,29.5632885 C5.29708951,29.9901982 5.45573134,30.4347614 5.67932155,30.8362093 C6.01835827,31.4450861 6.38132333,32.0420806 6.77583031,32.6093698 C7.17189107,33.1786958 7.61099179,33.7133938 8.04931561,34.2457154 C8.16258681,34.3832092 8.21370646,34.5067839 8.21324033,34.685356 C8.20935585,36.458177 8.21090964,38.2313374 8.21090964,40.0041584" id="Fill-1" stroke="#A9DDE8" stroke-width="0.3"></path>
                        <path d="M15.2051373,0.216102494 C14.8720808,0.392031545 14.5163194,0.526546641 14.200445,0.730084995 C13.9025198,0.921905448 13.6145663,1.15096636 13.3735567,1.41502045 C12.9352599,1.89465184 12.5899305,2.44475117 12.3742338,3.08056775 C12.153628,3.73115209 11.9663125,4.38944136 12.0051256,5.08432901 C12.0276771,5.4904426 12.1293889,5.89093803 12.1833898,6.29576747 C12.255033,6.83222266 12.4931278,7.30270445 12.7487114,7.75247927 C13.1175128,8.40097687 13.6118049,8.94465542 14.2348092,9.3388906 C14.7261864,9.6498163 15.2401152,9.92045168 15.8278349,9.95801318 C16.5798583,10.0060084 17.3392456,10.0865891 18.0481604,9.71017152 C18.401007,9.52284561 18.7779392,9.36553679 19.0912056,9.12074499 C19.6166402,8.70981582 20.0469596,8.20096994 20.3682034,7.58441566 C20.6530887,7.03784776 20.8761491,6.46607835 20.9477923,5.8631682 C21.0935333,4.63728302 20.9488662,3.45489854 20.3266289,2.35807079 C19.8834229,1.57634226 19.2947827,0.967332384 18.5488957,0.528954429 C17.9228231,0.160883887 17.2441304,-0.0418518719 16.5126641,0.00726700546 C16.0697649,0.0215532149 15.6210361,-0.00364830063 15.2051373,0.216102494 Z" id="Fill-4"></path>
                    </g>
                    <g id="overweight" transform="translate(35.000000, 0.000000)">
                        <path d="M8.21090964,40.0041584 L8.20749131,40.0041584 C8.20749131,41.6265849 8.20873434,43.2490115 8.20686979,44.871438 C8.20593752,45.7254271 8.41445597,46.5088021 8.83444509,47.2305596 C9.46792478,48.3186276 10.3543613,48.9500805 11.5458065,48.9806347 C11.9681263,48.9914984 12.414996,48.9612837 12.8104352,48.8175093 C13.2035438,48.674414 13.5675965,48.3967105 13.905701,48.1215532 C14.3858217,47.730969 14.7015516,47.1791267 14.9318231,46.5848481 C15.1505966,46.0201051 15.2206724,45.4183577 15.2177202,44.8008239 C15.207776,42.7601447 15.2138358,40.7196353 15.2139911,38.6789561 C15.2139911,38.5453664 15.2056007,38.4104188 15.2194294,38.2783569 C15.235278,38.127623 15.303334,38.0597248 15.4666372,38.0632895 C16.0918818,38.0772086 16.7175926,38.0733045 17.3428372,38.061592 C17.4983714,38.0585366 17.5757501,38.1310179 17.6062044,38.2741133 C17.626559,38.3698497 17.6206546,38.4732246 17.6206546,38.5733744 C17.6212761,40.5889313 17.6226745,42.6043184 17.6204992,44.6198753 C17.6194116,45.5271645 17.7953005,46.374194 18.2193294,47.1704697 C18.5552586,47.8010739 19.036467,48.2475043 19.5861974,48.6119477 C20.0610353,48.9266556 20.6132518,48.9986277 21.1556795,48.9999856 C21.5178677,49.0010041 21.896526,48.9478738 22.2388257,48.8239597 C22.8326838,48.609062 23.3336253,48.2164409 23.7331044,47.6764808 C24.1872768,47.0626814 24.5253813,46.3947332 24.5828715,45.5925165 C24.6120827,45.184788 24.6344572,44.7748529 24.6350788,44.366106 C24.639274,41.347184 24.6383417,38.3280923 24.6355449,35.3090006 C24.6353895,35.0674529 24.5999631,34.8259052 24.6012062,34.5843575 C24.6018277,34.4884513 24.6353895,34.3709875 24.6924136,34.3005432 C24.9548485,33.9768387 25.2492915,33.6826699 25.4977423,33.347253 C25.8805959,32.8302085 26.2555251,32.3033188 26.5956495,31.752495 C26.8883833,31.2785658 27.1435154,30.7742522 27.3862172,30.2668832 C27.5897635,29.8411618 27.7668955,29.398296 27.927868,28.9510169 C28.139494,28.3635281 28.3539169,27.7736628 28.5106942,27.1673322 C28.6511567,26.6244864 28.7150174,26.0582158 28.8133722,25.5022996 C28.8250256,25.4367779 28.8449141,25.3727838 28.8540815,25.3069226 C28.9065995,24.9297483 28.963779,24.5530833 29.0054205,24.1743813 C29.0281058,23.9674617 29.0284166,23.7571471 29.0291935,23.5483603 C29.0316795,22.7975764 29.0302811,22.0469622 29.0293489,21.2961783 C29.0291935,21.1625887 28.9951655,21.0188143 29.0309026,20.8991438 C29.0568509,20.8120644 29.1654608,20.7173465 29.2498315,20.7002022 C29.3180428,20.6864528 29.4533778,20.7653844 29.4751309,20.8348103 C29.5742626,21.1479906 29.64496,21.4720345 29.7234263,21.7928533 C29.7997173,22.1051849 29.8742992,22.4180257 29.9467058,22.7313757 C29.9670604,22.8194735 29.9785584,22.9099478 29.9911441,23.0000826 C30.0206661,23.2119249 30.0376024,23.4268226 30.0793993,23.6357792 C30.1732482,24.1029185 30.301125,24.5630983 30.3733762,25.0338023 C30.4387907,25.4590145 30.4380138,25.8957694 30.4883565,26.3243766 C30.5080897,26.4925943 30.5531495,26.6825394 30.6466876,26.8101879 C30.8836404,27.1340621 31.6933198,27.2946413 32.0166632,27.0746512 C32.6401986,26.6504575 33.0286458,26.0208718 32.998347,25.2171273 C32.9703788,24.472624 32.827741,23.7299879 32.6997088,22.9941415 C32.6060153,22.4543512 32.4655528,21.9232178 32.325401,21.3948004 C32.1540181,20.7475612 31.9660097,20.1054143 31.7756706,19.4644557 C31.7031086,19.2207013 31.613455,18.9816998 31.5154109,18.7486393 C31.3211873,18.2879503 31.1289837,17.8252244 30.911764,17.377436 C30.6452892,16.8278004 30.3688702,16.2824084 30.0686782,15.7541607 C29.8203827,15.3172361 29.531378,14.9079799 29.2597757,14.4870113 C28.6774157,13.584475 27.9838044,12.789727 27.2423364,12.0459027 C26.8496939,11.6519236 26.4346769,11.2822181 26.0114249,10.92762 C25.6015354,10.5842251 25.1745542,10.2634062 24.7427563,9.9532814 C24.4573253,9.74822895 24.1551134,9.56897781 23.8516584,9.39685597 C23.4291833,9.15700572 23.0014252,8.92767969 22.5702488,8.70768965 C22.2883915,8.56391529 21.9827613,8.47106456 21.7116251,8.30793923 C21.2512375,8.03074499 21.1294205,8.05926222 20.7959774,8.49499866 C20.5430206,8.82549296 20.2706414,9.15327132 19.9570868,9.40992637 C19.5108387,9.77521847 19.0642798,10.1562969 18.503362,10.3190827 C18.1074566,10.4340004 17.7280214,10.6466914 17.32761,10.7066115 C16.1266867,10.8862021 14.9821658,10.678264 13.9046133,10.0289878 C13.1197946,9.55624691 12.4710878,8.92988638 11.9438872,8.15024575 C11.8200503,7.96726021 11.7137711,7.9694669 11.5602568,8.06078993 C11.2137619,8.26703059 10.8720837,8.48464419 10.5154892,8.66745999 C10.3801542,8.73671611 10.209082,8.72228775 10.0543247,8.74656134 C9.96700174,8.76031072 9.86833615,8.75131422 9.79422043,8.79358082 C9.43700438,8.99710556 9.0793222,9.20198825 8.73515798,9.43029582 C8.26762293,9.74025092 7.78548227,10.0349289 7.35741346,10.4027672 C6.63909689,11.0199615 5.92559708,11.6527723 5.27191813,12.348389 C4.71162189,12.9443651 4.2134772,13.6168964 3.73351184,14.2941805 C3.33853873,14.8517942 3.0010558,15.4594827 2.65627007,16.057326 C2.45039305,16.4143006 2.268289,16.7894379 2.09597383,17.1672912 C1.87968643,17.6415598 1.67800464,18.124146 1.48207187,18.6087691 C1.36833453,18.8900372 1.27122273,19.1801321 1.17908306,19.470906 C1.0595967,19.8480803 0.949433072,20.2288192 0.840667856,20.6098976 C0.718695435,21.0376561 0.579165201,21.4616801 0.489666966,21.897756 C0.349359838,22.5808115 0.249606597,23.273882 0.123128189,23.9605021 C0.00488486123,24.6031582 -0.111649299,25.2359691 0.199885355,25.8636875 C0.653125548,26.7762388 1.04934169,27.0985853 1.98161497,26.8485504 C2.2749703,26.7699582 2.4912577,26.5696587 2.51782748,26.1882407 C2.5456403,25.7895088 2.59038942,25.3904374 2.65393938,24.9964583 C2.76254922,24.323927 2.88576467,23.6539419 3.01410763,22.9854845 C3.0922632,22.5786048 3.18315985,22.1739318 3.28928362,21.7748603 C3.30917212,21.7001724 3.4314553,21.6081703 3.50137579,21.6129232 C3.57347159,21.6180156 3.66250369,21.7185049 3.70134841,21.8011709 C3.74034851,21.8838369 3.7338226,21.9960386 3.73444411,22.0955094 C3.73755169,22.5887895 3.72698593,23.0825789 3.73988237,23.5755195 C3.74982662,23.9594836 3.75899398,24.3478611 3.81850409,24.7246959 C3.92587089,25.4048657 4.06307044,26.0797734 4.20275606,26.7533232 C4.28697141,27.1591844 4.39169678,27.5606323 4.50232654,27.9590248 C4.57457772,28.2194142 4.66702815,28.4740323 4.76336306,28.7252555 C4.87197289,29.0082211 4.9925469,29.2857548 5.1124994,29.5632885 C5.29708951,29.9901982 5.45573134,30.4347614 5.67932155,30.8362093 C6.01835827,31.4450861 6.38132333,32.0420806 6.77583031,32.6093698 C7.17189107,33.1786958 7.61099179,33.7133938 8.04931561,34.2457154 C8.16258681,34.3832092 8.21370646,34.5067839 8.21324033,34.685356 C8.20935585,36.458177 8.21090964,38.2313374 8.21090964,40.0041584" id="Fill-1" stroke="#A9DDE8" stroke-width="0.3"></path>
                        <path d="M15.2051373,0.216102494 C14.8720808,0.392031545 14.5163194,0.526546641 14.200445,0.730084995 C13.9025198,0.921905448 13.6145663,1.15096636 13.3735567,1.41502045 C12.9352599,1.89465184 12.5899305,2.44475117 12.3742338,3.08056775 C12.153628,3.73115209 11.9663125,4.38944136 12.0051256,5.08432901 C12.0276771,5.4904426 12.1293889,5.89093803 12.1833898,6.29576747 C12.255033,6.83222266 12.4931278,7.30270445 12.7487114,7.75247927 C13.1175128,8.40097687 13.6118049,8.94465542 14.2348092,9.3388906 C14.7261864,9.6498163 15.2401152,9.92045168 15.8278349,9.95801318 C16.5798583,10.0060084 17.3392456,10.0865891 18.0481604,9.71017152 C18.401007,9.52284561 18.7779392,9.36553679 19.0912056,9.12074499 C19.6166402,8.70981582 20.0469596,8.20096994 20.3682034,7.58441566 C20.6530887,7.03784776 20.8761491,6.46607835 20.9477923,5.8631682 C21.0935333,4.63728302 20.9488662,3.45489854 20.3266289,2.35807079 C19.8834229,1.57634226 19.2947827,0.967332384 18.5488957,0.528954429 C17.9228231,0.160883887 17.2441304,-0.0418518719 16.5126641,0.00726700546 C16.0697649,0.0215532149 15.6210361,-0.00364830063 15.2051373,0.216102494 Z" id="Fill-4"></path>
                    </g>
                    <g id="overweight" transform="translate(22.000000, 12.000000)" stroke="#A9DDE8" stroke-width="0.3">
                        <path d="M5.97157065,30.1982661 L5.96908459,30.1982661 C5.96908459,31.4249789 5.96998861,32.6516916 5.96863258,33.8784044 C5.96795456,34.5241034 6.11960435,35.1164114 6.42505097,35.6621304 C6.88576348,36.484816 7.53044457,36.962256 8.39695021,36.9853579 C8.70409188,36.9935719 9.029088,36.9707267 9.31668018,36.8620193 C9.60257732,36.7538252 9.86734293,36.5438543 10.1132371,36.3358085 C10.4624158,36.0404888 10.6920375,35.6232422 10.8595077,35.1739095 C11.0186157,34.7469088 11.0695799,34.291929 11.0674329,33.8250132 C11.0602007,32.2820606 11.0646078,30.7392364 11.0647208,29.1962838 C11.0647208,29.0952771 11.0586187,28.9932435 11.0686759,28.8933918 C11.0802022,28.7794223 11.1296974,28.7280846 11.2484634,28.7307799 C11.7031868,28.7413041 12.1582491,28.7383522 12.6129725,28.7294964 C12.7260883,28.7271862 12.7823637,28.7819891 12.8045123,28.8901832 C12.8193156,28.9625693 12.8150215,29.0407308 12.8150215,29.1164538 C12.8154735,30.6404115 12.8164906,32.1642408 12.8149085,33.6881984 C12.8141175,34.3741975 12.9420367,35.0146345 13.2504214,35.6166966 C13.4947335,36.0934949 13.8447032,36.4310398 14.2445072,36.7065946 C14.5898438,36.9445445 14.9914559,36.9989624 15.3859487,36.9999891 C15.6493583,37.0007592 15.9247462,36.9605875 16.1736914,36.8668963 C16.6055882,36.7044127 16.9699093,36.4075529 17.2604395,35.9992903 C17.5907468,35.5351981 17.8366409,35.0301642 17.878452,34.42361 C17.8996965,34.1153275 17.9159689,33.8053766 17.9164209,33.496324 C17.919472,31.2137245 17.918794,28.9309966 17.9167599,26.6482688 C17.9166469,26.4656351 17.8908823,26.2830015 17.8917863,26.1003679 C17.8922383,26.0278535 17.9166469,25.9390394 17.958119,25.8857766 C18.1489807,25.6410244 18.3631211,25.4186041 18.5438126,25.1649962 C18.8222515,24.7740601 19.0949273,24.3756801 19.3422905,23.9592035 C19.5551878,23.6008668 19.7407385,23.2195566 19.9172489,22.8359361 C20.0652826,22.5140491 20.1941058,22.1791994 20.3111767,21.8410128 C20.4650866,21.3968139 20.6210304,20.9508182 20.7350503,20.4923731 C20.8372048,20.0819288 20.883649,19.6537729 20.9551798,19.233446 C20.963655,19.1839052 20.9781194,19.1355195 20.9847865,19.085722 C21.0229815,18.8005414 21.0645665,18.5157459 21.0948513,18.2294103 C21.1113497,18.0729588 21.1115757,17.9139405 21.1121407,17.7560773 C21.1139488,17.1884114 21.1129317,16.6208739 21.1122537,16.053208 C21.1121407,15.9522012 21.0873931,15.8434938 21.1133837,15.7530112 C21.1322552,15.6871707 21.2112442,15.6155547 21.2726047,15.6025919 C21.322213,15.592196 21.4206384,15.651876 21.4364588,15.7043688 C21.5085546,15.9411636 21.5599709,16.1861725 21.6170373,16.4287428 C21.6725217,16.6648959 21.7267631,16.901434 21.7794224,17.1383572 C21.7942257,17.2049678 21.802588,17.2733752 21.8117412,17.3415259 C21.8332117,17.5016993 21.845529,17.6641829 21.8759268,17.8221745 C21.9441805,18.1753774 22.0371818,18.5233182 22.0897281,18.8792164 C22.1373023,19.2007183 22.1367373,19.5309476 22.1733502,19.8550164 C22.1877016,19.9822054 22.2204724,20.1258224 22.2885001,20.2223372 C22.4608294,20.4672177 23.0496871,20.5886312 23.284846,20.4222973 C23.7383263,20.1015654 24.0208333,19.6255372 23.9987978,19.017828 C23.9784573,18.4549108 23.8747207,17.8934055 23.7816064,17.3370339 C23.7134657,16.9288997 23.6113111,16.527311 23.5093826,16.1277759 C23.3847405,15.6383999 23.248007,15.1528742 23.1095786,14.668247 C23.0568063,14.4839449 22.9916036,14.3032364 22.9202989,14.12702 C22.7790453,13.7786941 22.6392608,13.4288282 22.4812829,13.0902565 C22.2874831,12.6746783 22.086451,12.2623088 21.8681296,11.862902 C21.6875511,11.5325443 21.4773658,11.2231068 21.2798369,10.9048134 C20.8563023,10.2224079 20.3518577,9.62150093 19.8126083,9.05909716 C19.5270501,8.76121054 19.2252196,8.48167713 18.9173999,8.21356634 C18.6192985,7.95392626 18.3087667,7.71135594 17.9947319,7.4768713 C17.7871457,7.32183165 17.5673552,7.1863003 17.3466607,7.05615939 C17.039406,6.87480921 16.7283092,6.70141635 16.4147264,6.53508242 C16.2097393,6.42637498 15.9874627,6.35617076 15.7902728,6.2328321 C15.4554455,6.02324621 15.3668513,6.04480802 15.1243472,6.37426728 C14.9403786,6.62415321 14.7422847,6.87198564 14.514245,7.06604189 C14.1897009,7.34223836 13.8649307,7.63037082 13.4569906,7.7534528 C13.1690594,7.84034174 12.8931065,8.00115688 12.6018982,8.04646234 C11.7284994,8.18225038 10.8961206,8.02502888 10.112446,7.53411276 C9.54166879,7.17667449 9.06988201,6.70308482 8.68646344,6.11360045 C8.59640019,5.97524552 8.51910626,5.976914 8.40745947,6.04596311 C8.15546318,6.20190118 7.90696998,6.36643829 7.6476285,6.50466487 C7.54920304,6.55702925 7.42478694,6.54612001 7.31223613,6.56447321 C7.24872854,6.57486908 7.17697175,6.56806685 7.1230694,6.60002452 C6.86327591,6.75390908 6.60314342,6.90882039 6.35284217,7.08144318 C6.01281668,7.31579948 5.66216892,7.5386048 5.35084615,7.81672643 C4.8284341,8.28338552 4.30952515,8.76185226 3.83412228,9.28780632 C3.4266341,9.73842239 3.06434705,10.2469217 2.71528134,10.7590145 C2.42802817,11.1806249 2.18258604,11.6400967 1.93183278,12.0921245 C1.78210404,12.3620321 1.64966473,12.6456726 1.5243446,12.9313665 C1.36704467,13.2899599 1.22036701,13.6548421 1.07787045,14.0212645 C0.995152387,14.2339306 0.924525623,14.4532706 0.85751495,14.6731241 C0.77061578,14.9583046 0.690496779,15.2461804 0.611394804,15.5343129 C0.522687589,15.8577399 0.421211055,16.1783435 0.35612143,16.5080594 C0.254079882,17.024516 0.181532071,17.5485449 0.0895477737,18.0676967 C0.00355262635,18.5536074 -0.0811994899,19.0320742 0.145371168,19.5066906 C0.475000398,20.1966684 0.763157594,20.4403938 1.44117452,20.251343 C1.65452385,20.1919196 1.81182378,20.0404736 1.83114726,19.7520845 C1.85137477,19.4506042 1.88391958,19.1488673 1.93013773,18.8509807 C2.00912671,18.3424814 2.09873794,17.8359073 2.19207827,17.3304883 C2.24891869,17.0228475 2.31502534,16.7168752 2.39220627,16.4151383 C2.40667063,16.3586669 2.49560385,16.2891044 2.54645512,16.292698 C2.59888843,16.2965484 2.66363905,16.3725281 2.69188975,16.4350316 C2.72025346,16.4975352 2.71550734,16.5823706 2.71595936,16.6575803 C2.71821941,17.0305482 2.71053522,17.4039011 2.71991445,17.7766123 C2.72714663,18.0669267 2.7338138,18.3605779 2.77709388,18.6455018 C2.85517883,19.1597765 2.95496032,19.6700726 3.05654986,20.1793419 C3.11779739,20.4862126 3.19396129,20.7897464 3.2744193,21.0909699 C3.32696561,21.2878498 3.39420229,21.4803659 3.46426404,21.6703151 C3.54325301,21.8842647 3.6309432,22.0941073 3.71818138,22.3039499 C3.85242873,22.6267352 3.96780461,22.9628684 4.13041567,23.2664022 C4.37698783,23.7267724 4.64096242,24.1781585 4.92787659,24.6070845 C5.21592078,25.0375505 5.53526675,25.4418344 5.85404771,25.8443214 C5.93642677,25.9482801 5.9736047,26.0417146 5.97326569,26.1767326 C5.97044062,27.5171582 5.97157065,28.8578405 5.97157065,30.1982661" id="Fill-1"></path>
                        <path d="M10.9928846,0.851222918 C10.7338406,0.974373253 10.4571373,1.06853382 10.2114572,1.21101067 C9.9797376,1.34528499 9.75577376,1.50562762 9.56832188,1.69046549 C9.22742435,2.02620746 8.9588348,2.41127699 8.79107073,2.85634859 C8.61948842,3.31175764 8.47379858,3.77256013 8.50398656,4.25898148 C8.52152662,4.54326099 8.60063585,4.82360779 8.64263652,5.1069884 C8.69835901,5.48250703 8.88354381,5.81184429 9.0823311,6.12668666 C9.36917663,6.58063498 9.753626,6.96120997 10.2381849,7.23717459 C10.6203672,7.45482258 11.0200896,7.64426735 11.4772049,7.6705604 C12.062112,7.70415707 12.6527465,7.76056352 13.2041247,7.49707124 C13.478561,7.3659431 13.7717305,7.25582692 14.0153821,7.08447267 C14.4240535,6.79682225 14.7587464,6.44063013 15.0086026,6.00904214 C15.2301801,5.6264446 15.4036715,5.22620601 15.459394,4.80416891 C15.5727481,3.94604928 15.4602292,3.11838015 14.9762669,2.35060073 C14.6315511,1.80339075 14.1737199,1.37708384 13.5935856,1.07021927 C13.1066402,0.812569893 12.5787681,0.670654862 12.0098498,0.705038076 C11.6653727,0.715038422 11.3163614,0.697397361 10.9928846,0.851222918 Z" id="Fill-4"></path>
                    </g>
                </g>
            </g>
        </g>
    </g>
</svg>