<?xml version="1.0" encoding="UTF-8"?>
<svg width="103px" height="103px" viewBox="0 0 103 103" version="1.1" xmlns="http://www.w3.org/2000/svg" xmlns:xlink="http://www.w3.org/1999/xlink">
    <!-- Generator: Sketch 52.2 (67145) - http://www.bohemiancoding.com/sketch -->
    <title>Group 13</title>
    <desc>Created with Sketch.</desc>
    <g id="Page-1" stroke="none" stroke-width="1" fill="none" fill-rule="evenodd">
        <g id="Desktop" transform="translate(-70.000000, -3981.000000)">
            <g id="Group-13" transform="translate(70.000000, 3981.000000)">
                <rect id="Rectangle-6" fill-opacity="0.7" fill="#05BCB0" x="0" y="0" width="103" height="103"></rect>
                <path d="M34.9289266,79.2307078 C34.9289266,76.3201062 34.9261016,73.4089473 34.9331642,70.4983457 C34.9340117,70.2051675 34.8410669,70.0022838 34.6351193,69.7765477 C33.8381669,68.9025869 33.039802,68.0247245 32.3196915,67.0900101 C31.6024061,66.1586398 30.9424696,65.1784995 30.3260392,64.1788511 C29.9195115,63.5197576 29.6310718,62.7898777 29.2954535,62.0889812 C29.077358,61.6333288 28.8581325,61.1776764 28.6606601,60.7131061 C28.4855057,60.3006501 28.317414,59.8826203 28.1860483,59.4551153 C27.9849032,58.8010381 27.7944935,58.1419446 27.6413747,57.4756052 C27.3874008,56.3697773 27.1379471,55.2617198 26.9427347,54.1450231 C26.8345345,53.5263391 26.8178666,52.8887045 26.7997861,52.2583157 C26.7763381,51.4490101 26.7955485,50.6383112 26.7898984,49.8284483 C26.7887684,49.665138 26.8006337,49.4809262 26.7297244,49.3452059 C26.6590976,49.2094856 26.4972211,49.0445032 26.3661378,49.0361426 C26.2390096,49.0283394 26.0166766,49.1793875 25.9805157,49.3020095 C25.7875634,49.9572014 25.6222967,50.62159 25.4801957,51.2896015 C25.2468449,52.3870688 25.0228168,53.4870444 24.8253443,54.5912002 C24.7097989,55.2380315 24.6284369,55.8932234 24.5778682,56.5478579 C24.5295594,57.1740665 24.1363096,57.5029165 23.6029363,57.6319483 C21.907894,58.0424535 21.187501,57.5132279 20.3634279,56.0150094 C19.7970013,54.9844268 20.0088816,53.9454836 20.2238694,52.8903766 C20.4538302,51.7630898 20.6351997,50.6252129 20.8903036,49.5037785 C21.0530276,48.7878329 21.306719,48.0916741 21.528487,47.3893842 C21.7262419,46.7637331 21.9265395,46.1386393 22.1437874,45.5193979 C22.3113141,45.042008 22.487881,44.5657328 22.6946761,44.1039493 C23.0509175,43.3082994 23.4176117,42.5159937 23.8108615,41.7373437 C24.1241618,41.1169876 24.4552601,40.5010905 24.8295819,39.9150128 C25.4564651,38.9334791 26.0700704,37.9357815 26.7882033,37.0202964 C27.6608676,35.9083373 28.5665853,34.8041815 29.5853057,33.8257133 C30.7738129,32.6836561 32.0710853,31.6447129 33.3771154,30.6314089 C34.1554223,30.0274953 35.0320417,29.5436955 35.8821054,29.034814 C36.5078585,28.6599807 37.1581898,28.3236061 37.8076735,27.989461 C37.9424294,27.9200681 38.1218213,27.9348385 38.2805903,27.9122649 C38.5619673,27.8724127 38.8730076,27.8961011 39.1190713,27.782397 C39.7674249,27.4822517 40.388658,27.1249756 41.0186487,26.7863715 C41.2977657,26.6364382 41.4910005,26.6328153 41.7161586,26.9332393 C42.674705,28.2132463 43.854172,29.2415994 45.2811151,30.0177412 C47.2403015,31.083717 49.3212485,31.425108 51.5047455,31.1302577 C52.2327662,31.0318813 52.9226484,30.6826872 53.6424764,30.4940164 C54.6623269,30.2267561 55.4742521,29.601105 56.2856124,29.0013717 C56.8557116,28.5799977 57.3509465,28.0418541 57.810868,27.4992515 C58.4171281,26.7838633 58.6386137,26.737044 59.4756821,27.192139 C59.9686569,27.4599567 60.5243482,27.6123982 61.036816,27.8484457 C61.8207731,28.2096234 62.598515,28.5861288 63.3666517,28.9799128 C63.918388,29.2625009 64.4678642,29.5567938 64.9868297,29.8934471 C65.7719168,30.4026073 66.5482462,30.9293247 67.2934998,31.4931075 C68.063049,32.0752835 68.8176253,32.6822627 69.5315207,33.329094 C70.8796443,34.5502981 72.1407558,35.8551082 73.1995922,37.3368842 C73.6934146,38.0280267 74.2188777,38.6999398 74.670324,39.4172788 C75.2161276,40.2845511 75.7187077,41.1799708 76.2032072,42.0823576 C76.5981521,42.8175325 76.9476133,43.5772319 77.3007472,44.333587 C77.4790091,44.7162235 77.6420157,45.1086141 77.7739465,45.5088078 C78.1200176,46.561128 78.4618511,47.6153989 78.7734564,48.6780305 C79.0282778,49.5455815 79.2836642,50.4175915 79.4540159,51.3038145 C79.6868017,52.5119204 79.9461432,53.7311737 79.9969945,54.9534926 C80.0520834,56.2730731 79.3458157,57.3067212 78.2121149,58.0031587 C77.6242177,58.3643364 76.1520735,58.100699 75.7212502,57.5689652 C75.551181,57.359393 75.4692539,57.0475428 75.4333755,56.7713645 C75.3418432,56.0676811 75.3432558,55.3506208 75.2243203,54.6525112 C75.0929545,53.8797136 74.8604512,53.1241946 74.689817,52.3572494 C74.6138226,52.0141863 74.5830293,51.6613692 74.529353,51.3135685 C74.5064699,51.165586 74.4855644,51.0170461 74.4485559,50.8724078 C74.3169076,50.3579526 74.1813043,49.8443334 74.0425933,49.3315503 C73.8999272,48.8048328 73.7713865,48.2728203 73.591147,47.7586438 C73.551596,47.644661 73.3055324,47.5150718 73.1815118,47.5376454 C73.0281105,47.5657927 72.830638,47.7212998 72.7834594,47.864266 C72.7184827,48.0607399 72.7803518,48.2967874 72.7806343,48.5161136 C72.7823293,49.7487439 72.7848719,50.9810955 72.7803518,52.2137258 C72.7789392,52.5565102 72.7783742,52.9018027 72.7371282,53.2415216 C72.6614163,53.8632711 72.5574537,54.4816764 72.4619663,55.1009177 C72.4452984,55.2090481 72.4091375,55.3141129 72.3879495,55.4216859 C72.2091225,56.3343841 72.0930121,57.2640822 71.8376257,58.1553216 C71.5525761,59.1507897 71.1627164,60.1192252 70.7779418,61.0837591 C70.4852645,61.8180979 70.1632064,62.545191 69.7931222,63.2441367 C69.3518462,64.0771305 68.8879696,64.9051081 68.3557263,65.6832007 C67.7373184,66.5875383 67.0556288,67.4525812 66.3595315,68.3014602 C65.9078027,68.8521447 65.3724518,69.3351083 64.8952974,69.8665634 C64.7916173,69.9822183 64.7305958,70.1750694 64.7294657,70.3325272 C64.7272057,70.7290981 64.7916173,71.125669 64.7918998,71.5222398 C64.7969849,76.4789575 64.79868,81.4356752 64.7910523,86.3921143 C64.7899223,87.0631913 64.7492412,87.7362191 64.6961299,88.4056241 C64.5916023,89.7226964 63.976867,90.8193277 63.1510988,91.827058 C62.4247732,92.7135596 61.5139705,93.3581615 60.4342285,93.7109786 C59.8118655,93.9144197 59.1233958,94.0016486 58.4648718,93.9999764 C57.4786397,93.9977469 56.4746096,93.8795839 55.6112681,93.3628991 C54.6117581,92.7645593 53.7368338,92.0316138 53.1260535,90.9962936 C52.3550918,89.6889753 52.0352938,88.2983298 52.0372713,86.8087505 C52.0412264,83.4996273 52.0386839,80.1907827 52.0375538,76.8816595 C52.0375538,76.7172345 52.0482891,76.5475144 52.0112807,76.3903352 C51.9559093,76.1554025 51.8152208,76.0364034 51.5324312,76.0414198 C50.3956228,76.0606491 49.2579669,76.0670589 48.1211585,76.0442066 C47.8242436,76.0383542 47.7005055,76.1498288 47.6716898,76.3973024 C47.6465467,76.6141205 47.6618021,76.8356762 47.6618021,77.0550025 C47.6615196,80.4053713 47.6505018,83.7554615 47.6685822,87.1058303 C47.6739499,88.1196917 47.5465392,89.1076353 47.1487693,90.0348252 C46.7300938,91.0105066 46.1560395,91.9165163 45.2830927,92.5577739 C44.6683573,93.0095247 44.0064433,93.4654558 43.2917004,93.7003885 C42.57272,93.9364359 41.7602297,93.9860421 40.9923755,93.9682062 C38.8261114,93.9180426 37.2144087,92.8813289 36.0626274,91.0949486 C35.2990109,89.9099737 34.9198864,88.6238356 34.9215814,87.2217639 C34.9249715,84.5580785 34.9227115,81.8943932 34.9227115,79.2307078 L34.9289266,79.2307078 Z M47.7097667,12.3702771 C48.4453699,11.9937489 49.2390399,12.03693 50.022399,12.0124515 C51.316149,11.9282896 52.5165579,12.2756637 53.6238972,12.9063279 C54.9431531,13.6574591 55.9842854,14.7009566 56.7681871,16.0403959 C57.8687429,17.9197366 58.1246167,19.945673 57.8668435,22.0461449 C57.7401276,23.079191 57.345599,24.0588794 56.8417203,24.9953868 C56.273534,26.0518112 55.5124248,26.9236844 54.5830847,27.627784 C54.0290081,28.0472183 53.3623252,28.3167564 52.7382428,28.6377267 C51.4843799,29.2826929 50.141246,29.1446234 48.8111365,29.0623868 C47.7716323,28.9980277 46.8626427,28.5343121 45.9935401,28.0015618 C44.8916276,27.3260663 44.0173696,26.3945096 43.3650678,25.2833525 C42.9130151,24.5126936 42.4918951,23.7065546 42.3651793,22.7873747 C42.2696675,22.0937266 42.089769,21.4075046 42.049882,20.7116563 C41.9812329,19.521013 42.3125393,18.3930785 42.7027264,17.2783459 C43.0842307,16.1889169 43.6950175,15.2463587 44.4702363,14.4245425 C44.8965118,13.9721035 45.4058173,13.5796231 45.9327599,13.2509516 C46.4914493,12.9022023 47.1206872,12.6717197 47.7097667,12.3702771 Z" id="overweight" fill="#FFFFFF"></path>
            </g>
        </g>
    </g>
</svg>