<?xml version="1.0" encoding="UTF-8"?>
<svg width="84px" height="84px" viewBox="0 0 84 84" version="1.1" xmlns="http://www.w3.org/2000/svg" xmlns:xlink="http://www.w3.org/1999/xlink">
    <!-- Generator: Sketch 51 (57462) - http://www.bohemiancoding.com/sketch -->
    <title>Group 13</title>
    <desc>Created with Sketch.</desc>
    <defs></defs>
    <g id="Page-1" stroke="none" stroke-width="1" fill="none" fill-rule="evenodd">
        <g id="Desktop" transform="translate(-90.000000, -3866.000000)">
            <g id="Group-13" transform="translate(90.000000, 3866.000000)">
                <rect id="Rectangle-6" fill="#A9DDE8" x="0" y="0" width="84" height="84"></rect>
                <path d="M28.1919567,64.9324076 C28.1919567,62.5542331 28.1896496,60.1756033 28.1954175,57.7974288 C28.1961096,57.5578808 28.1202047,57.3921099 27.9520141,57.207667 C27.3011696,56.4935771 26.6491716,55.7762993 26.0610814,55.0125692 C25.4752983,54.2515716 24.9363502,53.4507252 24.432932,52.6339393 C24.1009344,52.0954117 23.8653753,51.4990464 23.591287,50.9263627 C23.4131757,50.5540613 23.2341416,50.18176 23.0728724,49.802172 C22.9298297,49.4651653 22.7925548,49.1236044 22.6852727,48.7743015 C22.5210043,48.2398726 22.365503,47.701345 22.240456,47.156897 C22.033044,46.2533546 21.8293234,45.3479906 21.6699,44.4355677 C21.5815365,43.9300576 21.5679244,43.4090634 21.5531587,42.8939896 C21.5340094,42.2327278 21.549698,41.5703274 21.5450837,40.9086102 C21.5441608,40.7751737 21.5538508,40.6246592 21.4959416,40.5137658 C21.4382631,40.4028724 21.3060639,40.2680697 21.1990125,40.2612385 C21.0951912,40.2548627 20.9136192,40.37828 20.8840878,40.4784712 C20.7265101,41.0138109 20.5915423,41.556665 20.4754931,42.1024792 C20.2849233,42.9991904 20.101967,43.8979509 19.9406979,44.800127 C19.8463358,45.3286355 19.7798901,45.8639752 19.7385923,46.3988595 C19.6991402,46.9105177 19.3779862,47.1792123 18.942398,47.2846407 C17.5581134,47.6200535 16.9697925,47.1876374 16.2967995,45.9634833 C15.8342177,45.1214219 16.0072533,44.2725293 16.1828267,43.4104297 C16.370628,42.4893539 16.5187464,41.5596252 16.7270813,40.6433312 C16.8599726,40.0583513 17.0671538,39.4895386 17.2482644,38.9157164 C17.4097643,38.4045136 17.5733406,37.8937662 17.7507597,37.3878007 C17.8875731,36.9977382 18.0317695,36.6085866 18.2006522,36.2312756 C18.4915826,35.5811715 18.7910495,34.9337998 19.1122036,34.2975857 C19.3680655,33.7907094 19.6384624,33.2874764 19.9441586,32.8086081 C20.4561132,32.0066231 20.9572242,31.1914312 21.5436994,30.4434129 C22.2563752,29.534861 22.9960446,28.6326849 23.8279996,27.8332048 C24.7986138,26.9000605 25.858053,26.0511679 26.9246442,25.2232243 C27.5602616,24.7297827 28.2761674,24.3344829 28.9703861,23.9186895 C29.4814178,23.6124233 30.0125217,23.3375806 30.5429334,23.0645596 C30.652984,23.0078605 30.7994874,23.019929 30.9291488,23.0014847 C31.15894,22.9689226 31.4129562,22.9882777 31.6139082,22.8953732 C32.143397,22.6501325 32.6507373,22.3582118 33.1652298,22.0815475 C33.3931753,21.959041 33.5509837,21.9560808 33.7348629,22.2015492 C34.5176758,23.2474086 35.4809071,24.0876483 36.646244,24.721813 C38.2462463,25.5927932 39.9456863,25.8717345 41.7288755,25.6308203 C42.3234257,25.5504396 42.8868296,25.2651224 43.4746891,25.1109646 C44.3075669,24.8925934 44.9706392,24.3813906 45.6332501,23.8913646 C46.0988312,23.5470713 46.503273,23.1073686 46.8788755,22.6640226 C47.373988,22.0794981 47.5548678,22.0412433 48.2384737,22.4130892 C48.6410698,22.6319159 49.0948844,22.7564717 49.5133998,22.9493398 C50.1536314,23.2444484 50.7887873,23.5520808 51.4160989,23.8738312 C51.8666835,24.1047263 52.3154224,24.3451852 52.7392442,24.6202555 C53.3803987,25.0362767 54.014401,25.4666434 54.6230248,25.9272951 C55.25149,26.4029756 55.8677274,26.8989219 56.4507419,27.4274304 C57.5517095,28.4252436 58.5816172,29.4913689 59.4463337,30.7020883 C59.8496219,31.2668023 60.2787501,31.8158045 60.6474312,32.4019229 C61.0931709,33.1105479 61.5036112,33.8421712 61.8992859,34.5794873 C62.2218242,35.180179 62.5072176,35.800909 62.7956102,36.4189064 C62.9411908,36.7315485 63.0743128,37.0521603 63.1820563,37.3791479 C63.464681,38.2389704 63.7438451,39.1003869 63.9983227,39.9686347 C64.2064269,40.6774873 64.4149924,41.3899833 64.554113,42.1140923 C64.7442214,43.1012032 64.956017,44.0974224 64.9975455,45.0961464 C65.0425347,46.1743402 64.4657495,47.0189064 63.5398938,47.5879468 C63.0597778,47.8830554 61.8575267,47.6676443 61.5056877,47.2331789 C61.3667978,47.061943 61.2998907,46.8071386 61.27059,46.5814808 C61.1958386,46.00652 61.1969922,45.4206292 61.0998616,44.8502226 C60.9925795,44.2187904 60.8027018,43.601476 60.6633505,42.9748257 C60.6012884,42.6945181 60.5761406,42.4062407 60.5323049,42.1220621 C60.5136171,42.0011495 60.4965442,41.8797816 60.4663207,41.7616015 C60.3588079,41.3412539 60.2480651,40.9215895 60.1347845,40.5026081 C60.0182739,40.0722415 59.913299,39.6375483 59.7661034,39.2174285 C59.7338034,39.1242962 59.5328515,39.0184123 59.431568,39.0368566 C59.3062902,39.059855 59.1450211,39.1869157 59.1064918,39.3037295 C59.0534276,39.4642631 59.103954,39.6571311 59.1041847,39.8363367 C59.105569,40.8434859 59.1076454,41.8504073 59.103954,42.8575565 C59.1028004,43.1376364 59.102339,43.4197657 59.0686547,43.6973408 C59.0068233,44.2053557 58.9219205,44.710638 58.8439392,45.2166035 C58.830327,45.3049539 58.8007956,45.3907996 58.7834921,45.4786946 C58.6374501,46.2244358 58.5426266,46.9840672 58.334061,47.7122749 C58.1012705,48.5256452 57.782885,49.3169279 57.4686525,50.1050227 C57.2296327,50.7050312 56.9666186,51.2991194 56.6643831,51.8702092 C56.3040077,52.5508262 55.9251752,53.2273444 55.4905098,53.863103 C54.9854767,54.602013 54.4287635,55.3088163 53.860284,56.0024126 C53.4913722,56.4523621 53.054169,56.8469788 52.6644929,57.2812165 C52.5798208,57.375715 52.5299865,57.5332884 52.5290637,57.661943 C52.527218,57.9859704 52.5798208,58.3099978 52.5800515,58.6340252 C52.5842044,62.6840263 52.5855886,66.7340273 52.5793594,70.7838007 C52.5784365,71.3321197 52.5452137,71.8820327 52.5018394,72.4289855 C52.4164752,73.50513 51.9144413,74.401158 51.240064,75.2245474 C50.6468981,75.9488841 49.9030759,76.475571 49.0212866,76.7638483 C48.5130235,76.9300746 47.9507732,77.001347 47.4129787,76.9999807 C46.6075557,76.9981591 45.7875979,76.9016112 45.0825356,76.479442 C44.2662691,75.9905545 43.5517476,75.3916845 43.0529437,74.5457521 C42.4233249,73.4775774 42.1621566,72.3413182 42.1637716,71.124223 C42.1670016,68.4204272 42.1649251,65.7168591 42.1640023,63.0130632 C42.1640023,62.878716 42.1727694,62.7400423 42.1425459,62.6116154 C42.0973259,62.4196582 41.9824303,62.3224272 41.7514855,62.3265259 C40.823092,62.3422377 39.8940063,62.347475 38.9656128,62.328803 C38.7231323,62.3240211 38.6220795,62.415104 38.5985467,62.617308 C38.5780131,62.7944643 38.5904717,62.9754915 38.5904717,63.1546971 C38.590241,65.8921936 38.5812431,68.6294624 38.5960088,71.3669589 C38.6003924,72.1953579 38.4963403,73.0025801 38.1714949,73.7601621 C37.8295766,74.5573651 37.3607656,75.2976414 36.647859,75.8215958 C36.1458251,76.1907092 35.605262,76.5632383 35.0215554,76.7551955 C34.434388,76.9480635 33.7708543,76.9885954 33.1437733,76.9740221 C31.3746577,76.9330348 30.0584338,76.0859639 29.1178124,74.6263604 C28.4941922,73.6581492 28.1845739,72.6072803 28.1859582,71.4616851 C28.1887267,69.2852593 28.186881,67.1088334 28.186881,64.9324076 L28.1919567,64.9324076 Z M38.6296428,10.3025435 C39.2303854,9.99489238 39.8785493,10.0301745 40.5182925,10.0101738 C41.574855,9.94140738 42.555189,10.2252374 43.459516,10.7405362 C44.5369084,11.3542653 45.3871664,12.2068792 46.0273528,13.3012991 C46.92614,14.836858 47.1351036,16.4921962 46.9245889,18.2084355 C46.8211042,19.0525097 46.4989059,19.8529869 46.0874049,20.6181819 C45.6233861,21.4813579 45.0018136,22.1937422 44.2428525,22.769043 C43.7903566,23.1117515 43.2458989,23.3319839 42.7362316,23.5942401 C41.7122436,24.1212247 40.6153509,24.0084118 39.5290948,23.9412185 C38.6801663,23.8886324 37.9378249,23.5097428 37.2280577,23.0744468 C36.3281626,22.5225176 35.6141852,21.7613676 35.081472,20.853471 C34.7122957,20.2237862 34.368381,19.5651117 34.2648964,18.8140745 C34.1868951,18.2473132 34.039978,17.6866196 34.0074036,17.1180606 C33.9513402,16.1452179 34.2219071,15.2236129 34.5405599,14.3127948 C34.8521218,13.4226516 35.3509309,12.6525126 35.9840264,11.9810286 C36.3321513,11.6113529 36.7480841,11.2906676 37.1784206,11.022119 C37.6346836,10.7371653 38.1485612,10.5488442 38.6296428,10.3025435 Z" id="overweight" fill="#F67102"></path>
            </g>
        </g>
    </g>
</svg>