<?xml version="1.0" encoding="UTF-8"?>
<svg width="103px" height="103px" viewBox="0 0 103 103" version="1.1" xmlns="http://www.w3.org/2000/svg" xmlns:xlink="http://www.w3.org/1999/xlink">
    <!-- Generator: Sketch 52.2 (67145) - http://www.bohemiancoding.com/sketch -->
    <title>Group 8</title>
    <desc>Created with Sketch.</desc>
    <g id="Page-1" stroke="none" stroke-width="1" fill="none" fill-rule="evenodd">
        <g id="Desktop" transform="translate(-73.000000, -3168.000000)">
            <g id="Group-8" transform="translate(73.000000, 3168.000000)">
                <rect id="Rectangle-6" fill-opacity="0.7" fill="#05BCB0" x="0" y="0" width="103" height="103"></rect>
                <g id="feet" transform="translate(16.000000, 16.000000)" fill="#047E87" stroke="#047E87">
                    <path d="M56.455485,10.4672712 C55.7967215,11.3534554 55.198906,12.1462741 54.6158172,12.9492754 C54.4481373,13.1801796 54.2635435,13.4265729 54.1986586,13.6923278 C54.1538954,13.8761906 54.271563,14.2651421 54.3683799,14.2824958 C54.598466,14.3235135 55.025977,14.2647119 55.0813842,14.1298983 C55.566198,12.9498491 55.986856,11.744128 56.455485,10.4672712 Z M66.2964028,22.1842931 C65.7357685,21.6131998 65.7341646,20.9589236 66.0413835,20.2851425 C66.6967934,18.8473699 67.3956543,17.4280984 68.0315258,15.9821509 C68.6004712,14.6877971 68.1144909,12.8746977 67.0226757,11.9579653 C66.6112037,11.6124696 66.1782978,11.5125068 65.8117348,11.9530891 C65.1889861,12.7017347 64.5063099,13.4328833 64.0496372,14.2766156 C63.4168277,15.4460518 63.4621742,16.767225 63.5715307,18.0668853 C63.5853825,18.2321037 63.5349327,18.429161 63.443219,18.5649785 C63.3965603,18.6339629 63.0944447,18.6461535 63.0737399,18.6042752 C62.8949785,18.2457284 62.5912591,17.8498928 62.6331061,17.5010985 C62.7561687,16.4775192 63.0209572,15.4702895 63.233692,14.4399695 C62.3595691,14.3087414 61.6362124,14.1155564 61.1773525,13.2069989 C61.5430406,13.4994296 61.7655446,13.7148445 62.0228969,13.8764774 C62.8184289,14.3760048 63.2352959,14.2641382 63.7167561,13.4869522 C63.9943758,13.0386253 64.2957622,12.6034929 64.6064805,12.176392 C65.5682344,10.8536412 65.3957427,9.64290047 64.1076691,8.63237223 C63.6897815,8.30437364 63.297702,8.27124392 62.8480281,8.57299688 C61.9440144,9.17922778 61.3472196,10.027406 61.0376678,11.0218714 C60.683936,12.1581778 60.4424769,13.3313429 60.2072875,14.4992015 C60.1053673,15.0057563 59.9019642,15.089226 59.3719498,14.822037 C59.6199703,13.5002901 59.8728025,12.1531582 60.1338,10.7632874 C59.7619879,10.8543583 59.427357,10.9363938 59.0803324,11.0215845 C59.5991196,10.6659061 60.1858537,10.4205167 60.5368151,9.98940008 C61.232614,9.13519823 61.8028717,8.18160722 62.4157054,7.26329721 C62.9302642,6.49227822 62.9452825,6.03792774 62.3637976,5.3148106 C62.0542458,4.9300182 61.6620205,4.57477005 61.2358218,4.32292679 C60.2641529,3.74867827 59.4196292,3.91418347 58.8906354,4.90004369 C58.422298,5.77288997 57.9912876,6.73436901 57.8588933,7.69842958 C57.546717,9.97161616 56.8009057,12.1006669 56.0599061,14.2522344 C55.6374985,15.4786078 54.9559888,15.5041364 53.8526547,15.037165 C53.0762236,14.7084494 52.9361015,14.218531 53.3067471,13.4634315 C53.5521431,12.9636173 53.8450727,12.4863198 54.1139438,12.0037159 C53.2491527,12.1755315 52.4145439,12.3413235 51.5799352,12.507259 C51.5676873,12.4361233 51.5554393,12.3649876 51.5430456,12.2939953 C51.8515767,12.2534079 52.1624408,12.2258715 52.4679099,12.1699382 C53.409688,11.997262 54.5023781,11.8298924 54.9608005,10.9972034 C56.1102101,8.90902692 57.007225,6.68675399 56.777868,4.23486771 C56.5623628,1.93141978 54.5376638,0.508849588 52.3433893,1.05570513 C51.0720836,1.37251707 50.1823592,2.20577978 49.5113478,3.27969909 C48.3457534,5.14500285 47.7752041,7.22385707 47.3924564,9.34545006 C46.899769,12.0757121 46.5292692,14.8342276 45.2210739,17.3413301 C43.9034011,19.8667901 43.6426952,22.5468556 43.6855629,25.3428034 C43.7428657,29.0821594 43.636717,32.8263917 43.5059267,36.5653175 C43.4328765,38.6573663 43.2011866,40.7462598 42.9827652,42.8308508 C42.4676232,47.7483915 41.9683744,52.6685138 41.3574361,57.5751548 C41.103,59.6188714 40.7354164,61.6439436 40.9859157,63.7065915 C41.2377272,65.7784182 41.8683497,67.6818714 43.6934366,68.9776594 C45.9081243,70.550389 50.6489469,70.4636207 52.850366,68.2228468 C54.2940175,66.7535221 55.1026723,64.9488844 55.8935385,63.1271799 C58.6299295,56.8255052 60.8075818,50.2959381 63.9863563,44.1719591 C65.2200433,41.7953677 66.2111047,39.2970137 67.3144388,36.8548799 C68.6519416,33.8938572 69.4239985,30.8231192 69.4094176,27.5538896 C69.4046059,26.4828387 69.7186778,25.4038997 69.9484722,24.3414539 C70.0479137,23.881797 70.3147436,23.4588552 70.4856313,23.0119625 C71.0822803,21.4512801 71.2861208,19.8583284 70.7781235,18.2379838 C70.4867978,17.3084872 69.8707562,17.0554966 69.0499993,17.5904484 C68.5621235,17.9084076 68.0669573,18.3530056 67.8173329,18.8568356 C67.3753869,19.7486131 67.1238669,20.7308879 66.7804875,21.6709975 C66.6682149,21.9779136 66.5174487,22.2712048 66.3843254,22.5708065 C66.4534387,21.6996813 66.522552,20.8286994 66.6015803,19.8336604 C65.8652466,20.6439761 65.9471911,21.4015138 66.2964028,22.1842931 Z M72,20.9391318 C71.5401195,22.3176725 71.0430578,23.6857436 70.6361058,25.0793432 C70.4318279,25.7792265 70.2771249,26.5285893 70.2969549,27.2502722 C70.3870646,30.5381462 69.6924322,33.6620926 68.3765091,36.6601173 C67.1746083,39.3981239 66.0444455,42.1757141 64.6701989,44.8295339 C61.5966982,50.7652041 59.5224243,57.1034507 56.8219022,63.1856948 C56.0591771,64.9031338 55.2175695,66.642516 54.0891563,68.1355048 C51.5867882,71.4458955 45.7413192,71.9690869 42.6309289,69.2752533 C40.798989,67.6888989 40.2204202,65.5251408 40.0390343,63.2264257 C39.8411719,60.7186061 40.444674,58.28938 40.7473727,55.8258768 C41.2717006,51.558453 41.6519696,47.2736756 42.0743773,42.9943481 C42.3113164,40.5948096 42.6084744,38.1954146 42.7049997,35.7892789 C42.8365191,32.5141692 42.9275037,29.2281597 42.8041496,25.9553447 C42.6783168,22.6152663 43.0501288,19.4389721 44.635798,16.4340633 C45.8088286,14.2113601 45.9779666,11.7164482 46.4929628,9.31332427 C46.8322595,7.73012512 47.2736223,6.15424032 47.8341108,4.63385856 C48.6851959,2.32524757 50.1483858,0.552305457 52.7532574,0 L53.773918,0 C53.9299333,0.0575109032 54.082595,0.127355816 54.2424012,0.170955104 C56.3067602,0.731865683 57.4137395,2.09004088 57.6788196,4.15240195 C57.704482,4.35376182 57.7295611,4.55526511 57.746329,4.68807083 C58.345311,4.21636669 58.8760545,3.65057988 59.5298605,3.32172077 C60.3042503,2.93219555 61.0983242,3.26048098 61.8031633,3.68901609 C63.3832917,4.64963462 63.8354443,5.86955418 63.2517723,7.67447866 C64.1871348,7.68236669 64.8139662,8.22993933 65.2124613,8.95305647 C65.6026452,9.6615449 65.8219414,10.4611042 66.138492,11.2777304 C67.1565281,11.2803119 67.8252066,12.0173407 68.4982593,13.6462904 C69.042563,14.9635912 68.2815877,16.0050979 67.8281227,17.3122161 C68.1620246,17.0808817 68.2960227,16.9804886 68.4374571,16.8911387 C69.8700272,15.9857364 71.1715152,16.4485486 71.6749925,18.0538342 C71.8092823,18.4819391 71.8931223,18.9252463 72,19.361526 L72,20.9391318 Z" id="Fill-1"></path>
                    <path d="M18.0293524,14.0076396 C17.2131088,12.8335569 16.42572,11.7009395 15.5216,10.400596 C15.9748259,11.6527308 16.3588291,12.7272395 16.7528878,13.7980178 C17.0203056,14.5244483 17.192852,14.5650526 18.0293524,14.0076396 Z M17.8700676,12.0032482 C18.1669232,12.5438743 18.5107045,13.0850743 18.7687955,13.6631483 C19.0366505,14.2631744 18.7925498,14.73077 18.1351537,15.0597657 C17.4178619,15.4184613 16.9656562,15.3402657 16.5997237,14.7775439 C15.4072006,12.9434613 14.5661825,10.9953134 14.3430672,8.79005245 C14.1941293,7.3169611 13.8940676,5.85133062 12.9245141,4.62832188 C12.3751053,3.93532186 11.6468836,3.83488708 10.7238185,4.33218274 C9.69815825,4.8850045 8.85437127,6.13814367 9.27480744,6.72023499 C10.3659013,8.23048721 10.9166216,10.2162264 12.9140214,11.0260177 C12.5738834,10.9445221 12.2337454,10.8630264 11.8446416,10.7697656 C12.1164314,12.1603569 12.3822461,13.5203874 12.6401914,14.839957 C12.0458972,15.0949179 11.8325459,14.9840092 11.7641976,14.4816918 C11.6518384,13.6536787 11.5142677,12.8240874 11.309806,12.0141525 C10.9768089,10.6950134 10.4386214,9.4656916 9.26562634,8.64255679 C9.01336464,8.46564809 8.61901445,8.314422 8.3399381,8.37482635 C7.08037836,8.64743505 6.3023164,10.7516873 7.03199541,11.7900395 C7.47341696,12.4184743 7.9556434,13.0259613 8.32696797,13.6928483 C8.59832054,14.1798135 8.95288595,14.2941657 9.39897092,14.1153917 C9.85467418,13.9328874 10.2689896,13.6500917 10.7264417,13.397283 C10.3058598,14.179383 9.52648622,14.3250135 8.69770961,14.4752352 C8.92679996,15.5477353 9.18620252,16.5619831 9.33557759,17.5918701 C9.37711115,17.8788266 9.1099848,18.2210223 8.94501643,18.5165875 C8.90698044,18.5847397 8.70703644,18.5653701 8.58156138,18.586318 C8.55285222,18.3193049 8.52035404,18.0527223 8.49776561,17.7852788 C8.49179061,17.7156919 8.52166562,17.6438092 8.52589185,17.5725005 C8.65559313,15.3688179 7.93145193,13.4916917 6.31397494,11.9531743 C5.96188697,11.618296 5.59172826,11.4907438 5.13646219,11.7581873 C4.07655498,12.3810265 3.28566863,14.5618961 3.7753274,15.691357 C4.42266795,17.1843918 5.15365854,18.6425614 5.79516982,20.1378919 C5.99103333,20.5947267 6.01041565,21.1250224 6.11067912,21.6216007 C6.06725105,21.6309268 6.02382298,21.6402528 5.98039491,21.6495789 C5.87736254,21.1761007 5.77418444,20.7027659 5.67115208,20.2292876 C5.59872338,20.2447832 5.52629469,20.2602789 5.453866,20.2757745 C5.54232519,21.0478311 5.63063864,21.8198876 5.7189521,22.5920877 C5.63923682,22.6002659 5.55966727,22.6084442 5.47980626,22.6167659 C5.31002874,21.952892 5.22623296,21.2520007 4.95021698,20.6341832 C4.53677593,19.708318 4.13309891,18.7131528 3.46375286,17.9784006 C2.42730847,16.8404744 1.45542325,17.1805179 1.09925479,18.6540397 C1.06005294,18.8164571 1.03775598,18.9828919 1.01239865,19.1481789 C0.759554018,20.7938746 1.21904631,22.3064224 1.81771245,23.8218399 C2.19136872,24.7675051 2.63147869,25.7950965 2.59752318,26.7708921 C2.45164567,30.9575879 3.56387059,34.7824315 5.47995199,38.4767099 C6.61345374,40.6621708 7.48128647,42.9810666 8.47488572,45.2372623 C9.93234922,48.546158 11.4169188,51.843719 12.8500451,55.1625148 C14.3974251,58.7460279 15.8062142,62.3902324 17.4505058,65.9289803 C18.7040906,68.6270891 20.9592898,70.0133761 24.0509894,70.0948717 C27.5199887,70.1861239 29.8755971,68.53225 30.7291481,65.2234977 C31.183977,63.4600063 31.1871831,61.6663845 30.9484744,59.8795062 C30.6667749,57.7713801 30.1976643,55.6826235 30.0089417,53.5681843 C29.3994914,46.7390493 28.8483338,39.9044621 28.3474537,33.0667184 C28.189189,30.9052184 28.1306048,28.7201878 28.2547683,26.5586878 C28.4515062,23.1308485 28.1396402,19.8550963 26.5290126,16.7287049 C25.9023659,15.5124396 25.5689316,14.1290222 25.2427839,12.7885047 C24.8077746,11.0013395 24.5763525,9.1659655 24.1355139,7.38066545 C23.6697551,5.4936393 23.0388823,3.63903924 21.6114395,2.20511746 C20.4691938,1.05786525 19.0806615,0.612939149 17.4881046,1.17379569 C16.0491491,1.6807044 15.2331969,2.96813487 15.1734468,4.66605667 C15.1096163,6.48636542 15.8194758,8.11599156 16.3798145,9.79741335 C16.907072,11.3801221 18.0937659,11.9470047 19.5892654,12.1899134 C19.9164332,12.2430004 20.2428724,12.3001047 20.5697488,12.3553439 C20.5564872,12.4179004 20.5432256,12.4804569 20.5301097,12.5430134 C19.6404172,12.3625178 18.7507247,12.1818786 17.8700676,12.0032482 Z M19.2365945,0 C21.8769628,0.551817408 23.3928647,2.34314355 24.1665547,4.70063493 C24.8943392,6.91794804 25.3098205,9.23340029 25.9029489,11.4954786 C26.3261539,13.1093221 26.5784156,14.8236005 27.3239794,16.2870788 C29.0497351,19.6747441 29.4152304,23.2043094 29.1158973,26.8885443 C29.0309357,27.9346443 29.0414284,28.9897835 29.0388052,30.0409053 C29.0361821,31.1101053 29.0064528,32.1850445 29.1007412,33.247788 C29.7352574,40.4096491 30.3750199,47.5710797 31.0691403,54.7273452 C31.2810343,56.9126626 31.7650096,59.0734453 31.9479029,61.2597671 C32.1309421,63.4468063 31.8550718,65.6041455 30.7457615,67.5841456 C29.7533281,69.3550978 28.2349487,70.3954587 26.2366746,70.7776848 C21.7765536,71.6309501 18.4196221,70.0290152 16.423534,65.9549499 C15.3388524,63.7410802 14.3751282,61.4635063 13.4755259,59.1694323 C11.4908048,54.108093 9.4474996,49.078032 7.02354296,44.1966144 C5.57700935,41.2837187 4.29121789,38.2864577 3.07523195,35.2716924 C2.03674731,32.6971184 1.6037782,29.9846618 1.70783069,27.1932921 C1.73289655,26.5192313 1.57987819,25.8157573 1.38576346,25.161066 C0.966055946,23.7445051 0.46677888,22.3507572 0,20.9478267 L0,19.2260876 C0.180707403,18.6613571 0.310845879,18.0743875 0.553489287,17.536631 C0.985001077,16.5797744 1.82062708,16.2410222 2.83390012,16.5695875 C3.1919631,16.6856614 3.52496021,16.8770614 3.99348787,17.0905571 C3.53603582,15.8853396 2.8489105,14.8071005 3.48590409,13.5433439 C4.04609704,12.4321047 4.42631124,11.182983 6.01085285,11.163183 C6.14929804,9.37042203 6.88684656,8.04798286 8.74550963,7.56460458 C8.07368614,6.10629149 8.54192234,4.7621871 10.0540353,3.75138273 C11.4827896,2.79639139 12.4092065,3.02165227 14.2260445,4.80178711 C14.2496531,4.60536536 14.2694726,4.44983492 14.2871062,4.294161 C14.5521923,1.95187832 15.7547709,0.631160889 18.0958061,0.106891308 C18.1880544,0.0862304375 18.2735989,0.0363000011 18.3622038,0 L19.2365945,0 Z" id="Fill-3"></path>
                    <path d="M45,25 C48.4352623,26.9970587 52.1331839,27.2195145 56,26.4037547 C52.0809455,27.4852404 48.3861053,27.1404073 45,25" id="Fill-15"></path>
                    <path d="M67,17.5485969 C65.6182505,18.3062198 64.4867881,18.101436 64,17 C64.878385,18.1826168 65.9568357,17.6579306 67,17.5485969" id="Fill-17"></path>
                    <path d="M17,26.4031337 C20.8733636,27.2278092 24.5815656,26.9963728 28,25 C24.6187417,27.134995 20.9353727,27.4886747 17,26.4031337" id="Fill-19"></path>
                    <path d="M8,17 C7.57579718,18.1171453 6.51285938,18.3668292 5,17.3983508 C5.68123366,17.501274 6.18024046,17.6918724 6.66105593,17.6168243 C7.13418714,17.5429674 7.5889702,17.1998901 8,17" id="Fill-21"></path>
                </g>
            </g>
        </g>
    </g>
</svg>