<?xml version="1.0" encoding="UTF-8"?>
<svg width="65px" height="58px" viewBox="0 0 65 58" version="1.1" xmlns="http://www.w3.org/2000/svg" xmlns:xlink="http://www.w3.org/1999/xlink">
    <!-- Generator: Sketch 51 (57462) - http://www.bohemiancoding.com/sketch -->
    <title>Group 5</title>
    <desc>Created with Sketch.</desc>
    <defs></defs>
    <g id="Page-1" stroke="none" stroke-width="1" fill="none" fill-rule="evenodd">
        <g id="Lesson-2" transform="translate(-56.000000, -4661.000000)" fill-rule="nonzero">
            <g id="Group-5" transform="translate(56.000000, 4661.000000)">
                <rect id="Rectangle-12" fill-opacity="0.6" fill="#97B306" x="0" y="0" width="65" height="58"></rect>
                <g id="food-label" transform="translate(17.000000, 9.000000)" stroke="#FFFFFF">
                    <rect id="Rectangle-13" x="0.5" y="0.5" width="25" height="39"></rect>
                    <path d="M1.44230769,13 L24,13" id="Line-17" stroke-width="2" stroke-linecap="square"></path>
                    <path d="M3.5,3.5 L16.5,3.5" id="Line-18" stroke-width="2" stroke-linecap="square"></path>
                    <path d="M3.5,7.5 L19.5,7.5" id="Line-19" stroke-linecap="square"></path>
                    <path d="M3.5,16.15 L19.5,16.15" id="Line-19" stroke-linecap="square"></path>
                    <path d="M3.5,9.5 L19.5,9.5" id="Line-19" stroke-linecap="square"></path>
                    <path d="M3.5,18.15 L19.5,18.15" id="Line-19" stroke-linecap="square"></path>
                    <path d="M3.5,34.25 L19.5,34.25" id="Line-19" stroke-linecap="square"></path>
                    <path d="M3.5,36.25 L19.5,36.25" id="Line-19" stroke-linecap="square"></path>
                    <path d="M3.5,24.25 L19.5,24.25" id="Line-19" stroke-linecap="square"></path>
                    <path d="M3.5,32.25 L19.5,32.25" id="Line-19" stroke-linecap="square"></path>
                    <path d="M5.5,27.25 L21.5,27.25" id="Line-19" stroke-linecap="square"></path>
                    <path d="M5.5,29.25 L21.5,29.25" id="Line-19" stroke-linecap="square"></path>
                    <path d="M0.448275862,21.2083333 L25.5517241,21.2083333" id="Line-19" stroke-width="0.5" stroke-linecap="square"></path>
                </g>
            </g>
        </g>
    </g>
</svg>