<?xml version="1.0" encoding="UTF-8"?>
<svg width="150px" height="150px" viewBox="0 0 150 150" version="1.1" xmlns="http://www.w3.org/2000/svg" xmlns:xlink="http://www.w3.org/1999/xlink">
    <!-- Generator: Sketch 51.1 (57501) - http://www.bohemiancoding.com/sketch -->
    <title>Group</title>
    <desc>Created with Sketch.</desc>
    <defs></defs>
    <g id="Page-1" stroke="none" stroke-width="1" fill="none" fill-rule="evenodd">
        <g id="Lesson-4" transform="translate(-610.000000, -8707.000000)">
            <g id="Group" transform="translate(610.000000, 8707.000000)">
                <circle id="Oval-9" fill="#FDA905" fill-rule="nonzero" cx="75" cy="75" r="75"></circle>
                <g id="Group-24" transform="translate(29.000000, 29.000000)" fill="#FFFFFF">
                    <path d="M3.34046965,45.807812 C3.170201,69.250332 22.252191,88.544572 45.6938826,88.632892 C68.953405,88.719832 87.9919124,69.700672 88.1919323,46.179492 C88.389206,22.854272 69.4697035,3.623052 46.0637134,3.359012 C22.7666587,3.095432 3.51119602,22.227292 3.34046965,45.807812 Z M9.15422886e-05,41.860092 C0.531494527,39.253272 0.926041791,36.609192 1.61627065,34.045612 C7.27907662,13.019472 26.7025194,-1.080908 48.3243502,0.076912 C69.686201,1.220012 87.5561711,17.460312 90.9716139,38.833292 C95.0525692,64.373412 77.1134846,88.288352 51.4139025,91.581032 C50.8966886,91.647272 50.3982408,91.857032 49.8906388,92.000092 L41.6518328,92.000092 C41.1442308,91.857032 40.6453254,91.647732 40.1276537,91.581952 C21.0644299,89.142112 5.72835025,75.347632 1.30685771,56.614592 C0.801086567,54.473292 0.432171144,52.298872 9.15422886e-05,50.140092 L9.15422886e-05,41.860092 Z" id="Fill-1"></path>
                    <path d="M43,47.3191727 C42.1346045,48.1043471 41.8433964,48.4333383 41.4918438,48.6782839 C32.8036023,54.7394524 24.119018,60.8046658 15.4097473,66.8366205 C12.8643051,68.6002291 12.4597225,68.4501156 10.8797928,65.7557136 C7.94668272,60.7543283 5.98274241,55.4855253 6.00011432,49.6135717 C6.00514303,47.9263682 6.66298989,47.1609693 8.42258166,47.1560255 C18.6994388,47.1245646 28.9753816,47.0400695 39.2522387,47.0000692 C40.2826673,46.9960243 41.3135531,47.1699581 43,47.3191727 Z M49.2262658,47.2595162 C50.7527505,47.168308 52.279698,46.9921818 53.8057199,47.0002692 C63.6563816,47.0492431 73.5061178,47.163815 83.3563167,47.1939182 C85.351528,47.1997591 85.9914578,47.9779495 85.9997866,49.8951193 C86.0261611,56.1943276 83.6047927,61.6874888 80.3815456,66.9470132 C79.3515501,68.6278504 78.1225888,67.9898421 76.8876123,67.1433579 C71.5456099,63.4824486 66.1906516,59.8399607 60.8500373,56.1777034 C57.4569751,53.8503212 54.0768688,51.5049669 50.7013896,49.1551196 C50.1095818,48.7435594 49.565896,48.2681983 49,47.8224911 C49.0754219,47.6346831 49.1508439,47.446875 49.2262658,47.2595162 Z M44,43 C43.0329705,42.4683146 42.4854645,42.2286945 42.006801,41.8945826 C33.3058454,35.8249596 24.6048897,29.7557887 15.9256495,23.6576825 C13.4602555,21.9256359 13.4431604,21.4608633 15.4118717,19.2346567 C19.3419019,14.7894773 23.8083494,11.106109 29.647951,9.22848187 C31.3583874,8.67825981 32.2436376,9.10369856 32.8110109,10.7019196 C36.3395367,20.6343999 39.9013287,30.5555774 43.4326267,40.4867013 C43.6687242,41.1504039 43.7495795,41.8674558 44,43 Z M45.7735712,49 C46.2938317,50.1206525 46.5562559,50.5637539 46.7127011,51.0412532 C50.0017202,61.066477 53.2944096,71.0903429 56.546726,81.1264292 C57.4491532,83.9117667 57.1647074,84.2702307 54.2138118,84.9251516 C48.6226169,86.1657448 43.0433505,86.5694694 37.4659191,84.8432299 C34.8219497,84.0253708 34.6122856,83.7189565 35.4087338,81.1721424 C38.4674436,71.3922311 41.5408344,61.6159407 44.6243185,51.8432711 C44.8656386,51.0779143 45.2244073,50.3483134 45.7735712,49 Z M47,42.6501853 C47.1966267,41.8809569 47.3348219,41.0912582 47.599155,40.3452295 C51.0878883,30.5003797 54.6016636,20.663718 58.0890057,10.8179584 C58.6788859,9.15349554 59.5715898,8.64082823 61.420994,9.24356486 C67.681515,11.2837715 72.3059531,15.4046704 76.4156373,20.2197399 C77.7141157,21.7422754 76.6131915,22.6743564 75.3991142,23.5268307 C69.3166703,27.7960256 63.2407188,32.0738634 57.1559562,36.339874 C53.9760753,38.5693172 50.7827459,40.7805645 47.5954451,43 C47.3969634,42.8835467 47.1984817,42.7666386 47,42.6501853 Z M45.3154916,42.9645608 C43.8780031,38.6340782 42.3676954,34.3256874 41.0205397,29.9671296 C39.0548814,23.6074091 37.2772626,17.1896973 35.2692032,10.8442446 C34.5958558,8.71697379 35.1608962,7.84802372 37.2445401,7.19493041 C43.347068,5.28259589 49.3694026,5.91405749 55.4083289,7.35141506 C57.3467952,7.81304479 57.1592166,9.11554941 56.6826654,10.5805219 C54.0335203,18.7306109 51.4106454,26.8885241 48.7721005,35.0422951 C47.913018,37.698392 47.0341176,40.3475851 46.1644347,43 C45.8814537,42.9884938 45.5980117,42.9760671 45.3154916,42.9645608 Z M49,44.6973066 C49.7827139,44.0164297 50.1901288,43.5928636 50.6631523,43.2612589 C59.2459358,37.24662 67.8273428,31.2297161 76.4307723,25.24407 C79.1106268,23.3790201 79.5671335,23.5180947 81.1623833,26.2946046 C84.1000837,31.4095618 86.1628514,36.7609913 85.9898836,42.7783482 C85.9458387,44.3117935 85.3113174,44.9972004 83.8023221,44.9972004 C72.6640191,44.9976535 61.5257161,45.0035426 50.3869543,44.9967474 C50.1066271,44.9967474 49.8267587,44.8803234 49,44.6973066 Z M48,49 C48.9255042,49.5181798 49.4695913,49.7655134 49.9497227,50.0996625 C58.6175769,56.1274591 67.2863581,62.1529949 75.9338207,68.2079213 C78.6028135,70.0762625 78.6037404,70.527522 76.4111714,72.952929 C72.4783579,77.3031976 68.047802,80.9272911 62.2616628,82.770311 C60.6548911,83.2821605 59.7576572,82.9764977 59.2177411,81.4685312 C55.5606787,71.2527928 51.898055,61.0393153 48.2535057,50.8195074 C48.1089101,50.4148208 48.1269846,49.9545179 48,49 Z M44,49 C43.6297621,50.5628589 43.4988187,51.462476 43.2046571,52.3055485 C39.7351177,62.2657612 36.2217769,72.2106791 32.7702192,82.1773806 C32.1579204,83.9455617 31.2620646,84.3404477 29.4689697,83.7342142 C23.2537683,81.6323266 18.6486176,77.4322592 14.5492589,72.5272368 C13.4615986,71.2257814 14.1439798,70.2561785 15.2528492,69.4381341 C17.7891862,67.5670601 20.3195293,65.6857896 22.8812251,63.8494768 C29.1296234,59.3713206 35.3923149,54.9140212 41.6554674,50.4571851 C42.2004502,50.0697148 42.7915398,49.7475953 44,49 Z M42.7278631,44.9917344 C39.8292354,44.9917344 36.9306077,45.0127819 34.03198,44.987704 C25.5536211,44.9138137 17.0747995,44.7951414 8.59644067,44.7579723 C6.70444161,44.7494638 6.00234704,43.9819002 6.00003296,42.1955461 C5.98985096,35.8508319 8.34003963,30.2508424 11.7014851,24.9737312 C12.7613378,23.3096319 14.0572276,24.1125732 15.2462065,24.9235753 C21.4169559,29.1339793 27.5853912,33.3470701 33.7510496,37.5637435 C36.2678526,39.2851637 38.7809532,41.0110621 41.2847973,42.7503951 C41.8795182,43.163733 42.4288829,43.6384223 43,44.084451 C42.9092877,44.3867295 42.8185754,44.6890081 42.7278631,44.9917344 Z" id="Combined-Shape"></path>
                </g>
            </g>
        </g>
    </g>
</svg>