<?xml version="1.0" encoding="UTF-8"?>
<svg width="50px" height="52px" viewBox="0 0 50 52" version="1.1" xmlns="http://www.w3.org/2000/svg" xmlns:xlink="http://www.w3.org/1999/xlink">
    <!-- Generator: Sketch 51 (57462) - http://www.bohemiancoding.com/sketch -->
    <title>Group 10</title>
    <desc>Created with Sketch.</desc>
    <defs></defs>
    <g id="Page-1" stroke="none" stroke-width="1" fill="none" fill-rule="evenodd">
        <g id="Lesson-2" transform="translate(-468.000000, -5849.000000)">
            <g id="Group-10" transform="translate(468.000000, 5849.000000)">
                <rect id="Rectangle-12" fill-opacity="0.6" fill="#F67102" fill-rule="nonzero" x="0" y="0" width="50" height="52"></rect>
                <path d="M34.0575117,40.7440762 C33.9495187,40.7321633 33.8343261,40.6907416 33.7349507,40.7146766 C33.5809243,40.7519452 33.4407516,40.8433134 33.2890159,40.8950086 C32.7721766,41.0708597 32.3872197,41.425294 32.0082623,41.8037727 C32.2300298,41.9270542 33.3159596,41.3954573 34.0575117,40.7440762 M14.9104584,40.826701 C15.4173711,41.1209154 15.8784686,41.3952387 16.3465474,41.6569933 C16.5338444,41.7618045 16.7327043,41.8498939 16.9346185,41.9222453 C17.0008324,41.9459617 17.0933355,41.8959059 17.1738394,41.8797307 C17.1340238,41.8165599 17.1089345,41.7315306 17.05232,41.6936062 C16.5768234,41.3743639 16.105363,41.0465968 15.6108859,40.7589399 C15.421189,40.6485549 15.1729142,40.6133628 14.9104584,40.826701 M37.7919976,13.1239878 C37.511543,12.8673699 37.2442875,12.6139214 36.9674327,12.3715115 C36.4847366,11.9486602 35.9983317,11.5300714 35.5065817,11.1178215 C35.4583666,11.0773834 35.3628091,11.0936679 35.2891775,11.0835037 C35.283287,11.1511556 35.2506709,11.2324689 35.2768511,11.2838362 C35.3455739,11.4189213 35.4396042,11.5412192 35.5238169,11.6684352 C35.9577525,12.3240787 36.5195344,12.8416862 37.2128714,13.209345 C37.3776971,13.2967787 37.5672848,13.3505504 37.7919976,13.1239878 M6.77683871,22.4346936 C6.82505378,22.4471529 6.87315976,22.4596122 6.92137483,22.4720715 C7.19408447,21.8148979 7.51719086,21.1731346 7.72248668,20.4954141 C7.87193156,20.0026159 7.86811363,19.4627127 7.92614624,18.9430287 C7.93432753,18.8694751 7.90574756,18.7917683 7.88785781,18.6749351 C7.40167105,19.2262046 7.30633176,19.8922308 7.13637911,20.5136658 C6.96489929,21.1401283 6.66720944,21.7592682 6.77683871,22.4346936 M11.5754376,13.353392 C11.8448748,13.2222414 12.1680902,13.1376493 12.3923666,12.9401584 C12.8293566,12.5551223 13.2238038,12.118063 13.6095243,11.6792551 C13.7707503,11.495863 13.8715438,11.2566225 13.9839001,11.0347595 C14.0051715,10.9925727 13.9519386,10.9124616 13.932958,10.8498372 C13.8789615,10.8720235 13.8177654,10.8842642 13.7720593,10.9177076 C12.9180418,11.5432957 12.1354742,12.2494322 11.4168297,13.0267178 C11.3671965,13.080271 11.3366531,13.1516387 11.2972738,13.2147003 C11.3723235,13.2520782 11.4472641,13.2894561 11.5754376,13.353392 M7.79055501,32.1544799 C7.82404375,32.1384139 7.85764158,32.1222387 7.89113032,32.1061727 C7.90476581,32.0469364 7.93443662,31.9862793 7.92952784,31.9286823 C7.90051154,31.5961064 7.91272893,31.2492131 7.81793505,30.9354354 C7.66925376,30.4434023 7.87934927,29.9063407 7.53737137,29.4277505 C7.3385115,29.1492742 7.33796608,28.7366964 7.19015745,28.4107872 C7.06994704,28.1456445 6.99718811,27.7939425 6.54885345,27.7435588 C6.58386937,27.938536 6.61015858,28.1042228 6.64375641,28.2684889 C6.75796721,28.8258788 6.86508755,29.3850173 6.99358834,29.9392377 C7.09121839,30.3601217 7.21382865,30.7755411 7.33251189,31.1912883 C7.38432672,31.372604 7.43995949,31.5554497 7.52002704,31.7251804 C7.59158605,31.8770964 7.69892457,32.0120722 7.79055501,32.1544799 M40.6878468,17.6867156 C40.697228,17.5898828 40.7404252,17.4820115 40.709009,17.4046326 C40.6143242,17.1715125 40.5063312,16.9405783 40.3752124,16.7262564 C40.0735955,16.2332396 39.7631429,15.7452502 39.4410183,15.2654578 C39.2141238,14.9277451 38.964649,14.6050055 38.7191013,14.2802985 C38.6863761,14.2368003 38.6125264,14.1937392 38.5657294,14.2012803 C38.5277682,14.2072914 38.4704992,14.2935229 38.4760624,14.3372397 C38.506715,14.5796497 38.5218777,14.8314587 38.6030361,15.0582399 C38.726519,15.4031659 38.8854542,15.7375998 39.0557341,16.0626346 C39.2187053,16.3734614 39.3890943,16.6871298 39.6038805,16.9622181 C39.8670998,17.2991657 40.1970785,17.5723961 40.6878468,17.6867156 M10.7013487,14.0172324 C10.6657873,14.0095819 10.630226,14.0019315 10.5946647,13.9943903 C10.5303052,14.0557032 10.4549282,14.1089285 10.4034407,14.1796405 C10.0791343,14.6248966 9.74108347,15.0618466 9.44393904,15.5249173 C9.05014632,16.1387019 8.68460631,16.7708476 8.32157523,17.403649 C8.27761443,17.4801535 8.32484774,17.6091182 8.32975652,17.7137108 C8.4312045,17.705186 8.5454153,17.7232192 8.63093705,17.6819068 C8.76696462,17.6162222 8.88935671,17.51775 9.00782178,17.421245 C9.52411568,17.0004703 9.85005825,16.4342278 10.1691285,15.8659088 C10.282903,15.6633904 10.3826056,15.4497243 10.461146,15.2312494 C10.5428498,15.0034846 10.6018642,14.7657742 10.6507338,14.5283917 C10.6850952,14.3616119 10.6857497,14.1878374 10.7013487,14.0172324 M20.6817581,7.82113368 C20.4852981,7.84277353 20.3506886,7.83993193 20.2264421,7.87446824 C19.7498547,8.00649314 19.2721765,8.13742511 18.8036613,8.29458719 C18.4460844,8.41448066 18.1017067,8.57371929 17.7513293,8.71503401 C17.5911942,8.77962566 17.4613844,8.85569298 17.4926915,9.07056131 C17.5249803,9.29176858 17.6252284,9.4636851 17.8420871,9.50696478 C18.0750902,9.55352323 18.3254377,9.59625645 18.5542956,9.55778562 C18.8298414,9.51133647 19.0956788,9.38958503 19.3568256,9.27909069 C19.9885302,9.01187143 20.3984673,8.53273474 20.6817581,7.82113368 M30.7326357,9.60598345 C30.908588,9.56554536 31.0905398,9.54150109 31.2594016,9.48084396 C31.5232755,9.38608769 31.6978097,8.9693568 31.5280752,8.85088413 C31.3457961,8.72377738 31.137555,8.62585163 30.9288776,8.54639626 C30.5167587,8.38945276 30.1000584,8.24289201 29.6786675,8.11316225 C29.3087641,7.99917056 28.9312249,7.90878597 28.554122,7.82102439 C28.4876899,7.80550491 28.3706429,7.83173502 28.3419539,7.87873064 C28.3101014,7.9306444 28.329082,8.04365246 28.3673704,8.10343525 C28.4884535,8.29294781 28.6125909,8.48508337 28.7647629,8.64913086 C29.2937105,9.21898002 29.9287967,9.57942546 30.7326357,9.60598345 M34.8293891,40.2296381 C34.8610234,40.2448297 34.8925486,40.2598028 34.9241829,40.2749944 C35.2625611,40.0228574 35.624065,39.7964041 35.9342995,39.5132282 C36.5872754,38.9171489 37.2127623,38.2907958 37.8507938,37.6782134 C38.0054747,37.5297947 38.1649553,37.3827967 38.003293,37.1491302 C37.864102,36.9481419 37.6214995,36.9256278 37.3707157,37.0313133 C36.8873651,37.2351431 36.487791,37.5478279 36.1188694,37.9120985 C35.5372342,38.4866472 35.1329694,39.1737669 34.8341888,39.9267896 C34.799391,40.0145512 34.8293891,40.1281057 34.8293891,40.2296381 M38.3020737,36.4484583 C38.3861773,36.5671496 38.4593726,36.6706492 38.5324588,36.7740396 C38.6217985,36.7047484 38.7315368,36.6509766 38.7968781,36.5638708 C39.0945679,36.1669218 39.3881126,35.7664754 39.6666037,35.3559742 C39.873863,35.0503934 40.0674868,34.7342113 40.2457299,34.4108159 C40.4634613,34.0160527 40.6496674,33.6039121 40.8680533,33.2096954 C40.9608836,33.0418227 41.083603,32.8299052 40.9216135,32.7253126 C40.781877,32.6351466 40.4949865,32.6355838 40.3467415,32.7223618 C39.8796444,32.99592 39.5354849,33.417569 39.2713929,33.8851207 C39.0512616,34.2749657 38.8642919,34.6881993 38.7068839,35.1076625 C38.5466397,35.534339 38.4406102,35.9813438 38.3020737,36.4484583 M10.7234927,36.3528277 L10.7690898,36.341352 C10.6643692,35.9040742 10.5868106,35.4578345 10.4458743,35.0325788 C10.3487896,34.7395666 10.1839639,34.4627296 10.0141204,34.2016307 C9.73966538,33.7796538 9.46346505,33.3527588 9.13326822,32.9760288 C8.97433303,32.7947131 8.70260514,32.6763498 8.4603299,32.6143811 C8.18151155,32.5430134 7.95407171,32.8285937 8.06980968,33.0598559 C8.31110318,33.5415063 8.53385242,34.0362717 8.81954304,34.4908177 C9.28434936,35.2299604 9.78842587,35.9447309 10.2902116,36.65972 C10.3584981,36.75699 10.509252,36.7961166 10.6218265,36.862129 C10.6557516,36.7560064 10.6960036,36.6513045 10.7209838,36.5431053 C10.7349465,36.4826668 10.7234927,36.4164357 10.7234927,36.3528277 M18.3256558,40.6788288 C17.9745149,40.6324889 17.6922059,40.7646231 17.5366523,41.0557773 C17.3160847,41.4685737 17.718386,42.3508891 18.1677024,42.4470661 C18.4998628,42.518106 18.8152242,42.6652132 19.1413849,42.76762 C19.5718298,42.902705 20.0043473,43.0314512 20.4382829,43.1545141 C20.6539417,43.2157177 20.7450267,43.1360437 20.758335,42.8963661 C20.7850605,42.4165736 20.5340586,42.0633415 20.2572037,41.7310934 C19.7543271,41.1275823 19.1178228,40.74812 18.3256558,40.6788288 M28.2301429,42.799424 C28.2190164,43.1376831 28.3074834,43.2207451 28.62699,43.1428198 C28.9871849,43.0551676 29.3469434,42.9631436 29.7004842,42.8518842 C30.130711,42.7164712 30.5515565,42.5516587 30.9811287,42.413732 C31.323652,42.3037842 31.7143904,41.6580863 31.6284323,41.3158926 C31.5410562,40.9671414 31.227331,40.7193762 30.8632091,40.6887744 C30.2071788,40.6334725 29.6504147,40.9106374 29.1556104,41.273378 C28.6545882,41.6407088 28.2470509,42.1139437 28.2301429,42.799424 M24.3713014,7.86408549 C24.3162141,7.7153389 24.2733441,7.56003479 24.1994944,7.42123378 C24.1725506,7.37052223 24.0691391,7.32855406 24.0053251,7.33445583 C23.3091519,7.39784527 22.6143968,7.47686348 21.9182236,7.54003433 C21.5784274,7.57085471 21.3722589,7.70998359 21.1740536,8.02277766 C20.7944417,8.62147995 21.3586234,9.48663645 21.9266231,9.52488869 C22.2393665,9.54587278 22.5583277,9.55931571 22.8681259,9.52237497 C23.7134167,9.42138904 24.3101054,8.73656456 24.3713014,7.86408549 M24.7104431,7.95173778 C24.6706275,8.58344629 25.0141326,8.98793646 25.5100278,9.29723318 C25.9803974,9.59057326 26.4913462,9.63057418 27.0277115,9.53953384 C27.7750451,9.41286426 28.1322947,8.92094038 28.0064119,8.16780832 C27.9491429,7.8250682 27.7954437,7.63052821 27.4596836,7.58921579 C26.6765706,7.49303871 25.8905123,7.42145237 25.1048904,7.34778947 C24.8759234,7.32625892 24.746659,7.44888469 24.7259331,7.67949108 C24.7178608,7.76998497 24.7153519,7.86091602 24.7104431,7.95173778 M24.3358492,42.2294655 C24.2962517,42.097222 24.2681081,41.829347 24.1432071,41.6191783 C23.6823278,40.8436413 22.4383355,40.3492037 21.5338121,40.9357746 C21.2104876,41.1453969 20.9579584,41.6431132 21.0708602,42.0147065 C21.2052515,42.457121 21.4783975,42.8146156 21.8064127,43.1348415 C22.0698502,43.3918966 22.3901204,43.4762701 22.7442066,43.4803139 C22.8159838,43.4811883 22.8901608,43.4922268 22.9589927,43.5127737 C23.7557412,43.7524513 24.3146869,43.1381203 24.3358492,42.2294655 M26.6163563,40.690523 L26.5953031,40.6238548 C26.2988132,40.7194855 25.9974145,40.8022196 25.7068151,40.9132604 C24.9602452,41.1986222 24.628303,41.81962 24.7299692,42.6204035 C24.7959649,43.1401968 25.4298512,43.6893898 25.9949056,43.53496 C26.237399,43.468729 26.4977822,43.4704776 26.7487841,43.4329904 C26.8452142,43.4185639 26.9470986,43.3972519 27.0309841,43.3509121 C27.4038327,43.1446778 27.6861417,42.8448895 27.9055093,42.4800724 C28.1329492,42.1018123 28.0798254,41.4675901 27.7851899,41.1598234 C27.4665559,40.8269196 27.076472,40.6709597 26.6163563,40.690523 M8.70958651,24.8763891 C8.7319487,24.4200944 8.54563347,23.533626 8.22754494,22.9527383 C8.0149405,22.5643141 7.64590981,22.4022338 7.36752781,22.6175393 C7.21055613,22.7389629 7.06002041,22.9160161 6.99478826,23.0995176 C6.84098002,23.531003 6.70517062,23.9752755 6.6248849,24.425559 C6.43911509,25.4679874 6.52496409,26.4973006 7.00471489,27.4496723 C7.20259301,27.8424682 7.46384885,27.9674984 7.73634033,27.7677124 C7.92723708,27.6277091 8.10689819,27.4336063 8.21325496,27.2237654 C8.55850537,26.543094 8.69453294,25.8059186 8.70958651,24.8763891 M40.4089193,24.9673201 C40.4461169,25.3315908 40.4973863,25.6831836 40.5145125,26.0364157 C40.5416744,26.5983959 40.755806,27.0897733 41.0573138,27.5463958 C41.3313324,27.9610501 41.7636318,27.9813785 42.0573946,27.5819157 C42.3289043,27.2129455 42.4812945,26.7876898 42.5081291,26.3221054 C42.5651799,25.3333395 42.6464474,24.3395461 42.2499276,23.3959179 C42.1410619,23.136677 41.9729637,22.8920812 41.7885029,22.6785243 C41.6380762,22.5043127 41.2489741,22.5342587 41.0852392,22.6889071 C40.79224,22.9656348 40.6239236,23.3228015 40.5481103,23.7035752 C40.4652066,24.1203061 40.4517893,24.5508078 40.4089193,24.9673201 M14.8282092,13.289784 C15.2730532,13.3465066 15.6477562,13.1283595 16.0149325,12.8890097 C16.4466864,12.6075825 16.7798285,12.238503 17.0697734,11.8090942 C17.4218961,11.2875522 17.5770133,10.7370477 17.4835285,10.1187821 C17.4681476,10.0175776 17.4173146,9.90883194 17.3511007,9.83046948 C17.0954081,9.5275117 16.5013374,9.37548635 16.1160532,9.588606 C15.6380478,9.85298366 15.1730233,10.1609689 14.7588319,10.5161683 C14.3630756,10.855739 14.1538528,11.3444934 13.9057961,11.8085477 C13.5762538,12.4250646 13.9136501,13.4449788 14.8282092,13.289784 M35.2589613,12.2872473 C35.2998677,11.8308433 35.0942447,11.4256974 34.8207714,11.0666728 C34.5650789,10.7309273 34.2745886,10.413543 33.9587908,10.1343016 C33.5486355,9.77167032 33.0797931,9.51188293 32.5029576,9.48991521 C31.8999421,9.46696386 31.5502192,9.77844643 31.5053857,10.3767115 C31.4597887,10.9850315 31.6771928,11.4963001 32.0344425,11.9577315 C32.6060419,12.6959998 33.2908703,13.2667233 34.2811336,13.2892375 C34.9558173,13.3045384 35.2592886,12.9838753 35.2589613,12.2872473 M35.258525,37.9978928 C35.2645246,37.3009369 34.5915863,36.7956794 33.9439554,37.0059575 C33.3527209,37.1979838 32.8061017,37.4602849 32.3756568,37.9281645 C31.83351,38.5176862 31.4191004,39.1540943 31.5113854,40.0102888 C31.5457468,40.3284382 31.7158085,40.5282242 31.9657196,40.7060425 C32.4536517,41.053045 32.9467108,40.8034218 33.3267589,40.6004663 C33.8213451,40.336198 34.2489539,39.9051498 34.6281294,39.4772711 C34.9882152,39.0710323 35.2973588,38.5967044 35.258525,37.9978928 M10.8413033,30.9768572 C10.7912338,30.1188046 10.656188,29.4115753 10.2562865,28.7639101 C10.0140113,28.3713328 9.76650001,28.0153683 9.34270922,27.7941611 C8.79205391,27.5069413 8.18925651,27.7375477 8.02672156,28.3563598 C7.87956743,28.9164819 7.76012061,29.4729975 7.93716371,30.0722462 C8.05104726,30.4576102 8.0358846,30.8700787 8.23169013,31.2550056 C8.48640094,31.7554543 8.74722044,32.2363397 9.21878996,32.558205 C9.71326709,32.8955898 10.1955268,32.7597397 10.5228875,32.2685808 C10.8156686,31.8294451 10.7861068,31.3395977 10.8413033,30.9768572 M7.92211014,19.7584572 C7.94730851,19.7693864 7.97261597,19.7803157 7.99781434,19.7912449 C7.97676115,19.9621778 7.97316139,20.1375916 7.93094593,20.3031692 C7.84204259,20.6513739 7.80157248,20.9958627 7.89451192,21.3496413 C7.93836363,21.5164211 7.94992652,21.6926 8.00261403,21.8557732 C8.15642227,22.3323962 8.50058184,22.7153558 9.06083653,22.6007084 C9.59283851,22.4918534 9.90754544,22.1026641 10.1715284,21.7061523 C10.6985125,20.9143308 10.8931181,20.0001021 10.8351946,19.0619385 C10.812396,18.6925311 10.8090144,18.2819206 10.5030342,17.9492353 C10.1984721,17.6181895 9.63385404,17.4350159 9.32165604,17.6657315 C8.94771657,17.9422406 8.61359272,18.255144 8.42029612,18.6916568 C8.32932018,18.8970167 8.24074409,19.1034695 8.14616838,19.3070807 C8.07548204,19.459434 7.99705075,19.6081806 7.92211014,19.7584572 M14.009753,35.752486 C13.9844456,35.5092018 14.0017899,35.2512723 13.9256494,35.0250376 C13.7134812,34.3939849 13.4068465,33.8030423 12.927532,33.3323211 C12.5376663,32.9494708 12.1028581,32.6121953 11.5158778,32.6074957 C11.2370595,32.6052006 10.9578048,32.6085886 10.7454186,32.8579933 C10.2409057,33.4505752 10.4003863,34.1392249 10.5737206,34.7522445 C10.732983,35.3153175 11.056853,35.8452751 11.4968973,36.2841923 C11.8420386,36.628681 12.217178,36.9214747 12.6644218,37.0904403 C12.9258958,37.1893497 13.2151862,37.2000603 13.4878958,36.9960119 C13.9168136,36.6748023 14.0419327,36.2569785 14.009753,35.752486 M13.9883726,14.5748408 C13.9883726,14.4565867 13.9921905,14.3381141 13.9877181,14.2199693 C13.95772,13.4294593 13.361904,13.0021271 12.6223154,13.2543733 C12.4126562,13.3258504 12.2097603,13.4325195 12.0227905,13.5529594 C11.2642214,14.0410581 10.8300676,14.7948459 10.5484131,15.6060121 C10.4045315,16.0205571 10.5048886,16.5199129 10.4925622,16.9809071 C10.4821992,17.3667083 11.2618215,17.9033326 11.6113262,17.7540396 C11.9485044,17.6102111 12.3128445,17.4928314 12.6004986,17.2773073 C13.4918228,16.6092045 13.9272856,15.6821887 13.9883726,14.5748408 M19.0978605,13.2850844 C19.7456004,13.3544849 20.2810931,13.0872657 20.7410997,12.695672 C21.0236269,12.4552293 21.2854282,12.1477905 21.4463269,11.8166354 C21.667658,11.3609965 21.7732512,10.8704934 21.5155951,10.3515744 C21.3249165,9.96730323 21.0642061,9.66401757 20.6721587,9.5705728 C20.0348908,9.41865674 19.4138764,9.52357719 18.8647483,9.92227487 C18.2939124,10.3367106 17.8825572,10.8497279 17.6448635,11.5360825 C17.5190898,11.8991509 17.6548992,12.5317338 17.9006651,12.8047455 C18.2251896,13.1654095 18.6130918,13.3564522 19.0978605,13.2850844 M34.9854881,35.8532534 C35.05432,36.06375 35.1264244,36.3710795 35.254707,36.652616 C35.3881166,36.9454096 35.6271193,37.1225722 35.9730242,37.1488023 C36.5777851,37.1943771 37.0181567,36.8598339 37.4147856,36.4933774 C37.977331,35.9739119 38.3639242,35.3373945 38.5621296,34.5750819 C38.6859398,34.0987868 38.7553171,33.6601975 38.5368222,33.2001869 C38.3847593,32.8796331 38.1611373,32.6791914 37.8034514,32.6375511 C37.2614137,32.5743802 36.8246419,32.7887021 36.4088143,33.1162506 C35.5535968,33.7897087 35.1336239,34.680986 34.9854881,35.8532534 M21.6809662,39.1881934 C21.5983898,38.9619587 21.5125408,38.604027 21.3442244,38.2904679 C20.944432,37.5449863 20.2528404,37.1807156 19.4649277,36.9880336 C18.9487428,36.8618012 18.4597199,36.9938261 18.0639637,37.3284786 C17.4836375,37.8192002 17.4092424,38.6939744 17.8852843,39.3206555 C18.1393406,39.6549801 18.4256857,39.9765176 18.7456287,40.2461412 C19.2961749,40.7100863 19.9064991,40.9672507 20.6639774,40.7253872 C21.2974274,40.5231968 21.638969,39.8867887 21.6809662,39.1881934 M38.6905213,16.2853719 C38.5823101,15.9361836 38.5298408,15.4629487 38.3068734,15.0132116 C37.9732949,14.3406278 37.506416,13.8011618 36.8898741,13.411754 C36.6083286,13.2339357 36.2690778,13.0351333 35.8925204,13.1455184 C35.3824442,13.2949207 35.1364601,13.6942741 35.0424298,14.1795312 C34.9292008,14.7644627 35.0978444,15.3260056 35.3409924,15.8443782 C35.6654078,16.5363067 36.1326139,17.1368669 36.8406772,17.4699893 C37.1462211,17.6138178 37.4753271,17.7646409 37.856248,17.6633271 C38.439083,17.5084602 38.7040477,16.9117251 38.6905213,16.2853719 M27.0042585,39.3295082 C27.0643637,39.4930092 27.1486855,39.737605 27.2436976,39.9780476 C27.4900089,40.6012314 28.3992229,40.9173042 28.9317703,40.8053891 C29.4601725,40.6941297 29.9747211,40.5451645 30.3994936,40.1642814 C30.9178601,39.699462 31.311871,39.1754062 31.3212522,38.4524388 C31.3243065,38.2144006 31.2916905,37.9406238 31.1746435,37.742805 C30.8177211,37.138966 29.9578131,36.8602711 29.3469434,36.9953561 C28.8007606,37.1162332 28.2634135,37.2829037 27.8370047,37.687066 C27.389979,38.1106823 27.0821444,38.6022783 27.0042585,39.3295082 M28.3588619,9.47352139 C27.60062,9.37461201 26.8941929,10.4587899 27.0518191,11.3003393 C27.1355955,11.7473441 27.3511452,12.1448396 27.6701064,12.4612403 C28.3585346,13.1440976 29.2010983,13.4184208 30.1561275,13.2569963 C30.6142797,13.1796175 31.2580926,12.7434326 31.3005263,12.1639657 C31.3332514,11.7168516 31.2837273,11.3122522 31.0518151,10.9136638 C30.5343212,10.0243537 29.7728068,9.57100997 28.3588619,9.47352139 M41.2161399,19.8515741 L41.1401084,19.8595525 C41.1133829,19.8061086 41.0700766,19.7549599 41.0624407,19.698893 C40.9942633,19.2021603 40.7692233,18.7724236 40.5037132,18.3590808 C40.283582,18.01645 40.0093452,17.7140387 39.6333331,17.5634341 C39.0310811,17.3222264 38.23226,17.9389619 38.2501498,18.6464098 C38.2685849,19.3753883 38.1870993,20.1102686 38.4828256,20.8255856 C38.7440815,21.4574034 39.0250815,22.0408048 39.6237337,22.4227808 C40.1811522,22.7783081 40.7748957,22.5534942 41.0318972,21.9444091 C41.2242121,21.4882238 41.2476651,21.0328035 41.2508285,20.5591314 C41.2518103,20.4155215 41.2951166,20.2722395 41.3188969,20.128739 C41.35544,20.1256788 41.3920921,20.1226186 41.4286352,20.1196677 C41.5364101,20.8717069 41.7229435,21.5941278 42.1707327,22.2338147 C42.2184024,22.1178557 42.2623632,21.9957764 42.2414191,21.8860471 C42.1941857,21.6381726 42.117827,21.395544 42.0480134,21.1523691 C41.8493717,20.4591291 41.6485483,19.7667634 41.4463068,19.0746164 C41.4383437,19.0474026 41.4071457,19.026965 41.3482404,18.958876 C41.2992618,19.2900312 41.2577008,19.5708026 41.2161399,19.8515741 M24.4604229,13.3608239 C24.7952013,13.2663955 25.1415426,13.201148 25.4624673,13.0722926 C26.688788,12.5801502 26.9634611,11.2110477 26.1358419,10.2396592 C25.6255476,9.64073835 24.9697355,9.40630673 24.1929493,9.51734753 C24.0063068,9.54401481 23.8007929,9.54445198 23.6402214,9.627514 C23.0509504,9.93232975 22.6381771,10.3823947 22.4116099,11.0370546 C22.2227858,11.5824223 22.3736487,12.0397006 22.6556305,12.4472509 C23.0744034,13.0525108 23.7077443,13.3033362 24.4604229,13.3608239 M24.331704,36.9466119 C24.0563763,37.0257394 23.6751282,37.0741558 23.3538763,37.2396241 C22.5826534,37.6369009 22.0843583,38.5904748 22.4605886,39.431587 C22.821438,40.2382722 23.6054237,40.8741338 24.4651135,40.8477944 C25.5471163,40.8145696 26.5310527,40.1096354 26.6057752,38.8806454 C26.6230104,38.5975788 26.5396704,38.2665329 26.3936071,38.0232486 C25.9553081,37.2933958 25.2320822,37.0330619 24.331704,36.9466119 M41.4121636,30.1817569 C41.3748569,30.1778224 41.3375502,30.1738879 41.3002435,30.1698441 C41.282681,29.9863426 41.2481014,29.8025132 41.2508285,29.6193396 C41.257919,29.1599848 41.221485,28.7157123 41.0147711,28.291331 C40.8635808,27.9805041 40.368122,27.5308763 39.9998549,27.6945959 C39.6055167,27.8699005 39.2298319,28.0823644 39.0126459,28.4718815 C38.803314,28.8474093 38.5859099,29.228511 38.4509732,29.6335476 C38.1635372,30.4967368 38.1058318,31.3730411 38.5193687,32.2246454 C38.8063684,32.8155879 39.5159589,32.926738 40.0060726,32.4867279 C40.551601,31.9968806 40.9009966,31.4068124 41.0336426,30.6851565 C41.0489143,30.6024223 41.0957113,30.5253714 41.1277819,30.4456974 C41.1537439,30.4475554 41.1795968,30.4494133 41.2053406,30.4513806 C41.4160906,30.932266 41.1124011,31.4946833 41.3756205,32.0012523 C41.7190165,31.3911836 42.4952572,28.2414937 42.3598841,27.8370036 C41.6844369,28.507948 41.6098235,29.3727766 41.4121636,30.1817569 M14.0213159,39.0926721 C14.0497868,39.0865517 14.0782577,39.0805407 14.1066195,39.0745296 C14.2330477,39.2116912 14.3656936,39.3438254 14.4849223,39.487326 C15.0053614,40.1136792 15.6425202,40.5609026 16.4261786,40.7991594 C16.831207,40.9222224 17.4143693,40.614565 17.4811286,40.2215505 C17.5866127,39.6000062 17.4541849,39.0272061 17.0957354,38.5152818 C16.6232932,37.8406215 16.093691,37.2461816 15.2400008,37.0232256 C14.8020291,36.9089061 14.324569,36.9426773 14.0491323,37.2364546 C13.7334436,37.5732929 13.6879556,37.9926468 13.9005601,38.4482857 C13.9568473,38.5689442 13.9793186,38.7077452 13.9999355,38.8409723 C14.005826,38.8786781 13.9572837,38.9508109 13.9204133,38.9616308 C13.8849611,38.9722322 13.8165655,38.9354007 13.7897309,38.8993343 C13.6878465,38.7620634 13.5971979,38.6164863 13.5018586,38.4742972 C13.1520266,37.9529738 12.6999831,37.533292 12.1674357,37.2125196 C11.9487226,37.0808226 11.6859396,36.9886893 11.4340649,36.960492 C11.3075277,36.9463933 11.1152128,37.0863965 11.034818,37.2102245 C10.9405696,37.3553644 10.998384,37.525423 11.147938,37.6681585 C11.5335494,38.0360358 11.893308,38.4306897 12.2742288,38.8037037 C12.8093942,39.3279781 13.3663764,39.827771 14.0090985,40.2199111 C14.0700764,40.2570705 14.1634522,40.2802404 14.2259572,40.2602399 C14.2618458,40.2488735 14.2936983,40.1302916 14.2791901,40.0721482 C14.2247573,39.8552033 14.1459987,39.6445974 14.08513,39.4292919 C14.0542592,39.3197812 14.0420418,39.2050244 14.0213159,39.0926721 M18.5100076,14.9833748 C18.4993174,14.308168 18.4335398,14.044774 18.0917801,13.6960228 C17.3917889,12.981908 16.7493941,12.9537107 15.9408645,13.3794035 C15.033505,13.8571194 14.3580578,14.604459 14.1901777,15.6724617 C14.0086622,16.8272423 14.6829095,17.6866063 15.8364713,17.7148037 C16.2563351,17.7249679 16.6784896,17.5748005 17.0647555,17.3406967 C17.9614248,16.7972963 18.453284,16.0278797 18.5100076,14.9833748 M18.4881908,35.3543348 C18.5722945,34.7959613 18.3489998,34.3180268 18.0348383,33.8926619 C17.8075075,33.5848952 17.5314163,33.2984406 17.2296903,33.0635718 C16.6274383,32.5947085 15.9267927,32.5278218 15.196149,32.6829073 C15.170078,32.6884812 15.1445524,32.7006126 15.120663,32.7133998 C14.2940255,33.1563608 13.9257584,34.2841463 14.3210783,35.1412152 C14.7143256,35.9939124 15.2951972,36.6537089 16.1644865,37.0513137 C16.6840529,37.2889148 17.5845401,37.1461793 17.9831325,36.7320714 C18.3549994,36.3456144 18.5653131,35.9045114 18.4881908,35.3543348 M9.00171308,25.1950849 C8.95077092,26.0934662 9.20340914,26.8342483 9.77380863,27.465301 C10.0774981,27.801265 10.7963607,27.9699028 11.1772815,27.7958004 C11.8554559,27.4860665 12.2494668,26.9174196 12.4375274,26.2413385 C12.693329,25.3213173 12.6716213,24.3900391 12.2299408,23.5094724 C12.0332626,23.1170044 11.7418996,22.7752479 11.3382893,22.6306544 C10.5699026,22.3553475 9.97986804,22.629015 9.54800504,23.2694669 C9.15301239,23.8554913 8.9225182,24.5155065 9.00171308,25.1950849 M36.4453573,25.0101626 C36.4490662,26.0049396 36.6599253,26.8161058 37.3221734,27.4642081 C37.6948039,27.8288067 38.4445372,28.0297949 38.8555652,27.804981 C39.4759251,27.4656289 39.8653545,26.9176382 39.9911281,26.2306278 C40.1513723,25.3546514 40.1488634,24.4759427 39.7408898,23.6478362 C39.5059231,23.1712133 39.1786716,22.7577611 38.6559417,22.6133862 C37.9276979,22.4121794 37.1280041,22.8531732 36.7867898,23.5358118 C36.5352424,24.0385556 36.4752463,24.570699 36.4453573,25.0101626 M30.2683748,15.0226107 C30.2142692,15.5782519 30.4785794,16.050831 30.7963407,16.498273 C31.1422456,16.9854973 31.6212328,17.3306419 32.1710154,17.518515 C32.6620019,17.6861692 33.1796048,17.7568812 33.7166246,17.5764399 C34.1562326,17.4285676 34.6726356,16.9449499 34.7521577,16.4858137 C34.8857854,15.7150856 34.7471398,15.0198784 34.2746977,14.37888 C33.714552,13.6187533 32.9654732,13.2100007 32.0463326,13.151748 C31.7468974,13.1328405 31.3922658,13.2268317 31.1395185,13.3891305 C30.5741369,13.7519804 30.2167781,14.2757083 30.2683748,15.0226107 M30.2639024,35.3754282 C30.1944159,35.6723749 30.3456062,36.0059345 30.5380301,36.3176356 C30.8022312,36.7455143 31.1936241,37.0231163 31.6846105,37.1232279 C32.2322115,37.2350338 32.7646498,37.1069434 33.231856,36.8362268 C34.090455,36.3386197 34.6609636,35.6294231 34.7949186,34.591585 C34.943818,33.4375695 34.1187077,32.5730687 33.0382321,32.6237803 C32.2702818,32.6597374 31.626687,32.9416018 31.0923943,33.4610673 C30.5872269,33.9524447 30.2449218,34.5428408 30.2639024,35.3754282 M15.2752348,30.6239529 C15.3008695,30.6192533 15.3263952,30.614663 15.3519208,30.6099635 C15.245564,30.202741 15.1698598,29.7842614 15.0263055,29.3905912 C14.7509778,28.6353826 14.2307569,28.1301251 13.4852778,27.7795159 C12.5911174,27.3589598 11.5357311,28.0554785 11.2803658,28.8838036 C11.0414721,29.6586848 11.0928506,30.4307244 11.457518,31.1827635 C11.8229489,31.9366606 12.3400064,32.4765638 13.1632623,32.7252034 C13.6554486,32.8739499 14.06964,32.7199573 14.4420523,32.4695691 C15.0828109,32.0388488 15.3009786,31.3787243 15.2752348,30.6239529 M13.434772,17.5609204 L13.4066284,17.4876947 C13.1456998,17.5854018 12.8892436,17.698082 12.6228608,17.7773188 C12.2300499,17.8940428 11.9653033,18.1903338 11.765898,18.4949309 C11.4192295,19.0245606 11.1834993,19.6190005 11.1435746,20.268305 C11.1052862,20.8922538 11.1994256,21.5038525 11.5938728,21.993372 C12.2447762,22.8008222 13.2853271,22.7759036 14.0560046,22.2094425 C14.5208109,21.8677953 14.8372632,21.4176211 15.0470314,20.8794666 C15.3607566,20.0743115 15.4148622,19.2787741 15.0064522,18.4925265 C14.6775644,17.8593972 14.1835236,17.4905363 13.434772,17.5609204 M37.9579141,29.9076523 C37.962932,29.4571501 37.8060694,28.876481 37.5420865,28.4976745 C36.853331,27.5098922 35.9642975,27.4912033 35.0995898,27.9940564 C34.3612012,28.4233558 33.9014127,29.0814038 33.7024437,29.9408771 C33.5022749,30.8055964 33.6489926,31.5509687 34.2357547,32.2152463 C34.7753926,32.8262986 35.6925696,32.9754823 36.3878701,32.5585329 C37.4191489,31.940158 37.8596296,30.9818846 37.9579141,29.9076523 M35.5870855,17.5497726 C34.9272373,17.5281327 34.6233297,17.6491191 34.2073929,18.0863969 C33.9311926,18.3767861 33.8230905,18.7442263 33.6900082,19.1149452 C33.4613684,19.7517904 33.6554286,20.3357383 33.8661786,20.8930188 C34.1446697,21.6294292 34.6824531,22.1721739 35.432841,22.468137 C35.9977863,22.6908744 36.697232,22.6526221 37.1815643,22.2398257 C37.7609087,21.7458253 37.99293,21.0653725 37.9388244,20.3383613 C37.888755,19.6656682 37.7438916,18.9902429 37.2434148,18.4622526 C36.7735907,17.9667221 36.2859858,17.5167664 35.5870855,17.5497726 M21.9226961,37.1414797 C22.4305905,37.1701143 22.8955059,36.9856291 23.3107882,36.6761138 C24.1891314,36.0215633 24.4857304,35.0079881 23.9400929,34.008293 C23.4270716,33.0687085 22.5942163,32.607605 21.5035959,32.6201736 C21.0215543,32.6258568 20.580201,32.7402857 20.2025527,33.02062 C19.3444991,33.6573559 19.1582929,34.3587928 19.4603461,35.3828601 C19.7278198,36.2895476 20.9030892,37.1930656 21.9226961,37.1414797 M21.9624026,13.1497807 C21.4512356,13.1485785 20.6733586,13.4337217 20.3296354,13.7077171 C19.8917728,14.0569054 19.6403345,14.5152766 19.4104948,15.0239222 C19.1338582,15.6358488 19.4787813,16.6608997 19.9085717,17.0506354 C20.2401866,17.3514074 20.6293978,17.4949079 21.0513342,17.628135 C21.6139888,17.805844 22.1381367,17.6608134 22.6195238,17.4770933 C23.3310778,17.2053931 23.8274093,16.67784 24.0922649,15.9113743 C24.313487,15.2707038 24.1672055,14.7234781 23.8672249,14.193302 C23.4377618,13.4344867 22.6857377,13.236668 21.9624026,13.1497807 M27.3666351,32.63154 C26.6125384,32.5929599 25.8736043,32.9272845 25.3484746,33.4293725 C24.585433,34.1592254 24.5126741,35.4113853 25.1143807,36.2120595 C25.943418,37.3153635 27.3226743,37.3930702 28.3903871,36.8344781 C28.9337338,36.5501 29.3484706,36.1098713 29.5891096,35.5131363 C29.8762183,34.8013166 29.8196038,34.1453453 29.3492342,33.5439107 C28.8465758,32.9011637 28.1725466,32.6047634 27.3666351,32.63154 M29.7805518,15.3692853 C29.8240762,15.1406462 29.6213984,14.7559379 29.404867,14.4097004 C28.9371154,13.6614865 28.2085443,13.2867238 27.3570357,13.1226763 C26.9629157,13.0467183 26.6058843,13.166721 26.2391443,13.2765596 C25.5107914,13.4945974 25.0157689,13.9996363 24.8074187,14.6835865 C24.5621982,15.4883044 24.7341143,16.2580489 25.3675643,16.8877902 C25.9309824,17.4480216 26.6395912,17.6167687 27.3837613,17.713055 C27.4540113,17.7221263 27.5323335,17.7158966 27.5996382,17.6941475 C27.9490338,17.5810301 28.3091196,17.4890062 28.6413891,17.3367622 C29.3787959,16.9987217 29.7177195,16.3857021 29.7805518,15.3692853 M17.7592925,24.9172643 C17.7917994,24.2455549 17.3989885,23.4816029 16.6601635,22.9199507 C15.9650812,22.3916325 14.8973684,22.392944 14.1210185,22.9703343 C13.3913566,23.5129698 13.0763224,24.2885067 13.0310526,25.1804398 C13.0020363,25.7502889 13.2040596,26.2567487 13.4728423,26.748454 C14.1044378,27.9041089 15.5653979,28.2225862 16.6234022,27.4628966 C17.3949524,26.9090041 17.7470751,26.1416641 17.7592925,24.9172643 M18.2989303,17.5510841 C17.7993262,17.4841973 17.2996131,17.7231099 16.8552054,18.0888014 C16.2299368,18.6033487 15.8302535,19.2542926 15.767094,20.0785739 C15.7363323,20.4800039 15.793165,20.8617613 15.9715171,21.2414421 C16.1929573,21.713147 16.5275175,22.0567614 16.9526173,22.3263851 C17.4594209,22.6479226 18.0301477,22.6473761 18.5857118,22.5548057 C18.8934373,22.5035477 19.1965814,22.3423418 19.4689638,22.1765456 C19.9914754,21.8586148 20.3372713,21.3953255 20.5792193,20.8196838 C20.8126587,20.2640426 20.8324029,19.6968165 20.6701952,19.1694819 C20.372069,18.2006072 19.5244874,17.4740331 18.2989303,17.5510841 M20.8213854,30.4089753 C20.7250644,30.0654701 20.6298342,29.7217463 20.5324223,29.3786783 C20.2096432,28.2430238 18.4096504,27.3046416 17.3041946,27.8103363 C16.5031918,28.1766835 15.9987881,28.7193189 15.8051642,29.5347475 C15.610995,30.3524712 15.8870862,31.0950019 16.3835268,31.746383 C16.7611752,32.2421321 17.2763782,32.5209364 17.8766667,32.7139463 C18.4436846,32.8962455 18.9581241,32.7760242 19.4326388,32.5583143 C20.3146909,32.1534962 20.7458994,31.410419 20.8213854,30.4089753 M30.9899645,25.3386948 C30.9432766,25.8549908 31.1865336,26.4014514 31.5582914,26.9008072 C31.8812887,27.3346969 32.3061703,27.6820273 32.8158101,27.8045438 C33.3975543,27.9444377 33.9918432,27.9609408 34.582096,27.6480375 C35.4425494,27.1918521 35.8084167,26.4449497 35.950662,25.5606671 C36.0528736,24.9262263 35.8438689,24.3365952 35.5336345,23.7698063 C34.8301527,22.4843122 33.2341467,22.2272571 32.1331634,22.9656348 C31.3479777,23.4922043 30.9770926,24.2626045 30.9899645,25.3386948 M30.6474412,22.6595075 C30.9991276,22.5611446 31.3580135,22.4827821 31.700864,22.3600471 C32.308352,22.1424465 32.7275613,21.6854961 32.9461653,21.1072314 C33.2547636,20.2913657 33.1403346,19.4786694 32.6588385,18.7451006 C31.9225224,17.6234355 30.3561873,17.1652829 29.1020502,17.771417 C28.4320571,18.0953589 28.0150295,18.6443333 27.8197694,19.3325458 C27.6398902,19.9665494 27.75421,20.6157447 28.0998968,21.170293 C28.6742233,22.0919535 29.5228957,22.5833309 30.6474412,22.6595075 M30.1336562,32.8328561 C31.0611963,32.8042216 31.896015,32.4629022 32.4384891,31.8271499 C32.989908,31.1809056 33.2146207,30.4464625 33.0377958,29.5809781 C32.9255485,29.0311294 32.6657107,28.6034693 32.2443198,28.2692539 C31.6353046,27.7861827 30.9401132,27.5560135 30.1662723,27.7328482 C29.8196038,27.812085 29.4862435,27.9646568 29.1595374,28.1120919 C28.0994604,28.5903542 27.4040509,30.1495157 27.9465249,31.3004712 C28.4159127,32.2964503 29.2200789,32.726952 30.1336562,32.8328561 M24.5624163,22.6059544 C25.0322405,22.6553544 25.8517876,22.2881329 26.311576,21.8684511 C26.7073323,21.5072406 26.9344448,21.0745531 27.1014522,20.5701699 C27.2990031,19.9741999 27.127196,19.4380127 26.8915749,18.9380012 C26.6249739,18.3724144 26.1564588,17.9674871 25.5614063,17.7181918 C24.8643605,17.4261632 24.1405891,17.4145782 23.4606694,17.6530537 C22.7866402,17.8894525 22.2591107,18.3615945 21.9542213,19.0583319 C21.6027531,19.8617383 21.6253335,20.6390239 22.0882854,21.3658166 C22.6127606,22.1890049 23.4071092,22.5716366 24.5624163,22.6059544 M21.7348537,30.3141097 C21.6721304,30.7054848 21.8343381,31.1424347 22.0863219,31.5156674 C22.4713879,32.0858444 22.9845183,32.4851978 23.6784008,32.7060772 C24.5991776,32.999308 25.3952716,32.7610512 26.1194793,32.2694552 C27.0225846,31.6568728 27.3200563,30.6031874 27.0358928,29.5604312 C26.8140163,28.7458769 26.2572523,28.2431331 25.5340263,27.9226886 C24.6590646,27.5349201 23.7812668,27.5949215 22.9588836,28.1032392 C22.1747889,28.5878405 21.7034375,29.2656703 21.7348537,30.3141097 M18.7517374,25.186888 C18.6303271,26.6433149 20.0047837,27.9226886 21.362005,27.9049833 C23.0219341,27.8832341 24.1384074,26.6499818 24.132735,25.2288562 C24.1267354,23.7881673 23.0460416,22.5850796 21.4300734,22.5536034 C19.9671497,22.5250782 18.6574889,23.7393138 18.7517374,25.186888 M27.3323828,22.566172 C26.8137981,22.5183021 26.215255,22.7635536 25.6810713,23.1619234 C25.207211,23.5152649 24.8861772,24.0130905 24.7925833,24.5855627 C24.669973,25.3360718 24.7122976,26.0758702 25.220192,26.7328252 C25.8041179,27.4880338 26.5286529,27.9601758 27.4916452,27.9301205 C28.6203359,27.8948191 29.536313,27.4587435 30.0641698,26.3804674 C30.5083593,25.4726869 30.4458542,24.6074211 29.8853814,23.7831399 C29.3167272,22.9468365 28.5031798,22.5658442 27.3323828,22.566172 M24.4849668,44.9996931 C13.6770472,45.0601317 4.80220272,36.1856108 5.00335335,25.1173782 C5.19206842,14.7373582 13.6074517,5.88141697 24.7581128,6.00120114 C35.3591003,6.11508354 44.1482049,14.7243525 43.9981055,25.8555373 C43.8578237,36.2588365 35.3918254,45.0546671 24.4849668,44.9996931" id="golf" fill="#FFFFFF"></path>
            </g>
        </g>
    </g>
</svg>