<?xml version="1.0" encoding="UTF-8"?>
<svg width="50px" height="52px" viewBox="0 0 50 52" version="1.1" xmlns="http://www.w3.org/2000/svg" xmlns:xlink="http://www.w3.org/1999/xlink">
    <!-- Generator: Sketch 52.2 (67145) - http://www.bohemiancoding.com/sketch -->
    <title>Group 10</title>
    <desc>Created with Sketch.</desc>
    <g id="Page-1" stroke="none" stroke-width="1" fill="none" fill-rule="evenodd">
        <g id="Lesson-2" transform="translate(-468.000000, -5849.000000)">
            <g id="Group-10" transform="translate(468.000000, 5849.000000)">
                <polygon id="Rectangle-12" fill-opacity="0.7" fill="#05BCB0" fill-rule="nonzero" points="0 0 50 0 50 52 0 52"></polygon>
                <path d="M34,40.0329517 C33.8946024,40.0222608 33.7821782,39.9850877 33.6851911,40.0065677 C33.5348664,40.0400136 33.3980624,40.1220101 33.2499734,40.1684028 C32.7455552,40.3262166 32.3698499,40.6442963 32,40.9839539 C32.2164378,41.0945903 33.2762696,40.6175199 34,40.0329517 M15,40.1237368 C15.4479252,40.357723 15.8553665,40.5758899 16.2689768,40.7840611 C16.4344788,40.8674165 16.6101981,40.9374732 16.7886163,40.9950137 C16.8471252,41.0138751 16.928864,40.9740662 17,40.9612022 C16.9648176,40.9109629 16.9426478,40.8433399 16.8926213,40.813179 C16.4724565,40.5592883 16.0558581,40.298618 15.6189214,40.069847 C15.4512989,39.9820587 15.2319148,39.9540708 15,40.1237368 M38,12.8539632 C37.6668112,12.6208027 37.3493034,12.390522 37.0203913,12.1702708 C36.4469333,11.7860724 35.8690691,11.4057468 35.2848548,11.0311807 C35.2275738,10.9944391 35.1140485,11.0092351 35.0265719,11 C35.0195738,11.0614678 34.9808248,11.1353482 35.0119277,11.1820201 C35.0935725,11.304757 35.2052834,11.4158756 35.3053308,11.5314628 C35.8208598,12.1271739 36.4882741,12.5974668 37.31198,12.9315178 C37.5077981,13.0109592 37.7330343,13.0598156 38,12.8539632 M7.02013009,21.9606252 C7.0611856,21.9737501 7.10214822,21.9868751 7.14320372,22 C7.37541813,21.3077167 7.65054577,20.6316668 7.82535677,19.9177388 C7.95261027,19.3986127 7.94935927,18.829865 7.9987745,18.2824166 C8.00574093,18.2049334 7.98140486,18.1230752 7.96617159,18 C7.55217974,18.5807213 7.47099759,19.2823303 7.32628157,19.9369657 C7.18026514,20.5968972 6.92677989,21.2491149 7.02013009,21.9606252 M11.31004,13 C11.6103533,12.8952285 11.9706076,12.8276509 12.220585,12.6698826 C12.7076517,12.362291 13.1473006,12.0131401 13.5772228,11.6625922 C13.7569244,11.5160868 13.8692683,11.3249662 13.9945002,11.1477278 C14.0182091,11.1140263 13.9588759,11.0500284 13.9377203,11 C13.877536,11.0177238 13.8093272,11.0275025 13.7583834,11.0542192 C12.8064998,11.5539791 11.9342539,12.1180862 11.1332564,12.7390317 C11.0779355,12.7818134 11.0438919,12.8388266 11,12.8892042 C11.08365,12.919064 11.1671784,12.9489239 11.31004,13 M7.89899113,31 C7.92323696,30.9854308 7.94756177,30.9707624 7.9718076,30.9561932 C7.98167968,30.9024753 8.00316133,30.847469 7.99960738,30.7952377 C7.97859959,30.4936445 7.98744497,30.1790679 7.91881427,29.8945217 C7.81116911,29.4483263 7.96327812,28.9612974 7.71568634,28.5272925 C7.57171192,28.274759 7.57131704,27.900617 7.46430369,27.6050695 C7.37727143,27.3646275 7.324594,27.0456899 7,27 C7.0253515,27.1768131 7.04438487,27.3270646 7.06870968,27.4760277 C7.15139823,27.9814911 7.22895329,28.4885404 7.32198778,28.9911296 C7.39267187,29.3728041 7.48144162,29.749523 7.56736821,30.1265393 C7.60488211,30.2909636 7.6451602,30.4567754 7.70312906,30.610694 C7.75493774,30.7484576 7.83265075,30.870859 7.89899113,31 M40.9710941,17 C40.9794531,16.9166743 41.0179429,16.8238498 40.9899503,16.7572645 C40.9055836,16.556662 40.809359,16.3579405 40.6925287,16.1735142 C40.4237801,15.7492677 40.1471585,15.3293475 39.860137,14.9164808 C39.657968,14.6258752 39.4356794,14.3481542 39.2168899,14.0687403 C39.1877309,14.0313095 39.1219288,13.994255 39.0802314,14.0007442 C39.046407,14.0059168 38.9953788,14.08012 39.0003358,14.1177388 C39.0276481,14.3263353 39.0411584,14.5430198 39.1134727,14.7381675 C39.2234992,15.0349801 39.3651147,15.3227642 39.5168386,15.6024602 C39.6620503,15.8699302 39.8138714,16.1398453 40.0052515,16.3765618 C40.2397869,16.666509 40.5338066,16.9016267 40.9710941,17 M11,14.0245658 C10.9703451,14.016338 10.9406902,14.0081103 10.9110353,14 C10.8573654,14.0659399 10.7945079,14.1231818 10.7515719,14.1992301 C10.4811301,14.6780876 10.1992266,15.1480121 9.95143528,15.6460286 C9.62304813,16.3061326 9.31822117,16.9859834 9.01548642,17.6665393 C8.97882714,17.7488173 9.0182154,17.8875143 9.02230887,18 C9.10690722,17.9908319 9.20214859,18.010226 9.27346591,17.9657959 C9.38690047,17.8951544 9.48896429,17.789251 9.58775333,17.6854633 C10.0182953,17.2329347 10.2901016,16.6239605 10.556177,16.0127531 C10.6510545,15.7949517 10.7341974,15.5651612 10.7996929,15.3301989 C10.8678264,15.0852458 10.917039,14.8295965 10.9577918,14.5742999 C10.9864461,14.394934 10.9869919,14.2080456 11,14.0245658 M21,8 C20.8154587,8.02470897 20.6890156,8.02146436 20.5723068,8.06089887 C20.1246327,8.21164854 19.675934,8.36115028 19.2358424,8.54060229 C18.8999587,8.67749996 18.5764735,8.85932303 18.2473526,9.02068008 C18.0969325,9.09443261 17.9749979,9.18128838 18.0044056,9.42663097 C18.0347356,9.67921154 18.1289019,9.87551057 18.3326043,9.92492851 C18.5514718,9.97809023 18.7866313,10.0268842 19.001605,9.98295714 C19.2604342,9.92992022 19.5101439,9.79090107 19.7554476,9.66473558 C20.3488284,9.35961725 20.7338957,8.81252574 21,8 M30.2084331,10 C30.3698837,9.95480341 30.5368394,9.92792976 30.6917838,9.86013488 C30.9339096,9.75422828 31.0940589,9.28845912 30.9383137,9.15604533 C30.7710578,9.01398146 30.5799796,8.90453242 30.388501,8.81572723 C30.0103484,8.64031561 29.6279919,8.47650851 29.2413314,8.33151297 C28.9019149,8.20410745 28.5554919,8.10308697 28.2094692,8.00499816 C28.1485124,7.98765244 28.0411122,8.01696915 28.0147877,8.06949491 C27.9855604,8.12751756 28.0029767,8.2538237 28.0381094,8.32064136 C28.149213,8.53245456 28.2631192,8.74719943 28.4027494,8.930551 C28.888102,9.56745643 29.4708454,9.97031684 30.2084331,10 M35.0110802,38.9588403 C35.0402495,38.9726263 35.0693183,38.986214 35.0984876,39 C35.4104989,38.7711918 35.743834,38.5656909 36.0298947,38.3087156 C36.63199,37.767788 37.2087382,37.1993875 37.7970535,36.6434838 C37.9396815,36.5087974 38.0867352,36.3754003 37.9376698,36.1633535 C37.8093247,35.9809615 37.5856261,35.9605305 37.3543837,36.0564375 C36.9086963,36.2414082 36.5402575,36.5251621 36.2000827,36.8557289 C35.6637692,37.3771181 35.2910052,38.0006626 35.0155059,38.6840126 C34.9834196,38.7636541 35.0110802,38.8667021 35.0110802,38.9588403 M38,35.6836375 C38.0935007,35.7989681 38.1748742,35.8995371 38.2561264,36 C38.3554481,35.9326708 38.4774477,35.8804216 38.5500896,35.7957821 C38.8810408,35.4100727 39.2073837,35.0209649 39.516991,34.6220869 C39.7474078,34.3251586 39.9626655,34.0179291 40.1608239,33.7036906 C40.4028827,33.3201051 40.609894,32.9196341 40.8526805,32.5365796 C40.9558829,32.3734602 41.0923139,32.1675431 40.912225,32.0659121 C40.7568756,31.9782991 40.4379303,31.9787239 40.2731217,32.0630448 C39.7538352,32.3288572 39.3712221,32.7385673 39.0776227,33.1928804 C38.8328959,33.571687 38.6250357,33.9732199 38.4500403,34.3808061 C38.2718917,34.7954013 38.1540154,35.2297492 38,35.6836375 M10.9498957,35.5216594 L11,35.5108813 C10.884928,35.1001859 10.7997028,34.6810733 10.6448351,34.2816691 C10.5381538,34.0064693 10.3570353,33.7464614 10.170403,33.5012348 C9.86881849,33.1049101 9.56531616,32.7039663 9.20247983,32.3501379 C9.02783413,32.1798445 8.72924632,32.0686765 8.46302251,32.010475 C8.15664337,31.9434457 7.90672142,32.2116655 8.03389993,32.4288691 C8.29904494,32.8812397 8.54381263,33.3459281 8.85774337,33.772842 C9.36849513,34.4670518 9.92239888,35.138371 10.4737854,35.8098955 C10.548822,35.9012524 10.7144777,35.9380005 10.83818,36 C10.8754586,35.9003286 10.9196893,35.8019916 10.9471388,35.7003699 C10.9624817,35.6436054 10.9498957,35.5814006 10.9498957,35.5216594 M18.7771888,40.0072405 C18.4565989,39.9702353 18.1988522,40.0757526 18.0568325,40.3082572 C17.8554555,40.6379006 18.2227545,41.3424839 18.6329781,41.4192872 C18.9362388,41.476017 19.2241622,41.5934911 19.5219453,41.6752692 C19.9149393,41.783143 20.3098256,41.8859547 20.7060066,41.9842281 C20.902902,42.0331029 20.9860621,41.9694784 20.9982125,41.778081 C21.0226128,41.3949371 20.7934493,41.1128594 20.5406822,40.8475388 C20.0815584,40.3655979 19.5004332,40.0625738 18.7771888,40.0072405 M28.0008008,41.7022116 C27.9910156,41.9741052 28.0688175,42.0408707 28.349806,41.9782341 C28.6665777,41.907779 28.9829657,41.8338098 29.2938854,41.7443792 C29.6722462,41.6355339 30.0423568,41.5030571 30.420142,41.3921913 C30.7213725,41.3038148 31.0650055,40.784801 30.9894101,40.5097448 C30.9125675,40.2294176 30.6366634,40.0302631 30.3164382,40.0056653 C29.7394955,39.9612136 29.249852,40.1839995 28.8146987,40.4755714 C28.3740772,40.770833 28.0156704,41.1512206 28.0008008,41.7022116 M24,7.4794491 C23.9502352,7.34493674 23.9115073,7.20449439 23.8447929,7.07897588 C23.8204524,7.03311715 23.7270325,6.9951651 23.6693842,7.00050211 C23.040475,7.05782552 22.4128469,7.12928212 21.7839378,7.18640786 C21.4769726,7.2142789 21.290724,7.3400939 21.1116692,7.62295529 C20.7687353,8.16436503 21.278406,8.94673076 21.7915257,8.98132248 C22.074052,9.0002985 22.3621952,9.01245502 22.6420608,8.97904931 C23.4056799,8.88772718 23.9447167,8.26843667 24,7.4794491 M25.0028294,7.54202763 C24.9668938,8.10670009 25.2769245,8.46826631 25.7244951,8.74474088 C26.1490275,9.0069521 26.6101847,9.04270818 27.0942816,8.96132891 C27.768788,8.84810134 28.0912239,8.40837976 27.9776084,7.73516906 C27.9259202,7.42880006 27.7871989,7.25490439 27.4841583,7.21797598 C26.7773591,7.13200509 26.0679017,7.06801539 25.358838,7.00216951 C25.1521837,6.98292375 25.035516,7.09253664 25.0168098,7.29867139 C25.0095242,7.37956219 25.0072598,7.46084376 25.0028294,7.54202763 M24,41.6122319 C23.9639187,41.4748047 23.9382742,41.1964294 23.824464,40.9780223 C23.4045097,40.1720854 22.2709807,39.6582666 21.4467767,40.2678302 C21.1521626,40.4856694 20.9220574,41.0028955 21.0249338,41.3890546 C21.1473915,41.8488112 21.3962828,42.220319 21.6951711,42.5530973 C21.935216,42.8202286 22.227047,42.9079094 22.5496913,42.9121118 C22.6150948,42.9130204 22.6826851,42.9244916 22.7454049,42.9458439 C23.4714042,43.1949166 23.9807169,42.5565046 24,41.6122319 M26.7132937,40.0680846 L26.6943522,40 C26.4276004,40.0976624 26.1564321,40.1821543 25.89498,40.2955542 C25.2232916,40.5869787 24.9246434,41.2211703 25.0161124,42.038967 C25.0754887,42.5698038 25.6457958,43.1306649 26.1541749,42.9729541 C26.372346,42.9053159 26.6066126,42.9071018 26.8324389,42.8688181 C26.9191971,42.8540851 27.0108623,42.8323203 27.086334,42.7849959 C27.4217857,42.57438 27.675779,42.2682225 27.8731439,41.8956545 C28.0777714,41.5093579 28.0299759,40.8616611 27.7648925,40.5473557 C27.4782178,40.2073791 27.1272595,40.0481057 26.7132937,40.0680846 M8.99833813,24.204874 C9.01887837,23.7776349 8.84774306,22.9476142 8.55557059,22.4037159 C8.36028796,22.0400254 8.02132381,21.888266 7.7656228,22.0898614 C7.62144029,22.2035531 7.48316937,22.3693321 7.42325197,22.5411487 C7.28197516,22.9451582 7.15723074,23.3611407 7.08348625,23.7827515 C6.91285192,24.758801 6.99170642,25.7225705 7.43236984,26.6142977 C7.61412596,26.9820815 7.85409615,27.0991501 8.10438656,26.9120859 C8.27973012,26.7809977 8.44475346,26.5992548 8.54244487,26.402776 C8.85956622,25.7654479 8.98451103,25.0752137 8.99833813,24.204874 M40,24.2668965 C40.034647,24.6099089 40.082401,24.9409832 40.0983528,25.2736012 C40.1236523,25.802785 40.3231013,26.2654863 40.6039352,26.695461 C40.8591649,27.0859167 41.2618223,27.1050587 41.5354424,26.728908 C41.7883352,26.3814704 41.9302762,25.981032 41.9552708,25.5426184 C42.0084098,24.6115555 42.0841049,23.6757585 41.7147738,22.7871991 C41.6133728,22.5430871 41.4568007,22.3127656 41.2849881,22.1116716 C41.1448759,21.9476267 40.7824538,21.9758252 40.6299459,22.1214485 C40.3570371,22.3820267 40.2002618,22.7183496 40.1296469,23.076902 C40.0524278,23.4693131 40.0399304,23.8746913 40,24.2668965 M15.1222481,12.9833774 C15.5995532,13.0428275 16.001599,12.8141908 16.3955689,12.5633319 C16.8588287,12.2683722 17.2162808,11.8815455 17.5273836,11.4314886 C17.9052013,10.8848682 18.0716378,10.3078927 17.9713312,9.65989786 C17.954828,9.55382692 17.9002855,9.43985222 17.8292398,9.3577217 C17.5548889,9.04019619 16.9174677,8.8808607 16.5040686,9.10422821 C15.9911821,9.38131848 15.4922239,9.70411317 15.0478081,10.0763924 C14.6231728,10.4322913 14.3986826,10.9445474 14.1325247,11.4309159 C13.778935,12.077078 14.1409519,13.1460347 15.1222481,12.9833774 M34.9944776,11.9450091 C35.0379398,11.4647138 34.8194699,11.0383597 34.5289107,10.6605412 C34.257243,10.3072205 33.9486036,9.97322209 33.6130755,9.67936326 C33.1772946,9.29774933 32.67916,9.02436285 32.0662852,9.00124519 C31.4255946,8.97709241 31.0540219,9.30488015 31.0063873,9.93446263 C30.9579415,10.5746263 31.1889285,11.1126583 31.5684983,11.5982442 C32.1758099,12.3751586 32.9034249,12.9757578 33.9555575,12.9994505 C34.6723939,13.0155524 34.9948253,12.6781035 34.9944776,11.9450091 M34.9964883,37.0610357 C35.0028652,36.3500473 34.2876109,35.8346169 33.5992555,36.0491287 C32.9708427,36.2450212 32.3898508,36.5126035 31.9323384,36.9899034 C31.3561002,37.5912946 30.9156315,38.2405161 31.0137196,39.1139492 C31.0502417,39.4385042 31.2309973,39.6423127 31.4966235,39.8237112 C32.0152379,40.1777003 32.5393017,39.9230511 32.9432482,39.7160093 C33.4689352,39.4464202 33.923433,39.0066933 34.3264519,38.5701997 C34.7091808,38.1557817 35.0377642,37.6719037 34.9964883,37.0610357 M11,30.2578091 C10.949807,29.4120337 10.8144282,28.7149234 10.4135407,28.0765251 C10.1706681,27.6895648 9.92254646,27.3386935 9.49771067,27.1206513 C8.94569753,26.8375411 8.34141373,27.064848 8.17847799,27.674806 C8.03096101,28.2269139 7.91121965,28.7754668 8.08869931,29.3661414 C8.20286368,29.7459916 8.18766363,30.1525585 8.38395198,30.5319778 C8.63929087,31.025266 8.90075351,31.4992709 9.37348584,31.8165309 C9.86918227,32.1490884 10.3526312,32.015182 10.6807991,31.5310507 C10.9743021,31.0981981 10.9446675,30.6153596 11,30.2578091 M8.08043497,19.170446 C8.10560432,19.1812486 8.13088263,19.1920512 8.15605197,19.2028537 C8.13502304,19.3718059 8.13142742,19.545187 8.08926059,19.7088459 C8.00045965,20.0530156 7.96003615,20.3935124 8.05286855,20.7431914 C8.09666975,20.9080386 8.10821932,21.0821759 8.16084613,21.2434582 C8.31447721,21.714558 8.65824037,22.0930799 9.21784975,21.979761 C9.74923895,21.8721675 10.0635834,21.4874881 10.3272623,21.0955711 C10.8536394,20.3129253 11.0480208,19.4092908 10.990164,18.4819986 C10.9673918,18.1168719 10.9640141,17.7110196 10.6583863,17.3821895 C10.3541749,17.0549798 9.79020724,16.8739288 9.47836884,17.101971 C9.10486009,17.3752759 8.77112108,17.6845533 8.57804713,18.1160077 C8.48717598,18.3189879 8.39870191,18.5230483 8.30423514,18.7243001 C8.23363022,18.8748879 8.15528927,19.0219108 8.08043497,19.170446 M13.9946904,34.7639706 C13.9666425,34.5501823 13.985865,34.3235243 13.9014797,34.1247185 C13.6663375,33.5701749 13.3264996,33.0508785 12.7952837,32.6372278 C12.3632023,32.3007945 11.8813118,32.0044104 11.2307718,32.0002806 C10.9217623,31.9982638 10.6122692,32.0012411 10.3768852,32.2204077 C9.81774239,32.7411447 9.99449197,33.3463022 10.1865953,33.8849989 C10.3631031,34.3798047 10.7220426,34.8455098 11.209736,35.2312125 C11.5922501,35.5339353 12.0080106,35.7912304 12.5036831,35.9397106 C12.7934702,36.0266281 13.1140858,36.0360402 13.4163251,35.8567307 C13.8916872,35.5744648 14.0303546,35.2072981 13.9946904,34.7639706 M13.9982746,14.2118036 C13.9982746,14.1089209 14.0026131,14.005848 13.9975308,13.9030604 C13.9634419,13.2153057 13.2863752,12.8435208 12.4459298,13.0629785 C12.2076797,13.1251645 11.977115,13.2179681 11.7646484,13.3227525 C10.9026341,13.7474052 10.4092753,14.403211 10.0892119,15.1089369 C9.92570931,15.4695969 10.039752,15.9040433 10.0257446,16.3051147 C10.0139685,16.6407671 10.899907,17.1076377 11.2970732,16.9777507 C11.680232,16.852618 12.0942567,16.7504959 12.4211379,16.562987 C13.4340109,15.9817283 13.9288573,15.1752116 13.9982746,14.2118036 M19.4751789,12.9844042 C20.1118964,13.0575386 20.6382767,12.7759422 21.0904554,12.3632798 C21.3681749,12.1099007 21.6255211,11.7859209 21.7836818,11.4369488 C22.0012466,10.9567953 22.1050429,10.4399019 21.8517713,9.89306374 C21.6643375,9.48811784 21.4080636,9.16851464 21.0226876,9.0700423 C20.396264,8.90995276 19.7858173,9.0205182 19.2460336,9.44066684 C18.6849116,9.8774003 18.2805563,10.4180192 18.0469074,11.1413014 C17.923274,11.5239039 18.0567723,12.1905213 18.2983561,12.4782218 C18.6173582,12.8582905 18.9986595,13.0596117 19.4751789,12.9844042 M35,34.8514443 C35.0745564,35.0374583 35.1526575,35.3090426 35.2916089,35.5578339 C35.4361137,35.816573 35.6949934,35.97313 36.069666,35.9963093 C36.7247227,36.0365833 37.2017184,35.7409505 37.6313335,35.4171161 C38.2406639,34.9580691 38.6594087,34.3955844 38.8740981,33.7219355 C39.0082051,33.3010378 39.0833523,32.9134603 38.8466859,32.5069531 C38.6819765,32.2236826 38.4397567,32.046554 38.0523233,32.0097568 C37.4652062,31.9539333 36.9921097,32.1433276 36.5416991,32.4327793 C35.6153563,33.0279082 35.1604558,33.815522 35,34.8514443 M22,38.3185355 C21.9195975,38.0851275 21.8360086,37.7158469 21.6721235,37.3923458 C21.2828564,36.6232273 20.6094722,36.2474068 19.8423027,36.0486154 C19.3397074,35.9183805 18.8635589,36.0545915 18.4782217,36.3998548 C17.9131737,36.9061357 17.8407371,37.8086463 18.3042464,38.4551975 C18.5516142,38.8001225 18.8304208,39.1318549 19.1419406,39.4100275 C19.6779927,39.8886828 20.272249,40.1540011 21.0097853,39.9044689 C21.6265585,39.6958676 21.9591084,39.039281 22,38.3185355 M38.9994657,15.7683887 C38.8819916,15.4635955 38.8250308,15.0505269 38.5829773,14.6579686 C38.2208444,14.070896 37.7140004,13.6000168 37.0446822,13.2601176 C36.7390363,13.1049069 36.3707455,12.9313799 35.9619545,13.0277308 C35.4082157,13.1581383 35.1411752,13.5067187 35.0390959,13.9302809 C34.9161744,14.4408452 35.099254,14.9309946 35.3632155,15.3834621 C35.715401,15.98742 36.2226002,16.511626 36.9912741,16.8023958 C37.3229727,16.9279381 37.6802503,17.0595859 38.0937782,16.9711529 C38.7265042,16.8359755 39.01415,16.3151084 38.9994657,15.7683887 M27,38.4498585 C27.0556892,38.6190385 27.1338159,38.8721298 27.2218473,39.1209238 C27.4500621,39.7657527 28.2924755,40.0928037 28.7858964,39.9770014 C29.2754766,39.8618777 29.7522209,39.7077385 30.1457852,39.3136261 C30.626067,38.832662 30.9911297,38.2904042 30.9998217,37.5423258 C31.0026516,37.2960197 30.9724319,37.0127338 30.8639844,36.8080442 C30.5332853,36.1832319 29.7365552,35.8948571 29.1705665,36.0346341 C28.664512,36.1597096 28.1666441,36.3321691 27.7715638,36.7503692 C27.3573814,37.188699 27.0721636,37.6973697 27,38.4498585 M28.2422998,9.00658192 C27.5336669,8.90341187 26.8734588,10.0342924 27.020772,10.9120928 C27.0990672,11.378353 27.3005143,11.7929712 27.5986071,12.1230014 C28.2419939,12.8352737 29.0294318,13.1214139 29.9219769,12.9530358 C30.3501539,12.8723237 30.9518445,12.4173495 30.9915019,11.8129212 C31.0220859,11.346547 30.975802,10.9245188 30.7590629,10.5087606 C30.2754268,9.58114219 29.5637355,9.10826997 28.2422998,9.00658192 M40.9685673,19.3035637 L40.8924774,19.3114132 C40.8657313,19.2588321 40.8223917,19.2085092 40.8147499,19.1533475 C40.7465201,18.6646341 40.5213069,18.2418351 40.2555926,17.8351654 C40.035292,17.498066 39.7608442,17.2005368 39.3845429,17.0523637 C38.7818276,16.81505 37.982392,17.4218289 38.0002955,18.1178557 C38.0187448,18.8350655 37.9371965,19.5580817 38.2331503,20.2618506 C38.4946072,20.8834682 38.7758234,21.4574511 39.3749361,21.8332604 C39.9327835,22.183048 40.5269837,21.9618635 40.7841829,21.3626117 C40.9766457,20.913791 41.0001168,20.4657231 41.0032827,19.999698 C41.0042652,19.8584066 41.0476048,19.7174378 41.0714034,19.5762539 C41.1079746,19.5732431 41.1446549,19.5702324 41.1812261,19.5673291 C41.2890839,20.3072273 41.4757608,21.0179854 41.9238945,21.647345 C41.9716008,21.5332581 42.0155955,21.4131497 41.9946352,21.3051919 C41.9473656,21.061319 41.8709482,20.8226075 41.8010808,20.5833584 C41.6022863,19.9013102 41.4013084,19.2201222 41.1989113,18.5391492 C41.1909421,18.5123748 41.1597201,18.4922671 41.1007695,18.4252774 C41.0517532,18.7510863 41.0101602,19.027325 40.9685673,19.3035637 M23.9920393,13 C24.3047362,12.9024038 24.6282333,12.8349675 24.9279904,12.7017893 C26.0734249,12.1931367 26.3299811,10.7781043 25.5569503,9.77412819 C25.0803142,9.15511504 24.4677584,8.91281883 23.7422078,9.02758477 C23.567876,9.05514667 23.3759173,9.05559851 23.2259369,9.14144705 C22.6755333,9.45648859 22.2899859,9.92165212 22.0783627,10.5982742 C21.9019931,11.1619376 22.0429054,11.6345564 22.3062881,12.055779 C22.6974394,12.6813438 23.2890061,12.9405838 23.9920393,13 M23.8704132,36 C23.6128324,36.0811154 23.2561584,36.1307482 22.9556133,36.3003734 C22.2341011,36.707631 21.7679246,37.6851611 22.1199042,38.5474042 C22.4574943,39.3743555 23.1909467,40.0261916 23.9952236,39.9991905 C25.0074838,39.965131 25.9279987,39.242487 25.9979048,37.9826215 C26.0140291,37.6924435 25.9360609,37.3530809 25.7994124,37.1036847 C25.3893649,36.355496 24.7127558,36.0886219 23.8704132,36 M41.0721543,29.4748963 C41.0362244,29.4710352 41.0002945,29.4671742 40.9643645,29.4632059 C40.9474502,29.2831309 40.9141467,29.1027342 40.9167732,28.922981 C40.9236019,28.4722037 40.8885125,28.036227 40.6894271,27.6197701 C40.5438164,27.3147474 40.0666418,26.8735154 39.7119652,27.0341779 C39.3321796,27.206209 38.970359,27.4147056 38.761188,27.7969493 C38.5595812,28.1654649 38.3502001,28.5394502 38.2202431,28.9369236 C37.9434146,29.7839946 37.8878388,30.6439357 38.2861146,31.479638 C38.5625229,32.0595459 39.2459268,32.1686205 39.7179535,31.7368266 C40.2433498,31.2561262 40.5798514,30.6770763 40.7076022,29.9688959 C40.7223103,29.8877066 40.7673803,29.8120944 40.7982675,29.7339082 C40.8232713,29.7357315 40.8481701,29.7375548 40.8729639,29.7394853 C41.0759364,30.2113911 40.7834542,30.7633064 41.0369598,31.2604163 C41.3676832,30.6617394 42.1152777,27.5708635 41.9849004,27.1739264 C41.3343797,27.8323423 41.2625199,28.681022 41.0721543,29.4748963 M14.2518824,38.2064591 C14.282415,38.2001284 14.3129477,38.1939108 14.3433634,38.1876932 C14.478947,38.3295676 14.6211988,38.4662419 14.7490616,38.6146731 C15.3071891,39.2625475 15.9904888,39.7251372 16.8308971,39.9715805 C17.2652563,40.0988718 17.8906492,39.7806435 17.962243,39.3741252 C18.0753659,38.7312249 17.9333482,38.1387437 17.5489409,37.6092299 C17.042286,36.9113885 16.4743319,36.296524 15.5588203,36.0659074 C15.0891322,35.9476598 14.5770961,35.9825915 14.2817131,36.2864628 C13.9431633,36.6348747 13.8943813,37.0686374 14.1223818,37.5399318 C14.1827452,37.6647361 14.2068438,37.8083063 14.2289536,37.946111 C14.2352707,37.9851123 14.1832132,38.0597236 14.1436728,38.0709153 C14.1056532,38.0818809 14.0323046,38.0437839 14.0035267,38.0064783 C13.8942643,37.8644908 13.7970511,37.7139117 13.6948077,37.5668371 C13.3196421,37.0276012 12.8348632,36.5934994 12.2637505,36.2617054 C12.0291989,36.1254833 11.747386,36.0301844 11.4772715,36.0010182 C11.3415708,35.9864351 11.1353292,36.1312487 11.0491124,36.2593314 C10.9480388,36.4094583 11.01004,36.58536 11.1704242,36.7329998 C11.5839603,37.1135172 11.9697713,37.5217312 12.3782772,37.9075618 C12.9521974,38.44985 13.5495144,38.9668156 14.2387802,39.3724295 C14.3041739,39.4108656 14.4043117,39.4348316 14.4713431,39.414144 C14.5098307,39.402387 14.5439898,39.2797307 14.528431,39.2195895 C14.4700563,38.9951905 14.3855943,38.7773482 14.3203176,38.5546449 C14.2872114,38.4413715 14.2741092,38.3226717 14.2518824,38.2064591 M18,14.632085 C17.990168,14.0468427 17.9296714,13.8185432 17.6153497,13.5162595 C16.9715571,12.8972932 16.3807366,12.8728529 15.6371195,13.2418265 C14.8026069,13.6558917 14.1813877,14.3036559 14.0269858,15.2293581 C13.8600431,16.2302761 14.4801588,16.9751386 15.5411074,16.999579 C15.9272626,17.0083889 16.3155246,16.8782298 16.6707794,16.675318 C17.49546,16.20432 17.9478304,15.5374203 18,14.632085 M17.9835582,34.4100027 C18.0609978,33.9200047 17.8553962,33.5005955 17.5661276,33.1273185 C17.3568097,32.8572393 17.1025949,32.6058624 16.8247765,32.3997543 C16.2702447,31.9883056 15.6251156,31.9296094 14.9523654,32.065704 C14.9283601,32.0705954 14.9048571,32.0812412 14.8828606,32.0924626 C14.1217228,32.4811809 13.7826357,33.4708638 14.146632,34.2229806 C14.5087199,34.971261 15.0435653,35.5502624 15.8439754,35.8991786 C16.3223733,36.1076843 17.1515094,35.9824275 17.5185188,35.619029 C17.8609204,35.2798955 18.0545696,34.8928076 17.9835582,34.4100027 M9.01715271,24.5003767 C8.96080437,25.3413547 9.24025351,26.0348034 9.87118595,26.6255342 C10.2071041,26.9400313 11.0022551,27.0978937 11.4236007,26.9349159 C12.1737455,26.6449728 12.6095703,26.1126604 12.8175886,25.4797784 C13.1005369,24.6185433 13.0765255,23.7467704 12.5879721,22.9224688 C12.3704217,22.555078 12.0481382,22.2351586 11.6016952,22.0998041 C10.7517644,21.8420883 10.0991132,22.0982694 9.62141923,22.6977988 C9.18450847,23.2463783 8.92955337,23.8642209 9.01715271,24.5003767 M36,24.2921078 C36.0040705,25.2244036 36.2354892,25.9846212 36.9623093,26.5920167 C37.3712727,26.9337152 38.1941082,27.1220795 38.6452131,26.9113859 C39.3260607,26.5933483 39.7534611,26.0797764 39.8914982,25.4359166 C40.0673669,24.6149595 40.0646133,23.7914417 39.6168606,23.0153479 C39.3589837,22.5686612 38.9998237,22.1811777 38.4261256,22.0458708 C37.6268749,21.8573017 36.7492077,22.270597 36.3747236,22.9103596 C36.0986493,23.3815265 36.0328033,23.8802464 36,24.2921078 M30.0077845,14.6529987 C29.9481859,15.1433054 30.23933,15.5603169 30.5893519,15.9551469 C30.9703746,16.3850814 31.4979908,16.6896425 32.1035899,16.8554249 C32.6444235,17.0033656 33.2145758,17.065763 33.8061163,16.9065387 C34.2903552,16.7760538 34.8591858,16.3493018 34.9467814,15.9441526 C35.0939756,15.2640497 34.9412541,14.6505876 34.4208474,14.0849604 C33.8038333,13.4142123 32.9787046,13.0535225 31.9662487,13.0021193 C31.6364134,12.985435 31.245778,13.0683744 30.9673707,13.2115895 C30.3445889,13.531774 29.9509495,13.99392 30.0077845,14.6529987 M30.0188228,34.425172 C29.9427252,34.6866851 30.1083002,34.9804423 30.3190321,35.2549493 C30.6083702,35.6317709 31.0370016,35.8762477 31.5747023,35.9644133 C32.1744041,36.0628778 32.7575005,35.950072 33.2691584,35.7116589 C34.2094477,35.2734295 34.8342365,34.6488586 34.9809365,33.7348619 C35.1440028,32.7185506 34.2403885,31.9572075 33.0571125,32.0018678 C32.2160965,32.0335343 31.5112678,32.2817649 30.9261405,32.7392445 C30.3729096,33.1719877 29.9980363,33.6919341 30.0188228,34.425172 M14.9272679,29.895275 C14.9515809,29.8906948 14.9757904,29.8862212 15,29.881641 C14.8991269,29.4847638 14.8273259,29.0769154 14.691173,28.6932461 C14.4300409,27.957223 13.9366419,27.4648013 13.2295987,27.1230991 C12.3815401,26.713227 11.3805682,27.3920511 11.1383692,28.1993331 C10.9117926,28.9545289 10.960522,29.7069554 11.3063876,30.4398895 C11.6529774,31.1746343 12.143376,31.7008215 12.9241859,31.9431446 C13.3909958,32.0881124 13.783832,31.9380318 14.1370432,31.6940045 C14.7447651,31.2742264 14.9516844,30.630872 14.9272679,29.895275 M13.2096463,17.0713501 L13.1825971,17 C12.9318155,17.0952045 12.6853324,17.2049986 12.4293088,17.2822058 C12.0517735,17.3959401 11.7973224,17.6846419 11.6056716,17.9814372 C11.2724844,18.4975011 11.0459213,19.0767152 11.0075492,19.7093887 C10.9707497,20.3173558 11.0612282,20.9132892 11.4403361,21.3902703 C12.0659271,22.1770388 13.066013,22.1527584 13.8067203,21.6008065 C14.2534512,21.2679101 14.5575972,20.8292665 14.759208,20.3048961 C15.060733,19.520364 15.1127345,18.7452033 14.7202069,17.9790944 C14.4041088,17.3621819 13.9292803,17.0027688 13.2096463,17.0713501 M37.9998923,29.1836862 C38.0045169,28.7441656 37.8599465,28.1776509 37.6166498,27.8080782 C36.9818668,26.8443742 36.1625001,26.8261408 35.3655528,27.3167363 C34.685026,27.7355711 34.2612677,28.3775784 34.0778904,29.2161012 C33.8934072,30.059742 34.0286278,30.7869451 34.5694099,31.4350302 C35.0667605,32.0311875 35.9120654,32.1767347 36.5528806,31.7699488 C37.503346,31.1666475 37.9093095,30.231733 37.9998923,29.1836862 M35.8351424,17.0023652 C35.2296915,16.9809631 34.9508377,17.1006203 34.5691904,17.533094 C34.3157598,17.8202929 34.2165695,18.1836962 34.0944584,18.5503423 C33.8846675,19.1801909 34.0627296,19.7577233 34.2561055,20.3088814 C34.511638,21.0372013 35.0050871,21.5739832 35.6936136,21.8666948 C36.2119853,22.0869851 36.8537693,22.0491531 37.2981737,21.6408918 C37.8297574,21.1523187 38.0426511,20.4793415 37.993006,19.7603175 C37.9470642,19.0950149 37.8141432,18.42701 37.3549253,17.9048204 C36.9238331,17.4147339 36.4764259,16.9697216 35.8351424,17.0023652 M21.6561377,35.9974249 C22.1755003,36.0227402 22.6509134,35.8596402 23.0755726,35.5860034 C23.9737487,35.0073273 24.2770448,34.1112441 23.719087,33.227432 C23.1944817,32.3967626 22.3428208,31.9891095 21.2275744,32.0002211 C20.7346484,32.0052455 20.2833295,32.10641 19.8971539,32.3542484 C19.0197257,32.917175 18.829315,33.5373024 19.1381885,34.4426615 C19.4117016,35.2442473 20.6135084,36.043031 21.6561377,35.9974249 M21.7121267,13.0000033 C21.1892185,12.9989485 20.393474,13.2491224 20.0418556,13.4895155 C19.5939355,13.7958801 19.3367218,14.1980376 19.1016028,14.644304 C18.8186119,15.1811852 19.1714578,16.080526 19.6111203,16.4224654 C19.9503522,16.6863513 20.3485034,16.8122532 20.7801315,16.9291416 C21.3557099,17.0850568 21.8918973,16.9578124 22.3843416,16.7966234 C23.1122397,16.5582439 23.6199717,16.0953888 23.890911,15.4229208 C24.1172144,14.8608208 23.9675729,14.3807057 23.6607019,13.9155493 C23.2213742,13.2497936 22.4520764,13.0762349 21.7121267,13.0000033 M27.6266688,32.0026595 C26.8801857,31.9687137 26.1487121,32.2628785 25.6288843,32.7046546 C24.8735466,33.3468358 24.8015223,34.4485834 25.3971538,35.1530787 C26.2178209,36.1238513 27.5831518,36.1922237 28.6400847,35.700731 C29.1779456,35.450513 29.5884951,35.0631656 29.8267045,34.5381118 C30.1109145,33.9117976 30.0548715,33.334623 29.589251,32.8054341 C29.0916675,32.2398954 28.4244436,31.9790994 27.6266688,32.0026595 M29.9941584,14.9665181 C30.0369461,14.7684884 29.837699,14.4352836 29.6248327,14.1353993 C29.1649986,13.4873539 28.4487599,13.1627632 27.6116646,13.0206778 C27.2242158,12.9548888 26.8732277,13.058826 26.5126955,13.1539598 C25.7966713,13.3428074 25.3100279,13.7802333 25.1052044,14.3726184 C24.8641347,15.0696033 25.0331408,15.7362969 25.6558685,16.2817304 C26.2097498,16.7669598 26.9063641,16.9131156 27.6379378,16.9965114 C27.7069987,17.0043683 27.7839951,16.9989726 27.8501606,16.9801352 C28.1936421,16.8821616 28.5476328,16.8024575 28.874278,16.6705955 C29.5992029,16.3778107 29.9323896,15.8468603 29.9941584,14.9665181 M17.9980268,24.2327922 C18.0323684,23.6044745 17.6173877,22.889873 16.8368645,22.3645029 C16.1025527,21.8703135 14.9745798,21.8715403 14.1544139,22.4116318 C13.3835709,22.9192136 13.0507566,23.6446516 13.0029319,24.4789668 C12.9722779,25.0120043 13.1857031,25.4857472 13.4696555,25.9456889 C14.1368973,27.0266898 15.6803119,27.3245937 16.7980285,26.6139793 C17.6131238,26.0958677 17.9851198,25.378097 17.9980268,24.2327922 M18.5312465,17.0110672 C18.0333179,16.9450838 17.5352805,17.1807695 17.0923632,17.5415218 C16.4691914,18.0491195 16.0708485,18.6912715 16.0079008,19.5044197 C15.9772423,19.9004278 16.0338844,20.277029 16.2116384,20.6515818 C16.432336,21.1169156 16.7657742,21.455889 17.1894484,21.7218711 C17.6945525,22.0390657 18.2633653,22.0385266 18.8170662,21.9472065 C19.1237598,21.8966408 19.4258873,21.7376122 19.6973562,21.5740554 C20.2181157,21.2604186 20.5627518,20.8033867 20.8038885,20.2355199 C21.0365451,19.6873834 21.056223,19.1278184 20.8945593,18.6076063 C20.5974329,17.6518176 19.7526937,16.9350569 18.5312465,17.0110672 M21,29.6680194 C20.9051725,29.3334217 20.811419,28.998611 20.7155176,28.6644391 C20.3977436,27.5582333 18.6256622,26.6441842 17.537348,27.1367658 C16.7487658,27.4936132 16.2521835,28.0221776 16.0615621,28.8164613 C15.8704037,29.6129806 16.1422137,30.3362568 16.6309564,30.9707469 C17.0027488,31.4536407 17.5099629,31.7252153 18.1009431,31.9132202 C18.6591686,32.0907923 19.165631,31.9736884 19.6327878,31.7616239 C20.5011625,31.3673032 20.9256845,30.6434948 21,29.6680194 M31.0057341,24.6032123 C30.9589771,25.0862987 31.2025939,25.5976096 31.5749014,26.0648454 C31.8983764,26.4708262 32.3238863,26.7958154 32.8342798,26.9104513 C33.4168843,27.0413469 34.012052,27.0567885 34.6031776,26.7640119 C35.4649035,26.3371696 35.8313119,25.6383099 35.9737676,24.8109067 C36.0761303,24.2172748 35.8668165,23.6655704 35.5561233,23.1352388 C34.8516011,21.9324312 33.253235,21.6919106 32.1506235,22.3827938 C31.3642767,22.8754929 30.9928431,23.5963389 31.0057341,24.6032123 M30.7051408,22 C31.0318392,21.9046332 31.3652256,21.8286577 31.6837159,21.7096612 C32.2480407,21.4986887 32.6374644,21.055657 32.8405362,20.4950063 C33.1272079,19.7039919 33.0209094,18.9160504 32.5736244,18.2048262 C31.8896251,17.1173271 30.4345811,16.6731298 29.2695528,17.2608011 C28.6471641,17.5748757 28.2597671,18.1071282 28.0783806,18.7743778 C27.9112821,19.3890696 28.0174793,20.0184903 28.3386044,20.556147 C28.8721239,21.4497337 29.6604965,21.9261437 30.7051408,22 M30.2249208,32 C31.0935269,31.9722497 31.875303,31.6414701 32.3833094,31.0253496 C32.8996923,30.3990609 33.1101272,29.6872971 32.9445374,28.8485385 C32.8394221,28.3156689 32.5960939,27.9012147 32.2014772,27.5773198 C31.6311576,27.1091656 30.9801372,26.8861039 30.2554645,27.057478 C29.9308226,27.134268 29.6186433,27.2821285 29.3126954,27.4250108 C28.3199735,27.8885046 27.6687488,29.39952 28.1767552,30.5149344 C28.6163191,31.4801582 29.3693903,31.8973662 30.2249208,32 M24.6022943,21.9956368 C25.031374,22.043834 25.7798476,21.685554 26.1997619,21.2760911 C26.561197,20.9236758 26.7686138,20.5015239 26.9211378,20.009422 C27.1015565,19.4279634 26.944649,18.904832 26.7294616,18.4169954 C26.4859811,17.8651802 26.0580969,17.4701125 25.514649,17.2268873 C24.878053,16.9419694 24.2170491,16.9306665 23.5960939,17.1633353 C22.9805185,17.393978 22.4987378,17.8546237 22.2202893,18.5343961 C21.8993014,19.3182402 21.9199235,20.0765995 22.3427269,20.7856954 C22.8217182,21.5888397 23.5471787,21.9621546 24.6022943,21.9956368 M22.0124665,29.5597255 C21.9545859,29.9387361 22.1042702,30.3618816 22.3367994,30.7233228 C22.6921362,31.2754865 23.1656502,31.6622233 23.805961,31.8761245 C24.6556488,32.1600914 25.39028,31.9293617 26.0585749,31.4532965 C26.8919554,30.8600672 27.1664606,29.8396705 26.9042362,28.8298577 C26.6994897,28.0410374 26.185711,27.5541766 25.518322,27.2438558 C24.7109123,26.8683379 23.9008853,26.9264437 23.1419946,27.4187023 C22.4184363,27.8879938 21.9834759,28.5444091 22.0124665,29.5597255 M19.0069546,24.4605293 C18.894298,25.8211536 20.1696557,27.016371 21.4290208,26.9998303 C22.9692683,26.9795118 24.0052434,25.8273819 23.99998,24.4997368 C23.994413,23.1538154 22.9916377,22.0298658 21.4921814,22.0004602 C20.1347352,21.9738113 18.9195015,23.1081754 19.0069546,24.4605293 M27.7721286,22.0055311 C27.2186869,21.9609698 26.5799122,22.1892703 26.009823,22.5601059 C25.5041118,22.8890254 25.1614995,23.3524427 25.0616145,23.8853473 C24.9307629,24.5839833 24.9759324,25.2726489 25.5179653,25.884197 C26.1411403,26.5872078 26.9143754,27.0267167 27.942096,26.9987387 C29.1466525,26.9658772 30.1241978,26.5599419 30.6875349,25.5561932 C31.1615809,24.711156 31.0948745,23.9056949 30.4967291,23.1383856 C29.8898524,22.3598852 29.0216217,22.0052259 27.7721286,22.0055311 M24.4849668,43.999701 C13.6770472,44.0585898 4.80220272,35.4116207 5.00335335,24.627189 C5.19206842,14.5133234 13.6074517,5.88445756 24.7581128,6.00117035 C35.3591003,6.11213268 44.1482049,14.5006511 43.9981055,25.3464209 C43.8578237,35.4829689 35.3918254,44.0532653 24.4849668,43.999701" id="golf" fill="#FFFFFF"></path>
            </g>
        </g>
    </g>
</svg>