<?xml version="1.0" encoding="UTF-8"?>
<svg width="150px" height="149px" viewBox="0 0 150 149" version="1.1" xmlns="http://www.w3.org/2000/svg" xmlns:xlink="http://www.w3.org/1999/xlink">
    <!-- Generator: Sketch 51.1 (57501) - http://www.bohemiancoding.com/sketch -->
    <title>Fill 1</title>
    <desc>Created with Sketch.</desc>
    <defs></defs>
    <g id="Page-1" stroke="none" stroke-width="1" fill="none" fill-rule="evenodd">
        <g id="Lesson-4" transform="translate(-580.000000, -7396.000000)" fill="#FAB01A">
            <path d="M653.682698,7498.89751 C657.947778,7498.9251 662.276349,7497.37046 665.513651,7495.0243 C667.504921,7493.5816 667.29619,7492.67656 665.524762,7491.19523 C658.479524,7485.30146 648.491429,7485.13432 641.416825,7490.78213 C639.745397,7492.11604 639.980317,7492.9044 641.435079,7494.06802 C645.026349,7496.9408 648.916825,7498.99526 653.682698,7498.89751 M640.169206,7512.96737 C644.339048,7512.81679 648.148571,7511.23534 651.696984,7508.8135 C653.604921,7507.51034 653.129524,7506.5651 651.672381,7505.26194 C644.89619,7499.20181 634.363651,7499.0134 627.377143,7504.73137 C625.689048,7506.11337 626.084286,7506.9104 627.427143,7508.00464 C631.085873,7510.98701 635.147778,7512.94214 640.169206,7512.96737 M624.842222,7484.94985 C624.921587,7481.29659 622.89619,7477.29487 619.860476,7473.67788 C618.715238,7472.31402 617.886667,7472.07593 616.562063,7473.7102 C610.775556,7480.84565 611.160476,7491.66825 617.463651,7498.16985 C618.714444,7499.46119 619.425556,7499.48484 620.465238,7498.0855 C623.113651,7494.5229 624.797778,7490.64023 624.842222,7484.94985 M638.977143,7472.39049 C638.81127,7467.48374 636.959683,7463.40082 633.890635,7459.74677 C632.606508,7458.21735 631.831111,7458.25047 630.571587,7459.81299 C624.839841,7466.924 625.154921,7477.53532 631.309683,7484.07713 C632.646984,7485.50012 633.494603,7485.54663 634.669206,7483.93917 C637.227143,7480.44043 638.665238,7476.57747 638.977143,7472.39049 M681.139048,7471.2994 C686.099365,7471.28599 690.341429,7469.35294 694.267619,7466.51405 C695.979524,7465.27554 695.985079,7464.35316 694.300952,7462.91283 C687.183492,7456.83063 676.035873,7457.06714 668.853333,7463.47335 C667.444603,7464.73078 667.604127,7465.50495 668.884286,7466.54953 C672.45254,7469.46094 676.409683,7471.35458 681.139048,7471.2994 M672.404921,7455.37689 C681.355714,7455.48648 688.592222,7448.19572 690.296984,7437.84377 C690.771587,7434.96074 689.654127,7434.77075 687.396984,7435.02302 C677.966825,7436.07469 670.593016,7443.90784 670.188254,7453.23492 C670.106508,7455.11122 670.898571,7455.55585 672.404921,7455.37689 M654.158889,7444.56217 C654.253333,7449.21429 656.007302,7453.21679 659.013651,7456.72184 C659.855714,7457.70413 660.577937,7458.25756 661.900952,7457.05058 C668.53746,7450.9944 668.806508,7437.7673 662.401746,7431.1908 C661.216032,7429.97279 660.462857,7429.69923 659.331111,7431.20815 C656.344603,7435.19173 654.37,7439.52692 654.158889,7444.56217 M640.235873,7457.09158 C640.248571,7463.34958 642.088254,7467.28428 645.110476,7470.77356 C646.032698,7471.83785 646.632698,7472.1997 647.880317,7470.96671 C654.564444,7464.35947 654.824762,7452.07524 648.420794,7445.16606 C647.072381,7443.71075 646.345397,7443.70129 645.173968,7445.29929 C642.233492,7449.31047 640.256508,7453.62201 640.235873,7457.09158 M667.386667,7485.27229 C672.048571,7485.21316 676.403333,7483.26039 680.413651,7480.31429 C681.927143,7479.20349 682.064444,7478.45455 680.523968,7477.06388 C673.550952,7470.76252 661.200952,7471.03057 654.523968,7477.64569 C653.210476,7478.9457 653.784286,7479.51174 654.79619,7480.37815 C658.301746,7483.37786 662.270794,7485.19187 667.386667,7485.27229 M650.190635,7396.27041 L658.920794,7396.27041 C659.469206,7397.34179 660.510476,7396.97835 661.366032,7397.0564 C695.510476,7400.17831 722.834286,7425.71249 728.199365,7459.38097 C728.531111,7461.46303 727.99381,7463.80525 729.555714,7465.64528 L729.555714,7475.89396 C727.965238,7477.89087 728.564444,7480.37263 728.136667,7482.60921 C722.76127,7510.6961 706.897778,7530.57775 679.879524,7540.20756 C653.11127,7549.74908 628.153333,7544.89594 605.936667,7526.95917 C603.582698,7525.05923 603.409683,7523.93345 605.710476,7521.67243 C625.532698,7502.18103 645.213651,7482.54771 664.936667,7462.9554 C665.590635,7462.30579 666.254127,7461.66328 666.885873,7460.99238 C667.770794,7460.05187 668.34381,7458.84725 667.229524,7457.91857 C666.385079,7457.21456 665.223968,7457.67023 664.400159,7458.50984 C663.754127,7459.16733 663.084286,7459.80117 662.429524,7460.45078 C643.081111,7479.6702 623.731905,7498.89041 604.382698,7518.11062 C600.436667,7522.03035 600.436667,7522.03035 596.985079,7517.8615 C561.726349,7475.27037 584.183492,7410.55549 638.349365,7398.49831 C642.281905,7397.62323 646.400952,7397.81638 650.190635,7396.27041" id="Fill-1"></path>
        </g>
    </g>
</svg>