<?xml version="1.0" encoding="UTF-8"?>
<svg width="55px" height="55px" viewBox="0 0 55 55" version="1.1" xmlns="http://www.w3.org/2000/svg" xmlns:xlink="http://www.w3.org/1999/xlink">
    <!-- Generator: Sketch 52.2 (67145) - http://www.bohemiancoding.com/sketch -->
    <title>Fill 1</title>
    <desc>Created with Sketch.</desc>
    <g id="Page-1" stroke="none" stroke-width="1" fill="none" fill-rule="evenodd">
        <g id="Lesson-14" transform="translate(-812.000000, -3758.000000)" fill="#F67102">
            <path d="M843.627279,3776.53539 C845.904126,3776.8373 847.705881,3775.80157 848.273391,3773.9817 C848.815939,3772.24295 848.008718,3770.28055 846.40459,3769.4387 C844.771788,3768.58165 842.810981,3769.00699 841.593033,3770.48182 C840.294217,3772.05483 840.634187,3773.97882 842.636046,3776.27148 C841.941666,3777.61692 841.240892,3778.97427 840.53723,3780.33738 C838.456361,3779.80709 836.702259,3780.29219 835.302361,3781.76209 C833.895242,3783.23939 833.686887,3785.07261 834.139905,3786.99907 C833.163111,3787.33384 832.276261,3787.59426 831.425513,3787.94238 C830.676466,3788.2486 830.235207,3788.11428 829.734949,3787.41887 C828.101528,3785.14819 824.575376,3785.14696 822.923183,3787.3476 C821.777024,3788.8748 821.691619,3790.84953 822.703275,3792.43321 C823.643761,3793.90517 825.508848,3794.65911 827.281723,3794.28368 C829.046552,3793.90989 830.308441,3792.4825 830.638508,3790.55994 C830.701634,3790.19211 830.852227,3789.69098 831.126183,3789.53304 C832.219325,3788.90294 833.377036,3788.38415 834.491426,3787.83373 C836.67214,3790.4821 839.115258,3791.08222 842.349712,3789.26359 C843.218615,3790.1956 844.14301,3791.1118 844.961989,3792.11343 C845.195099,3792.3985 845.2902,3792.99636 845.158586,3793.34119 C844.642237,3794.6928 844.441927,3796.03105 844.829137,3797.44735 C845.656369,3800.47177 848.618517,3802.39309 851.778294,3801.93181 C854.726414,3801.50154 857.113421,3798.65601 856.995834,3795.7121 C856.871027,3792.58786 854.369117,3790.00644 851.261119,3789.76615 C849.65988,3789.6421 848.231926,3790.11427 846.928985,3791.0087 C845.643991,3790.08428 844.426042,3789.20793 843.184989,3788.31514 C844.662041,3785.7557 844.463794,3783.44682 842.393446,3781.35565 C842.261419,3781.22236 842.191074,3780.91059 842.247391,3780.72986 C842.682049,3779.33615 843.155077,3777.95415 843.627279,3776.53539 M835.778195,3758 L843.635338,3758 C843.760432,3758.08415 843.874774,3758.20491 844.012688,3758.24688 C846.428346,3758.98214 848.951936,3759.47031 851.243327,3760.48409 C856.147425,3762.65431 859.98812,3766.17078 862.826617,3770.72584 C864.628177,3773.61705 865.946523,3776.71978 866.54532,3780.10103 C866.645808,3780.66901 866.845959,3781.21942 867,3781.77831 L867,3789.01492 C866.916053,3789.14105 866.768835,3789.26159 866.757669,3789.39392 C866.516786,3792.23882 865.532162,3794.87137 864.36641,3797.42968 C862.61468,3801.27326 860.06235,3804.53892 856.733195,3807.13342 C853.993741,3809.26849 851.021466,3811.00285 847.564117,3811.77739 C846.098966,3812.10574 844.668139,3812.58771 843.221805,3813 L836.191729,3813 C836.065395,3812.91585 835.943816,3812.76718 835.812105,3812.75788 C832.888835,3812.5476 830.183703,3811.56173 827.55797,3810.36166 C823.835545,3808.65998 820.778703,3806.08595 818.222444,3802.91229 C815.432124,3799.44834 813.486034,3795.5783 812.659173,3791.17728 C812.470808,3790.17488 812.221241,3789.18406 812,3788.18786 L812,3782.39861 C812.085602,3782.16972 812.209041,3781.94765 812.250808,3781.71091 C812.498515,3780.30883 812.57688,3778.85753 812.98938,3777.50735 C814.649511,3772.07498 817.826278,3767.57203 822.172726,3764.01855 C825.572801,3761.23899 829.522669,3759.34005 833.892895,3758.46254 C834.526635,3758.33537 835.150038,3758.15549 835.778195,3758" id="Fill-1"></path>
        </g>
    </g>
</svg>