<?xml version="1.0" encoding="UTF-8"?>
<svg width="103px" height="103px" viewBox="0 0 103 103" version="1.1" xmlns="http://www.w3.org/2000/svg" xmlns:xlink="http://www.w3.org/1999/xlink">
    <!-- Generator: Sketch 52.2 (67145) - http://www.bohemiancoding.com/sketch -->
    <title>Group 9</title>
    <desc>Created with Sketch.</desc>
    <g id="Page-1" stroke="none" stroke-width="1" fill="none" fill-rule="evenodd">
        <g id="Desktop" transform="translate(-532.000000, -3165.000000)">
            <g id="Group-9" transform="translate(532.000000, 3165.000000)">
                <rect id="Rectangle-6" fill-opacity="0.7" fill="#05BCB0" x="0" y="0" width="103" height="103"></rect>
                <g id="gum" transform="translate(11.000000, 33.000000)" fill="#FA9192">
                    <path d="M12.9713761,10.1870742 C12.8266202,11.0870451 12.5919652,11.9480608 12.5050891,13 C12.3837921,12.3980584 12.050298,12.1389212 12.0041889,11.5520913 C11.9253169,11.4215077 11.8428859,11.303483 11.6696552,11.2792664 L11.6630187,11.2908911 C11.4074635,10.3857758 10.6844968,9.95825916 9.67025017,10.0749155 C8.4598448,10.2968396 7.7395238,11.3348585 8.03486912,12.5188026 C8.27279604,13.4730552 8.62803743,14.3919651 8.99741309,15.3043645 C9.41767213,16.3409284 10.2836319,16.7487644 11.3323949,16.3325578 C11.9981192,16.0679526 12.6379306,15.7661447 13.4294499,16.0028477 C13.1081307,14.9969761 12.702006,14.0971327 12.7100154,13.1019569 C12.9257986,13.2498382 12.920616,13.4804957 12.9724417,13.680926 C13.1481778,14.364528 13.327212,15.0453398 13.6098974,15.6963893 C13.9279185,16.42789 14.4136664,16.6538972 15.2103682,16.5822818 C16.3335718,16.4813691 17.2669049,15.652211 18.4862215,15.8721727 C18.1696138,14.9155949 17.8647846,14.0329578 17.7451145,13.1168381 C17.6921876,12.7102444 17.6001457,12.3358514 17.435055,11.9908274 C17.4346772,11.9938809 17.4342897,11.9969384 17.4338921,12 C17.0579842,11.7350529 17.0025224,11.1974088 16.5521914,11.0482247 L16.5630942,11.0477404 C16.5858477,10.86901 16.5251715,10.7745591 16.3346104,10.8123395 L16.3369806,10.8147613 C16.2326934,9.92062531 14.2744645,9.07105084 13.4998952,9.52974356 C13.3249772,9.63339746 13.1254094,9.73317644 13.1590657,10.0010297 L13.1600138,9.99957665 C13.0886521,10.057745 13.0263408,10.1205336 12.9713761,10.1870742 Z M12.7468751,10.553615 C12.55412,10.9769892 12.496979,11.4697184 12.2896899,11.8861745 C12.2748452,11.8779821 12.2607763,11.8691587 12.2473974,11.8597841 C12.2899516,11.9815235 12.3363708,12.103873 12.4160305,12.1797837 C12.5633895,11.6697231 12.597662,11.0610504 12.7468751,10.553615 Z M74.8372186,16.0102552 C74.8052959,15.9899596 74.7735985,15.9696641 74.7415691,15.9493686 C75.6852674,14.7184199 76.2218986,13.3093627 76.596928,11.828225 C76.6760799,11.5161863 76.606822,11.3241267 76.2968102,11.1599692 C75.9209708,10.9609505 75.5806704,10.8147925 75.2653121,10.7270003 C74.687901,10.6167405 74.1128208,10.6972999 73.5403962,11.1528473 C73.3887057,11.273454 73.2408075,11.3911544 73.1820275,11.5882906 C72.7378589,12.1278721 72.7326445,11.3698424 72.4814072,11.3398119 C72.2396506,10.4781283 71.5442447,10.2281965 70.8028576,10.1095273 C70.0444054,9.98795191 69.3328824,10.0964494 68.863116,10.8443075 C68.6502754,11.1819092 68.4009342,11.4952927 68.107034,11.9050647 C67.9231093,11.4066541 67.7785293,10.9867105 67.6145141,10.5745167 C67.1518582,9.40962128 66.4792059,9.0918785 65.3254104,9.58496106 C64.7115381,9.84700198 64.1232636,10.2122124 63.9004683,10.9402116 L63.9004683,10.9300399 C63.678621,11.0026945 63.5368852,11.1368633 63.5586907,11.3959981 L63.5705415,11.4027792 C63.213595,11.4303879 63.2458292,11.9079708 62.8931489,11.9990313 C62.9770527,11.3378744 63.0576382,10.7004514 62.9016815,10.0509192 C62.5945083,8.77026079 61.2122291,7.968154 59.9541465,8.32513027 C58.9785873,8.60170212 58.4737425,9.40962128 57.8532338,10.1037149 C57.5830352,10.405958 57.4365591,10.8617446 56.9544679,10.9247119 L56.956364,10.9266494 C56.9487795,10.6185938 56.956364,10.3095696 56.9317143,10.0029672 C56.7634327,7.91681141 54.9042767,7.50364891 53.5490174,7.69012906 C52.9706975,7.76956475 52.4028064,7.92165505 51.9259296,8.30478698 C51.8240126,8.3866445 51.6893873,8.44089327 51.7258878,8.61429558 L51.7273099,8.60509267 C51.553814,8.58378065 51.4784428,8.66273198 51.4983521,8.83904048 L51.4997742,8.83710303 C51.4191887,8.83371248 51.380792,8.8724616 51.3850583,8.95528785 L51.3864804,8.95383475 C50.8062645,9.43335512 50.3298617,9.99812355 50.0188962,10.6985139 L50.0226885,10.6956077 C49.5277984,10.8786973 49.3268086,10.7464659 49.2822495,10.1657135 C49.2509634,9.752551 49.0817337,9.2977332 48.6442016,9.07056648 L48.6456237,9.07201957 C48.6513121,8.81433792 48.462173,8.70535602 48.2848848,8.59976466 C46.4845088,7.52302347 44.5599363,7.21642106 42.5647329,7.82526661 C41.5014777,8.1497905 40.7899547,8.95964712 40.4353782,10.0644814 C40.3614291,10.2950387 40.3552667,10.5643451 40.1011852,10.7813402 C39.9954759,10.1749164 39.8845523,9.59610143 39.4778323,9.14612726 C38.8445247,8.14058758 37.8727577,7.69109778 36.772528,7.57049115 C35.3390533,7.41258848 33.9392348,7.61747445 32.6313788,8.28734988 C31.6216892,8.80465064 31.0414733,9.62225708 30.9713164,10.81573 C30.5470572,10.8351046 30.3678729,10.4669879 30.1398632,10.2257746 C29.760163,9.82472124 29.4022684,9.39315291 29.0927251,8.93349146 C28.1133736,7.47797762 25.4232384,7.23627998 24.1850651,8.33191137 C23.530426,8.91121072 23.4555288,9.68861495 23.4616913,10.4941123 C23.4631134,10.6607335 23.529952,10.8297766 23.4071775,11.0230378 C23.0198928,10.78909 22.789513,10.4127391 22.4984569,10.0949964 C22.3169024,9.89689148 22.238213,9.56316468 21.8973835,9.54088393 L21.9097084,9.53652465 C21.8153759,9.17954838 21.6409319,8.91944491 21.2271014,8.9518973 L21.2313677,8.95577221 C21.1742406,8.79269368 21.0952765,8.66832996 21.0012144,8.57346662 C20.2579994,8.11109761 19.5064553,8.24617747 18.7406384,8.60832002 C17.9425231,8.98546371 17.7243842,9.68859722 17.7432299,10.4559056 C17.7884596,12.2941905 18.0457033,14.1027131 18.7571284,15.8219489 C19.0751495,16.5901874 19.5778585,16.8338659 20.4075403,16.7264427 C21.2848075,16.6129741 21.8633704,16.09911 22.3656082,15.4489905 C22.4127224,15.4922388 22.4598367,15.5354871 22.5069509,15.5792004 C22.0155494,16.441376 21.2494718,16.8817645 20.2704378,16.9854674 C19.6702024,17.0487122 19.1349846,16.9157121 18.7910506,16.3846417 C18.6468811,16.1623548 18.4702026,16.1158513 18.2294489,16.1042254 C17.7493547,16.0814386 17.2951734,16.1539842 16.857011,16.3534843 C16.3250912,16.5948377 15.7658451,16.7348134 15.1853977,16.8278204 C14.700121,16.9054813 14.2624297,16.8068938 13.9048326,16.5320579 C13.2131955,16.0014526 12.520145,16.0888792 11.7955279,16.4046382 C10.8358108,16.8231701 9.93357308,16.8552575 9.0808053,16.1214317 C8.73969818,15.8275293 8.31991028,16.0172638 7.96561118,16.1763059 C7.37762544,16.440911 6.78916855,16.5181069 6.15265514,16.3804564 C5.69941613,16.2823339 5.36773186,16.0567918 5.10766124,15.6880187 C4.52580035,14.8630459 4.21955777,13.9153038 3.80542358,12.9945338 C4.14417499,12.9229183 4.12862729,13.1707822 4.19788522,13.3181984 C4.49187809,13.9399507 4.74441043,14.5830946 5.07515241,15.1843854 C5.60942792,16.1572394 6.57856789,16.4683481 7.61508122,16.0535365 C7.70224257,16.0186589 7.78751935,15.9782008 7.87515184,15.9442532 C8.81460983,15.5768753 8.80141784,15.5815256 8.45748387,14.5928604 C8.21625895,13.8985626 7.9335735,13.220541 7.76066423,12.498806 C7.69462066,12.2225646 7.59883007,11.9760786 7.47895216,11.7608285 C7.40110881,11.7544642 7.31196875,11.6989107 7.20568972,11.6096026 C6.4227093,10.9515721 5.80829248,10.6762119 5.1629868,10.7955486 C4.79418976,10.9077839 4.42335625,11.1228014 4.07633048,11.447361 C3.68148875,11.8164728 3.54646835,11.9366994 3.42791996,11.7306297 C3.30149604,11.7192504 3.2460724,11.5604946 3.18067852,11.3078438 C2.76775734,9.71520705 2.42971072,8.10882026 2.2239427,6.47605005 C2.11761505,5.6674581 2.04735821,4.85419149 2.01704599,4.03589311 C2.00543364,3.74715189 1.99936196,3.45851005 2.00005315,3.16989035 C1.9993072,2.8116646 2.00640869,2.45245908 2.02167837,2.09224421 C2.03042172,1.8882452 2.05738137,1.68518869 2.09017321,1.48235903 C2.11800056,1.22872231 2.15287982,0.974986638 2.19563868,0.721099708 C2.20794213,0.648254285 2.22258145,0.583807912 2.2399972,0.526854448 C2.29610465,0.077894004 2.56813044,0.026091999 2.97432835,0.026091999 C10.0033022,0.0312073882 17.032276,0.0219066805 24.0612498,0.0158612205 C30.4485276,0.0102807959 36.8358054,-0.00274019485 43.2230833,0.000515052839 C44.6832847,0.00117028571 46.1434862,0.00200100674 47.6036877,0.00297105508 C48.7305525,-0.000800185929 49.8573583,-0.0019677052 50.9840053,0.00544895755 C59.7967934,0.0124713077 68.6095814,0.023552276 77.4223695,0.0307423528 C77.6856436,0.0307423528 77.9173622,-0.000404191884 77.9820767,0.276009721 C77.9971969,0.326335704 78.0006709,0.393781504 77.9999,0.484243209 C77.9900145,2.81393528 77.9437908,5.14518751 77.6941968,7.45578726 C77.5917972,8.51622517 77.4607192,9.5744779 77.2975789,10.6302186 C77.23303,11.0476886 77.1823535,11.2583347 77.0483667,11.3164599 C76.7125765,12.6915288 76.2294276,14.0393726 75.5062333,15.2862281 C75.3451525,15.5638928 75.2151735,15.8871539 74.8711434,16.0162604 C74.9125463,16.0244221 74.9554356,16.0359152 75,16.0513119 C74.6025275,16.2818119 74.3224623,16.4503119 74,16.1838119 C74.2526,16.1299312 74.4935005,15.9563456 74.8372186,16.0102552 Z M37.1841862,20.1786638 C37.1223093,20.1535477 37.060856,20.1263562 37,20.0962822 C37.7362439,19.8868658 38.4244381,19.977688 39,20.7853295 C38.9638336,20.8566361 38.9271506,20.9279428 38.8904676,21 C38.3816168,20.4693619 37.7686913,20.4141763 37.1919157,20.1817896 C36.3698322,20.2083253 35.5524417,20.247952 34.7527105,20.4783119 C33.9177309,20.7193295 33.664172,20.9985042 33.6539554,21.8881924 C33.638166,23.2396298 33.6790326,24.5915502 33.6497758,25.9420216 C33.6435935,26.2238712 33.8218308,26.635641 34.0929235,27.0506875 C35.198311,28.3994674 37.0321925,28.7804222 38.5833193,27.9443865 C39.0400433,27.6981627 39.3366784,27.310751 39.5763408,26.8603177 C39.6781832,26.6688587 39.7771465,26.4756569 39.8855624,26.2641856 C40.0267236,24.7818211 39.9936248,23.2953573 39.8837945,21.8070482 C39.8503581,21.3554421 39.6515977,21.0550153 39.3952525,20.7492755 L39.4941683,20.6106542 C39.7751264,20.7594186 39.9348777,21.0105792 40.0477254,21.3090739 C40.2636684,21.2308278 40.2720274,20.918809 40.502831,20.8502228 C40.5353386,20.8932099 40.5683105,20.936197 40.6012824,20.9796671 C40.2887456,21.322598 40.2645971,21.733632 40.2697055,22.1871702 C40.2845661,23.5357095 40.188901,24.8847319 40.3166092,26.2327883 C40.3456354,26.5382804 40.4315042,26.837827 40.5637573,27.117276 C40.72527,27.3748269 40.92177,27.6038143 41.1932378,27.7875654 C42.712669,28.814475 44.9105942,28.460284 45.9968439,26.9673078 C46.1098478,26.8119523 46.2252059,26.6546427 46.3127839,26.4831654 C46.4036834,26.304985 46.4856334,26.2558779 46.563503,26.2897642 C46.5981083,26.2431249 46.6293875,26.1943277 46.6212156,26.117834 C46.4679658,24.6958784 46.6685838,23.2690929 46.5687392,21.8452053 C46.5111544,21.0241032 46.292425,20.7227105 45.5331416,20.4952169 C44.7459946,20.2590293 43.9393431,20.2039672 43.0713916,20.2126612 C44.0062157,19.8175662 44.8625574,20.0508558 45.7221498,20.2865604 C46.4438173,20.4841079 46.7363852,21.0463213 46.8970654,21.731217 C46.911926,21.745707 46.927251,21.7597141 46.9430403,21.7727551 C47.1613053,22.5764691 46.8924215,23.3656931 46.8738457,24.1626451 C46.8539333,25.0250067 46.6876275,25.9028805 46.8705735,26.7390629 C47.0184766,27.0164521 47.1630903,27.295893 47.3260519,27.5633258 C47.4819031,27.8188319 47.6208037,28.1295429 48.004546,28.0684755 C48.0040751,28.0684755 48.0017209,28.0631015 48.0017209,28.0631015 C48.0572811,28.3078597 48.2404415,28.4031249 48.4490279,28.4500247 C49.2593598,28.6327384 50.0786378,28.7411941 50.9059203,28.6239447 C51.4174929,28.5517216 51.8458642,28.3471573 52.1915409,28.0148522 C52.4955038,27.5734794 52.6694106,26.9865869 52.699113,26.265976 C52.7418695,26.1256003 52.75597,25.9478252 52.957471,26.0144268 C52.9570161,26.0554124 52.9501933,26.097935 52.9579259,26.1368713 C53.0162622,26.4564428 52.8424099,26.740126 52.8885254,27.0846871 C52.9856806,27.0128606 53.0891967,27.0328356 53.165056,27.2975604 C53.561982,28.6786611 54.6708325,28.9844867 55.8027546,29.2502521 C56.2933797,29.3660359 56.8004846,29.4525073 57.3113562,29.3894858 C57.724762,29.3381891 58.1339302,29.2688166 58.3533461,28.8266885 C58.3896015,28.790048 58.4244443,28.7534076 58.4602289,28.7167671 C58.5859457,28.6952714 58.6570439,28.6078229 58.7107208,28.4988786 C58.8825808,28.3791865 59.0271316,28.2404413 59.0252482,28.0030112 C59.0563619,27.9940792 59.0836855,27.981448 59.1076718,27.96557 L59.0298668,27.8982527 C59.4104917,25.9214152 59.3957579,23.9362758 59.0583523,21.96188 C58.9065934,21.0750379 58.5500338,20.2609598 57.5,20.0519464 C58.6904967,19.7154738 58.7405918,21.1121525 59.5833691,21.4134639 C59.3294555,21.529691 59.2764135,21.6678938 59.316195,21.9418577 C59.57502,23.7218905 59.6634232,25.5097369 59.3928111,27.300025 C59.364929,27.4846001 59.3429877,27.6603146 59.4547309,27.8021318 C59.5344341,27.8377997 59.5974304,27.895053 59.6518683,27.962604 C59.7198374,28.0207095 59.7784091,28.0984569 59.8166554,28.1756351 C59.8586437,28.2613316 59.903416,28.3423804 59.9508416,28.4190179 C60.3265909,28.9191547 60.982965,29.3347284 61.6770026,29.5670842 C61.8606135,29.6073787 62.0516533,29.6361162 62.2487261,29.6558214 C63.524209,29.7836865 64.0821758,29.4820601 64.3454021,28.6971903 C64.3642556,28.5964119 64.3887494,28.5087186 64.4190302,28.4340357 C64.4722895,28.2047541 64.5088158,27.9427989 64.5359138,27.6472412 C64.601234,26.9357165 64.5422985,26.2056344 64.4229541,25.4897145 C64.3866106,25.2684924 64.3443735,25.0272479 64.6454356,24.8626742 C64.6950396,25.5488048 64.7927743,26.2095412 64.7775493,26.8673476 C64.7657155,27.3964593 64.801404,27.8691822 65.1673139,28.1974671 C65.2010174,28.2128483 65.2357553,28.2302687 65.271537,28.2497236 C65.2952434,28.2760905 65.3191096,28.3021199 65.3431353,28.3278104 C65.3913393,28.3574286 65.4435226,28.3853604 65.5,28.4115077 C65.4874271,28.4248248 65.4748541,28.4381419 65.4624505,28.4512907 C65.4707757,28.459626 65.4791193,28.4679221 65.4874811,28.476179 C66.0851936,28.8490952 66.6378117,29.3046982 67.3510696,29.4667108 C69.1967136,29.8861999 69.2509698,29.201377 69.4581721,27.7943603 C69.5339436,27.2805096 69.2954037,26.7666589 69.3940937,26.2187072 C69.7088728,26.3013904 69.6232791,26.5461702 69.6195373,26.7162081 C69.5966187,27.5743388 69.7794993,28.2811171 70.6532102,28.7076132 C71.1466604,28.9486559 71.5381464,29.388699 72.0699501,29.5956407 C72.7762153,29.8698501 73.2308443,29.6839296 73.553107,28.9818226 C73.6227981,28.8295359 73.7111981,28.6842563 73.7663897,28.5272983 C74.0629276,27.6850503 74.0624598,27.680846 74.8594637,28.1456474 C75.327189,28.4179882 75.7776085,28.7216273 76.3066058,28.870644 C77.0222255,29.0719801 77.4843381,28.710416 77.4356947,27.9559897 C77.4104375,27.5668646 77.3229729,27.1819437 77.2715231,26.79422 C77.2514109,26.6400648 77.1718976,26.4756325 77.3412141,26.2696251 C77.6269943,26.7708631 77.5760122,27.2973265 77.6714282,27.7840833 C77.7200716,28.0321331 77.7958431,28.2180536 77.9805946,28.4063098 C78.4347559,28.8692426 78.6662799,29.4755864 78.86366,30.0758575 C79.5666511,32.2158122 79.8627212,34.434713 80.0951807,36.6638908 C80.1209056,36.9091378 80.047005,37.0147107 79.7953688,36.9983609 C79.6279231,36.9876168 79.459542,36.9978938 79.2906932,36.9978938 C67.6999144,36.9978938 56.1090436,36.9978019 44.5181623,36.9976996 C40.1498271,36.9988661 35.7815078,36.9996836 31.4132239,36.9999512 C28.0784184,37.0002694 24.7436629,36.9989822 21.4089248,36.9975058 C14.8326051,36.9974604 8.25629944,36.9974291 1.68002286,36.9974268 C1.34838833,36.9977535 1.01675335,36.998106 0.685117866,36.9984856 C0.569681897,36.9985908 0.469778121,36.9928336 0.384702203,36.977945 C0.340902111,36.9710886 0.303153977,36.9618208 0.270805428,36.949294 C0.0472104791,36.8717051 -0.0318826786,36.6871258 0.011332302,36.2925463 C0.256644866,34.0652956 0.571643148,31.8541666 1.28074242,29.7251123 C1.37208721,29.4505532 1.50675016,29.1872305 1.65083009,28.9370984 C1.76524651,28.7387514 1.89096331,28.4915505 2.0736529,28.4050791 C2.12678148,28.3798743 2.1703984,28.371489 2.20698701,28.3755593 C2.22773894,28.3569733 2.24916293,28.3388721 2.27130469,28.3212909 C2.49861918,28.1405089 2.45418528,27.9008676 2.46400751,27.6584235 C2.49253875,26.9712649 2.71190192,26.320543 2.88215392,25.6618798 C2.89945976,25.5946121 2.94202276,25.478295 3.10759751,25.5035204 C2.99627889,26.177132 2.8835571,26.8507436 2.7745771,27.5248223 C2.75025539,27.6715033 2.72733685,27.8200529 2.72219187,27.9686024 C2.69664613,28.7053079 3.12713088,29.0629843 3.81404295,28.8808499 C3.98727708,28.7966728 4.15254188,28.6859418 4.32337157,28.5946323 C4.74301213,28.3733757 5.19807947,27.9357077 5.57562589,27.9709618 C5.66158255,27.6598805 5.70965265,27.3177403 5.7412537,26.953692 C5.8541666,25.6470199 6.15316774,24.3523447 6.81901467,23.1986342 C6.99201856,22.8992093 6.81804546,22.7872374 6.6392263,22.689262 C5.14470524,21.8694676 3.96856951,22.2218792 3.35893673,23.7364992 C3.18835586,24.1593931 3.0604202,24.6002825 2.89613919,25.0261756 C2.83750202,25.1791373 2.91600799,25.5265501 2.61361462,25.4105792 C2.35095884,25.3096045 2.62088369,25.1161531 2.65819826,24.9731889 C2.8253869,24.3358488 3.04878969,23.7195035 3.3763825,23.1486467 C3.96323886,22.1269031 4.98963172,21.7439991 6.06593888,22.1738913 C6.73857028,22.4428238 7.36904106,22.7042582 8.10127884,22.2803645 C8.49090106,22.0544212 8.9842287,22.174891 9.40292721,22.3498471 C10.3367606,22.7402492 11.2715631,22.8267275 12.2301113,22.4628188 C12.2708181,22.4473227 12.3299399,22.4843134 12.5654578,22.5437985 C12.5060252,22.5662795 12.4489267,22.5899679 12.3940483,22.6148042 C12.6451747,22.5616802 12.9043743,22.617785 13.1551077,22.6707718 C13.857204,22.8188039 14.5231735,23.1374161 15.2675762,23.080556 C15.5851119,23.0560474 15.8375244,22.9815412 16.0732994,22.7374353 C16.764938,22.0232539 17.6001331,21.838949 18.5342016,22.1261901 C18.8992727,22.2379495 19.2671959,22.3301019 19.6503304,22.3296117 C20.0981128,22.3286314 20.4560536,22.2506939 20.6904026,21.7399341 C20.9836954,21.0982983 21.3658792,20.9316396 22,21.0233019 C20.7783429,21.4345567 20.5525503,22.4305873 20.4132719,23.483968 C20.2977611,23.4133832 20.17512,23.3109371 20.2093454,23.2114321 C20.4850501,22.4168624 19.9902077,22.5884228 19.5419499,22.5820506 C19.1711746,22.5766587 18.7984979,22.4492138 18.4324761,22.3497088 C17.1613823,22.0056077 16.0994438,22.6114609 15.7472073,23.9089476 C15.371843,25.2883962 15.2162391,26.6989905 15.1899037,28.1199262 C15.4459378,28.027104 15.5005474,28.1698486 15.6355296,28.6825694 C15.9274563,29.7895995 16.8126533,29.8501784 17.9083199,29.6669761 C18.8909827,29.5028269 19.800193,29.1544984 20.2776344,28.1070701 C20.4325438,27.7670467 20.6627892,27.627813 20.8944471,28.0972993 C21.0314643,28.3738125 21.2518219,28.5956094 21.5385692,28.7255608 C21.5743538,28.7612242 21.6096675,28.7968876 21.6445103,28.833528 C21.8968856,29.2722363 22.3135874,29.3635932 22.7552442,29.3914399 C23.7746332,29.4554386 24.735637,29.193093 25.6509683,28.7656211 C26.2192836,28.5008328 26.6284518,28.0464912 26.7960742,27.3957568 C26.8295045,27.2662939 26.8648182,27.1104499 27.0065439,27.0738094 C27.0670123,27.058215 27.1145074,27.0711575 27.1531462,27.0990972 C27.21697,26.7786254 27.2600897,26.4505376 27.3066248,26.124596 C27.4700913,26.5926242 27.3744262,27.0707954 27.5815457,27.5045305 C27.6992879,27.750745 27.8325415,27.9707653 27.984355,28.1617461 C28.7164023,28.7214935 29.6687634,28.6826848 30.6287887,28.6420206 C31.8624143,28.5897469 32.6256612,27.9121429 33.1238199,26.78264 C33.2489448,26.4987237 33.3287593,26.3390302 33.4092249,26.2946272 C33.4406203,26.0702806 33.449237,25.8361493 33.4296533,25.5884647 C33.3233072,24.2505513 33.234608,22.910706 33.0878597,21.5761736 C33.0135567,20.9014209 32.5686677,20.4280797 31.9301266,20.3952357 C30.8545912,20.3396905 29.7762695,20.3493505 28.7114151,20.545932 C27.6344866,20.7449285 27.3451694,21.0888254 27.3108043,22.2460963 C27.2847983,23.1333695 27.3075535,24.0220918 27.3001232,24.910331 C27.2973369,25.2242818 27.2704021,25.5382326 27.2495043,25.9458856 C27.0298462,25.6932759 27.0688553,25.4764084 27.0651401,25.2846569 C27.0488863,24.4157377 27.0312394,23.5463356 27.0474932,22.6778994 C27.0544591,22.3262745 26.9666887,22.1026449 26.6095701,22.1060259 C25.5883687,22.115686 24.754318,21.6621478 23.9806384,21.0207222 C23.6597424,20.7541056 23.2677943,20.6222462 22.8229053,20.5715311 C23.0602104,20.3348605 23.2882276,20.3894396 23.5171736,20.4763799 C23.8520014,20.6038922 24.1645382,20.7883986 24.4190258,21.0385933 C25.1221176,21.729768 26.0351153,21.734598 26.8979585,21.9171725 C27.0679265,21.9533976 27.0985765,21.8394093 27.1125083,21.735081 C27.2676157,20.5555921 28.0919142,20.3227855 29.036955,20.2247362 C29.9253398,20.132 30.8132602,20.0948089 31.7053602,20.124755 C32.635076,20.1561501 33.1644846,20.6159672 33.3757837,21.6408958 C33.5030275,20.7381665 34.0668012,20.4285627 34.772215,20.1957562 C35.5888503,19.9257871 36.3803024,20.1324216 37.1841862,20.1786638 Z M68.0447331,22.1808634 C67.3811254,21.7275518 66.6313411,21.7500489 65.8527359,22.0032174 C65.2953492,22.184206 64.7356167,22.3228856 64.1477333,22.277756 C63.8418275,22.254251 63.8230602,22.3478009 63.8981291,22.6270405 C64.0651575,23.248513 64.2955252,23.8666948 64.2518914,24.5459897 C63.9563075,24.4933385 64.0323148,24.2827336 63.9975954,24.1365324 C63.8892147,23.6814753 63.8075773,23.2184266 63.6804293,22.7685406 C63.3998592,21.7733384 62.6810744,21.2534075 61.6479385,21.2623394 C61.4654272,21.2642198 61.2754091,21.3314442 61,21.1659689 C61.4579204,20.9290383 61.8731453,20.9948524 62.272418,21.0653674 C62.5867691,21.1208392 62.9166031,21.2487065 63.1169433,21.485637 C63.7761422,22.2641231 64.6009618,22.1235631 65.3868395,21.8809914 C66.2928274,21.6017518 67.1396986,21.4950391 68.0672688,21.8311607 C68.7593103,22.0821943 69.5067151,21.9674898 70.2015718,21.6797885 C70.8598323,21.4071303 71.5101167,21.3808047 72.1524251,21.7230377 C72.585948,21.954327 72.9556624,21.6760276 73.3272535,21.5495707 C73.7551463,21.4047798 74.1684945,21.213449 74.62923,21.2858444 C75.3104803,21.3930273 75.8594217,21.7211573 76.2066154,22.3374587 C76.5805525,23.0017104 76.8625301,23.6974587 77,24.4891076 C76.6401384,24.4482089 76.727406,24.1920042 76.6635974,24.0472133 C76.459973,23.5855749 76.319688,23.09385 76.1024573,22.6392631 C75.6403144,21.6708565 74.7132133,21.2994773 73.7082283,21.6548731 C73.3769867,21.7719281 73.0551287,21.9153087 72.728579,22.0464666 C72.8712099,22.3426298 73.0232244,22.6355023 73.1555334,22.9363664 C73.5862413,23.9122946 73.8180165,24.936643 73.9263973,25.9976593 C73.6688171,26.0221045 73.7058824,25.8495777 73.6824233,25.7367536 C73.4900592,24.800784 73.3164624,23.8601134 72.918128,22.9829064 C72.4146971,21.8739399 71.5377984,21.4842267 70.3948742,21.8706492 C69.8431177,22.057279 69.2941763,22.2373274 68.6997244,22.1846761 C68.5899361,22.174804 68.4595038,22.1550598 68.5007917,22.3426298 C68.4797572,22.3573828 68.4588171,22.3720413 68.4379289,22.3866477 C68.9134714,23.1796592 68.9297785,24.0961991 69,25 C68.6384889,24.0727073 68.5728453,23.0497937 68.0447331,22.1808634 Z M14.9527682,28.2332004 C14.8617276,26.5818817 15.2438257,24.9831779 15.6145838,23.3168192 C14.3627388,23.5358411 13.2781256,22.713484 12.042967,22.8078032 C10.9416359,23.5379877 11.005138,24.8695066 10.5708247,25.933448 C10.5819706,24.8792125 10.7976197,23.8904606 11.3927143,22.9501965 C10.5892396,23.0206788 9.89819327,22.8172299 9.20520847,22.5637934 C8.2902747,22.2288775 7.34965687,22.6472725 6.90818194,23.558044 C6.27577274,24.8617169 6.09501516,26.2883589 5.853682,27.703004 C5.83025519,27.8406394 5.81383359,27.9761448 5.80433119,28.1097845 C5.97925182,28.3583965 6.00742143,28.8841978 6.18746455,29.205795 C6.52647615,29.8106067 7.218154,30.0304494 7.899944,29.7295091 C8.63541084,29.405119 9.20419698,28.8242458 9.84973158,28.3615991 C9.9929806,28.259095 10.1078071,28.2005286 10.1985703,28.2329402 C10.2367801,27.8249769 10.2741047,27.3957479 10.3212532,26.8762115 C10.5834244,27.1761362 10.5339947,27.3780855 10.507826,27.5480429 C10.4427632,27.9652473 10.4210814,28.3765416 10.4511535,28.7873237 C10.7020982,29.5859152 11.0359102,29.811001 11.9516035,29.7124103 C12.8815312,29.6117712 13.7620197,29.2815186 14.3849535,28.4715204 C14.5097286,28.4304831 14.6425081,28.4065447 14.7550412,28.3430346 C14.8283603,28.3018211 14.8939084,28.2650376 14.9527682,28.2332004 Z M2.99446077,29.0498862 C2.94296648,29.0178453 2.89208561,28.9786743 2.84192955,28.9313718 C2.69833788,28.7963692 2.70441831,28.4114483 2.40367095,28.5487866 C2.39669017,28.5519753 2.38979288,28.5553927 2.38297649,28.5590271 C2.4225537,28.6482169 2.45637105,28.7480852 2.51483883,28.8051928 C2.66898926,28.9560075 2.82994073,29.0276536 2.99446077,29.0498862 Z M77.6802252,28.5472445 C77.6110618,28.5644603 77.5356698,28.6327376 77.4483232,28.7734795 C77.4046513,28.8438484 77.3559451,28.9035179 77.302727,28.9534647 C77.4252825,28.8875563 77.5320751,28.7857298 77.619093,28.6400665 C77.6401374,28.6049064 77.6604882,28.5740671 77.6802252,28.5472445 Z M74.2682685,28.1350922 C74.1484829,28.1613661 74.0899179,28.3374974 73.9637698,28.7118174 C73.7993361,29.1992965 73.5750563,29.5442567 73.2926369,29.7429959 C73.6450905,29.5592219 73.9188349,29.1680073 74.1112646,28.5755793 C74.1754051,28.3782367 74.2221915,28.2335661 74.2682685,28.1350922 Z M69.7159387,28.3781373 C69.6218814,28.3955201 69.5822777,28.5470732 69.497461,28.8664398 C69.4247778,29.140564 69.3127916,29.3569271 69.1524377,29.5128683 C69.377022,29.3480576 69.5256135,29.0877635 69.6151232,28.7367972 C69.6553255,28.5795357 69.6854373,28.4612114 69.7159387,28.3781373 Z M7.77699374,11.4075383 C7.83229876,11.3714339 7.88202343,11.298896 7.92933321,11.1818258 C7.96387181,11.0965986 8.001807,11.015357 8.04314032,10.9380865 C7.94051852,11.0777614 7.85180724,11.2341955 7.77699374,11.4075383 Z M17.4342673,11.5546763 C17.4733126,11.5947288 17.5161171,11.6317985 17.5641958,11.6645326 C17.6018872,11.3836512 17.5495904,11.1390426 17.5203795,10.8874584 C17.4506364,10.2865115 17.5328415,9.7504651 17.7456414,9.3119187 C17.4373357,9.80660192 17.3069222,10.4515032 17.3898071,11.1906277 C17.4034115,11.3121485 17.4219928,11.4320088 17.4342673,11.5546763 Z M47,21.4789596 C47.0688507,20.4966933 47.6333289,20.0342942 48.7857238,20.0055601 C49.8780574,19.9785942 50.9601367,20.0519768 52.0456341,20.1766389 C52.8386381,20.2681461 53.2981311,20.6288704 53.4651307,21.2994816 C53.5427709,21.6115789 53.6599636,21.612905 53.9964043,21.6009693 C55.0643228,21.5620677 55.9413149,21.1805664 56.7553158,20.5957156 C57.1064056,20.3437391 57.5146269,20.1784071 58,20.3861772 C57.2641275,20.488294 56.7069739,20.8839414 56.1341945,21.2579276 C55.649798,21.5735613 55.1170595,21.736683 54.5047277,21.7525973 C53.6511741,21.7742584 53.6042971,21.8564824 53.6013672,22.6146222 C53.5979491,23.4081273 53.578417,24.2020743 53.5662094,24.9955794 C53.4836862,24.9969056 53.401163,24.9986738 53.3186399,25 L53.3386603,23.7069626 C53.4431571,23.3245772 53.4436454,22.9421917 53.3357305,22.5598063 C53.3284059,22.3427528 53.3210814,22.1256994 53.3132685,21.909088 C53.3328006,21.6159995 53.28983,21.3357309 53.0984152,21.088175 C52.9758512,20.6766133 52.6472233,20.5170282 52.2092156,20.4432035 C51.0001776,20.2385278 49.7808852,20.2124461 48.5576863,20.2495794 C47.8662494,20.2703564 47.4023616,20.6248918 47.2504994,21.2362665 C47.2202246,21.3591603 47.2221778,21.4851485 47.0488303,21.5169771 C47.032228,21.5050414 47.0156257,21.4922216 47,21.4789596 Z M69,16.68404 C69.5226203,16.68404 69.9521052,16.6908285 70.3811075,16.6824734 C70.9114489,16.6725518 71.2820606,16.4219009 71.4939076,15.8689022 C71.9069852,14.7926696 72.2679455,13.6981603 72.5787188,12.5827635 C72.6289058,12.4041747 72.5989866,12.1634453 72.9213415,12 C72.7283146,13.4287105 72.1521293,14.6281799 71.7955121,15.8971004 C72.2172759,16.0041493 72.6800579,15.9467084 73,16.3707263 C72.7606466,16.5367826 72.6028471,16.345139 72.4291229,16.3007529 C72.0449994,16.2025813 71.7211968,16.1634171 71.3829171,16.5237278 C70.8506454,17.09187 69.7175775,17.1597547 69,16.68404 Z M20.2102216,24 C20.1747216,24.9997086 20.2052216,26.0007285 20.1647216,27 C19.9267216,25.9941716 19.9507216,24.9944631 20.2102216,24 Z M41,20.834408 C41.5490408,19.9854576 42.2499325,19.9116021 43,20.0624229 C42.4007025,20.4433622 41.6981897,20.4130425 41.153472,21 C41.1021346,20.9448027 41.0513375,20.8896054 41,20.834408 Z" id="Combined-Shape"></path>
                    <path d="M62.8084728,10.3144466 C62.8202813,9.68746057 62.752264,8.95581614 62.0942906,8.47110774 C61.0598601,7.7090786 59.9498548,7.79058678 59.0240632,8.69151743 C58.6853935,9.02189082 58.4246603,9.44197144 58.0666245,9.7448539 C57.1899565,10.485662 56.9802364,11.4454328 56.9216659,12.5523043 C56.8767933,13.3943947 56.7747673,14.1081941 57.5923925,14.6869504 C58.0855183,15.0361334 58.3793154,15.6636017 58.8190664,16.1082795 C59.9097057,17.2098456 61.3772744,16.8939411 61.9039365,15.456214 C62.4957819,13.8405193 62.7442342,12.1568208 62.8084728,10.3144466 M72.4187571,10.88211 C72.1192918,10.4842151 71.8160478,10.1041651 71.3196156,9.92812673 C70.2511765,9.54952365 69.6324076,9.7289381 68.9446766,10.6395147 C68.4699722,11.2689122 68.1124088,11.920013 68.0032976,12.7471522 C67.8634842,13.8110992 67.5597678,14.8499668 67.1275743,15.8873875 C67.5885808,15.9770947 68.1006002,15.6742122 68.4997298,16.0904345 C68.3292141,16.25538 68.1860942,16.1502393 68.0439191,16.1405934 C67.5739381,16.1092441 67.128519,16.1203369 66.7293894,16.468073 C66.1904464,16.9368656 65.5442816,16.8939411 64.8990615,16.745876 C64.3818463,16.627231 63.9038355,16.3894586 63.4036246,16.2259599 C62.7432895,16.0098909 62.0777586,15.8189013 61.5492072,16.5925056 C61.2596611,17.0159623 60.7391395,17.0323604 60.2493201,16.9773785 C59.3769032,16.8794722 58.6830318,16.4917055 58.1601484,15.7557204 C57.8507639,15.3202063 57.4908388,14.9203822 57.1337477,14.5234518 C56.9084403,14.2721751 56.7034436,14.1704104 56.5343449,14.6252164 C56.2816415,15.3042905 55.7086899,15.5927041 55.0464654,15.7234065 C53.4948197,16.0301474 51.9615953,15.707973 50.4255369,15.5632839 C49.9314665,15.5169834 49.6230267,15.170212 49.52289,14.657048 C49.4983282,14.5316508 49.5205283,14.3821388 49.3750468,14.2977368 C49.2276759,15.1991498 48.9962279,16.0378641 48.0071424,16.3441227 C47.9207037,16.370649 47.8347373,16.4159849 47.7473539,16.4183964 C45.8782939,16.4724136 44.0078168,16.5288424 42.1453696,16.2929992 C41.220995,16.1762833 40.6400135,15.610549 40.2994544,14.7327687 C39.940474,15.8029855 39.1833086,16.2389819 38.1101461,16.3378528 C36.4300231,16.4926701 34.7522619,16.4772366 33.0726113,16.4183964 C32.0792747,16.3831887 31.3717053,15.615372 31.5195486,14.7110653 C31.6447194,15.2406273 32.0070062,15.5729299 32.3759059,15.9047502 C32.5558684,16.0663196 32.7514183,16.1405934 32.9861726,16.157956 C34.8174452,16.2949284 36.6439944,16.2413934 38.4667648,16.0296651 C39.3892501,15.9221129 39.9924317,15.2849986 40.0987088,14.3170287 C40.127994,14.0498362 40.1213812,13.7778207 40.1308281,13.5086991 C40.2479691,12.9767256 40.2479691,12.4442698 40.1327174,11.9122963 C40.0859555,10.8145885 40.0202999,9.72073906 39.5016676,8.71997295 C39.5389827,8.68765905 39.5758254,8.65534516 39.6126682,8.62351356 C40.0179382,9.07108511 40.1284664,9.64742993 40.2342711,10.2512657 C40.4869745,10.0351966 40.4931149,9.76703956 40.5672727,9.53746623 C40.9201127,8.43734695 41.6295714,7.6309465 42.6885637,7.30828986 C44.6766541,6.70156034 46.5943654,7.00685429 48.3883229,8.07900034 C48.5649791,8.18414107 48.7534438,8.29314017 48.7477757,8.54923984 C48.6707838,8.59457575 48.610324,8.56370875 48.5460854,8.51403216 C47.1966023,7.47564689 45.648263,7.16408308 44.0059275,7.27597597 C42.8973392,7.35073199 41.8855812,7.71245468 41.2417781,8.71659687 C40.7590438,9.46946236 40.4893362,10.2855088 40.5068129,11.2269523 C40.5266512,12.3024745 40.4085656,13.3837842 40.5719961,14.4535187 C40.7236181,15.4412628 41.3154635,15.9414047 42.2932129,16.0479924 C43.9100419,16.2230661 45.5292326,16.242358 47.1522021,16.1782125 C48.4237486,16.1280536 48.9258489,15.7605434 49.0694411,14.4732929 C49.2904974,12.4881588 49.6291671,10.4774629 48.7463587,8.54779295 C49.182331,8.7739902 49.3509573,9.22734931 49.3821319,9.63874858 C49.4265321,10.2165403 49.6268054,10.3482074 50.1199312,10.1658991 C50.0075136,10.4601002 49.5913797,10.4871089 49.590435,10.9173177 C49.587601,12.132706 49.5994096,13.3427889 49.757172,14.5499781 C49.8171595,15.0081602 50.0840332,15.2772819 50.479384,15.3124895 C51.9932423,15.4465681 53.5014325,15.7798353 55.0322951,15.4668246 C55.7937115,15.3110427 56.2542457,14.8861391 56.457353,14.1009597 C56.8867125,12.4423406 56.7383969,10.763465 56.67652,9.08893009 C56.6562093,8.54441687 56.3515483,8.10986734 55.8768439,7.83013513 C54.6851233,7.12742852 53.4971814,7.24462667 52.3144353,7.85859065 C52.1514771,7.94347491 52.0343361,8.12915922 51.8170585,8.09346925 C51.7806881,7.92080695 51.9153057,7.8667897 52.0163871,7.78528152 C52.4915638,7.40378465 53.0574304,7.25234342 53.6336884,7.17324673 C54.9845885,6.98804471 56.8366442,7.39896168 57.0043258,9.47621452 C57.0288877,9.78150847 57.0213302,10.0892139 57.0288877,10.3959547 C57.0151897,10.4022246 56.9996024,10.4056007 56.9896832,10.4157289 C56.9835428,10.4215165 56.9863768,10.4364677 56.9849598,10.4475605 C56.9986577,10.4297155 57.012828,10.4118705 57.0269983,10.3945079 C57.5073708,10.331327 57.6533247,9.87748556 57.92256,9.57653228 C58.5408566,8.88588309 59.0439016,8.08141183 60.0159828,7.80553799 C61.2695803,7.45056745 62.6469316,8.24876886 62.9530096,9.52396191 C63.1084104,10.1707221 63.0281121,10.8054248 62.9445075,11.4637601 C63.2959304,11.3730883 63.2638111,10.8975435 63.6194852,10.8700526 C63.5859488,11.3557256 63.0418101,11.5553965 62.9690693,11.9721011 C62.7437618,13.261763 62.5085352,14.5461197 62.0550862,15.8309587 C62.770213,15.7431807 63.3639478,15.8917281 63.9406782,16.1618144 C64.4229401,16.3870471 64.9382659,16.5037629 65.4644557,16.573696 C66.137544,16.6638855 66.6424784,16.378848 66.9074626,15.7513797 C67.3264306,14.7564012 67.5191464,13.6972772 67.7912158,12.6584096 C68.0703703,11.5915688 67.6424278,10.7036602 67.2910049,9.78488455 C67.165834,9.45788724 66.9150201,9.16320382 66.5470651,9.14342964 C65.7799806,9.10243441 65.0861092,9.30982208 64.5320512,9.90545878 C64.3591738,10.0921077 64.2396711,10.3597825 63.9482357,10.4094591 C64.1702367,9.68456679 64.756414,9.32091491 65.3680978,9.05999228 C66.5182522,8.56901401 67.1880342,8.88588309 67.6490406,10.0453249 C67.8124712,10.4557596 67.9565357,10.873911 68.1398047,11.3701945 C68.4326571,10.9621713 68.6815817,10.6501252 68.8931913,10.3144466 C69.3612829,9.56978012 70.0702692,9.46126331 70.8264899,9.58231984 C71.5647615,9.70048259 72.2576882,9.94983009 72.5,10.8063894 C72.4726041,10.8319512 72.4456806,10.8570306 72.4187571,10.88211" id="Fill-6"></path>
                    <path d="M30.6744142,12.1438468 C30.6744142,11.7438222 30.678998,11.3707931 30.6721223,10.9982549 C30.669372,10.8470799 30.694583,10.6792168 30.5341494,10.5805605 C29.8103648,10.1358705 29.3804028,9.38195913 28.8894761,8.7090343 C28.0465123,7.55264415 26.9317281,7.25323923 25.6633861,7.40981328 C24.4266724,7.56295153 23.7766872,8.37379896 23.7519346,9.6980522 C23.7459757,10.0308334 23.7716451,10.3665596 23.7423086,10.6968866 C23.6295467,11.9622406 23.7963977,13.1956907 24.081511,14.4188334 C24.2378192,15.0897949 24.6829078,15.4368101 25.2710114,15.5771869 C25.6610942,15.6699533 26.0672203,15.7033296 26.4678459,15.7259077 C27.4969127,15.7833345 28.5108529,15.5614804 29.5339607,15.5015994 C30.2325343,15.4603698 30.5148974,15.1717631 30.5680697,14.4060719 C30.6212419,13.6443072 30.7344622,12.8845059 30.6744142,12.1438468 M38.8918219,8.74682804 C37.1348451,6.92782044 33.9408418,6.74474169 31.9675088,8.31097301 C31.0406611,9.04672379 31.0415779,10.0990585 30.9645698,11.1577739 C30.8967293,12.0932916 31.1657993,13.0214468 30.9897808,13.9599095 C30.9563189,14.1390616 31.393615,14.4625171 30.8307224,14.451228 C30.8265969,14.4507372 30.8188044,14.4860768 30.8169709,14.5052191 C30.7037506,15.6272513 29.954755,15.7425958 29.110416,15.8044401 C27.9094561,15.8927891 26.719039,16.1372213 25.5066196,15.8976974 C24.7736673,15.753394 24.1796047,15.4377918 23.8990751,14.6632656 C23.7569768,14.2715851 23.5869172,14.4217784 23.4241918,14.5979855 C23.103783,14.9450007 22.8021679,15.3126307 22.4923019,15.6714258 C22.4464637,15.6257788 22.4006256,15.5801318 22.3547874,15.5344848 C22.695365,15.0520012 23.0501523,14.5857148 23.4970744,14.2072866 C23.6148785,14.1071578 23.7413919,14.0134097 23.6873028,13.7827206 C23.4966161,12.978254 23.4764473,12.1502276 23.4594872,11.325637 C23.4535282,11.0252504 23.3425998,10.8416808 23.1514547,10.6306249 C22.7169089,10.1505954 22.2310243,9.70197882 22,9.04770544 C22.329118,9.07077435 22.4052094,9.40895466 22.5807695,9.6097032 C22.8626743,9.93119537 23.0849893,10.3130594 23.4594872,10.5501292 C23.578208,10.3542889 23.5135762,10.18299 23.512201,10.0141453 C23.5062421,9.19789873 23.5786664,8.41012021 24.2116914,7.82259941 C25.4089843,6.71234706 28.0103001,6.9572701 28.9573166,8.43220746 C29.2566398,8.89800298 29.6031763,9.33582133 29.9698816,9.74222669 C30.1903632,9.98616808 30.3636315,10.359688 30.773883,10.3395641 C30.8417235,9.1301645 31.4027826,8.30213811 32.3791355,7.77744325 C33.6442689,7.09862849 34.9978699,6.89149919 36.3835576,7.0510182 C37.4474614,7.17372514 38.3871437,7.62921328 39,8.64768084 C38.9637879,8.68056629 38.9280341,8.71345175 38.8918219,8.74682804" id="Fill-10"></path>
                </g>
            </g>
        </g>
    </g>
</svg>