<?xml version="1.0" encoding="UTF-8"?>
<svg width="36px" height="44px" viewBox="0 0 36 44" version="1.1" xmlns="http://www.w3.org/2000/svg" xmlns:xlink="http://www.w3.org/1999/xlink">
    <!-- Generator: Sketch 52.2 (67145) - http://www.bohemiancoding.com/sketch -->
    <title>hand</title>
    <desc>Created with Sketch.</desc>
    <g id="Page-1" stroke="none" stroke-width="1" fill="none" fill-rule="evenodd">
        <g id="Lesson-2" transform="translate(-477.000000, -6687.000000)" fill="#F67102">
            <path d="M497.888022,6687 L498.231799,6687 C499.389465,6687.34066 499.816436,6688.19745 499.998809,6689.31894 C500.303739,6691.19048 500.398793,6693.07406 500.462219,6694.96142 C500.559852,6697.88037 500.670204,6700.79881 501.007621,6703.70144 C501.092705,6704.43242 501.093049,6705.20844 501.56196,6705.94492 C502.04445,6705.10892 502.086735,6704.27344 502.181617,6703.45703 C502.526596,6700.49098 502.420541,6697.50947 502.467295,6694.53311 C502.491531,6692.98795 502.506142,6691.43506 503.026791,6689.9523 C503.420759,6688.83047 504.23018,6688.47056 505.331467,6688.87172 C505.999425,6689.11527 506.271008,6689.68589 506.479165,6690.28367 C506.993798,6691.75956 507.135777,6693.30025 507.16517,6694.8485 C507.209346,6697.19614 507.19336,6699.54498 507.248364,6701.89228 C507.278101,6703.14903 507.288242,6704.41558 507.583718,6705.64947 C507.660208,6705.9683 507.693211,6706.44697 508.104023,6706.44061 C508.453988,6706.43511 508.458972,6705.97259 508.53065,6705.68419 C508.81375,6704.5438 508.985982,6703.38158 509.055253,6702.21042 C509.188638,6699.95388 509.272863,6697.69441 509.40917,6695.4382 C509.459362,6694.61028 509.612686,6693.78906 510.020576,6693.04673 C510.331522,6692.48127 510.834811,6692.28155 511.464093,6692.32572 C512.069655,6692.36834 512.26853,6692.81694 512.423917,6693.28461 C512.540457,6693.63523 512.618666,6694.00356 512.669889,6694.37 C512.952129,6696.3885 513.041339,6698.42281 512.983069,6700.45438 C512.816681,6706.26427 512.565381,6712.07175 512.412744,6717.88181 C512.314252,6721.63453 511.637185,6725.20592 509.668721,6728.46725 C509.209608,6729.22763 508.908632,6730.07102 509.060753,6731 L494.450259,6731 C494.378582,6730.51067 494.028961,6730.19563 493.709421,6729.87783 C492.430917,6728.60509 491.172867,6727.30847 489.841937,6726.09211 C486.427551,6722.97086 482.902125,6720.02286 478.276099,6718.79705 C477.029909,6718.46688 476.688883,6717.44594 477.286367,6716.29266 C478.203734,6714.52148 480.183713,6713.79995 482.02773,6714.58697 C483.317235,6715.13731 484.45565,6715.99342 485.777986,6716.47828 C486.913307,6716.89439 488.06513,6717.228 489.296364,6716.93289 C489.911896,6716.78525 490.300191,6716.45697 490.389401,6715.78339 C490.525021,6714.76073 490.623685,6713.73842 490.658406,6712.70614 C490.820841,6707.89828 490.006606,6703.18066 489.38059,6698.44412 C489.100068,6696.32095 488.633564,6694.20534 488.911163,6692.04298 C489.086317,6690.67813 489.697723,6690.07725 490.908847,6689.99509 C492.115502,6689.91328 492.671045,6690.35156 493.059512,6691.73447 C493.540971,6693.44927 493.68381,6695.22302 493.934766,6696.977 C494.311717,6699.61081 494.680933,6702.24617 495.488807,6704.79233 C495.652617,6705.30881 495.760047,6705.88631 496.286712,6706.23281 C496.567749,6705.86637 496.499166,6705.48086 496.477852,6705.12009 C496.421988,6704.17736 496.347561,6703.23514 496.2556,6702.29516 C495.865242,6698.30112 495.646085,6694.30022 495.839975,6690.2878 C495.909933,6688.83906 496.109839,6687.41233 497.888022,6687" id="hand"></path>
        </g>
    </g>
</svg>