<?xml version="1.0" encoding="UTF-8"?>
<svg width="785px" height="815px" viewBox="0 0 785 815" version="1.1" xmlns="http://www.w3.org/2000/svg" xmlns:xlink="http://www.w3.org/1999/xlink">
    <!-- Generator: Sketch 51.1 (57501) - http://www.bohemiancoding.com/sketch -->
    <title>Group</title>
    <desc>Created with Sketch.</desc>
    <defs></defs>
    <g id="Page-1" stroke="none" stroke-width="1" fill="none" fill-rule="evenodd">
        <g id="Lesson-4" transform="translate(-103.000000, -4617.000000)">
            <g id="Group" transform="translate(103.000000, 4618.000000)">
                <g id="Group-26" transform="translate(0.000000, 579.000000)">
                    <path d="M97.458669,122.819538 C97.2413512,122.628079 97.0240333,122.438292 96.8067155,122.246833 C92.5939016,124.820243 88.3810876,127.393652 84.2055992,129.943652 C83.4176147,129.331652 83.3413047,128.832521 84.121824,128.247275 C85.3461031,127.329275 86.506514,126.323489 87.7249868,125.396292 C90.6728783,123.153964 93.6215992,120.911636 96.6093047,118.722816 C97.5092659,118.063161 97.6403202,117.242144 97.1741651,116.420292 C97.0646767,116.226325 96.0286845,116.510587 95.4439171,116.669439 C95.1287233,116.753882 94.8674442,117.037308 94.5796225,117.228767 C91.0146147,119.620751 87.5333822,122.15403 83.8630333,124.369603 C78.5437233,127.578423 73.0809171,130.543948 67.7027155,133.655784 C67.2116767,133.940046 66.5605527,134.515259 66.5464519,134.972587 C66.4469171,138.229062 66.4933667,141.489718 66.4933667,145.007046 C67.2108473,144.642521 67.7110101,144.454407 68.1381806,144.160111 C77.5707698,137.667226 87.0041884,131.174341 96.3994519,124.627111 C96.9178628,124.265931 97.1127853,123.432374 97.458669,122.819538 Z M6.94994031,114.568407 C6.94994031,116.710407 7.06523488,118.581521 6.91925039,120.430898 C6.75584729,122.479259 7.80759922,123.351275 9.50135116,124.10039 C23.7895837,130.419374 38.0454674,136.811931 52.3187698,143.16603 C54.6404209,144.199407 56.9985682,145.150849 59.725824,146.303784 C59.725824,144.072325 59.6229713,142.15021 59.7573434,140.244816 C59.872638,138.61198 59.2812349,137.81103 57.7741109,137.151374 C45.6764752,131.850718 33.6203124,126.454751 21.5525372,121.083866 C16.7823279,118.961931 12.0170953,116.829964 6.94994031,114.568407 Z M27.9982504,6.29457049 C28.2338163,8.28022623 28.394731,10.0426525 28.6601574,11.7900295 C29.3535837,16.3641443 29.3942271,16.2353902 33.9852736,16.7445541 C41.7639248,17.6073738 49.5301341,18.6114885 57.2880488,19.649882 C62.119638,20.2953246 66.9296612,21.0946033 71.7438318,21.8654557 C73.1928938,22.0970459 73.9684364,21.5193246 73.9808783,20.0929967 C74.0049326,17.572259 74.0248395,15.0439967 73.8174752,12.5374721 C73.7652194,11.9012262 72.9614752,11.0726852 72.3095217,10.7959475 C70.9624829,10.2232426 69.5042969,9.86457049 68.0593822,9.59117705 C58.4575837,7.77273443 48.7662039,6.71093115 39.0084674,6.31714426 C35.4741496,6.17501311 31.9282194,6.29457049 27.9982504,6.29457049 Z M66.9902116,130.543948 C68.2642581,129.865898 69.415545,129.341685 70.4789093,128.672833 C78.4574597,123.644734 86.4227388,118.594062 94.3813822,113.534193 C95.3725837,112.902964 96.6507775,112.532587 96.495669,110.853767 C96.3828628,109.629767 96.5794442,108.375669 96.660731,106.65421 C92.5897543,109.362226 88.9509248,111.782636 85.2424209,114.24903 C84.6344287,112.684751 84.8608705,111.734144 85.9076457,111.002587 C88.7394132,109.021948 91.5454674,107.002849 94.3996302,105.055652 C96.4492194,103.656915 97.1418163,101.902849 96.3820333,98.9247836 C92.5889248,102.008193 88.9376535,104.977898 85.2838938,107.948439 C84.1085527,105.972816 84.1533434,105.125046 85.7608318,103.851718 C89.2876845,101.059259 92.8800643,98.3512426 96.4160411,95.5713246 C96.8846845,95.2034557 97.4561806,94.6399475 97.5067775,94.1207508 C97.6519326,92.6099803 97.5582039,91.0758 97.5582039,89.5508164 C97.3948008,89.4730623 97.2322271,89.3953082 97.068824,89.3192262 C93.2972814,92.2036525 89.5265682,95.0889148 85.7351186,97.9892262 C84.8782891,96.5227672 85.0980953,95.551259 86.3032969,94.5137016 C89.4527465,91.8040131 92.3923434,88.844341 95.5882426,86.1956852 C97.4039248,84.6916033 97.4628163,82.9425541 97.244669,80.5405377 C93.2433667,83.2493902 89.4709946,85.8018984 85.7035992,88.3518984 C84.4353589,86.4373082 84.4262349,86.1471934 86.0751961,85.0260295 C89.5473047,82.6658164 93.0733279,80.3867016 96.5553899,78.0415377 C97.0232039,77.727177 97.6486147,77.2648328 97.7141419,76.7999803 C97.9687853,75.0074557 98.0276767,73.188177 98.1885915,70.969259 C94.1839713,73.1982098 91.2866767,76.2448328 87.984607,78.7429967 C87.1460256,77.3484393 87.3019636,76.4087016 88.5693744,75.3970623 C91.3123899,73.2090787 93.7858318,70.6691115 96.5927155,68.5764393 C98.8977775,66.8574885 98.8173202,64.645259 98.8057078,61.9272098 C97.7116535,62.6119475 96.8125217,63.0926852 96.0038008,63.6963246 C92.6386922,66.2120459 89.3109093,68.7770951 85.940824,71.2852918 C85.5791806,71.5545049 85.0325682,71.5695541 84.5705605,71.7024885 C84.5083512,71.0219311 84.3076225,70.3121115 84.4345295,69.669177 C84.5141574,69.2678656 85.0607698,68.929259 85.4481264,68.6282754 C89.8168783,65.2288328 94.1989016,61.8477836 98.5651651,58.4458328 C98.976576,58.1256197 99.549731,57.7318328 99.618576,57.3020951 C99.8491651,55.8740951 99.8831729,54.4143246 100.011739,52.7037344 C95.3037388,56.1976525 90.8561884,59.5001115 86.2568473,62.9146033 C85.8752969,61.3260787 86.0312349,60.2500623 87.0630798,59.3696852 C90.824669,56.1633738 94.5439558,52.9052262 98.3395527,49.740718 C100.266382,48.1346361 100.851979,45.6230951 99.5223589,43.021259 C95.2133279,46.7618164 90.9490876,50.4639148 86.6790411,54.1718656 C85.7931806,53.1209311 85.9781496,52.379341 86.7835527,51.5800623 C90.2929868,48.0894885 93.7344054,44.5278492 97.2720411,41.0682098 C98.1852736,40.1744557 97.8659326,39.6385377 97.2396922,38.8434393 C96.5305062,37.9429967 95.9855527,38.1888 95.3153512,38.8342426 C92.2140101,41.8189967 89.1118395,44.8045869 85.9632194,47.7375049 C85.6447078,48.0343082 84.8733124,48.2215869 84.5423589,48.0384885 C83.8481031,47.6538984 83.2898783,46.9691607 83.8837698,46.067882 C84.2636612,45.4918328 84.6866845,44.9299967 85.162793,44.4325377 C87.4919093,42.0029311 89.8608395,39.6109475 92.1791729,37.1704721 C92.6270798,36.6989311 92.9140721,36.0743902 93.276545,35.5200787 C92.6386922,35.102882 92.0456302,34.5017508 91.3480566,34.3320295 C90.8794132,34.2174885 90.1270953,34.5719803 89.7380798,34.9590787 C87.2140411,37.4731279 84.7737775,40.0724557 82.253886,42.5906852 C81.9171264,42.9267836 81.2859093,42.9644066 80.7907233,43.1399803 C80.6248318,42.486177 80.2855837,41.8164885 80.3436457,41.1835869 C80.3934132,40.6510131 80.8670333,40.1343246 81.2154054,39.6560951 C83.0244519,37.1746525 84.8393047,34.6990623 86.6798705,32.2410295 C87.6702426,30.9167016 87.5715372,30.3540295 86.3870721,29.085718 C85.2532039,27.8700787 84.5158163,28.6066525 83.7195372,29.4276689 C83.0294287,30.1374885 82.3277078,30.8364393 81.6517,31.5604721 C79.5573202,33.8044721 77.4911419,36.0768984 75.3602659,38.2857836 C75.066638,38.5892754 74.1442814,38.814177 74.0671419,38.6996361 C73.7229171,38.1837836 73.363762,37.5099148 73.421824,36.9355377 C73.4823744,36.3569803 73.9692659,35.7809311 74.3690643,35.2859803 C76.9229636,32.1315049 79.5216535,29.0138164 82.0581341,25.8459639 C82.3617155,25.4663902 82.654514,24.7214557 82.487793,24.3719803 C81.5090333,22.3194393 79.7613667,22.1513902 78.5644597,24.0074557 C74.725731,29.9610787 70.9674597,35.9657016 67.1254132,41.9168164 C66.1151341,43.4819311 65.7062116,45.1089148 65.7327543,46.9674885 C66.1284054,74.4498 66.4875605,101.931275 66.8591574,129.411915 C66.8624752,129.691997 66.9221961,129.970407 66.9902116,130.543948 Z M69.9497155,25.4020131 C69.3193279,25.2314557 68.9991574,25.1127344 68.6698628,25.0600623 C56.1176845,23.0752426 43.5563822,21.1514557 31.0216225,19.0621279 C29.045855,18.732718 27.7643434,19.2460623 26.5251341,20.6406197 C20.213793,27.747177 13.8866922,34.8395213 7.52807209,41.9034393 C6.52774651,43.0137344 6.20094031,44.1875705 6.23080078,45.6740951 C6.63972326,66.5907836 7.04366899,87.5083082 7.30494806,108.427505 C7.33480853,110.871325 8.15680078,112.027603 10.3183667,112.941423 C22.257576,117.986243 34.1362349,123.173193 46.0430953,128.295767 C50.3371961,130.144308 54.6503744,131.949374 59.1178318,133.843062 C59.2820643,133.227718 59.4919171,132.77039 59.5134829,132.305538 C59.7299713,127.698816 60.1181574,123.088751 60.0733667,118.483702 C59.8311651,94.0848 59.4678628,69.6875705 59.1924829,45.2895049 C59.1825295,44.3506033 59.4529326,43.3055213 59.9033279,42.4819967 C61.4967155,39.5716525 63.2161806,36.7298656 64.9041264,33.8721934 C66.5389868,31.1048164 68.1937543,28.3491443 69.9497155,25.4020131 Z M35.1904752,0.320045902 C37.3404287,0.501472131 39.4937,0.669521311 41.642824,0.866832787 C52.6331341,1.86927541 63.6259326,2.8483082 74.609607,3.92014426 C76.3539558,4.09070164 78.0908395,4.58648852 79.7696612,5.12825902 C81.7454287,5.76617705 82.9630721,7.16073443 83.2533822,9.32948852 C83.4964132,11.1470951 83.8024829,12.9605213 84.1765682,14.7555541 C85.3071186,20.1749311 88.6340721,24.0291934 92.9339791,27.2137672 C96.504793,29.8590787 100.053212,32.5395049 103.52532,35.3144066 C105.652878,37.0141279 106.566111,39.3174885 106.509708,42.1224885 C106.065119,64.1787344 105.725871,86.2374885 105.234832,108.292898 C105.122855,113.350259 104.471731,118.393407 104.229529,123.450767 C104.120041,125.72821 103.116398,127.264898 101.334723,128.475521 C92.8402504,134.241866 84.3822736,140.064226 75.8471574,145.769538 C73.0610101,147.632292 69.9472271,149.008456 67.2224597,150.948964 C63.6790178,153.470538 60.0128163,153.483915 56.2752814,151.981505 C50.0153667,149.464111 43.733886,146.960095 37.6531341,144.042226 C26.2796147,138.583554 15.077793,132.76203 3.72583953,127.254866 C0.874994574,125.871177 -0.087175969,123.800243 0.00655271318,120.877357 C0.217234884,114.224784 0.526622481,107.57221 0.593808527,100.917128 C0.71242093,89.1954885 0.730668992,77.4730131 0.695002326,65.7505377 C0.670948062,58.0495377 0.495932558,50.3485377 0.352436434,42.6483738 C0.321746512,40.9912918 0.705785271,39.6218164 1.87946744,38.3443082 C7.36798682,32.3664393 12.7760488,26.3116525 18.2073357,20.2802754 C19.4332736,18.9208328 20.6484287,17.5513574 21.8420178,16.1626525 C22.7452969,15.111718 22.9659326,13.9437344 22.5827233,12.5575377 C22.0966612,10.7934393 21.751607,8.98419344 21.4181651,7.1808 C20.6393047,2.9478 21.4770566,1.54320984 25.4261031,0.320045902 L35.1904752,0.320045902 Z" id="Fill-1" fill="#05BCB0"></path>
                    <path d="M17.1555021,37.7146905 C18.4328183,38.4383932 19.5815736,39.2225443 20.6133797,38.2125509 C24.1824004,34.7174534 27.6452545,31.1106941 31.1122558,27.5098117 C31.3187829,27.2948838 31.3718662,26.6123197 31.1960279,26.3906753 C30.5299987,25.5452361 27.7787921,25.4889854 27.0165495,26.3226707 C24.6435613,28.916918 22.3087267,31.5455873 19.9921395,34.1910479 C19.0523997,35.2631688 18.1980907,36.4125295 17.1555021,37.7146905 M40.0037041,46.7500592 C40.065911,46.5258961 40.128118,46.3025725 40.1911544,46.0784094 C39.4529651,45.7308306 38.7421469,45.17588 37.97161,45.0675765 C30.5565403,44.0281984 23.1331763,43.0543063 15.7081535,42.1030823 C15.2950992,42.0493503 14.5942342,42.2323748 14.4640142,42.5127886 C14.3047644,42.8544905 14.4582083,43.589947 14.7451897,43.8460134 C15.2975875,44.3388365 16.0125529,44.8686002 16.7051237,44.9391235 C23.9601142,45.682136 31.2233989,46.3437111 38.4866837,46.99773 C38.9810216,47.0422268 39.4977541,46.8382132 40.0037041,46.7500592 M44.1632762,95.7175258 C44.2735899,94.7108907 43.7867167,94.0828982 42.6081022,93.7739393 C40.0426871,93.103129 37.527867,92.2341821 34.962452,91.5616928 C30.0199016,90.2637296 25.0615921,89.0236962 20.0991355,87.8105288 C18.8259663,87.4990512 18.1599371,88.1110921 18.1400309,89.4401191 C18.1242718,90.5483412 18.5290318,91.3089846 19.7101346,91.6129061 C27.2280532,93.548097 34.7318715,95.5378595 42.2514489,97.4654944 C43.8447765,97.8735216 44.1848413,97.5259428 44.1632762,95.7175258 M45.4414219,86.5528646 C45.4024388,86.5495063 45.3634558,86.5469877 45.3253022,86.5436294 C45.3253022,85.6469769 45.3841915,84.7452871 45.3095431,83.8545116 C45.2199651,82.7891071 44.0081735,82.0469341 42.4994473,81.9596197 C41.39714,81.8966525 41.358157,82.7177444 41.2478433,83.4364096 C40.8115651,86.2791673 40.824836,86.281686 37.9732689,85.5168448 C37.6879463,85.4404446 37.4009648,85.3682423 37.1206188,85.2775696 C31.6422591,83.5111307 26.1697054,81.7262214 20.6797338,79.9967232 C20.1439245,79.8279712 19.1925727,79.7725601 18.975263,80.0689255 C18.5613794,80.63563 18.1980907,81.6414256 18.4328183,82.1980553 C18.7770302,83.0141098 19.5575202,83.7974214 20.3487927,84.2264377 C21.367328,84.7805487 22.5766314,84.979525 23.7079686,85.317029 C30.3077125,87.2874815 36.9132623,89.2352659 43.5038824,91.2393009 C44.5199294,91.5482598 44.9951906,91.3400484 45.0855981,90.2620505 C45.1884469,89.0236962 45.3211551,87.7895397 45.4414219,86.5528646 M47.8268515,64.4186461 C47.6211538,63.7612689 47.5017164,63.2818789 47.3242192,62.825157 C46.4516629,60.577649 46.1762934,60.4172926 43.9832907,61.3844683 C40.1513419,63.0736675 36.3135872,64.7586688 32.558775,66.6149409 C31.1180618,67.3268897 30.3666017,67.2295005 29.5172693,65.7904908 C28.2839127,63.6999809 26.7851396,61.7706669 25.427369,59.7540384 C24.6817149,58.6474954 23.7950584,58.5568227 22.8080413,59.3342573 C21.8824017,60.0621578 21.2852149,60.9042387 22.1411826,62.1207643 C22.7980881,63.053518 23.3728805,64.0433618 24.0107092,64.990388 C25.3850683,67.0322033 26.7760159,69.0631044 28.3162603,71.3299224 C25.6090133,70.8446554 23.1995304,70.3896127 20.7792649,70.0008954 C20.3612341,69.9345699 19.6960344,69.9916602 19.4903367,70.2619992 C18.4585306,71.614534 19.1668605,73.6605471 20.8107831,74.0778095 C27.9645836,75.8921035 35.1217018,77.6963227 42.2937497,79.4358956 C44.7903224,80.04122 45.6612198,79.2822557 45.9755723,76.4781179 C42.5873665,75.5008675 39.2057961,74.4396608 35.7752896,73.5774304 C34.3826831,73.2264934 33.6909417,72.4658501 33.2878406,70.9924184 C38.0802648,68.8255083 42.8660537,66.6619564 47.8268515,64.4186461 M25.5658832,106.191904 C25.4829406,106.408511 25.4008274,106.625118 25.3195436,106.842565 C23.4043987,106.554595 21.4925714,106.249834 19.5732793,105.992088 C19.177643,105.940035 18.6285629,105.907293 18.3722702,106.128097 C17.1480372,107.182588 17.4209185,109.165633 18.8690965,109.817973 C24.3988806,112.305596 29.9353001,114.776428 35.4833316,117.223752 C37.1952672,117.979358 38.9395503,118.66528 40.6879806,119.331892 C41.8077059,119.75923 42.7142687,119.176573 43.3462914,117.892043 C43.9252309,116.712458 42.9456786,116.488295 42.3327327,116.148273 C39.4861422,114.569056 36.6113511,113.038534 33.732413,111.515568 C32.4924209,110.86071 31.2192518,110.269658 29.8498692,109.59465 C30.8393746,108.746692 31.6903658,108.017952 32.7412488,107.118781 C30.9604708,105.448892 29.3215248,103.913332 27.3997444,102.111632 C28.7550267,102.484397 29.7312613,102.817704 30.7332081,103.01584 C33.2870112,103.521257 35.8416437,104.047662 38.4186707,104.400278 C39.6868633,104.574068 40.6506565,103.853723 40.7841941,102.4802 C40.9094374,101.199028 40.4026581,100.231012 39.0075633,100.000133 C32.648353,98.944803 26.2957782,97.8500139 19.9257854,96.8685656 C18.2694214,96.6133387 17.414283,97.6115782 18.004005,99.2084255 C18.3996413,100.278028 19.3501637,101.222535 20.2426262,101.998291 C21.9446086,103.480958 23.782617,104.802429 25.5658832,106.191904 M69.7303371,25.8919753 C67.9744419,28.8505926 66.3189073,31.6177897 64.6849378,34.3975802 C62.9970556,37.2672039 61.2768258,40.1200363 59.6834982,43.043392 C59.2331198,43.8695212 58.9627269,44.918974 58.9735094,45.8618023 C59.2488789,70.3627467 59.6121675,94.8611723 59.8535306,119.362956 C59.899149,123.987265 59.5101481,128.615772 59.2944973,133.241759 C59.2721028,133.709396 59.062258,134.168636 58.8988611,134.785714 C54.4307424,132.884106 50.1185559,131.071491 45.8237873,129.215219 C33.9182045,124.071221 22.0399926,118.862577 10.1012327,113.796659 C7.9397482,112.879017 7.11695746,111.718742 7.08709812,109.264702 C6.82665831,88.2571759 6.42272778,67.2530082 6.01299127,46.248001 C5.98396135,44.7560989 6.31075525,43.576514 7.31104318,42.4615753 C13.669424,35.3681141 19.9962866,28.2469473 26.3073902,21.1106684 C27.5457234,19.7102787 28.8271868,19.1939479 30.8037093,19.525575 C43.3371677,21.623641 55.8988267,23.5554736 68.4505325,25.5485944 C68.7798147,25.6006472 69.0999732,25.7207046 69.7303371,25.8919753" id="Fill-4" fill="#FFFFFF"></path>
                    <path d="M67.3952349,131.142857 C67.3265183,130.567177 67.2670199,130.288135 67.2636678,130.008256 C66.8882408,102.464421 66.5245459,74.9205862 66.1248167,47.3767515 C66.0980005,45.5131224 66.5111378,43.8832849 67.53183,42.3146186 C71.4134771,36.35 75.2104856,30.3309137 79.0887807,24.3646191 C80.2980244,22.5043419 82.0645426,22.6727724 83.0533905,24.7299709 C83.2218299,25.0802393 82.9251755,25.8260261 82.618465,26.2064612 C80.0558405,29.3823399 77.4312034,32.5071029 74.8501427,35.6678983 C74.4462235,36.1639723 73.9543135,36.7421665 73.893977,37.3220367 C73.8353166,37.8977171 74.1973355,38.5722771 74.5451082,39.0893001 C74.6230429,39.204939 75.5549063,38.979527 75.8523987,38.6745086 C78.0044,36.461449 80.0918748,34.1838663 82.2086797,31.9339364 C82.8908172,31.2090987 83.5997709,30.5077239 84.2969925,29.7971315 C85.102317,28.9742521 85.8473049,28.235169 86.9928601,29.4535668 C88.1886957,30.7255942 88.2892565,31.2895431 87.2878385,32.616876 C85.4291396,35.0796485 83.5947429,37.5616941 81.7670502,40.0487674 C81.4150874,40.5272442 80.9365855,41.0451051 80.8871431,41.5797253 C80.8276447,42.2140631 81.1703894,42.8852713 81.3388288,43.5405581 C81.8382808,43.3645859 82.4760039,43.3268776 82.8162346,42.9900166 C85.362099,40.4660729 87.8283528,37.8608468 90.3784073,35.3410929 C90.7714324,34.9531161 91.5315045,34.5978199 92.0041403,34.7126208 C92.708904,34.8827272 93.3089168,35.4852224 93.952506,35.9033658 C93.587135,36.4589351 93.2963467,37.0848933 92.8438231,37.5566663 C90.5015943,40.0026795 88.1090851,42.4009288 85.7551242,44.8360485 C85.2741083,45.3346363 84.8467249,45.8977472 84.4629178,46.4751036 C83.862905,47.3784274 84.4268835,48.0638809 85.1282952,48.4493437 C85.4634979,48.6336955 86.2420061,48.4459919 86.5638007,48.1485151 C89.7457122,45.2089419 92.8790193,42.216577 96.0123265,39.2250501 C96.6894359,38.5781429 97.2400063,38.3317818 97.9573401,39.2334297 C98.5900352,40.0311702 98.9118298,40.5683043 97.9900224,41.4632485 C94.4150857,44.9315762 90.9390338,48.5012974 87.3925893,51.9997918 C86.5797228,52.8008842 86.3920093,53.5441571 87.2870005,54.5966383 C91.6018971,50.8811116 95.9092517,47.1706126 100.263535,43.4207294 C101.606021,46.0293074 101.014389,48.5465474 99.068537,50.1562738 C95.2338182,53.3279627 91.4753581,56.5935035 87.6749976,59.8070905 C86.6325172,60.6894652 86.47581,61.7679233 86.8612931,63.3592145 C91.5072023,59.9369747 96.0014324,56.6278599 100.757959,53.1251757 C100.62723,54.8396475 100.592871,56.3027304 100.360743,57.7339707 C100.291189,58.1655215 99.7112882,58.560202 99.2956368,58.8811417 C94.8852074,62.290812 90.4580179,65.6795333 86.0433985,69.0858517 C85.6520494,69.3883563 85.0998029,69.7277312 85.0193543,70.1291153 C84.8911393,70.7743466 85.0939369,71.485777 85.1567874,72.1678786 C85.6235571,72.0346426 86.1758036,72.0187213 86.5420125,71.7497352 C89.9459958,69.2358471 93.3089168,66.6649774 96.7078721,64.1435476 C97.5249286,63.5377005 98.4333279,63.0567099 99.5386588,62.3704185 C99.5503909,65.0946353 99.6325155,67.3118846 97.3028568,69.034736 C94.4678801,71.1321567 91.968106,73.6778875 89.1976558,75.8708359 C87.9163435,76.8847708 87.7596363,77.8266409 88.6068611,79.2243627 C91.9421278,76.7205301 94.8692853,73.6669939 98.9151818,71.4329853 C98.7526085,73.6561004 98.693948,75.4803453 98.4358419,77.2769374 C98.3696394,77.7420067 97.7377823,78.206238 97.2659845,78.521312 C93.7471943,80.8717974 90.1848277,83.1552459 86.6777696,85.5216526 C85.0109742,86.6445226 85.0201923,86.9361337 86.3023426,88.8550683 C90.1085691,86.298444 93.9189857,83.7409818 97.9623681,81.0251446 C98.1819259,83.4326115 98.1224274,85.1864675 96.2888687,86.6939624 C93.0591908,89.3486283 90.089295,92.3150164 86.9073834,95.0300156 C85.6897597,96.0707653 85.4676879,97.044478 86.3341868,98.5142646 C90.1638776,95.6073719 93.9742941,92.7155626 97.7847107,89.8237532 C97.94896,89.9008458 98.1132093,89.9787763 98.2791347,90.0567068 C98.2791347,91.5851509 98.3738294,93.1228125 98.2263403,94.6370111 C98.1752218,95.1573859 97.5978352,95.7213349 97.1251994,96.0908764 C93.5527768,98.8771025 89.9233696,101.590426 86.360165,104.389221 C84.73527,105.666276 84.6908557,106.515133 85.8783112,108.496077 C89.5688928,105.518795 93.2577984,102.542351 97.0908411,99.4519449 C97.8584553,102.436768 97.1587197,104.194814 95.0871671,105.596726 C92.2035859,107.548341 89.3694472,109.572021 86.5084922,111.557154 C85.4509277,112.290372 85.2213139,113.243135 85.8364108,114.810964 C89.5831389,112.338974 93.2586364,109.913072 97.3715734,107.19891 C97.2902867,108.923438 97.0916791,110.180382 97.2048101,111.407997 C97.3623553,113.090626 96.070987,113.461006 95.0687309,114.093668 C87.0288944,119.165856 78.9806778,124.227989 70.9198912,129.267497 C69.8464045,129.937867 68.6824132,130.462431 67.3952349,131.142857" id="Fill-6" fill="#FFFFFF"></path>
                    <path d="M27.6516854,7.33309953 C31.657713,7.33309953 35.2722694,7.21264011 38.8749886,7.35584362 C48.8215714,7.75260159 58.7013588,8.82241607 68.4881401,10.6545787 C69.961019,10.9308772 71.447426,11.2914131 72.8205347,11.868439 C73.4851058,12.1472647 74.3044052,12.9820569 74.3576724,13.6231032 C74.5690499,16.1485393 74.5487577,18.6958771 74.5250834,21.2356335 C74.5115552,22.6727229 73.7210031,23.2548031 72.2438967,23.0214656 C67.3374006,22.2447971 62.4334411,21.4394879 57.5091893,20.7891755 C49.6002863,19.7429475 41.6846192,18.7312568 33.7545785,17.8619272 C29.0755247,17.3489217 29.0332492,17.4786472 28.3264026,12.8700212 C28.0566848,11.1094604 27.8918103,9.33373685 27.6516854,7.33309953" id="Fill-8" fill="#FFFFFF"></path>
                    <path d="M7.26071096,115.357143 C12.3307678,117.69355 17.0987293,119.896079 21.8716704,122.088242 C33.9463566,127.636886 46.0094236,133.211442 58.1139873,138.687532 C59.6219745,139.369021 60.2137162,140.19648 60.0983556,141.883358 C59.9639066,143.851814 60.0668182,145.837544 60.0668182,148.142857 C57.3380006,146.951764 54.9785028,145.968832 52.6555221,144.901254 C38.3740458,138.336855 24.109998,131.732725 9.81358295,125.204604 C8.11886104,124.430696 7.06733672,123.529819 7.23000346,121.413664 C7.37690149,119.503079 7.26071096,117.5709 7.26071096,115.357143" id="Fill-10" fill="#FFFFFF"></path>
                    <path d="M98.5842697,123.146761 C98.2352337,123.770094 98.0385349,124.617928 97.5153995,124.985294 C88.0345127,131.644661 78.5151231,138.248753 68.9965706,144.852845 C68.565507,145.152181 68.060786,145.343518 67.3367667,145.714286 C67.3367667,142.136715 67.2898938,138.820212 67.3903358,135.507962 C67.4045651,135.042801 68.0616231,134.457736 68.5571369,134.168605 C73.9843524,131.003471 79.4969436,127.987154 84.8647309,124.723376 C88.5685293,122.469855 92.0814879,119.893187 95.6789851,117.460235 C95.9694299,117.265497 96.2330901,116.977216 96.5511564,116.891327 C97.1412531,116.729754 98.1866868,116.440623 98.297173,116.637913 C98.7675763,117.473841 98.6353277,118.30892 97.7271647,118.979874 C94.712231,121.206182 91.736637,123.486916 88.7618801,125.767649 C87.5323027,126.710726 86.3613165,127.73374 85.1258801,128.667463 C84.3382475,129.262732 84.415253,129.770412 85.2104188,130.392894 C89.4239602,127.799219 93.6751674,125.181733 97.9263746,122.564248 C98.145673,122.758986 98.3649713,122.952023 98.5842697,123.146761" id="Fill-12" fill="#FFFFFF"></path>
                    <path d="M25.7928904,106.683068 C24.0570231,105.268032 22.2670361,103.920582 20.6087134,102.410583 C19.7395681,101.619224 18.8138799,100.656759 18.4293881,99.5676779 C17.854266,97.9396165 18.6870623,96.9232544 20.3001507,97.1833336 C26.5037155,98.1825852 32.6903175,99.298188 38.8833815,100.373581 C40.2428346,100.60885 40.7355657,101.596124 40.6144023,102.900798 C40.4835458,104.30129 39.5449336,105.034474 38.3098749,104.85738 C35.8009852,104.498061 33.3130973,103.961647 30.8252093,103.447478 C29.8494402,103.244718 28.8995193,102.905931 27.5788385,102.526079 C29.4504088,104.361177 31.0465344,105.92593 32.7807862,107.627566 C31.7581673,108.544687 30.928602,109.287282 29.9649493,110.151361 C31.2985542,110.838346 32.5392672,111.44149 33.7468621,112.108799 C36.5497749,113.659863 39.3494566,115.220338 42.1224824,116.828723 C42.7186063,117.176065 43.6733737,117.403634 43.1087523,118.606501 C42.4940501,119.915452 41.6103652,120.50833 40.5198949,120.072868 C38.8171455,119.393582 37.118435,118.69462 35.451227,117.925504 C30.0489559,115.431653 24.6571857,112.912991 19.2718775,110.378074 C17.8615358,109.714188 17.5957841,107.693441 18.787224,106.618904 C19.0376283,106.393045 19.5715549,106.426411 19.9568544,106.480309 C21.8260014,106.742099 23.6886864,107.05351 25.5529869,107.346099 C25.6329547,107.125374 25.7121148,106.904649 25.7928904,106.683068 Z M48.0898876,63.8355397 C43.1230794,66.0612738 38.3306617,68.2078744 33.5332614,70.3578069 C33.9360205,71.8196944 34.6286,72.5743782 36.0237242,72.9225656 C39.4575567,73.7788735 42.8440546,74.8309327 46.2363655,75.8005264 C45.9216321,78.5826941 45.0496795,79.3357119 42.5492515,78.7359632 C35.3693445,77.0091867 28.2035548,75.2191034 21.0410868,73.4190243 C19.394342,73.005864 18.6859843,70.9750483 19.7190406,69.6331105 C19.9249875,69.3657226 20.5909932,69.3082466 21.0095305,69.3740524 C23.4327283,69.7597241 25.8451306,70.2112016 28.5556576,70.6926666 C27.0127167,68.4436089 25.6200838,66.4286198 24.2440595,64.403635 C23.6062884,63.4640287 23.0299693,62.4811072 22.3722678,61.5564946 C21.5160934,60.3486673 22.1140038,59.514017 23.0407649,58.7909866 C24.0281474,58.0204761 24.9167086,58.1096054 25.6624357,59.2074788 C27.0226818,61.2091401 28.5232708,63.1233381 29.7581218,65.197469 C30.6076528,66.6252041 31.3600233,66.7218303 32.8033125,66.0146266 C36.5618435,64.1728983 40.4042481,62.5010988 44.2408396,60.8259673 C46.4373298,59.8655364 46.7130329,60.0254694 47.5866464,62.2553684 C47.7635282,62.7076789 47.8839407,63.1841459 48.0898876,63.8355397 Z M44.4831461,86.4985461 C44.3656902,87.6726299 44.2360838,88.8443224 44.1356388,90.0200003 C44.0481544,91.0434378 43.5840014,91.2411111 42.590892,90.9477895 C36.1551219,89.045184 29.7039611,87.1959822 23.2584706,85.3252595 C22.1535757,85.0048374 20.9725369,84.8159319 19.9769974,84.2898659 C19.2050291,83.8825632 18.4427811,83.1388972 18.1058044,82.3641454 C17.876563,81.8356881 18.2321707,80.8807986 18.6363808,80.3427765 C18.8486113,80.0614109 19.7769175,80.1140175 20.3002035,80.2742285 C25.6626702,81.9161922 31.0065059,83.6107625 36.357632,85.2877972 C36.6314256,85.3738807 36.9108895,85.4424287 37.1895434,85.5149621 C39.9752719,86.2410926 39.9623113,86.2387014 40.3875824,83.5398233 C40.4953178,82.8575315 40.5333897,82.0779973 41.6099332,82.1377776 C43.0833965,82.2206728 44.2668653,82.9252825 44.3551597,83.936764 C44.4280633,84.782455 44.3697404,85.6385079 44.3697404,86.4897784 C44.4070023,86.4929667 44.4450742,86.4953579 44.4831461,86.4985461 Z M43.2659495,95.2748619 C43.2868594,97.0514626 42.9571269,97.3929262 41.4122098,96.9920776 C34.1219058,95.0983566 26.8452737,93.143601 19.5565781,91.2424568 C18.4113611,90.9438823 18.0180948,90.1966213 18.0341793,89.1078967 C18.0526765,87.8022519 18.6984695,87.200979 19.9329557,87.5069766 C24.7454409,88.6988001 29.5522966,89.917017 34.3446763,91.1921445 C36.8321457,91.8536272 39.2705573,92.7064615 41.758831,93.3662946 C42.9016354,93.6689931 43.3737157,94.285937 43.2659495,95.2748619 Z M39.489853,45.8914805 C38.9945861,45.9786772 38.4895761,46.1813055 38.004864,46.1364615 C30.8949412,45.4903761 23.7850183,44.8359862 16.6832146,44.1010433 C16.0052672,44.031286 15.3053981,43.5064454 14.764664,43.0189748 C14.483742,42.7656894 14.33435,42.0382204 14.4894254,41.7002297 C14.6168958,41.4228614 15.3029623,41.2418247 15.7072951,41.2949731 C22.975541,42.2366966 30.242163,43.1991811 37.500666,44.2272708 C38.2549332,44.3343981 38.9507427,44.8833215 39.6741573,45.2271254 C39.61164,45.4488539 39.5507465,45.669752 39.489853,45.8914805 Z M18.0337079,36.7263351 C19.0969617,35.5069637 19.968204,34.4306778 20.9265705,33.4267208 C23.2890749,30.949455 25.6701884,28.4879128 28.0902118,26.0586042 C28.8675629,25.2779234 31.6733012,25.3305978 32.3525318,26.1222851 C32.5318555,26.3298377 32.47772,26.9690053 32.2670993,27.1702684 C28.7313784,30.5422116 25.1998868,33.9196582 21.5601243,37.1925423 C20.5078667,38.1383216 19.3363419,37.4040258 18.0337079,36.7263351 Z" id="Combined-Shape" fill="#05BCB0"></path>
                </g>
                <circle id="Oval-5" stroke="#F67102" stroke-width="2" fill-opacity="0.672299592" fill="#F67102" fill-rule="nonzero" cx="403.5" cy="333.5" r="333.5"></circle>
                <circle id="Oval-5" stroke-opacity="0.77233356" stroke="#F67102" stroke-width="2" fill="#FFFFFF" fill-rule="nonzero" cx="404" cy="333" r="307"></circle>
                <path d="M175.62807,448.566366 C211.409085,464.587328 247.196153,480.614967 282.977168,496.635929 C255.268795,504.157487 199.612093,479.506628 173.517829,452.956611 C174.214897,451.49067 174.92451,450.031857 175.62807,448.566366 Z M327.16569,412.985712 C294.033633,367.551486 245.424089,343.895954 192.532435,325.825431 C208.036132,309.686354 225.072682,306.775022 248.000763,315.32241 C285.910199,329.46981 319.280704,369.489255 327.16569,412.985712 Z M329.333392,489.255646 C346.486574,505.868821 362.277857,522.274962 379.486474,537.177488 C385.105629,542.047195 394.708419,542.41874 401.973787,545.869527 C408.658585,549.042294 419.306417,553.002863 419.957361,557.647077 C421.216294,566.619665 416.255422,573.965975 402.577702,570.508712 C398.950248,569.58774 392.160955,579.178815 387.419084,584.437864 C386.237851,585.738841 388.373253,589.685023 387.231656,591.163951 C383.312359,596.229727 378.610214,600.740658 374.212559,605.46667 C371.404956,599.859517 364.665841,592.277868 366.457692,588.979347 C376.265187,570.912396 363.996472,562.277923 352.242908,552.721797 C345.696668,547.399876 339.462429,541.724146 333.057888,536.243101 C309.384888,515.968013 309.282178,514.834585 329.333392,489.255646 Z M350.547569,585.817864 C346.403685,579.085636 343.403989,571.300153 337.920526,565.80161 C316.47133,544.335357 292.182953,528.992142 260.657078,521.363039 C218.598335,511.19548 181.204046,489.837871 152.570054,457.305062 C127.028025,428.290417 116.586465,395.141473 132.665335,358.918888 C148.070908,324.195178 170.450358,294.372508 214.120312,291.317512 C261.526708,288.008419 296.409498,310.843857 322.501451,346.767103 C347.611398,381.352053 352.785877,420.361882 348.071941,461.477018 C347.14815,469.578719 350.181935,479.562866 354.898676,486.497492 C361.843701,496.708953 370.992229,506.109535 380.987088,513.685345 C389.049135,519.806894 399.345284,524.406355 409.375486,526.672193 C425.891857,530.395053 438.275895,536.747359 440.153006,554.435371 C441.931851,571.29687 433.468226,581.873165 418.031618,589.2004 C412.409014,591.870463 407.327416,597.506428 404.351702,602.975503 C395.237225,619.726408 382.517096,627.848897 368.59551,624.149468 C353.091931,620.033774 344.98882,606.726034 350.547569,585.817864 Z" id="Fill-1" fill="#F5A623"></path>
                <path d="M392.17965,141.156216 C380.699141,138.649985 378.01548,140.216736 374.763378,150.832618 C381.6859,146.98658 386.932191,144.069806 392.17965,141.156216 Z M407.22635,149.55052 C406.052877,156.32301 404.887258,163.096272 403.713785,169.868761 C401.862546,169.610094 400.011307,169.351426 398.158899,169.089575 C399.391858,162.324466 400.624817,155.559358 401.854433,148.795455 C403.646186,149.046741 405.437939,149.298028 407.22635,149.55052 Z M381.41936,187.340617 C382.263019,180.39148 383.108852,173.437954 383.953681,166.492001 C385.720063,166.622646 387.487614,166.756476 389.255166,166.890306 C388.588466,173.836888 387.921766,180.78347 387.256235,187.733236 C385.311724,187.601961 383.363871,187.471892 381.41936,187.340617 Z M404.908568,172.617649 L427.622727,164.42247 C428.114524,165.741271 428.606322,167.060073 429.098119,168.378874 L406.414041,176.5632 C405.912217,175.248017 405.40705,173.934039 404.908568,172.617649 Z M416.021755,191.534779 C408.061798,192.885222 400.097329,194.233688 390.43556,195.866442 C396.294456,185.103226 403.09876,183.708247 415.679419,188.489148 C415.794645,189.503956 415.906529,190.51997 416.021755,191.534779 Z M361.769277,205.581785 C372.802093,199.034145 373.872104,190.258329 364.688562,181.338601 L361.769277,205.581785 Z M413.921742,154.363672 C426.638619,151.938711 432.459376,142.050946 429.477514,129.177506 C423.431195,138.966383 418.677053,146.666619 413.921742,154.363672 Z M401.534234,207.610461 C387.489003,202.582812 379.197002,204.709238 371.511251,215.269885 C382.599022,217.294081 392.449775,217.103804 401.534234,207.610461 Z M391.045388,51.3403762 C389.762997,62.9293151 388.479437,74.5150704 387.197046,86.1040093 C388.092954,86.4513733 388.988861,86.7987373 389.882596,87.1504908 C394.166345,78.0660444 398.44224,68.9808262 401.665878,62.1428545 C401.994405,72.7071164 402.422961,86.3683789 402.846002,100.035237 C403.545788,100.157718 404.250084,100.282177 404.954381,100.406637 C406.452279,88.332534 407.951345,76.2616149 409.445901,64.188718 C410.195837,64.2209972 410.942432,64.2544822 411.692369,64.2867614 C410.684164,77.3955986 410.714449,90.6525351 408.37584,103.570773 C406.122058,116.029363 401.42185,128.133963 399.062052,140.912024 C416.010402,121.518446 427.105105,99.1712578 436.110484,75.7211093 C437.144231,76.1449303 438.173467,76.5667736 439.200529,76.9930063 C430.961255,96.4063174 422.72315,115.822812 415.573808,132.668826 C419.936731,130.077978 427.008305,126.235849 433.636712,121.764031 C436.167009,120.057923 438.257781,117.154764 439.535079,114.386465 C443.450893,105.928708 446.872974,97.2705203 452.464367,89.2321536 C449.168742,98.760487 445.852898,108.285299 442.586514,117.821109 C441.562651,120.826061 439.384054,124.139474 439.933005,126.850971 C442.157174,137.866993 438.096682,146.899732 430.733289,155.245733 C431.413872,156.016903 432.095624,156.791257 432.780718,157.564406 C434.697549,156.032763 437.571947,154.851475 438.379163,152.916174 C444.758304,137.642384 450.817478,122.249686 456.796782,106.835329 C458.30678,102.948324 459.171491,98.839856 460.667588,93.6779505 C463.49716,116.002002 441.912711,168.240534 425.317181,180.966625 C430.906605,188.324016 424.743615,192.609886 419.909157,196.524589 C415.902337,199.765722 412.775775,202.404435 410.954275,207.824356 C406.979013,219.645765 390.130715,227.199173 374.535101,223.711564 C365.434484,221.677069 360.212481,224.350729 353.792339,229.987663 C337.278771,244.483275 319.444344,257.288604 297.586219,263.444339 C296.338066,263.797322 295.015282,263.885194 292.783743,264.250466 C291.627009,259.595017 290.522695,255.144189 290,253.050558 C310.571955,241.247719 329.722731,230.130696 349.018325,219.253459 C355.663438,215.50751 356.713853,211.162587 354.563757,204.183122 C351.030639,192.69475 354.180861,181.863248 363.422022,173.239955 C365.599982,171.203082 369.487642,170.864022 372.141415,169.906551 C379.204536,162.948804 386.318466,155.943881 394.615406,147.769421 C389.592856,150.006974 386.368709,152.637631 383.209684,152.641694 C370.860493,152.6662 366.127533,161.238511 359.837654,169.312565 C352.496232,178.728652 343.376665,186.879032 333.967624,196.684175 C330.949277,191.824276 329.33554,189.22294 328.381095,187.685283 C338.960168,177.180382 348.989342,167.270476 358.949349,157.306207 C362.770323,153.48676 363.603302,150.013475 360.85328,144.606091 C356.279542,135.613144 356.195273,128.054186 365.994004,118.898027 C374.501605,110.94681 378.130699,97.4403863 382.022023,85.8439527 C385.797632,74.5921218 387.156306,62.6439639 389.580504,51 L391.045388,51.3403762 Z" id="Fill-1" fill="#C57D3D"></path>
                <g id="brocoli" transform="translate(446.000000, 99.000000)">
                    <g id="Group-8" transform="translate(83.995611, 85.511318) rotate(-330.000000) translate(-83.995611, -85.511318) translate(24.610365, 21.232130)">
                        <path d="M77.3344197,83.2452546 C76.0848185,82.5298136 74.8375618,81.8167493 73.5879606,81.1036851 C69.6703554,88.4221008 65.7527502,95.7405164 60.2432516,106.034787 C57.1086985,89.6794707 48.3943128,81.8096187 34.5971215,78.7862265 C37.2604366,88.5147991 40.4536013,97.3354034 42.0009499,106.445987 C44.734599,122.530339 44.3172838,122.644429 60.1494729,122.031194 C62.7823099,121.928988 65.3963911,121.301491 67.1570862,121.042411 C70.7019211,107.879246 74.0169982,95.5646272 77.3344197,83.2452546 M75.0602862,21.9906624 C63.92641,0.722334041 52.2064169,0.33965625 36.6414972,20.0439972 C21.0554772,13.053591 15.3654545,16.7734093 14.3456112,33.9511261 C14.174465,36.8390361 11.7831082,39.8267751 9.85126697,42.3153692 C5.59605844,47.7940792 4.29956791,52.6880765 10.8828327,57.3467627 C12.7162063,58.6421626 14.6949368,60.2180345 15.6983689,62.1504385 C22.7317714,75.708166 24.3728987,76.4307377 38.8710858,71.244384 C49.3367887,84.1579768 60.6441555,80.2456312 70.0970485,69.8420244 C80.8417431,81.8096187 86.7849682,81.405549 96.2331723,68.2209918 C97.2459822,66.8067478 98.9316544,65.8940256 100.29379,64.7364847 C104.380197,61.2686158 111.139297,58.2380929 111.791059,54.1973958 C112.445165,50.1543217 106.991934,45.0986965 104.216084,40.4875479 C103.341598,33.5969708 102.305343,25.7936715 97.9657337,21.2086687 C91.3027571,14.170725 82.4641146,15.2712207 75.0602862,21.9906624 M39.0516098,127.990034 C37.7480858,117.7742 36.9509669,109.540686 35.5958647,101.404623 C33.87737,91.0770765 30.5411927,82.6391501 19.7918092,77.1342944 C12.9295528,73.616511 8.05540485,65.1857152 3.53761597,58.1358871 C-1.79370314,49.8168046 2.17782482,42.479374 8.02492678,35.7409172 C9.26046115,34.3147888 8.75405617,31.303281 8.98850292,29.0190986 C10.2943713,16.2362343 16.2516633,11.2043779 28.9610216,11.0926645 C32.2760987,11.061765 36.1468145,9.53818451 38.7773071,7.43226822 C49.643914,-1.26236133 62.5361408,-1.2172006 73.1143782,7.24211777 C76.2583091,9.75448065 80.9753777,11.2946993 85.0195842,11.4087896 C100.439147,11.8461357 108.715117,19.290526 110.328111,34.690336 C110.614136,37.4142412 112.255263,40.2546136 113.952658,42.5126503 C119.75287,50.2184975 118.976852,60.6743956 111.60819,66.7520795 C106.342516,71.0946406 101.421479,76.8680838 95.3282078,78.9858844 C78.5676096,84.8068653 76.6826577,99.553033 75.6323363,113.094122 C74.638282,125.972062 69.7172447,129.359117 58.3278216,128.108878 C52.236895,127.440974 46.0193672,127.990034 39.0516098,127.990034" id="Fill-1" fill="#97B306"></path>
                        <path d="M75.647336,22.2512248 C83.0583336,15.5334996 91.9055347,14.4328956 98.5749633,21.4715313 C102.918775,26.056985 103.956033,33.8610515 104.831366,40.749929 C107.609903,45.363908 113.066069,50.4200303 112.413675,54.4635018 C111.761282,58.5045963 104.995638,61.53304 100.905274,65.0012499 C99.5418192,66.1612817 97.8545148,67.0717165 96.8383774,68.4860996 C87.3833712,81.671953 81.4343911,82.0760625 70.6792922,70.1096687 C61.2172458,80.5142983 49.8965832,84.4246515 39.4207461,71.5121662 C24.9108669,76.6966526 23.2681505,75.976387 16.2279374,62.4149494 C15.2235337,60.4823554 13.2428871,58.9087057 11.4077382,57.6108013 C4.815752,52.9516571 6.11584469,48.0571786 10.3751736,42.580307 C12.3088855,40.0914683 14.7002112,37.1010584 14.8738698,34.2128644 C15.8947007,17.0358359 21.5902331,13.3132748 37.1889986,20.3067453 C52.7713369,0.60046705 64.5026786,0.983182466 75.647336,22.2512248" id="Fill-4" fill="#97B306"></path>
                        <path d="M77.7345016,84.2115796 C74.3643918,96.7687395 70.9966637,109.321054 67.3955287,122.738293 C65.6068697,123.002374 62.9512708,123.641982 60.2766182,123.746161 C44.1929775,124.371233 44.6169207,124.25494 41.8398549,107.86013 C40.2679309,98.573695 37.0240513,89.5828363 34.3184367,79.6664837 C48.3347591,82.7482332 57.1875494,90.7699882 60.3718864,107.440993 C65.9688885,96.9480237 69.9487143,89.4883487 73.9285401,82.0286738 C75.1979879,82.7555015 76.4650539,83.4823292 77.7345016,84.2115796" id="Fill-6" fill="#FFFFFF"></path>
                    </g>
                    <g id="Group-8" transform="translate(102.417619, 118.331946) rotate(-299.000000) translate(-102.417619, -118.331946) translate(43.032373, 54.052758)">
                        <path d="M77.3344197,83.2452546 C76.0848185,82.5298136 74.8375618,81.8167493 73.5879606,81.1036851 C69.6703554,88.4221008 65.7527502,95.7405164 60.2432516,106.034787 C57.1086985,89.6794707 48.3943128,81.8096187 34.5971215,78.7862265 C37.2604366,88.5147991 40.4536013,97.3354034 42.0009499,106.445987 C44.734599,122.530339 44.3172838,122.644429 60.1494729,122.031194 C62.7823099,121.928988 65.3963911,121.301491 67.1570862,121.042411 C70.7019211,107.879246 74.0169982,95.5646272 77.3344197,83.2452546 M75.0602862,21.9906624 C63.92641,0.722334041 52.2064169,0.33965625 36.6414972,20.0439972 C21.0554772,13.053591 15.3654545,16.7734093 14.3456112,33.9511261 C14.174465,36.8390361 11.7831082,39.8267751 9.85126697,42.3153692 C5.59605844,47.7940792 4.29956791,52.6880765 10.8828327,57.3467627 C12.7162063,58.6421626 14.6949368,60.2180345 15.6983689,62.1504385 C22.7317714,75.708166 24.3728987,76.4307377 38.8710858,71.244384 C49.3367887,84.1579768 60.6441555,80.2456312 70.0970485,69.8420244 C80.8417431,81.8096187 86.7849682,81.405549 96.2331723,68.2209918 C97.2459822,66.8067478 98.9316544,65.8940256 100.29379,64.7364847 C104.380197,61.2686158 111.139297,58.2380929 111.791059,54.1973958 C112.445165,50.1543217 106.991934,45.0986965 104.216084,40.4875479 C103.341598,33.5969708 102.305343,25.7936715 97.9657337,21.2086687 C91.3027571,14.170725 82.4641146,15.2712207 75.0602862,21.9906624 M39.0516098,127.990034 C37.7480858,117.7742 36.9509669,109.540686 35.5958647,101.404623 C33.87737,91.0770765 30.5411927,82.6391501 19.7918092,77.1342944 C12.9295528,73.616511 8.05540485,65.1857152 3.53761597,58.1358871 C-1.79370314,49.8168046 2.17782482,42.479374 8.02492678,35.7409172 C9.26046115,34.3147888 8.75405617,31.303281 8.98850292,29.0190986 C10.2943713,16.2362343 16.2516633,11.2043779 28.9610216,11.0926645 C32.2760987,11.061765 36.1468145,9.53818451 38.7773071,7.43226822 C49.643914,-1.26236133 62.5361408,-1.2172006 73.1143782,7.24211777 C76.2583091,9.75448065 80.9753777,11.2946993 85.0195842,11.4087896 C100.439147,11.8461357 108.715117,19.290526 110.328111,34.690336 C110.614136,37.4142412 112.255263,40.2546136 113.952658,42.5126503 C119.75287,50.2184975 118.976852,60.6743956 111.60819,66.7520795 C106.342516,71.0946406 101.421479,76.8680838 95.3282078,78.9858844 C78.5676096,84.8068653 76.6826577,99.553033 75.6323363,113.094122 C74.638282,125.972062 69.7172447,129.359117 58.3278216,128.108878 C52.236895,127.440974 46.0193672,127.990034 39.0516098,127.990034" id="Fill-1" fill="#97B306"></path>
                        <path d="M75.647336,22.2512248 C83.0583336,15.5334996 91.9055347,14.4328956 98.5749633,21.4715313 C102.918775,26.056985 103.956033,33.8610515 104.831366,40.749929 C107.609903,45.363908 113.066069,50.4200303 112.413675,54.4635018 C111.761282,58.5045963 104.995638,61.53304 100.905274,65.0012499 C99.5418192,66.1612817 97.8545148,67.0717165 96.8383774,68.4860996 C87.3833712,81.671953 81.4343911,82.0760625 70.6792922,70.1096687 C61.2172458,80.5142983 49.8965832,84.4246515 39.4207461,71.5121662 C24.9108669,76.6966526 23.2681505,75.976387 16.2279374,62.4149494 C15.2235337,60.4823554 13.2428871,58.9087057 11.4077382,57.6108013 C4.815752,52.9516571 6.11584469,48.0571786 10.3751736,42.580307 C12.3088855,40.0914683 14.7002112,37.1010584 14.8738698,34.2128644 C15.8947007,17.0358359 21.5902331,13.3132748 37.1889986,20.3067453 C52.7713369,0.60046705 64.5026786,0.983182466 75.647336,22.2512248" id="Fill-4" fill="#FFFFFF"></path>
                        <path d="M77.7345016,84.2115796 C74.3643918,96.7687395 70.9966637,109.321054 67.3955287,122.738293 C65.6068697,123.002374 62.9512708,123.641982 60.2766182,123.746161 C44.1929775,124.371233 44.6169207,124.25494 41.8398549,107.86013 C40.2679309,98.573695 37.0240513,89.5828363 34.3184367,79.6664837 C48.3347591,82.7482332 57.1875494,90.7699882 60.3718864,107.440993 C65.9688885,96.9480237 69.9487143,89.4883487 73.9285401,82.0286738 C75.1979879,82.7555015 76.4650539,83.4823292 77.7345016,84.2115796" id="Fill-6" fill="#FFFFFF"></path>
                    </g>
                </g>
                <path d="M298.967531,112.249701 C302.47996,109.174905 301.238591,107.13014 300.051038,105.323335 C296.260558,99.5595796 290.851993,96.2825165 283.518588,96.4915822 C280.955126,96.5646702 278.368342,97.0269945 277.702811,100.198675 C281.968671,101.128423 286.657888,101.201511 290.143408,103.176587 C293.663012,105.170361 295.987887,109.054224 298.967531,112.249701 M213.492467,169.542216 C213.91403,169.712188 214.335594,169.88216 214.758951,170.050432 C216.11154,169.023801 217.561,168.087254 218.804163,166.95014 C222.39014,163.666278 226.566306,162.304801 231.513843,163.083274 C232.65296,163.261745 233.854863,163.455513 234.968866,163.28894 C236.120541,163.115569 237.196872,162.512167 238.309082,162.095736 C237.571795,161.079302 237.08027,159.643037 236.061343,159.114424 C229.69843,155.805066 218.335959,158.618105 214.644142,164.477045 C213.759756,165.882715 213.851244,167.839095 213.492467,169.542216 M268.258003,146.322319 C268.292087,146.74895 268.327964,147.17558 268.362048,147.60221 C268.686741,147.78238 268.998878,147.984647 269.334334,148.139322 C269.795363,148.348388 270.263567,148.647539 270.74971,148.688332 C277.842734,149.31213 282.499661,152.947834 285.540297,158.925755 C286.117928,160.062869 287.890288,160.656071 289.113718,161.499133 C289.404327,159.93029 290.243865,158.239067 289.89047,156.813001 C288.365667,150.615816 281.29417,144.952344 274.568893,144.666791 C272.495161,144.578405 270.364025,145.735915 268.258003,146.322319 M231.39724,118.841221 C231.901322,119.131873 232.407198,119.420826 232.91128,119.711479 C234.172381,118.9721 235.548292,118.363599 236.673058,117.469546 C240.856399,114.14829 245.561761,113.454803 250.729946,114.666705 C251.720171,114.899567 252.769594,115.208916 253.745468,115.103533 C254.995806,114.970955 256.199503,114.45254 257.424727,114.100698 C256.682059,113.055369 256.177977,111.659897 255.153668,111.022502 C249.296631,107.385098 238.479501,108.719379 233.854863,113.742056 C232.611701,115.091635 232.193725,117.122803 231.39724,118.841221 M280.10303,84.0054276 C309.18371,83.5838966 327.258902,107.786232 317.543218,132.061655 C316.303643,135.156848 314.246056,138.246942 311.748967,140.538167 C307.169177,144.741578 305.131323,149.733661 304.73308,155.511014 C304.311517,161.594318 304.501669,167.74731 303.635222,173.767724 C300.752448,193.805741 286.752964,208.154791 264.869353,213.048289 C245.39493,217.401276 227.554737,213.148573 211.707551,201.813129 C201.283281,194.356451 198.610392,183.19098 197.32597,171.736556 C195.871128,158.777879 199.340503,146.725153 206.645206,135.824839 C218.556607,118.05425 232.475365,102.003779 252.355206,91.6269791 C261.482497,86.8643592 271.232265,83.8864471 280.10303,84.0054276" id="Fill-1" fill="#C57D3D"></path>
                <g id="Group-8" transform="translate(530.148802, 503.684898) rotate(94.000000) translate(-530.148802, -503.684898) translate(453.648802, 426.684898)">
                    <path d="M75.9634193,114.591391 C91.7563084,123.371254 102.363693,125.400087 110.129638,118.060041 C124.336837,104.638531 145.659945,95.4810937 140.966892,69.1868145 C139.100504,58.7405902 139.297484,46.0893316 126.390356,44.3373866 C114.783296,42.7717115 100.324948,41.2513454 91.391895,46.8394461 C81.4148469,53.0769747 87.358725,66.6646177 92.4999087,76.7332676 C93.3124521,78.3241143 93.602998,80.1918488 94.3662963,82.6838397 C107.578745,72.2225124 100.295401,61.0815513 95.8239499,50.1621005 C97.1437174,49.5428786 98.4585604,48.9236566 99.7783278,48.3044346 C103.727781,54.0485994 107.677235,59.7927641 111.582368,65.4664484 C115.546594,62.5062653 119.540368,59.5259449 123.529218,56.5506589 C124.445176,57.4719403 125.356209,58.3932218 126.272167,59.3195376 C123.268219,63.7094689 120.264271,68.094366 117.787244,71.7090113 C123.7065,75.9177069 129.207173,79.8243431 134.702921,83.7309792 C122.736372,84.702604 111.749801,75.4897893 101.920488,87.7685079 C107.829894,91.9721692 113.276397,95.8485994 118.732749,99.7300639 C92.7953791,94.5497435 91.5937997,94.9071806 75.9634193,114.591391 M48.9968272,97.6206818 C51.3852124,97.3639312 52.9561297,97.5552355 54.2118786,97.0014598 C76.3278327,87.290247 87.1026507,47.1566085 71.5609114,27.7442516 C50.5135749,1.43990373 33.3812203,3.15157421 14.5252888,32.2298351 C9.27576596,40.3300639 12.422525,54.4563797 12.5653356,65.8087825 C12.8214099,85.4829243 19.2281916,92.7122149 38.9360625,96.9964255 C44.5844703,77.8156474 37.4094658,65.5872722 17.5981802,60.1703385 C18.29746,58.9369289 18.9967398,57.7035193 19.6910951,56.4701097 C26.1274237,57.6380731 32.5637524,58.8060365 39.5860972,60.0797207 C41.610069,44.2618717 27.0877023,42.9227413 19.6812461,33.7753728 C26.2751589,35.0289198 32.8690718,36.2824667 39.3349475,37.5158763 C40.3099996,32.4110708 41.2801271,27.3264026 42.2551792,22.2467687 C43.5306261,22.1913911 44.8060731,22.1410479 46.08152,22.0856703 C47.1008926,27.5277756 48.1153408,32.9698808 48.9869782,37.6568374 C55.4479294,36.4183934 61.8842581,35.1849838 68.3156623,33.9515742 C68.8524334,35.1648465 69.3793555,36.3730845 69.9112021,37.5813225 C60.3330389,43.0838397 46.0175014,44.699858 48.789998,60.1904758 C55.8024938,58.8664484 62.1403324,57.6733133 68.4732464,56.4801783 C46.9334594,73.6824667 46.9334594,73.6824667 48.9968272,97.6206818 M65.2723179,123.758897 C68.3156623,134.768966 70.4331996,142.431208 73.456846,153.375831 C47.1944582,144.731895 62.691877,122.379492 55.2509492,105.640361 C47.1698357,121.533725 43.7423799,139.914046 24.8962974,137.457295 C23.0791548,135.438531 21.2620123,133.414732 19.4399453,131.390933 C28.107075,127.267821 36.7742046,123.139675 45.4413343,119.011528 C43.3484194,116.841734 41.2555046,114.676975 39.1625898,112.507181 C38.5913471,111.736929 38.1678397,110.543794 37.4193148,110.256837 C-4.52269842,94.3685079 -1.64186271,77.0101554 1.8594607,35.2302927 C4.54331619,3.21198611 45.8254457,-10.4713091 69.9949186,10.3405902 C77.00249,16.3717115 82.2569373,24.5172493 88.8606992,32.3456246 C95.9667606,31.857295 104.68806,30.4476841 113.330567,30.8554644 C127.916952,31.5350982 142.670771,33.7250296 148.018784,50.7964255 C153.898643,69.5744575 156.390443,88.6042058 141.395324,104.678805 C134.274489,112.305808 126.262318,119.127318 118.259997,125.82297 C102.147015,139.299858 85.7828832,131.109011 65.2723179,123.758897" id="Fill-1" fill="#97B306"></path>
                    <path d="M51.4598776,95.8583208 C49.343213,72.7129518 49.343213,72.7129518 71.4393726,56.0804121 C64.9428794,57.2340299 58.4413345,58.3876476 51.247706,59.6678226 C48.4035958,44.690262 63.0889035,43.1277671 72.9094189,37.8074961 C72.3688864,36.6392756 71.8233022,35.4710551 71.277718,34.3028346 C64.675139,35.4905254 58.0776117,36.6830839 51.4497742,37.8805099 C50.5505706,33.3487878 49.5099193,28.0869279 48.4642163,22.825068 C47.1558246,22.8786114 45.8524846,22.9272873 44.5440928,22.9808307 C43.5438552,27.8922245 42.5436175,32.8084858 41.5433798,37.7442175 C34.9155423,36.5516591 28.1513087,35.3396303 21.3870751,34.1276015 C28.9848401,42.9720044 43.8823194,44.2667821 41.8060685,59.5607357 C34.5972848,58.3292366 27.9947058,57.1999568 21.3971785,56.0706769 C20.6798363,57.2632354 19.9675459,58.4557938 19.2502037,59.6483523 C39.568163,64.8858743 46.9335495,76.7092395 41.1392434,95.2547402 C20.9172665,91.112425 14.3449977,84.1225722 14.0873607,65.100048 C13.9358096,54.1236427 10.7128215,40.4651978 16.0979395,32.6332527 C35.4358679,4.51807888 53.0158029,2.8679674 74.6067919,28.2962341 C90.5449226,47.0705113 79.4968428,85.8700354 56.8096337,95.2596078 C55.5214488,95.7950422 53.904903,95.610074 51.4598776,95.8583208" id="Fill-4" fill="#FFFFFF"></path>
                    <path d="M76.3613193,116.073822 C91.4449584,96.7579893 92.6045072,96.4072414 117.634604,101.490615 C112.369112,97.68179 107.113124,93.8779048 101.410425,89.7529124 C110.895915,77.7039824 121.498183,86.744385 133.046148,85.7909436 C127.742638,81.9574177 122.434376,78.1238918 116.722172,73.9939593 C119.112553,70.4469599 122.011425,66.1441235 124.910298,61.836347 C124.026379,60.9273666 123.147213,60.0233263 122.263295,59.1192861 C118.413973,62.0388915 114.559899,64.963437 110.734338,67.8682221 C106.965804,62.3007174 103.154501,56.6640511 99.3431966,51.0273848 C98.0695938,51.6350184 96.8007433,52.242652 95.5271405,52.8502857 C99.8421828,63.5653857 106.870759,74.4978506 94.1204747,84.7634006 C93.3838761,82.3180458 93.1034934,80.4852647 92.3193723,78.9241898 C87.3580241,69.0439684 81.6220592,55.7106097 91.2501162,49.5898126 C99.8706963,44.1062898 113.8233,45.5982032 125.024351,47.1345776 C137.479997,48.8537361 137.289907,61.2682342 139.091009,71.5189639 C143.619903,97.3211619 123.042664,106.307223 109.332425,119.477558 C101.838127,126.68024 91.6017826,124.689375 76.3613193,116.073822" id="Fill-6" fill="#FFFFFF"></path>
                </g>
                <g id="Group-8" transform="translate(446.471836, 348.897384) rotate(-8.000000) translate(-446.471836, -348.897384) translate(369.971836, 271.897384)">
                    <path d="M75.9634193,114.591391 C91.7563084,123.371254 102.363693,125.400087 110.129638,118.060041 C124.336837,104.638531 145.659945,95.4810937 140.966892,69.1868145 C139.100504,58.7405902 139.297484,46.0893316 126.390356,44.3373866 C114.783296,42.7717115 100.324948,41.2513454 91.391895,46.8394461 C81.4148469,53.0769747 87.358725,66.6646177 92.4999087,76.7332676 C93.3124521,78.3241143 93.602998,80.1918488 94.3662963,82.6838397 C107.578745,72.2225124 100.295401,61.0815513 95.8239499,50.1621005 C97.1437174,49.5428786 98.4585604,48.9236566 99.7783278,48.3044346 C103.727781,54.0485994 107.677235,59.7927641 111.582368,65.4664484 C115.546594,62.5062653 119.540368,59.5259449 123.529218,56.5506589 C124.445176,57.4719403 125.356209,58.3932218 126.272167,59.3195376 C123.268219,63.7094689 120.264271,68.094366 117.787244,71.7090113 C123.7065,75.9177069 129.207173,79.8243431 134.702921,83.7309792 C122.736372,84.702604 111.749801,75.4897893 101.920488,87.7685079 C107.829894,91.9721692 113.276397,95.8485994 118.732749,99.7300639 C92.7953791,94.5497435 91.5937997,94.9071806 75.9634193,114.591391 M48.9968272,97.6206818 C51.3852124,97.3639312 52.9561297,97.5552355 54.2118786,97.0014598 C76.3278327,87.290247 87.1026507,47.1566085 71.5609114,27.7442516 C50.5135749,1.43990373 33.3812203,3.15157421 14.5252888,32.2298351 C9.27576596,40.3300639 12.422525,54.4563797 12.5653356,65.8087825 C12.8214099,85.4829243 19.2281916,92.7122149 38.9360625,96.9964255 C44.5844703,77.8156474 37.4094658,65.5872722 17.5981802,60.1703385 C18.29746,58.9369289 18.9967398,57.7035193 19.6910951,56.4701097 C26.1274237,57.6380731 32.5637524,58.8060365 39.5860972,60.0797207 C41.610069,44.2618717 27.0877023,42.9227413 19.6812461,33.7753728 C26.2751589,35.0289198 32.8690718,36.2824667 39.3349475,37.5158763 C40.3099996,32.4110708 41.2801271,27.3264026 42.2551792,22.2467687 C43.5306261,22.1913911 44.8060731,22.1410479 46.08152,22.0856703 C47.1008926,27.5277756 48.1153408,32.9698808 48.9869782,37.6568374 C55.4479294,36.4183934 61.8842581,35.1849838 68.3156623,33.9515742 C68.8524334,35.1648465 69.3793555,36.3730845 69.9112021,37.5813225 C60.3330389,43.0838397 46.0175014,44.699858 48.789998,60.1904758 C55.8024938,58.8664484 62.1403324,57.6733133 68.4732464,56.4801783 C46.9334594,73.6824667 46.9334594,73.6824667 48.9968272,97.6206818 M65.2723179,123.758897 C68.3156623,134.768966 70.4331996,142.431208 73.456846,153.375831 C47.1944582,144.731895 62.691877,122.379492 55.2509492,105.640361 C47.1698357,121.533725 43.7423799,139.914046 24.8962974,137.457295 C23.0791548,135.438531 21.2620123,133.414732 19.4399453,131.390933 C28.107075,127.267821 36.7742046,123.139675 45.4413343,119.011528 C43.3484194,116.841734 41.2555046,114.676975 39.1625898,112.507181 C38.5913471,111.736929 38.1678397,110.543794 37.4193148,110.256837 C-4.52269842,94.3685079 -1.64186271,77.0101554 1.8594607,35.2302927 C4.54331619,3.21198611 45.8254457,-10.4713091 69.9949186,10.3405902 C77.00249,16.3717115 82.2569373,24.5172493 88.8606992,32.3456246 C95.9667606,31.857295 104.68806,30.4476841 113.330567,30.8554644 C127.916952,31.5350982 142.670771,33.7250296 148.018784,50.7964255 C153.898643,69.5744575 156.390443,88.6042058 141.395324,104.678805 C134.274489,112.305808 126.262318,119.127318 118.259997,125.82297 C102.147015,139.299858 85.7828832,131.109011 65.2723179,123.758897" id="Fill-1" fill="#97B306"></path>
                    <path d="M51.4598776,95.8583208 C49.343213,72.7129518 49.343213,72.7129518 71.4393726,56.0804121 C64.9428794,57.2340299 58.4413345,58.3876476 51.247706,59.6678226 C48.4035958,44.690262 63.0889035,43.1277671 72.9094189,37.8074961 C72.3688864,36.6392756 71.8233022,35.4710551 71.277718,34.3028346 C64.675139,35.4905254 58.0776117,36.6830839 51.4497742,37.8805099 C50.5505706,33.3487878 49.5099193,28.0869279 48.4642163,22.825068 C47.1558246,22.8786114 45.8524846,22.9272873 44.5440928,22.9808307 C43.5438552,27.8922245 42.5436175,32.8084858 41.5433798,37.7442175 C34.9155423,36.5516591 28.1513087,35.3396303 21.3870751,34.1276015 C28.9848401,42.9720044 43.8823194,44.2667821 41.8060685,59.5607357 C34.5972848,58.3292366 27.9947058,57.1999568 21.3971785,56.0706769 C20.6798363,57.2632354 19.9675459,58.4557938 19.2502037,59.6483523 C39.568163,64.8858743 46.9335495,76.7092395 41.1392434,95.2547402 C20.9172665,91.112425 14.3449977,84.1225722 14.0873607,65.100048 C13.9358096,54.1236427 10.7128215,40.4651978 16.0979395,32.6332527 C35.4358679,4.51807888 53.0158029,2.8679674 74.6067919,28.2962341 C90.5449226,47.0705113 79.4968428,85.8700354 56.8096337,95.2596078 C55.5214488,95.7950422 53.904903,95.610074 51.4598776,95.8583208" id="Fill-4" fill="#FFFFFF"></path>
                    <path d="M76.3613193,116.073822 C91.4449584,96.7579893 92.6045072,96.4072414 117.634604,101.490615 C112.369112,97.68179 107.113124,93.8779048 101.410425,89.7529124 C110.895915,77.7039824 121.498183,86.744385 133.046148,85.7909436 C127.742638,81.9574177 122.434376,78.1238918 116.722172,73.9939593 C119.112553,70.4469599 122.011425,66.1441235 124.910298,61.836347 C124.026379,60.9273666 123.147213,60.0233263 122.263295,59.1192861 C118.413973,62.0388915 114.559899,64.963437 110.734338,67.8682221 C106.965804,62.3007174 103.154501,56.6640511 99.3431966,51.0273848 C98.0695938,51.6350184 96.8007433,52.242652 95.5271405,52.8502857 C99.8421828,63.5653857 106.870759,74.4978506 94.1204747,84.7634006 C93.3838761,82.3180458 93.1034934,80.4852647 92.3193723,78.9241898 C87.3580241,69.0439684 81.6220592,55.7106097 91.2501162,49.5898126 C99.8706963,44.1062898 113.8233,45.5982032 125.024351,47.1345776 C137.479997,48.8537361 137.289907,61.2682342 139.091009,71.5189639 C143.619903,97.3211619 123.042664,106.307223 109.332425,119.477558 C101.838127,126.68024 91.6017826,124.689375 76.3613193,116.073822" id="Fill-6" fill="#FFFFFF"></path>
                </g>
                <g id="Group-16" transform="translate(555.000000, 276.000000)">
                    <path d="M20.7532571,70.3105874 C26.0138191,80.5333931 30.2697248,88.8139173 36.0250422,100.013029 C39.4782326,87.692973 41.8459903,79.2419826 44.7488916,68.8797046 C36.7823207,69.3549436 30.6382671,69.7217042 20.7532571,70.3105874 M77.3775021,39.2960724 C93.3661776,37.7980362 105.053511,36.7029201 120.567625,35.2513747 C113.620856,28.0608009 106.770009,18.2254184 104.583998,19.2068904 C95.9459734,23.1121158 88.7619237,30.4008367 77.3775021,39.2960724 M7.51097867,43.7488559 C16.8103599,62.133376 38.9885257,66.896098 55.148851,53.0211834 C40.2405597,50.1180926 25.3272198,47.2150017 7.51097867,43.7488559 M138.252604,42.607249 C135.152811,41.6361083 131.861173,39.5026981 128.847204,39.8591274 C117.063949,41.2486851 105.316034,43.1651383 93.6488949,45.4225239 C87.7875586,46.5589652 81.8101062,48.1396516 76.4536222,50.7586322 C56.9360285,60.3047387 47.2176198,77.2790386 45.2587925,98.5821465 C44.945784,101.939814 50.8979938,107.782155 55.0882687,109.378338 C75.8932361,117.31793 95.1634521,113.242239 110.773488,97.1925888 C116.735795,91.0661373 119.906268,82.0985827 124.348969,74.4224385 C96.2236422,82.3258709 69.446271,79.1076759 68.098315,67.7897541 C77.8015782,67.7897541 87.8935776,65.9766137 97.0667457,68.1720116 C114.999103,72.4646602 133.27476,62.5259648 138.252604,42.607249 M76.1456623,31.5011185 C67.7954036,23.6183487 51.8774075,34.2130806 46.2281091,18.9021175 C46.1119931,18.5973446 39.2005637,19.4961663 37.3023187,21.5830857 C33.0060248,26.3199795 29.8506973,32.1519894 26.7155639,36.8217298 C37.5850361,40.788943 47.1216979,45.3037141 57.1379695,47.4319587 C61.3686326,48.3307804 67.3107453,45.117751 71.1779147,42.0596909 C73.8536324,39.9469433 74.292854,34.8897797 75.6408099,31.0568733 C78.9576901,25.9170594 82.2796189,20.7824112 85.5964992,15.6425973 C77.2714831,14.4751622 68.9515156,13.3077271 59.5915521,12.0008197 C66.81599,20.5086322 71.4808261,26.0048753 76.1456623,31.5011185 M73.4295564,123.976443 C42.94152,123.966112 19.0216134,104.667273 12.0496017,74.401776 C11.1358189,70.403569 11.6608654,65.3567367 9.43446631,62.5104679 C0.51372442,51.1202271 -5.73634828,41.0988815 14.4880388,35.736945 C15.2857056,35.5251537 16.2297796,34.4145406 16.4418176,33.5570441 C22.6262595,8.431361 44.8902503,7.84764344 63.2769746,1.35443135 C64.7057069,0.848198429 66.3262831,-0.252083333 67.5884141,0.0681864754 C88.09047,5.2028347 112.141638,1.51456626 125.540421,24.5429986 C127.453812,27.8231814 130.523314,31.8368852 133.739224,32.6375598 C148.980718,36.4239754 146.113156,46.0475666 142.119774,56.5028262 C139.433959,63.5280994 136.344262,70.4655567 134.410678,77.7129525 C126.974202,105.45245 102.79682,123.986774 73.4295564,123.976443" id="Fill-1" fill="#97B306"></path>
                    <path d="M138.823177,42.6484955 C133.8299,62.6435443 115.497585,72.6281018 97.5096344,68.3178851 C88.3029637,66.1135022 78.1796772,67.9340631 68.4513964,67.9340631 C69.798467,79.2983049 96.6639171,82.5296708 124.871374,74.5938926 C120.414899,82.3014523 117.234597,91.3057078 111.25887,97.4572325 C95.6004403,113.567381 76.2654189,117.664939 55.3959524,109.692854 C51.1926869,108.090138 45.2270884,102.223886 45.536003,98.8472904 C47.5059672,77.4621837 57.2545047,60.4132276 76.8326065,50.8332392 C82.2006324,48.2035402 88.2016801,46.6163846 94.0811877,45.4752923 C105.784497,43.2034813 117.568833,41.2843715 129.388618,39.8891269 C132.406867,39.5312388 135.713773,41.6733803 138.823177,42.6484955" id="Fill-4" fill="#FFFFFF"></path>
                    <path d="M75.2683784,30.3462683 C73.8428359,34.1875106 73.4042075,39.3816766 70.7674524,41.5516602 C66.9444068,44.6978711 61.0777514,47.9979439 56.9008124,47.0694668 C47.0117348,44.8835665 37.5961765,40.2464867 26.864733,36.1717987 C29.9600541,31.3755515 33.0753129,25.3855479 37.3220338,20.520328 C39.1961735,18.3768724 46.0198364,17.4537009 46.1294935,17.7720359 C51.7070529,33.4977848 67.427895,22.6107279 75.6671315,30.707048 L75.2683784,30.3462683 Z" id="Fill-6" fill="#FFFFFF"></path>
                    <path d="M8.20499233,42.8010343 C25.9180646,46.3495602 40.7450454,49.3216488 55.5720262,52.2937375 C39.5002616,66.4984176 17.4505234,61.6224998 8.20499233,42.8010343" id="Fill-8" fill="#FFFFFF"></path>
                    <path d="M77.1024962,39.8492389 C88.45154,30.731012 95.6132649,23.259573 104.229479,19.256449 C106.403664,18.2503728 113.233222,28.3376099 120.163436,35.7031462 C104.6925,37.196375 93.041486,38.313649 77.1024962,39.8492389" id="Fill-10" fill="#FFFFFF"></path>
                    <path d="M21.1232743,69.3157686 C31.1753568,68.7295235 37.4232549,68.3644059 45.5244736,67.8912959 C42.5725086,78.2071525 40.1647319,86.6202839 36.6531771,98.8851483 C30.8005856,87.7362065 26.4727482,79.4927777 21.1232743,69.3157686" id="Fill-12" fill="#FFFFFF"></path>
                    <path d="M76.3232186,30.9938525 C71.6876875,25.5860068 67.0521564,20.1832436 59.8781202,11.8071819 C69.1742664,13.0981526 77.4469837,14.241729 85.7146841,15.3903879 C82.4186409,20.4475368 79.1225977,25.4996032 75.8717058,30.6024952 C75.9218739,30.6482383 76.3232186,30.9938525 76.3232186,30.9938525" id="Fill-14" fill="#FFFFFF"></path>
                </g>
                <g id="Group-8" transform="translate(711.000000, 585.000000)">
                    <path d="M68.1987403,4.92904886 C53.217265,4.92904886 39.6731659,4.59830648 26.1502047,5.0019243 C4.50236928,5.65500035 4.48387363,5.86521796 6.15376646,28.8714336 C6.24360246,30.1075132 7.23179854,31.2735202 7.84743941,32.5656578 L68.1987403,32.5656578 L68.1987403,4.92904886 Z M68.4576793,40.5174894 L7.89235741,40.5174894 C7.89235741,60.479754 7.36919478,79.5086523 8.00861577,98.4955072 C9.09721679,130.748495 12.8306955,133.632681 43.0790074,133.974635 C55.1091056,134.109174 61.8362372,129.201293 62.911627,117.101167 C65.1284626,92.1189063 66.5816921,67.0637696 68.4576793,40.5174894 Z M0.581291808,50.6107377 C0.581291808,37.5744428 0.790028412,24.5353449 0.502024743,11.5074587 C0.338206143,4.05454358 2.88532116,0.0295770097 10.2360203,0.0576060248 C28.6127681,0.130481464 47.0132961,-0.360026301 65.3424837,0.637806638 C68.521093,0.808783631 74.1067788,7.26106292 73.9984472,10.6469679 C72.8675704,46.4288087 71.4645433,82.2330726 68.7139762,117.911206 C67.3637938,135.462975 60.8876746,139.950421 44.397483,139.995267 C7.04155758,140.110186 5.28975545,138.459277 2.47577465,98.0246197 C1.37660469,82.2526929 0.80852406,66.4387226 0,50.6443726 L0.581291808,50.6107377 Z" id="Fill-1" fill="#05BCB0"></path>
                    <path d="M69.2258065,40.173913 C67.3466057,66.799525 65.8908867,91.9295371 63.6702537,116.983645 C62.5930217,129.122742 55.8543665,134.04529 43.8063073,133.910348 C13.5035329,133.567372 9.76365865,130.671756 8.67319284,98.325194 C8.03267652,79.2815983 8.55673533,60.1958334 8.55673533,40.173913 L69.2258065,40.173913 Z" id="Fill-4" fill="#FFFFFF"></path>
                    <path d="M68.0322581,3.7808269 L68.0322581,31.6521739 L7.13388857,31.6521739 C6.51266708,30.3490612 5.51551327,29.1731505 5.42486292,27.9265719 C3.73983295,4.72494758 3.75849626,4.51294443 25.6025636,3.85432132 C39.2481069,3.44727528 52.9149797,3.7808269 68.0322581,3.7808269" id="Fill-6" fill="#FFFFFF"></path>
                    <ellipse id="Oval-6" fill="#05BCB0" fill-rule="nonzero" cx="21.483871" cy="80.3478261" rx="3.58064516" ry="3.65217391"></ellipse>
                    <ellipse id="Oval-6" fill="#05BCB0" fill-rule="nonzero" cx="34.6129032" cy="97.3913043" rx="3.58064516" ry="3.65217391"></ellipse>
                    <ellipse id="Oval-6" fill="#05BCB0" fill-rule="nonzero" cx="34.6129032" cy="53.5652174" rx="3.58064516" ry="3.65217391"></ellipse>
                </g>
                <path d="M372,776.436824 C372.150472,774.288176 372.176252,772.542685 372.41613,770.829507 C372.746145,768.473293 373.275631,766.164599 374.064194,763.903425 C375.112563,760.896952 376.582364,758.161342 378.570681,755.76122 C380.488425,753.446444 382.747519,751.518097 385.488929,750.300454 C386.701483,749.761961 387.920619,749.22708 389.170288,748.795982 C389.9956,748.511434 390.873933,748.35633 391.740566,748.248366 C392.870844,748.107707 394.021783,747.941009 395.148222,748.020651 C396.799577,748.13717 398.439231,748.446998 400.079981,748.701893 C402.21804,749.03434 404.195387,749.896347 406.102892,750.890457 C407.155284,751.438834 408.207858,751.837999 409.343804,751.592988 C410.453057,751.353679 411.524646,750.916308 412.603,750.535771 C414.029103,750.032063 415.436375,749.46829 416.869244,748.987011 C418.435581,748.460683 420.050917,748.169293 421.701907,748.170433 C423.193648,748.171194 424.707329,748.050874 426.172925,748.265663 C429.493004,748.752074 432.57485,749.973138 435.329424,752.008119 C438.407614,754.282219 440.794875,757.180917 442.437088,760.707064 C443.191461,762.326723 443.874893,763.998084 444.410231,765.70689 C444.835319,767.06215 444.99475,768.508458 445.255837,769.91751 C445.505405,771.263456 445.79154,772.606361 445.950606,773.964662 C446.052261,774.831991 445.971266,775.72574 445.935247,776.605994 C445.915684,777.084802 445.824999,777.561329 445.756802,778.037476 C445.516375,779.71815 445.306848,781.404717 445.017787,783.076648 C444.796376,784.356447 444.550647,785.643088 444.176021,786.88069 C443.642877,788.642528 443.044645,790.38973 442.360115,792.093594 C441.354347,794.597309 440.073047,796.960175 438.609097,799.205953 C436.03242,803.158827 433.009629,806.708163 429.495929,809.785915 C428.429642,810.719961 427.316184,811.634809 426.107104,812.341521 C425.078299,812.94293 423.910173,813.413374 422.75119,813.614857 C421.245736,813.876405 419.671903,813.990263 418.158039,813.83858 C416.815125,813.703624 415.476599,813.218354 414.203344,812.706852 C412.595138,812.060965 411.039953,811.233363 409.301753,811.07959 C408.545735,811.012682 407.725359,811.1292 407.003532,811.378773 C405.648916,811.847317 404.359389,812.514493 403.016475,813.024473 C400.700519,813.904157 398.275594,814.227861 395.858166,813.834968 C393.642769,813.47477 391.613131,812.517154 389.829952,811.009451 C387.202448,808.787623 384.807142,806.322874 382.588454,803.678691 C380.023113,800.621658 377.772246,797.316382 376.078656,793.650908 C375.232136,791.819121 374.558028,789.895146 373.890502,787.980864 C373.230106,786.087112 372.766622,784.133675 372.580314,782.115611 C372.393093,780.088993 372.167841,778.066177 372,776.436824 Z M425.307112,740.998297 C421.610911,741.050821 418.381924,739.884982 415.404373,737.941794 C414.720101,737.495067 414.060333,736.970937 413.504065,736.374011 C412.82912,735.649739 412.891476,734.748361 413.340952,733.919594 C414.939902,730.969612 417.311812,728.788133 420.153497,727.095768 C421.703074,726.173012 423.352677,725.447634 425.150765,725.274398 C426.909354,725.104848 428.724813,724.853104 430.446099,725.10964 C434.324065,725.687768 437.735549,727.438554 440.714197,730.028427 C441.039327,730.311317 441.076997,730.570986 440.878225,730.888707 C439.353334,733.326907 437.586699,735.55833 435.327798,737.355373 C433.779135,738.587373 432.097348,739.564312 430.211852,740.209154 C428.578158,740.767931 426.919594,741.021334 425.307112,740.998297 Z M412,743.541693 C411.905652,744.791726 411.595437,745.871223 410.544214,746.635101 C409.56998,747.343063 408.629899,746.96744 408.008147,745.96838 C407.647739,745.389341 407.552636,744.616175 407.460742,743.914715 C407.096371,741.130425 406.17799,738.546393 404.698051,736.151844 C403.44266,734.120099 401.755911,732.467136 399.934623,730.939195 C399.08304,730.224731 398.917743,729.300721 399.032281,728.295902 C399.096249,727.73544 400.278992,726.929022 400.890365,727.005001 C402.360114,727.187425 403.495872,727.993286 404.537094,728.96058 C406.232334,730.535335 407.592262,732.374624 408.686507,734.380546 C409.559035,735.980008 410.364576,737.633529 410.994819,739.336464 C411.491843,740.680123 411.676576,742.135801 412,743.541693 Z M377.359896,772.716392 C377.152434,774.195955 377.130138,775.703425 377,777.559075 C377.14516,778.966244 377.339972,780.713221 377.501894,782.463482 C377.663025,784.206355 378.063875,785.893415 378.635028,787.528928 C379.212348,789.182171 379.795361,790.843786 380.527487,792.425784 C381.992213,795.591421 383.938908,798.445977 386.157582,801.086143 C388.076447,803.369755 390.148063,805.498401 392.420499,807.417253 C393.962708,808.71936 395.71807,809.546392 397.634089,809.857473 C399.724838,810.196789 401.822071,809.917226 403.825059,809.1575 C404.986499,808.717062 406.101765,808.140865 407.273325,807.736213 C407.897608,807.520673 408.607122,807.420044 409.260975,807.477827 C410.764284,807.610632 412.109308,808.325379 413.500189,808.883191 C414.601383,809.324942 415.759027,809.744039 416.920466,809.860592 C418.229754,809.99159 419.590907,809.893259 420.892921,809.667377 C421.895285,809.493369 422.905556,809.087076 423.795334,808.567677 C424.841024,807.957335 425.804015,807.167239 426.726209,806.360563 C429.765084,803.702505 432.37939,800.637168 434.607868,797.223323 C435.873987,795.283788 436.982138,793.24313 437.851992,791.080831 C438.444017,789.609312 438.961407,788.100365 439.422504,786.578778 C439.746506,785.50994 439.959028,784.398749 440.150519,783.293469 C440.400517,781.849528 440.58173,780.392948 440.789666,778.941456 C440.848648,778.530238 440.927078,778.118692 440.943998,777.705177 C440.975149,776.944957 441.045199,776.173083 440.95728,775.424027 C440.81971,774.250948 440.572242,773.091167 440.3564,771.928759 C440.130595,770.71185 439.992709,769.462766 439.625064,768.292314 C439.16207,766.816527 438.570993,765.373079 437.918563,763.974283 C436.49827,760.928974 434.433612,758.425553 431.771394,756.461558 C429.38906,754.704074 426.723679,753.649518 423.852259,753.229436 C422.584717,753.043937 421.275587,753.147849 419.985433,753.147192 C418.55755,753.146207 417.160502,753.397863 415.805832,753.852418 C414.566595,754.268068 413.349495,754.754963 412.116108,755.189984 C411.183478,755.51863 410.256698,755.896359 409.297344,756.103035 C408.314904,756.314635 407.40457,755.969902 406.494393,755.496304 C404.844659,754.637754 403.134521,753.893294 401.285389,753.60618 C399.866362,753.386043 398.448283,753.118465 397.020084,753.017835 C396.045866,752.949053 395.05046,753.09302 394.072922,753.214498 C393.323402,753.30774 392.563762,753.441693 391.849979,753.687439 C390.769184,754.059751 389.714796,754.521694 388.666101,754.986755 C386.295152,756.038356 384.341341,757.703747 382.682751,759.702872 C380.963125,761.775704 379.691946,764.138277 378.785249,766.734776 C378.103249,768.687608 377.645314,770.681481 377.359896,772.716392 Z" id="Combined-Shape" fill="#05BCB0"></path>
            </g>
        </g>
    </g>
</svg>