<?xml version="1.0" encoding="UTF-8"?>
<svg width="64px" height="64px" viewBox="0 0 64 64" version="1.1" xmlns="http://www.w3.org/2000/svg" xmlns:xlink="http://www.w3.org/1999/xlink">
    <!-- Generator: Sketch 51 (57462) - http://www.bohemiancoding.com/sketch -->
    <title>healthy-food</title>
    <desc>Created with Sketch.</desc>
    <defs></defs>
    <g id="Page-1" stroke="none" stroke-width="1" fill="none" fill-rule="evenodd">
        <g id="Lesson-1" transform="translate(-55.000000, -4386.000000)">
            <g id="healthy-food" transform="translate(55.000000, 4386.000000)">
                <rect id="Rectangle-3" fill-opacity="0.7" fill="#05BCB0" fill-rule="nonzero" x="0" y="0" width="64" height="64"></rect>
                <path d="M13.6944282,32.5277191 C13.311368,30.3297247 13.8730915,28.7858252 15.0597693,27.4518547 C13.8017732,26.8824681 13.2848993,27.7332334 12.8819877,28.5515885 C12.2415935,29.8524123 12.4349616,31.0810499 13.6944282,32.5277191 M38.3507094,18.6952338 C36.5677518,18.5007731 35.6935512,19.482652 35.1627077,20.8600814 C34.6083366,22.3008579 35.0031606,23.6694482 36.3442388,24.8921931 C35.7045798,22.353156 36.3596788,20.3400466 38.3507094,18.6952338 M16.436139,16.2666857 C14.2039496,16.4559902 12.8253742,17.1203973 12.3070298,18.8462354 C11.9144116,20.1536885 12.1180731,21.4235753 13.666489,22.8105804 C12.7599378,19.7574013 14.2885023,18.1147983 16.436139,16.2666857 M28.7719996,42.6116811 C29.2668163,41.2254126 29.663846,40.099898 30.0689634,38.9788031 C30.2711544,38.4219385 30.2351277,37.9438895 29.5190037,37.9770362 C28.929341,38.0050267 27.8639779,37.6271544 27.9573534,38.6495459 C28.0691099,39.8708175 28.063228,41.1819536 28.7719996,42.6116811 M39.7381077,34.1327558 C39.1793251,31.0736839 39.4065143,30.1175858 40.8880234,28.496344 C41.1688852,28.1891846 41.9460341,27.9740994 41.4740099,27.4106055 C41.1821195,27.0614603 40.580693,27.2411891 40.1049925,27.4599573 C37.5316517,28.6443993 37.2816701,31.7226226 39.7381077,34.1327558 M26.575837,24.5923996 C24.4693738,24.7367719 23.2996066,25.6044788 22.829788,27.3295803 C22.4180535,28.8410697 22.9466912,30.2229187 24.1510147,30.9690877 C23.8723587,27.7693264 23.9914676,27.4363863 26.575837,24.5923996 M30.1366055,11.3300375 C27.0713889,10.8446225 25.0369792,11.7226417 24.1429271,13.5633883 C23.3334276,15.2295624 23.7914823,17.2765551 25.5347369,18.843289 C24.730384,15.0314188 26.4148194,12.7877556 30.1366055,11.3300375 M50.7512711,22.4791135 C50.8718505,24.0679452 51.1041864,25.665616 50.2395439,27.1498515 C50.0020613,27.5579242 50.141757,27.9549479 50.3042451,28.3762793 C52.6356918,34.4413884 48.8800847,39.4465398 42.4357041,38.8800996 C40.4998166,38.7099465 38.7080361,38.1243548 37.2088813,36.8574144 C36.3618845,36.1421823 36.0288207,36.3705262 35.6994331,37.343566 C33.6723758,43.3180741 31.3497519,49.2027178 30.0182318,55.3893648 C29.718989,56.7829993 29.3410755,57.3406005 27.9022104,56.7911019 C27.2404942,56.5384504 26.4927549,56.5104598 25.7832481,56.3800828 C25.0325678,56.2600181 24.9053712,55.7016804 24.8708149,55.0770493 C25.5376778,49.3927589 24.9318399,43.7445616 24.3723221,38.0993107 C24.2789465,37.1446858 20.8784605,35.2973098 19.9424997,35.6516112 C17.3368083,36.6386462 14.9215441,36.2445688 12.6092136,34.8089485 C9.84029886,32.0150501 9.54179133,30.1234786 11.5041475,26.8463751 C11.9210287,26.1502944 11.7695692,25.8107249 11.3210727,25.2825875 C8.80802157,22.3148532 8.38011176,19.9275543 9.82191785,17.2581403 C11.2585773,14.5990385 14.8494906,12.7663944 18.0808714,13.2812731 C19.6910475,13.536871 20.5314271,13.2260286 21.3196046,11.6615045 C22.7952318,8.73280958 25.6619334,7.5247966 28.705828,7.15870973 C34.4568771,6.46631205 39.3873981,7.95423048 42.5276091,13.3107369 C42.6253961,13.9611487 42.818029,14.614507 42.8011185,15.2627091 C42.7592098,16.802189 43.5782674,17.2272033 44.9259628,17.086514 C47.5368008,18.1575207 49.7145824,19.699947 50.7512711,22.4791135" id="brocoli" fill="#FEFEFD"></path>
            </g>
        </g>
    </g>
</svg>