<?xml version="1.0" encoding="UTF-8"?>
<svg width="51px" height="47px" viewBox="0 0 51 47" version="1.1" xmlns="http://www.w3.org/2000/svg" xmlns:xlink="http://www.w3.org/1999/xlink">
    <!-- Generator: Sketch 52.2 (67145) - http://www.bohemiancoding.com/sketch -->
    <title>heart</title>
    <desc>Created with Sketch.</desc>
    <g id="Page-1" stroke="none" stroke-width="1" fill="none" fill-rule="evenodd">
        <g id="Desktop" transform="translate(-558.000000, -1786.000000)" fill="#F67102">
            <path d="M572.882518,1786 C573.043405,1786.0401 573.201663,1786.10104 573.364652,1786.11771 C577.329508,1786.50469 580.565116,1788.23594 583.093034,1791.27969 C583.193982,1791.40104 583.309127,1791.51094 583.439518,1791.64948 C583.57359,1791.4901 583.680848,1791.36406 583.786529,1791.23698 C585.972168,1788.625 588.717755,1786.94115 592.103735,1786.32656 C592.801962,1786.2 593.505972,1786.10781 594.207879,1786 L595.217364,1786 C595.442395,1786.04375 595.665848,1786.11094 595.893508,1786.12708 C598.092292,1786.2849 600.166993,1786.88698 602.012982,1788.06771 C607.025178,1791.27344 609.355405,1795.82865 608.702395,1801.74531 C608.378518,1804.6776 607.050415,1807.26927 605.521993,1809.75312 C605.407374,1809.93958 605.045642,1810.06823 604.798003,1810.06875 C596.662188,1810.0849 588.5269,1810.07812 580.391085,1810.09375 C579.941549,1810.09427 579.779611,1809.94531 579.670776,1809.53385 C579.074023,1807.28073 578.449405,1805.03542 577.83057,1802.78802 C577.697549,1802.3026 577.551384,1801.82031 577.411529,1801.33646 C576.677549,1804.22865 576.094467,1807.11146 575.485621,1810.12396 C574.541333,1804.97865 573.622281,1799.96979 572.70323,1794.96146 C572.64592,1794.96198 572.588085,1794.9625 572.530776,1794.96354 C571.501312,1799.36094 570.471848,1803.75938 569.404003,1808.32135 C568.502302,1806.43021 567.666848,1804.67812 566.768302,1802.79271 C566.65158,1803.14635 566.582178,1803.33906 566.523292,1803.53542 C565.871859,1805.6875 565.211487,1807.83698 564.582663,1809.99531 C564.469096,1810.38437 564.309261,1810.54688 563.893374,1810.51979 C563.37023,1810.48698 562.841828,1810.49062 562.317632,1810.51875 C561.937498,1810.53906 561.689333,1810.42448 561.506889,1810.08177 C560.841261,1808.83177 560.091508,1807.62083 559.492652,1806.34063 C558.286003,1803.76406 557.744456,1801.06979 558.115127,1798.20625 C558.837013,1792.63125 563.019539,1787.8974 568.5349,1786.53229 C569.466044,1786.30208 570.423477,1786.175 571.368292,1786 L572.882518,1786 Z M575.076615,1822.75859 C575.126062,1822.76172 575.176041,1822.76537 575.226021,1822.7685 C575.95391,1819.17276 576.681799,1815.57702 577.412879,1811.9677 C577.499545,1812.00736 577.554309,1812.01571 577.561753,1812.0392 C578.011035,1813.4107 578.010503,1813.41226 579.519451,1813.41122 C587.364067,1813.40496 595.208682,1813.39817 603.052234,1813.39243 C603.298941,1813.39191 603.545647,1813.39191 604.000245,1813.39191 C602.90655,1814.70287 601.96173,1815.90006 600.949384,1817.03984 C596.377346,1822.18765 591.156641,1826.65233 585.722727,1830.8905 C584.876801,1831.55068 584.079792,1832.27087 583.302987,1832.92688 C580.5738,1830.69532 577.765392,1828.47368 575.043118,1826.15498 C570.879421,1822.60881 566.925743,1818.85233 563.535661,1814.56196 C563.382533,1814.36834 563.241103,1814.16586 563.000245,1813.83968 C563.810547,1813.83968 564.498559,1813.81828 565.183381,1813.84803 C565.60023,1813.86578 565.778879,1813.71339 565.887876,1813.32198 C566.184561,1812.25943 566.527504,1811.20889 566.900222,1809.99657 C567.893426,1812.03816 568.82336,1813.94875 569.752761,1815.85935 C569.797955,1815.85726 569.843149,1815.85518 569.887811,1815.85309 L572.013525,1806.94827 C572.061909,1806.94097 572.109761,1806.93418 572.158145,1806.92688 C573.131146,1812.20411 574.103614,1817.48135 575.076615,1822.75859 Z" id="heart"></path>
        </g>
    </g>
</svg>