<?xml version="1.0" encoding="UTF-8"?>
<svg width="49px" height="43px" viewBox="0 0 49 43" version="1.1" xmlns="http://www.w3.org/2000/svg" xmlns:xlink="http://www.w3.org/1999/xlink">
    <!-- Generator: Sketch 52.2 (67145) - http://www.bohemiancoding.com/sketch -->
    <title>Combined Shape</title>
    <desc>Created with Sketch.</desc>
    <g id="Page-1" stroke="none" stroke-width="1" fill="none" fill-rule="evenodd">
        <g id="Lesson-14" transform="translate(-820.000000, -746.000000)" fill="#F67102">
            <path d="M869,758.950208 C868.937828,759.415947 868.889403,759.884126 868.810816,760.346895 C868.400848,762.763009 867.370901,764.85735 865.711537,766.609865 C864.638193,767.74334 863.541457,768.853051 862.429435,770 C858.594451,765.923457 854.762647,761.850097 850.919352,757.764536 C850.858514,757.823735 850.804549,757.8719 850.755304,757.924734 C848.061581,760.815392 845.358523,763.696821 842.683472,766.605834 C842.18476,767.148064 841.643369,767.49042 840.925412,767.535721 C839.147038,767.647965 837.279818,766.102963 837.029692,764.283398 C836.88052,763.198512 837.307415,762.300453 837.996133,761.526626 C838.647608,760.794705 839.328426,760.090685 839.997342,759.375527 C842.413546,756.792107 844.830674,754.20943 847.244826,751.623995 C847.316129,751.547822 847.357988,751.442473 847.415441,751.352084 C847.446835,751.302752 847.473407,751.227215 847.517317,751.212681 C847.830949,751.109136 847.96781,750.817068 848.141913,750.577727 C849.989538,748.037804 852.52824,746.711562 855.48522,746.186836 C858.419322,745.666036 861.174601,746.235426 863.705711,747.877395 C865.956635,749.337736 867.392754,751.458918 868.294252,754.000113 C868.664105,755.042562 868.881093,756.123416 868.957218,757.232915 C868.962348,757.308452 868.985329,757.382715 869,757.457509 L869,758.950208 Z M838,789 L838,786.005932 C838.565304,785.918312 839.085085,786.816609 838.988317,787.695115 C838.914825,788.361873 838.596424,788.841477 838.150263,788.959264 C838.120301,788.967142 838.091624,788.986165 838.062433,789 L838,789 Z M843.025826,752.620421 C842.314912,753.37007 841.610059,754.1131 840.905411,754.856337 C839.328479,756.519545 837.746411,758.177686 836.176772,759.847926 C835.120622,760.971727 834.521466,762.299253 834.637846,763.865976 C834.792951,765.952354 835.847868,767.487226 837.684678,768.428293 C840.003749,769.616418 842.379111,769.163671 844.179969,767.263438 C846.266897,765.061546 848.35362,762.859654 850.440857,760.658175 C850.531146,760.562931 850.626058,760.471926 850.759797,760.337902 C850.82677,760.427045 850.878642,760.515671 850.948593,760.585889 C853.653886,763.301645 856.360617,766.01585 859.067656,768.729849 C859.926381,769.590874 860.800206,770.437215 861.639004,771.317475 C861.951884,771.645815 862.210426,772.035479 862.449144,772.42504 C863.230317,773.699618 863.155949,774.952686 862.38248,776.223645 C861.775414,777.221384 860.831741,777.564615 859.782678,777.724079 C859.34592,777.790471 858.891083,777.756862 858.445799,777.737109 C858.129427,777.723149 857.872323,777.560271 857.644185,777.329865 C854.782144,774.44089 851.914762,771.556982 849.050461,768.670179 C848.975066,768.59417 848.918057,768.499649 848.867315,768.433154 C848.414019,768.890554 847.999858,769.308347 847.569777,769.742272 C847.57255,769.745789 847.598127,769.78643 847.63151,769.819109 C850.321395,772.44262 853.007274,775.070578 855.707637,777.683231 C856.111731,778.074136 856.522501,778.437223 856.7265,778.984903 C857.387698,780.761247 856.134637,782.83718 854.218426,783.097991 C853.853468,783.147629 853.47228,783.135116 853.104857,783.094268 C852.616123,783.039768 852.19467,782.827563 851.841935,782.458478 C848.974552,779.457919 846.099877,776.464393 843.227462,773.468694 C843.169939,773.408611 843.113752,773.347286 843.074,773.304783 C842.648541,773.734882 842.229758,774.158363 841.795157,774.597872 C841.841175,774.647098 841.91883,774.731794 841.998334,774.814732 C844.871263,777.810016 847.747068,780.802509 850.614348,783.803068 C851.045662,784.25447 851.203232,784.850031 851.275751,785.448799 C851.326391,785.865661 851.350017,786.313547 851.25377,786.715414 C850.957222,787.952039 850.064497,788.616061 848.898438,788.900657 C847.892415,789.146162 846.922343,788.911618 845.998905,788.471281 C845.977231,788.46094 845.958331,788.444807 845.980313,788.459389 C846.153291,787.853382 846.36828,787.288018 846.472847,786.702591 C846.977708,783.874734 845.102585,781.13757 842.17388,780.741805 C841.985083,780.716365 841.794233,780.699715 841.603793,780.694131 C841.040691,780.677171 840.797351,780.432287 840.78143,779.855857 C840.752669,778.816856 840.453348,777.863585 839.84885,777.020967 C838.870766,775.657556 837.524642,774.966233 835.867077,774.88102 C835.255389,774.849479 835.04081,774.650924 835.009481,774.029612 C834.885089,771.564014 833.037392,769.325514 830.690483,768.832022 C829.665765,768.61661 828.658817,768.802342 827.667483,769.081146 C827.396204,769.157363 827.132115,769.260053 826.859911,769.332132 C826.77938,769.353332 826.648825,769.344645 826.597774,769.293042 C825.36084,768.0438 824.060631,766.848644 822.916041,765.518015 C820.631688,762.862446 819.688939,759.730655 820.089643,756.239293 C820.538317,752.329724 822.607886,749.487079 825.971603,747.571334 C828.109069,746.354047 830.424135,745.839665 832.869961,746.043391 C835.898611,746.295721 838.47489,747.522729 840.525353,749.810765 C841.31536,750.692266 842.104237,751.574595 842.893113,752.457027 C842.936871,752.505942 842.976007,752.558787 843.025826,752.620421 Z M827,777 L827,774 C827.355594,774.012716 827.633163,774.227049 827.822587,774.663327 C828.052304,775.192371 828.059094,775.749542 827.842061,776.289182 C827.656032,776.751854 827.371737,776.981505 827,777 Z M833,782.997637 L833,780.001056 C833.550265,779.968799 834.008495,780.679809 833.99988,781.538987 C833.991655,782.358718 833.524681,783.045536 833,782.997637 Z" id="Combined-Shape"></path>
        </g>
    </g>
</svg>