<?xml version="1.0" encoding="UTF-8"?>
<svg width="51px" height="48px" viewBox="0 0 51 48" version="1.1" xmlns="http://www.w3.org/2000/svg" xmlns:xlink="http://www.w3.org/1999/xlink">
    <!-- Generator: Sketch 52.2 (67145) - http://www.bohemiancoding.com/sketch -->
    <title>heart</title>
    <desc>Created with Sketch.</desc>
    <g id="Page-1" stroke="none" stroke-width="1" fill="none" fill-rule="evenodd">
        <g id="Lesson-13" transform="translate(-451.000000, -663.000000)" fill="#32C5DD">
            <path d="M465.882518,663.573125 C466.043405,663.613229 466.201663,663.674167 466.364652,663.690833 C470.329508,664.077812 473.565116,665.809062 476.093034,668.852812 C476.193982,668.974167 476.309127,669.084062 476.439518,669.222604 C476.57359,669.063229 476.680848,668.937187 476.786529,668.810104 C478.972168,666.198125 481.717755,664.514271 485.103735,663.899687 C485.801962,663.773125 486.505972,663.680937 487.207879,663.573125 L488.217364,663.573125 C488.442395,663.616875 488.665848,663.684062 488.893508,663.700208 C491.092292,663.858021 493.166993,664.460104 495.012982,665.640833 C500.025178,668.846562 502.355405,673.401771 501.702395,679.318437 C501.378518,682.250729 500.050415,684.842396 498.521993,687.32625 C498.407374,687.512708 498.045642,687.641354 497.798003,687.641875 C489.662188,687.658021 481.5269,687.65125 473.391085,687.666875 C472.941549,687.667396 472.779611,687.518437 472.670776,687.106979 C472.074023,684.853854 471.449405,682.608542 470.83057,680.361146 C470.697549,679.875729 470.551384,679.393437 470.411529,678.909583 C469.677549,681.801771 469.094467,684.684583 468.485621,687.697083 C467.541333,682.551771 466.622281,677.542917 465.70323,672.534583 C465.64592,672.535104 465.588085,672.535625 465.530776,672.536667 C464.501312,676.934062 463.471848,681.3325 462.404003,685.894479 C461.502302,684.003333 460.666848,682.25125 459.768302,680.365833 C459.65158,680.719479 459.582178,680.912187 459.523292,681.108542 C458.871859,683.260625 458.211487,685.410104 457.582663,687.568437 C457.469096,687.9575 457.309261,688.12 456.893374,688.092917 C456.37023,688.060104 455.841828,688.06375 455.317632,688.091875 C454.937498,688.112187 454.689333,687.997604 454.506889,687.654896 C453.841261,686.404896 453.091508,685.193958 452.492652,683.91375 C451.286003,681.337187 450.744456,678.642917 451.115127,675.779375 C451.837013,670.204375 456.019539,665.470521 461.5349,664.105417 C462.466044,663.875208 463.423477,663.748125 464.368292,663.573125 L465.882518,663.573125 Z M468.076615,700.331714 C468.126062,700.334845 468.176041,700.338499 468.226021,700.34163 C468.95391,696.745885 469.681799,693.150141 470.412879,689.540827 C470.499545,689.58049 470.554309,689.58884 470.561753,689.612324 C471.011035,690.983822 471.010503,690.985387 472.519451,690.984344 C480.364067,690.978081 488.208682,690.971297 496.052234,690.965556 C496.298941,690.965034 496.545647,690.965034 497.000245,690.965034 C495.90655,692.275994 494.96173,693.473183 493.949384,694.612967 C489.377346,699.760779 484.156641,704.225452 478.722727,708.463629 C477.876801,709.123806 477.079792,709.843998 476.302987,710.5 C473.5738,708.268446 470.765392,706.046809 468.043118,703.728101 C463.879421,700.181935 459.925743,696.425452 456.535661,692.135086 C456.382533,691.941469 456.241103,691.73898 456.000245,691.412806 C456.810547,691.412806 457.498559,691.391409 458.183381,691.421156 C458.60023,691.4389 458.778879,691.286511 458.887876,690.895102 C459.184561,689.832557 459.527504,688.782015 459.900222,687.569691 C460.893426,689.611281 461.82336,691.521879 462.752761,693.432477 C462.797955,693.430389 462.843149,693.428302 462.887811,693.426214 L465.013525,684.521397 C465.061909,684.514091 465.109761,684.507306 465.158145,684.5 C466.131146,689.777238 467.103614,695.054476 468.076615,700.331714 Z" id="heart"></path>
        </g>
    </g>
</svg>