<?xml version="1.0" encoding="UTF-8"?>
<svg width="104px" height="104px" viewBox="0 0 104 104" version="1.1" xmlns="http://www.w3.org/2000/svg" xmlns:xlink="http://www.w3.org/1999/xlink">
    <!-- Generator: Sketch 52.2 (67145) - http://www.bohemiancoding.com/sketch -->
    <title>Group 3</title>
    <desc>Created with Sketch.</desc>
    <g id="Page-1" stroke="none" stroke-width="1" fill="none" fill-rule="evenodd">
        <g id="Desktop" transform="translate(-72.000000, -2869.000000)">
            <g id="Group-3" transform="translate(72.000000, 2869.000000)">
                <rect id="Rectangle-3" fill-opacity="0.7" fill="#05BCB0" fill-rule="nonzero" x="0" y="0" width="104" height="104"></rect>
                <g id="Group-4" transform="translate(14.000000, 17.000000)">
                    <path d="M38.501108,70 C37.3694363,68.9483485 36.2587556,67.9091557 35.1403414,66.8780242 C31.1723094,63.2206956 27.1022687,59.6769599 23.0267039,56.1390871 C19.6508386,53.2087538 16.2863894,50.2644961 12.9606078,47.2777327 C10.6950549,45.2436848 8.58306754,43.0539046 6.67804393,40.6739477 C4.17790759,37.5501398 2.28871928,34.1126686 1.23696064,30.2417118 C0.764847697,28.5066701 0.449982979,26.7430469 0.258854571,24.9559723 C0.0570465409,23.0677632 -0.0313365379,21.1744242 0.00990889889,19.2770544 C0.178573274,11.5241479 4.59478111,4.74117915 11.6683735,1.67380131 C13.6871903,0.798402233 15.7962316,0.277706508 17.9899732,0.087896244 C23.1522816,-0.358780806 27.8097015,0.981616774 31.9810146,4.016016 C34.5268155,5.86794858 36.5795125,8.17681822 38.2477432,10.8319633 C38.3236053,10.9525185 38.3998357,11.0730737 38.4970571,11.2269739 C38.5559791,11.1371988 38.6023803,11.0708751 38.6450987,11.0019864 C40.0614376,8.71143825 41.7720184,6.67042826 43.8431286,4.93611942 C46.7233121,2.52355035 49.9956956,0.928118128 53.7155185,0.282103657 C55.47471,-0.0234981967 57.2453177,-0.0689354029 59.0240271,0.0886291022 C61.8456569,0.338533736 64.5140894,1.10473695 66.9840282,2.48873959 C71.6454991,5.09954679 74.7006075,8.99248935 76.2079072,14.0891515 C76.7776098,16.0154691 77.0099837,17.9912547 76.9996723,19.9992861 C76.9900975,21.8328972 76.8976635,23.6602791 76.6862806,25.481798 C76.0915362,30.607408 74.3404464,35.2859745 71.2544039,39.455571 C69.3792096,41.9894281 67.2208212,44.266052 64.9442204,46.4382436 C61.9425101,49.3026198 58.789812,51.9988049 55.6444792,54.703418 C49.8760102,59.663402 44.1462089,64.6655254 38.6207934,69.8955677 C38.5854402,69.9292792 38.5471408,69.9604257 38.501108,70" id="Fill-4" fill="#FF1307"></path>
                    <g id="blood-vessel" transform="translate(3.000000, 0.000000)" fill="#A9E7F1">
                        <path d="M31.0037903,49.3191489 C31.0037903,48.7330498 30.9661069,48.1437351 31.0160593,47.562313 C31.0537428,47.1250041 30.9120647,46.8689329 30.5790483,46.5894761 C30.2980292,46.3532825 30.0932533,45.9794068 29.9600467,45.626578 C29.8040548,45.2135316 29.7920779,44.7484524 29.6641295,44.3219593 C29.479802,43.7083821 29.5227436,43.1620383 29.9179815,42.6332336 C30.202506,42.2526346 30.1522615,41.8843129 29.7403727,41.5876093 C29.3299446,41.2917827 29.1932326,40.8825364 29.1719078,40.3718555 C29.1280899,39.3154154 28.8201957,38.3209469 28.2572811,37.4188511 C28.1719822,37.2820459 28.0308884,37.1645337 27.8903788,37.0803459 C26.9076882,36.4904466 26.1963768,35.780112 26.0728102,34.5123254 C25.9986118,33.7531735 25.7985098,32.9022335 25.0246848,32.3629053 C24.5628436,32.7256729 24.3823136,33.1989371 24.3884481,33.7870825 C24.4007171,34.9306336 24.4439509,36.080031 23.8550376,37.1361788 C23.7615593,37.3042621 23.74374,37.5734877 23.8039166,37.7594025 C24.129338,38.7617636 24.3238897,39.8617592 24.8838831,40.7188379 C25.5128168,41.6811513 25.7710505,42.7501611 25.7175926,43.7341062 C25.6395967,45.1658836 26.3631771,46.0992575 27.0622195,47.1247118 C27.1410918,47.24047 27.2427495,47.3404431 27.2614451,47.4895256 C26.458116,46.476641 25.5437814,45.5646064 25.5469948,44.0717344 C25.5496238,42.9524457 25.3731835,41.8495269 24.698095,40.8129645 C24.1381016,39.9529627 23.9371232,38.8570595 23.5903772,37.8611294 C23.5307847,37.6901229 23.538672,37.4954386 23.4904722,37.1160088 C23.1361311,37.4051121 22.8898742,37.6015503 22.6500439,37.8055888 C22.6044732,37.8444672 22.5755534,37.9108236 22.5545208,37.9701643 C21.7833248,40.1271847 20.1597237,41.7410767 18.9713808,43.6317946 C18.6786769,44.0977507 18.4692271,44.6519872 18.3687379,45.1930692 C18.2609458,45.7739067 18.0503275,46.1583059 17.4450555,46.229924 C16.6662645,46.3220044 16.3180578,46.8180694 16.1457072,47.521973 C16.1065632,47.6818714 15.9900074,47.8508317 15.8605984,47.9560664 C15.4025547,48.3278959 14.9237706,48.6740014 14.4,48.9788899 C14.502534,48.8654702 14.5866645,48.7234032 14.7108153,48.6433079 C15.4253401,48.1823212 15.9637166,47.6061608 16.2973173,46.7911761 C16.4208839,46.4895031 16.8739615,46.2272931 17.2256736,46.136382 C17.8858641,45.9656678 18.1914213,45.6502558 18.2182963,44.9486907 C18.2334865,44.5514295 18.3891863,44.106228 18.6199609,43.7805849 C19.4031337,42.6762045 20.2938066,41.6463654 21.0503966,40.5253228 C21.4596562,39.9190537 21.6872175,39.188549 21.9834268,38.5083232 C22.2965791,37.788342 22.6763347,37.1566411 23.4901801,36.8815691 C23.6856082,36.8157974 23.90499,36.5316636 23.936539,36.321194 C24.0469602,35.5883508 24.153876,34.8403071 24.1191138,34.1051253 C24.0896097,33.4766399 24.1395621,32.9209419 24.5310025,32.4213691 C24.8374361,32.0302465 24.8602214,31.6291852 24.6624564,31.1681984 C24.2815323,30.2786724 24.1541681,29.2786498 23.3762534,28.5686075 C23.1007846,28.3172133 22.9068171,28.2786272 22.5992151,28.4347255 C21.9305532,28.7741076 21.2630597,29.1017969 20.9893436,29.883165 C20.9461098,30.0059389 20.8307226,30.1032811 20.6592483,30.3312898 C20.7720065,29.1704918 21.583515,28.7103821 22.2983318,28.1272061 C21.5338546,27.5922627 20.6160146,27.2493728 20.587679,26.1686702 C21.1266398,27.0728122 21.9547991,27.4984284 22.9351527,27.7556689 C23.253271,27.8392721 23.5091679,28.1593612 23.8386789,28.4049089 C23.96838,28.2993819 24.1243719,28.1970703 24.249107,28.0649422 C24.4775446,27.8237792 24.7094876,27.7644385 24.9636318,28.0073554 C25.2878846,28.3166287 25.47192,28.2429643 25.6781565,27.8495032 C25.8359011,27.5478303 26.1274366,27.3160215 26.3593796,27.0535192 C26.445847,27.0596579 26.5323144,27.0660889 26.6187818,27.0722276 C25.7558603,25.1712785 24.893523,23.2700371 24.026804,21.3711343 C23.9929181,21.2974699 23.9266069,21.2252672 23.8567903,21.1834656 C22.6491676,20.4611459 22.4540316,19.206806 22.2492557,17.9971908 C22.0757366,16.9723211 21.8426251,15.8939571 21.9962801,14.8945192 C22.1554853,13.8570798 22.2144935,12.9336448 21.7827406,11.9631464 C21.6845884,11.742738 21.9384404,11.3752933 22.0029988,11.0698202 C22.1005668,10.6056179 22.2542218,10.1335231 22.2372788,9.67019782 C22.2171226,9.12443865 22.0275369,8.58627976 21.9349349,8.04110522 C21.8139974,7.32901665 21.5204171,6.77799573 20.814656,6.45732202 C20.5564222,6.34010219 20.3420063,6.03550601 20.2029574,5.76686505 C19.9193092,5.22022891 19.660199,4.65313047 19.4638946,4.06995448 C19.1320466,3.08367089 18.3789621,2.45664709 17.6343491,1.82845402 C16.9233298,1.22832355 16.1667398,0.68256437 15.5053809,0 C15.8924394,0.274779661 16.2792059,0.549559321 16.7223514,0.863802018 C16.772596,0.626731481 16.8058977,0.470048611 16.8511762,0.258409808 C16.8289751,1.051763 17.4672566,1.30520339 17.8823587,1.73695824 C18.4277461,2.304349 18.991245,2.87261673 19.428256,3.5209798 C19.8039219,4.07784709 19.9756883,4.76859639 20.3095811,5.35966498 C20.5166939,5.72652505 20.8047239,6.09864687 21.1505936,6.32344002 C21.6448601,6.64411373 22.0041673,6.99285004 22.1145885,7.58947269 C22.2343576,8.23754344 22.3850914,8.88064478 22.53787,9.5219922 C22.6929855,10.1726938 22.6193714,10.7602546 22.2834337,11.3638929 C22.1364975,11.6278567 22.1338684,12.0999516 22.2729174,12.3712234 C22.6386512,13.0847736 22.7514094,13.766461 22.4265724,14.5118739 C22.369609,14.6428327 22.3593848,14.8050697 22.3655194,14.9509367 C22.4344596,16.5727214 22.5717558,18.1842748 23.1688485,19.715733 C23.2439232,19.9086634 23.3344803,20.1337488 23.4884274,20.251261 C25.071716,21.4611685 25.623238,23.2659446 26.2825521,25.0145956 C26.5217981,25.649512 26.8048621,26.2686432 27.0809152,26.8895283 C27.2453786,27.2596039 27.5106232,27.2464496 27.8091695,27.0438727 C28.8765748,26.3195067 29.1765817,25.2466968 28.7606033,24.0014187 C28.1369278,22.1349633 27.8608747,20.2062439 27.8699304,18.2354306 C27.871391,17.9694205 27.8208543,17.6765171 27.7037143,17.4414928 C27.3923148,16.8165152 27.0379736,16.2122923 26.6877221,15.6074847 C26.4327016,15.166668 26.4589924,14.7492368 26.6114789,14.2648645 C26.7569545,13.8032932 26.7519884,13.291443 26.7887955,12.8000551 C26.8530618,11.9412225 26.9187888,11.0815129 26.9427426,10.2215111 C26.953551,9.82629605 26.9517983,9.39337193 26.8057384,9.0396662 C26.5036867,8.30799227 26.1008537,7.61811993 25.716132,6.86598369 C26.5813905,7.73563208 27.0125592,8.78564117 27.2582318,10.1253382 C27.5707999,9.79531026 27.8243598,9.62488841 27.9374101,9.38752555 C28.174027,8.88999898 28.4439456,8.36937922 28.5064592,7.83560511 C28.6192174,6.87124543 29.2095913,6.23048265 29.8230426,5.45993032 C29.8230426,5.60228957 29.8431988,5.67098449 29.8198293,5.69320071 C28.8657664,6.59763504 28.7979946,7.89991524 28.3046045,9.01072664 C28.1088843,9.45154337 27.7162755,9.80261823 27.4256164,10.2033873 C27.2602767,10.4316883 27.0017507,10.6722666 26.990066,10.9172298 C26.9582249,11.5924862 27.0680619,12.2738813 27.0555008,12.9511839 C27.0470293,13.4259096 26.9065197,13.8968352 26.8682521,14.3730225 C26.8393322,14.7325746 26.7782792,15.1397747 26.9085646,15.4513865 C27.168259,16.0722716 27.5775186,16.6285542 27.8690541,17.2383312 C28.017743,17.5502354 28.0802566,17.9159262 28.1205691,18.2646625 C28.247349,19.360858 28.3434564,20.4605612 28.4582595,21.5585106 C28.4658546,21.6330519 28.5298288,21.7014545 28.6203859,21.8721687 C29.0585654,21.5126166 29.4584772,21.1770346 29.8665684,20.8513915 C30.8086544,20.0995475 31.7524931,19.3497498 32.7015899,18.6072601 C32.797113,18.5327188 32.9355777,18.4739628 33.0538862,18.4742551 C34.1814682,18.4783475 34.7318216,17.6434851 35.2918151,16.8825793 C35.7437242,16.2690021 36.0857963,15.5741604 36.4708101,14.911766 C36.5447164,14.7846073 36.639071,14.6422481 36.6419922,14.5051506 C36.6574745,13.6746729 36.9788062,13.0409258 37.703263,12.5954319 C37.8408514,12.5106595 37.9430932,12.2060633 37.9100837,12.0318413 C37.6991733,10.9297995 38.4169114,10.2545431 39.062788,9.54567002 C38.9345474,9.74064665 38.8203286,9.94702371 38.6757294,10.128846 C38.2352129,10.6824978 37.9886639,11.2703509 38.0777604,12.0131329 C38.1087251,12.2709581 37.9235212,12.6503879 37.7131951,12.8228559 C37.222434,13.2253789 36.9446282,13.6512874 36.8850358,14.3174819 C36.8423863,14.7974694 36.5537721,15.2771645 36.2969989,15.7112579 C35.8877392,16.4031765 35.4369985,17.0737558 34.9608435,17.7218265 C34.5378542,18.2982792 33.9179762,18.5183952 33.2528197,18.7993136 C32.2298166,19.2307761 31.3663108,20.056869 30.4630768,20.7514184 C29.9442723,21.1504336 29.4964528,21.6418215 28.984367,22.0510678 C28.6928316,22.2840458 28.5818261,22.4910075 28.7267174,22.8602062 C28.9019892,23.3080386 29.0144553,23.7804257 29.1540885,24.2419971 C29.2303318,24.2723982 29.306575,24.3027994 29.3831104,24.3332005 C29.6086267,24.0464358 29.9264529,23.7929954 30.0421323,23.4673523 C30.3786542,22.522578 30.7998908,21.7727803 31.9771331,21.7689801 C32.269837,21.7681032 32.5853262,21.4962467 32.848234,21.2945467 C33.229158,21.0028126 33.5934313,20.8926084 34.0894505,21.0007664 C34.3529424,21.0580608 34.7808977,20.9235942 34.9579223,20.720725 C35.8851101,19.6593154 37.0693633,19.6484996 38.2983108,19.8291527 C38.5083448,19.8601384 38.7224685,20.0986706 38.8670678,20.2918933 C39.155682,20.6774618 39.397265,20.6552456 39.6680599,20.2921856 C39.7825709,20.1390106 39.9178223,20.0013284 40.0349623,19.849615 C40.3679787,19.4172755 40.6939842,19.3447804 41.2379111,19.6061134 C41.8052075,19.8791392 42.4764985,20.010098 43.1115667,20.0480994 C43.8141145,20.089901 44.244991,19.6210217 44.6963159,19.0641544 C45.2685784,18.3573276 46.0812553,17.846939 46.7823425,17.242716 C47.0297679,17.0296156 47.4153659,16.8173922 47.4609366,16.5566438 C47.7031038,15.1710528 48.7743066,14.5823227 49.8195108,13.9734227 C50.5904147,13.5241287 51.3832275,13.1028973 52.2005783,12.7474377 C52.5628067,12.5898779 53.0109183,12.6375258 53.4160883,12.5688309 C53.7158031,12.5179675 54.0464826,12.4939973 54.2979976,12.3463763 C55.0405658,11.9111137 55.1594585,11.9391763 55.3884804,12.7562073 C55.4442752,12.954984 55.51935,13.1482068 55.6388269,13.5007432 C55.9756409,13.2110553 56.2464358,13.0020474 56.4886031,12.7640999 C56.8172377,12.4410876 57.1122786,12.2651117 57.6109269,12.5197214 C57.8387802,12.6360642 58.248332,12.5059824 58.5302275,12.3832085 C59.0493241,12.1569538 59.5392088,11.8605425 60.0331832,11.5796241 C60.3089442,11.4232336 60.572144,11.2446268 60.8344675,11.0663124 C61.4663224,10.6357268 62.0940875,10.1992948 62.7233133,9.76549375 C62.7609968,9.8146033 62.7986802,9.86400518 62.8363636,9.91340705 C62.7896245,9.97391704 62.7551544,10.0551817 62.6941014,10.0917215 C61.5767436,10.758793 60.455004,11.4182642 59.3376463,12.0853356 C59.1191407,12.2157098 58.8985904,12.3516381 58.7078362,12.5176751 C58.294779,12.8783965 57.8925302,13.0868198 57.3205599,12.8061938 C57.1429511,12.7187905 56.8181141,12.8646575 56.5902607,12.9690153 C56.4266737,13.043849 56.3153761,13.2297637 56.1754508,13.3610148 C55.6052332,13.8974198 55.4296692,13.8459717 55.2199273,13.0859429 C54.9993769,12.286451 54.9827261,12.2996053 54.2606063,12.6971589 C53.9836768,12.8497493 53.6307963,12.8725501 53.3082961,12.9304293 C52.9259115,12.9985395 52.4865635,12.9415374 52.1628949,13.1122515 C50.9605303,13.7457064 49.8057812,14.4683184 48.6133487,15.1216509 C47.8596799,15.534405 47.9102166,16.3382817 47.6362084,16.9828446 C47.6169285,17.029031 47.8366025,17.1772366 47.9046663,17.2403775 C46.6511808,17.5420505 45.5960445,18.2725551 44.835657,19.3383494 C44.03262,20.4643614 43.2176061,20.8376525 41.9229317,20.4158365 C41.5633324,20.2986166 41.2180469,20.1252716 40.8514367,20.0469302 C40.6600984,20.0060055 40.4328293,20.1030554 40.2298061,20.1638577 C40.1605737,20.1846123 40.0933862,20.2758158 40.0627136,20.3500647 C39.9160695,20.7049397 39.2736984,20.8861774 39.6394322,21.4149821 C40.0092557,21.9493408 40.3486988,21.4380753 40.6872655,21.3267018 C41.0860088,21.1954507 41.3623541,21.2615147 41.4561245,21.7058393 C41.5043242,21.9341402 41.4952685,22.1785188 41.5694669,22.3957116 C41.630812,22.574903 41.7494126,22.8195739 41.8937198,22.8625447 C42.0502959,22.9090234 42.3511792,22.8134352 42.4414442,22.6798455 C42.7981223,22.1527947 43.2558738,22.0078046 43.8693251,22.0618836 C44.1360304,22.0855614 44.4410033,21.9274169 44.6954396,21.7900271 C45.9629469,21.1045395 47.208253,20.3763734 48.4891978,19.7174869 C48.7675879,19.5742507 49.2075201,19.5380031 49.4888314,19.655223 C49.9287636,19.8382145 50.3006319,19.8458148 50.7060941,19.6449918 C51.2178877,19.3915514 51.5389272,19.5716198 51.6362031,20.1077325 C51.7489613,20.7274483 52.0077793,20.9531184 52.6849127,20.8052051 C53.1388667,20.7058167 53.6614688,20.8204057 54.1294445,20.9361639 C54.3044242,20.9794271 54.4832015,21.2808078 54.5331539,21.4939082 C54.604139,21.7979197 54.5059868,22.141102 54.577264,22.4448212 C54.6318904,22.6775069 54.7925562,22.9937959 54.9838946,23.065414 C55.5190578,23.2665293 55.8216938,23.6272507 55.9887863,24.1388085 C56.1330934,24.5813792 56.400675,24.7184767 56.8686508,24.6231808 C57.1160761,24.5729019 57.5294255,24.5997953 57.6375097,24.753555 C57.8849351,25.1055068 58.1265181,25.5358 57.8788006,26.105237 C57.7949623,25.937446 57.7239772,25.8517966 57.7093712,25.7570854 C57.6027475,25.0642898 57.2717759,24.8026645 56.561633,25.0552279 C56.112645,25.214834 55.9110825,24.8617129 55.7696965,24.5071302 C55.5806951,24.0335738 55.33882,23.6114655 54.7785345,23.534001 C54.6502939,23.5161695 54.5068632,23.607373 54.3520397,23.6535594 C54.3193223,23.1148158 54.3058848,22.4679144 54.2252598,21.8291978 C54.2027666,21.6526373 53.9991592,21.3854579 53.8457963,21.3603185 C53.3693491,21.281977 52.858724,21.2097743 52.3954221,21.3039009 C51.8114749,21.4219977 51.5316243,21.2299443 51.4290903,20.7011396 C51.3122424,20.0957474 51.0481662,19.948711 50.447276,20.1904587 C50.1370449,20.3152788 49.7248641,20.1819814 49.3588381,20.1758427 C49.0640893,20.1708733 48.7120851,20.0779159 48.4830633,20.2030284 C47.4650262,20.761065 46.4820435,21.3831193 45.5122062,21.9665876 C45.5574847,22.415297 45.6036397,22.8689757 45.6497946,23.3226545 C45.0787006,22.516147 45.0804533,22.5988732 43.9774094,22.6248895 C43.2491551,22.641844 42.7484619,22.7593562 42.3488422,23.4290585 C42.0742497,23.8894606 41.3065592,23.6710985 41.1564097,23.1346935 C41.0559205,22.7760184 41.0059681,22.4033119 40.9393648,22.0671453 C40.842381,22.0478523 40.8193036,22.0352825 40.8017764,22.0405443 C40.40537,22.1636105 39.8994187,22.5018233 39.6376795,22.3661874 C39.1606481,22.1194704 38.7905324,21.6216515 38.445247,21.1749884 C37.8983989,20.4675769 37.0494992,20.2796159 36.3539622,20.6947086 C36.4789894,21.4339828 36.5771416,22.1288246 36.7275833,22.8119736 C36.7603007,22.9593022 36.9621554,23.1285548 37.1199,23.1764951 C37.4234123,23.2685755 37.8966462,23.1668486 38.0392006,23.3492555 C38.3821491,23.7877337 38.757815,24.3320313 38.7911167,24.8544049 C38.8714496,26.1186837 38.7440854,27.3952398 38.7461302,28.6665343 C38.7467145,28.9760998 38.8606412,29.3277594 39.0338681,29.5849999 C39.3055394,29.9895691 39.5041808,30.4178161 39.2444864,30.8314472 C38.567353,31.9101035 39.0172173,32.9542662 39.214106,34.0253223 C39.3283248,34.6450381 39.3189769,35.2863855 39.3864566,35.9157479 C39.4968778,36.9467562 39.6297923,37.9751337 39.7419662,39.0055575 C39.782863,39.3806025 39.8044798,39.758863 39.8126592,40.1362465 C39.8424554,41.5335303 39.7860763,42.9381221 39.9222041,44.3245901 C39.9826728,44.9428444 40.412673,45.5286512 40.6922315,46.1211814 C41.1739369,47.141374 41.1342086,48.2103838 41.1073336,49.2802705 C41.0486175,49.2872862 40.9901936,49.2943018 40.9314775,49.3013175 C40.8961311,48.910195 40.8157981,48.5167339 40.8336174,48.1279499 C40.8794802,47.1422509 40.3522042,46.3421744 40.0428495,45.4698951 C39.8404105,44.8989965 39.5678629,44.3202053 39.5295952,43.7317676 C39.4530599,42.5499228 39.5199553,41.3587237 39.5167419,40.1716171 C39.5158656,39.8985914 39.4732161,39.6255656 39.446049,39.3531245 C39.3274484,38.1563714 39.2304647,36.9566951 39.0797309,35.7640344 C38.9763205,34.9458341 38.889561,34.1057099 38.6269454,33.3325267 C38.3713407,32.5803905 38.4020133,31.9177038 38.7481751,31.2456629 C39.0014428,30.7545674 38.9716466,30.3622755 38.5980256,29.9085968 C38.38916,29.6551564 38.2577061,29.1661071 38.3517687,28.8641418 C38.7502199,27.5855394 38.2921763,26.3247684 38.3590717,25.0563972 C38.3955866,24.3624324 37.6588608,23.787149 36.9934122,23.8444435 C36.3139418,23.902615 36.2482149,23.4503978 36.2838535,22.9841493 C36.3425695,22.2171048 36.0583371,21.6231131 35.4758505,21.0639072 C35.2865569,21.2445602 35.1361153,21.4728612 34.925497,21.5693264 C34.603289,21.7172397 34.2416448,21.7824268 33.8934382,21.8674916 C33.5475685,21.9516794 33.1868007,21.9858807 32.8511552,22.0978388 C32.3814267,22.254814 31.9423708,22.5202394 31.4653394,22.6345361 C30.9398161,22.7602331 30.6103051,22.9876572 30.4104953,23.5158772 C30.2545033,23.929216 29.9296663,24.2782446 29.6845779,24.659136 C29.5741566,24.8310194 29.4561403,25.0020259 29.3755152,25.1885253 C29.167526,25.6693897 29.0240953,26.1832861 28.7711196,26.6378419 C28.3843532,27.3338529 28.5342106,27.9790005 29.2630492,28.3353371 C29.4891498,28.4458336 29.7415412,28.5154054 29.9898429,28.564515 C30.3649246,28.6384716 30.7470171,28.6802732 31.1264806,28.732306 C32.7030505,28.9489142 33.1935194,29.5145511 33.1429827,31.1076885 C33.1260398,31.6388317 33.0804691,32.1728981 32.9980914,32.6976103 C32.8450206,33.6686934 33.1038387,34.5058944 33.7260536,35.2483841 C33.9585809,35.5255023 34.1773785,35.8146056 34.4160403,36.086462 C34.7794371,36.5006778 34.8968693,36.9461716 34.9415636,37.5211627 C35.0093353,38.3957805 35.3058368,39.262798 35.5792608,40.1090609 C35.994655,41.3958482 35.9879362,42.6481419 35.5436222,43.9276212 C35.301455,44.6245092 35.1729223,45.3611525 34.8942402,46.0597945 C35.054906,45.3512137 35.1384522,44.6134011 35.3923042,43.9401909 C35.945871,42.4709967 35.7299946,41.0707897 35.2757485,39.6325813 C35.0186832,38.8178888 34.9368896,37.9479481 34.7636627,37.1054853 C34.730361,36.9438331 34.6605444,36.7798422 34.569111,36.6424524 C34.4402862,36.448645 34.2875076,36.2671151 34.1242127,36.1007857 C33.0048101,34.9624963 32.491848,33.6517389 32.8423916,32.0349236 C32.9487231,31.5452897 32.9002313,31.0144388 32.8713114,30.5055117 C32.826325,29.7203435 32.4927243,29.3514372 31.7297077,29.1877387 C31.4183081,29.1207976 31.1001898,29.0827962 30.7844084,29.039533 C29.6895439,28.8884042 28.5751073,28.7746922 28.2245637,27.5343836 C27.6172469,27.6223715 27.104869,27.7515764 26.5919068,27.7542073 C26.1718387,27.7562535 25.9658944,27.9170289 25.8370696,28.2792119 C25.6577081,28.7825848 25.3799023,28.8886965 24.9186453,28.5484375 C24.7930339,28.4557724 24.4553435,28.4791579 24.3440459,28.5852696 C24.2225241,28.7010279 24.1716953,28.999193 24.2269059,29.1745843 C24.4810501,29.9816765 24.7798885,30.7750297 25.0708397,31.5701368 C25.1353981,31.7461127 25.1982039,31.941674 25.3203099,32.0740944 C26.0833265,32.9013565 26.2153646,33.9487348 26.4803171,34.982374 C26.6339721,35.5822121 27.1010714,36.2674074 27.6254263,36.5679111 C28.420576,37.0242207 28.7687827,37.6971386 29.0363643,38.4478132 C29.2402638,39.0204657 29.3419215,39.6466126 29.3807734,40.2560972 C29.4129066,40.7609318 29.5236199,41.1675472 29.9360929,41.4756512 C30.2810862,41.7337687 30.4919966,42.1114446 30.1972479,42.4654426 C29.5522476,43.2400874 29.7912015,44.0574108 29.953328,44.8873038 C30.0917927,45.5950076 30.1665753,46.3278508 30.9418609,46.7052343 C31.0709778,46.7677906 31.1691301,47.020354 31.1752646,47.1890219 C31.2009711,47.8981873 31.1863651,48.608522 31.1863651,49.3185643 C31.1253121,49.3188566 31.0645512,49.3188566 31.0037903,49.3191489" id="Fill-1"></path>
                        <path d="M2.61818182,20.5959764 C3.33503183,22.0100395 4.64160275,22.9109889 5.80614187,24.0326386 C6.14464593,23.7214921 6.47554657,23.4440067 6.77207978,23.1360799 C7.033029,22.865034 7.2897203,22.7470735 7.63795673,22.9794821 C7.7273729,23.0391942 7.86818815,23.1354945 7.93175271,23.1065166 C8.61514769,22.7930283 9.46946746,22.6062818 9.92111034,22.0940462 C10.5816951,21.3444259 10.7447123,21.1275307 11.6966599,21.6066905 C12.1178891,21.8186098 12.3681936,21.8025109 12.6580358,21.4527271 C12.7620505,21.3271562 13.0455058,21.1843157 13.1452626,21.2349538 C14.1297529,21.7343104 15.2939879,21.8484658 15.9871152,22.9557729 C16.438454,23.6770007 17.1300606,24.396765 18.0999523,24.7216688 C18.3599891,24.8088952 18.4767776,25.2933238 18.658043,25.5959819 C18.7121793,25.6858426 18.7620577,25.778045 18.8536029,25.9387407 C19.5817059,25.4821192 20.0865727,25.7824356 20.454578,26.5112738 C20.6212449,25.9615718 20.6212449,25.5629061 20.1978867,25.2722489 C19.7365115,24.9558336 19.6659518,24.5334587 19.7611465,24.0267845 C19.8055505,23.7885217 19.8292731,23.4738627 19.706402,23.2917995 C19.0187491,22.2764021 18.7343813,21.1143589 18.2857798,20.008808 C17.8536017,18.9445287 17.4177739,17.8963481 17.1534792,16.7776255 C16.9311553,15.8356973 16.4956317,14.9713362 15.7942926,14.2597677 C15.1233672,13.579226 14.8599849,12.7333054 14.6817609,11.8466987 C14.5427704,11.156205 14.15895,10.874329 13.4296304,10.9202839 C13.2763455,10.9302359 13.0558465,10.9902406 12.9782916,10.9170641 C12.3049332,10.2813065 11.5348592,10.6047467 10.788508,10.6735327 C10.7076076,10.6808503 10.6227535,10.6504089 10.4931913,10.6305049 C11.2565742,10.2889168 12.1133271,10.3120406 12.8356516,10.6310903 C13.001406,10.7042668 13.2200803,10.6998762 13.4095574,10.6828992 C14.0914317,10.6208456 14.6668582,10.9568721 14.7647902,11.6028745 C14.9521383,12.8378015 15.623672,13.7899744 16.4189892,14.7357078 C16.8599873,15.2599444 17.1428344,15.9709275 17.2982482,16.640639 C17.5692339,17.8105853 18.0963027,18.87545 18.511145,19.9874405 C18.9150385,21.0698676 19.4427155,22.0958024 19.8697233,23.1515933 C20.2015364,23.9726339 20.2155267,24.9049028 20.7562816,25.7180403 C21.0123646,26.1026561 20.8940555,26.718217 20.9454545,27.2292818 C20.875199,27.2591379 20.8049434,27.2889939 20.7346879,27.3191426 C20.4965489,27.0384375 20.2866946,26.7275836 20.0099303,26.48815 C19.8292731,26.3315523 19.4977642,26.1412933 19.3274477,26.2036397 C18.7508047,26.4152662 18.5576779,26.1377808 18.4074345,25.7010633 C18.2702688,25.3035685 17.1668612,24.5235067 16.7596222,24.5521919 C16.645571,24.560095 16.4910696,24.636784 16.4360209,24.7275229 C15.7720906,25.8213655 15.1224548,26.923404 14.472819,28.0251497 C14.3718456,28.1960901 14.2891205,28.3769824 14.1978795,28.5531915 C14.1224536,28.5122126 14.0467236,28.4715265 13.9712977,28.431133 C14.8280506,26.993068 15.6851076,25.555003 16.5661914,24.0768372 C16.0303026,23.4697648 15.4755574,22.82025 14.8910068,22.196786 C14.7754349,22.0738495 14.5500697,22.0299436 14.3657629,21.9875012 C14.1972712,21.9485713 13.9636943,22.025553 13.8487307,21.9397901 C13.3113212,21.5396609 12.8371723,21.3874537 12.3657605,22.0337487 C12.315578,22.102242 12.0056627,22.0182353 11.8256139,21.971695 C11.4658202,21.8783218 11.1163673,21.7035763 10.7541405,21.6798671 C10.5768289,21.6684515 10.2842495,21.8827124 10.2121691,22.0589215 C10.0196506,22.5293001 9.75778898,22.808249 9.19361554,22.7924429 C9.01691217,22.7874669 8.79306762,22.8896213 8.66441783,23.0137287 C8.2888091,23.3755135 7.94361404,23.5092801 7.44695894,23.1753025 C7.33838216,23.1018333 6.93783423,23.2999953 6.76630118,23.4644961 C5.81131219,24.3800808 4.70273421,25.0556464 3.45638234,25.5312938 C3.36179585,25.5672967 3.25534804,25.5743216 3.13643062,25.5324646 C3.91167486,25.1133095 4.68752738,24.6941544 5.57226081,24.2158726 C5.17140874,23.8189632 4.86179766,23.4949375 4.53333011,23.1908159 C3.72219775,22.4397321 2.83624777,21.7422135 2.63278038,20.5825119 L2.61818182,20.5959764 Z" id="Fill-4"></path>
                        <path d="M64.0196372,26.6693724 C63.7711877,26.8253993 63.5355788,27.089707 63.2716012,27.1181272 C62.2455525,27.2283975 61.2090523,27.2525546 60.178823,27.3355416 C59.957249,27.3531621 59.745828,27.4813371 59.5302264,27.55864 C59.6138393,27.7587181 59.6395203,28.0255837 59.7924123,28.1458011 C60.2469077,28.5036112 60.7563486,28.7971917 61.2332403,29.1305605 C61.3673194,29.2246313 61.5261837,29.3525221 61.5658998,29.4926336 C61.8119604,30.3614387 62.1482033,31.2285385 62.2231562,32.1141115 C62.3205054,33.263708 62.2751156,33.3157169 63.532294,33.3160011 C63.6403934,33.3160011 63.7484928,33.3160011 63.859877,33.3859148 L62.3214013,33.3859148 C62.6955686,34.0020644 63.0228531,34.4977124 63.3020601,35.0172334 C63.4552507,35.3022878 63.5890312,35.6211623 63.6218791,35.9352054 C63.6777205,36.4686522 63.6651786,37.0109094 63.6484561,37.5486193 C63.6269556,38.2343983 63.5875382,38.9068199 64.0354639,39.5189907 C64.1686472,39.7014483 64.1510288,39.9839449 64.1334104,40.2340426 C64.1193754,40.1320141 64.1405772,40.0066811 64.0859302,39.9316518 C63.2907127,38.8499795 63.6639842,37.6088701 63.5582737,36.4362532 C63.5072101,35.8698389 63.3546167,35.4028953 62.9935886,34.9078157 C62.5155025,34.252162 62.1634328,33.5075532 62.1034107,32.6307905 C62.0380136,31.6815563 61.7504452,30.7397113 61.4858704,29.8140659 C61.4270428,29.608588 61.0451114,29.4971809 60.8330932,29.3195547 C60.3382845,28.9043358 59.8584067,28.4729174 59.3680773,28.0531513 C59.1533715,27.8695569 58.9529994,27.6018387 58.7006679,27.5393143 C57.7229952,27.2966059 57.5551724,27.1016435 57.6089235,25.9574468 C57.6862653,26.0569175 57.7531556,26.1094948 57.7734615,26.1748612 C58.098357,27.2130506 58.6791675,27.5046417 59.7679257,27.1832094 C59.9509781,27.129211 60.1489612,27.1110221 60.341868,27.0990856 C61.3732917,27.0340034 62.4062086,26.9865417 63.4364379,26.906681 C63.6412892,26.8907657 63.8368835,26.760317 64.036957,26.6827299 L64.0196372,26.6693724 Z" id="Fill-6"></path>
                        <path d="M51.0545455,40.2340426 C49.8985835,38.9503623 49.3410295,37.3923581 49.1188309,35.7079968 C49.057109,35.2391849 49.1000204,34.7508642 49.1364657,34.2748491 C49.1702657,33.8324491 49.0042046,33.5602261 48.6597379,33.288003 C47.8000408,32.6084959 47.1857615,31.8674609 47.309793,30.5570687 C47.401788,29.5810275 47.2427807,28.5626672 46.7619382,27.55121 C46.3942524,26.7777604 46.7119729,25.6576542 46.7548843,24.6930182 C46.7639956,24.486825 46.908895,24.2887354 46.983549,24.0837428 C47.1322693,23.6776592 47.1034657,23.3781238 46.6114545,23.2298568 C46.0568396,23.0626813 45.8331714,22.6241831 45.8181818,22.0638298 C46.2725722,22.4062846 46.7672286,22.6788078 47.1146344,23.0830905 C47.2830469,23.2793792 47.2301425,23.7307832 47.1822346,24.0519284 C47.0746622,24.7758556 46.8868515,25.4871771 46.7710495,26.2102039 C46.6746459,26.8131764 46.9764951,27.3074999 47.1748867,27.8594494 C47.4723272,28.6872235 47.6236927,29.6713683 47.4920194,30.5342583 C47.3056782,31.7561106 48.0181247,32.3668867 48.7202841,32.9872671 C49.1305874,33.3501311 49.3125199,33.6673745 49.2469772,34.2028165 C49.0629873,35.7040951 49.4873985,37.113232 50.0061559,38.4779488 C50.2451076,39.1070332 50.6983222,39.6514792 51.0545455,40.2340426" id="Fill-8"></path>
                        <path d="M20.9138485,29.8510638 C20.9515125,30.3054722 21.0615567,30.756436 20.42651,30.9774685 C19.9748703,31.1347748 19.8962673,31.4175242 19.8065289,31.7952888 C19.5952833,32.6860212 19.3283606,33.5715866 18.9920053,34.4318911 C18.9019394,34.6623964 18.4755182,34.7875525 18.2148182,34.9729901 C17.7445103,35.3076965 17.2997484,35.6722567 16.8094622,35.9819892 C16.5788934,36.1275262 16.2186297,36.3034911 16.0031265,36.2403389 C15.5767052,36.1151829 15.3356561,36.1964195 15.0867466,36.4826136 C14.4366343,37.2289571 13.7478756,37.950614 13.1249468,38.7138938 C12.8983082,38.9917632 12.8213428,39.3617774 12.6651193,39.6855757 C12.5465598,39.9310079 12.4017993,40.1666803 12.2838948,40.4123995 C12.1352041,40.7224192 12.0022341,41.0378929 11.7818182,41.5319149 C11.9059454,41.053968 11.9616225,40.7069182 12.0896799,40.3816846 C12.2255976,40.0360701 12.3965591,39.6933262 12.6110798,39.380149 C13.1963446,38.5281691 13.8012601,37.685662 14.4232063,36.853776 C14.6170937,36.594278 14.8555228,36.3382248 15.1384935,36.1591023 C15.3507216,36.0244734 15.6664437,36.0155747 15.9363139,35.9512743 C16.1976689,35.8889834 16.5278015,35.8950115 16.7079333,35.7534933 C17.264377,35.3163082 17.6917808,34.7990347 18.4804308,34.5550377 C18.8629654,34.436771 19.1223553,33.8161576 19.2775962,33.3792596 C19.4737762,32.8275394 19.5268332,32.2333351 19.6024886,31.6537706 C19.6598033,31.2111315 19.8160267,30.8858979 20.3030378,30.6464938 C20.5657028,30.517319 20.6849173,30.1645281 20.9138485,29.8510638 L20.42651,36.853776" id="Fill-10"></path>
                        <path d="M72,22.4496272 C71.2189365,22.6048292 70.4428439,22.7847774 69.6537026,22.8966735 C69.4679126,22.9227646 69.1777323,22.7600312 69.0413413,22.6115537 C68.7058009,22.2468156 68.3665323,22.1822601 67.9421358,22.466304 C67.4764181,22.7785908 67.014118,22.8428773 66.5275844,22.4897053 C66.4322039,22.4205772 66.2715795,22.3726986 66.14948,22.3839958 C65.1888403,22.4724906 64.2222974,22.5397358 63.273153,22.6898271 C62.5200512,22.8087167 61.9431081,23.1831382 61.5031773,23.7670958 C61.2344343,24.1240334 60.7625029,24.3661163 60.3816024,24.6595745 C60.3275431,24.6194963 60.2728625,24.5796871 60.2181818,24.539878 C60.3377958,24.4110361 60.446225,24.2730489 60.5782664,24.1552352 C60.9830897,23.7958767 61.3428636,23.3700799 61.820698,23.1078235 C62.488672,22.7414715 63.2215792,22.4278397 63.9749917,22.2274489 C64.5646729,22.070902 65.2348217,22.0488456 65.8561929,22.0956483 C66.7559383,22.1631625 67.6438776,22.73394 68.5457978,22.0695571 C68.593022,22.0345896 68.8999794,22.1666592 68.9788935,22.2777484 C69.3194049,22.7570724 69.7913363,22.7659487 70.3387643,22.6414106 C70.876561,22.5192932 71.4211928,22.4211152 71.9627177,22.3124469 C71.9751452,22.3581737 71.9875726,22.4039004 72,22.4496272" id="Fill-12"></path>
                        <path d="M46.8852142,54.5106383 C47.036784,54.0352097 46.8434918,53.7345258 46.4943924,53.4239443 C46.2251524,53.1846942 46.0119768,52.8307678 45.8740972,52.4843499 C45.6120282,51.8229137 45.4669776,51.1082349 45.1765504,50.4638636 C45.0712664,50.2300743 44.6951127,50.0177867 44.4297841,49.9993566 C43.8678351,49.9604486 43.2974113,50.0549882 42.730247,50.0952614 C42.1947005,50.1331455 41.9658791,49.8304139 41.8909091,49.3191489 C42.6657076,50.0471383 43.5480718,49.5768292 44.3544881,49.5932115 C44.9464251,49.605157 45.2899832,49.7297309 45.4497019,50.3584024 C45.6257184,51.0519207 45.8379161,51.7406608 46.100311,52.4024383 C46.2176554,52.6993679 46.4761388,52.9474918 46.7039824,53.1812812 C47.096434,53.5840132 47.3373159,53.9840149 46.8728279,54.4959625 L46.8852142,54.5106383 Z" id="Fill-14"></path>
                        <path d="M62.852034,33.2434644 C62.9937093,33.0728119 63.1368302,32.9045406 63.2773489,32.7315069 C63.6159239,32.3147974 63.9218268,32.3477373 64.1646987,32.8819192 C64.4818779,33.57961 64.8820382,33.5518294 65.3521688,33.2101276 C65.5030963,33.1005925 65.7375833,32.959705 65.8520801,33.0438406 C66.7758607,33.7224819 67.7395416,33.3129159 68.6878985,33.3057723 C68.9226747,33.303788 69.15774,33.336331 69.3818182,33.4335633 C68.6722853,33.5248425 67.9627524,33.6177092 67.2529304,33.7066072 C67.128314,33.722085 66.9846148,33.7776463 66.8802377,33.7169258 C66.1744636,33.3049786 65.4863266,33.1938561 64.7669632,33.6994636 C64.6582491,33.775662 64.3456961,33.5621479 64.2485474,33.3684772 C63.8689155,32.6100659 63.4808987,32.5822852 63.019153,33.2025871 C62.9853244,33.2482267 62.8994519,33.220843 62.8364208,33.2260022 C62.8352643,33.2248116 62.852034,33.2434644 62.852034,33.2434644" id="Fill-16"></path>
                        <path d="M46.242859,51.9148936 C46.1775492,52.4778169 46.1775492,53.0600858 46.033988,53.600175 C45.7233902,54.7678841 46.134511,55.8109571 46.4095947,56.8917699 C46.6557856,57.8596808 46.8532199,58.8418631 47.051858,59.8224596 C47.1292065,60.2030275 47.1502742,60.5962809 47.1000127,61 C47.0485474,60.5848639 47.0295865,60.1614821 46.9389954,59.7558602 C46.6867852,58.6220851 46.534195,57.4369334 46.1020065,56.3818089 C45.5464217,55.0254016 45.952426,53.7609649 46.0986959,52.4568857 C46.1188607,52.2783359 46.2037333,52.1073975 46.2564025,51.9307506 C46.2542958,51.9285306 46.242859,51.9148936 46.242859,51.9148936" id="Fill-18"></path>
                        <path d="M57.6,25.9574468 C57.6807885,25.7852339 57.6929922,25.6564342 57.7620651,25.6284522 C58.2172632,25.4455403 58.5306542,24.9887748 59.1615855,25.1239527 C59.2677577,25.1465852 59.4242091,25.0056463 59.5562531,24.9387775 C59.7390646,24.8466014 59.9208997,24.7527793 60.103223,24.6595745 C60.1412985,24.7171845 60.1796181,24.7745888 60.2181818,24.8321989 C59.3929676,25.1869123 58.5677534,25.5416256 57.6,25.9574468" id="Fill-20"></path>
                        <path d="M1.30909091,25.7226553 C1.38156847,25.5909865 1.45370893,25.4593177 1.48809364,25.3972299 C2.86449317,25.754056 3.83838939,24.2810781 5.23636364,24.7542294 C4.87633554,24.8316607 4.55777136,24.9065942 4.23752165,24.9676114 C4.02750527,25.0075759 3.80097074,24.9879505 3.60511276,25.062884 C2.86415607,25.3462038 2.13263831,25.6569993 1.39774951,25.9574468 C1.36808428,25.8793019 1.33875615,25.8008002 1.30909091,25.7226553" id="Fill-22"></path>
                        <path d="M3.92727273,19.4587968 C2.91820744,18.6791864 1.63247918,18.262576 0,18.2515956 C0.943001529,18.0431828 2.07010969,18.2343714 3.21633274,18.8331277 C3.51714084,18.9905138 3.68448001,19.2531829 3.91251737,19.4680548 C3.91117597,19.4687007 3.92727273,19.4587968 3.92727273,19.4587968" id="Fill-25"></path>
                        <path d="M57.6,25.9574468 C58.0368559,26.3906747 58.4899573,26.8396015 58.9090909,27.2553191 C58.3647194,27.2257329 57.8888743,26.768051 57.6,25.9574468" id="Fill-27"></path>
                        <path d="M41.8909091,50.3645415 C41.1694078,50.9236843 40.6334612,50.5449962 40.5818182,49.3191489 C41.0249875,49.6729468 41.4927773,50.0467457 41.8909091,50.3645415" id="Fill-29"></path>
                    </g>
                </g>
            </g>
        </g>
    </g>
</svg>