<?xml version="1.0" encoding="UTF-8"?>
<svg width="65px" height="33px" viewBox="0 0 65 33" version="1.1" xmlns="http://www.w3.org/2000/svg" xmlns:xlink="http://www.w3.org/1999/xlink">
    <!-- Generator: Sketch 52.2 (67145) - http://www.bohemiancoding.com/sketch -->
    <title>Fill 1</title>
    <desc>Created with Sketch.</desc>
    <g id="Page-1" stroke="none" stroke-width="1" fill="none" fill-rule="evenodd">
        <g id="Lesson-12" transform="translate(-560.000000, -2322.000000)" fill="#32C5DD">
            <path d="M598,2338.58238 C599.893046,2340.45511 601.688971,2342.32492 603.588872,2344.07099 C604.49953,2344.9079 605.571296,2345.57618 606.633031,2346.2045 C608.434415,2347.27073 610.3154,2347.20221 612.188768,2346.37273 C615.706094,2344.81549 617.68128,2340.58032 616.784715,2336.53809 C615.918619,2332.63249 612.813139,2329.92523 609.263694,2330.00157 C607.790619,2330.03331 606.530705,2330.71155 605.337442,2331.53293 C602.590488,2333.42412 600.380939,2335.92982 598,2338.58238 Z M587,2338.53455 C586.862208,2338.35808 586.779788,2338.23033 586.676954,2338.1241 C585.200027,2336.5965 583.781279,2334.99971 582.220784,2333.57076 C581.097651,2332.54218 579.831877,2331.65541 578.543904,2330.85496 C576.972819,2329.87856 575.257052,2329.77034 573.502883,2330.36815 C569.607194,2331.69578 567.262815,2336.12576 568.20988,2340.39559 C569.076695,2344.30345 572.105696,2346.99654 575.659711,2347 C577.262182,2347.00172 578.613821,2346.24947 579.893118,2345.35527 C582.580319,2343.4767 584.757817,2341.01864 587,2338.53455 Z M560,2337.09991 C560.201093,2336.07571 560.317509,2335.0251 560.617118,2334.03144 C562.579302,2327.52281 566.798961,2323.46647 573.440755,2322.22017 C577.447769,2321.46832 581.045994,2322.70728 584.368097,2324.94377 C587.120308,2326.7966 589.468937,2329.11322 591.730602,2331.53046 C591.974859,2331.79147 592.217593,2332.05402 592.533325,2332.39362 C592.710044,2332.17461 592.845248,2331.98561 593.001781,2331.81685 C595.237041,2329.40489 597.551645,2327.08131 600.255996,2325.19949 C602.846215,2323.39716 605.634862,2322.10925 608.833059,2322.03826 C616.031033,2321.87864 622.43022,2326.77251 624.354825,2333.89835 C624.637803,2334.94664 624.788243,2336.03178 625,2337.09991 L625,2339.93417 C624.700645,2341.28817 624.511231,2342.67902 624.083654,2343.99 C621.895367,2350.69934 615.704637,2355.15479 608.835852,2354.99569 C605.637909,2354.92161 602.848627,2353.63628 600.258662,2351.83472 C597.554438,2349.9538 595.23958,2347.63073 593.005717,2345.21762 C592.849184,2345.04872 592.716391,2344.85689 592.66434,2344.79145 C591.971051,2345.42555 591.317751,2345.96986 590.725135,2346.5751 C588.693508,2348.65017 586.589645,2350.63569 584.155959,2352.22687 C581.717194,2353.8214 579.103107,2354.92973 576.159578,2354.99608 C569.293331,2355.15119 563.099428,2350.69444 560.91368,2343.98755 C560.486737,2342.67748 560.298466,2341.2874 560,2339.93417 L560,2337.09991 Z" id="Fill-1"></path>
        </g>
    </g>
</svg>