<?xml version="1.0" encoding="UTF-8"?>
<svg width="104px" height="104px" viewBox="0 0 104 104" version="1.1" xmlns="http://www.w3.org/2000/svg" xmlns:xlink="http://www.w3.org/1999/xlink">
    <!-- Generator: Sketch 52.2 (67145) - http://www.bohemiancoding.com/sketch -->
    <title>Group 6</title>
    <desc>Created with Sketch.</desc>
    <g id="Page-1" stroke="none" stroke-width="1" fill="none" fill-rule="evenodd">
        <g id="Desktop" transform="translate(-72.000000, -3019.000000)">
            <g id="Group-6" transform="translate(72.000000, 3019.000000)">
                <rect id="Rectangle-3" fill-opacity="0.7" fill="#05BCB0" fill-rule="nonzero" x="0" y="0" width="104" height="104"></rect>
                <g id="kidney" transform="translate(10.000000, 10.000000)">
                    <path d="M48.6405694,47.0696906 C49.9800814,50.6647096 51.4508561,54.2120915 52.7176201,57.8319878 C55.1504607,64.7843693 57.0550876,71.8547852 56.7208685,79.3301172 C56.6681526,80.5099313 56.5917145,81.7119761 56.3086299,82.849446 C56.127287,83.5793535 55.5468846,84.2086935 55.0761312,85 C54.7029024,84.5516812 54.5531891,84.4447622 54.5695311,84.381246 C56.484174,77.1171056 55.3275863,70.0361036 53.0950663,63.0937788 C51.4872301,58.093463 49.5425392,53.2032419 47.7391269,48.2669716 C46.8998892,45.969801 46.4887048,43.713916 47.9953264,41.4887304 C48.2246407,41.1505065 48.1313335,40.5920929 48.1634902,40.3269126 C49.8308953,40.0453239 49.1413709,38.7342429 49.4160209,37.9143541 C46.9051608,36.8626311 46.8967262,36.7112507 48.2994973,34.3886736 C48.6616558,33.7884452 48.6679817,32.9722615 48.8382542,32.2561159 C46.7069488,31.8564929 45.3062863,33.1342279 45.0521955,35.3578256 C44.3305143,41.6829843 45.8366087,47.6376316 47.7106603,53.6028649 C49.6722204,59.8475697 51.4814314,66.1563201 52.9669665,72.5285867 C53.6543824,75.4789159 53.5046691,78.6452004 53.5457875,81.7167398 C53.5594937,82.7139447 52.9748739,83.7190892 52.6638499,84.7205286 C52.48567,84.6908876 52.3080173,84.6612467 52.1298374,84.6316058 C52.0449648,84.4447622 51.8583503,84.2383344 51.8905071,84.0747801 C53.4419371,76.2104113 51.3169577,68.8636997 48.8714653,61.5281035 C47.0258803,55.9931927 44.8645268,50.49004 43.7754155,44.7926334 C42.1675794,36.3852007 43.8987708,28.4192059 49.2557645,21.5012289 C49.965321,20.5855365 50.1234688,19.7698821 49.8604163,18.5863629 C48.1318606,10.807741 51.6137484,3.60976328 58.2522665,0.981778929 C64.1132246,-1.33762236 71.0759457,0.614972655 75.6827916,5.88999622 C80.1583748,11.0157566 82.1647434,17.2260568 83.304462,23.7735223 C84.3614166,29.8430282 84.2760168,35.8484885 82.6170462,41.8798846 C80.9116856,48.0827745 75.1155681,53.522411 69.3321025,53.7648313 C62.2845087,54.0596525 56.166824,49.757486 53.9933459,42.981362 C53.6717786,41.9793934 53.3412497,40.9816591 53.0202096,39.9987454 C49.3959888,40.33644 47.3622079,43.6408723 48.6405694,47.0696906 Z M29.6712661,22.2252611 C31.8415813,21.2963361 32.6634228,19.6094507 32.3408012,17.8579904 C32.5453391,17.3096336 32.9001174,16.7702749 32.9322741,16.2118613 C33.2422438,10.797102 31.1119927,4.96631133 25.3206197,2.76547368 C24.732837,2.54210825 23.9879608,2.73530347 23.3158326,2.73530347 C23.0991701,2.24305263 22.6811327,1.84819335 22.2246126,1.79738036 C17.5687409,1.28025232 13.6609084,2.88562523 10.3677437,6.14506685 C7.44411777,9.0392901 5.44671086,12.5379762 4.3143725,16.4394611 C3.4577385,19.3913783 3.03917395,22.475621 2.50516149,25.5154022 C2.15829061,27.48864 1.93213924,29.4846378 1.69860763,31.4758719 C1.62058804,32.1417338 1.68648296,32.824004 1.68648296,33.4993934 C1.79876791,33.5078622 1.91105286,33.5168603 2.02386497,33.5253292 C2.35808402,32.9907342 2.69177591,32.4556099 3.07343931,31.8447954 C3.23844019,33.5883161 0.915775941,35.0915337 2.67385249,37.018193 L2.67385249,40.2913964 C3.29221045,39.7414517 3.54946423,39.5127932 3.83096734,39.2624334 C3.63591837,40.2718122 3.13142684,41.2695465 3.36074117,42.0497376 C3.77034402,43.443919 4.61274471,44.7126559 5.3138667,46.0120923 C5.35603945,46.0898996 5.75035467,45.976629 5.81730391,45.9692188 C6.12621931,46.6345514 6.44778654,47.3274077 6.92117566,48.3468433 C7.45835108,47.2781826 7.77939114,46.6398444 8.26437778,45.6743976 C8.34608748,47.3845723 6.75143034,49.1598512 9.16582033,49.9040497 C9.62128604,48.7501714 10.0435407,47.6815107 10.4652682,46.61285 C10.0693715,50.3936541 10.0693715,50.3936541 10.9428746,50.8774361 C11.2354481,50.2586821 11.5274944,49.6404574 11.8195407,49.0227619 C11.8817455,49.0428754 11.9439503,49.0629889 12.0061551,49.0825731 C11.8743653,49.8003066 11.7425754,50.5175107 11.579156,51.4062088 C12.2591916,51.5528254 12.8406484,51.67827 13.3198363,51.7814839 C13.8227463,50.5392121 14.2397294,49.5107784 14.6567125,48.4818153 C14.7320963,48.5119855 14.8074801,48.5421557 14.8828639,48.5728553 C14.6108496,49.6711569 14.3388354,50.7694585 14.02992,52.0154354 C16.2787819,52.1578176 15.2977383,49.657395 16.692602,49.3678668 C16.7432093,50.2618579 15.1053251,51.5533547 17.2598255,52.0080251 C17.5945717,51.1346769 17.9045415,50.3253741 18.2145112,49.5160714 C18.4369724,49.7780759 18.3800392,49.9516869 18.4069244,50.1110068 C18.4923242,50.6175488 18.6082992,51.1187978 18.7126768,51.6216347 C19.1238611,51.2542991 19.6346786,50.9510091 19.920399,50.5032196 C20.2419662,49.9993241 20.3611042,49.3652203 20.5682778,48.7877519 C20.6436616,48.8105118 20.7185183,48.8332718 20.7933749,48.8560318 C20.6995405,49.5218937 20.6057062,50.1877556 20.5118718,50.8541468 C20.6784542,50.9065477 20.8455637,50.9589486 21.012146,51.0118788 C21.3980267,50.3491927 21.7839074,49.6865066 22.2003633,48.9714196 C22.3637827,49.3414017 22.4845022,49.6145216 22.7612609,50.2406858 C23.4007052,49.2831785 23.8772573,48.5792069 24.3432662,47.8683543 C24.5630917,47.5327769 24.7396901,46.9044954 24.9748031,46.8849112 C27.5025324,46.674249 27.1361566,44.3532598 28.2642777,43.1432755 L27.9152982,42.8622162 C27.4803917,43.1940885 27.0454852,43.5259608 26.6105787,43.8578332 C27.4872448,42.3599086 29.1356722,41.4791501 28.9959749,39.3174808 C28.8873801,37.6343005 29.4055778,35.9103639 29.6454353,34.2049529 C29.498885,34.1811343 29.3528618,34.1573157 29.2063115,34.1334971 C28.7323952,34.7654837 28.2579518,35.396941 27.5083312,36.3957338 C28.0507782,34.4018532 29.8193979,33.3898279 29.1488512,31.3197278 C28.5821548,32.0295218 28.1435582,32.5794665 27.7049616,33.1294113 C27.6622617,33.0897136 27.6190346,33.0494867 27.5763347,33.009789 C28.1778236,31.867026 28.7793124,30.7247924 29.3802741,29.5820294 C29.221072,29.4894015 29.0613427,29.3967737 28.9021406,29.3036165 C28.2479358,29.9154896 27.5942581,30.5273627 26.8140622,31.2572702 C27.0908209,29.5476248 30.0007407,29.2072836 28.4904291,26.6534015 C27.88156,27.3494336 27.3775956,27.9253142 26.8731041,28.501724 C29.2353053,26.7851977 28.4414033,24.2741891 28.7608619,21.8690409 C28.2337025,22.1776239 27.9395475,22.3491178 27.6459198,22.5206116 C27.5752804,22.4099875 27.504641,22.2998927 27.4340017,22.1892686 C28.4103009,21.4297202 29.3871272,20.6707012 30.3634264,19.9111528 C30.1330577,20.6823458 29.9021619,21.4540681 29.6712661,22.2252611 Z M27.9485092,47.0368209 C22.7570436,54.9885246 11.856969,56.2382066 5.605913,49.257772 C2.33225321,45.6024125 0.699640593,41.2007372 0.244174884,36.4253747 C-0.598225814,27.5828558 0.697004796,19.0335702 4.78618015,11.0839837 C7.56641875,5.6792811 11.539619,1.55443075 17.8117614,0.278283663 C25.8862617,-1.36414039 33.7651859,4.45447631 34.3930327,12.6983547 C34.5480176,14.7372259 34.1305074,16.8147362 34.1178555,18.8747796 C34.1125839,19.7306609 34.2306676,20.7776202 34.7140728,21.4164877 C39.6888759,27.9888304 41.7279284,35.4535763 40.4084485,43.4767358 C39.5259837,48.8412114 37.6872517,54.0839475 35.9123061,59.2552279 C33.7346107,65.6010294 31.6270274,71.9256588 31.5743115,78.7192497 C31.559551,80.6310885 31.8262937,82.5461031 31.7087371,84.7019501 C31.3592305,84.2202852 30.7540515,83.7629683 30.7050257,83.2521919 C30.5136668,81.264663 30.34234,79.2517275 30.4456633,77.26314 C30.8478859,69.5543859 33.2981227,62.3304724 35.6856275,55.0726836 C37.0451716,50.9398937 38.2144111,46.6922453 38.8944467,42.4043699 C39.3620371,39.4609216 39.8269917,36.2761116 38.1949062,33.3665386 C38.0446658,33.0992411 38.3931182,32.5868767 38.3846836,32.1909589 C38.3778305,31.8601451 38.187526,31.5335658 38.1205767,31.3319017 C37.1769614,31.6897099 36.2944966,32.0236994 35.2992197,32.4010917 C35.6893177,33.5745542 36.1885376,34.8930455 36.5311912,36.2517637 C36.6076293,36.5545244 36.1906462,37.0494218 35.9028172,37.3659444 C35.2686445,38.0640937 34.5722669,38.7045491 33.901193,39.3682938 C34.1442135,39.3910537 34.387234,39.4138137 34.6302545,39.4365737 C35.2649544,40.2178234 35.9001814,40.9990732 36.603412,41.8655405 C36.8801707,41.4193389 37.1437504,40.9943095 37.4073301,40.5687507 C37.509599,40.6169171 37.6118679,40.6656129 37.7136097,40.7137794 C37.3704289,41.3653501 37.026721,42.0169209 36.5543862,42.9135584 C37.0008902,42.7928776 37.2312589,42.73042 37.6387531,42.6197958 C34.8548244,51.5649994 31.8763738,60.3551174 29.4324629,69.2929107 C28.0802991,74.239767 27.7640035,79.4338074 29.5479108,84.5172237 C29.3618236,84.6230841 29.1757363,84.7294738 28.9891219,84.8353342 C28.5784647,84.291741 27.88156,83.7846697 27.8082848,83.1992617 C27.5230916,80.9206167 27.2463329,78.6118014 27.3085377,76.323629 C27.5689545,66.7247375 30.9923275,57.9616138 34.5870274,49.2493032 C35.0308956,48.1748202 35.3340122,47.0061214 35.4868885,45.8517138 C35.9386641,42.4393039 34.6012607,40.7016055 31.3502688,40.0637966 C30.2142403,42.430835 29.3407372,44.9042632 27.9485092,47.0368209 Z M36,29.5070423 C34.876718,27.3295203 33.7534359,25.1514978 32.6437378,23 C32.2336092,23.1581469 32.1615102,23.163652 32.1432242,23.1961822 C30.4896485,26.1889612 30.4786769,26.2299993 33.1144713,28.4235361 C33.8318044,29.0200901 34.6740047,29.4785158 35.4587348,30 C35.6389824,29.8358476 35.8197524,29.6716951 36,29.5070423 Z M31.0040756,33.183429 C31.0593657,34.0014974 31.1350259,34.8180684 31.2063211,35.6820564 C32.4876941,35.794859 33.6565468,35.8971799 34.8253996,36 C34.8840847,35.8797105 34.9417999,35.7599201 35,35.6401298 C33.7695521,34.5026204 32.5391042,33.3646119 31.0622757,32 C31.0263856,32.6743199 30.9871006,32.930871 31.0040756,33.183429 Z M47,30.4353204 L50.1888057,23 L50.6549074,23.0972814 C51.0904612,24.412258 51.5265077,25.7272346 52,27.1573835 C50.5095585,28.4634146 49.0619827,29.7314278 47.6144068,31 C47.4094403,30.8115871 47.2049665,30.6231742 47,30.4353204" id="Combined-Shape" fill="#5C5B5C"></path>
                    <path d="M56.2000922,19.4265179 C55.759398,20.1447406 55.4595174,20.6326894 55.1601583,21.1206382 C55.0026557,21.1164227 54.8456747,21.1116802 54.6881722,21.1069377 C54.634976,20.2132431 54.5817798,19.3195485 54.5322343,18.4954103 C53.9877553,19.3559076 53.3128935,20.4213854 52.4309837,21.8130408 C51.3681024,19.489751 53.3431423,18.2382624 53.7624537,16.0825403 C52.9561659,17.4146511 52.4080363,18.3215193 51.8593851,19.2278605 C51.701361,19.1820165 51.5428154,19.1366994 51.3842698,19.0913824 C51.5980978,18.0011382 51.8124472,16.9103671 52.0507872,15.6989261 C51.7556003,16.0677859 51.5209111,16.3612929 51.1370639,16.8413376 C51.0875184,16.3128142 50.915413,15.8996912 51.0510112,15.6862795 C51.9725574,14.2361335 51.5595044,12.4982769 51.8588635,10.955916 C52.8330845,5.92993772 56.0535418,3.67673127 60.3660862,2.33144688 C60.9408139,2.15281335 61.6912978,2.64286994 62.3385185,2.5817446 C62.9314999,2.52588869 63.4947539,2.14332838 64.2880034,2.20181901 C64.0319314,2.62179224 63.7753379,3.04176547 63.4394716,3.59242046 C64.248367,3.00804114 64.9461762,2.5037571 65.6434639,2 C65.7540286,2.15281335 65.8640718,2.30615364 65.9741149,2.45949392 C65.4504972,3.07759756 64.926358,3.69675509 64.1320655,4.63418593 C65.7535071,4.14202156 65.909445,1.74337897 67.8917864,2.88315575 C67.3655611,3.55816919 66.8737568,4.18891945 66.3819526,4.82019665 C67.6315422,4.59835383 67.9136908,2.1918071 69.7917259,3.798455 C69.1924861,4.69109572 68.6083708,5.56107791 68.024777,6.43053316 C68.1139589,6.49271238 68.2036623,6.55541855 68.2933657,6.61707083 C68.9739644,5.79187876 69.6550846,4.96668669 70.4358173,4.02029783 C71.5419857,4.91346549 72.5428048,5.72126846 73.7058201,6.66028012 C72.8093074,7.88594855 71.9649478,9.04100667 71.1205883,10.1955379 C71.2212438,10.2877528 71.322421,10.3794408 71.4235981,10.4711288 C72.274216,9.40196233 73.1253555,8.33332279 74.0103946,7.22200091 C76.5074876,9.32924426 73.2280972,10.2250466 73.1801163,12.1473331 C74.0411649,11.0059755 74.711333,10.1175503 75.4154006,9.18433505 C76.2514156,9.72128953 76.5742437,10.2824834 75.8122861,11.1403459 C75.273544,11.7463298 74.8083378,12.4192355 74.5913807,13.3603549 C75.2704148,12.6221084 75.9489273,11.8838619 76.7291385,11.0349574 C78.5644081,13.2101763 75.0471993,13.7682085 75.5791615,15.5650827 C76.2847937,14.7198668 76.9393157,13.9363032 77.5938378,13.1527396 C77.794106,13.18541 77.9938525,13.2180805 78.1941207,13.2507509 C78.109111,13.9478959 78.1696087,14.7103818 77.9015415,15.3258507 C77.5912302,16.0388041 76.9914689,16.6226564 76.803196,17.5216205 C77.4196463,16.8239485 78.0355751,16.1262765 78.728169,15.342186 C80.4382709,17.4288786 77.4577181,18.3415431 77.5672397,20.2127162 C78.2796518,19.3100635 78.8721117,18.5591704 79.4953419,17.7692835 C81.406755,20.002993 78.3203313,20.6110848 78.1868192,22.6772266 C78.9373031,21.6080601 79.4447533,20.884041 80.0492084,20.0230169 C81.0161279,22.0417339 81.0161279,22.0417339 79.5438443,24.1921865 C80.1983664,23.8865598 80.6135055,23.6926449 81.0286446,23.4982031 C81.1783242,23.5856756 81.3274822,23.6726211 81.4771618,23.7595666 C81.0077834,24.7112249 80.5378834,25.6623563 79.9756724,26.8021331 C80.4732135,26.4685784 80.8800081,26.1956222 81.2873243,25.9226659 C81.4516067,25.9895876 81.6164107,26.0570363 81.7806931,26.123958 C81.1877117,27.4987511 80.5947304,28.8735443 80.001749,30.2478106 C80.0539022,30.2846965 80.1070984,30.3210556 80.1597731,30.3574146 C80.6161132,29.7888436 81.0724533,29.2197456 81.54809,28.6264083 C83.1434551,34.7220799 80.4664336,46.7827416 74.282634,50.2437004 C74.3274857,49.7014765 74.3645145,49.2583178 74.4015432,48.8146321 C74.322792,48.7893389 74.2445622,48.7645726 74.1663325,48.7392794 C73.9806673,49.2952038 73.89305,49.9180499 73.5806526,50.3875557 C73.2979825,50.8122714 72.769671,51.0704733 71.9534741,51.7149241 C72.1714743,50.549854 72.2929912,49.8969722 72.4233741,49.1993002 C71.3052104,49.9069841 71.9446081,52.3114231 69.4902806,51.8814379 C69.7207976,50.7232181 69.950793,49.5713217 70.1807884,48.4188983 C70.0869127,48.3904434 69.9925155,48.3619885 69.8986398,48.3330066 C69.5215725,49.5281124 69.1439837,50.7226912 68.7403183,52 L67.0776757,52 C67.2873314,50.798044 67.471432,49.742578 67.6560542,48.6865851 L67.4218865,48.6006935 C67.0599436,49.7030573 66.6980007,50.8054212 66.3162396,51.9694373 C64.9216643,51.982084 64.8314393,51.0341143 65.0875113,49.9528281 C65.2961239,49.072834 65.6403347,48.2255103 65.9245694,47.3634323 C65.7759329,47.3138997 65.6267749,47.2643671 65.4781384,47.2148345 C65.0546548,48.5717116 64.6311712,49.9285887 64.1956923,51.3249866 C62.7734758,51.3033819 62.321308,50.6836975 62.8350165,49.3052157 C63.1797489,48.3814853 63.413395,47.4155996 63.371151,46.3411637 C62.8829974,47.6332269 62.3953654,48.9252901 61.8414989,50.3907174 C59.189511,48.9179129 61.1170916,46.9113156 60.9345556,45.1386807 C60.4844738,46.2247094 60.0338706,47.310738 59.5837889,48.3967667 C59.4429753,48.4073055 59.3026833,48.4183713 59.1623914,48.4289102 C58.957951,47.5836943 58.7529891,46.7384784 58.5177784,45.7673232 C58.3086442,46.0123515 58.090644,46.2668648 57.5764139,46.8691602 C57.5764139,45.7077787 57.4606339,44.8393774 57.6082273,44.0199817 C57.7584284,43.1868855 58.1683522,42.401741 58.4640606,41.5955189 C58.3279409,41.5365013 58.1918211,41.4769568 58.0551799,41.4179392 C57.5466866,42.4776207 57.0381934,43.5373023 56.4926714,44.6744443 C54.825335,42.2895023 57.1951744,40.7529377 57.2598443,38.6799456 C56.6788581,39.7116992 56.0973504,40.7434527 55.5288811,41.7530747 C55.0928807,41.144983 55.0928807,41.144983 56.0973504,37.511187 C55.577905,38.2973853 55.3004502,38.7173585 54.8185551,39.4466471 C54.4727797,36.1421902 54.4008083,33.2766765 56.4097478,30.7631604 C55.9049053,31.4429163 55.4005843,32.1226722 54.5703061,33.2408444 C55.0391629,29.4589775 55.4433499,26.1929874 55.8193741,23.1625407 C55.924202,23.0803377 55.6957712,23.2589712 55.4668188,23.4370778 C55.3140101,23.3648867 55.1612013,23.2932225 55.0089141,23.2210313 C55.3781584,22.0438416 55.7479243,20.866125 56.2000922,19.4265179 Z" id="Fill-7" fill="#50D0C7"></path>
                    <path d="M52.8334394,32 C53.2569472,35.4699215 53.2569472,35.4699215 48,36 C49.777484,34.5293312 51.1717672,33.3750156 52.8334394,32" id="Fill-11" fill="#A9DDE8"></path>
                </g>
            </g>
        </g>
    </g>
</svg>