<?xml version="1.0" encoding="UTF-8"?>
<svg width="65px" height="58px" viewBox="0 0 65 58" version="1.1" xmlns="http://www.w3.org/2000/svg" xmlns:xlink="http://www.w3.org/1999/xlink">
    <!-- Generator: Sketch 52.2 (67145) - http://www.bohemiancoding.com/sketch -->
    <title>Group</title>
    <desc>Created with Sketch.</desc>
    <g id="Page-1" stroke="none" stroke-width="1" fill="none" fill-rule="evenodd">
        <g id="Lesson-2" transform="translate(-55.000000, -4588.000000)">
            <g id="Group" transform="translate(55.000000, 4588.000000)">
                <rect id="Rectangle-12" fill-opacity="0.7" fill="#05BCB0" fill-rule="nonzero" x="0" y="0" width="65" height="58"></rect>
                <g id="measure-cup" transform="translate(9.000000, 11.000000)" stroke="#FFFFFF">
                    <path d="M21.2313635,0.955436301 C16.8280707,0.955436301 12.4247779,0.954169178 8.02123094,0.955943151 C6.15835801,0.956703425 4.2926895,0.90095 2.43337459,0.98635411 C0.717396685,1.06516918 0.211396685,2.18505274 1.23839116,3.56849795 C2.06867845,4.68686096 3.02705414,5.70968288 3.8669989,6.82120342 C4.1826453,7.23859384 4.44975028,7.76774452 4.5267558,8.27788836 C5.59314254,15.3256281 6.6206453,22.3791966 7.66136354,29.4307377 C8.19226961,33.0275938 10.802579,35.8292034 14.4264133,36.1006212 C18.0873525,36.3748267 21.7948,36.414361 25.4575182,36.1789295 C29.6742696,35.9082719 32.2035072,33.1560801 32.8111646,28.9515116 C33.9576066,21.0200801 35.1706343,13.0985322 36.325463,5.16836781 C36.4235624,4.49425822 36.6322144,4.23956644 37.341021,4.22436096 C39.9426895,4.16860753 41.6957724,5.78773767 41.7089878,8.39192945 C41.7283028,12.2338473 41.709242,16.0760185 41.7178829,19.9179363 C41.7214409,21.3274842 42.3827227,22.1480733 43.4379271,22.1054979 C44.4484022,22.0646966 45.0082807,21.3031555 45.0098055,19.9247788 C45.0153967,15.7024705 45.0153967,11.4804158 45.0110762,7.25861438 C45.0075182,3.14578562 42.7982475,0.960758219 38.6330873,0.956956849 C32.8322586,0.951381507 27.0319381,0.955436301 21.2313635,0.955436301 M37.0955182,5.01377877 C36.6718608,7.89268288 36.2614188,10.7231829 35.8375072,13.5521623 C35.0120486,19.0580664 34.2305569,24.5713199 33.3313967,30.065313 C32.7295845,33.7432651 29.6991757,36.6376281 25.9655514,36.8421418 C22.1269657,37.0524842 18.258137,37.0534979 14.4198055,36.8393541 C10.6938055,36.6307856 7.67508729,33.7447856 7.07988287,30.0387034 C5.9428442,22.9592856 4.93846851,15.859087 3.83192707,8.77485411 C3.72849061,8.11265548 3.38133039,7.43778562 2.98639116,6.88253219 C2.27783867,5.88657329 1.40231381,5.01023082 0.676479558,4.02491575 C-0.685476243,2.17618288 0.0789878453,0.50104589 2.34137459,0.293237671 C2.67786077,0.262319863 3.01765083,0.255477397 3.35591602,0.255477397 C15.169021,0.253703425 26.982126,0.247114384 38.7949768,0.258518493 C42.4772641,0.262066438 44.9851536,2.16731301 45.6355072,5.40810753 C45.7181039,5.81840205 45.7455514,6.24592945 45.7463138,6.66560068 C45.7539381,11.1408267 45.7582586,15.6163062 45.7478387,20.0917856 C45.7437724,21.7408199 44.8029326,22.8057103 43.3944685,22.8153404 C41.9913414,22.8249705 41.0078055,21.7646418 40.9976398,20.1201692 C40.9734961,16.2359295 41.0029768,12.3514363 40.9823912,8.46745 C40.9699381,6.12023082 39.6895624,4.94028562 37.0955182,5.01377877" id="Fill-1" stroke-width="0.7" fill="#FFFFFF"></path>
                    <path d="M23.5,6.5 L23.5,31.5" id="Line-2" stroke-width="1.5" stroke-linecap="square" fill-rule="nonzero"></path>
                    <path d="M23.5,10.25 L27.5,10.25" id="Line-16" stroke-width="1.5" stroke-linecap="square" fill-rule="nonzero"></path>
                    <path d="M23.5,18.25 L27.5,18.25" id="Line-16" stroke-width="1.5" stroke-linecap="square" fill-rule="nonzero"></path>
                    <path d="M23.5,26.25 L27.5,26.25" id="Line-16" stroke-width="1.5" stroke-linecap="square" fill-rule="nonzero"></path>
                </g>
            </g>
        </g>
    </g>
</svg>