<?xml version="1.0" encoding="UTF-8"?>
<svg width="65px" height="58px" viewBox="0 0 65 58" version="1.1" xmlns="http://www.w3.org/2000/svg" xmlns:xlink="http://www.w3.org/1999/xlink">
    <!-- Generator: Sketch 52.2 (67145) - http://www.bohemiancoding.com/sketch -->
    <title>Group 4</title>
    <desc>Created with Sketch.</desc>
    <g id="Page-1" stroke="none" stroke-width="1" fill="none" fill-rule="evenodd">
        <g id="Lesson-2" transform="translate(-539.000000, -4588.000000)">
            <g id="Group-4" transform="translate(539.000000, 4588.000000)">
                <rect id="Rectangle-12" fill-opacity="0.7" fill="#05BCB0" fill-rule="nonzero" x="0" y="0" width="65" height="58"></rect>
                <g id="Group-12" transform="translate(10.000000, 6.000000)" fill="#FFFFFF">
                    <path d="M42.884602,2.05708284 L2.04212305,2.05708284 C2.08466041,2.50131542 2.07172676,2.92363352 2.17213026,3.31874423 C2.58246253,4.93373022 4.04051686,5.9730896 5.85927655,5.97346103 C14.4807569,5.97522534 23.1023331,5.97401818 31.7238135,5.97392532 C34.2623552,5.97392532 36.8009927,5.985904 39.3394385,5.97030386 C41.5219693,5.95683946 43.1830342,4.12326577 42.884602,2.05708284 Z M44.0591697,0 C44.8565537,0.317852868 45.0279486,0.591505336 44.9965246,1.45183453 C44.9789923,1.93061027 45.0080212,2.4120789 44.9707531,2.88890463 C44.7748321,5.39913442 41.9185057,8.00370792 39.1160216,7.99107924 C28.075085,7.9412145 17.0335735,7.92654294 5.99302015,7.99990074 C3.02853001,8.01949378 -0.196166163,5.13513918 0.00933528644,2.19748411 C0.0286878705,1.9203959 0.0107723595,1.64098623 0.0121136277,1.36259801 C0.0160416274,0.529290489 0.162527276,0.316274282 0.946977564,0 L44.0591697,0 Z" id="Fill-1"></path>
                    <path d="M22.4861019,45.0329603 L22.4861019,45.031126 C26.7854115,45.031126 31.0849138,45.0326852 35.3842235,45.0302089 C36.5311747,45.0294752 36.9330072,44.6542742 36.9337776,43.5801226 C36.9371478,38.9657281 36.9539992,34.3511502 36.9224149,29.7369391 C36.9156744,28.750099 36.8460542,27.7370288 36.6032985,26.7827471 C35.1435861,21.0449507 31.4251185,17.4424342 25.3053813,16.2321793 C21.6668372,15.5125932 18.1926661,16.0572812 15.0492629,17.9378719 C10.3471578,20.7509164 8.13616402,24.9381999 8.07665467,30.1668015 C8.02600432,34.6127178 8.06673645,39.0594596 8.06798826,43.5058345 C8.06827714,44.6691318 8.4521991,45.0323183 9.68417742,45.0325935 C13.9514214,45.0335106 18.2187616,45.0329603 22.4861019,45.0329603 M20.4558509,14.0479244 L24.5233822,14.0479244 C24.5293524,13.9420867 24.5455297,13.7835136 24.5460112,13.6249405 C24.5485148,12.7843839 24.5391744,11.9438273 24.5496704,11.1033623 C24.5581442,10.4298165 24.9559324,10.0097675 25.5658551,10.0002292 C26.1953253,9.99050756 26.6107352,10.4200948 26.6169943,11.1173946 C26.6259496,12.1106546 26.6327864,13.1043732 26.6094834,14.0972664 C26.6019725,14.4183563 26.718295,14.5295134 27.0344264,14.6276471 C32.7462646,16.3993735 36.5388781,20.0044581 38.3480394,25.4677552 C38.8087072,26.8589612 38.9818428,28.3001513 38.9801095,29.7613349 C38.975006,34.3460142 38.9389922,38.931152 38.9997534,43.5150976 C39.0241156,45.3531331 37.2397018,47.0101256 35.3329953,46.9994868 C26.7810783,46.9518874 18.2284873,46.9507868 9.67657024,46.9999454 C7.74800515,47.0110427 5.97033189,45.3298378 6.00037544,43.4772198 C6.0744251,38.9089573 5.98910911,34.3384937 6.03841135,29.7694975 C6.11217213,22.9420499 10.9723911,16.7365133 17.8103811,14.6868025 C18.2918483,14.542445 18.4154891,14.3445267 18.3959416,13.8931116 C18.3563649,12.9777165 18.3798605,12.0597535 18.3862159,11.1427993 C18.3911269,10.4363282 18.7840041,10.00509 19.4098152,10.0000458 C20.038804,9.99490982 20.444392,10.4221125 20.4526732,11.1239979 C20.4622063,11.9491467 20.455562,12.7744788 20.4558509,13.5997192 C20.4559472,13.762236 20.4558509,13.9248445 20.4558509,14.0479244" id="Fill-4"></path>
                    <path d="M32.9328492,29.4837963 C32.9214269,24.0926237 28.6192866,19.992686 22.9752202,19.9940779 C17.3748102,19.9953771 13.0714116,24.1139664 13.0613444,29.4822188 C13.0511805,34.8678238 17.3797469,39.0367077 22.9729938,39.028449 C28.6363233,39.0202831 32.9443682,34.8916719 32.9328492,29.4837963 M22.9854809,40.9999601 C16.533529,41.0167559 11.0073639,35.7220896 11.0000071,29.5166456 C10.9927472,23.3019221 16.5342066,17.9887896 23.0116167,18.0000178 C29.4584382,18.0111531 34.9937993,23.2972824 34.9999944,29.44872 C35.0063832,35.71513 29.5273592,40.982886 22.9854809,40.9999601" id="Fill-8"></path>
                    <path d="M22.5012757,29.1210546 C22.0989773,29.0552562 21.9799089,29.2659367 21.977766,29.6064186 C21.9754368,29.9670979 22.1598158,30.1039011 22.5227974,30.1018364 C22.881866,30.0997718 23.0208723,29.931012 23.0194748,29.6080344 C23.0180772,29.2728487 22.9058101,29.0516656 22.5012757,29.1210546 Z M23.503854,24.6294401 C23.503854,25.4072613 23.519972,26.1856211 23.4960279,26.962814 C23.4862453,27.2801363 23.5824876,27.4704399 23.8612455,27.6565246 C24.7947865,28.2798587 25.1939172,29.2883782 24.9102214,30.1843313 C24.6034199,31.1535333 23.5628292,31.9676199 22.5908099,31.9989482 C21.5632626,32.0321616 20.4820507,31.2749865 20.1169263,30.2666466 C19.7889757,29.360909 20.1612741,28.3172013 21.1032934,27.6818385 C21.4136352,27.4725045 21.5092253,27.2594004 21.5055918,26.9143404 C21.4893806,25.3139048 21.4959955,23.7132897 21.4991632,22.1126746 C21.5002812,21.5426614 21.7676727,21.1562194 22.2248469,21.0376387 C22.8944436,20.8640315 23.4830776,21.3075646 23.4972391,22.0266789 C23.5143819,22.8939069 23.5012453,23.7617633 23.5012453,24.6294401 L23.503854,24.6294401 Z" id="Fill-10"></path>
                </g>
            </g>
        </g>
    </g>
</svg>