<?xml version="1.0" encoding="UTF-8"?>
<svg width="73px" height="73px" viewBox="0 0 73 73" version="1.1" xmlns="http://www.w3.org/2000/svg" xmlns:xlink="http://www.w3.org/1999/xlink">
    <!-- Generator: Sketch 52.2 (67145) - http://www.bohemiancoding.com/sketch -->
    <title>less-than</title>
    <desc>Created with Sketch.</desc>
    <g id="Page-1" stroke="none" stroke-width="1" fill="none" fill-rule="evenodd">
        <g id="Lesson-6" transform="translate(-581.000000, -1640.000000)" fill="#F67102" fill-rule="nonzero">
            <path d="M617.5,1713 C597.341607,1713 581,1696.65839 581,1676.5 C581,1656.34161 597.341607,1640 617.5,1640 C637.658393,1640 654,1656.34161 654,1676.5 C654,1696.65839 637.658393,1713 617.5,1713 Z M631.16494,1687.06861 L609.550683,1676.98972 L631.169888,1666.90785 C632.755184,1666.16864 633.440958,1664.28447 632.701747,1662.69916 L631.363844,1659.82937 C630.624633,1658.24406 628.740486,1657.55828 627.155189,1658.2975 L596.828731,1672.43962 C595.71353,1672.95985 595.000482,1674.07882 595,1675.30941 L595,1678.69773 C595,1679.92877 595.713482,1681.04799 596.828731,1681.56752 L627.140346,1695.70172 C628.7296,1696.44292 630.618695,1695.75516 631.359886,1694.16589 L632.701747,1691.28819 C633.442937,1689.69892 632.755184,1687.80981 631.16494,1687.06861 Z" id="less-than"></path>
        </g>
    </g>
</svg>