<?xml version="1.0" encoding="UTF-8"?>
<svg width="63px" height="66px" viewBox="0 0 63 66" version="1.1" xmlns="http://www.w3.org/2000/svg" xmlns:xlink="http://www.w3.org/1999/xlink">
    <!-- Generator: Sketch 51.1 (57501) - http://www.bohemiancoding.com/sketch -->
    <title>light-bulb</title>
    <desc>Created with Sketch.</desc>
    <defs></defs>
    <g id="Page-1" stroke="none" stroke-width="1" fill="none" fill-rule="evenodd">
        <g id="Lesson-6" transform="translate(-418.000000, -4008.000000)" fill="#32C5DD">
            <path d="M448.666693,4027.82192 C445.935415,4027.97158 443.136602,4029.21349 440.907928,4031.56456 C438.913837,4033.66787 437.914337,4036.17558 437.832737,4039.01134 C437.801291,4040.10359 438.536752,4040.90007 439.573536,4040.96397 C440.653707,4041.03068 441.450999,4040.36252 441.576384,4039.28107 C441.605707,4039.02875 441.624946,4038.77528 441.644053,4038.52194 C441.751791,4037.09301 442.245902,4035.79393 443.131826,4034.64539 C444.728797,4032.57486 446.881842,4031.49125 449.571855,4031.39291 C450.905982,4031.34412 451.762582,4030.47764 451.607343,4029.33775 C451.468159,4028.31436 450.630532,4027.77021 448.666693,4027.82192 M449.723246,4060.09606 C448.043348,4060.09606 446.363318,4060.10381 444.683287,4060.09378 C443.219927,4060.08501 442.181551,4059.22132 441.933965,4057.83406 C441.406152,4054.87596 440.081446,4052.29544 437.929728,4050.11005 C434.761924,4046.89264 433.208871,4043.08749 433.291001,4038.65433 C433.425807,4031.38516 439.167394,4024.91844 446.648984,4023.65391 C455.635331,4022.1349 463.933186,4027.38042 465.821794,4035.92098 C466.984362,4041.17767 465.555632,4045.87827 461.773639,4049.84249 C459.547486,4052.17602 458.050026,4054.79579 457.526858,4057.9277 C457.306472,4059.24673 456.224973,4060.08323 454.829547,4060.09301 C453.127624,4060.10496 451.425435,4060.09594 449.723246,4060.09606 Z M449.215418,4062.47035 C451.011975,4062.47035 452.808398,4062.46678 454.604821,4062.47159 C456.093964,4062.47543 456.799725,4063.20757 456.805051,4064.74459 C456.807048,4065.31627 456.813305,4065.88837 456.795598,4066.45937 C456.750464,4067.91047 455.998637,4068.99783 454.671257,4069.45065 C454.280632,4069.58406 454.122065,4069.79517 454.019283,4070.18484 C453.286095,4072.96282 453.070013,4073.12328 450.259083,4073.12259 C449.172282,4073.12246 448.085481,4073.12644 446.99868,4073.12163 C445.727484,4073.11587 444.963275,4072.51769 444.619514,4071.2696 C444.57731,4071.11601 444.527117,4070.9631 444.501821,4070.80608 C444.380266,4070.0506 444.07192,4069.56512 443.283746,4069.26164 C442.126915,4068.8161 441.592369,4067.76909 441.538581,4066.50041 C441.510489,4065.83854 441.517945,4065.17407 441.535253,4064.51153 C441.568271,4063.2438 442.321562,4062.48064 443.55974,4062.47323 C445.444966,4062.46198 447.330192,4062.47035 449.215418,4062.47035 Z M423.3515,4037.60616 C424.428953,4037.60616 425.506543,4037.59823 426.583996,4037.60833 C427.762106,4037.61933 428.57909,4038.34653 428.583916,4039.36828 C428.588604,4040.37505 427.763347,4041.1327 426.587167,4041.14178 C424.409373,4041.15853 422.231164,4041.15789 420.05337,4041.14127 C418.846027,4041.13206 417.976095,4040.34385 418.000501,4039.33681 C418.025045,4038.32287 418.895529,4037.60795 420.119004,4037.6036 C421.196457,4037.60002 422.274047,4037.60296 423.3515,4037.60296 L423.3515,4037.60616 Z M475.074569,4037.63434 C476.157523,4037.6345 477.240884,4037.6234 478.323702,4037.63777 C479.423617,4037.65214 480.252692,4038.60512 480.270875,4039.84668 C480.289193,4041.08383 479.481829,4042.12924 478.38897,4042.1477 C476.178148,4042.18526 473.966241,4042.1833 471.755284,4042.14966 C470.611948,4042.13235 469.830501,4041.11405 469.86076,4039.80503 C469.889798,4038.54469 470.691735,4037.64937 471.825301,4037.63663 C472.908255,4037.62454 473.99148,4037.63418 475.074569,4037.63434 Z M447.4027,4013.32803 C447.4027,4012.24073 447.394964,4011.15329 447.404855,4010.066 C447.415761,4008.86052 448.189172,4007.97833 449.197055,4008.00041 C450.182111,4008.02221 450.915704,4008.88538 450.920904,4010.0678 C450.930541,4012.2424 450.9294,4014.41728 450.921665,4016.59187 C450.917607,4017.76346 450.170064,4018.64302 449.193758,4018.65649 C448.174082,4018.67038 447.417917,4017.80484 447.407011,4016.59007 C447.397374,4015.50291 447.404982,4014.41547 447.404982,4013.32803 L447.4027,4013.32803 Z M470.919678,4059.52296 C470.871143,4060.35352 470.571033,4060.82723 470.003808,4061.10605 C469.426899,4061.38984 468.828594,4061.34035 468.377472,4060.90299 C466.975571,4059.5438 465.595178,4058.16082 464.245529,4056.7493 C463.679431,4056.15713 463.768732,4055.2242 464.342487,4054.65309 C464.921874,4054.07621 465.833127,4053.99807 466.425126,4054.57144 C467.814077,4055.91705 469.175212,4057.29289 470.514614,4058.68844 C470.754027,4058.93792 470.835219,4059.34108 470.919678,4059.52296 Z M429.058942,4017.47258 C429.4226,4017.74601 429.847658,4017.93485 430.139397,4018.30727 C431.429046,4019.9537 432.686467,4021.64498 433.943097,4023.33611 C434.620318,4024.24744 434.633321,4025.5135 434.004045,4026.34804 C433.383816,4027.17073 432.412367,4027.14688 431.730397,4026.25444 C430.455901,4024.58687 429.19113,4022.90624 427.930769,4021.21976 C427.398966,4020.50821 427.27311,4019.62913 427.552072,4018.81649 C427.809663,4018.06609 428.359445,4017.60982 429.058942,4017.47258 Z M465.484978,4026.94517 C464.801528,4026.80756 464.315684,4026.44022 464.042664,4025.66967 C463.76322,4024.88067 463.794557,4024.0696 464.254136,4023.43861 C465.597477,4021.59424 466.958854,4019.77163 468.347172,4017.98744 C468.928381,4017.2403 469.875945,4017.33754 470.438329,4018.07733 C471.027767,4018.85238 471.101038,4020.11377 470.5178,4020.91643 C469.189226,4022.74504 467.833711,4024.54033 466.457905,4026.30607 C466.209911,4026.62449 465.813007,4026.73749 465.484978,4026.94517 Z M434.4639,4056.0082 C434.359173,4056.19871 434.229365,4056.61292 433.96105,4056.89307 C432.696753,4058.21282 431.40263,4059.50394 430.102519,4060.78847 C429.436309,4061.4467 428.514437,4061.44045 427.881441,4060.81608 C427.25737,4060.20045 427.240762,4059.24696 427.887767,4058.58362 C429.177145,4057.2616 430.481888,4055.9548 431.792731,4054.65437 C432.301116,4054.14996 432.946991,4054.04908 433.556263,4054.34104 C434.159321,4054.63017 434.439836,4055.13037 434.4639,4056.0082 Z" id="light-bulb"></path>
        </g>
    </g>
</svg>