<?xml version="1.0" encoding="UTF-8"?>
<svg width="51px" height="51px" viewBox="0 0 51 51" version="1.1" xmlns="http://www.w3.org/2000/svg" xmlns:xlink="http://www.w3.org/1999/xlink">
    <!-- Generator: Sketch 52.2 (67145) - http://www.bohemiancoding.com/sketch -->
    <title>Fill 1</title>
    <desc>Created with Sketch.</desc>
    <g id="Page-1" stroke="none" stroke-width="1" fill="none" fill-rule="evenodd">
        <g id="Lesson-13" transform="translate(-408.000000, -3184.000000)" fill="#F67102">
            <path d="M445,3224.44151 C436.171528,3215.60262 427.384796,3206.80484 418.591,3198 C414.05989,3203.71444 412.968211,3214.51382 420.353099,3222.18425 C427.581298,3229.69088 438.552672,3229.35878 445,3224.44151 M449.426705,3220 C454.294343,3213.60637 454.695215,3202.92441 447.44997,3195.6464 C439.841757,3188.00487 428.921211,3188.94834 423,3193.57257 C431.797981,3202.37079 440.591464,3211.16452 449.426705,3220 M433.45878,3234.99979 C419.349256,3234.94256 407.975606,3223.57413 408.000039,3209.55185 C408.025115,3195.28457 419.430914,3183.92386 433.652316,3184.00038 C447.725833,3184.07626 459.051902,3195.49678 458.999821,3209.55828 C458.94774,3223.68345 447.530368,3235.05638 433.45878,3234.99979" id="Fill-1"></path>
        </g>
    </g>
</svg>