<?xml version="1.0" encoding="UTF-8"?>
<svg width="70px" height="31px" viewBox="0 0 70 31" version="1.1" xmlns="http://www.w3.org/2000/svg" xmlns:xlink="http://www.w3.org/1999/xlink">
    <!-- Generator: Sketch 52.2 (67145) - http://www.bohemiancoding.com/sketch -->
    <title>Combined Shape</title>
    <desc>Created with Sketch.</desc>
    <g id="Page-1" stroke="none" stroke-width="1" fill="none" fill-rule="evenodd">
        <g id="Lesson-13" transform="translate(-354.000000, -4847.000000)" fill="#32C5DD">
            <path d="M410.693272,4847 L410.693272,4855.734 L424,4855.734 L424,4869.23748 L410.713109,4869.23748 L410.713109,4878 C405.403587,4872.75839 400.225902,4867.64683 395,4862.48788 C400.214054,4857.34215 405.384163,4852.23968 410.693272,4847 Z M367.285426,4878 L367.285426,4869.29255 L354,4869.29255 L354,4855.84558 L367.248875,4855.84558 L367.248875,4847 C372.575604,4852.24746 377.759702,4857.35432 383,4862.51673 C377.79639,4867.64376 372.609407,4872.75446 367.285426,4878 Z M387,4877 L387,4847 L392,4847 L392,4877 L387,4877 Z" id="Combined-Shape"></path>
        </g>
    </g>
</svg>