<?xml version="1.0" encoding="UTF-8"?>
<svg width="73px" height="73px" viewBox="0 0 73 73" version="1.1" xmlns="http://www.w3.org/2000/svg" xmlns:xlink="http://www.w3.org/1999/xlink">
    <!-- Generator: Sketch 51.1 (57501) - http://www.bohemiancoding.com/sketch -->
    <title>Group 16</title>
    <desc>Created with Sketch.</desc>
    <defs></defs>
    <g id="Page-1" stroke="none" stroke-width="1" fill="none" fill-rule="evenodd">
        <g id="Lesson-4" transform="translate(-347.000000, -9475.000000)" fill="#F67102">
            <g id="Group-16" transform="translate(347.000000, 9475.000000)">
                <path d="M59.2100357,11.7066566 C47.4362258,0.176620362 26.2021443,-1.1680991 12.4497371,12.8201543 C-1.68253439,27.1942176 0.800786878,48.3632267 11.6259271,59.2253624 C27.4642846,43.4091362 43.3023118,27.5925796 59.2100357,11.7066566 M13.7416059,61.3037154 C26.1331081,73.3051136 47.9188186,73.9660774 61.3782348,59.2815163 C74.6777778,44.7723534 71.952995,24.2368919 61.3058955,13.7856701 C45.4774475,29.5985932 29.6496602,45.411186 13.7416059,61.3037154 M72.9901896,36.4681905 C72.9531941,56.8074439 56.6305923,72.9913127 36.1453389,73.0002312 C16.2645652,73.0084891 -0.0785162896,56.4074303 0.000429411765,36.285195 C0.0787144796,16.2386023 16.5383977,-0.0823479638 36.5873027,0.00650723982 C56.710529,0.0956927602 73.0258638,16.4374529 72.9901896,36.4681905" id="Fill-1"></path>
                <path d="M59.9681588,42.2293166 C59.9681588,43.6808551 60.0500027,44.9146967 59.9512598,46.1333265 C59.7345558,48.805861 57.6970735,50.7847401 55.0674657,50.9851971 C54.7931064,51.0061555 54.5160963,50.9987186 54.2404116,50.9987186 C45.6378562,50.9993947 37.0353008,50.9990566 28,50.9990566 C29.2134103,49.7418904 30.1753246,48.7260839 31.1577826,47.7312358 C32.9570229,45.9095448 34.4842233,43.3992688 36.654909,42.4835218 C38.8275827,41.5667606 41.6480492,42.2360774 44.1848786,42.2316829 C49.3632445,42.2232319 54.5416104,42.2293166 59.9681588,42.2293166 Z M60,31.8819647 C59.6343051,31.9256017 59.3273372,31.9938887 59.0200518,31.9945549 C55.4462727,32.0022163 51.8724935,31.9995515 48.2990318,31.9995515 L48,31.5671786 C49.4046876,30.1981089 50.8401672,28.8620168 52.2051743,27.4509756 C53.5882758,26.0209473 54.9012222,24.5166361 56.2859108,23 C58.6356277,25.6385404 59.9012751,28.4542938 60,31.8819647 Z M42,36.9212898 C42.9992819,35.8301089 43.8530966,35.0378938 45.8621721,35.3069926 C48.0194275,35.5959042 50.317403,34.9651484 52.5479007,35.0015211 C54.4145607,35.0319796 56.2968186,35.3619952 58.116685,35.7538149 C58.5283335,35.8425288 58.7114391,36.737652 59,37.2613597 C58.3869353,37.4976343 57.5653336,38.0822589 57.1947143,37.9134068 C54.6278448,36.7453405 52.1216715,37.4920158 49.5883714,37.8696413 C47.250384,38.2179912 44.3837638,37.8569256 42,36.9212898 Z M13,31.8441681 C13.2076234,27.2665241 15.4172363,23.9141089 18.9218674,21.3225005 C24.6367685,17.0962936 31.2179718,15.7273533 38.25253,16.0435827 C41.8734566,16.2068185 45.3846582,16.8719244 49,18.543651 C45.7857788,21.6198457 42.4611755,24.3468438 39.7200204,27.5481859 C36.7587582,31.0068645 33.4206857,32.3370762 28.8132192,31.9286666 C24.1981968,31.5192968 19.5151711,31.8422477 14.8617121,31.8441681 C14.2697225,31.8441681 13.6777329,31.8441681 13,31.8441681 Z M13.164592,42 L24,42 C21.3955983,44.6136108 18.7972564,47.2212279 16.0282857,50 C13.565171,49.2048283 12.5780754,46.8602706 13.164592,42 Z M30,36.4513504 C28.9666147,38.0836289 28.0024701,39.1148367 25.9915493,38.0682169 C25.1142823,37.6118094 23.7791118,38.1431756 22.6549297,38.2601672 C20.3970939,38.4952013 18.1435039,38.7866296 15.8830551,38.9883876 C14.8467304,39.08086 13.9433347,38.6279553 14.0027773,37.3813288 C14.0589537,36.1991529 14.9538575,36.1350526 15.9291068,36.0853137 C18.0278849,35.9788303 20.1514852,35.8369692 22.2009457,35.3788103 C24.2873127,34.9122448 26.2485892,34.6975267 28.2026803,35.8156024 C28.7190464,36.1108837 29.3284955,36.2205196 30,36.4513504 Z" id="Combined-Shape"></path>
            </g>
        </g>
    </g>
</svg>