<?xml version="1.0" encoding="UTF-8"?>
<svg width="103px" height="103px" viewBox="0 0 103 103" version="1.1" xmlns="http://www.w3.org/2000/svg" xmlns:xlink="http://www.w3.org/1999/xlink">
    <!-- Generator: Sketch 52.2 (67145) - http://www.bohemiancoding.com/sketch -->
    <title>Group 14</title>
    <desc>Created with Sketch.</desc>
    <g id="Page-1" stroke="none" stroke-width="1" fill="none" fill-rule="evenodd">
        <g id="Desktop" transform="translate(-531.000000, -3974.000000)">
            <g id="Group-14" transform="translate(531.000000, 3974.000000)">
                <rect id="Rectangle-6" fill-opacity="0.7" fill="#05BCB0" x="0" y="0" width="103" height="103"></rect>
                <g id="lying" transform="translate(6.130952, 17.166667)" stroke="#05BCB0" stroke-opacity="0.7">
                    <path d="M25.9354239,4.9047619 L40.9466881,7.95128727 C40.9466881,7.95128727 45.2355648,10.4901241 46.496953,11.3785297 C47.7583412,12.2671325 49.2722814,13.7903952 49.1461033,15.0599122 C49.0199253,16.329232 42.1983392,26.8852731 42.1983392,26.8852731 C42.1983392,26.8852731 43.2173045,30.8025077 45.4879208,32.4196188 C47.7583412,34.0365328 49.1813011,34.2068307 49.1813011,34.2068307 C49.1813011,34.2068307 53.0749459,33.6836765 58.8469916,32.4196188 C64.6190372,31.1555611 70.1054519,30.8997936 71.8144525,31.7284595 C73.5234532,32.5571255 80.2552518,41.4358581 83.0380254,44.9825799 C85.8206031,48.5294988 87.3045662,51.1430595 87.0263476,51.9831608 C86.7481291,52.8230649 85.0786216,54.2232993 83.9653554,54.8766895 C82.8524811,55.5298825 79.7912929,56.2767268 79.7912929,56.2767268 C79.7912929,56.2767268 80.4407961,57.7700211 78.863767,58.7035765 C77.2869337,59.6369347 72.7419784,61.9703302 67.64039,61.130229 C62.5388016,60.2903249 60.776424,46.3826172 60.776424,46.3826172 C60.776424,46.3826172 57.357954,47.9196924 52.6323525,49.7501363 C47.906751,51.5805801 43.1911093,50.9198787 42.1983392,50.6399107 C41.2053731,50.3599426 34.0631885,45.3197294 32.1152666,43.0793937 C30.1673446,40.8392551 25.2513005,34.3775141 25.2513005,34.3775141 C25.2513005,34.3775141 20.2419352,32.8713994 12.821532,30.8997936 C5.40112881,28.9283849 0.485084753,27.3414393 0.0213217991,24.0744885 C-0.442441155,20.8077347 6.79241767,16.1407465 8.74033963,14.9274203 C10.6882616,13.7138969 16.8100501,10.260432 16.8100501,10.260432 L25.9354239,4.9047619 Z" id="Stroke-1" fill="#FFFFFF"></path>
                    <path d="M41.6904762,12.875 C41.6904762,19.9855888 35.926065,25.75 28.8154762,25.75 C21.7048874,25.75 15.9404762,19.9855888 15.9404762,12.875 C15.9404762,5.76441123 21.7048874,0 28.8154762,0 C35.926065,0 41.6904762,5.76441123 41.6904762,12.875 Z" id="Stroke-3" stroke-width="0.5" fill="#FFFFFF"></path>
                    <path d="M11.0357143,23.297619 L17.1666667,19.6190476" id="Stroke-5" stroke-width="0.5"></path>
                    <path d="M50.2738095,39.1902229 C50.2738095,39.1902229 63.2643497,36.5313048 64.5525721,36.8055601 C65.8407944,37.0799963 71.489154,44.3932881 73.5701286,47.2272587 C75.6511032,50.0614105 79.702381,56.4047619 79.702381,56.4047619" id="Stroke-7" stroke-width="0.5"></path>
                </g>
            </g>
        </g>
    </g>
</svg>