<?xml version="1.0" encoding="UTF-8"?>
<svg width="105px" height="105px" viewBox="0 0 105 105" version="1.1" xmlns="http://www.w3.org/2000/svg" xmlns:xlink="http://www.w3.org/1999/xlink">
    <!-- Generator: Sketch 52.2 (67145) - http://www.bohemiancoding.com/sketch -->
    <title>Group 3</title>
    <desc>Created with Sketch.</desc>
    <g id="Page-1" stroke="none" stroke-width="1" fill="none" fill-rule="evenodd">
        <g id="Desktop" transform="translate(-104.000000, -436.000000)">
            <g id="Group-3" transform="translate(104.000000, 436.000000)">
                <rect id="Rectangle" fill-opacity="0.7" fill="#05BCB0" fill-rule="nonzero" x="0" y="0" width="105" height="105"></rect>
                <g id="Group-16" transform="translate(24.000000, 26.000000)" fill="#FFFFFF">
                    <path d="M24.2918736,26.027643 C26.1208799,28.4301933 27.804339,30.6414416 29.5445214,32.927294 C31.2923642,30.6301664 32.9791063,28.4130926 34.7028736,26.1475356 C36.7999931,27.1835356 38.4843642,28.6750523 39.8473642,30.5386497 C43.3246283,35.2933879 44.4658421,40.6846094 43.8028547,46.5277772 C43.7537918,46.9592403 43.4537604,47.4064886 43.1663138,47.7558309 C40.4826283,51.0220591 37.0901755,53.1806899 32.9896849,53.7444483 C27.2338233,54.5355893 21.8374522,53.6078309 17.3729113,49.2971463 C15.9632195,47.9358577 15.1182069,46.4834282 15.1307918,44.3894416 C15.1663579,38.445549 16.6564836,33.1018711 20.8341252,28.8159919 C21.8474836,27.7764215 23.0959428,26.9802067 24.2918736,26.027643" id="Fill-1"></path>
                    <path d="M20.9761263,25.5477927 C14.2515211,30.4504058 11.7624684,37.5857927 11.6031263,45.9260993 C7.02623158,45.3091212 3.24438947,43.3515299 0.404784211,39.6156905 C0.2681,39.4359679 0.1701,39.1862161 0.147073684,38.9590482 C-0.457321053,33.0173839 0.752205263,27.5962891 4.68233684,23.0514131 C5.60762632,21.9814277 6.83815263,21.1908 7.93457368,20.2794715 C8.38681053,19.9033255 8.71323158,19.9892964 9.08017895,20.4941139 C10.2991,22.1698803 11.5708895,23.8044642 12.8248105,25.4529022 C13.0022053,25.6863328 13.1924947,25.9095153 13.4345474,26.2088 C15.0338632,24.1098219 16.5863895,22.0723328 18.0685474,20.1272672 C19.0397053,21.9377781 19.9944684,23.7177343 20.9761263,25.5477927" id="Fill-4"></path>
                    <path d="M48.1626254,20 C50.3012205,21.0608211 51.9691668,22.5593118 53.3038622,24.4285766 C56.4264216,28.8016607 57.4231671,33.7195986 56.8433142,39.0143921 C56.8066622,39.3488681 56.6292291,39.7101403 56.4160839,39.9762007 C53.6585405,43.4203536 50.0446568,45.3154644 45.6977338,46 C45.5530056,37.6331582 42.9503402,30.501027 36,25.5638947 C36.9097205,23.9302834 37.8254558,22.2856495 38.7746477,20.5811521 C40.2082094,22.4306525 41.6959032,24.3498988 43.2452475,26.3487731 C44.9009765,24.2109772 46.522685,22.1172713 48.1626254,20" id="Fill-7"></path>
                    <path d="M29.5515254,26 C26.541541,25.9427961 24.2418306,24.6214234 22.5965385,22.2161108 C20.3974062,19.00096 20.4851526,14.6930687 22.7669363,11.5343884 C26.1043186,6.914076 32.5984954,6.8062687 36.0841974,11.3134568 C39.2843934,15.45157 38.37051,21.6365549 34.1252827,24.5513854 C32.7571937,25.4908489 31.2419173,25.9992666 29.5515254,26" id="Fill-9"></path>
                    <path d="M17.3893049,15.4303526 C16.2658496,15.9162622 15.2157665,16.5654525 14.0806008,16.8261023 C10.1280141,17.7333209 6.28228373,15.0028644 5.25562119,10.6871628 C4.16711372,6.11137317 6.65609794,1.43240963 10.7993427,0.262106997 C15.136905,-0.96324667 19.1176696,2.28064497 19.9869752,6.39505453 C20.0288761,6.59335061 19.9664822,6.87890445 19.8457199,7.03937635 C18.0126946,9.47884877 16.9721261,12.1673616 17.3893049,15.4303526" id="Fill-11"></path>
                    <path d="M50.9236829,8.13451848 C50.9317317,12.7245185 48.1453902,16.2017576 44.235878,16.8418446 C42.6713049,17.098138 41.2045976,16.7474207 39.8593537,15.947312 C39.6107561,15.7994859 39.4179512,15.3552685 39.4033171,15.0383663 C39.2630122,11.964138 38.356061,9.19720326 36.3965488,6.7955837 C36.1772195,6.526725 36.0994756,5.96923587 36.2066707,5.62535543 C37.2592317,2.24956196 40.3108171,-0.018275 43.5449634,0.108670652 C46.8502683,0.238572826 49.7875244,2.76067065 50.6295366,6.23550761 C50.8089878,6.97667065 50.865878,7.74795326 50.9236829,8.13451848" id="Fill-13"></path>
                </g>
            </g>
        </g>
    </g>
</svg>