<?xml version="1.0" encoding="UTF-8"?>
<svg width="58px" height="61px" viewBox="0 0 58 61" version="1.1" xmlns="http://www.w3.org/2000/svg" xmlns:xlink="http://www.w3.org/1999/xlink">
    <!-- Generator: Sketch 52.2 (67145) - http://www.bohemiancoding.com/sketch -->
    <title>Group 18</title>
    <desc>Created with Sketch.</desc>
    <g id="Page-1" stroke="none" stroke-width="1" fill="none" fill-rule="evenodd">
        <g id="Lesson-11" transform="translate(-404.000000, -8740.000000)">
            <g id="Group-18" transform="translate(404.000000, 8740.000000)">
                <path d="M2.80508036,35.0299876 C2.80508036,41.9427544 2.80374107,48.8552518 2.80588393,55.7682881 C2.8066875,57.8280808 3.17579464,58.2055523 5.22222321,58.2060912 C16.7357946,58.2093244 28.2493661,58.2093244 39.7629375,58.2058218 C41.7399911,58.2052829 42.2138304,57.7316249 42.2143661,55.7443088 C42.2186518,41.9635005 42.2181161,28.1829617 42.2151696,14.4021534 C42.2146339,12.3617596 41.7975804,11.9406404 39.8063304,11.9401016 C28.2480268,11.9382155 16.6899911,11.9382155 5.13195536,11.940371 C3.13641964,11.9409098 2.80722321,12.273656 2.80615179,14.291687 C2.80320536,21.2044539 2.80508036,28.1172207 2.80508036,35.0299876 Z M3.42999107,61.0000808 C0.898473214,60.0934487 -0.0157232143,58.3017389 8.03571429e-05,55.6058218 C0.0817767857,41.7805575 0.0373125,27.9542155 0.0383839286,14.1284124 C0.0386517857,10.6815938 1.50383036,9.19838135 4.92034821,9.19757306 C16.6128482,9.19460933 28.3050804,9.19487876 39.9975804,9.19730363 C43.4467768,9.19811192 44.9282946,10.7144642 44.9282946,14.2307959 C44.9288304,27.9218839 44.8776696,41.6137803 44.9719554,55.3040601 C44.9904375,57.991086 44.2235625,59.9105057 41.7335625,61.0000808 L3.42999107,61.0000808 Z" id="Fill-1" fill="#32C5DD"></path>
                <path d="M18.5766961,0 C21.3962171,0.525007509 24.2084258,1.09512436 27.036613,1.56632675 C36.0606508,3.07015261 45.0909174,4.53294527 54.1171217,6.02128177 C56.9620998,6.49058196 58.3944738,8.56235072 57.9056413,11.5452738 C56.0480778,22.8775011 54.1704735,34.2067392 52.3050561,45.5376078 C51.8714712,48.1697107 51.4617185,50.8053462 51.0311125,53.4377208 C50.709106,55.4059555 50.224065,56.2029777 48.8453135,57 C48.8453135,54.4899098 48.5436186,51.98145 48.899207,49.5708177 C50.1915664,40.8043879 51.7013954,32.0705674 53.1345819,23.3250619 C53.7777825,19.3983753 54.4377741,15.4741344 55.0815164,11.5477195 C55.4162516,9.50529899 55.0744751,9.04224889 53.0633559,8.70854846 C41.6810059,6.82047798 30.2991977,4.9305053 18.9176602,3.03835867 C16.5506817,2.64487478 16.247091,2.85004076 15.7027401,5.34898955 L13.0004848,5.34898955 C12.9734027,2.78047455 14.0805203,0.991318526 16.4101255,0 L18.5766961,0 Z" id="Fill-4" fill="#32C5DD"></path>
                <path d="M31.4514209,19.3261579 C31.4514209,21.0509084 31.3956922,22.6385436 31.4677317,24.2201578 C31.534878,25.6991409 32.571975,26.5984634 34.0646879,26.6321264 C35.4921574,26.6646947 36.6736053,25.8209299 36.7546158,24.4938409 C36.8590051,22.7879745 36.7801694,21.0711609 36.7801694,19.3239684 L35.2020965,19.3239684 C35.2020965,20.7794148 35.1961158,22.1768403 35.2045431,23.5742659 C35.2086208,24.3093785 35.1159209,25.0056281 34.2008833,25.0477753 C33.2072818,25.0937541 33.0409114,24.3819045 33.0406395,23.5816553 C33.0403677,22.1828614 33.0406395,20.7843411 33.0406395,19.3261579 L31.4514209,19.3261579 Z M21.8114479,22.2170717 C21.2661224,22.192714 20.836332,22.2586716 20.4693383,22.1352405 C20.0066544,21.9795149 19.5953496,21.6697057 19.1620252,21.4261278 C19.6168256,21.218676 20.0542277,20.917351 20.5310476,20.8278567 C21.0888781,20.7233098 21.6809612,20.8034989 22.318171,20.8034989 L22.318171,19.3373789 L17.5904767,19.3373789 L17.5904767,26.5492004 L22.2852775,26.5492004 L22.2852775,24.9733335 L19.2579873,24.9733335 C19.1688214,24.8504499 19.0799274,24.7272925 18.9907615,24.6044088 C19.3080072,24.2817365 19.576864,23.7828124 19.9539161,23.6782654 C20.5242515,23.5203503 21.1698885,23.637213 21.8114479,23.637213 L21.8114479,22.2170717 Z M24.178965,19.2927686 L24.178965,26.6146107 C24.7150477,26.5897055 25.1472847,26.5700003 25.7317561,26.5429057 L25.7317561,23.218478 C27.3897521,24.0266639 27.1189923,26.8341045 29.5732287,26.5845055 L29.5732287,19.2487056 C29.0303499,19.2788107 28.5956662,19.3028948 28.1057976,19.3297158 C28.0525155,20.4619425 28.0027675,21.5087801 27.9497573,22.6289647 C26.3792961,21.7074739 26.6353762,19.0010225 24.178965,19.2927686 Z M12.3250685,22.6845224 C11.8642876,21.7397685 11.415196,21.005477 11.1403585,20.2096067 C10.7551511,19.0932536 10.0195326,19.1589376 9.14255356,19.3600946 L9.14255356,26.5300426 L10.7508015,26.5300426 L10.7508015,23.5397818 C11.3597392,24.2048316 11.8093744,25.0907436 12.2701554,25.0967646 C12.8100439,25.103333 13.3594471,24.3444099 13.9855111,23.8545173 C14.0273756,24.7305767 14.0695119,25.6085519 14.1121919,26.5026743 L15.5722832,26.5026743 L15.5722832,19.2908528 C15.0992691,19.2908528 14.4734768,19.1293798 14.3413591,19.3179474 C13.6516828,20.3023853 13.0878717,21.3757701 12.3250685,22.6845224 Z M10.5175566,42.419532 L35.2890876,42.419532 L35.2890876,40.9714751 L10.5175566,40.9714751 L10.5175566,42.419532 Z M10.5178285,34.2812934 C10.8391518,34.3324721 11.055814,34.3970613 11.2724763,34.397335 C18.9605865,34.4047244 26.6486967,34.3970613 34.336535,34.4164928 C35.7050138,34.419777 35.4464871,33.6542856 35.2708738,32.8335102 L10.5178285,32.8335102 L10.5178285,34.2812934 Z M10.518644,50.5260233 L35.3980983,50.5260233 C35.368467,49.9425311 35.3445444,49.4698805 35.3211655,49.0037983 L10.518644,49.0037983 L10.518644,50.5260233 Z M3.00071013,34.4556295 C3.00071013,27.433744 2.99853535,20.4118585 3.00179752,13.389973 C3.00288491,11.3400871 3.3369851,11.0020885 5.36197477,11.0015412 C17.0924526,10.9993517 28.8226586,10.9996254 40.5528646,11.0015412 C42.5740484,11.0018149 42.9973145,11.4295814 42.9978582,13.502183 C43.0005767,27.5005226 43.0011203,41.4988623 42.9970426,55.4969282 C42.9964989,57.5156142 42.5156013,57.996749 40.5088254,57.9972964 C28.8240178,58.0008542 17.1389385,58.0008542 5.45385912,57.99757 C3.37694663,57.9970227 3.00234121,57.6135927 3.00152567,55.521286 C2.99907905,48.4994005 3.00071013,41.477515 3.00071013,34.4556295 Z" id="Fill-6" fill="#FFFFFF"></path>
                <path d="M10,51 L10,49 L34.9226945,49 C34.9461866,49.6123697 34.9702251,50.2333693 35,51 L10,51 Z" id="Fill-8" fill="#32C5DD"></path>
                <path d="M10,34.8291401 L10,33 L34.8570199,33 C35.0333708,34.036824 35.2929834,35.0044803 33.9187564,34.9999844 C26.1986255,34.9757757 18.4782216,34.9851133 10.7578177,34.9761215 C10.5402454,34.9757757 10.3226731,34.893812 10,34.8291401" id="Fill-10" fill="#32C5DD"></path>
                <polygon id="Fill-12" fill="#32C5DD" points="10 43 35 43 35 41 10 41"></polygon>
                <path d="M12.464781,23.3143702 C13.2955353,22.0600337 13.9093523,21.0310161 14.6599019,20.0877719 C14.8037375,19.9067823 15.485033,20.0618038 16,20.0618038 L16,26.9735073 L14.4104093,26.9735073 C14.3639439,26.1168233 14.3183663,25.2753529 14.2724928,24.4354563 C13.5911974,24.90498 12.9927702,25.6326106 12.4052934,25.626053 C11.9036445,25.6205446 11.4138339,24.7714674 10.7508879,24.133807 L10.7508879,27 L9,27 L9,20.1279043 C9.95505665,19.9353734 10.7559192,19.8724205 11.1752917,20.9423575 C11.4742094,21.7048744 11.963428,22.4088977 12.464781,23.3143702" id="Fill-14" fill="#32C5DD"></path>
                <path d="M24,20.0418757 C26.7322481,19.7646119 26.4474122,22.3367146 28.1942247,23.2124624 C28.2531875,22.1476238 28.3085219,21.1530116 28.3677871,20.0769888 C28.9126644,20.0512392 29.3961599,20.0283506 30,20 L30,26.9713893 C27.2701708,27.2085981 27.571335,24.5405195 25.7271582,23.772452 L25.7271582,26.9321146 C25.0770549,26.9576041 24.5962808,26.9765912 24,27 L24,20.0418757 Z" id="Fill-15" fill="#32C5DD"></path>
                <path d="M21.5712725,22.7951121 L21.5712725,24.1735418 C21.028463,24.1735418 20.4822034,24.0603772 19.999655,24.2136541 C19.6806394,24.3151304 19.4531654,24.7994004 19.1847507,25.1125953 C19.2601921,25.2318698 19.3354034,25.3511442 19.4108447,25.4704186 L21.9721695,25.4704186 L21.9721695,27 L18,27 L18,20 L22,20 L22,21.4233236 C21.4608706,21.4233236 20.9599218,21.3454897 20.4879535,21.446966 C20.0845265,21.5338317 19.71445,21.8263064 19.3296533,22.0273993 C19.6962797,22.263823 20.0442758,22.5647983 20.4357426,22.7156844 C20.7462481,22.8354901 21.1098844,22.7714698 21.5712725,22.7951121" id="Fill-16" fill="#32C5DD"></path>
                <path d="M31.0229394,20.0020969 L32.7960116,20.0020969 C32.7960116,21.3986199 32.7957083,22.738003 32.7960116,24.0776481 C32.7963149,24.8440583 32.9819325,25.5258068 34.0904817,25.4817723 C35.1113783,25.4414074 35.2148024,24.7745991 35.210253,24.0705711 C35.2008508,22.7322365 35.2075233,21.3939019 35.2075233,20 L36.9681604,20 C36.9681604,21.6733114 37.0561164,23.3175286 36.9396505,24.9512613 C36.8492681,26.2222336 35.5311409,27.0303193 33.9385301,26.9991282 C32.2731282,26.9668886 31.1160515,26.1055946 31.0411372,24.6891511 C30.9607636,23.1744164 31.0229394,21.6539152 31.0229394,20.0020969" id="Fill-17" fill="#32C5DD"></path>
            </g>
        </g>
    </g>
</svg>