<?xml version="1.0" encoding="UTF-8"?>
<svg width="64px" height="64px" viewBox="0 0 64 64" version="1.1" xmlns="http://www.w3.org/2000/svg" xmlns:xlink="http://www.w3.org/1999/xlink">
    <!-- Generator: Sketch 51 (57462) - http://www.bohemiancoding.com/sketch -->
    <title>motivated</title>
    <desc>Created with Sketch.</desc>
    <defs></defs>
    <g id="Page-1" stroke="none" stroke-width="1" fill="none" fill-rule="evenodd">
        <g id="Lesson-1" transform="translate(-532.000000, -4557.000000)">
            <g id="motivated" transform="translate(532.000000, 4557.000000)">
                <rect id="Rectangle-3" fill-opacity="0.7" fill="#05BCB0" fill-rule="nonzero" x="0" y="0" width="64" height="64"></rect>
                <path d="M27.0204564,31.5016699 C27.1095622,31.5163726 27.1813516,31.5402951 27.2217571,31.5746179 C27.4361391,31.755969 27.7855768,31.836247 27.7850747,32.1994327 C27.7845727,32.2908336 27.833273,32.3213006 27.9216366,32.3498331 C29.4333562,32.8377883 30.9726894,32.4426849 31.918079,31.3144396 C32.2976406,30.8613038 32.4638244,30.3346604 32.4648285,29.7567551 C32.4668368,28.9641302 32.4658326,28.1715053 32.4658326,27.3783968 C32.4658326,26.5857719 32.4658326,25.7931469 32.4653306,25.000522 C32.4648285,23.4539604 32.4718574,21.9069152 32.4628202,20.3603535 C32.4527789,18.682252 31.1644785,17.435524 29.4735214,17.4509993 C27.7961202,17.4664746 26.5650552,18.6798339 26.5384458,20.3472963 C26.5309148,20.8110713 26.5484871,21.27533 26.532421,21.739105 C26.5143466,22.2667156 26.1915184,22.6158768 25.7431738,22.5762214 C25.2421123,22.5322135 24.9935898,22.2265766 25.0046352,21.7536131 C25.025722,20.8492759 24.9147655,19.9405863 25.194416,19.0468884 C25.7989031,17.1124774 27.6394757,15.8952493 29.8380211,16.0069615 C31.841263,16.1085181 33.570377,17.5888261 33.9082672,19.5154995 C33.9775523,19.913021 33.9931163,20.3235997 33.9936184,20.7278916 C33.9971328,23.6280574 34.014203,26.5287067 33.9720295,29.4279053 C33.9584738,30.396078 33.8254264,31.3768244 33.1642059,32.184441 C32.5446569,32.9412793 31.7970812,33.5472336 30.8145388,33.8088627 C29.0603214,34.2755393 27.5305274,33.8867227 26.234696,32.6462816 C25.9279339,32.3532184 25.8084423,32.0359749 26.0303553,31.6611828 C26.0700764,31.5939539 26.2218173,31.5420314 26.4057643,31.512113 C25.5072774,31.526295 24.6083942,31.5356393 23.7101503,31.5388354 C23.1308036,31.5413016 22.8657367,31.7834856 22.8896122,32.40103 C22.9246946,33.3071236 22.9144622,34.2156834 22.8944847,35.1222703 C22.8871759,35.4616238 22.9573407,35.5987463 23.3305783,35.6214356 C25.9505508,35.7792744 28.1285826,36.8728016 29.8300786,38.8946185 C30.1287662,39.2497559 30.2379114,39.1141131 30.4537656,38.8517061 C31.6699551,37.3754197 33.2155294,36.4565017 35.0787942,36.0757155 C35.4832162,35.9928501 35.8569411,35.9967961 35.9733951,36.4653801 C36.0986198,36.9704644 35.7648498,37.1613508 35.3272944,37.2476689 C33.5244493,37.6037928 32.108485,38.5705556 30.9994917,40.0399366 C30.8484425,40.2392081 30.851366,40.3526548 30.9571004,40.5440344 C31.2718674,41.1122542 31.5072118,41.7150013 31.6943179,42.3399444 C31.8200298,42.7606836 31.7781258,43.1049695 31.3201057,43.2342001 C30.8888847,43.3555387 30.6905717,43.0803072 30.5677833,42.6950818 C29.7033922,39.9832133 27.9658393,38.1182487 25.2898325,37.1904523 C23.993733,36.7406116 22.6601149,36.6755031 21.3109046,36.9053559 C21.1384161,36.9344574 20.9649532,36.9699712 20.791003,36.9803294 C20.4767233,36.9990727 20.2584328,36.8476461 20.1921661,36.5364076 C20.1210268,36.1995203 20.2667162,35.8695385 20.5883048,35.8586871 C21.4897273,35.8285991 21.4984979,35.2672847 21.460492,34.5940034 C21.416639,33.8141809 21.4044576,33.0313989 21.41469,32.2500967 C21.4327184,30.8872569 22.2620272,30.0556436 23.6107502,30.0388732 C24.7596985,30.024569 25.9101086,30.0590963 27.0585697,30.0260488 C28.1626905,29.994481 28.9817669,29.3019631 29.2102897,28.2843958 C29.435889,27.2806395 29.0270816,26.3089441 28.1641523,25.8013936 C27.7845803,25.5789395 27.3704132,25.4852227 26.9338323,25.4852227 C24.869331,25.4852227 22.8048297,25.4664793 20.7403284,25.4901552 C18.0940442,25.5202432 15.8706976,27.5243032 15.5344914,30.17057 C15.478457,30.6149849 15.5325423,31.0732108 15.5310806,31.5250245 C15.520361,34.8963634 15.5028198,38.2677024 15.4989217,41.6390413 C15.4964854,44.469289 17.4162719,46.4368488 20.2121436,46.4807477 C21.0307327,46.4935721 21.8488346,46.4738422 22.6669364,46.4842004 C23.2633371,46.4915991 23.6088012,46.7801482 23.5659227,47.2492255 C23.5176844,47.7824249 23.1697841,47.9738044 22.6727835,47.9624598 C22.2829792,47.9530881 21.885866,48.0073452 21.5053195,47.9491421 C20.8738364,47.8524658 20.7861305,48.1355893 20.7914903,48.6969036 C20.8192638,51.3989072 20.8046462,54.1009109 20.8051334,56.8034077 C20.8051334,56.9415167 20.8065952,57.0796257 20.8036717,57.2177347 C20.7914903,57.7154203 20.5351939,58.0113681 20.0479385,57.9995302 C19.5884566,57.9881855 19.3511632,57.6853322 19.3497014,57.2202009 C19.3458034,55.7212252 19.3482397,54.2222495 19.3482397,52.7232737 L19.3462906,52.7232737 C19.3462906,51.2834876 19.331673,49.8432082 19.356523,48.4039153 C19.3628573,48.0251021 19.2327601,47.90475 18.8858343,47.8342157 C16.0378262,47.2531715 14.0313083,44.8061763 14.0162034,41.8644549 C13.9972005,38.1956884 13.9923279,34.5269219 14.0157162,30.8581554 C14.0400789,27.0473339 16.9665351,24.0691124 20.7213255,24.0192945 C22.8248072,23.9916727 24.9292634,23.9966051 27.0327451,24.0148553 C29.1581534,24.0331054 30.7358865,25.6445413 30.736861,27.7576087 C30.7383227,29.8800479 29.1786181,31.4623822 27.038105,31.5013487 C27.0322221,31.5014559 27.0263393,31.501563 27.0204564,31.5016699 Z M30.995859,5.99987241 C30.9966847,7.7599165 30.9954462,9.51996059 30.9999876,11.2800047 C31.0012262,11.7034181 30.9099837,12.0404774 30.4566612,11.9959076 C30.0842597,11.9587661 29.9979716,11.6551341 30.0000359,11.2813975 C30.0074674,9.64995593 30.0078802,8.01897864 30.0103574,6.38753709 C30.0107703,6.25847029 30.0066417,6.12893921 30.0049902,5.99987241 L30.995859,5.99987241 Z M57.50965,33.4212724 C57.16415,33.7152724 56.74615,33.6542724 56.34315,33.6547724 C54.90365,33.6582724 53.46415,33.6577724 52.02465,33.6582724 C51.88465,33.6582724 51.74315,33.6707724 51.60565,33.6507724 C51.23965,33.5987724 51.03465,33.3892724 51.04015,33.0087724 C51.04515,32.6412724 51.25915,32.4532724 51.60665,32.4517724 C53.38565,32.4442724 55.16515,32.4592724 56.94415,32.4382724 C57.20765,32.4352724 57.28165,32.7062724 57.50965,32.7012724 L57.50965,33.4212724 Z M37.9577143,52.6771224 C37.9577143,51.2371224 37.9377143,49.7971224 37.9691429,48.3576224 C37.9791429,47.8911224 37.8381905,47.7656224 37.422,47.8076224 C37.0639048,47.8436224 36.6991429,47.8161224 36.3372381,47.8146224 C35.5905714,47.8111224 35.2691429,47.5801224 35.2786667,47.0546224 C35.2881905,46.5446224 35.6158095,46.3316224 36.3662857,46.3161224 C37.3362857,46.2966224 38.3086667,46.3846224 39.2767619,46.2606224 C41.4386667,45.9846224 43.1277143,44.0366224 43.1624762,41.7381224 C43.1881905,40.0386224 43.169619,38.3386224 43.1705714,36.6386224 C43.1705714,36.4791224 43.1653333,36.3186224 43.174381,36.1591224 C43.199619,35.7156224 43.4224762,35.4366224 43.8467619,35.4181224 C44.2991429,35.3986224 44.592,35.6721224 44.5910476,36.1411224 C44.5877143,38.2801224 44.742,40.4276224 44.524381,42.5551224 C44.2686667,45.0541224 42.2977143,47.1916224 39.9391429,47.6706224 C39.5186667,47.7561224 39.3934286,47.9031224 39.3967619,48.3526224 C39.4181905,51.1321224 39.4077143,53.9116224 39.4077143,56.6911224 C39.4077143,56.8316224 39.4100952,56.9711224 39.4062857,57.1111224 C39.3915238,57.6776224 39.1305714,58.0016224 38.6924762,58.0001224 C38.2510476,57.9981224 37.9686667,57.6791224 37.9648571,57.1161224 C37.954381,55.6366224 37.9615238,54.1566224 37.9615238,52.6771224 L37.9577143,52.6771224 Z M38.5128492,31.5953884 C38.647928,31.3119857 38.5932421,31.0060509 38.5932421,30.7101303 C38.5965139,27.4860484 38.5881007,24.2624672 38.5983835,21.038886 C38.6011879,20.0855311 38.330563,19.300916 37.5256992,18.8212343 C36.7301835,18.3475612 35.9561681,18.4366878 35.204588,18.9784578 C34.7605575,19.2989132 34.3665388,19.2343214 34.1262949,18.8497749 C33.888388,18.4702355 33.9865422,18.0331143 34.4212247,17.7216717 C35.5654213,16.9005047 36.7942173,16.7623083 38.0323614,17.398212 C39.2817231,18.0391228 39.9706715,19.1582132 39.9823566,20.6493323 C40.0094658,24.2128967 40.0010526,27.7769618 39.9856284,31.3405262 C39.9790847,32.8621887 39.2980821,33.976272 38.0169372,34.6131772 C36.8138482,35.2120282 35.6327269,35.1138888 34.5011502,34.328773 C34.0650655,34.0268439 34.1407843,33.6888636 34.3380274,33.3103256 C34.5483576,32.9077535 34.8292654,32.8256368 35.225621,33.0584677 C36.0734857,33.5571764 36.9264917,33.7334269 37.7346273,32.9528175 C38.222126,32.6508885 38.4890118,32.2032523 38.5128492,31.5953884 Z M45.9733471,27.5878869 C45.9733471,29.0501109 46.0036081,30.5133378 45.9661206,31.9750604 C45.9060502,34.3358803 43.4946539,35.7685189 41.6509904,34.5645408 C41.1830738,34.2586572 41.0245422,33.7336406 41.3253457,33.3134267 C41.6125995,32.9127692 41.8727539,32.988488 42.257114,33.3239571 C42.9793134,33.9552808 44.2267898,33.2582673 44.4801693,32.2513586 C44.6292161,31.6581449 44.6183764,31.082482 44.6197313,30.4952857 C44.6278611,28.1705701 44.6256029,25.8458545 44.6224413,23.5211389 C44.620183,21.7680747 43.4874274,21.03947 42.1202619,21.9084803 C41.7426767,22.1486742 41.3885777,22.1556945 41.1306816,21.7224429 C40.8691723,21.2821711 41.0254456,20.9085919 41.3754797,20.6353024 C42.3067962,19.908202 43.3212177,19.8049036 44.3401557,20.3264101 C45.3970329,20.8669717 45.9575391,21.8457993 45.9841869,23.1385337 C46.0148995,24.6208157 45.9914134,26.104602 45.9914134,27.5878869 L45.9733471,27.5878869 Z M18.0075388,21.5546818 C18.02028,18.1511035 21.3251709,16.0151221 24.342893,17.4563958 C24.9133101,17.7288974 25.121581,18.1168573 24.9314419,18.5527619 C24.7417929,18.9876881 24.3213308,19.0777065 23.7259212,18.8096081 C21.6265511,17.8649035 19.5320814,19.1838696 19.4845466,21.4798295 C19.478666,21.7723894 19.4899372,22.0673956 19.4571039,22.3570202 C19.4110393,22.7650386 19.1439625,23.0008478 18.7475128,22.9998694 C18.3250906,22.9988909 18.0531133,22.7503617 18.0119492,22.3159248 C17.9879368,22.0644602 18.0075388,21.8085925 18.0075388,21.5546818 Z M12.3987923,22.9939279 C12.1218206,22.9729782 11.98056,22.946408 11.8307228,22.8564778 C10.4857199,22.0506828 9.13062702,21.2627716 7.78158811,20.4651521 C7.62721044,20.3742 7.45618419,20.2822259 7.35023873,20.1452867 C7.18930252,19.9378341 6.85078154,19.6670216 7.07377152,19.4386193 C7.31088756,19.19591 7.61056187,18.8050202 8.10043351,19.1136443 C9.14374407,19.7707479 10.2238833,20.3696013 11.2485273,21.0542971 C11.5895708,21.2816774 12.0118391,21.2653265 12.3110089,21.551468 C12.439657,21.674611 12.6091697,21.7533 12.7418538,21.8728662 C12.9507177,22.0609021 13.0748253,22.3051443 12.9502132,22.5795336 C12.8271147,22.8518791 12.6132058,23.0358272 12.3987923,22.9939279 Z M41.066011,14.2980698 C40.9187862,14.0302925 41.096399,13.813398 41.2362888,13.5959895 C41.9210675,12.5336176 42.4900573,11.402888 43.2371839,10.37598 C43.4247515,10.1174541 43.4766207,9.76744185 43.6406114,9.48732929 C43.8407533,9.1450266 44.0634242,8.85360674 44.5815927,9.07975267 C45.15425,9.32902715 45.0227432,9.75819043 44.8634679,10.1015211 C44.617744,10.632964 44.2536114,11.1109542 43.9376806,11.6105311 C43.3199652,12.5870703 42.8568095,13.6499562 42.1929881,14.6023389 C41.9813197,14.9066079 41.7801299,15.0787872 41.3845615,14.9641723 C41.0172853,14.8582949 40.9177383,14.6557915 41.066011,14.2980698 Z M53.9996453,19.70083 C53.9273807,19.9335934 53.9191219,20.1493631 53.6073521,20.3105466 C52.1687715,21.0536386 50.753935,21.8461671 49.3876189,22.7195449 C49.2167649,22.8287171 49.0247477,22.9178058 48.8296334,22.9718769 C48.5178635,23.0589057 48.2515171,22.9389193 48.0899542,22.6690785 C47.9196163,22.3843038 48.001172,22.1350616 48.2504847,21.9095076 C48.7996952,21.412568 49.4924025,21.1566313 50.112329,20.7801931 C51.0615754,20.2039492 52.0304365,19.659118 52.9992975,19.1148018 C53.5211508,18.8212727 54.0151305,19.1163467 53.9996453,19.70083 Z M21,14.2722843 C20.9306066,14.5435384 20.8675217,14.8529538 20.5105662,14.9664061 C20.1667534,15.0762486 19.9512132,14.902976 19.7882438,14.6322375 C18.8940151,13.1516849 17.9971579,11.6726793 17.1097633,10.1880012 C16.8810805,9.80587317 17.0267015,9.11432978 17.3894398,9.02253655 C17.8084288,8.91681963 18.0649741,9.19580917 18.272103,9.55060548 C19.1253265,11.009499 19.9980012,12.4570473 20.8733045,13.9035643 C20.9400693,14.0144381 20.9952686,14.1139667 21,14.2722843 Z M6.9472746,32.000288 C7.74252273,32.000288 8.5382343,32.0011161 9.33348243,31.9998739 C9.70654464,31.9994598 10.0063847,32.0843458 9.99989666,32.4868292 C9.99433548,32.8652962 9.73064307,33.0002855 9.34460478,32.9998715 C7.77218233,32.997387 6.20022332,32.992004 4.62780087,32.9949025 C4.18429711,32.9957307 4.01097379,32.8209899 4.00031487,32.421819 C3.98872909,31.9828967 4.29876464,32.0044288 4.61667852,32.0031865 C5.3933894,32.0007021 6.17056372,32.0023584 6.9472746,32.0023584 L6.9472746,32.000288 Z" id="motivation" fill="#FFFFFF"></path>
            </g>
        </g>
    </g>
</svg>