<?xml version="1.0" encoding="UTF-8"?>
<svg width="50px" height="52px" viewBox="0 0 50 52" version="1.1" xmlns="http://www.w3.org/2000/svg" xmlns:xlink="http://www.w3.org/1999/xlink">
    <!-- Generator: Sketch 51 (57462) - http://www.bohemiancoding.com/sketch -->
    <title>mouse</title>
    <desc>Created with Sketch.</desc>
    <defs></defs>
    <g id="Page-1" stroke="none" stroke-width="1" fill="none" fill-rule="evenodd">
        <g id="Lesson-2" transform="translate(-469.000000, -6039.000000)">
            <g id="mouse" transform="translate(469.000000, 6039.000000)">
                <rect id="Rectangle-12" fill-opacity="0.6" fill="#F67102" fill-rule="nonzero" x="0" y="0" width="50" height="52"></rect>
                <path d="M26.279848,23.5669031 C25.8603459,24.2057689 25.4510541,24.8514406 25.0187205,25.481569 C24.5361166,26.1850063 24.0522595,26.2798753 23.3806135,25.8326219 C22.696167,25.376775 22.5807466,24.9030947 23.0405989,24.2031613 C23.4204477,23.6250661 23.8702774,23.0919168 24.2487453,22.5130588 C24.6652663,21.876249 25.0200801,21.2004275 25.4296868,20.5590529 C26.0490278,19.5896727 26.7569056,19.5298614 27.5528774,20.3648165 C27.9368228,20.7677547 27.8135505,21.1950929 27.5651031,21.6059394 C27.3586301,21.9477034 27.1301398,22.2765674 26.9110255,22.6108329 C26.7017111,22.930174 26.4919554,23.2492317 26.2823763,23.5684028 L26.279848,23.5669031 Z M35.4776282,28.1414737 L28.7730609,23.8354052 C28.9324947,23.5926013 29.0834267,23.3466947 29.2500761,23.1116271 C30.1031172,21.9080549 30.0697369,20.6601698 29.4765718,19.3669387 C29.3981126,19.1961861 29.3595505,18.9151858 29.4483029,18.776011 C30.4202763,17.2512589 31.4208949,15.744408 32.4154553,14.2337904 C32.4520494,14.1782517 32.5059401,14.1338221 32.5500146,14.0861899 C36.950355,17.1201887 38.3292247,23.6105302 35.4776282,28.1414737 Z M30.6393217,12.8157249 C29.5867266,14.418737 28.5606195,15.9871424 27.5227754,17.5480095 C27.45992,17.6423953 27.2964991,17.7399419 27.1919617,17.7285155 C25.3441861,17.5262474 24.0521272,18.3102475 23.197049,19.892953 C23.1572335,19.9667724 23.0963279,20.0295282 23.0232308,20.1265184 L16.340196,15.8342793 C19.0204443,11.8187933 25.3975663,9.7974642 30.6393217,12.8157249 Z M15.0330529,17.7018955 L21.7906574,22.0420276 C21.5822244,22.3594531 21.3840441,22.6583986 21.188776,22.9592145 C20.1945816,24.4902929 20.667039,26.7282024 22.1900124,27.705229 C23.6780395,28.659811 25.9169698,28.1578549 26.9296756,26.6417677 C27.1222361,26.3534825 27.310618,26.0623895 27.522031,25.7404255 L34.2828124,30.082598 C34.1929145,30.2355549 34.1067434,30.3973578 34.0065408,30.5501488 C31.7824663,33.9398986 29.5606863,37.331122 27.3305799,40.7168738 C24.1738508,45.509589 18.5656702,47.2176111 13.3013946,44.8569256 C9.46349462,43.1360075 6.9124882,40.2860446 6.24558164,36.0412664 C5.83693829,33.4402004 6.34969657,30.9757728 7.75768392,28.761214 C10.0723606,25.120561 12.4776452,21.5362406 14.8459057,17.9290096 C14.891753,17.8591882 14.9524259,17.7988888 15.0330529,17.7018955 Z M9.11183552,44.9863247 C8.51909223,44.4011396 7.88790592,43.8490873 7.33964243,43.2255884 C3.70427302,39.0921422 2.93230155,32.976076 5.54036942,28.1550856 C6.51341407,26.3564236 7.74533541,24.6941233 8.86917165,22.9759295 C10.5169479,20.4567628 12.1725782,17.9426405 13.8267966,15.4276114 C17.69092,9.55281846 25.4507985,7.56128819 31.7046,10.8378114 C31.734797,10.8537313 31.7698161,10.8605881 31.8982097,10.9040876 C32.0315678,10.7009946 32.1874293,10.4812095 32.3253019,10.2509877 C33.3355448,8.56381988 34.8592636,7.71840721 36.8078829,7.56169613 C37.2622139,7.52516802 37.7148176,7.46184518 38.1695778,7.43899383 C40.1831185,7.33837287 41.6850551,6.38913357 42.7836278,4.75336076 C42.9086117,4.56722449 43.0380556,4.37104791 43.2082472,4.23032573 C43.6056696,3.90175862 44.2265219,3.93359018 44.6151061,4.26927617 C45.0221534,4.62079099 45.1287659,5.2124019 44.8264441,5.68580495 C43.5756618,7.64471267 41.8915301,9.02637944 39.5327183,9.46002648 C38.8102612,9.592866 38.0763643,9.71140945 37.3441308,9.7364692 C35.6485503,9.79462394 34.500023,10.5877963 33.8481745,12.1615575 C34.2887606,12.5661302 34.7779576,12.9792162 35.2257015,13.4323119 C39.438955,17.6953177 40.5355187,24.8838531 36.7990938,30.3880031 C34.2482106,34.1457163 31.7984873,37.9706338 29.3033906,41.7652931 C25.5736534,47.4375292 18.4646257,49.5395941 12.2134847,46.8194352 C11.9750854,46.7157065 11.734271,46.6173755 11.4945364,46.5166358 L9.11183552,44.9863247 Z" id="computer-mouse" fill="#FFFFFF"></path>
            </g>
        </g>
    </g>
</svg>