<?xml version="1.0" encoding="UTF-8"?>
<svg width="104px" height="104px" viewBox="0 0 104 104" version="1.1" xmlns="http://www.w3.org/2000/svg" xmlns:xlink="http://www.w3.org/1999/xlink">
    <!-- Generator: Sketch 52.2 (67145) - http://www.bohemiancoding.com/sketch -->
    <title>Group 5</title>
    <desc>Created with Sketch.</desc>
    <g id="Page-1" stroke="none" stroke-width="1" fill="none" fill-rule="evenodd">
        <g id="Desktop" transform="translate(-532.000000, -2866.000000)">
            <g id="Group-5" transform="translate(532.000000, 2866.000000)">
                <rect id="Rectangle-3" fill-opacity="0.7" fill="#05BCB0" fill-rule="nonzero" x="0" y="0" width="104" height="104"></rect>
                <path d="M40.0655381,40.0078452 C38.4166212,39.9003745 37.0110731,40.9066913 37.0000903,42.4353658 C36.9886083,44.0292499 38.0724105,45.0117096 39.9275044,44.9998946 C41.7913346,44.9878524 43.0301439,44.11559 42.999442,42.3076734 C42.9749803,40.8714736 41.9231281,40.0246588 40.0655381,40.0078452 M51.563683,14.1760219 C51.9820923,15.6193846 50.7166081,16.2127371 49.9261759,16.8400074 C48.0809792,18.3038448 45.8975587,17.8877328 43.7663519,17.3318137 C43.7299888,17.3220934 43.6784743,17.3208525 43.6600596,17.2985165 C43.3034211,16.8662729 42.9533092,16.219562 42.2491229,16.6120971 C41.7778005,16.8747523 41.5799011,17.4972658 41.1866663,17.9030371 C40.4337627,18.6798346 39.6230509,19.38859 38.3393852,19.4196123 C37.0228528,19.4514618 35.7748509,20.4931896 35.6189089,21.5696622 C35.3531783,23.4047327 35.9886009,25.0780738 36.8974465,26.7338356 C37.4452247,27.7319254 37.7365961,28.8886423 37.8855452,30.0011008 C38.165961,32.0922084 38.6013863,34.1216851 39.8006709,35.9646146 C40.7612641,37.4410677 41.7913202,38.8823622 42.7302353,40.3691561 C43.2933979,41.2609429 42.7148509,43.1648828 41.7889892,43.7646466 C40.3225753,44.7143416 38.4915976,44.6721513 37.1596808,43.6577232 C36.1659878,42.9009867 35.9899995,41.4313585 36.7564228,40.2926345 C37.3724984,39.3774776 39.0876269,38.8298312 40.4165135,39.1247495 C40.6237368,39.1706625 40.8293284,39.2217458 41.3125387,39.335701 C40.4824799,37.9585191 39.7706014,36.777398 39.1687447,35.7791014 C38.3678231,36.9693224 37.5014011,38.1469277 36.7613178,39.3838889 C35.8431484,40.9178366 35.0081945,42.4921132 34.1867604,44.0692853 C33.9900264,44.4473433 33.9888609,44.9054388 33.8797715,45.4088268 C35.9534033,45.5678676 37.9580384,44.3753717 39.8612762,45.504789 C41.6423711,44.4895336 43.8295212,45.1856733 45.8273965,44.5344125 C46.0059488,42.8035768 43.7122734,42.8079199 43.332092,41.4021976 C44.1908217,41.9872775 45.3385918,42.4213825 45.8488414,43.1888733 C46.942533,44.8349148 48.9273548,45.1509283 50.4940004,46.0731169 C52.0403666,46.9837239 53.8317178,46.8027606 55.5216718,46.6610923 C56.3435721,46.592016 57.1249136,46.002593 57.89157,45.5995103 C58.393195,45.335821 58.7931896,44.8129924 59.3148609,44.7099985 C60.1789518,44.5391692 60.1204445,44.0475697 60.0491168,43.5524543 C59.9125219,42.6015184 60.3320966,42.0733126 61.2264902,41.4921622 C62.5276382,40.646702 64.0478975,39.7340269 63.5663189,37.8962678 C63.5416106,37.8015464 63.5709808,37.6894527 63.6019828,37.5922495 C63.6189988,37.5384776 63.691492,37.4987691 63.7402093,37.4518221 C64.296379,38.3998626 64.1558215,39.7077613 63.3546667,40.3619176 C62.6315995,40.9523747 61.7178589,41.3918568 61.1222958,42.0615242 C60.6654255,42.5756665 60.5733521,43.3448119 60.2167136,44.263071 C61.593385,44.1664884 62.6026955,44.0998939 63.6108405,44.023786 C64.8702641,43.9288578 66.3907565,44.5623325 67.0413305,42.7493912 C67.1706994,42.9005731 67.3000683,43.0517549 67.4296702,43.2029368 C67.1024019,43.6126375 66.86744,44.2173649 66.4243225,44.3824034 C65.8721154,44.5883912 65.1481158,44.4318322 64.2763327,44.4318322 C66.0979865,45.7422127 67.4858466,47.2747127 70.0676301,47.3959064 C68.8869933,47.9021898 67.5933044,47.5816264 66.4052085,46.649097 C65.981438,46.3165383 65.5896017,45.9519233 65.1686284,45.6164692 C63.4595604,44.2552121 60.9679855,44.2527303 59.0964489,45.5411885 C56.962445,47.0101962 54.4641102,47.6347779 51.8904851,47.0403912 C50.0581088,46.6170407 48.3970589,45.6104715 46.7805305,44.9161932 C44.7397654,45.1321082 42.6831497,45.3494708 40.7279312,45.556286 C40.7279312,48.3398106 40.5472809,51.1485666 40.789935,53.927955 C40.9575318,55.8467856 42.3265111,57.3999671 43.9416409,58.6973183 C44.8239134,59.4056601 45.8008234,60.0356189 46.5900902,60.8161391 C47.160945,61.3809512 47.6502158,62.0928088 47.900329,62.8143868 C48.4704845,64.459601 48.7746762,66.1792687 49.3737357,67.8147626 C49.7975063,68.9712727 50.3007629,70.2134043 51.1730123,71.1066388 C52.5347655,72.5011931 54.1678438,73.7154046 55.8277283,74.8408925 C56.7048727,75.4356927 57.9190755,75.6212059 58.9153325,76.0993624 C60.5313947,76.8749191 62.1705335,77.6438577 63.6588585,78.5900368 C65.5849398,79.8150028 67.4767559,81.0157713 69.6834861,81.8721927 C71.678098,82.6465085 73.4524331,83.8572042 75.3752511,84.7920085 C76.0757079,85.1324262 76.9248806,85.2327315 77.9237017,85.5007639 C78.118804,84.6908759 78.3896628,83.9713661 78.452599,83.2377929 C78.7463014,79.8137619 80.0966329,80.0145794 82.6979965,79.6125308 C84.0884207,79.3974431 85.5497064,79.4592808 86.8942105,79.1269289 C87.6676267,78.9358317 88.316569,78.2465169 88.9368404,77.7052818 C89.3435949,77.3501802 89.5731955,76.8407946 89.9282024,76.4321279 C90.8477704,75.3732346 91.6699039,74.2949006 91.5626793,72.8585696 C91.5510244,72.7053196 91.8388993,72.4670686 92.0454233,72.3907538 C92.2081251,72.3303638 92.5864417,72.40399 92.6461146,72.5138088 C92.7829426,72.765296 92.9379521,73.1514198 92.8139445,73.3489282 C92.2088244,74.3120662 91.5643109,75.2627953 90.8389128,76.1578911 C90.0153807,77.1739738 89.0913838,78.1257369 88.1513032,79.1722214 C88.8778668,79.2716995 89.6517492,79.2679768 90.3274977,79.4942325 C91.5167591,79.8927653 92.6274668,80.4722612 93.806705,80.8985072 C94.6549454,81.2050071 95.5612269,81.3855567 96.5584163,81.6540028 C96.6145927,81.2455429 96.5905837,81.0647865 96.6675058,80.9293226 C96.8474567,80.6128955 97.0437245,80.291298 97.3131847,80.0387767 C97.3633006,79.9920365 98.017138,80.3121863 97.9996557,80.3709218 C97.8714523,80.8025449 97.7590995,81.4595966 97.4257706,81.5816175 C96.1994468,82.0306131 94.9411886,82.0355766 93.68666,81.4349856 C92.5162795,80.875137 91.2792332,80.4052531 90.0284341,80.0013432 C88.2144725,79.4156428 86.3364092,79.6032241 84.4739633,79.8319616 C83.3788732,79.9668051 82.2828506,80.096685 81.1928885,80.2590348 C79.5241464,80.5076266 79.1299792,81.8465476 78.9416367,83.129215 C78.8292839,83.895465 78.6919898,84.6590264 78.5570265,85.4767733 C79.9292692,86.0566829 81.3423038,86.1623654 82.9010241,85.7286741 C84.6870141,85.232111 86.528015,84.7886994 88.3797383,84.6207656 C89.4109599,84.5268715 90.5123437,85.0401866 91.8584795,85.3417231 C91.62445,85.6928951 91.3932177,86.0401377 91.1617522,86.3873803 C90.8908934,86.1824265 90.5449773,86.0198698 90.3631616,85.7650736 C89.8836808,85.09127 87.9459446,84.7117642 86.8834881,85.1837163 C84.8961022,86.0664032 82.7870396,86.4930628 80.5880016,86.3942052 C79.5861502,86.3491195 78.5933897,86.0297969 77.6113516,85.7874096 C76.498546,85.512966 75.3209395,85.3222824 74.3160579,84.8519849 C72.3158517,83.9157328 70.4247349,82.798104 68.4657869,81.7900871 C68.0194059,81.5605223 67.4807185,81.4722123 66.9487909,81.3077943 C67.5506476,83.9570959 67.8893377,86.6556195 69.748054,88.8714366 C70.4652938,89.7266171 71.3272869,90.7408384 72.3689978,91.0686404 C74.0151295,91.5869191 74.8342327,92.8656569 76.1806016,93.6101913 C76.6302459,93.8587831 76.9479572,94.289579 77.3502828,94.612831 C78.0871028,95.2049427 78.7295184,95.157582 79.7017664,94.7646333 C81.2700437,94.1309518 83.0196705,93.8314835 84.7166174,93.4815523 C85.1445837,93.3934491 85.6599614,93.7125648 86.1401414,93.7293168 C86.5599493,93.7437939 86.9853515,93.587028 87.411453,93.5227085 C87.7832429,93.4668684 88.1592285,93.4346053 88.5335824,93.3920014 C88.5676146,93.7468961 88.7165637,94.1421198 88.5857962,94.440554 C88.5226269,94.5851178 87.8562023,94.6887321 87.5967652,94.5737429 C84.9103211,93.3814538 82.4408904,94.1270223 79.9943033,95.1718522 C79.6493195,95.3193114 79.3204195,95.4961383 78.7798674,95.7581731 C80.1625994,96.3076808 81.4686424,97.0081636 82.8844742,97.3394815 C84.3396994,97.6796923 85.9056457,97.6370884 87.4149494,97.8166039 C87.716344,97.8525897 88.0708847,98.0875317 88.2258943,98.3218532 C88.3095761,98.4482173 88.0217012,98.7677466 87.9016562,99 C87.6333614,98.8310321 87.3834813,98.6300078 87.0925762,98.5015756 C86.789783,98.367973 86.4480627,98.2244433 86.122426,98.222582 C81.6938142,98.1967301 78.2500377,96.4450061 75.3801461,93.5622102 C74.60673,92.7852058 73.5729443,92.212328 72.6748212,91.5577581 C73.1547681,93.1990429 73.5967202,94.7226498 74.0493948,96.243775 C74.1016086,96.4191542 74.196246,96.5903971 74.3037037,96.7457153 C74.5102278,97.0449767 74.7398284,97.3314157 74.9598721,97.623025 C74.5577796,97.7812385 74.1552209,97.9398657 73.7596551,98.0953907 C73.4421769,96.3114035 73.3312226,94.6761164 72.8116492,93.1504413 C72.5053596,92.2503819 71.6906852,91.3784494 70.8573631,90.7532473 C69.5650728,89.7834913 68.759023,88.674135 68.1424812,87.2673786 C67.4515814,85.6902065 67.1089286,84.0942143 66.7944806,82.4587204 C66.7114981,82.0268904 66.415931,81.5406681 66.0457728,81.2540223 C64.6777259,80.1945085 63.3259958,79.0839113 61.7999091,78.2291445 C60.2575056,77.3652777 58.4787416,76.8418287 56.8680406,76.063997 C53.66179,74.5151587 50.7532044,72.7303442 49.0194282,69.6550035 C48.3455444,68.4596121 48.6233962,67.2768365 48.197994,66.1306671 C47.5220124,64.3090396 47.2767942,62.3813159 45.377286,61.0241951 C43.9500324,60.0045966 42.6160177,58.7848011 41.6001805,57.4400892 C40.7906343,56.3689937 40.2465857,55.0027731 40.081786,53.7174172 C39.8328383,51.777905 40.0468215,49.7941345 39.9985704,47.8302181 C39.9838853,47.2378996 39.8955414,46.5814685 39.5890188,46.0743578 C39.0065091,45.1114266 37.8680629,45.4268197 36.9643454,45.5109934 C33.5874677,45.8249388 30.2665333,46.7549864 26.8432693,46.4687542 C25.0150888,46.3161247 23.6582305,47.2068774 22.0915849,47.6337438 C20.4897416,48.0701237 18.9559627,48.6686466 17.3352386,49.0907563 C15.8560044,49.4760528 14.6240862,50.6778554 14.16978,52.1656834 C13.9117415,53.0101095 13.7870345,53.8940373 13.6919309,54.7678311 C13.6154751,55.4710025 13.5282967,56.2155369 14.3054425,56.7437427 C14.3926208,56.8028919 14.3170973,57.0504495 14.3170973,57.2481648 C12.4903153,56.4881193 13.6779451,54.8116759 12.9056944,53.7103855 C11.5113075,54.2121189 10.1859174,54.6890346 8.8605273,55.1657434 C8.80201993,55.0569587 8.74351256,54.9481739 8.68500518,54.8393892 C9.32905247,54.5432299 9.9542189,54.2071554 10.6215759,53.9602181 C11.6747086,53.5703716 12.9511483,53.5021226 13.6138434,52.5499459 C14.0292224,51.9528706 14.3159318,51.2530083 14.4888899,50.565348 C14.6604494,49.8836854 15.0047338,49.5871125 15.7823457,49.5767718 C15.9769818,49.57429 16.1669559,49.3085326 16.3296577,49.063043 C13.2730554,49.2483494 10.2406952,48.3019634 7.15006078,49.0804155 C7.15006078,49.9209121 7.15518891,50.7200457 7.14866219,51.5191793 C7.14120309,52.4242023 6.63981122,52.7520042 5.20906122,52.5056874 C7.6143902,52.1170818 6.09762737,50.6207745 6.70064957,49.7461534 L6.4892305,49.4832913 L3.1284365,50.9458878 C3.08554664,50.8546824 3.04288987,50.7636837 3,50.6726851 C5.61674805,48.7774314 8.62020419,48.0200744 11.9847277,48.4117822 C11.6630537,47.3189712 11.380307,46.3585218 11.0910335,45.3757364 C11.2120108,45.3813204 11.8803002,46.5785731 11.93974,46.7293413 C12.1751681,47.3245552 12.4143257,47.9185282 12.6530171,48.5153966 C16.7012145,48.8173467 18.8708823,48.5362849 21.0456782,47.4267218 C19.7235515,46.0365107 19.3065408,46.1450886 18.9627225,41.8745633 C16.9434024,41.9707323 14.9240822,42.1095053 12.9038296,42.1233619 C12.5429953,42.1258437 11.949297,41.6588551 11.862818,41.3267101 C11.6959204,40.6855832 11.8141007,39.9857209 11.8141007,39.3104695 C11.9371759,39.3048855 12.0600181,39.2993015 12.1830934,39.2939243 C12.2147946,39.7886261 12.2968448,40.2860164 12.2660759,40.7778227 C12.2231861,41.467758 12.4588472,41.8201709 13.3110502,41.7554378 C15.2098592,41.6110808 17.1116985,41.4975393 19.059924,41.3680731 C18.7534013,39.4062249 17.3371034,38.3659449 15.703792,37.4303133 C16.4795391,37.2021962 17.42265,37.6966912 18.1039928,38.3533292 C19.4454666,39.6467509 19.5669102,41.1722192 19.525652,42.8085404 C19.4815967,44.558403 20.0629409,46.1351615 21.8016121,47.3510275 C22.552651,47.0153666 23.3162771,46.495847 24.1654498,46.3372198 C25.3544781,46.1148936 26.6094729,46.1852107 27.8320672,46.087594 C29.684723,45.9397212 31.5336492,45.7550353 33.2870056,45.5949604 C33.7909615,42.7400845 35.4328975,40.5457762 37.0091001,38.3630495 C38.2841412,36.5974688 38.9368131,34.9506001 37.8897409,32.8640424 C37.3526852,31.7943946 37.4424276,30.4817391 37.2128269,29.2842796 C37.1123621,28.7606237 36.9776319,28.2313839 36.7627164,27.7377162 C35.6904698,25.2766163 34.603538,22.82048 33.4683551,20.3821298 C33.3511073,20.1308495 32.9044932,19.9325138 32.5662693,19.845031 C31.9898202,19.6957105 31.3793389,19.5885802 30.7809786,19.5786531 C28.7250622,19.5447354 27.874724,18.2659976 27.0103999,16.8989497 C26.2619251,15.7157604 24.4698746,15.2514605 22.687148,15.6305526 C21.6342484,15.8545334 20.9927652,15.4855752 21.0419487,14.8994612 C22.6603418,15.0576747 24.2889913,15.2167156 26.0111127,15.3848562 C25.4225425,13.7441919 23.928157,12.7762972 22.4682698,11.7835847 C22.5556812,11.6888633 22.6433258,11.5939352 22.7307372,11.4990071 C23.4969273,12.014804 24.42512,12.4195411 24.9920121,13.0716292 C25.8621636,14.0724075 26.4532979,15.2605604 27.2211197,16.3364126 C27.8094568,17.1609844 28.338121,18.1092317 29.1747065,18.6750779 C29.8243481,19.1143532 30.9045201,19.0705084 31.8012446,19.1966656 C32.2147589,19.2549875 32.6473871,19.2067995 33.0333959,19.2067995 C33.2690571,17.6205276 32.483986,16.0177105 33.6019197,14.5151987 C33.7767426,14.2802567 33.1984287,13.3948812 32.740859,13.0432955 C31.8767681,12.3790054 30.6917024,12.012529 29.9276101,11.2845398 C29.0595565,10.4570725 27.8877774,9.67655228 28.1089866,8.25159615 C28.2222718,7.5202979 28.1287998,6.76376822 28.1287998,6.01882018 C28.246747,6.01261572 28.3649272,6.00620445 28.4831074,6 L28.4831074,9.3743954 C30.0052315,8.72127327 29.9572135,7.60984885 30.2350652,6.61899764 C30.4259717,7.51326619 30.745781,8.37465114 29.8406649,9.15703271 C29.2614186,9.65793892 29.3325132,10.2144784 30.0264433,10.654581 C31.0560332,11.3072895 32.0958794,11.9482095 33.1035581,12.6267699 C33.4182392,12.8385486 33.6431779,13.1553893 33.9473696,13.4627166 C34.207506,12.8308964 34.4422348,12.2611208 34.6771967,11.6911383 C34.8287098,11.747392 34.9802229,11.8036457 35.131736,11.8598994 C34.6375702,13.1539416 34.1434043,14.4481906 33.6518025,15.7356147 C35.7643615,16.2361073 36.6853282,15.8927942 37.4216819,13.756394 C37.7188807,12.893975 37.6489516,11.9310438 37.9526771,11.0715202 C38.228431,10.2905864 38.7235292,9.55184277 39.2358767,8.8612871 C39.6724675,8.27227766 40.2715271,7.77819635 40.7985596,7.24233839 C40.9274623,7.34078238 41.0561319,7.43922638 41.1852677,7.53767037 C41.0484397,7.72173582 40.917206,7.90931713 40.7743175,8.0894531 C40.01209,9.04824796 39.1349456,9.95306409 38.5265622,10.9830034 C38.1771496,11.5747014 38.2354239,12.3657692 38.1566371,13.0712156 C37.8729579,15.6084234 37.0692391,16.282227 34.2492304,16.3128357 C34.0564591,16.3149038 33.8639209,16.3273127 33.6802404,16.3345512 C33.0040257,17.6519635 34.1730076,21.3436133 35.1198481,22.3917523 C34.9722976,20.9337057 35.4466502,19.8096656 36.9916178,19.2057655 C37.1839229,19.1306916 37.3806568,19.0150819 37.5790225,19.0090843 C40.2580074,18.9307014 41.8281495,17.0873583 41.8780323,14.7939855 C41.8980786,13.8637311 41.8283826,12.9291336 41.9071694,12.0038428 C41.9400361,11.6175121 42.2544841,11.2500017 42.5514498,10.9873465 C42.4495864,12.6542763 42.347956,14.3212061 42.2549503,15.8417108 C43.1854739,16.297945 44.0155327,16.7682425 44.9029334,17.1264463 C46.7989452,17.8922827 49.2930842,17.1942817 50.4308311,15.6417206 C50.7578663,15.1954136 51.1089106,14.7629632 51.563683,14.1760219" id="Fill-1" stroke="#9013FE" fill="#9013FE" transform="translate(50.500000, 52.500000) rotate(-90.000000) translate(-50.500000, -52.500000) "></path>
            </g>
        </g>
    </g>
</svg>