<?xml version="1.0" encoding="UTF-8"?>
<svg width="47px" height="46px" viewBox="0 0 47 46" version="1.1" xmlns="http://www.w3.org/2000/svg" xmlns:xlink="http://www.w3.org/1999/xlink">
    <!-- Generator: Sketch 52.2 (67145) - http://www.bohemiancoding.com/sketch -->
    <title>Combined Shape</title>
    <desc>Created with Sketch.</desc>
    <g id="Page-1" stroke="none" stroke-width="1" fill="none" fill-rule="evenodd">
        <g id="Lesson-12" transform="translate(-570.000000, -771.000000)" fill="#32C5DD">
            <path d="M589.278429,791.565983 C588.598672,791.565983 587.918805,791.574563 587.239157,791.563783 C586.347302,791.549703 585.648807,791.173611 585.247271,790.353556 C584.846497,789.534822 584.968178,788.750077 585.501962,788.022863 C589.298474,782.849534 593.09346,777.675214 596.892586,772.503755 C597.373863,771.848701 598.055908,771.734301 598.5398,772.200153 C598.870746,772.518715 598.874994,772.916367 598.817041,773.32788 C598.559844,775.15565 598.29927,776.98298 598.040331,778.810421 C597.64337,781.612687 597.246735,784.414953 596.850101,787.217328 C596.847596,787.234709 596.846942,787.252309 596.84509,787.269799 C596.717418,788.552076 596.848467,788.696837 598.129222,788.695297 C599.000706,788.694197 599.87219,788.696397 600.743674,788.695187 C601.660149,788.694087 602.374439,789.065009 602.78676,789.904534 C603.199299,790.744278 603.047769,791.535183 602.502002,792.278237 C599.056263,796.969434 595.61608,801.66492 592.172083,806.357437 C591.746799,806.93681 591.290142,807.107421 590.794376,806.89171 C590.324101,806.687109 590.131286,806.253156 590.238042,805.558062 C590.880653,801.371329 591.529473,797.185475 592.174807,792.999071 C592.201496,792.82571 592.229166,792.650479 592.23178,792.475798 C592.241693,791.811175 592.025456,791.579623 591.369991,791.570053 C590.672913,791.559933 589.975617,791.567743 589.278429,791.567743 L589.278429,791.565983 Z M613.738969,792.87667 C613.574005,786.403288 611.005199,781.103447 605.892957,777.028029 C605.533374,776.741371 605.209267,776.311657 605.063853,775.883251 C604.845072,775.239007 605.198064,774.577221 605.769398,774.225845 C606.345235,773.871636 607.048475,773.907809 607.641335,774.347656 C609.382685,775.639194 610.919092,777.139815 612.218707,778.868913 C615.943909,783.824786 617.619032,789.411938 616.793552,795.526427 C615.527216,804.90539 610.292843,811.318849 601.387634,814.750894 C600.422231,815.122971 599.501309,814.712107 599.188295,813.832849 C598.872095,812.944875 599.319212,812.123581 600.317454,811.745076 C606.926893,809.238266 611.201684,804.613394 613.096026,797.8454 C613.549183,796.226565 613.735125,794.565454 613.738969,792.87667 Z M570.000003,794.307302 C569.995333,783.251304 576.177252,774.520446 585.442236,771.168088 C586.411997,770.817307 587.192631,771.019298 587.648381,771.738995 C588.217762,772.638179 587.826278,773.71685 586.748445,774.114169 C584.617795,774.899521 582.638914,775.949134 580.882515,777.372359 C576.554171,780.879953 573.958655,785.363747 573.424408,790.859028 C572.715377,798.151256 575.361594,804.128847 581.115449,808.781423 C581.211624,808.859204 581.312247,808.931633 581.406421,809.01149 C582.129017,809.623473 582.241759,810.559253 581.678159,811.256118 C581.119896,811.946647 580.101214,812.118378 579.398632,811.517757 C578.153909,810.453724 576.867826,809.406843 575.789659,808.18976 C571.938968,803.843175 570.062934,798.735054 570.000003,794.307302 Z M588.012123,815.020867 C588.004084,813.909266 588.884269,813.005725 589.987685,812.99276 C591.077632,812.9799 592.001878,813.886056 592.014617,814.979987 C592.027355,816.076742 591.127749,816.991575 590.028405,816.999939 C588.914861,817.008408 588.020163,816.130168 588.012123,815.020867 Z" id="Combined-Shape"></path>
        </g>
    </g>
</svg>