<?xml version="1.0" encoding="UTF-8"?>
<svg width="47px" height="47px" viewBox="0 0 47 47" version="1.1" xmlns="http://www.w3.org/2000/svg" xmlns:xlink="http://www.w3.org/1999/xlink">
    <!-- Generator: Sketch 52.2 (67145) - http://www.bohemiancoding.com/sketch -->
    <title>pen</title>
    <desc>Created with Sketch.</desc>
    <g id="Page-1" stroke="none" stroke-width="1" fill="none" fill-rule="evenodd">
        <g id="Lesson-2" transform="translate(-532.000000, -4444.000000)" fill="#F67102">
            <path d="M579,4455.30237 C578.682823,4456.38657 578.278289,4457.42611 577.469861,4458.2434 C576.749699,4458.97147 576.017786,4459.68741 575.337157,4460.36296 C571.243729,4456.19971 567.131628,4452.01746 562.985185,4447.80028 C564.358375,4446.50755 565.480611,4444.74762 567.565037,4444.24263 C567.914369,4444.15805 568.265432,4444.08069 568.615675,4444 L569.617672,4444 C569.668045,4444.02613 569.716505,4444.06976 569.769155,4444.07578 C571.184065,4444.23855 572.363506,4444.87584 573.360219,4445.89537 C574.655253,4447.22016 575.956573,4448.53855 577.255798,4449.85908 C577.931325,4450.54565 578.451088,4451.33116 578.748043,4452.26129 C578.825926,4452.50504 578.91565,4452.74479 579,4452.98631 L579,4455.30237 Z M532,4491 C532.213301,4490.08096 532.414287,4489.15889 532.642109,4488.24342 C533.592911,4484.42294 534.551892,4480.60439 535.522729,4476.72593 C536.25343,4477.54452 537.159017,4477.97468 538.20126,4478.16862 C537.965903,4480.11853 538.507473,4481.79736 539.887634,4483.16235 C541.268531,4484.52807 542.954261,4485.05658 544.92038,4484.79797 C545.090488,4485.80701 545.45377,4486.7144 546.274074,4487.45776 C546.078877,4487.51657 545.931929,4487.56776 545.781488,4487.60537 C541.407025,4488.69991 537.032194,4489.7928 532.657916,4490.88808 C532.55802,4490.91312 532.464189,4490.9622 532.367602,4491 L532,4491 Z M564.688012,4454.0963 C566.125816,4455.52848 567.498412,4456.89564 568.903704,4458.29554 C568.825453,4458.37964 568.718823,4458.50171 568.604387,4458.61589 C561.115131,4466.08928 553.625599,4473.5622 546.135149,4481.03431 C544.944495,4482.22198 543.105979,4482.25528 541.932499,4481.11492 C540.780143,4479.99502 540.755529,4478.15673 541.877393,4476.94301 C541.939571,4476.8756 542.006065,4476.81222 542.070999,4476.74738 C549.535916,4469.29298 557.00111,4461.83877 564.464558,4454.3829 C564.550707,4454.29687 564.615823,4454.18993 564.688012,4454.0963 Z M570.990481,4460.36296 C571.700707,4461.07399 572.380369,4461.75436 573.081481,4462.45637 C572.99909,4462.54403 572.899575,4462.65553 572.794077,4462.76115 C565.659137,4469.89861 558.523921,4477.0358 551.387692,4484.17207 C550.986596,4484.57307 550.581542,4484.97067 550.169768,4485.3608 C549.597352,4485.90324 548.742227,4485.91622 548.16705,4485.40104 C547.576683,4484.87233 547.497882,4483.99869 547.988458,4483.36684 C548.082173,4483.24613 548.190801,4483.13628 548.299061,4483.02809 C555.795328,4475.53639 563.292331,4468.04535 570.789334,4460.55449 C570.854235,4460.48966 570.922082,4460.42806 570.990481,4460.36296 Z M560.510284,4449.91852 C561.262528,4450.67022 561.942183,4451.34931 562.637037,4452.04367 C562.564079,4452.12053 562.462379,4452.23282 562.355429,4452.33959 C554.865411,4459.81669 547.375024,4467.29334 539.884361,4474.7698 C539.188125,4475.46463 538.305993,4475.52151 537.683084,4474.91495 C537.042395,4474.29109 537.068189,4473.37565 537.770044,4472.67383 C543.34463,4467.09904 548.921611,4461.52665 554.500435,4455.95609 C556.399746,4454.05966 558.30698,4452.17124 560.208317,4450.27684 C560.327151,4450.15838 560.425811,4450.01958 560.510284,4449.91852 Z" id="pen"></path>
        </g>
    </g>
</svg>