<?xml version="1.0" encoding="UTF-8"?>
<svg width="105px" height="105px" viewBox="0 0 105 105" version="1.1" xmlns="http://www.w3.org/2000/svg" xmlns:xlink="http://www.w3.org/1999/xlink">
    <!-- Generator: Sketch 52.2 (67145) - http://www.bohemiancoding.com/sketch -->
    <title>Group 8</title>
    <desc>Created with Sketch.</desc>
    <g id="Page-1" stroke="none" stroke-width="1" fill="none" fill-rule="evenodd">
        <g id="Desktop" transform="translate(-375.000000, -508.000000)">
            <g id="Group-8" transform="translate(375.000000, 508.000000)">
                <rect id="Rectangle" fill-opacity="0.7" fill="#05BCB0" fill-rule="nonzero" x="0" y="0" width="105" height="105"></rect>
                <g id="Group-9" transform="translate(28.000000, 20.000000)" fill="#FFFFFF">
                    <path d="M34.8791121,12.5055062 C34.7798917,12.4822775 34.6806713,12.4588317 34.5812324,12.4353859 C34.5812324,12.2547664 34.5851663,12.0739299 34.5807953,11.8933104 C34.4498856,6.64145128 29.9316426,2.26077732 24.6100204,2.22517444 C19.174098,2.1887032 14.5885425,6.57719243 14.4283474,11.9169733 C14.3553527,14.3492579 15.0254182,16.6161193 15.6932981,18.9159786 C16.1091933,20.3479091 16.1754131,21.8786159 16.4280535,23.360043 C16.4831274,23.6832911 16.5749172,24.0885995 16.8008949,24.2813761 C21.5687187,28.3496565 27.022999,28.9390579 32.1249814,24.4316029 C32.3806815,24.2058285 32.5397838,23.7937903 32.6014141,23.443623 C32.8743795,21.8942464 33.0260512,20.3212069 33.352342,18.7842045 C33.7992708,16.6784244 34.3646522,14.5971755 34.8791121,12.5055062 Z M15.3010061,26.041982 C14.3837638,26.5912215 13.5154762,27.0473292 12.7164679,27.6022131 C10.812704,28.9240786 8.8296075,30.1645351 7.08144914,31.6700593 C3.81832219,34.4800818 2.10644265,37.9978201 2.2120009,42.4399307 C2.36432824,48.8362922 2.25177648,55.2387322 2.25221357,61.638567 L2.25221357,62.6895033 L46.7853403,62.6895033 C46.7853403,62.195839 46.7855589,61.7690386 46.7853403,61.3422382 C46.7796581,55.123457 46.6174961,48.8994656 46.8183409,42.68698 C46.9737279,37.8814595 45.0861365,34.1631293 41.4838244,31.2591066 C39.074124,29.3167957 36.4139685,27.681017 33.9004582,25.9321341 C27.88779,31.1182147 21.384265,30.99469 15.3010061,26.041982 Z M24.4058974,65 L2.55271585,65 C0.0494772178,65 0.0368014852,64.9848036 0.0368014852,62.5464405 C0.0368014852,55.6722624 0.115259899,48.7967817 0.00227104126,41.9243402 C-0.0663527523,37.7585861 1.42217164,34.3166125 4.20274656,31.3240167 C6.49989527,28.8515703 9.20223033,26.9114304 12.1875839,25.3455549 C14.0808575,24.3525819 14.5822046,23.3500569 14.0681818,21.2714131 C13.5486953,19.1701918 12.7966747,17.1171647 12.3984819,14.9964053 C11.0926629,8.04190362 15.0691276,1.91972778 21.8145842,0.320854507 C29.0878322,-1.40328012 36.4019484,4.03809918 36.803638,11.4406762 C36.9494089,14.1267399 36.4224918,16.6877593 35.5666613,19.2075314 C35.3575118,19.8227666 35.1404945,20.4384359 34.9862002,21.0682161 C34.4304349,23.3344263 34.8979072,24.3150252 36.9380445,25.4043865 C40.7359562,27.4322311 44.1103236,29.9693705 46.5855883,33.5409473 C48.1967176,35.8655549 49.0114612,38.4328699 48.9998782,41.2832713 C48.9708115,48.5551597 48.9981298,55.8274822 48.9992226,63.0995877 C48.9996597,64.7909416 48.8086495,64.9902309 47.1337044,64.9934873 C43.3458458,65.0004342 39.5577687,64.9950069 35.7699102,64.9950069 C31.981833,64.9947898 28.1939745,64.9950069 24.4058974,64.9950069 L24.4058974,65 Z" id="Fill-1"></path>
                    <path d="M36.7625633,46.6676138 L32.8502456,46.6676138 C33.5313036,47.7552269 34.136139,48.7209691 34.811351,49.7991415 C35.4928588,48.7055206 36.0943214,47.7397785 36.7625633,46.6676138 M36.1264744,44.3818882 C37.0098937,44.3818882 37.8310307,44.3524933 38.6487951,44.3887542 C39.8679093,44.4428237 40.3441328,45.2060196 39.7363744,46.2071644 C38.4792613,48.2763973 37.1893207,50.3286797 35.8672271,52.3607934 C35.2716105,53.2756844 34.3349027,53.2563739 33.7305171,52.3253907 C32.4104471,50.2919897 31.1142108,48.2433548 29.8552989,46.1747656 C29.2904861,45.2461426 29.7714314,44.4531227 30.9012818,44.3924017 C31.792121,44.344769 32.687682,44.382961 33.717476,44.382961 C33.3471549,41.7138137 32.0976865,39.6525196 29.9636746,38.0935145 C26.5428699,35.5943 21.9195896,35.5267131 18.4387511,37.8768072 C14.9457709,40.2350546 13.4662852,44.4202947 14.7499302,48.3128727 C15.9960258,52.0921622 19.7756845,54.7735395 23.9789527,54.8012179 C25.8069495,54.8132334 27.5373631,54.3811062 29.1045386,53.4477629 C29.8101049,53.0274365 30.5514216,52.8154496 31.0490055,53.627351 C31.5414179,54.4308845 30.9887468,54.9348899 30.2773346,55.3500667 C26.0434873,57.8205299 20.5657928,57.4950398 16.5902934,54.5192839 C12.6219891,51.5493211 11.0255836,46.5069071 12.5979306,41.9084212 C14.1432961,37.3884648 18.4834954,34.2178869 23.4071698,34.0121222 C29.5301718,33.7561501 34.6571068,37.57685 35.8800433,43.3062905 C35.9472722,43.621267 36.0237198,43.9343125 36.1264744,44.3818882" id="Fill-3"></path>
                    <path d="M24.0050907,14.9948381 C25.0042705,14.9948381 25.8538098,14.9999328 26.7033492,14.9932705 C27.4022624,14.9875879 27.9791369,15.1813826 27.9994438,15.9845824 C28.020145,16.7981674 27.460423,17.0074422 26.7490891,16.9998001 C25.5703014,16.9872593 24.3913167,16.9811849 23.2123319,16.9860836 C22.4085324,16.9892188 21.9960849,16.6316098 22.000028,15.809011 C22.0090971,13.9212272 22.0087028,12.0334433 22.0010138,10.1454635 C21.9982536,9.4416105 22.3194185,8.97916812 23.0313439,9.00072264 C23.7460295,9.02247311 24.0141598,9.52586907 24.0088367,10.2109108 C23.9970074,11.7661673 24.0050907,13.3214237 24.0050907,14.9948381" id="Fill-5"></path>
                </g>
            </g>
        </g>
    </g>
</svg>