<?xml version="1.0" encoding="UTF-8"?>
<svg width="92px" height="90px" viewBox="0 0 92 90" version="1.1" xmlns="http://www.w3.org/2000/svg" xmlns:xlink="http://www.w3.org/1999/xlink">
    <!-- Generator: Sketch 52.2 (67145) - http://www.bohemiancoding.com/sketch -->
    <title>Group 6</title>
    <desc>Created with Sketch.</desc>
    <g id="Page-1" stroke="none" stroke-width="1" fill="none" fill-rule="evenodd">
        <g id="Lesson-10" transform="translate(-47.000000, -4635.000000)">
            <g id="Group-6" transform="translate(47.000000, 4635.000000)">
                <rect id="Rectangle" fill="#97B306" fill-rule="nonzero" x="0" y="0" width="92" height="90"></rect>
                <path d="M33.0133323,53 C33.4498002,52.7600293 33.7066891,52.6221772 33.9604986,52.4789253 C37.5844954,50.4324248 41.2149753,48.3970413 44.8237371,46.325289 C45.3394598,46.0290975 45.705101,46.0432321 46.2099646,46.3332298 C49.7715626,48.3792539 53.3517992,50.3941501 56.9273357,52.4168283 C57.2417612,52.594702 57.5651008,52.7576471 57.9208554,52.9467967 C57.963157,52.7576471 57.9942754,52.6831625 57.9942754,52.608519 C57.9986514,48.1883573 58.010807,43.7681956 57.9767713,39.3481927 C57.9745022,39.0716944 57.6696391,38.6933951 57.4002705,38.5383909 C53.6294337,36.3716668 49.845955,34.2257475 46.0436756,32.1123855 C45.7673378,31.9588106 45.2459425,31.9642103 44.9673356,32.1188969 C41.1870984,34.216695 37.4340898,36.3616614 33.660984,38.4718471 C33.1802695,38.7407222 32.9968006,39.0410429 33.0000421,39.5921338 C33.0246775,43.7475496 33.0133323,47.9031241 33.0133323,52.0586987 L33.0133323,53 Z M17.0590352,30.0188285 C17.0425587,30.3626872 17.0196836,30.6179883 17.0196836,30.8732894 C17.0171242,41.1892104 17.0236828,51.5051313 17.0000078,61.8212118 C16.9985681,62.4915368 17.1954861,62.8547027 17.7838405,63.1918597 C26.8348678,68.3778235 35.8722981,73.5874027 44.9049294,78.8051196 C45.3208406,79.0452622 45.6263754,79.076377 46.0602028,78.8258628 C55.1390642,73.5813393 64.2262439,68.3508573 73.3191823,63.1305874 C73.7773245,62.8674677 74.0009567,62.5952529 73.9999969,62.0240166 C73.9800012,51.6018266 73.98576,41.179477 73.9827206,30.7571274 C73.9827206,30.5337389 73.9444888,30.3101909 73.9160149,30 C73.6211978,30.1456812 73.4078034,30.2369514 73.208166,30.3518369 C70.3476568,31.996774 67.4970655,33.6591035 64.6229592,35.2799465 C64.0673978,35.5934882 63.8644011,35.9458038 63.8669606,36.5877266 C63.8917553,43.1282225 63.8749589,49.6687183 63.8951146,56.2092142 C63.8967142,56.7581116 63.7220315,57.0537823 63.2491725,57.3244015 C57.5222353,60.6039041 51.8036164,63.898246 46.096355,67.2118952 C45.6335739,67.4805996 45.3062837,67.4431023 44.8711766,67.1909924 C39.207266,63.9089368 33.5388764,60.6340615 27.8554499,57.3861524 C27.3003684,57.0687812 27.0991314,56.7317837 27.1016909,56.0914565 C27.1277653,49.5511202 27.1144881,43.0106244 27.1276053,36.4701285 C27.1287251,35.9777164 27.0373846,35.6488567 26.5589268,35.3788757 C23.5926801,33.7048981 20.6478689,31.9932636 17.6932998,30.2982236 C17.5197369,30.1986562 17.3255383,30.1349905 17.0590352,30.0188285 Z M11.0116722,45.4779609 C11.011832,39.1137039 11.0180622,32.749606 11.0000105,26.3855082 C10.9985727,25.8725106 11.1447436,25.5868931 11.6011481,25.3251434 C22.6879273,18.9677285 33.7663995,12.595993 44.8381623,6.21280093 C45.3070273,5.94245884 45.6519266,5.92018227 46.1388432,6.20086706 C57.2328112,12.5985389 68.3366836,18.9787077 79.4453485,25.3512388 C79.8344984,25.5744819 80.0004782,25.8118865 79.999999,26.2771486 C79.9864203,39.1116354 79.9868995,51.945963 79.9985612,64.7804498 C79.9988807,65.2052958 79.8729981,65.4415866 79.4995036,65.655919 C68.3235841,72.071253 57.1562911,78.5012258 45.9733427,84.9041486 C45.7239736,85.0470369 45.2397727,85.0239647 44.9819369,84.8761438 C33.8224716,78.4859505 22.6781826,72.0698209 11.5219123,65.6742176 C11.0699808,65.4150138 11.0025665,65.1072789 11.0033652,64.6499728 C11.0156659,58.2593021 11.0116722,51.8686315 11.0116722,45.4779609 Z" id="Fill-1" fill="#FFFFFF"></path>
            </g>
        </g>
    </g>
</svg>