<?xml version="1.0" encoding="UTF-8"?>
<svg width="50px" height="52px" viewBox="0 0 50 52" version="1.1" xmlns="http://www.w3.org/2000/svg" xmlns:xlink="http://www.w3.org/1999/xlink">
    <!-- Generator: Sketch 52.2 (67145) - http://www.bohemiancoding.com/sketch -->
    <title>Group 7</title>
    <desc>Created with Sketch.</desc>
    <g id="Page-1" stroke="none" stroke-width="1" fill="none" fill-rule="evenodd">
        <g id="Lesson-2" transform="translate(-466.000000, -5643.000000)">
            <g id="Group-7" transform="translate(466.000000, 5643.000000)">
                <polygon id="Rectangle-12" fill-opacity="0.7" fill="#05BCB0" fill-rule="nonzero" points="0 0 50 0 50 52 0 52"></polygon>
                <path d="M34.6415352,31.6900859 C31.9218008,31.6695 29.6756758,33.8838828 29.6631914,36.5978398 C29.6506406,39.3315195 31.8648906,41.5652266 34.6066719,41.58475 C37.3147187,41.6040742 39.5575898,39.3884961 39.5858789,36.6662383 C39.6142344,33.9423203 37.3970625,31.7108711 34.6415352,31.6900859 M14.1068633,22.7513398 C14.0099766,24.6564023 14.316043,26.4390117 15.0210781,28.1525586 C15.5336016,29.3983398 15.2908203,30.4832187 14.3521016,31.4329609 C12.4850234,33.3218203 10.6204023,35.2132695 8.75617969,37.1049844 C8.29631641,37.5716211 8.29724609,38.0289609 8.75770703,38.4898867 C9.64921094,39.3824531 10.5431055,40.2726953 11.4363359,41.1635352 C11.9910937,41.716832 12.4132383,41.7188906 12.9683281,41.1732969 C14.8624336,39.3114648 16.7510937,37.4439219 18.6533672,35.5905234 C19.5574219,34.7097773 20.6168008,34.4852578 21.7977695,34.9634492 C22.7966523,35.3679961 23.823957,35.6745937 24.8929648,35.7994375 C25.6644062,35.8895508 26.4448125,35.9032969 27.244543,35.9525703 C22.8423398,31.5290508 18.4935937,27.1592539 14.1068633,22.7513398 M28.3529961,35.0399492 L28.4504805,34.9697578 C28.4842148,34.8795117 28.5210703,34.7903945 28.5513516,34.6989531 C29.6748789,31.3070547 33.1929492,29.5043906 36.5981289,30.5876758 C36.8315469,30.6619844 36.9292305,30.5917266 37.0475,30.4146211 C39.1250195,27.3031562 39.9839844,23.889543 39.4021992,20.19025 C38.6970312,15.7055703 36.1656914,12.6236563 31.8871367,11.0965781 C28.7431328,9.97444531 25.5811992,10.227918 22.5166836,11.4681211 C18.3297695,13.162543 15.5075703,16.1124414 14.3949336,20.5713555 C14.3317148,20.8247617 14.3783984,20.9907773 14.5685195,21.1799687 C19.0706641,25.6615273 23.5657695,30.1501914 28.059082,34.640582 C28.1746289,34.7560625 28.2557773,34.9060742 28.3529961,35.0399492 M26.921875,9 L28.7148437,9 C29.3259141,9.08812109 29.9399062,9.15950781 30.5476562,9.26682031 C35.6997852,10.1765859 39.8236797,14.3023398 40.7287305,19.4535391 C40.8392969,20.0827383 40.9105508,20.7187773 41,21.3515625 L41,23.078125 C40.9802109,23.1739492 40.9496641,23.2689102 40.942293,23.3656641 C40.734375,26.0936992 39.8912812,28.6075742 38.4061719,30.9057617 C38.3187148,31.0412305 38.2296641,31.1755039 38.139418,31.3132305 C38.2387617,31.3878711 38.3088203,31.4411289 38.3794102,31.4933906 C39.6546094,32.4375547 40.4727344,33.6838672 40.8426172,35.2250234 C40.9011875,35.4688672 40.9478711,35.7155664 41,35.9609375 L41,37.2890625 C40.9798125,37.3502891 40.9493984,37.4101875 40.940832,37.4729414 C40.5869531,40.0837031 38.6849453,42.1933633 36.1203359,42.8146602 C35.844418,42.8815312 35.5661758,42.9385078 35.2890625,43 L33.9609375,43 C33.900375,42.9793477 33.8413398,42.9497305 33.7791172,42.9391055 C31.1109805,42.4865469 29.3498867,40.9762031 28.5105117,38.4043555 C28.3918437,38.0409141 28.3377891,37.6562891 28.2546484,37.2850781 C28.239707,37.277707 28.2298125,37.268543 28.2201172,37.2686758 C28.1546406,37.2698047 28.0888984,37.2696055 28.0238867,37.2758477 C25.7494062,37.4936602 23.5433906,37.1980195 21.42875,36.3330781 C20.6713203,36.0232266 20.083957,36.1515234 19.5114023,36.7228828 C17.7580781,38.4727539 15.9753359,40.1930742 14.2186914,41.9396914 C13.7414297,42.4141641 13.2500898,42.8395625 12.578125,43 L11.8476562,43 C11.1841914,42.8500547 10.6875391,42.4506875 10.2277422,41.969043 C9.55604297,41.2654023 8.86455469,40.579957 8.16317187,39.9059336 C7.65735547,39.4199062 7.18905859,38.9184062 7,38.21875 L7,37.421875 C7.16242969,36.7503086 7.58782813,36.2587695 8.06376172,35.7822383 C9.78321875,34.0608555 11.4689414,32.3055391 13.2021445,30.5983008 C13.8492734,29.9608672 13.9752461,29.335918 13.6439453,28.4849219 C12.2563203,24.9201016 12.2737852,21.3314414 13.8307461,17.840332 C15.9961875,12.9849727 19.9261758,10.3381523 25.0239844,9.2709375 C25.6481367,9.14025 26.2888242,9.08845313 26.921875,9" id="ping-pong" fill="#FFFFFF"></path>
            </g>
        </g>
    </g>
</svg>