<?xml version="1.0" encoding="UTF-8"?>
<svg width="105px" height="105px" viewBox="0 0 105 105" version="1.1" xmlns="http://www.w3.org/2000/svg" xmlns:xlink="http://www.w3.org/1999/xlink">
    <!-- Generator: Sketch 52.2 (67145) - http://www.bohemiancoding.com/sketch -->
    <title>Group 2</title>
    <desc>Created with Sketch.</desc>
    <g id="Page-1" stroke="none" stroke-width="1" fill="none" fill-rule="evenodd">
        <g id="Desktop" transform="translate(-104.000000, -263.000000)">
            <g id="Group-2" transform="translate(104.000000, 263.000000)">
                <rect id="Rectangle" fill-opacity="0.7" fill="#05BCB0" fill-rule="nonzero" x="0" y="0" width="105" height="105"></rect>
                <g id="Group-16" transform="translate(25.000000, 18.000000)" fill="#FFFFFF">
                    <path d="M49.9799835,17.2426216 C45.8658782,13.1198635 41.7611898,9.00667384 37.6718375,4.90871271 C37.6750661,4.89725761 37.6441249,4.95641984 37.6441249,5.01571683 C37.6434523,7.77639605 37.60713,10.5377491 37.6598646,13.297485 C37.6987429,15.3364928 39.506517,17.1771253 41.5585921,17.2257758 C44.3778748,17.2927545 47.2001172,17.2426216 49.9799835,17.2426216 Z M34.9709385,2.6655345 L33.7252183,2.6655345 C29.869943,2.66566927 26.0145332,2.66607357 22.1591234,2.66607357 C17.1381715,2.66607357 12.1172195,2.65475323 7.09626763,2.67038607 C4.64827947,2.67806773 2.80176161,4.46425481 2.80108897,6.81672816 C2.79651505,25.2295219 2.79718769,43.6423157 2.80512478,62.0551095 C2.806201,64.5089268 4.65648561,66.3305573 7.128016,66.3315006 C20.5994171,66.3367565 34.0709528,66.304817 47.5422194,66.3584538 C50.2814585,66.3693699 52.3678381,64.0749806 52.3557306,61.5118682 C52.2919648,47.9269276 52.3258656,34.3417175 52.3245204,20.7566421 C52.3245204,20.5389952 52.3054175,20.3213483 52.2926375,20.0481778 L51.3841765,20.0481778 C48.3357943,20.0479083 45.287412,20.0569376 42.2390298,20.0453477 C38.0464952,20.0295801 34.9798173,16.9526054 34.9737636,12.767316 C34.9693242,9.73602683 34.9716112,6.70460294 34.9709385,3.67317905 L34.9709385,2.6655345 Z M49.6271191,69 L5.36772996,69 C5.31580253,68.9613222 5.26939071,68.9062029 5.21114051,68.8861228 C1.74760789,67.7031479 0.0022543501,65.2628072 0.00198529607,61.5956926 C0.00117813395,54.1408479 0.000774552897,46.6861381 0.000774552897,39.2314282 C0.000774552897,28.5209092 -0.00245409555,17.8102555 0.00427225538,7.09960176 C0.00629016066,3.75767726 2.15239969,1.00211914 5.3420353,0.198240622 C5.5765159,0.139078397 5.80763331,0.066304817 6.04036506,0 L36.7125253,0 C36.91741,0.165357745 37.1396486,0.313465456 37.3247578,0.498768552 C43.0001836,6.17793785 48.6725154,11.8603415 54.3429637,17.5446319 C54.787172,17.9901679 55.001339,18.5166983 54.9999937,19.1720648 C54.9868101,26.1083303 54.9931328,33.044461 54.9935364,39.9805918 C54.99394,47.2983795 55.0001282,54.6161672 54.9904423,61.9339549 C54.9862719,65.1412483 53.0992615,67.7646011 50.10469,68.7905738 C49.9407016,68.8466364 49.78613,68.9296522 49.6271191,69 Z" id="Fill-1"></path>
                    <path d="M19.836632,57.7520421 C19.8467158,59.21196 21.05773,60.3861777 22.5378736,60.3714093 C23.9602395,60.3570437 25.176023,59.1062992 25.177522,57.6553765 C25.1790209,56.2530551 23.9590131,55.091055 22.4924963,55.0979021 C21.0000886,55.1050178 19.8264119,56.2778928 19.836632,57.7520421 M39.3842838,33.0475559 C38.4704703,34.1844498 37.6851575,35.163054 36.8980733,36.1401814 C36.3029907,36.8790014 35.6634847,36.9760697 34.9642934,36.4366223 C34.2735506,35.9037536 34.2028275,35.2332708 34.7831931,34.5184829 C36.3566803,32.5803392 37.9315302,30.6430009 39.517554,28.7145237 C40.3074999,27.7540443 41.2285356,27.7635766 42.0067625,28.732917 C43.5557214,30.661797 45.0971856,32.5963158 46.6353793,34.5335198 C47.1695501,35.2061508 47.1067305,36.1047374 46.5130106,36.5743707 C45.9972361,36.9821113 45.0980032,36.8342936 44.5720085,36.207176 C43.7794735,35.2624047 43.0185527,34.2922588 42.1528418,33.2194057 C42.121909,33.513967 42.0912487,33.6727939 42.0907036,33.8318892 C42.0808923,36.1130613 42.2078941,38.4036315 42.0445087,40.6737946 C41.4818579,48.4881283 37.5516148,54.0872103 30.3662005,57.4510364 C29.7336442,57.7470745 29.0723354,58.0025669 28.3993075,58.1887823 C27.9260485,58.3198178 27.7197387,58.5316764 27.5893302,59.0088282 C26.8722877,61.6346398 24.2540334,63.327092 21.5771838,62.94674 C18.9462565,62.5729667 16.9698247,60.2930028 17.0003488,57.6669227 C17.0273299,55.3380891 18.6921166,53.2192345 20.9657491,52.6199082 C23.2952514,52.0059479 25.7567974,52.9605199 26.9909772,54.9576028 C27.1077589,55.1465034 27.2182723,55.3391631 27.4229469,55.6839369 C28.6443174,55.1114621 29.9286438,54.6490787 31.0656644,53.9528184 C36.4681476,50.6449778 39.2722715,45.8318402 39.4090846,39.5512661 C39.4513277,37.6062752 39.4176695,35.6598074 39.4171244,33.714011 C39.4169882,33.5632396 39.4028163,33.4124682 39.3842838,33.0475559" id="Fill-4"></path>
                    <path d="M17.9692327,42.923927 C17.1178565,43.7892176 16.3357931,44.5974608 15.5384837,45.3903505 C14.7757602,46.1490117 14.0058371,46.1971851 13.3862566,45.5483932 C12.8087437,44.9435489 12.8814446,44.1641816 13.5963126,43.4474961 C14.3916456,42.6502399 15.195731,41.8615759 16.0687058,40.9971304 C15.2298934,40.1680402 14.4066093,39.3764183 13.6133938,38.5559205 C13.3770807,38.3115318 13.1402031,38.0086871 13.0532444,37.6917566 C12.8797506,37.0587408 13.1385091,36.5291147 13.7089636,36.202465 C14.2840766,35.873139 14.8565075,35.9480755 15.3268749,36.4089629 C16.1978733,37.2624215 17.0427558,38.1422205 18.0024069,39.1165353 C18.7062639,38.3902715 19.3674886,37.706265 20.0311132,37.0245123 C20.2439925,36.8059007 20.451084,36.579401 20.6821739,36.3812138 C21.2822734,35.8666596 22.0496555,35.8951129 22.583689,36.4353033 C23.120687,36.9783109 23.1508967,37.7403527 22.6000643,38.3287165 C21.9265581,39.0480783 21.2188896,39.7363105 20.5105152,40.4221481 C20.326575,40.6003334 20.0850388,40.7194993 19.838703,40.8868386 C20.7503574,41.8491804 21.5228214,42.6620719 22.292321,43.4776398 C22.991096,44.2182711 23.0395162,44.9872149 22.429535,45.5838894 C21.7921674,46.2073269 21.0235149,46.1243615 20.2818252,45.3489382 C19.5367475,44.5702752 18.7940696,43.7892176 17.9692327,42.923927" id="Fill-6"></path>
                    <path d="M18.9841654,9.00647128 C21.7739792,9.00647128 24.5642019,8.98028606 27.3531981,9.03326193 C27.7985435,9.04173807 28.3415978,9.28739477 28.6593902,9.62977028 C29.3105103,10.3310195 28.9745934,11.5642978 28.1051614,11.8806395 C27.8323396,11.9797801 27.5254492,11.9946133 27.2340941,11.994916 C21.7224674,12.0012731 16.2108407,11.9996082 10.6993503,11.9994568 C10.6085914,11.9994568 10.51756,12.0020299 10.4272099,11.9959755 C9.58789461,11.9398211 9.00218633,11.3271173 9.00000593,10.504629 C8.99782554,9.64081953 9.59688873,9.01555285 10.4785855,9.01252566 C13.3137788,9.00299 16.1489721,9.00889303 18.9841654,9.00889303 L18.9841654,9.00647128 Z" id="Fill-8"></path>
                    <path d="M18.9418915,17.0058786 C21.7969976,17.0058786 24.6522398,16.9995313 27.5073459,17.009959 C28.3337093,17.0129815 29.0048743,17.7149631 28.9999733,18.5185016 C28.9949362,19.3324678 28.3985114,19.9463428 27.5612569,19.9934942 C27.3803282,20.0036196 27.1987189,19.9987836 27.0175179,19.9986325 C23.8224729,19.9978768 20.6272917,19.9963656 17.4322467,19.9960633 C15.1436148,19.9959122 12.8549829,19.9945521 10.566351,19.9999926 C9.95005001,20.0015039 9.4530067,19.7711874 9.16357529,19.1411419 C8.91171823,18.5930069 8.93731236,17.9889551 9.3341574,17.6053965 C9.65966563,17.2909027 10.1561644,17.0391263 10.5807818,17.0314189 C13.3672738,16.9816983 16.1547188,17.0058786 18.9418915,17.0058786" id="Fill-10"></path>
                    <path d="M19.0288595,25.0032952 C21.8622096,25.0032952 24.6955598,25.0032952 27.5289099,25.0034462 C28.1543522,25.0034462 28.6245573,25.2916611 28.8772943,25.9401446 C29.1112394,26.5402901 29.0121055,27.1427015 28.5675009,27.5127887 C28.2352389,27.7895234 27.7520974,27.9704885 27.3345912,27.9741138 C23.4134916,28.0079504 19.4919836,27.9940532 15.5706117,27.9943553 C13.8706289,27.9943553 12.1705098,28.0100651 10.4706631,27.9890684 C9.64300408,27.9787966 8.97834401,27.2472323 9.00054019,26.4469375 C9.02355342,25.6239843 9.62094406,25.0322979 10.4607225,25.0019357 C10.5514137,24.9986124 10.6421049,25.0005762 10.732796,25.0005762 C13.4980597,25.0004251 16.2634596,25.0004251 19.0288595,25.0004251 L19.0288595,25.0032952 Z" id="Fill-12"></path>
                </g>
            </g>
        </g>
    </g>
</svg>