<?xml version="1.0" encoding="UTF-8"?>
<svg width="105px" height="94px" viewBox="0 0 105 94" version="1.1" xmlns="http://www.w3.org/2000/svg" xmlns:xlink="http://www.w3.org/1999/xlink">
    <!-- Generator: Sketch 52.2 (67145) - http://www.bohemiancoding.com/sketch -->
    <title>Group 2</title>
    <desc>Created with Sketch.</desc>
    <g id="Page-1" stroke="none" stroke-width="1" fill="none" fill-rule="evenodd">
        <g id="Lesson-11" transform="translate(-55.000000, -2214.000000)">
            <g id="Group-2" transform="translate(55.000000, 2214.000000)">
                <rect id="Rectangle-12" fill-opacity="0.7" fill="#05BCB0" fill-rule="nonzero" x="0" y="0" width="105" height="94"></rect>
                <path d="M37.4976835,46.6035279 C36.5601902,46.6035279 35.622417,46.5942902 34.6849237,46.606126 C33.6738192,46.6188278 33.0107586,47.2088845 33.0001227,48.0804018 C32.9896268,48.9532181 33.6532473,49.581236 34.6511969,49.5890303 C36.5485748,49.6036085 38.4462325,49.6037528 40.3436103,49.5888859 C41.3376415,49.5810916 42.0110581,48.9460012 41.9998625,48.0806905 C41.9888068,47.2171118 41.3144106,46.6186834 40.3104433,46.6059816 C39.37295,46.5941458 38.4353168,46.6035279 37.4976835,46.6035279 M48.4656631,59.5998707 C53.0138496,59.5998707 57.5620361,59.6007401 62.1102227,59.597842 C62.3653023,59.5976971 62.626789,59.6029136 62.8739934,59.5471259 C63.5743613,59.3891816 64.0077698,58.8052222 63.9998945,58.0773741 C63.9920192,57.3496708 63.5439279,56.7870122 62.8351508,56.6471807 C62.6065001,56.601971 62.3682389,56.6018261 62.1343825,56.6016812 C53.0593662,56.5996525 43.9844834,56.5997974 34.909467,56.600377 C33.6905306,56.600377 32.9830883,57.1662235 33.0003072,58.1215695 C33.0171257,59.0608312 33.7017429,59.599436 34.8853072,59.5995809 C39.412137,59.6003054 43.9388333,59.5998707 48.4656631,59.5998707 M45,50.5932495 C45.1571781,50.5932495 45.2426702,50.6099783 45.318737,50.5907663 C47.8450032,49.9558552 50.3723314,49.3252569 52.8926238,48.6681278 C53.1594548,48.5984679 53.416064,48.403734 53.6228913,48.2104376 C56.0700374,45.9208105 58.5070944,43.6207279 60.9464082,41.322867 C66.5154778,36.0770737 72.0919814,30.83873 77.649767,25.5814356 C79.9045559,23.4485105 79.2406643,20.0151808 76.3635351,18.9305518 C74.5655451,18.2526423 72.9453098,18.6310012 71.554204,19.9409466 C63.5447586,27.4835552 55.5353133,35.0261638 47.5326383,42.5755685 C47.342936,42.7544885 47.1641194,42.9945732 47.0932299,43.2379253 C46.3879198,45.6645197 45.7063722,48.0977794 45,50.5932495 M24.0246287,45.5939587 C24.0246287,52.6762701 24.0202029,59.7585814 24.0329439,66.8408928 C24.0340168,67.4022074 24.086054,67.9811247 24.2310337,68.5218153 C24.8886059,70.9744962 27.1494045,72.5851394 29.9138098,72.5861903 C42.2942203,72.5909194 54.6744965,72.5714776 67.0546387,72.5999834 C70.215626,72.6072084 73.0441389,70.251999 72.9994781,66.7572145 C72.9042556,59.3187777 72.9703749,51.8785018 72.9703749,44.4387514 C72.9703749,44.3127742 72.9768125,44.1861401 72.9676926,44.0606884 C72.9157896,43.3560566 72.4073546,42.8545122 71.6902348,42.7957929 C70.7231221,42.7164495 70.1029683,43.3379285 70.1027,44.4063047 C70.1005542,51.8668105 70.1021636,59.3273163 70.0989448,66.7878221 C70.0988107,67.1013859 70.1017612,67.4236196 70.0340325,67.7269371 C69.7240897,69.1166275 68.5720306,69.8945599 66.843942,69.8948227 C54.6354687,69.8962676 42.4267272,69.8810295 30.2182539,69.9115058 C28.4084884,69.9159721 26.8861342,68.9025056 26.8944494,66.6443736 C26.9456819,52.6270089 26.9201998,38.6092502 26.9206021,24.5917541 C26.9206021,24.3606864 26.9157739,24.1288305 26.9310632,23.8985509 C27.0087165,22.7266605 27.634235,21.9216673 28.7372075,21.5274466 C29.2066146,21.3596959 29.7440186,21.3170029 30.25071,21.3160833 C37.5458324,21.3033411 44.8409548,21.3076761 52.1360772,21.3060997 C52.4145027,21.3059684 52.6966834,21.3120111 52.970683,21.2727335 C53.5912391,21.183932 54.0705708,20.6812054 54.1305208,20.091779 C54.1888614,19.5179849 53.8590694,18.958378 53.2766023,18.7492479 C53.0036756,18.651251 52.6919893,18.6214316 52.3977381,18.6211689 C44.9524055,18.6144694 37.5068046,18.6496747 30.0618743,18.6001508 C26.8768802,18.5787386 23.9566317,20.8392352 24.0004878,24.5363189 C24.0836399,31.5547878 24.0244946,38.5747017 24.0246287,45.5939587" id="Fill-1" fill="#FFFFFF"></path>
            </g>
        </g>
    </g>
</svg>