<?xml version="1.0" encoding="UTF-8"?>
<svg width="55px" height="54px" viewBox="0 0 55 54" version="1.1" xmlns="http://www.w3.org/2000/svg" xmlns:xlink="http://www.w3.org/1999/xlink">
    <!-- Generator: Sketch 52.2 (67145) - http://www.bohemiancoding.com/sketch -->
    <title>Fill 1</title>
    <desc>Created with Sketch.</desc>
    <g id="Page-1" stroke="none" stroke-width="1" fill="none" fill-rule="evenodd">
        <g id="Lesson-11" transform="translate(-284.000000, -3339.000000)" fill="#32C5DD">
            <path d="M297.497684,3367.00353 C296.56019,3367.00353 295.622417,3366.99429 294.684924,3367.00613 C293.673819,3367.01883 293.010759,3367.60888 293.000123,3368.4804 C292.989627,3369.35322 293.653247,3369.98124 294.651197,3369.98903 C296.548575,3370.00361 298.446232,3370.00375 300.34361,3369.98889 C301.337642,3369.98109 302.011058,3369.346 301.999862,3368.48069 C301.988807,3367.61711 301.314411,3367.01868 300.310443,3367.00598 C299.37295,3366.99415 298.435317,3367.00353 297.497684,3367.00353 M308.465663,3379.99987 C313.01385,3379.99987 317.562036,3380.00074 322.110223,3379.99784 C322.365302,3379.9977 322.626789,3380.00291 322.873993,3379.94713 C323.574361,3379.78918 324.00777,3379.20522 323.999894,3378.47737 C323.992019,3377.74967 323.543928,3377.18701 322.835151,3377.04718 C322.6065,3377.00197 322.368239,3377.00183 322.134382,3377.00168 C313.059366,3376.99965 303.984483,3376.9998 294.909467,3377.00038 C293.690531,3377.00038 292.983088,3377.56622 293.000307,3378.52157 C293.017126,3379.46083 293.701743,3379.99944 294.885307,3379.99958 C299.412137,3380.00031 303.938833,3379.99987 308.465663,3379.99987 M305,3370.99325 C305.157178,3370.99325 305.24267,3371.00998 305.318737,3370.99077 C307.845003,3370.35586 310.372331,3369.72526 312.892624,3369.06813 C313.159455,3368.99847 313.416064,3368.80373 313.622891,3368.61044 C316.070037,3366.32081 318.507094,3364.02073 320.946408,3361.72287 C326.515478,3356.47707 332.091981,3351.23873 337.649767,3345.98144 C339.904556,3343.84851 339.240664,3340.41518 336.363535,3339.33055 C334.565545,3338.65264 332.94531,3339.031 331.554204,3340.34095 C323.544759,3347.88356 315.535313,3355.42616 307.532638,3362.97557 C307.342936,3363.15449 307.164119,3363.39457 307.09323,3363.63793 C306.38792,3366.06452 305.706372,3368.49778 305,3370.99325 M284.024629,3365.99396 C284.024629,3373.07627 284.020203,3380.15858 284.032944,3387.24089 C284.034017,3387.80221 284.086054,3388.38112 284.231034,3388.92182 C284.888606,3391.3745 287.149405,3392.98514 289.91381,3392.98619 C302.29422,3392.99092 314.674497,3392.97148 327.054639,3392.99998 C330.215626,3393.00721 333.044139,3390.652 332.999478,3387.15721 C332.904256,3379.71878 332.970375,3372.2785 332.970375,3364.83875 C332.970375,3364.71277 332.976812,3364.58614 332.967693,3364.46069 C332.91579,3363.75606 332.407355,3363.25451 331.690235,3363.19579 C330.723122,3363.11645 330.102968,3363.73793 330.1027,3364.8063 C330.100554,3372.26681 330.102164,3379.72732 330.098945,3387.18782 C330.098811,3387.50139 330.101761,3387.82362 330.034032,3388.12694 C329.72409,3389.51663 328.572031,3390.29456 326.843942,3390.29482 C314.635469,3390.29627 302.426727,3390.28103 290.218254,3390.31151 C288.408488,3390.31597 286.886134,3389.30251 286.894449,3387.04437 C286.945682,3373.02701 286.9202,3359.00925 286.920602,3344.99175 C286.920602,3344.76069 286.915774,3344.52883 286.931063,3344.29855 C287.008717,3343.12666 287.634235,3342.32167 288.737207,3341.92745 C289.206615,3341.7597 289.744019,3341.717 290.25071,3341.71608 C297.545832,3341.70334 304.840955,3341.70768 312.136077,3341.7061 C312.414503,3341.70597 312.696683,3341.71201 312.970683,3341.67273 C313.591239,3341.58393 314.070571,3341.08121 314.130521,3340.49178 C314.188861,3339.91798 313.859069,3339.35838 313.276602,3339.14925 C313.003676,3339.05125 312.691989,3339.02143 312.397738,3339.02117 C304.952405,3339.01447 297.506805,3339.04967 290.061874,3339.00015 C286.87688,3338.97874 283.956632,3341.23924 284.000488,3344.93632 C284.08364,3351.95479 284.024495,3358.9747 284.024629,3365.99396" id="Fill-1"></path>
        </g>
    </g>
</svg>