<?xml version="1.0" encoding="UTF-8"?>
<svg width="92px" height="90px" viewBox="0 0 92 90" version="1.1" xmlns="http://www.w3.org/2000/svg" xmlns:xlink="http://www.w3.org/1999/xlink">
    <!-- Generator: Sketch 52.2 (67145) - http://www.bohemiancoding.com/sketch -->
    <title>Group 5</title>
    <desc>Created with Sketch.</desc>
    <defs>
        <polygon id="path-1" points="0 0 64 0 64 64 0 64"></polygon>
    </defs>
    <g id="Page-1" stroke="none" stroke-width="1" fill="none" fill-rule="evenodd">
        <g id="Lesson-10" transform="translate(-47.000000, -4426.000000)">
            <g id="Group-5" transform="translate(47.000000, 4426.000000)">
                <rect id="Rectangle" fill="#97B306" fill-rule="nonzero" x="0" y="0" width="92" height="90"></rect>
                <g id="Group-3" transform="translate(16.000000, 13.000000)">
                    <mask id="mask-2" fill="white">
                        <use xlink:href="#path-1"></use>
                    </mask>
                    <g id="Clip-2"></g>
                    <path d="M15.9465154,33.0817217 C14.9073815,33.0817217 13.8679373,33.0717577 12.8288034,33.0845241 C11.7080775,33.0982246 10.9731296,33.7346744 10.9613406,34.6747145 C10.9497068,35.6161558 11.6852752,36.2935514 12.79142,36.3019585 C14.8945067,36.3176829 16.9979036,36.3178386 19.1009903,36.3018028 C20.2027918,36.2933957 20.9492185,35.6083714 20.936809,34.6750259 C20.9245547,33.7435486 20.1770422,33.0980689 19.0642274,33.0843684 C18.0250935,33.071602 16.9858044,33.0817217 15.9465154,33.0817217 M28.2924935,48.5733897 C33.5779763,48.5733897 38.863459,48.5743238 44.1489418,48.5712101 C44.4453719,48.5710544 44.7492476,48.5766591 45.0365257,48.5167195 C45.8504286,48.3470203 46.354096,47.7196004 46.344944,46.9375829 C46.3357921,46.1557211 45.8150617,45.5511872 44.9913864,45.4009489 C44.7256697,45.3523745 44.4487845,45.3522188 44.1770181,45.3520631 C33.6308714,45.3498835 23.0848799,45.3500392 12.5387332,45.3506619 C11.1221977,45.3506619 10.3000736,45.9586209 10.3200838,46.9850675 C10.3396286,47.9942328 11.1352276,48.5729226 12.5106569,48.5730783 C17.7713208,48.5738567 23.0318296,48.5733897 28.2924935,48.5733897 M24.2716859,38.1115123 C24.4553453,38.1115123 24.5552412,38.1314403 24.6441237,38.1085543 C27.5960147,37.3522252 30.5491468,36.6010339 33.4940576,35.8182379 C33.8058443,35.7352566 34.1056869,35.5032825 34.3473604,35.2730209 C37.2068013,32.5455345 40.0544533,29.8055932 42.9047422,27.0682985 C49.4120876,20.8193204 55.9281196,14.5792164 62.42228,8.31653781 C65.0569553,5.77572055 64.2812113,1.68581434 60.919344,0.393765167 C58.818429,-0.413785024 56.9252166,0.0369298023 55.2997375,1.59738393 C45.9408622,10.5824112 36.5819869,19.5674385 27.2310226,28.5605616 C27.0093594,28.7736975 26.8004157,29.0596952 26.7175828,29.349585 C25.8934421,32.2402317 25.0970675,35.1388184 24.2716859,38.1115123 M0.0284853362,31.9933116 C0.0284853362,40.3870384 0.0233664499,48.7807652 0.0381026377,57.174492 C0.0393435798,57.839744 0.0995292731,58.5258581 0.267211578,59.1666671 C1.02775399,62.0735053 3.64257417,63.9823877 6.83986157,63.9836332 C21.1589377,63.9892379 35.4778587,63.9661962 49.7966246,63.9999804 C53.4525952,64.0085432 56.7240289,61.217225 56.6723747,57.0753192 C56.562241,48.259524 56.6387141,39.4415492 56.6387141,30.6241972 C56.6387141,30.474893 56.6461598,30.3248104 56.6356118,30.176129 C56.5755812,29.3410222 55.9875297,28.746608 55.158115,28.6770157 C54.0395608,28.5829806 53.3222963,29.3195373 53.321986,30.5857424 C53.3195041,39.4276931 53.3213656,48.2696437 53.3176427,57.1115943 C53.3174876,57.48322 53.3209002,57.865121 53.2425657,58.2246031 C52.8840886,59.8716194 51.551627,60.7935998 49.5529345,60.7939111 C35.4327194,60.7956237 21.312194,60.777564 7.1919789,60.8136834 C5.09881976,60.8189768 3.338078,59.617849 3.3476953,56.9415838 C3.40695028,40.3286556 3.37747791,23.7152604 3.37794326,7.10217662 C3.37794326,6.8283226 3.37235902,6.55353446 3.39004245,6.28061457 C3.47985563,4.89172788 4.2033249,3.93767591 5.4790134,3.47045822 C6.02192559,3.2716455 6.64348248,3.22104712 7.2295174,3.21995731 C15.6669932,3.20485563 24.1044689,3.20999332 32.5419447,3.20812507 C32.8639692,3.20796938 33.190337,3.215131 33.5072426,3.16858049 C34.2249725,3.06333585 34.7793634,2.46752043 34.848701,1.76895137 C34.9161772,1.0889091 34.5347427,0.42568107 33.8610662,0.177826838 C33.5454015,0.0616840881 33.1849079,0.0263430637 32.8445795,0.026031689 C24.2333718,0.0180916351 15.6218539,0.0598158401 7.01111158,0.00112171589 C3.32737487,-0.0242553192 -0.0501593713,2.65481229 0.000564138238,7.03647656 C0.0967371533,15.3545393 0.0283302184,23.6743147 0.0284853362,31.9933116" id="Fill-1" fill="#FFFFFF" mask="url(#mask-2)"></path>
                </g>
            </g>
        </g>
    </g>
</svg>