<?xml version="1.0" encoding="UTF-8"?>
<svg width="50px" height="52px" viewBox="0 0 50 52" version="1.1" xmlns="http://www.w3.org/2000/svg" xmlns:xlink="http://www.w3.org/1999/xlink">
    <!-- Generator: Sketch 52.2 (67145) - http://www.bohemiancoding.com/sketch -->
    <title>Group 9</title>
    <desc>Created with Sketch.</desc>
    <g id="Page-1" stroke="none" stroke-width="1" fill="none" fill-rule="evenodd">
        <g id="Lesson-2" transform="translate(-467.000000, -5780.000000)">
            <g id="Group-9" transform="translate(467.000000, 5780.000000)">
                <polygon id="Rectangle-12" fill-opacity="0.7" fill="#05BCB0" fill-rule="nonzero" points="0 0 50 0 50 52 0 52"></polygon>
                <g id="cards" transform="translate(7.000000, 4.000000)" fill="#FFFFFF">
                    <path d="M31.372354,4.49482405 C31.2092493,5.82624521 31.05456,7.06152998 30.9069089,8.29772028 C30.3675619,12.8132634 29.8309689,17.3291083 29.2923869,21.8446515 C28.7628322,26.2856398 28.2011462,30.723157 27.7138212,35.168522 C27.4315247,37.7432268 26.0986871,39.0195619 23.4940615,39.0198638 C16.4060463,39.0206184 9.31803117,39.0201656 2.25618009,39.0201656 C2.31493449,39.4267456 2.65491441,39.5278624 3.16060011,39.5255986 C7.23913507,39.5077899 11.317976,39.5154869 15.396511,39.5163924 C15.6001623,39.5163924 15.8227865,39.4780586 16.0013448,39.5468784 C16.129258,39.5960785 16.2548761,39.7871439 16.2733899,39.9287074 C16.2854774,40.020618 16.1205366,40.195384 16.0037929,40.229492 C15.8149831,40.2848799 15.6004684,40.2604308 15.396664,40.2604308 C11.5474854,40.2613363 7.69830687,40.2607326 3.8491283,40.2604308 L2.98418389,40.2604308 C3.20543095,41.0658938 3.50700629,41.4599474 4.37470481,41.432178 C6.5900825,41.3612453 8.80943835,41.4066724 11.0272641,41.4102945 C11.2807955,41.4105963 11.5419772,41.4105963 11.7843391,41.4711155 C11.8957277,41.4988849 12.0394006,41.6713871 12.0412367,41.7803517 C12.0430727,41.8927875 11.9114873,42.072383 11.8007108,42.1076984 C11.5900212,42.1745562 11.3524025,42.1753108 11.1259532,42.1759145 C9.11208474,42.1801403 7.09836931,42.1783292 5.08450087,42.1783292 L3.99647333,42.1783292 C4.73335149,43.0838526 5.58636141,43.2299437 6.49292352,43.2302455 C13.1208488,43.2326602 19.7486212,43.2396026 26.3763935,43.227378 C28.2631137,43.2239068 29.2640807,42.3283443 29.4851747,40.497527 C29.9158874,36.9303686 30.3319114,33.3613993 30.7561978,29.7934863 C31.5660599,22.9822906 32.3829604,16.1718495 33.1782869,9.35884273 C33.2509649,8.73554082 33.1879263,8.09684501 33.1879263,7.46524248 C33.0991827,7.46071486 33.0105921,7.45633816 32.9220014,7.45181055 C32.8704383,7.63714099 32.7930172,7.81930211 32.7711373,8.00795281 C32.447223,10.7780997 32.1312651,13.549152 31.812706,16.3199026 C31.7094268,17.2184836 31.6281805,18.1205357 31.4816005,19.0121744 C31.4473271,19.2195393 31.1879815,19.3908341 31.0320681,19.5787302 C30.933532,19.3582352 30.8271927,19.1406078 30.7410502,18.9155853 C30.7168752,18.8525005 30.7508426,18.7672303 30.7597169,18.6923737 C31.2078723,14.8743855 31.6370548,11.0539824 32.1173415,7.23991808 C32.2428066,6.24399332 32.1419755,5.36201357 31.372354,4.49482405 M13.8133552,38.2610352 C17.1277769,38.2610352 20.4420456,38.2657137 23.7566202,38.2593751 C25.5911653,38.255753 26.6909744,37.3392124 26.902888,35.6387905 C27.0364625,34.5668018 27.1346925,33.4904363 27.2616877,32.4175421 C27.7901714,27.9504445 28.3221741,23.4839506 28.855401,19.0176075 C29.4391199,14.1268759 30.0476258,9.23886088 30.6015084,4.34480901 C30.8674333,1.99407039 29.7217224,0.775085039 27.3388029,0.772066628 C20.8628128,0.763765998 14.3871287,0.764671521 7.91129159,0.765577044 C5.62843813,0.765878885 4.69861907,1.64589666 4.44875984,3.88314302 C3.94093205,8.42826656 3.39684178,12.9694662 2.85611765,17.5109676 C2.16988455,23.2750765 1.46070052,29.0364688 0.785483881,34.8017851 C0.530269433,36.9821344 1.71713902,38.2563567 3.94674629,38.2607334 C7.23561593,38.2672229 10.5244856,38.2623935 13.8133552,38.2610352 M17.6828836,0.00267362101 C20.9458952,0.00267362101 24.2090598,0.00750307888 27.4719183,0.000711653745 C29.221545,-0.00306136022 30.4766553,0.719848115 31.2455118,2.30828699 C31.957756,3.77961152 32.7302846,5.22392126 33.5181138,6.65766657 C34.0334389,7.59518508 34.0617451,8.56892452 33.9401051,9.58522356 C33.1221336,16.4208684 32.3084463,23.257117 31.4976661,30.0936673 C31.0833252,33.5865727 30.6848969,37.0812892 30.2659657,40.5737418 C30.0130464,42.6816493 28.4935412,43.9978275 26.3234533,43.998733 C19.72108,44.0016005 13.1185538,43.9990348 6.51602747,43.9966201 C4.70749343,43.9958655 3.42774905,43.225567 2.67205111,41.5589512 C2.09078032,40.2767302 1.46115954,39.0056772 0.727953526,37.8037459 C0.0409554022,36.6774258 -0.0981272914,35.5325424 0.0577860912,34.2645079 C0.781352712,28.3790589 1.46804482,22.4892332 2.17233265,16.6015203 C2.65873957,12.5351168 3.1531028,8.46946787 3.64103978,4.40321527 C3.67408913,4.12914353 3.68173944,3.85205339 3.70331333,3.57662337 C3.86748905,1.4663012 5.43565024,0.0120306956 7.58798935,0.00539019106 C10.9529031,-0.00487240692 14.3179699,0.00267362101 17.6828836,0.00267362101" id="Fill-1" stroke="#FFFFFF" stroke-width="0.5"></path>
                    <path d="M16.2305112,7.08962932 C16.070774,7.23126772 15.969663,7.30375148 15.8894137,7.39454532 C12.8766398,10.8044596 9.83432434,14.1898596 6.8821561,17.650921 C6.32132484,18.3085711 5.97078627,19.2348197 5.77891893,20.0937295 C5.25844073,22.4228944 6.71282556,24.1243711 9.08238712,23.8084085 C10.5583951,23.6116885 11.9794316,22.9747696 13.4108228,22.4932596 C14.061649,22.2744464 14.2786418,22.3747736 14.2009812,23.0607212 C14.0063729,24.7785408 13.5975127,26.4349232 12.6177711,27.899428 C12.358598,28.286815 12.055874,28.6456021 11.6905646,29.1265068 L16.2650778,29.1265068 C14.8798261,27.2112106 14.6664879,25.1037341 14.9789575,22.9018319 C15.0726071,22.2420633 15.2899044,22.2090749 15.8918501,22.5020363 C16.8630643,22.974921 17.8400649,23.5069729 18.877519,23.7599851 C21.1139916,24.3055048 22.982414,22.9048584 23.2595557,20.6365254 C23.3900559,19.5672765 23.1584447,18.5885188 22.5861927,17.6780079 C21.9550101,16.6735253 21.3229139,15.6694966 20.7150294,14.6512436 C19.2292758,12.1627356 17.757227,9.6662074 16.2305112,7.08962932 M13.3681856,23.495321 C12.2148497,23.840489 11.1565339,24.1584188 10.0971521,24.4733221 C9.97624525,24.509337 9.85137921,24.5362725 9.72666544,24.5548852 C6.36487568,25.055008 4.33382291,22.8058931 5.19966232,19.4463694 C5.4193961,18.5938152 5.81835833,17.6990418 6.38695565,17.0377599 C9.46657862,13.4563966 12.621578,9.93889159 15.7607408,6.40837281 C16.2749757,5.830016 16.449179,5.87147852 16.8210362,6.49780475 C18.932186,10.0534432 21.0308491,13.6164964 23.1730631,17.1535221 C23.9965699,18.5133113 24.2115831,19.9233397 23.7885614,21.4280964 C23.1069755,23.8532001 21.0364833,25.0889044 18.5782973,24.4837634 C17.6110423,24.2457322 16.6903837,23.8209683 15.7493201,23.4815506 C15.2052392,25.3491801 16.014432,27.9529963 17.4898309,29.1361915 C17.6719526,29.2822183 17.7442835,29.5635279 17.8674746,29.7820384 C17.6434771,29.8583052 17.4184136,30.0032727 17.1954821,29.9999436 C15.091337,29.9683171 12.9871919,29.9218609 10.8841127,29.8486206 C10.6255487,29.8395412 10.3735325,29.6481175 10.1184707,29.5411321 C10.2718123,29.335938 10.387085,29.0805046 10.584282,28.9331159 C12.4013874,27.574386 13.0392702,25.6472866 13.3681856,23.495321" id="Fill-4"></path>
                    <path d="M7.57943041,9.86212722 C7.66351491,10.30412 7.72544294,10.629719 7.79590328,11 L7.08854755,11 C7.20676128,10.6477849 7.31217655,10.3341838 7.44924393,9.926392 C7.19286188,9.97645234 7.02496811,10.046785 6.86464331,10.0321669 C6.5922976,10.0076194 6.20297671,10.0153422 6.08751534,9.85095673 C5.9592555,9.66809171 5.97508155,9.22913291 6.11462605,9.03923461 C6.62450017,8.3452853 7.21199076,7.7088433 7.81324313,7 C8.21591295,7.6727116 8.61486708,8.23868299 8.89808461,8.85788657 C9.02689492,9.13949319 9.04354668,9.60230995 8.89037801,9.84019997 C8.77973326,10.0121703 8.3057774,9.9567316 7.99228395,9.98555421 C7.90971324,9.99313911 7.82136258,9.93728667 7.57943041,9.86212722" id="Fill-6"></path>
                    <path d="M23.191124,31 C22.799397,30.3499896 22.4163161,29.8176834 22.151353,29.2324936 C22.0091096,28.9185231 21.9375696,28.4536748 22.0699117,28.1634395 C22.2725387,27.7194115 22.735248,27.8868069 23.1163765,28.0297731 C23.1766208,28.0523978 23.2469057,28.0476785 23.4023972,28.0664168 C23.3453604,27.6999792 23.2940413,27.3687973 23.236865,27 L23.9334391,27 C23.8154608,27.3389548 23.7055708,27.6537581 23.5578887,28.0773822 C23.8171342,28.0190853 23.9649558,27.947741 24.1031549,27.9625928 C24.4021449,27.9947949 24.8935817,27.997571 24.9490845,28.1453952 C25.0506073,28.4152266 24.9960806,28.8563398 24.8231573,29.0935526 C24.3495706,29.7435631 23.7804578,30.3250052 23.191124,31" id="Fill-8"></path>
                    <path d="M24.6123358,33.8775395 L23.3873569,33.8775395 C23.591981,34.4086345 23.7692603,34.8681644 24.0219679,35.5242229 C24.2534757,34.8786239 24.411706,34.4369852 24.6123358,33.8775395 M22,32.0728626 C22.6633382,31.8420655 22.7708733,32.2009915 22.8996083,32.57079 C23.149397,33.2878163 23.8703433,33.6274749 24.6233966,33.3000649 C24.8694984,33.1929927 24.9841002,32.7977336 25.103925,32.5156023 C25.2495583,32.172916 25.372302,31.8578924 26,32.0812578 C25.5193179,33.3196077 25.0513864,34.561123 24.5395192,35.7877748 C24.4883632,35.9102611 24.1537753,36.0228384 23.9781857,35.9960015 C23.7780167,35.9653111 23.5104079,35.8067671 23.441739,35.6457458 C22.9421615,34.4756579 22.4854444,33.2909817 22,32.0728626" id="Fill-10"></path>
                    <path d="M8.61547959,4.16276777 C8.40697585,3.58207025 8.23751833,3.11048777 8.06821514,2.6389053 C8.01203797,2.64778999 7.95586079,2.65667467 7.89968362,2.66555936 C7.73269542,3.15046886 7.56570723,3.63537836 7.38405741,4.16276777 L8.61547959,4.16276777 Z M6,5.89847447 C6.48105564,4.68751953 6.94729532,3.47198344 7.46153253,2.27310612 C7.52372868,2.12831351 7.84952543,1.9925444 8.04583687,2.0003185 C8.23798133,2.00781495 8.52673817,2.16857224 8.59109499,2.32336013 C9.08418859,3.50918806 9.53252566,4.71014772 10,5.91929795 C9.47742881,6.11698221 9.25935643,5.94178731 9.11057952,5.49991301 C8.81811868,4.63199025 8.35496566,4.38918844 7.42711629,4.69487716 C7.1635157,4.78164168 6.99174319,5.20241485 6.8698202,5.50060712 C6.7168763,5.87445805 6.56763639,6.14113745 6,5.89847447 Z" id="Fill-12"></path>
                    <path d="M18.5365507,3.00753422 C19.4930689,3.00772992 20.4504521,2.98033199 21.4055284,3.03003965 C21.6078189,3.04041173 21.8020351,3.33337382 22,3.49600007 C21.7979979,3.66214891 21.5974376,3.96880996 21.3937053,3.97252825 C19.4570228,4.00931975 17.5197635,4.00912405 15.583081,3.97213685 C15.3871346,3.96841856 15.1943603,3.65255963 15,3.48171401 C15.1983975,3.32358884 15.3934788,3.03865043 15.5957692,3.02866976 C16.5749243,2.98091909 17.556098,3.00714282 18.5365507,3.00753422" id="Fill-14"></path>
                    <path d="M26.4716914,3.97764809 C26.1502123,3.97764809 25.8136943,4.04054419 25.5122081,3.95532385 C25.3152866,3.89941621 25.1689667,3.62861354 25,3.45390214 C25.1590587,3.30850343 25.3113942,3.04973644 25.4789455,3.03750664 C26.1482661,2.9881992 26.8236023,2.9881992 27.4932767,3.03343004 C27.6689667,3.04527159 27.831564,3.2854027 28,3.42070697 C27.8412951,3.60454219 27.7064756,3.89863971 27.5185775,3.94775303 C27.1866596,4.03452636 26.8223638,3.9720185 26.4716914,3.9720185 L26.4716914,3.97764809 Z" id="Fill-16"></path>
                    <path d="M24.1840055,40.9923982 C23.6023613,40.9923982 23.0186783,41.0178414 22.4399467,40.9756321 C22.2857251,40.9643077 22.1463576,40.7460547 22,40.6229564 C22.154076,40.5054469 22.3049482,40.291606 22.4626649,40.2863115 C23.4070722,40.2543971 24.3535182,40.2905765 25.2982168,40.2661628 C26.8925685,40.224983 27.4153783,39.8267153 27.8028984,38.2701184 C28.0206145,37.3957827 28.1050796,36.488209 28.3019707,35.6075493 C28.3525041,35.3816486 28.6024043,35.2013399 28.760558,35 C28.8444405,35.2251653 29.0324482,35.4698911 28.9951671,35.6722605 C28.7834218,36.8222067 28.5460457,37.9692116 28.2630876,39.1035684 C27.9537706,40.3442573 27.0476639,40.8748886 25.8553952,40.964896 C25.3011294,41.006517 24.7413296,40.9718083 24.1840055,40.9718083 L24.1840055,40.9923982 Z" id="Fill-18"></path>
                    <path d="M15.0886408,41.0169078 C15.5794485,41.0169078 16.0733749,40.9805916 16.5594222,41.0377449 C16.7165135,41.0562007 16.8537426,41.3207333 17,41.4727453 C16.8652331,41.6455944 16.7344058,41.9629144 16.5950427,41.9682726 C15.5328299,42.0103438 14.4683191,42.0107407 13.4061064,41.968471 C13.2662508,41.9629144 13.1352594,41.6422208 13,41.4675856 C13.1508536,41.3151767 13.2936638,41.0476674 13.4538739,41.0313946 C13.9954038,40.9764242 14.5431714,41.010359 15.0886408,41.010359 L15.0886408,41.0169078 Z" id="Fill-20"></path>
                </g>
            </g>
        </g>
    </g>
</svg>