<?xml version="1.0" encoding="UTF-8"?>
<svg width="149px" height="150px" viewBox="0 0 149 150" version="1.1" xmlns="http://www.w3.org/2000/svg" xmlns:xlink="http://www.w3.org/1999/xlink">
    <!-- Generator: Sketch 52.2 (67145) - http://www.bohemiancoding.com/sketch -->
    <title>Group</title>
    <desc>Created with Sketch.</desc>
    <g id="Page-1" stroke="none" stroke-width="1" fill="none" fill-rule="evenodd">
        <g id="Group">
            <path d="M4.62471489,48.9119417 C5.63406126,46.6313592 6.49880213,44.286699 7.62238685,42.0570874 C9.87100232,37.5920388 12.4493183,33.3468932 15.5033864,29.3799029 C18.2639054,25.7900971 21.2745918,22.4478641 24.6265472,19.4303883 C28.2257781,16.1900971 32.0693922,13.2745631 36.2369226,10.7915534 C39.824585,8.65368932 43.5438384,6.80271845 47.4134815,5.24883495 C47.874773,5.14252427 48.2840066,4.91825243 48.6874559,4.6823301 L48.6932401,4.67650485 C48.8450759,4.67359223 49.0128183,4.73330097 49.1285027,4.5731068 C52.6221715,3.40660194 56.1418693,2.33621359 59.7613449,1.6284466 C62.9846014,0.999320388 66.2281027,0.565339806 69.5092014,0.357087379 C73.1763968,0.126990291 76.8349159,0.160485437 80.4919889,0.42407767 C84.5221441,0.716796117 88.490119,1.42019417 92.4204964,2.37990291 C97.2474279,3.55805825 101.884926,5.26776699 106.363358,7.41 C110.83456,9.54932039 115.059933,12.1109709 119.010555,15.1328155 C121.648159,17.1512621 124.181648,19.2876699 126.531487,21.636699 C131.077884,26.1760194 135.042967,31.1726214 138.326957,36.7226214 C140.377463,40.1871845 142.131528,43.7886408 143.625303,47.5226214 C144.427863,49.5265049 145.106063,51.5769903 145.756788,53.6362136 C145.6975,54.1095146 145.963574,54.5085437 146.072028,54.9396117 C146.309181,55.8964078 146.472585,56.8779612 146.886157,57.7852427 C146.893387,58.0779612 146.877481,58.3750485 147.040885,58.6400971 C147.072698,58.7391262 147.105957,58.8381553 147.139216,58.9386408 C147.463133,60.8580583 147.805848,62.7760194 148.102289,64.6998058 C148.346672,66.2740777 148.510077,67.86 148.592502,69.4517476 C148.689387,71.3536893 148.833993,73.2570874 148.828209,75.1590291 C148.822424,77.2051456 148.712524,79.2541748 148.563581,81.2959223 C148.33655,84.4269903 147.873812,87.528932 147.224534,90.6002913 C146.43788,94.3284466 145.385152,97.9765049 144.048997,101.54301 C142.433754,105.853689 140.446874,109.977961 138.073898,113.914369 C135.515827,118.158058 132.531169,122.072621 129.211027,125.749806 C126.029706,129.271165 122.533145,132.424078 118.760388,135.266796 C113.87706,138.946893 108.601851,141.946893 102.959345,144.307573 C98.4519917,146.194951 93.8101552,147.617767 89.0338356,148.583301 C85.7932264,149.237184 82.5236962,149.70466 79.2093382,149.837184 C76.9202331,149.927476 74.6383584,150.049806 72.3405771,149.979903 C67.0581382,149.821165 61.8494482,149.155631 56.7173992,147.89301 C56.5120593,147.842039 56.3009353,147.824563 56.0912573,147.792524 C56.0406454,147.751748 55.9900335,147.712427 55.9394216,147.674563 C55.0428675,147.440097 54.1492055,147.204175 53.2540975,146.971165 C52.9417496,146.794951 52.5946964,146.733786 52.2505353,146.669709 C48.9737748,145.581845 45.7519643,144.357087 42.6284856,142.874563 C38.2541693,140.796408 34.1242363,138.298835 30.2401326,135.402233 C25.4753815,131.844466 21.1646916,127.788641 17.360121,123.199806 C13.2070511,118.188641 9.73218105,112.731845 6.99335293,106.816311 C5.5588664,103.714369 4.36731711,100.517767 3.34495624,97.2439806 C2.14762273,93.4051456 1.27998974,89.4978641 0.7290428,85.5265049 C0.0334903596,80.5138835 -0.083640093,75.4735922 0.196894571,70.4143689 C0.413802817,66.4881553 0.950289211,62.6114563 1.7918932,58.7784466 C2.40357446,55.991068 3.14540066,53.2371845 4.12582593,50.5546602 C4.18366813,50.4002913 4.20102078,50.2313592 4.23717216,50.071165 C4.4222672,49.8090291 4.51047655,49.517767 4.50180022,49.1973786 L4.50469233,49.194466 C4.62471489,49.1362136 4.63339122,49.0269903 4.62471489,48.9119417" id="Path" fill="#72B3AC"></path>
            <path d="M55.0189454,64.2162948 C56.6215385,78.7024062 58.2503423,93.4160973 59.9165898,108.477741 L67.9782323,108.477741 C66.7725431,93.8336404 65.5631095,79.1199493 64.3237209,64.0545439 L84.6744069,64.0545439 C83.4462514,78.898012 82.2293291,93.6117031 80.9899405,108.603756 L89.051583,108.603756 C90.6991086,93.7019827 92.3279124,78.9751258 93.9847989,64 L108,64 C106.019225,77.3482125 104.059044,90.5873371 102.093246,103.8227 C101.632688,106.916657 101.129069,110.00309 100.683488,113.098927 C99.9158912,118.393449 98.3338922,119.933844 93.1329533,119.956414 C80.6660519,120.010958 68.1991505,119.922559 55.730377,119.999673 C51.1865761,120.029766 48.9455668,117.98531 48.3015341,113.443118 C45.993126,97.1909124 43.4993713,80.9631574 41,64.2162948 L55.0189454,64.2162948 Z M67.511254,34.599619 C72.9087249,28.4683741 76.9153449,28.4645812 82.2102732,34.6015155 C87.072658,33.0615925 91.3384312,33.3460611 93.6055554,39.0695678 C93.8740306,39.7484994 94.8640331,40.2927825 95.634035,40.5791475 C102.099814,42.9781654 102.929477,44.1691403 102.543543,49.6195572 C105.032533,52.4433815 107.016266,54.6963722 109,56.9474665 C108.69983,57.298311 108.39966,57.6491555 108.099489,58 L40,58 C42.7500068,54.7874021 44.6945878,52.5154468 47.2078143,49.5797316 C46.9561188,44.0591458 47.7857818,42.8529992 54.0651193,40.6151801 C54.8481721,40.3345045 55.9034289,39.850908 56.1644465,39.1871481 C58.3942825,33.4939847 62.5686995,32.9667697 67.511254,34.599619 Z" id="Combined-Shape" fill="#FFFFFF"></path>
        </g>
    </g>
</svg>