<?xml version="1.0" encoding="UTF-8"?>
<svg width="103px" height="103px" viewBox="0 0 103 103" version="1.1" xmlns="http://www.w3.org/2000/svg" xmlns:xlink="http://www.w3.org/1999/xlink">
    <!-- Generator: Sketch 52.2 (67145) - http://www.bohemiancoding.com/sketch -->
    <title>Group 18</title>
    <desc>Created with Sketch.</desc>
    <g id="Page-1" stroke="none" stroke-width="1" fill="none" fill-rule="evenodd">
        <g id="Desktop" transform="translate(-531.000000, -4323.000000)">
            <g id="Group-18" transform="translate(531.000000, 4323.000000)">
                <rect id="Rectangle-6" fill-opacity="0.7" fill="#05BCB0" x="0" y="0" width="103" height="103"></rect>
                <g id="pregent" transform="translate(34.333333, 7.357143)" fill="#FFFFFF">
                    <path d="M35.9692669,46.062219 C35.9680121,50.7973947 34.1409882,54.430048 29.9216423,56.8448868 C28.9736227,57.3866978 24.3314261,58.6561629 24.0886177,59.7353747 C22.3199432,67.6136838 22.7882701,75.1984071 21.177076,83.112627 C20.4473958,86.6967694 18.2043978,88.409774 14.1644917,88.2787313 C10.403784,88.1558789 8.70098776,86.5965974 8.14635552,82.9444136 C6.9718402,75.2021871 5.77536545,67.4624808 4.50360126,59.7353747 C4.31412283,58.5843414 3.98975081,57.0433303 3.17850705,56.4794689 C-0.180029561,54.1459018 -0.00247195606,50.7999042 0.00317475223,47.3713749 C0.0125859327,40.5647174 0.422913402,33.8273613 3.13019632,27.4642327 C6.3356444,19.9330606 12.4190315,16.6557343 19.2270794,19.2954877 C21.4813709,20.1686853 25.2292277,22.5551841 26.6710206,24.5945353 C28.8512774,27.6784476 30.5459173,31.1422576 32.1746789,34.5751969 C33.8975524,38.2053303 36.2603861,45.9425166 35.9692669,46.062219 Z" id="Fill-1"></path>
                    <path d="M11.3592257,23.5535713 C10.87887,23.9935968 10.0985969,24.353504 9.96448748,24.8855406 C8.09609914,32.2902384 7.40848347,39.5728808 12.6076626,46.0587201 C14.5412769,48.5517811 16.2688503,51.272679 18.5182314,53.4152217 C19.3113059,54.1707137 22.0526247,54.1118767 22.7006172,53.3482477 C23.5253902,52.3761855 23.2894795,50.2993649 23.1834112,48.7220328 C23.1370824,48.0285075 22.28183,47.3919413 21.7929401,46.7297122 C21.7594127,46.496242 21.799036,46.2089422 21.6801663,46.0361868 C17.8489034,40.4685801 15.949426,34.7939402 19.9032162,28.3012157 C20.7822426,26.8572057 21.1248313,24.5957371 18.7120805,23.5498157 C16.2603161,21.3509397 13.8097709,21.8191319 11.3592257,23.5535713" id="Fill-4" stroke-opacity="0.7" stroke="#05BCB0" stroke-width="0.5"></path>
                    <path d="M18.4884706,17.1661706 C13.5609891,17.2143392 9.91268286,13.7494557 9.81159303,8.92478599 C9.70791114,3.95430869 13.5136842,-0.05540061 18.2830508,0.000579097665 C22.8910625,0.0552569517 26.8543024,3.95365776 26.9735366,8.5492012 C27.0927708,13.1447447 23.1781317,17.1199548 18.4884706,17.1661706" id="Fill-6"></path>
                </g>
            </g>
        </g>
    </g>
</svg>