<?xml version="1.0" encoding="UTF-8"?>
<svg width="64px" height="64px" viewBox="0 0 64 64" version="1.1" xmlns="http://www.w3.org/2000/svg" xmlns:xlink="http://www.w3.org/1999/xlink">
    <!-- Generator: Sketch 51 (57462) - http://www.bohemiancoding.com/sketch -->
    <title>problem-solving</title>
    <desc>Created with Sketch.</desc>
    <defs></defs>
    <g id="Page-1" stroke="none" stroke-width="1" fill="none" fill-rule="evenodd">
        <g id="Lesson-1" transform="translate(-532.000000, -4467.000000)">
            <g id="problem-solving" transform="translate(532.000000, 4467.000000)">
                <rect id="Rectangle-3" fill-opacity="0.7" fill="#05BCB0" fill-rule="nonzero" x="0" y="0" width="64" height="64"></rect>
                <path d="M25.9286543,46.8138676 C25.9286543,46.4254871 25.9392707,46.0365168 25.9260003,45.6487261 C25.9103707,45.1904548 25.6933258,44.866362 25.2896106,44.6224815 C21.9507769,42.6044953 19.7641091,39.7245226 18.8661451,35.9097237 C17.6959903,30.9386302 18.926894,26.5868222 22.400791,22.8958804 C25.2185402,19.9023721 28.7723546,18.4898112 32.856985,18.5679592 C36.3987085,18.6354908 39.4836352,19.9793404 42.100559,22.3632949 C44.5709185,24.6136605 46.0521905,27.4346536 46.4081323,30.7286629 C47.0368545,36.5478827 44.9277449,41.1715865 39.9997065,44.4349264 C39.8622841,44.5260499 39.7213229,44.6112754 39.5812464,44.69886 C39.2312026,44.9173794 39.0669445,45.2284966 39.0760864,45.6451873 C39.0940751,46.4582208 39.1052813,47.2715491 39.105871,48.0848774 C39.1067557,48.744564 39.0926006,49.4045454 39.0763813,50.064232 C39.0589823,50.7702175 38.834565,51.0775011 38.1403754,51.2391051 C35.4688955,51.8601601 32.793582,52.4673548 30.1185634,53.0745495 C29.3152615,53.2573862 28.5096005,53.4290168 27.7024651,53.5932749 C27.532309,53.6277779 27.3491774,53.6286626 27.1757775,53.6100841 C26.4152358,53.5272178 25.9929421,53.122323 25.9398605,52.4443528 C25.8882533,51.7849611 26.3270614,51.1804205 27.0144683,51.0197011 C28.4585832,50.6817481 29.9071216,50.3623737 31.3541855,50.0368065 C32.8242514,49.7059311 34.295202,49.3782995 35.7646781,49.0444751 C36.1731117,48.9515823 36.3706932,48.7168436 36.3745269,48.3001529 C36.3848483,47.1801308 36.4140432,46.0592239 36.377181,44.9406763 C36.3429728,43.9159062 36.7537656,43.2081513 37.6599868,42.7416228 C39.3945761,41.8495567 40.8870542,40.6625928 42.0061917,39.0453728 C43.2135036,37.300757 43.7906187,35.3473535 43.8852809,33.2417826 C43.9778789,31.170125 43.662633,29.1769103 42.6992017,27.3163996 C41.5983479,25.1895961 39.9050443,23.6688078 37.812449,22.5596968 C36.1197352,21.6626175 34.3294101,21.1332758 32.3990086,21.1580472 C29.7251696,21.1922554 27.3701152,22.1430061 25.3070096,23.7838179 C22.7004073,25.85695 21.2881413,28.6163094 21.1495393,31.9306667 C20.9522527,36.6531613 22.9805603,40.217297 27.0498561,42.6183555 C27.3025835,42.7675738 27.5797875,42.8763912 27.8304507,43.0285585 C28.320571,43.3255206 28.5874536,43.7734705 28.5924669,44.3449826 C28.6016087,45.3706374 28.6134046,46.3977667 28.5735934,47.4222419 C28.5287689,48.5664457 27.5249365,49.1376629 26.5609154,48.6018334 C26.1793175,48.3900967 25.9737737,48.0662989 25.9637472,47.6277857 C25.9575543,47.3567746 25.9625676,47.0851736 25.9625676,46.8138676 L25.9286543,46.8138676 Z M30.8658936,38.5102217 C30.3607335,38.5249666 29.9956499,38.2474677 29.6689031,37.914233 C28.5712932,36.7950956 27.4798761,35.6694704 26.3896387,34.5423707 C26.0870735,34.229779 25.7561981,33.9398944 25.5220491,33.5671435 C24.9865146,32.7142988 25.41854,31.737597 26.4114611,31.5928022 C26.9640998,31.512295 27.3863935,31.8045388 27.748823,32.1808285 C28.6886625,33.1578252 29.6285021,34.1348219 30.5518273,35.1271532 C30.7579609,35.3489164 30.8714966,35.3197215 31.0814639,35.1354104 C33.6506142,32.8809161 36.2274319,30.6352688 38.805724,28.3913908 C39.4135085,27.862344 40.035743,27.8098522 40.570098,28.2206449 C41.2460039,28.7396652 41.3223825,29.5745211 40.7016224,30.1861393 C40.038692,30.8393381 39.3386045,31.45479 38.6455944,32.0764347 C36.4698379,34.0277739 34.2896579,35.9746897 32.1103626,37.9224902 C31.7544209,38.2403901 31.3799006,38.5231972 30.8658936,38.5102217 Z M33.8298531,11.3331116 C33.8298531,12.3230838 33.8354562,13.3133509 33.8283786,14.303323 C33.821596,15.3080401 33.111187,15.8645124 32.1330108,15.6430441 C31.6275558,15.5286237 31.3005141,15.1656044 31.2135192,14.6041189 C31.1846192,14.4186281 31.1716437,14.2290088 31.1710539,14.0414537 C31.1683998,12.2496542 31.1686947,10.4578547 31.170759,8.66605522 C31.1710539,8.5017971 31.1834396,8.33635939 31.2040824,8.17328087 C31.3040528,7.37971068 31.7921088,6.97334141 32.6045525,7.00135671 C33.3170257,7.02612813 33.8121593,7.5295188 33.8251348,8.29241961 C33.8425337,9.30568871 33.8295582,10.3195476 33.8298531,11.3331116 Z M11.3625866,33.9564381 C10.3838205,33.9564381 9.40475957,33.9688238 8.42628842,33.9531943 C7.36554075,33.9357953 6.78311745,33.1546108 7.07506634,32.1720111 C7.23549079,31.6320531 7.68609474,31.2997032 8.38470781,31.2941001 C10.3422399,31.2784705 12.3000669,31.2696236 14.2567143,31.2961644 C15.3065508,31.3103195 15.9087322,32.1038897 15.6477476,33.0381261 C15.4837844,33.6258576 15.0193202,33.9493606 14.2991796,33.9546688 C13.3204136,33.9620412 12.3413526,33.9564381 11.3625866,33.9564381 Z M53.6467545,31.2880842 C54.6016339,31.2880842 55.5568081,31.2786475 56.5113925,31.2904434 C57.5435351,31.3034189 58.1542686,32.0150075 57.9661237,32.9616296 C57.8487544,33.5523101 57.3869443,33.9380365 56.6331853,33.9468834 C54.6290594,33.9701804 52.6243436,33.9692957 50.6205125,33.9465885 C49.885627,33.9380365 49.406418,33.4968693 49.3303343,32.8752246 C49.2400956,32.1388646 49.5261465,31.5959576 50.1227249,31.3892342 C50.3347565,31.3158046 50.5559299,31.2863148 50.7821166,31.2869046 C51.7369959,31.2895587 52.6921701,31.2880842 53.6467545,31.2880842 Z M19.5857549,21.0166437 C19.1740774,21.024311 18.8617806,20.8612325 18.6049245,20.6067357 C17.2065188,19.2213054 15.8087029,17.8346956 14.4244522,16.4354052 C13.8986493,15.9039992 13.7857034,15.3699392 14.0298789,14.870972 C14.4925737,13.9261192 15.5043683,13.7695284 16.2784752,14.5350833 C17.6025667,15.8444298 18.9189908,17.1620336 20.2383639,18.4766883 C20.3973138,18.6350484 20.5453526,18.8028453 20.6565291,18.9995422 C21.0508075,19.6955012 20.8479178,20.4519143 20.1575619,20.8547448 C19.9714813,20.9632672 19.7727201,21.0325682 19.5857549,21.0166437 Z M49.5916138,14.2172718 C50.1286229,14.2284779 50.494886,14.5201319 50.7529217,14.9592349 C50.9965073,15.3723868 50.9596451,15.7952704 50.708687,16.1951519 C50.6157942,16.3434855 50.5022585,16.483562 50.3784014,16.607714 C49.0389752,17.9527432 47.7051521,19.3030806 46.3500964,20.6318904 C45.5559364,21.4110106 44.3751653,21.0830842 44.0581501,20.0300039 C43.9033287,19.5154071 44.1935082,19.1408868 44.485752,18.8277052 C45.6671129,17.560824 46.8932983,16.3361131 48.1404214,15.1329297 C48.3775193,14.904089 48.6104886,14.6681707 48.8679344,14.4638065 C49.071414,14.3022024 49.3176537,14.2087198 49.5916138,14.2172718 Z M35.5499925,53.8542595 C35.5066425,53.702682 35.5968812,53.6752565 35.6950822,53.6534341 C36.3485759,53.5095239 37.0023645,53.3673831 37.6552684,53.2199342 C37.8033071,53.1863158 37.864351,53.2391025 37.8956102,53.3836025 C38.0377509,54.037686 38.1857897,54.690295 38.3367774,55.3423142 C38.3695111,55.4826856 38.3131856,55.5269203 38.184905,55.5540509 C37.5302317,55.6932427 36.876738,55.8386273 36.224129,55.9872558 C36.1011566,56.015566 36.030676,56.009963 35.9991219,55.8642834 C35.8528526,55.1871979 35.6977363,54.5118818 35.5499925,53.8542595 Z M27.7187729,57.9232309 C27.5904923,57.9745431 27.5851842,57.8503911 27.5660158,57.7678197 C27.4156179,57.1152107 27.2728873,56.4608323 27.1210149,55.8085182 C27.0847425,55.6528122 27.1507996,55.5947173 27.2870424,55.5652275 C27.92933,55.4239714 28.5719125,55.2833051 29.2127256,55.136446 C29.3819969,55.0978144 29.436553,55.1668205 29.4695816,55.3228214 C29.6049397,55.9665835 29.751504,56.6082813 29.8962988,57.250274 C29.9184162,57.3478852 29.9473162,57.4310464 29.8042907,57.4620106 C29.1157042,57.6109341 28.4282972,57.7657555 27.7187729,57.9232309 Z M31.9524743,56.9253555 C31.8843529,56.9454085 31.8527988,56.8823004 31.8321559,56.7888178 C31.6802835,56.1135016 31.5269366,55.4384804 31.3706408,54.7640489 C31.3414459,54.6375378 31.4042591,54.5962521 31.5113071,54.5726602 C32.1645059,54.4302245 32.8182944,54.2892634 33.4700187,54.1388654 C33.642534,54.0990542 33.6979748,54.1780869 33.7298238,54.3246511 C33.8704901,54.966054 34.0135155,55.6074569 34.1586053,56.2479751 C34.182492,56.3514842 34.1872104,56.435825 34.0586349,56.4641352 C33.3709331,56.6145331 32.6835261,56.7652259 31.9524743,56.9253555 Z" id="light-bulb" fill="#FFFFFF"></path>
            </g>
        </g>
    </g>
</svg>