<?xml version="1.0" encoding="UTF-8"?>
<svg width="61px" height="50px" viewBox="0 0 61 50" version="1.1" xmlns="http://www.w3.org/2000/svg" xmlns:xlink="http://www.w3.org/1999/xlink">
    <!-- Generator: Sketch 52.2 (67145) - http://www.bohemiancoding.com/sketch -->
    <title>Combined Shape</title>
    <desc>Created with Sketch.</desc>
    <g id="Page-1" stroke="none" stroke-width="1" fill="none" fill-rule="evenodd">
        <g id="Lesson-14" transform="translate(-553.000000, -4956.000000)" fill="#F67102">
            <path d="M565.888433,4986.0414 C567.222887,4990.1934 568.555996,4994.34074 569.888769,4998.4884 C570.005744,4998.4934 570.122719,4998.49874 570.239694,4998.50407 C570.677341,4997.2914 571.148938,4996.0894 571.528769,4994.85907 C571.624568,4994.54874 571.489442,4994.12274 571.349274,4993.79707 C571.131459,4993.2904 570.770114,4992.84374 570.55566,4992.3364 C570.111627,4991.2874 569.737509,4990.2064 570.861543,4989.3124 C571.756669,4988.6004 573.970114,4988.58607 574.843055,4989.31307 C575.923391,4990.21274 575.769442,4991.45574 575.094148,4992.3244 C573.291122,4994.64307 574.87398,4996.5534 575.638349,4999.0164 C577.112635,4994.4414 578.468601,4990.2334 579.867929,4985.89007 C580.31129,4986.10507 580.676332,4986.30007 581.05482,4986.46374 C583.557677,4987.54474 586.009778,4988.77407 588.583559,4989.65007 C590.950282,4990.45607 592.154316,4991.97707 592.542551,4994.30807 C592.551627,4994.36274 592.551627,4994.41874 592.558349,4994.47374 C593.312971,5000.5984 592.674316,5001.69574 586.764736,5003.60574 C576.424232,5006.94807 566.2044,5006.6044 556.079358,5002.5754 C553.899526,5001.70774 552.851795,5000.43207 553.032635,4998.12407 C553.088769,4997.4084 552.971459,4996.6804 553.006753,4995.9614 C553.19398,4992.15474 554.486753,4990.3394 557.930114,4989.4094 C560.635324,4988.67907 563.143896,4987.23374 565.888433,4986.0414 Z M566.434624,4959.86052 C566.198494,4959.26571 565.983556,4958.72329 565.665689,4957.92225 C566.85441,4957.98775 567.825837,4958.08951 568.796592,4958.08347 C570.35868,4958.07406 571.929513,4958.08179 573.480165,4957.92292 C575.959525,4957.66901 577.849907,4958.50363 579.201429,4960.59741 C579.395513,4960.89835 579.676043,4961.2772 579.982137,4961.35243 C582.582926,4961.9889 583.092185,4963.99871 583.214623,4966.22515 C583.260032,4967.05205 583.083103,4967.8907 583.011457,4968.72432 C582.933084,4969.63787 582.387833,4970.66427 583.718164,4971.22248 C583.909893,4971.30275 584.029303,4971.8314 583.993648,4972.13032 C583.736664,4974.30067 583.848674,4976.61411 581.666662,4978.06403 C581.372678,4978.25951 581.308432,4978.83283 581.183639,4979.24493 C579.893,4983.49462 576.897316,4985.91956 572.973596,4985.87825 C568.935848,4985.8356 566.068993,4983.48522 564.767589,4979.2278 C564.607479,4978.70453 564.229739,4978.18864 563.820717,4977.81247 C562.760824,4976.83779 561.585559,4972.8185 562.143591,4971.54692 C562.350457,4971.0757 562.802534,4970.71129 563.250575,4970.16686 C562.658233,4966.40954 562.70196,4962.58002 566.434624,4959.86052 Z M595.09037,4994.80131 C594.52426,4990.64102 592.15046,4988.33327 588.080024,4987.28444 C585.785113,4986.69311 583.659154,4985.48753 580.999929,4984.36572 C582.008566,4983.40623 582.573321,4982.51481 583.38795,4982.15942 C586.080357,4980.98559 588.862826,4980.00515 591.755673,4978.89513 C592.834735,4982.15681 593.956119,4985.54578 595.156055,4989.17298 C595.975086,4987.30146 597.119494,4985.77518 595.662236,4983.88467 C595.084276,4983.13462 594.875032,4981.89664 595.979487,4981.47842 C596.908896,4981.12663 598.173839,4981.2055 599.132704,4981.52947 C599.489908,4981.65023 599.793955,4983.27697 599.444877,4983.75246 C598.042131,4985.6626 599.089704,4987.23372 599.898239,4989.25741 C601.138127,4985.53498 602.276102,4982.11754 603.354825,4978.87877 C606.101405,4979.9469 608.686481,4980.98559 611.298643,4981.9562 C612.836484,4982.52725 613.725263,4983.64054 613.880672,4985.11316 C614.061813,4986.83153 614.018136,4988.58787 613.872885,4990.31213 C613.831916,4990.80039 613.184547,4991.41168 612.660083,4991.66464 C607.183853,4994.3016 601.353465,4995.15965 595.09037,4994.80131 Z M602.257141,4956.2411 C602.787102,4957.18044 603.067487,4957.94477 603.574602,4958.52577 C605.154448,4960.33477 605.347948,4962.43044 605.155833,4964.64244 C605.118795,4965.06644 604.959218,4965.58244 605.142333,4965.90577 C606.21541,4967.79844 605.963064,4970.0671 604.480487,4971.53877 C604.153718,4971.86344 603.904833,4972.3101 603.755987,4972.74344 C602.64691,4975.96977 600.214487,4977.81044 597.044756,4977.7761 C594.064371,4977.7441 591.769025,4975.88144 590.624987,4972.82077 C590.085679,4971.3791 589.134448,4970.08444 588.533179,4968.65944 C588.151371,4967.75377 587.922218,4966.75077 589.017448,4965.94577 C589.269795,4965.7601 589.099833,4965.04677 589.132025,4964.57677 C589.229641,4963.16044 588.77791,4961.28477 589.547756,4960.4251 C591.106487,4958.6841 593.263371,4957.39477 595.318833,4956.13977 C595.903487,4955.78277 596.988333,4956.22077 597.844718,4956.23377 C599.495871,4956.2591 601.147718,4956.2411 602.257141,4956.2411 Z" id="Combined-Shape"></path>
        </g>
    </g>
</svg>