<?xml version="1.0" encoding="UTF-8"?>
<svg width="149px" height="150px" viewBox="0 0 149 150" version="1.1" xmlns="http://www.w3.org/2000/svg" xmlns:xlink="http://www.w3.org/1999/xlink">
    <!-- Generator: Sketch 51.1 (57501) - http://www.bohemiancoding.com/sketch -->
    <title>Group 8</title>
    <desc>Created with Sketch.</desc>
    <defs></defs>
    <g id="Page-1" stroke="none" stroke-width="1" fill="none" fill-rule="evenodd">
        <g id="Lesson-4" transform="translate(-106.000000, -8655.000000)" fill="#72B3AC">
            <g id="Group-8" transform="translate(106.000000, 8655.000000)">
                <path d="M59.7092869,90.7954369 C59.6543368,90.6483495 59.6196315,90.5682524 59.5921564,90.4823301 C58.4656796,86.9274757 56.6393122,83.7468932 54.4282941,80.7774757 C52.7768994,78.5624272 50.898474,76.5629126 48.821939,74.741068 C46.1597518,72.4051456 43.270534,70.4697087 39.9272549,69.2697087 C38.3206878,68.6930097 36.6591707,68.4221359 34.9759627,68.7294175 C33.0454793,69.083301 31.6283454,70.3269903 30.4006447,71.783301 C27.9958553,74.6362136 26.4485765,77.9595146 25.2758259,81.4779612 C23.646122,86.3624272 22.9230945,91.3619417 23.38294,96.5129126 C23.7965117,101.136699 25.2454588,105.386214 28.0016395,109.134757 C31.0585998,113.288155 35.2145617,115.479903 40.2931068,115.862913 C43.6016806,116.111942 46.7786633,115.41 49.8442999,114.175049 C51.5679974,113.480388 53.162996,112.56 54.6177273,111.39932 C55.0414214,111.061456 55.1599979,111.141553 55.2612218,111.677476 C55.5807999,113.363883 56.0854731,114.990583 56.8171769,116.553204 C58.4338664,120.009029 60.9456639,122.575049 64.3381088,124.223592 C68.5822802,126.287184 73.0636045,126.760485 77.6750738,125.888155 C81.7428265,125.117767 85.1670846,123.220194 87.7569691,119.891068 C90.3338391,116.573592 91.383675,112.71 91.7234979,108.619223 C92.0098168,105.150291 91.5976911,101.723592 90.6722159,98.3697087 C89.5775523,94.4027184 87.9825537,90.6570874 85.7180316,87.21 C83.9523985,84.5201942 82.0320375,81.9891262 79.3496055,80.136699 C75.5913086,77.5371845 73.1850732,77.9245631 69.8634849,79.8454369 C67.3733782,81.2871845 65.3561315,83.3682524 63.4834904,85.5701942 C62.0996158,87.1968932 60.8979441,88.9546602 59.7092869,90.7954369 M48.6339519,51.3556311 C49.1718843,54.5114563 50.4863483,57.336699 52.3184999,59.9172816 C55.2944811,64.1143689 59.3202981,67.0925243 63.6960604,69.6265049 C68.6878422,72.5216505 74.1264549,74.3056311 79.6070033,75.9658252 C82.5005593,76.8425243 85.3883311,77.7396117 88.1604184,78.9658252 C91.515266,80.4498058 94.1745611,82.8774757 96.7340784,85.4303883 C97.9588869,86.6536893 99.1301914,87.9337864 100.365122,89.1468932 C101.289152,90.0541748 102.511068,90.1968932 103.649113,89.6274757 C104.257902,89.3231068 104.518192,88.7566019 104.311406,88.0735922 C104.124865,87.4604854 103.918079,86.848835 103.66502,86.2604854 C103.02731,84.7663107 104.09016,83.5386408 105.284601,83.2604854 C105.741555,83.1541748 106.207184,83.0405825 106.636663,82.8541748 C107.562138,82.452233 107.854241,80.6464078 107.125429,79.9575728 C105.965693,78.8624272 104.950563,77.6376699 103.983152,76.3735922 C101.440987,73.0517476 99.433863,69.4313592 97.9993765,65.4891262 C96.6574374,61.7973786 95.8664454,57.9949515 95.7363004,54.0658252 C95.6567674,51.6512621 95.61917,49.2512621 95.0754533,46.8643689 C94.2324033,43.1726214 92.7082613,39.8056311 90.6461869,36.6731068 C88.9803316,34.1449515 86.9992363,31.8920388 84.6826562,29.9362136 C80.0711869,26.0478641 74.9290155,23.6318447 68.7586989,23.9915534 C66.7790496,24.1080583 64.8615807,24.5464078 63.0814871,25.391068 C57.6833639,27.9468932 53.6040428,31.9459223 50.8030343,37.2279612 C48.5038069,41.5619417 47.717153,46.1828155 48.5703254,51.0512621 C48.5920163,51.1532039 48.612261,51.2551456 48.6339519,51.3556311 M106.283825,93.1153398 C106.369143,93.5056311 106.308408,93.9308738 106.560022,94.2818447 C106.866586,96.3701942 107.066141,98.4658252 107.087832,100.581845 C107.115307,103.46534 107.766032,106.195922 109.450686,108.587184 C110.895295,110.634757 112.799749,112.003689 115.341914,112.255631 C116.747479,112.395437 117.87251,111.844951 118.618674,110.592524 C119.399544,109.278932 119.774072,107.848835 119.907109,106.338641 C119.992427,105.343981 120.002549,105.336699 119.033692,105.167767 C117.665724,104.927476 116.469837,104.369709 115.540023,103.29932 C115.401202,103.13767 115.214661,102.962913 115.28841,102.748835 C115.370835,102.507087 115.616664,102.422621 115.87117,102.425534 C116.46116,102.435728 117.046813,102.428447 117.638249,102.51 C119.626575,102.786699 121.619238,103.060485 123.633593,102.997864 C124.963963,102.957087 125.621919,102.236214 125.577091,100.912427 C125.553954,100.230874 125.322585,99.6104854 124.97987,99.0308738 C123.703004,96.8842718 121.836147,95.4556311 119.548488,94.5527184 C118.151599,94.0007767 116.884854,93.233301 115.710658,92.2968932 C112.812764,89.9857282 110.41665,87.2114563 108.280827,84.1968932 C107.871594,83.6187379 107.24256,83.4847573 106.629433,83.8779612 C106.24912,84.1226214 105.904959,84.4240777 105.743001,84.871165 C105.093722,86.6536893 104.87103,88.4624272 105.44656,90.3163107 C105.734324,91.2468932 106.006183,92.1818447 106.283825,93.1153398 M4.62471489,48.9119417 C5.63406126,46.6313592 6.49880213,44.286699 7.62238685,42.0570874 C9.87100232,37.5920388 12.4493183,33.3468932 15.5033864,29.3799029 C18.2639054,25.7900971 21.2745918,22.4478641 24.6265472,19.4303883 C28.2257781,16.1900971 32.0693922,13.2745631 36.2369226,10.7915534 C39.824585,8.65368932 43.5438384,6.80271845 47.4134815,5.24883495 C47.874773,5.14252427 48.2840066,4.91825243 48.6874559,4.6823301 L48.6932401,4.67650485 C48.8450759,4.67359223 49.0128183,4.73330097 49.1285027,4.5731068 C52.6221715,3.40660194 56.1418693,2.33621359 59.7613449,1.6284466 C62.9846014,0.999320388 66.2281027,0.565339806 69.5092014,0.357087379 C73.1763968,0.126990291 76.8349159,0.160485437 80.4919889,0.42407767 C84.5221441,0.716796117 88.490119,1.42019417 92.4204964,2.37990291 C97.2474279,3.55805825 101.884926,5.26776699 106.363358,7.41 C110.83456,9.54932039 115.059933,12.1109709 119.010555,15.1328155 C121.648159,17.1512621 124.181648,19.2876699 126.531487,21.636699 C131.077884,26.1760194 135.042967,31.1726214 138.326957,36.7226214 C140.377463,40.1871845 142.131528,43.7886408 143.625303,47.5226214 C144.427863,49.5265049 145.106063,51.5769903 145.756788,53.6362136 C145.6975,54.1095146 145.963574,54.5085437 146.072028,54.9396117 C146.309181,55.8964078 146.472585,56.8779612 146.886157,57.7852427 C146.893387,58.0779612 146.877481,58.3750485 147.040885,58.6400971 C147.072698,58.7391262 147.105957,58.8381553 147.139216,58.9386408 C147.463133,60.8580583 147.805848,62.7760194 148.102289,64.6998058 C148.346672,66.2740777 148.510077,67.86 148.592502,69.4517476 C148.689387,71.3536893 148.833993,73.2570874 148.828209,75.1590291 C148.822424,77.2051456 148.712524,79.2541748 148.563581,81.2959223 C148.33655,84.4269903 147.873812,87.528932 147.224534,90.6002913 C146.43788,94.3284466 145.385152,97.9765049 144.048997,101.54301 C142.433754,105.853689 140.446874,109.977961 138.073898,113.914369 C135.515827,118.158058 132.531169,122.072621 129.211027,125.749806 C126.029706,129.271165 122.533145,132.424078 118.760388,135.266796 C113.87706,138.946893 108.601851,141.946893 102.959345,144.307573 C98.4519917,146.194951 93.8101552,147.617767 89.0338356,148.583301 C85.7932264,149.237184 82.5236962,149.70466 79.2093382,149.837184 C76.9202331,149.927476 74.6383584,150.049806 72.3405771,149.979903 C67.0581382,149.821165 61.8494482,149.155631 56.7173992,147.89301 C56.5120593,147.842039 56.3009353,147.824563 56.0912573,147.792524 C56.0406454,147.751748 55.9900335,147.712427 55.9394216,147.674563 C55.0428675,147.440097 54.1492055,147.204175 53.2540975,146.971165 C52.9417496,146.794951 52.5946964,146.733786 52.2505353,146.669709 C48.9737748,145.581845 45.7519643,144.357087 42.6284856,142.874563 C38.2541693,140.796408 34.1242363,138.298835 30.2401326,135.402233 C25.4753815,131.844466 21.1646916,127.788641 17.360121,123.199806 C13.2070511,118.188641 9.73218105,112.731845 6.99335293,106.816311 C5.5588664,103.714369 4.36731711,100.517767 3.34495624,97.2439806 C2.14762273,93.4051456 1.27998974,89.4978641 0.7290428,85.5265049 C0.0334903596,80.5138835 -0.083640093,75.4735922 0.196894571,70.4143689 C0.413802817,66.4881553 0.950289211,62.6114563 1.7918932,58.7784466 C2.40357446,55.991068 3.14540066,53.2371845 4.12582593,50.5546602 C4.18366813,50.4002913 4.20102078,50.2313592 4.23717216,50.071165 C4.4222672,49.8090291 4.51047655,49.517767 4.50180022,49.1973786 L4.50469233,49.194466 C4.62471489,49.1362136 4.63339122,49.0269903 4.62471489,48.9119417" id="Fill-1"></path>
                <path d="M42.8201675,109.572367 C36.2276052,109.630005 30.6842919,104.182496 30.6901455,97.319168 C30.695999,90.4528838 36.3154084,85.0231102 42.9343118,85.10735 C49.5034599,85.190112 54.917995,90.6346645 54.9853108,97.1654673 C55.0526267,103.910564 49.4902894,109.700943 42.8201675,109.572367" id="Fill-4"></path>
                <path d="M85.6180838,107.996 C85.6973245,114.519954 80.4102103,120.136779 73.5867074,120.212004 C66.8263035,120.287229 61.5186454,114.782505 61.3293483,108.372126 C61.1268443,101.445495 66.642876,95.8906206 73.1861017,95.747545 C80.1196612,95.5985693 85.7296078,101.28177 85.6180838,107.996" id="Fill-6"></path>
            </g>
        </g>
    </g>
</svg>