<?xml version="1.0" encoding="UTF-8"?>
<svg width="103px" height="103px" viewBox="0 0 103 103" version="1.1" xmlns="http://www.w3.org/2000/svg" xmlns:xlink="http://www.w3.org/1999/xlink">
    <!-- Generator: Sketch 52.2 (67145) - http://www.bohemiancoding.com/sketch -->
    <title>Group 16</title>
    <desc>Created with Sketch.</desc>
    <g id="Page-1" stroke="none" stroke-width="1" fill="none" fill-rule="evenodd">
        <g id="Desktop" transform="translate(-531.000000, -4156.000000)">
            <g id="Group-16" transform="translate(531.000000, 4156.000000)">
                <rect id="Rectangle-6" fill-opacity="0.7" fill="#05BCB0" x="0" y="0" width="103" height="103"></rect>
                <path d="M23.8702276,18.3928571 C24.7014869,18.5997107 25.5062905,18.8535568 26.2205952,19.3608166 C28.1362502,20.7212934 28.7570202,23.4778518 27.6677091,25.5672893 C26.0018655,28.7632133 21.5168242,29.1583253 19.3009038,26.1673809 C17.373828,23.5663592 18.6624967,19.6172574 21.7664911,18.6778394 C22.0922002,18.5792416 22.4199332,18.4877071 22.7466542,18.3928571 L23.8702276,18.3928571 Z M29.0637321,38.9057363 C29.0637321,39.0734159 29.0624406,39.2410956 29.0638756,39.4087752 C29.0928628,42.5316093 29.1116614,45.6544433 29.1535637,48.7771327 C29.2495658,55.957698 29.3537475,63.1381185 29.4623778,70.3183944 C29.4824679,71.6452191 29.5433123,72.9714651 29.578183,74.2982898 C29.6169283,75.7764457 29.1448101,76.575926 27.9659498,77.050319 C26.8467858,77.5006957 25.4952938,77.1722809 24.6575352,76.2359371 C24.0886974,75.6000855 24.0013053,74.8034988 23.9872422,74.0025718 C23.8816255,67.9763773 23.7854798,61.9497488 23.6890472,55.923265 C23.6771366,55.1802085 23.6814416,55.1776043 22.8535846,55.3091149 C22.8535846,55.5102147 22.8560241,55.723178 22.8531541,55.9361412 C22.7874307,60.8544059 22.7300303,65.77296 22.6492393,70.6910801 C22.6268531,72.0479974 22.5683047,73.4063615 22.4642665,74.7593726 C22.3699864,75.9863708 21.6075658,76.8074078 20.3754666,77.1450818 C19.2623296,77.4500591 18.0351094,77.0640632 17.3813191,76.163599 C16.92556,75.5357047 16.924699,74.79178 16.9447891,74.0513277 C17.0258672,71.0547958 17.152722,68.0585534 17.1735297,65.0617322 C17.2316476,56.6294292 17.2458542,48.1968368 17.2771374,39.7643891 C17.2777114,39.630853 17.2772809,39.4974617 17.2382486,39.3595853 C16.6421456,40.4740255 16.3558612,41.675416 16.1642874,42.9066098 C15.879725,44.736618 15.8975192,46.5724133 16.0156204,48.4150084 C16.1058825,49.8256006 15.5699065,50.6013539 14.3993691,50.8682814 C13.2081677,51.1399831 11.8017148,50.4867704 11.3954636,49.3853511 C11.1949927,48.8415136 11.1124797,48.2343079 11.0794745,47.6499611 C10.8868962,44.2376301 11.3146725,40.9128281 12.6668821,37.7574419 C13.8257958,35.0528665 15.5767945,32.8296286 18.3267034,31.6552925 C20.2510512,30.8336768 22.3021104,30.4456555 24.412579,30.7678492 C25.4951503,30.933214 26.5870491,31.1072594 27.6351801,31.4142621 C29.1481107,31.8574051 30.4205337,32.7542523 31.4894723,33.9149889 C34.0516819,36.6966766 35.1085665,40.1227518 35.4621528,43.7934744 C35.6123983,45.3533723 35.5666215,46.9445203 35.4733459,48.5132435 C35.3651462,50.3321117 33.3493882,51.4533516 31.7292624,50.6883043 C30.9939635,50.3412263 30.618852,49.7490669 30.6138295,48.9462591 C30.6095244,48.2602049 30.6720908,47.5740061 30.695338,46.8875179 C30.7742635,44.5444881 30.538348,42.2438485 29.7396216,40.0261082 C29.5955467,39.6259341 29.3909143,39.2478953 29.2144081,38.8595846 C29.1641828,38.8749203 29.1139574,38.8904007 29.0637321,38.9057363 Z" id="person" fill="#FFFFFF"></path>
                <path d="M52.0726086,18.3928571 C52.9038679,18.5997107 53.7086714,18.8535568 54.4229761,19.3608166 C56.3386312,20.7212934 56.9594011,23.4778518 55.8700901,25.5672893 C54.2042465,28.7632133 49.7192052,29.1583253 47.5032848,26.1673809 C45.576209,23.5663592 46.8648777,19.6172574 49.9688721,18.6778394 C50.2945812,18.5792416 50.6223142,18.4877071 50.9490352,18.3928571 L52.0726086,18.3928571 Z M57.2661131,38.9057363 C57.2661131,39.0734159 57.2648215,39.2410956 57.2662566,39.4087752 C57.2952437,42.5316093 57.3140424,45.6544433 57.3559447,48.7771327 C57.4519468,55.957698 57.5561285,63.1381185 57.6647587,70.3183944 C57.6848489,71.6452191 57.7456933,72.9714651 57.780564,74.2982898 C57.8193092,75.7764457 57.3471911,76.575926 56.1683307,77.050319 C55.0491667,77.5006957 53.6976747,77.1722809 52.8599161,76.2359371 C52.2910783,75.6000855 52.2036862,74.8034988 52.1896231,74.0025718 C52.0840064,67.9763773 51.9878608,61.9497488 51.8914282,55.923265 C51.8795176,55.1802085 51.8838226,55.1776043 51.0559656,55.3091149 C51.0559656,55.5102147 51.0584051,55.723178 51.0555351,55.9361412 C50.9898116,60.8544059 50.9324112,65.77296 50.8516202,70.6910801 C50.8292341,72.0479974 50.7706857,73.4063615 50.6666475,74.7593726 C50.5723673,75.9863708 49.8099467,76.8074078 48.5778475,77.1450818 C47.4647106,77.4500591 46.2374904,77.0640632 45.5837,76.163599 C45.127941,75.5357047 45.12708,74.79178 45.1471701,74.0513277 C45.2282481,71.0547958 45.355103,68.0585534 45.3759106,65.0617322 C45.4340285,56.6294292 45.4482351,48.1968368 45.4795183,39.7643891 C45.4800923,39.630853 45.4796618,39.4974617 45.4406296,39.3595853 C44.8445266,40.4740255 44.5582422,41.675416 44.3666684,42.9066098 C44.082106,44.736618 44.0999001,46.5724133 44.2180014,48.4150084 C44.3082635,49.8256006 43.7722874,50.6013539 42.6017501,50.8682814 C41.4105486,51.1399831 40.0040957,50.4867704 39.5978445,49.3853511 C39.3973737,48.8415136 39.3148606,48.2343079 39.2818554,47.6499611 C39.0892771,44.2376301 39.5170535,40.9128281 40.869263,37.7574419 C42.0281768,35.0528665 43.7791755,32.8296286 46.5290843,31.6552925 C48.4534322,30.8336768 50.5044914,30.4456555 52.61496,30.7678492 C53.6975312,30.933214 54.78943,31.1072594 55.837561,31.4142621 C57.3504916,31.8574051 58.6229146,32.7542523 59.6918533,33.9149889 C62.2540629,36.6966766 63.3109474,40.1227518 63.6645338,43.7934744 C63.8147793,45.3533723 63.7690025,46.9445203 63.6757269,48.5132435 C63.5675271,50.3321117 61.5517692,51.4533516 59.9316434,50.6883043 C59.1963444,50.3412263 58.8212329,49.7490669 58.8162104,48.9462591 C58.8119054,48.2602049 58.8744718,47.5740061 58.897719,46.8875179 C58.9766445,44.5444881 58.7407289,42.2438485 57.9420026,40.0261082 C57.7979276,39.6259341 57.5932952,39.2478953 57.4167891,38.8595846 C57.3665637,38.8749203 57.3163384,38.8904007 57.2661131,38.9057363 Z" id="person" fill="#FFFFFF"></path>
                <path d="M80.2749895,18.3928571 C81.1062488,18.5997107 81.9110524,18.8535568 82.6253571,19.3608166 C84.5410121,20.7212934 85.1617821,23.4778518 84.072471,25.5672893 C82.4066275,28.7632133 77.9215861,29.1583253 75.7056658,26.1673809 C73.7785899,23.5663592 75.0672586,19.6172574 78.171253,18.6778394 C78.4969621,18.5792416 78.8246951,18.4877071 79.1514161,18.3928571 L80.2749895,18.3928571 Z M85.468494,38.9057363 C85.468494,39.0734159 85.4672025,39.2410956 85.4686375,39.4087752 C85.4976247,42.5316093 85.5164233,45.6544433 85.5583256,48.7771327 C85.6543277,55.957698 85.7585094,63.1381185 85.8671397,70.3183944 C85.8872298,71.6452191 85.9480742,72.9714651 85.9829449,74.2982898 C86.0216902,75.7764457 85.549572,76.575926 84.3707117,77.050319 C83.2515477,77.5006957 81.9000557,77.1722809 81.0622971,76.2359371 C80.4934593,75.6000855 80.4060672,74.8034988 80.3920041,74.0025718 C80.2863874,67.9763773 80.1902417,61.9497488 80.0938091,55.923265 C80.0818985,55.1802085 80.0862036,55.1776043 79.2583465,55.3091149 C79.2583465,55.5102147 79.260786,55.723178 79.257916,55.9361412 C79.1921926,60.8544059 79.1347922,65.77296 79.0540012,70.6910801 C79.031615,72.0479974 78.9730666,73.4063615 78.8690284,74.7593726 C78.7747483,75.9863708 78.0123277,76.8074078 76.7802285,77.1450818 C75.6670915,77.4500591 74.4398713,77.0640632 73.786081,76.163599 C73.3303219,75.5357047 73.3294609,74.79178 73.3495511,74.0513277 C73.4306291,71.0547958 73.5574839,68.0585534 73.5782916,65.0617322 C73.6364095,56.6294292 73.6506161,48.1968368 73.6818993,39.7643891 C73.6824733,39.630853 73.6820428,39.4974617 73.6430105,39.3595853 C73.0469075,40.4740255 72.7606231,41.675416 72.5690493,42.9066098 C72.2844869,44.736618 72.3022811,46.5724133 72.4203823,48.4150084 C72.5106444,49.8256006 71.9746684,50.6013539 70.804131,50.8682814 C69.6129296,51.1399831 68.2064767,50.4867704 67.8002255,49.3853511 C67.5997546,48.8415136 67.5172416,48.2343079 67.4842364,47.6499611 C67.2916581,44.2376301 67.7194344,40.9128281 69.071644,37.7574419 C70.2305577,35.0528665 71.9815564,32.8296286 74.7314653,31.6552925 C76.6558131,30.8336768 78.7068723,30.4456555 80.8173409,30.7678492 C81.8999122,30.933214 82.991811,31.1072594 84.039942,31.4142621 C85.5528726,31.8574051 86.8252956,32.7542523 87.8942342,33.9149889 C90.4564438,36.6966766 91.5133284,40.1227518 91.8669147,43.7934744 C92.0171603,45.3533723 91.9713834,46.9445203 91.8781078,48.5132435 C91.7699081,50.3321117 89.7541501,51.4533516 88.1340243,50.6883043 C87.3987254,50.3412263 87.0236139,49.7490669 87.0185914,48.9462591 C87.0142863,48.2602049 87.0768528,47.5740061 87.1000999,46.8875179 C87.1790254,44.5444881 86.9431099,42.2438485 86.1443835,40.0261082 C86.0003086,39.6259341 85.7956762,39.2478953 85.61917,38.8595846 C85.5689447,38.8749203 85.5187193,38.8904007 85.468494,38.9057363 Z" id="person" fill="#FFFFFF"></path>
            </g>
        </g>
    </g>
</svg>