<?xml version="1.0" encoding="UTF-8"?>
<svg width="84px" height="84px" viewBox="0 0 84 84" version="1.1" xmlns="http://www.w3.org/2000/svg" xmlns:xlink="http://www.w3.org/1999/xlink">
    <!-- Generator: Sketch 51 (57462) - http://www.bohemiancoding.com/sketch -->
    <title>Group 16</title>
    <desc>Created with Sketch.</desc>
    <defs></defs>
    <g id="Page-1" stroke="none" stroke-width="1" fill="none" fill-rule="evenodd">
        <g id="Desktop" transform="translate(-796.000000, -3866.000000)">
            <g id="Group-16" transform="translate(796.000000, 3866.000000)">
                <rect id="Rectangle-6" fill="#A9DDE8" x="0" y="0" width="84" height="84"></rect>
                <path d="M19.4669818,15 C20.1449019,15.1686961 20.8012466,15.3757163 21.3837863,15.7894039 C22.9460681,16.8989189 23.4523271,19.1469859 22.563957,20.8509932 C21.2054049,23.4573778 17.5477013,23.7796051 15.7405429,21.3403883 C14.1689471,19.2191667 15.2199002,15.99854 17.7513132,15.2324127 C18.01694,15.1520029 18.2842174,15.0773533 18.5506695,15 L19.4669818,15 Z M23.7024611,31.72895 C23.7024611,31.8656984 23.7014079,32.0024469 23.7025782,32.1391953 C23.7262182,34.6859726 23.7415491,37.2327499 23.7757219,39.7794092 C23.8540149,45.6354042 23.9389786,51.4912811 24.0275702,57.3470401 C24.0439544,58.4291107 24.0935751,59.5107094 24.1220134,60.59278 C24.1536114,61.7982664 23.768583,62.4502697 22.8071823,62.8371533 C21.8944661,63.2044509 20.7922784,62.9366175 20.1090578,62.1729972 C19.6451513,61.6544387 19.57388,61.0047951 19.5624111,60.351612 C19.4762771,55.4370456 19.3978671,50.5221253 19.319223,45.6073229 C19.3095095,45.0013351 19.3130204,44.9992113 18.6378748,45.1064626 C18.6378748,45.2704664 18.6398643,45.4441451 18.6375237,45.6178239 C18.583924,49.6288359 18.5371121,53.6400839 18.4712242,57.6509779 C18.4529676,58.7575901 18.4052194,59.8653822 18.3203727,60.9688087 C18.243484,61.9694674 17.6217041,62.639051 16.6168854,62.9144357 C15.7090844,63.163155 14.7082446,62.8483622 14.1750563,62.1140031 C13.8033693,61.6019339 13.8026672,60.9952381 13.8190513,60.391374 C13.8851732,57.9476005 13.9886277,55.5040629 14.005597,53.0600535 C14.0529941,46.1832238 14.0645801,39.3061582 14.0900926,32.4292105 C14.0905607,32.3203073 14.0902096,32.2115221 14.0583775,32.0990793 C13.5722353,33.0079431 13.3387606,33.9877179 13.1825257,34.9917983 C12.9504554,36.4842322 12.9649671,37.9813856 13.0612827,39.4840845 C13.1348945,40.6344704 12.6977878,41.2671236 11.7431748,41.484812 C10.7717096,41.706394 9.62469944,41.1736769 9.29338777,40.275432 C9.12989699,39.831914 9.06260479,39.3367171 9.03568791,38.8601624 C8.87863378,36.0772905 9.22749993,33.3658016 10.3302728,30.7924769 C11.2754063,28.5868038 12.7034052,26.7736777 14.9460494,25.8159667 C16.5154204,25.1459112 18.1881289,24.8294666 19.9092878,25.0922265 C20.7921614,25.2270871 21.6826419,25.3690271 22.5374284,25.6193982 C23.7712747,25.9807964 24.8089789,26.7122058 25.6807347,27.6588259 C27.7703037,29.9273868 28.632229,32.7214675 28.9205907,35.7150665 C29.043121,36.9872163 29.0057884,38.2848515 28.929719,39.5641986 C28.8414785,41.0475474 27.1975593,41.9619566 25.8762917,41.3380346 C25.2766304,41.0549806 24.9707142,40.5720546 24.9666182,39.9173375 C24.9631073,39.357837 25.0141323,38.7982186 25.0330912,38.2383641 C25.0974576,36.3275437 24.9050605,34.4512939 24.253672,32.6426513 C24.136174,32.3162957 23.9692893,32.0079923 23.8253425,31.6913117 C23.7843821,31.7038185 23.7434216,31.7164432 23.7024611,31.72895 Z" id="person" fill="#F67102"></path>
                <path d="M42.4669818,15 C43.1449019,15.1686961 43.8012466,15.3757163 44.3837863,15.7894039 C45.9460681,16.8989189 46.4523271,19.1469859 45.563957,20.8509932 C44.2054049,23.4573778 40.5477013,23.7796051 38.7405429,21.3403883 C37.1689471,19.2191667 38.2199002,15.99854 40.7513132,15.2324127 C41.01694,15.1520029 41.2842174,15.0773533 41.5506695,15 L42.4669818,15 Z M46.7024611,31.72895 C46.7024611,31.8656984 46.7014079,32.0024469 46.7025782,32.1391953 C46.7262182,34.6859726 46.7415491,37.2327499 46.7757219,39.7794092 C46.8540149,45.6354042 46.9389786,51.4912811 47.0275702,57.3470401 C47.0439544,58.4291107 47.0935751,59.5107094 47.1220134,60.59278 C47.1536114,61.7982664 46.768583,62.4502697 45.8071823,62.8371533 C44.8944661,63.2044509 43.7922784,62.9366175 43.1090578,62.1729972 C42.6451513,61.6544387 42.57388,61.0047951 42.5624111,60.351612 C42.4762771,55.4370456 42.3978671,50.5221253 42.319223,45.6073229 C42.3095095,45.0013351 42.3130204,44.9992113 41.6378748,45.1064626 C41.6378748,45.2704664 41.6398643,45.4441451 41.6375237,45.6178239 C41.583924,49.6288359 41.5371121,53.6400839 41.4712242,57.6509779 C41.4529676,58.7575901 41.4052194,59.8653822 41.3203727,60.9688087 C41.243484,61.9694674 40.6217041,62.639051 39.6168854,62.9144357 C38.7090844,63.163155 37.7082446,62.8483622 37.1750563,62.1140031 C36.8033693,61.6019339 36.8026672,60.9952381 36.8190513,60.391374 C36.8851732,57.9476005 36.9886277,55.5040629 37.005597,53.0600535 C37.0529941,46.1832238 37.0645801,39.3061582 37.0900926,32.4292105 C37.0905607,32.3203073 37.0902096,32.2115221 37.0583775,32.0990793 C36.5722353,33.0079431 36.3387606,33.9877179 36.1825257,34.9917983 C35.9504554,36.4842322 35.9649671,37.9813856 36.0612827,39.4840845 C36.1348945,40.6344704 35.6977878,41.2671236 34.7431748,41.484812 C33.7717096,41.706394 32.6246994,41.1736769 32.2933878,40.275432 C32.129897,39.831914 32.0626048,39.3367171 32.0356879,38.8601624 C31.8786338,36.0772905 32.2274999,33.3658016 33.3302728,30.7924769 C34.2754063,28.5868038 35.7034052,26.7736777 37.9460494,25.8159667 C39.5154204,25.1459112 41.1881289,24.8294666 42.9092878,25.0922265 C43.7921614,25.2270871 44.6826419,25.3690271 45.5374284,25.6193982 C46.7712747,25.9807964 47.8089789,26.7122058 48.6807347,27.6588259 C50.7703037,29.9273868 51.632229,32.7214675 51.9205907,35.7150665 C52.043121,36.9872163 52.0057884,38.2848515 51.929719,39.5641986 C51.8414785,41.0475474 50.1975593,41.9619566 48.8762917,41.3380346 C48.2766304,41.0549806 47.9707142,40.5720546 47.9666182,39.9173375 C47.9631073,39.357837 48.0141323,38.7982186 48.0330912,38.2383641 C48.0974576,36.3275437 47.9050605,34.4512939 47.253672,32.6426513 C47.136174,32.3162957 46.9692893,32.0079923 46.8253425,31.6913117 C46.7843821,31.7038185 46.7434216,31.7164432 46.7024611,31.72895 Z" id="person" fill="#F67102"></path>
                <path d="M65.4669818,15 C66.1449019,15.1686961 66.8012466,15.3757163 67.3837863,15.7894039 C68.9460681,16.8989189 69.4523271,19.1469859 68.563957,20.8509932 C67.2054049,23.4573778 63.5477013,23.7796051 61.7405429,21.3403883 C60.1689471,19.2191667 61.2199002,15.99854 63.7513132,15.2324127 C64.01694,15.1520029 64.2842174,15.0773533 64.5506695,15 L65.4669818,15 Z M69.7024611,31.72895 C69.7024611,31.8656984 69.7014079,32.0024469 69.7025782,32.1391953 C69.7262182,34.6859726 69.7415491,37.2327499 69.7757219,39.7794092 C69.8540149,45.6354042 69.9389786,51.4912811 70.0275702,57.3470401 C70.0439544,58.4291107 70.0935751,59.5107094 70.1220134,60.59278 C70.1536114,61.7982664 69.768583,62.4502697 68.8071823,62.8371533 C67.8944661,63.2044509 66.7922784,62.9366175 66.1090578,62.1729972 C65.6451513,61.6544387 65.57388,61.0047951 65.5624111,60.351612 C65.4762771,55.4370456 65.3978671,50.5221253 65.319223,45.6073229 C65.3095095,45.0013351 65.3130204,44.9992113 64.6378748,45.1064626 C64.6378748,45.2704664 64.6398643,45.4441451 64.6375237,45.6178239 C64.583924,49.6288359 64.5371121,53.6400839 64.4712242,57.6509779 C64.4529676,58.7575901 64.4052194,59.8653822 64.3203727,60.9688087 C64.243484,61.9694674 63.6217041,62.639051 62.6168854,62.9144357 C61.7090844,63.163155 60.7082446,62.8483622 60.1750563,62.1140031 C59.8033693,61.6019339 59.8026672,60.9952381 59.8190513,60.391374 C59.8851732,57.9476005 59.9886277,55.5040629 60.005597,53.0600535 C60.0529941,46.1832238 60.0645801,39.3061582 60.0900926,32.4292105 C60.0905607,32.3203073 60.0902096,32.2115221 60.0583775,32.0990793 C59.5722353,33.0079431 59.3387606,33.9877179 59.1825257,34.9917983 C58.9504554,36.4842322 58.9649671,37.9813856 59.0612827,39.4840845 C59.1348945,40.6344704 58.6977878,41.2671236 57.7431748,41.484812 C56.7717096,41.706394 55.6246994,41.1736769 55.2933878,40.275432 C55.129897,39.831914 55.0626048,39.3367171 55.0356879,38.8601624 C54.8786338,36.0772905 55.2274999,33.3658016 56.3302728,30.7924769 C57.2754063,28.5868038 58.7034052,26.7736777 60.9460494,25.8159667 C62.5154204,25.1459112 64.1881289,24.8294666 65.9092878,25.0922265 C66.7921614,25.2270871 67.6826419,25.3690271 68.5374284,25.6193982 C69.7712747,25.9807964 70.8089789,26.7122058 71.6807347,27.6588259 C73.7703037,29.9273868 74.632229,32.7214675 74.9205907,35.7150665 C75.043121,36.9872163 75.0057884,38.2848515 74.929719,39.5641986 C74.8414785,41.0475474 73.1975593,41.9619566 71.8762917,41.3380346 C71.2766304,41.0549806 70.9707142,40.5720546 70.9666182,39.9173375 C70.9631073,39.357837 71.0141323,38.7982186 71.0330912,38.2383641 C71.0974576,36.3275437 70.9050605,34.4512939 70.253672,32.6426513 C70.136174,32.3162957 69.9692893,32.0079923 69.8253425,31.6913117 C69.7843821,31.7038185 69.7434216,31.7164432 69.7024611,31.72895 Z" id="person" fill="#F67102"></path>
            </g>
        </g>
    </g>
</svg>