<?xml version="1.0" encoding="UTF-8"?>
<svg width="92px" height="90px" viewBox="0 0 92 90" version="1.1" xmlns="http://www.w3.org/2000/svg" xmlns:xlink="http://www.w3.org/1999/xlink">
    <!-- Generator: Sketch 52.2 (67145) - http://www.bohemiancoding.com/sketch -->
    <title>Group 8</title>
    <desc>Created with Sketch.</desc>
    <g id="Page-1" stroke="none" stroke-width="1" fill="none" fill-rule="evenodd">
        <g id="Lesson-10" transform="translate(-49.000000, -4834.000000)">
            <g id="Group-8" transform="translate(49.000000, 4834.000000)">
                <rect id="Rectangle" fill="#97B306" fill-rule="nonzero" x="0" y="0" width="92" height="90"></rect>
                <path d="M29.6148649,23.0873301 C29.7308689,23.0807666 29.8484363,23.0842046 29.9625643,23.0657643 C31.0997787,22.8804232 31.9843482,22.022791 32.1413132,20.9576268 C32.3157882,19.7727566 31.7679742,18.7335339 30.6854787,18.1990765 C29.9241047,17.8237062 29.1624181,17.4486483 28.3997934,17.0757783 C27.1400087,16.4594333 25.6419625,16.9451332 24.991277,18.1790734 C24.3421549,19.4102007 24.7958525,20.9326229 26.0306228,21.6024137 C26.7050719,21.9680951 27.3939043,22.3093977 28.0852381,22.6431992 C28.5673895,22.875735 29.0536057,23.1151469 29.6148649,23.0873301 M13.4152661,42.2627863 C13.3811841,43.1776149 13.8645862,44.0674396 14.7053807,44.5178215 C15.8929364,45.1535445 17.0967515,45.7586378 18.2990032,46.366544 C18.7226836,46.5809521 19.1841981,46.6562762 19.6547804,46.5950167 C20.8426488,46.4409305 21.7040801,45.6114276 21.9098231,44.443435 C22.0986813,43.3707697 21.5396108,42.2959165 20.5052679,41.7611465 C19.3961946,41.187308 18.2858706,40.6156574 17.1717945,40.0508828 C15.4417403,39.1741852 13.487495,40.3271754 13.4152661,42.2627863 M27.9151406,31.9233799 L27.9357774,31.8558694 C29.1105133,31.8483683 30.1007685,31.0666853 30.394687,29.9149452 C30.6798504,28.7969604 30.1661184,27.620529 29.1461588,27.0660685 C28.8403585,26.8997929 28.5295553,26.7435188 28.2203155,26.5838067 C26.2219825,25.5495847 24.2261509,24.5112997 22.2240657,23.4845789 C21.4064095,23.0651392 20.5778095,23.0910807 19.7914212,23.559903 C18.9287392,24.0743573 18.5056842,24.8591658 18.5413296,25.8649458 C18.5772877,26.8754141 19.0825774,27.6067769 19.968085,28.0671604 C22.2337588,29.2445294 24.5016213,30.4181478 26.7794896,31.5714506 C27.1281269,31.7477278 27.5352353,31.8089872 27.9151406,31.9233799 M27.0540219,37.142622 C27.0671545,36.2096657 26.5800002,35.3307802 25.745772,34.8944629 C23.4269427,33.6814634 21.1052994,32.4740898 18.7705235,31.2923451 C17.5188685,30.6588099 16.0458366,31.1698262 15.4014046,32.4078295 C14.7613502,33.6373941 15.2175492,35.1801319 16.4535703,35.8299196 C18.7539515,37.0385434 21.0583975,38.2393536 23.3781648,39.409534 C25.0813286,40.2687289 27.0271315,39.0501036 27.0540219,37.142622 M23.7092921,76.2989711 C19.563478,76.9009389 16.2090551,73.2297479 16.9229018,69.4025954 C14.4202172,68.9290849 12.6401343,67.5619991 11.9434849,65.0700525 C11.2499624,62.5899826 12.0429169,60.4987227 13.9055472,58.8284652 C13.3786826,58.5118539 12.8192995,58.243375 12.3368354,57.8745682 C9.19722313,55.4729479 9.38264192,51.0669562 11.9300397,48.6628355 C12.3133845,48.3012173 12.6513907,47.8917791 13.0200395,47.4942179 C11.1605361,46.3696695 10.0574037,44.6894105 10.0126906,42.4271867 C9.96797746,40.1555865 11.0267094,38.4450103 12.9146666,37.1913795 C11.7793283,35.5989465 11.4041132,33.8533649 11.9409835,31.9621358 C12.4797298,30.0649683 13.7316975,28.7885216 15.5508653,28.0105891 C14.814193,26.0130937 14.9755355,24.0987361 16.2021762,22.3487788 C17.423814,20.6066352 19.1466766,19.7771323 21.2863407,19.7902593 C21.2272443,17.4164559 22.1337014,15.5164755 24.1804997,14.2712835 C26.2369911,13.0204657 28.3444492,13.1395465 30.4612876,14.2975375 L30.4612876,10.0009376 L33.8648012,10.0009376 C33.8701167,10.1062664 33.8798098,10.2097198 33.8798098,10.3131733 C33.8807478,12.2109659 33.8845,14.109071 33.875745,16.0071761 C33.8748069,16.2456504 33.9364047,16.4209899 34.0961838,16.6041431 C36.5088169,19.3714448 35.9291095,23.4952055 32.8529712,25.5077033 C32.7873085,25.5505224 32.7257107,25.5992799 32.6622368,25.645537 C35.2409025,29.0423107 33.4898988,33.5920746 30.0507398,34.8813359 C31.5178308,38.4462605 29.2046298,42.4578164 25.2811306,43.0319674 C25.5891197,45.4920342 24.8108611,47.5339115 22.7556204,48.95163 C20.6953769,50.3737243 18.5094363,50.3515334 16.3062984,49.1860412 C15.5796318,49.8930252 14.82201,50.5678167 14.1391185,51.3110563 C13.4283986,52.0843005 13.2157767,53.0275709 13.5678536,54.0317882 C13.9114881,55.0119393 14.6437828,55.577339 15.6715595,55.7120473 C16.5414332,55.8258148 17.2634095,55.4670095 17.8822017,54.8872326 C18.2808678,54.5137375 18.7273737,54.2918283 19.2836301,54.3377729 C19.9596426,54.393719 20.4514871,54.7337715 20.7185152,55.3498039 C20.978977,55.9508341 20.938954,56.5621783 20.5037045,57.0638182 C20.0531337,57.5829607 19.5406524,58.048345 19.0513094,58.5337323 C18.0088368,59.5679542 16.9572966,60.5931123 15.9220156,61.6348354 C15.1625177,62.3993282 14.903932,63.3179073 15.2744569,64.3411901 C15.6468578,65.3694736 16.4235531,65.92956 17.5138656,66.0327009 C18.0410428,66.082396 18.5288224,65.9411243 18.9550042,65.6285761 C19.1920151,65.4547993 19.4158934,65.258519 19.6266392,65.0531749 C21.3641978,63.3591637 23.0945647,61.6579639 24.8327486,59.9648904 C25.8008035,59.02162 27.3513799,59.4226193 27.6984539,60.7078175 C27.867926,61.3360393 27.7118991,61.904877 27.2497592,62.3608848 C25.8730325,63.7192192 24.4844239,65.0653642 23.1017563,66.4180728 C22.4429412,67.0628597 21.7694301,67.6948321 21.1346912,68.3630601 C20.5146483,69.0162858 20.1616334,69.7876548 20.2601274,70.7231115 C20.4405433,72.4427516 22.429496,73.4869751 23.9438015,72.6518463 C24.6451411,72.2652242 25.182324,71.6826344 25.7426452,71.1325496 C28.3413224,68.5774682 30.9312445,66.0133229 33.5258569,63.4538658 C34.2453318,62.7443814 35.1455354,62.6518672 35.8734526,63.2060151 C36.6154405,63.7711022 36.7892901,64.8606452 36.1820671,65.5660664 C35.6464475,66.1883499 35.0345342,66.7462484 34.4495114,67.3254002 C33.0690325,68.6927985 31.6844888,70.0558211 30.3015086,71.4210316 C29.4732212,72.2386576 28.6686976,73.0822252 27.8100804,73.8670337 C27.1062394,74.5099453 26.7938728,75.8645291 27.3935916,76.9043769 C28.2300086,78.3539754 30.1754988,78.6471456 31.3630546,77.4691515 C34.2681574,74.5874572 37.2004633,71.7317045 40.0483459,68.7943766 C42.7333225,66.0248872 45.3269968,63.1660089 47.9563166,60.3424486 C48.6882987,59.5567025 49.4124638,58.7631427 50.1250598,57.9595813 C50.6950741,57.3169822 50.9461555,56.5431129 50.9492823,55.6914191 C50.9555359,54.169622 50.9483443,52.6478249 50.9555359,51.1257152 C50.9564739,50.9569392 50.8904986,50.8731763 50.7579226,50.7894134 C48.4459723,49.3263753 46.1280811,47.8727137 43.829576,46.3887349 C41.4957381,44.881315 40.3106838,42.1199518 40.8119086,39.4507903 C41.3222011,36.7325588 43.4349747,34.5694128 46.1649772,34.0043257 C47.8249913,33.6608352 49.3990186,33.9240008 50.8792421,34.7566291 C53.5504609,36.2596734 56.2238684,37.7583419 58.8969633,39.257323 C60.3065213,40.0477574 61.5481705,41.0485366 62.6463,42.2309064 C62.7066471,42.2959165 62.7679323,42.3609265 62.8507923,42.4493776 C62.8661136,42.3893684 62.8836236,42.3528002 62.8833109,42.3162321 C62.8689277,40.759117 62.886125,39.2007518 62.827654,37.6451995 C62.7607406,35.8680505 62.3742691,34.139659 61.8889909,32.4328334 C61.2308011,30.1168513 60.2855718,27.9086984 59.3656694,25.6908565 C58.8353654,24.4131595 58.2784837,23.1417135 57.9820638,21.7843167 C57.8610569,21.2298563 57.7882027,20.6535174 57.7850759,20.086555 C57.7669405,16.8369915 57.7763209,13.5871155 57.7763209,10.3372395 L57.7763209,10 L61.1763949,10 L61.1763949,10.3447406 C61.1763949,13.3980239 61.1926543,16.4509945 61.1670146,19.5036526 C61.1588849,20.4716144 61.3324219,21.387068 61.6854367,22.2750174 C62.5002788,24.3237707 63.3463889,26.3603347 64.1393434,28.4175269 C65.0117185,30.6806883 65.6993002,33.0032338 66.019171,35.4123552 C66.1823896,36.6419198 66.2715032,37.8880494 66.2893259,39.1282406 C66.3287235,41.8671003 66.3130895,44.6075228 66.2933907,47.3466951 C66.2883879,48.0358639 66.3959495,48.6806508 66.6110728,49.3360643 C67.46969,51.9505299 67.9371455,54.6362564 67.9971799,57.3916812 C68.0365775,59.1935215 67.6585483,60.9266012 67.1532586,62.6378025 C66.449105,65.0228577 65.5176335,67.3232123 64.5054908,69.5907494 C63.1953648,72.5258894 61.8470919,75.4441518 60.5529125,78.3861679 C60.1483056,79.3053721 59.8584519,80.2761467 59.5320148,81.2284811 C59.4732311,81.4003826 59.4797974,81.5994758 59.4788593,81.7863796 C59.4738565,82.7527786 59.4763579,83.7198026 59.4763579,84.6868267 L59.4763579,84.996562 L56.0600245,84.996562 L56.0600245,84.7290207 C56.0600245,83.9679659 56.0912924,83.2056609 56.0531456,82.4464813 C55.9852942,81.1025241 56.2685816,79.8260774 56.7845023,78.6071394 C57.7065934,76.4293037 58.6555749,74.2620946 59.6289454,72.1067623 C60.9115556,69.2678871 62.2357522,66.4471398 63.2810389,63.5082492 C63.781013,62.1024075 64.2200147,60.6796881 64.4657806,59.2025854 C64.6274357,58.2314982 64.6143032,57.2591608 64.5361334,56.2855732 C64.360095,54.0933602 63.9323498,51.951155 63.2041198,49.8739597 C62.5159128,47.9108446 61.6188361,46.0633723 60.1755087,44.5250101 C59.2355949,43.5236057 58.1402795,42.7356717 56.9414673,42.0708818 C54.3396633,40.6278468 51.7534933,39.156995 49.1563795,37.7058338 C47.5707831,36.8197597 45.5905854,37.3498414 44.6287841,38.9028934 C43.6704222,40.4500069 44.0853476,42.4662552 45.6152871,43.4723478 C47.3403385,44.6068977 49.093531,45.6992536 50.8348417,46.8091122 C51.4683298,47.2129245 52.1065082,47.6092356 52.7365568,48.0180486 C53.743384,48.6715869 54.3227786,49.5929789 54.340914,50.8009777 C54.3668664,52.528744 54.3699932,54.257448 54.3390379,55.9845893 C54.3090207,57.6501586 53.6992962,59.109446 52.5742763,60.3340098 C49.6485366,63.5173131 46.7493747,66.7265578 43.7639133,69.8529773 C41.012336,72.733734 38.1632027,75.5213512 35.3547178,78.3477244 C34.9319754,78.7731025 34.4873456,79.1769148 34.0724202,79.6101066 C33.9689234,79.7182482 33.8898155,79.9001513 33.8885648,80.0492368 C33.8754323,81.5888491 33.8807478,83.1290866 33.8807478,84.6686989 L33.8807478,85 L30.4822372,85 L30.4822372,81.5332155 C28.7943946,81.769502 27.2925962,81.3741285 25.9746532,80.3455324 C24.6639018,79.3222497 23.9350465,77.9548514 23.7092921,76.2989711" id="Fill-1" fill="#FFFFFF"></path>
            </g>
        </g>
    </g>
</svg>