<?xml version="1.0" encoding="UTF-8"?>
<svg width="59px" height="59px" viewBox="0 0 59 59" version="1.1" xmlns="http://www.w3.org/2000/svg" xmlns:xlink="http://www.w3.org/1999/xlink">
    <!-- Generator: Sketch 52.2 (67145) - http://www.bohemiancoding.com/sketch -->
    <title>Group 12</title>
    <desc>Created with Sketch.</desc>
    <g id="Page-1" stroke="none" stroke-width="1" fill="none" fill-rule="evenodd">
        <g id="Lesson-10" transform="translate(-469.000000, -5573.000000)">
            <g id="Group-12" transform="translate(469.000000, 5573.000000)">
                <circle id="Oval-3" fill="#F67102" fill-rule="nonzero" cx="29.5" cy="29.5" r="29.5"></circle>
                <g id="Group-7" transform="translate(10.000000, 10.000000)" fill="#FFFFFF">
                    <path d="M19,34.998185 C19.0416232,34.5773639 19.0350163,34.1565427 19.004845,33.7352946 L19.0024225,33.3074277 C19.0039641,32.8863931 19.0050653,32.4653584 19.0066069,32.0443238 C19.0057259,31.9017015 19.004845,31.7592927 19.0041843,31.6166704 C19.0055057,31.1954223 19.0070473,30.7743876 19.0083687,30.3531395 C19.0074878,30.2107307 19.0063866,30.0683219 19.0055057,29.9259131 C19.0070473,29.5048785 19.0085889,29.0834168 19.0099103,28.6621687 C19.0090294,28.5197599 19.0081485,28.3773511 19.0072675,28.2351559 C19.0088091,27.8139077 19.0103507,27.3926596 19.0116721,26.9711979 C19.0110114,26.8290026 19.0101305,26.6865938 19.0092496,26.5443986 C19.010571,26.1231504 19.0118923,25.7016888 19.0134339,25.2802271 L19.0107912,24.8536413 C19.0121126,24.4321796 19.0134339,24.010718 19.0145351,23.5892563 L19.0121126,23.1626705 C19.0134339,22.7414223 19.0145351,22.3197472 19.0160767,21.898499 C19.0151958,21.7563038 19.0143149,21.6141085 19.0136542,21.4719132 C18.9980179,20.831394 19.1761828,20.2963469 19.8784915,20.0860431 C20.0811017,20.0254073 20.305955,20.033307 20.5202374,20.0100348 L20.9602539,20.0125969 C21.394985,20.0113158 21.829716,20.0102483 22.2644471,20.0089673 L22.7044637,20.0115293 L24.0084366,20.0076862 C24.1551088,20.0085403 24.301781,20.0093943 24.4486734,20.0102483 C24.8831843,20.0089673 25.3176951,20.0076862 25.7524262,20.0064052 C25.8993186,20.0072592 26.0459908,20.0083268 26.1928832,20.0091808 C26.627394,20.0076862 27.0616846,20.0064052 27.4964157,20.0051242 C27.6433081,20.0059782 27.7902005,20.0068322 27.9370929,20.0078997 C28.3716038,20.0064052 28.8058944,20.0051242 29.2404052,20.0038431 C29.3875179,20.0046971 29.5344103,20.0055512 29.6813027,20.0066187 L30.984615,20.0029891 L31.4252922,20.0053377 C31.859803,20.0040566 32.2940936,20.0027756 32.7286045,20.0014945 C32.8757171,20.0023486 33.0226095,20.0034161 33.1697222,20.0040566 C33.6037926,20.0027756 34.0383034,20.001281 34.472594,20 L34.9139319,20.0032026 C35.2370071,20.0128104 35.5360775,20.0926618 35.7972685,20.2850311 C35.8769912,20.3770523 35.9567139,20.4688601 36.0364366,20.5608813 C36.1461104,20.8612849 36.2571056,21.1616884 36.1595444,21.4879262 C36.063745,21.7447744 35.8895442,21.9452569 35.6922195,22.1361317 C34.3074226,23.4731088 32.9268101,24.8147831 31.5448763,26.1545359 C31.3922579,26.3024958 31.171589,26.4461856 31.5144847,26.62425 C31.6922091,26.8492857 31.8970217,27.0478467 32.128702,27.2199329 C32.1886042,27.3286076 32.2742731,27.4120886 32.3863694,27.4697354 C32.564314,27.6945576 32.7689063,27.8933321 33.0008069,28.0654183 C33.0607091,28.174093 33.146378,28.2573605 33.2584743,28.3152208 C33.4364189,28.540043 33.6410112,28.738604 33.8729118,28.9109037 C33.9325937,29.0195784 34.0184828,29.1028459 34.1305791,29.1607062 C34.3083035,29.3855284 34.5131161,29.5840894 34.7450167,29.7563891 C34.8046986,29.8650638 34.8903675,29.9483313 35.0024638,30.005978 C35.1804084,30.2308003 35.3850007,30.4295748 35.6169013,30.6016609 C35.6768035,30.7103357 35.7624724,30.7938167 35.8745687,30.8514634 C36.0525133,31.0762857 36.2571056,31.2748467 36.4890062,31.4471463 C36.5489083,31.5558211 36.6345772,31.6390886 36.7466735,31.6969488 C36.9246182,31.9217711 37.1292105,32.1203321 37.3611111,32.2926317 C37.4452384,32.3791018 37.5295859,32.4657854 37.6137132,32.5522555 C37.8339417,32.9224757 37.8125795,33.2841555 37.5714293,33.6377221 C36.0707923,35.0923413 34.569935,36.547174 33.0690778,38.0015797 C32.7045996,38.2364368 32.3321932,38.2562929 31.950317,38.0432135 C31.8609042,37.9614405 31.7714914,37.8796676 31.6820786,37.7978946 C31.5043542,37.5732858 31.2999822,37.3747249 31.0680816,37.2026387 C31.0081794,37.093964 30.9222903,37.0106965 30.8099738,36.9524092 C30.6324696,36.7278005 30.4278773,36.529453 30.1959767,36.3571533 C30.1360745,36.2484786 30.0501854,36.1652111 29.9380891,36.1069238 C29.7603647,35.8825286 29.5557724,35.6839676 29.324092,35.5116679 C29.2639697,35.4029932 29.1780805,35.3197257 29.0659842,35.2616519 C28.8882598,35.0370432 28.6838878,34.8384822 28.4519872,34.666396 C28.3918648,34.5577213 28.3059757,34.4742403 28.1938794,34.4161665 C28.0163752,34.1915578 27.8117829,33.9929968 27.5798823,33.8209106 C27.5202004,33.7124494 27.434091,33.6289684 27.3219947,33.5706811 C27.1442703,33.3460724 26.939678,33.1477249 26.7077774,32.9754252 C26.6480955,32.866964 26.5619861,32.783483 26.4498898,32.7254092 C26.2721654,32.5008005 26.0677934,32.3022395 25.8358928,32.1299398 C25.6509008,31.7966563 25.502687,32.0140059 25.3511698,32.1611118 C23.9683551,33.501505 22.5842189,34.8412578 21.2044873,36.1846401 C21.007603,36.3761554 20.7997073,36.5441849 20.5349927,36.6372737 C20.1973824,36.7329246 19.8875209,36.6251039 19.5778796,36.5157886 L19.2966478,36.2813585 C19.1109952,36.0247238 19.0229038,35.7364902 19.0035237,35.4262654 C19.0024225,35.2836431 19.0013214,35.1410208 19,34.998185" id="Fill-1"></path>
                    <path d="M1.65815692,18.0214467 C1.46945438,17.4105328 1.68310932,16.9447495 2.1333665,16.5093578 C3.53404283,15.1538513 4.91288581,13.7767625 6.2917288,12.3996737 C6.38106731,12.3102609 6.67514918,12.2261336 6.40691086,12.0114108 C6.34653496,11.8990943 6.25942435,11.8132052 6.14602459,11.753303 C5.96645642,11.5214024 5.75948516,11.3168101 5.52488802,11.1393059 C5.46428933,11.0272096 5.37717872,10.9413205 5.26400175,10.8811981 C5.08421079,10.6492975 4.87723953,10.4449255 4.64264239,10.2674213 C4.5820437,10.1551048 4.49493309,10.0692156 4.38175612,10.0090933 C4.20218795,9.77719265 3.9949939,9.5728206 3.76061955,9.39531642 C3.70002086,9.28299989 3.61291025,9.19711077 3.49951049,9.13698839 C3.31994232,8.905308 3.11274827,8.70071572 2.87859671,8.52321155 C2.81777523,8.41111524 2.73066461,8.32500589 2.61726486,8.26510374 C2.43769668,8.03320313 2.23072542,7.82861085 1.99635108,7.6513269 C1.9355296,7.53901036 1.84841898,7.45290102 1.73524202,7.39299886 C1.55545105,7.16131848 1.34847979,6.9567262 1.11410545,6.77922202 C1.05350676,6.66690549 0.966396143,6.58101637 0.852996389,6.52089399 C0.674096581,6.28877314 0.465343006,6.08616292 0.233196555,5.90645646 C0.185074066,5.84457225 0.136505998,5.78246781 0.0881607203,5.7205836 C-0.116582647,5.22198627 0.051623275,4.8390089 0.424126986,4.47607233 C1.80207881,3.13355937 3.17022791,1.78113612 4.52835148,0.419022826 C4.89573104,0.0503603104 5.28316163,-0.114590839 5.78733382,0.0866980135 C5.84993761,0.13426737 5.9127642,0.182277184 5.97536799,0.229846541 C6.15716406,0.459324642 6.36257579,0.665898979 6.59739572,0.842962696 C6.65777162,0.954838777 6.74488223,1.04094812 6.85828199,1.10063005 C7.03785016,1.33231043 7.24504421,1.53712294 7.47964135,1.71484734 C7.54001725,1.82694365 7.62690507,1.91283277 7.74052762,1.97251469 C7.92009579,2.20441531 8.12728984,2.40922782 8.36188698,2.58695222 C8.42226288,2.69904853 8.50915071,2.78493765 8.62255046,2.84461957 C8.80234142,3.07652018 9.00953547,3.28111246 9.24390982,3.4590571 C9.30428572,3.57093318 9.39139634,3.65704252 9.50479609,3.71672445 C9.68436427,3.94862506 9.89155832,4.15321734 10.1261554,4.33094174 C10.1865313,4.44303805 10.273642,4.52892717 10.3870417,4.58882932 C10.5666099,4.82050971 10.7738039,5.02532222 11.0084011,5.20304662 C11.068777,5.31514293 11.1556648,5.40103204 11.2692874,5.46071397 C11.4488555,5.69261458 11.6560496,5.89742709 11.8906467,6.07493127 C11.9510226,6.1872478 12.0379104,6.27313692 12.1513102,6.33281885 C12.3694209,6.59951556 12.4551948,6.30705211 12.54587,6.21830002 C13.9356297,4.8590497 15.3258349,3.5000196 16.6928701,2.11852619 C17.1357752,1.6712421 17.6080885,1.45717999 18.2296707,1.64349331 C18.3201231,1.69612792 18.4107984,1.74876253 18.5014736,1.80139715 C18.6970826,2.00709057 18.8773192,2.22247405 18.9544043,2.50282493 C18.9622019,2.64927689 18.9697767,2.79572884 18.9775744,2.9421808 C18.9762376,3.37669164 18.9749009,3.81120247 18.9735642,4.24549308 C18.9744553,4.3923855 18.9755693,4.53927791 18.9762376,4.68639055 C18.9751237,5.12068116 18.9737869,5.555192 18.9724502,5.98970284 C18.9733414,6.13659525 18.9742325,6.28348766 18.9753465,6.43038007 C18.9737869,6.86489091 18.9724502,7.29918152 18.9711135,7.73391259 C18.9720046,7.880805 18.9728958,8.02747718 18.9737869,8.1743696 C18.9724502,8.60888044 18.9711135,9.04339127 18.9697767,9.47812234 C18.9706679,9.62479452 18.9715591,9.77168694 18.9724502,9.91835912 C18.9711135,10.3530902 18.9697767,10.787601 18.96844,11.2223321 C18.9693312,11.3690043 18.9702223,11.5156765 18.9713363,11.6623486 L18.9673261,12.9663216 C18.9682172,13.1129938 18.9688856,13.259666 18.9697767,13.4063382 C18.9686628,13.8412895 18.9673261,14.2758003 18.9662121,14.7105314 L18.9688856,15.1505479 C18.9675488,15.585279 18.9662121,16.0200101 18.965321,16.4547411 C18.9662121,16.6014133 18.9668805,16.7478653 18.9677716,16.8945374 C18.9613107,17.0969274 18.9539587,17.2990972 18.9479434,17.5014872 C18.9267784,18.2445382 18.4486726,18.7162676 17.7047791,18.7299218 C17.5000357,18.7336657 17.2952924,18.7422546 17.0907718,18.7488614 C16.9426169,18.7479805 16.7942392,18.7470996 16.6458615,18.7462187 C16.2062983,18.7475401 15.7662894,18.7488614 15.3265033,18.7501828 C15.1783484,18.7493019 15.0299707,18.748421 14.8818159,18.7475401 C14.441807,18.7490817 14.0020209,18.750403 13.5622348,18.7515042 C13.4138572,18.7508435 13.2654795,18.7499626 13.1173246,18.7490817 C12.6773157,18.750403 12.2375297,18.7517244 11.7979664,18.7530458 L11.3528333,18.7506233 C10.9130473,18.7517244 10.4732612,18.753266 10.0336979,18.7545874 C9.88509743,18.7537065 9.73671975,18.7528256 9.58811929,18.7519446 C9.148556,18.7534862 8.70876992,18.7548076 8.26942942,18.7563492 L7.82362803,18.7537065 C7.38406474,18.7550278 6.94472424,18.7565694 6.50516095,18.758111 C6.35633769,18.7572301 6.20773723,18.7563492 6.05913677,18.7552481 C5.61957348,18.7567897 5.18023298,18.7583313 4.74066969,18.7596526 C4.59206922,18.7587717 4.44324597,18.7578908 4.29464551,18.7570099 C3.85508222,18.7585515 3.4159645,18.7598729 2.97640121,18.7611942 C2.85631778,18.7548076 2.73623435,18.748421 2.61592813,18.7420344 C2.29845337,18.6812513 2.04959772,18.502646 1.82057032,18.289685 C1.76643252,18.2002722 1.71229472,18.1108595 1.65815692,18.0214467" id="Fill-4"></path>
                </g>
            </g>
        </g>
    </g>
</svg>