<?xml version="1.0" encoding="utf-8"?>
<!-- Generator: Adobe Illustrator 23.0.3, SVG Export Plug-In . SVG Version: 6.00 Build 0)  -->
<svg version="1.1" id="graphic" xmlns="http://www.w3.org/2000/svg" xmlns:xlink="http://www.w3.org/1999/xlink" x="0px" y="0px"
	 viewBox="0 0 1056 650" style="enable-background:new 0 0 1056 650;" xml:space="preserve">
<style type="text/css">
	.st0{fill:none;}
	.st1{fill:none;stroke:#AAAAAA;stroke-miterlimit:10;}
	.st2{fill:#AAAAAA;}
	.st3{font-family:'Helvetica-Narrow-Oblique';}
	.st4{font-size:17.7697px;}
	.st5{font-family:'ArialMT';}
	.st6{font-size:13.1413px;}
	.st7{clip-path:url(#SVGID_2_);fill:#97B306;fill-opacity:0;}
	.st8{clip-path:url(#SVGID_4_);fill:none;}
	.st9{clip-path:url(#SVGID_6_);fill:none;}
	.st10{clip-path:url(#SVGID_8_);fill:none;}
	.st11{clip-path:url(#SVGID_10_);fill:none;}
	.st12{clip-path:url(#SVGID_12_);fill:none;}
	.st13{clip-path:url(#SVGID_14_);fill:none;}
	.st14{clip-path:url(#SVGID_16_);fill:none;}
	.st15{clip-path:url(#SVGID_18_);fill:none;}
	.st16{clip-path:url(#SVGID_20_);fill:none;}
	.st17{clip-path:url(#SVGID_22_);fill:none;}
	.st18{clip-path:url(#SVGID_24_);fill:none;}
	.st19{clip-path:url(#SVGID_26_);fill:none;}
	.st20{clip-path:url(#SVGID_28_);fill:none;}
	.st21{clip-path:url(#SVGID_30_);fill:none;}
	.st22{clip-path:url(#SVGID_32_);fill:none;stroke:#97B306;stroke-width:2;}
	.st23{clip-path:url(#SVGID_34_);fill:none;}
	.st24{clip-path:url(#SVGID_36_);fill:none;}
	.st25{clip-path:url(#SVGID_38_);fill:none;}
	.st26{clip-path:url(#SVGID_40_);fill:none;}
	.st27{clip-path:url(#SVGID_42_);fill:none;}
	.st28{clip-path:url(#SVGID_44_);fill:none;}
	.st29{clip-path:url(#SVGID_46_);fill:none;}
	.st30{clip-path:url(#SVGID_48_);fill:none;}
	.st31{clip-path:url(#SVGID_50_);fill:none;}
	.st32{clip-path:url(#SVGID_52_);fill:none;}
	.st33{clip-path:url(#SVGID_54_);fill:none;}
	.st34{clip-path:url(#SVGID_56_);fill:none;}
	.st35{clip-path:url(#SVGID_58_);fill:none;}
	.st36{clip-path:url(#SVGID_60_);fill:none;}
	.st37{opacity:0.5;fill:#97B306;enable-background:new    ;}
	.st38{fill:#4A4A4A;}
	.st39{font-family:'MyriadPro-Regular';}
	.st40{font-size:16.4267px;}
	.st41{fill:#FF8A57;}
	.st42{fill:none;stroke:#FF8A57;}
	.st43{fill-rule:evenodd;clip-rule:evenodd;fill:#231F20;}
	.st44{fill:none;stroke:#05BCB0;stroke-miterlimit:10;}
</style>
<g>
	<g>
		<rect x="55.5" y="43.8" class="st0" width="889.3" height="528.6"/>
	</g>
	<g>
		<path class="st1" d="M56,572.8V44.2"/>
		<text transform="matrix(1 0 0 1 20.8286 578.7099)" class="st2 st3 st4">140</text>
		<line class="st1" x1="55.5" y1="484.7" x2="50.3" y2="484.7"/>
		<text transform="matrix(1 0 0 1 20.8286 490.6015)" class="st2 st3 st4">145</text>
		<line class="st1" x1="55.5" y1="396.6" x2="50.3" y2="396.6"/>
		<text transform="matrix(1 0 0 1 20.8286 402.4941)" class="st2 st3 st4">150</text>
		<line class="st1" x1="55.5" y1="308.5" x2="50.3" y2="308.5"/>
		<text transform="matrix(1 0 0 1 20.8286 314.3857)" class="st2 st3 st4">155</text>
		<line class="st1" x1="55.5" y1="220.4" x2="50.3" y2="220.4"/>
		<text transform="matrix(1 0 0 1 20.8286 226.2783)" class="st2 st3 st4">160</text>
		<line class="st1" x1="55.5" y1="132.4" x2="50.3" y2="132.4"/>
		<text transform="matrix(1 0 0 1 20.8286 138.1699)" class="st2 st3 st4">165</text>
		<line class="st1" x1="55.5" y1="44.2" x2="50.3" y2="44.2"/>
		<text transform="matrix(1 0 0 1 20.8286 50.062)" class="st2 st3 st4">170</text>
		<path id="SVGID_x5F_3_x5F_" class="st1" d="M56,572.2h938.6"/>
		<text transform="matrix(1 0 0 1 654.6875 572.1933)" class="st5 st6"> </text>
		<text transform="matrix(1 0 0 1 658.3389 572.1933)" class="st5 st6"> </text>
		<text transform="matrix(1 0 0 1 661.9893 572.1933)" class="st5 st6"> </text>
		<text transform="matrix(1 0 0 1 665.6406 572.1933)" class="st5 st6"> </text>
		<text transform="matrix(1 0 0 1 -23.1045 598.3661)" class="st5 st6"> </text>
		<line class="st1" x1="105.2" y1="572.4" x2="105.2" y2="577.8"/>
		<text transform="matrix(1 0 0 1 78.1167 597.7763)" class="st2 st3 st4">Week 1</text>
		<line class="st1" x1="204.2" y1="572.4" x2="204.2" y2="577.8"/>
		<text transform="matrix(1 0 0 1 176.936 597.7763)" class="st2 st3 st4">Week 2</text>
		<line class="st1" x1="303" y1="572.4" x2="303" y2="577.8"/>
		<text transform="matrix(1 0 0 1 275.7559 597.7763)" class="st2 st3 st4">Week 3</text>
		<line class="st1" x1="401.8" y1="573.5" x2="401.8" y2="578.9"/>
		<text transform="matrix(1 0 0 1 374.5752 597.7763)" class="st2 st3 st4">Week 4</text>
		<line class="st1" x1="500.6" y1="572.4" x2="500.6" y2="577.8"/>
		<text transform="matrix(1 0 0 1 473.3945 597.7763)" class="st2 st3 st4">Week 5</text>
		<line class="st1" x1="599.4" y1="573.5" x2="599.4" y2="578.9"/>
		<text transform="matrix(1 0 0 1 572.2139 597.7763)" class="st2 st3 st4">Week 6</text>
		<line class="st1" x1="698.2" y1="572.4" x2="698.2" y2="577.8"/>
		<text transform="matrix(1 0 0 1 671.0342 597.7763)" class="st2 st3 st4">Week 7</text>
		<line class="st1" x1="797" y1="572.4" x2="797" y2="577.8"/>
		<text transform="matrix(1 0 0 1 769.8525 597.7763)" class="st2 st3 st4">Week 8</text>
		<line class="st1" x1="895.9" y1="572.4" x2="895.9" y2="577.8"/>
		<text transform="matrix(1 0 0 1 868.6729 597.7763)" class="st2 st3 st4">Week 9</text>
		<line class="st1" x1="994.7" y1="572.4" x2="994.7" y2="577.8"/>
		<text transform="matrix(1 0 0 1 963.0361 597.7763)" class="st2 st3 st4">Week 10</text>
	</g>
</g>
<g>
	<g transform="translate(45, 10)">
	</g>
</g>
<g id="areas">
	<g pointer-events="none">
		<g>
			<g>
				<defs>
					<rect id="SVGID_1_" x="55.5" y="34.8" width="889.3" height="546.5"/>
				</defs>
				<clipPath id="SVGID_2_">
					<use xlink:href="#SVGID_1_"  style="overflow:visible;"/>
				</clipPath>
				<path class="st7" d="M55.5,79c33,25,65.9,49.9,98.8,70.5s65.9,38.2,98.8,52.9c33,14.7,65.9,20.6,98.8,35.3
					c33,14.7,65.9,47,98.8,52.9c33,5.9,65.9,6.8,98.8,8.8c33,2.1,65.9,2.1,98.8,3.5c33,1.4,65.9,3.4,98.8,5.3l0,0
					c-33-1.9-65.9-3.8-98.8-5.3c-33-1.4-65.9-1.4-98.8-3.5c-33-2.1-65.9-3-98.8-8.8c-33-5.9-65.9-38.2-98.8-52.9
					c-33-14.7-65.9-20.6-98.8-35.3c-33-14.7-65.9-32.3-98.8-52.9S88.5,103.9,55.5,79z"/>
			</g>
		</g>
	</g>
	<g pointer-events="none">
		<g>
			<g>
				<defs>
					<rect id="SVGID_3_" x="55.5" y="34.8" width="889.3" height="546.5"/>
				</defs>
				<clipPath id="SVGID_4_">
					<use xlink:href="#SVGID_3_"  style="overflow:visible;"/>
				</clipPath>
				<path class="st8" d="M55.5,581.3"/>
			</g>
		</g>
	</g>
	<g pointer-events="none">
		<g>
			<g>
				<defs>
					<rect id="SVGID_5_" x="55.5" y="34.8" width="889.3" height="546.5"/>
				</defs>
				<clipPath id="SVGID_6_">
					<use xlink:href="#SVGID_5_"  style="overflow:visible;"/>
				</clipPath>
				<path class="st9" d="M55.5,581.3"/>
			</g>
		</g>
	</g>
	<g pointer-events="none">
		<g>
			<g>
				<defs>
					<rect id="SVGID_7_" x="55.5" y="34.8" width="889.3" height="546.5"/>
				</defs>
				<clipPath id="SVGID_8_">
					<use xlink:href="#SVGID_7_"  style="overflow:visible;"/>
				</clipPath>
				<path class="st10" d="M55.5,581.3"/>
			</g>
		</g>
	</g>
	<g pointer-events="none">
		<g>
			<g>
				<defs>
					<rect id="SVGID_9_" x="55.5" y="34.8" width="889.3" height="546.5"/>
				</defs>
				<clipPath id="SVGID_10_">
					<use xlink:href="#SVGID_9_"  style="overflow:visible;"/>
				</clipPath>
				<path class="st11" d="M55.5,581.3"/>
			</g>
		</g>
	</g>
	<g pointer-events="none">
		<g>
			<g>
				<defs>
					<rect id="SVGID_11_" x="55.5" y="34.8" width="889.3" height="546.5"/>
				</defs>
				<clipPath id="SVGID_12_">
					<use xlink:href="#SVGID_11_"  style="overflow:visible;"/>
				</clipPath>
				<path class="st12" d="M55.5,581.3"/>
			</g>
		</g>
	</g>
	<g pointer-events="none">
		<g>
			<g>
				<defs>
					<rect id="SVGID_13_" x="55.5" y="34.8" width="889.3" height="546.5"/>
				</defs>
				<clipPath id="SVGID_14_">
					<use xlink:href="#SVGID_13_"  style="overflow:visible;"/>
				</clipPath>
				<path class="st13" d="M55.5,581.3"/>
			</g>
		</g>
	</g>
	<g pointer-events="none">
		<g>
			<g>
				<defs>
					<rect id="SVGID_15_" x="55.5" y="34.8" width="889.3" height="546.5"/>
				</defs>
				<clipPath id="SVGID_16_">
					<use xlink:href="#SVGID_15_"  style="overflow:visible;"/>
				</clipPath>
				<path class="st14" d="M55.5,581.3"/>
			</g>
		</g>
	</g>
	<g pointer-events="none">
		<g>
			<g>
				<defs>
					<rect id="SVGID_17_" x="55.5" y="34.8" width="889.3" height="546.5"/>
				</defs>
				<clipPath id="SVGID_18_">
					<use xlink:href="#SVGID_17_"  style="overflow:visible;"/>
				</clipPath>
				<path class="st15" d="M55.5,581.3"/>
			</g>
		</g>
	</g>
	<g pointer-events="none">
		<g>
			<g>
				<defs>
					<rect id="SVGID_19_" x="55.5" y="34.8" width="889.3" height="546.5"/>
				</defs>
				<clipPath id="SVGID_20_">
					<use xlink:href="#SVGID_19_"  style="overflow:visible;"/>
				</clipPath>
				<path class="st16" d="M55.5,581.3"/>
			</g>
		</g>
	</g>
	<g pointer-events="none">
		<g>
			<g>
				<defs>
					<rect id="SVGID_21_" x="55.5" y="34.8" width="889.3" height="546.5"/>
				</defs>
				<clipPath id="SVGID_22_">
					<use xlink:href="#SVGID_21_"  style="overflow:visible;"/>
				</clipPath>
				<path class="st17" d="M55.5,581.3"/>
			</g>
		</g>
	</g>
	<g pointer-events="none">
		<g>
			<g>
				<defs>
					<rect id="SVGID_23_" x="55.5" y="34.8" width="889.3" height="546.5"/>
				</defs>
				<clipPath id="SVGID_24_">
					<use xlink:href="#SVGID_23_"  style="overflow:visible;"/>
				</clipPath>
				<path class="st18" d="M55.5,581.3"/>
			</g>
		</g>
	</g>
	<g pointer-events="none">
		<g>
			<g>
				<defs>
					<rect id="SVGID_25_" x="55.5" y="34.8" width="889.3" height="546.5"/>
				</defs>
				<clipPath id="SVGID_26_">
					<use xlink:href="#SVGID_25_"  style="overflow:visible;"/>
				</clipPath>
				<path class="st19" d="M55.5,581.3"/>
			</g>
		</g>
	</g>
	<g pointer-events="none">
		<g>
			<g>
				<defs>
					<rect id="SVGID_27_" x="55.5" y="34.8" width="889.3" height="546.5"/>
				</defs>
				<clipPath id="SVGID_28_">
					<use xlink:href="#SVGID_27_"  style="overflow:visible;"/>
				</clipPath>
				<path class="st20" d="M55.5,581.3"/>
			</g>
		</g>
	</g>
	<g pointer-events="none">
		<g>
			<g>
				<defs>
					<rect id="SVGID_29_" x="55.5" y="34.8" width="889.3" height="546.5"/>
				</defs>
				<clipPath id="SVGID_30_">
					<use xlink:href="#SVGID_29_"  style="overflow:visible;"/>
				</clipPath>
				<path class="st21" d="M55.5,581.3"/>
			</g>
		</g>
	</g>
</g>
<g id="lines">
	<g>
		<g>
			<g>
				<defs>
					<rect id="SVGID_31_" x="103.7" y="34.8" width="889.3" height="546.5"/>
				</defs>
				<clipPath id="SVGID_32_">
					<use xlink:href="#SVGID_31_"  style="overflow:visible;"/>
				</clipPath>
				<path class="st22" d="M103.7,79c33,25,65.9,49.9,98.8,70.5s65.9,38.2,98.8,52.9c33,14.7,65.9,20.6,98.8,35.3
					c33,14.7,65.9,47,98.8,52.9c33,5.9,65.9,6.8,98.8,8.8c33,2.1,65.9,2.1,98.8,3.5c33,1.4,65.9,3.4,98.8,5.3"/>
			</g>
		</g>
	</g>
	<g>
		<g>
			<g>
				<defs>
					<rect id="SVGID_33_" x="103.7" y="34.8" width="889.3" height="546.5"/>
				</defs>
				<clipPath id="SVGID_34_">
					<use xlink:href="#SVGID_33_"  style="overflow:visible;"/>
				</clipPath>
				<path class="st23" d="M103.7,581.3"/>
			</g>
		</g>
	</g>
	<g>
		<g>
			<g>
				<defs>
					<rect id="SVGID_35_" x="103.7" y="34.8" width="889.3" height="546.5"/>
				</defs>
				<clipPath id="SVGID_36_">
					<use xlink:href="#SVGID_35_"  style="overflow:visible;"/>
				</clipPath>
				<path class="st24" d="M103.7,581.3"/>
			</g>
		</g>
	</g>
	<g>
		<g>
			<g>
				<defs>
					<rect id="SVGID_37_" x="103.7" y="34.8" width="889.3" height="546.5"/>
				</defs>
				<clipPath id="SVGID_38_">
					<use xlink:href="#SVGID_37_"  style="overflow:visible;"/>
				</clipPath>
				<path class="st25" d="M103.7,581.3"/>
			</g>
		</g>
	</g>
	<g>
		<g>
			<g>
				<defs>
					<rect id="SVGID_39_" x="103.7" y="34.8" width="889.3" height="546.5"/>
				</defs>
				<clipPath id="SVGID_40_">
					<use xlink:href="#SVGID_39_"  style="overflow:visible;"/>
				</clipPath>
				<path class="st26" d="M103.7,581.3"/>
			</g>
		</g>
	</g>
	<g>
		<g>
			<g>
				<defs>
					<rect id="SVGID_41_" x="103.7" y="34.8" width="889.3" height="546.5"/>
				</defs>
				<clipPath id="SVGID_42_">
					<use xlink:href="#SVGID_41_"  style="overflow:visible;"/>
				</clipPath>
				<path class="st27" d="M103.7,581.3"/>
			</g>
		</g>
	</g>
	<g>
		<g>
			<g>
				<defs>
					<rect id="SVGID_43_" x="103.7" y="34.8" width="889.3" height="546.5"/>
				</defs>
				<clipPath id="SVGID_44_">
					<use xlink:href="#SVGID_43_"  style="overflow:visible;"/>
				</clipPath>
				<path class="st28" d="M103.7,581.3"/>
			</g>
		</g>
	</g>
	<g>
		<g>
			<g>
				<defs>
					<rect id="SVGID_45_" x="103.7" y="34.8" width="889.3" height="546.5"/>
				</defs>
				<clipPath id="SVGID_46_">
					<use xlink:href="#SVGID_45_"  style="overflow:visible;"/>
				</clipPath>
				<path class="st29" d="M103.7,581.3"/>
			</g>
		</g>
	</g>
	<g>
		<g>
			<g>
				<defs>
					<rect id="SVGID_47_" x="103.7" y="34.8" width="889.3" height="546.5"/>
				</defs>
				<clipPath id="SVGID_48_">
					<use xlink:href="#SVGID_47_"  style="overflow:visible;"/>
				</clipPath>
				<path class="st30" d="M103.7,581.3"/>
			</g>
		</g>
	</g>
	<g>
		<g>
			<g>
				<defs>
					<rect id="SVGID_49_" x="103.7" y="34.8" width="889.3" height="546.5"/>
				</defs>
				<clipPath id="SVGID_50_">
					<use xlink:href="#SVGID_49_"  style="overflow:visible;"/>
				</clipPath>
				<path class="st31" d="M103.7,581.3"/>
			</g>
		</g>
	</g>
	<g>
		<g>
			<g>
				<defs>
					<rect id="SVGID_51_" x="103.7" y="34.8" width="889.3" height="546.5"/>
				</defs>
				<clipPath id="SVGID_52_">
					<use xlink:href="#SVGID_51_"  style="overflow:visible;"/>
				</clipPath>
				<path class="st32" d="M103.7,581.3"/>
			</g>
		</g>
	</g>
	<g>
		<g>
			<g>
				<defs>
					<rect id="SVGID_53_" x="103.7" y="34.8" width="889.3" height="546.5"/>
				</defs>
				<clipPath id="SVGID_54_">
					<use xlink:href="#SVGID_53_"  style="overflow:visible;"/>
				</clipPath>
				<path class="st33" d="M103.7,581.3"/>
			</g>
		</g>
	</g>
	<g>
		<g>
			<g>
				<defs>
					<rect id="SVGID_55_" x="103.7" y="34.8" width="889.3" height="546.5"/>
				</defs>
				<clipPath id="SVGID_56_">
					<use xlink:href="#SVGID_55_"  style="overflow:visible;"/>
				</clipPath>
				<path class="st34" d="M103.7,581.3"/>
			</g>
		</g>
	</g>
	<g>
		<g>
			<g>
				<defs>
					<rect id="SVGID_57_" x="103.7" y="34.8" width="889.3" height="546.5"/>
				</defs>
				<clipPath id="SVGID_58_">
					<use xlink:href="#SVGID_57_"  style="overflow:visible;"/>
				</clipPath>
				<path class="st35" d="M103.7,581.3"/>
			</g>
		</g>
	</g>
	<g>
		<g>
			<g>
				<defs>
					<rect id="SVGID_59_" x="103.7" y="34.8" width="889.3" height="546.5"/>
				</defs>
				<clipPath id="SVGID_60_">
					<use xlink:href="#SVGID_59_"  style="overflow:visible;"/>
				</clipPath>
				<path class="st36" d="M103.7,581.3"/>
			</g>
		</g>
	</g>
</g>
<g id="data-points">
	<g transform="translate(45,10)">
		<path id="point-0-0" class="st37" d="M56.1,69c0-1.4,1.2-2.6,2.6-2.6c1.4,0,2.6,1.2,2.6,2.6c0,1.4-1.2,2.6-2.6,2.6
			C57.3,71.7,56.1,70.5,56.1,69z"/>
		<path id="point-0-1" class="st37" d="M154.9,139.5c0-1.4,1.2-2.6,2.6-2.6s2.6,1.2,2.6,2.6s-1.2,2.6-2.6,2.6
			S154.9,140.9,154.9,139.5z"/>
		<path id="point-0-2" class="st37" d="M253.7,192.4c0-1.4,1.2-2.6,2.6-2.6c1.4,0,2.6,1.2,2.6,2.6c0,1.4-1.2,2.6-2.6,2.6
			C255,195,253.7,193.8,253.7,192.4z"/>
		<path id="point-0-3" class="st37" d="M352.5,227.6c0-1.4,1.2-2.6,2.6-2.6c1.4,0,2.6,1.2,2.6,2.6c0,1.4-1.2,2.6-2.6,2.6
			C353.7,230.3,352.5,229.1,352.5,227.6z"/>
		<path id="point-0-4" class="st37" d="M451.3,280.4c0-1.4,1.2-2.6,2.6-2.6c1.4,0,2.6,1.2,2.6,2.6c0,1.4-1.2,2.6-2.6,2.6
			C452.5,283,451.3,282,451.3,280.4z"/>
		<path id="point-0-5" class="st37" d="M550.2,289.3c0-1.4,1.2-2.6,2.6-2.6c1.4,0,2.6,1.2,2.6,2.6c0,1.4-1.2,2.6-2.6,2.6
			C551.4,291.9,550.2,290.7,550.2,289.3z"/>
		<path id="point-0-6" class="st37" d="M649,292.8c0-1.4,1.2-2.6,2.6-2.6c1.4,0,2.6,1.2,2.6,2.6c0,1.4-1.2,2.6-2.6,2.6
			C650.2,295.4,649,294.2,649,292.8z"/>
		<path id="point-0-7" class="st37" d="M747.9,298.1c0-1.4,1.2-2.6,2.6-2.6c1.4,0,2.6,1.2,2.6,2.6c0,1.4-1.2,2.6-2.6,2.6
			C749.1,300.7,747.9,299.6,747.9,298.1z"/>
	</g>
	<g transform="translate(45,10)">
	</g>
	<g transform="translate(45,10)">
	</g>
	<g transform="translate(45,10)">
	</g>
	<g transform="translate(45,10)">
	</g>
	<g transform="translate(45,10)">
	</g>
	<g transform="translate(45,10)">
	</g>
	<g transform="translate(45,10)">
	</g>
	<g transform="translate(45,10)">
	</g>
	<g transform="translate(45,10)">
	</g>
	<g transform="translate(45,10)">
	</g>
	<g transform="translate(45,10)">
	</g>
	<g transform="translate(45,10)">
	</g>
	<g transform="translate(45,10)">
	</g>
	<g transform="translate(45,10)">
	</g>
</g>
<g id="data-labels">
</g>
<g>
	<g transform="translate(45, 10)">
	</g>
</g>
<text transform="matrix(1 0 0 1 176.9355 55.9799)" class="st38 st39 st40">Roxanne’s </text>
<text transform="matrix(1 0 0 1 176.9355 75.6918)" class="st38 st39 st40">starting weight</text>
<g>
	<polygon class="st41" points="165.6,51.2 155.3,55.3 157.3,45.2 	"/>
	<path class="st42" d="M113.5,75c8.9-19.9,25-28.3,45.3-25"/>
</g>
<g>
	<g>
		<g>
			<g>
				<g>
					<g>
						<rect x="595.4" y="302.7" class="st0" width="14.3" height="16.4"/>
					</g>
					<rect x="606" y="310.4" class="st43" width="2.6" height="1.6"/>
					<rect x="601.2" y="310.4" class="st43" width="2.6" height="1.6"/>
					<rect x="596.5" y="310.4" class="st43" width="2.6" height="1.6"/>
				</g>
			</g>
			<g>
				<g>
					<g>
						<rect x="609.8" y="302.7" class="st0" width="14.3" height="16.4"/>
					</g>
					<rect x="620.4" y="310.4" class="st43" width="2.6" height="1.6"/>
					<rect x="615.7" y="310.4" class="st43" width="2.6" height="1.6"/>
					<rect x="610.9" y="310.4" class="st43" width="2.6" height="1.6"/>
				</g>
			</g>
			<g>
				<g>
					<g>
						<rect x="624.1" y="302.7" class="st0" width="14.3" height="16.4"/>
					</g>
					<rect x="634.8" y="310.4" class="st43" width="2.6" height="1.6"/>
					<rect x="630" y="310.4" class="st43" width="2.6" height="1.6"/>
					<rect x="625.2" y="310.4" class="st43" width="2.6" height="1.6"/>
				</g>
			</g>
			<g>
				<g>
					<g>
						<rect x="638.6" y="302.7" class="st0" width="14.3" height="16.4"/>
					</g>
					<rect x="649.2" y="310.4" class="st43" width="2.6" height="1.6"/>
					<rect x="644.4" y="310.4" class="st43" width="2.6" height="1.6"/>
					<rect x="639.7" y="310.4" class="st43" width="2.6" height="1.6"/>
				</g>
			</g>
			<g>
				<g>
					<g>
						<rect x="652.9" y="302.7" class="st0" width="14.3" height="16.4"/>
					</g>
					<rect x="663.5" y="310.4" class="st43" width="2.6" height="1.6"/>
					<rect x="658.8" y="310.4" class="st43" width="2.6" height="1.6"/>
					<rect x="654" y="310.4" class="st43" width="2.6" height="1.6"/>
				</g>
			</g>
			<g>
				<g>
					<g>
						<rect x="667.4" y="302.7" class="st0" width="14.3" height="16.4"/>
					</g>
					<rect x="678" y="310.4" class="st43" width="2.6" height="1.6"/>
					<rect x="673.2" y="310.4" class="st43" width="2.6" height="1.6"/>
					<rect x="668.3" y="310.4" class="st43" width="2.6" height="1.6"/>
				</g>
			</g>
			<g>
				<g>
					<g>
						<rect x="681.7" y="302.7" class="st0" width="14.3" height="16.4"/>
					</g>
					<rect x="692.3" y="310.4" class="st43" width="2.6" height="1.6"/>
					<rect x="687.5" y="310.4" class="st43" width="2.6" height="1.6"/>
					<rect x="682.8" y="310.4" class="st43" width="2.6" height="1.6"/>
				</g>
			</g>
			<g>
				<g>
					<g>
						<rect x="696.1" y="302.7" class="st0" width="14.3" height="16.4"/>
					</g>
					<rect x="706.7" y="310.4" class="st43" width="2.6" height="1.6"/>
					<rect x="702" y="310.4" class="st43" width="2.6" height="1.6"/>
					<rect x="697.1" y="310.4" class="st43" width="2.6" height="1.6"/>
				</g>
			</g>
			<g>
				<g>
					<g>
						<rect x="710.5" y="302.7" class="st0" width="14.3" height="16.4"/>
					</g>
					<rect x="721.1" y="310.4" class="st43" width="2.6" height="1.6"/>
					<rect x="716.3" y="310.4" class="st43" width="2.6" height="1.6"/>
					<rect x="711.5" y="310.4" class="st43" width="2.6" height="1.6"/>
				</g>
			</g>
			<g>
				<g>
					<g>
						<rect x="724.9" y="302.7" class="st0" width="14.3" height="16.4"/>
					</g>
					<rect x="735.5" y="310.4" class="st43" width="2.6" height="1.6"/>
					<rect x="730.7" y="310.4" class="st43" width="2.6" height="1.6"/>
					<rect x="726" y="310.4" class="st43" width="2.6" height="1.6"/>
				</g>
			</g>
			<g>
				<g>
					<g>
						<rect x="739.2" y="302.7" class="st0" width="14.3" height="16.4"/>
					</g>
					<rect x="749.8" y="310.4" class="st43" width="2.6" height="1.6"/>
					<rect x="745.1" y="310.4" class="st43" width="2.6" height="1.6"/>
					<rect x="740.3" y="310.4" class="st43" width="2.6" height="1.6"/>
				</g>
			</g>
			<g>
				<g>
					<g>
						<rect x="753.7" y="302.7" class="st0" width="14.3" height="16.4"/>
					</g>
					<rect x="764.3" y="310.4" class="st43" width="2.6" height="1.6"/>
					<rect x="759.5" y="310.4" class="st43" width="2.6" height="1.6"/>
					<rect x="754.6" y="310.4" class="st43" width="2.6" height="1.6"/>
				</g>
			</g>
			<g>
				<g>
					<g>
						<rect x="768" y="302.7" class="st0" width="14.3" height="16.4"/>
					</g>
					<rect x="778.6" y="310.4" class="st43" width="2.6" height="1.6"/>
					<rect x="773.8" y="310.4" class="st43" width="2.6" height="1.6"/>
					<rect x="769.1" y="310.4" class="st43" width="2.6" height="1.6"/>
				</g>
			</g>
			<g>
				<g>
					<g>
						<rect x="782.3" y="302.7" class="st0" width="14.3" height="16.4"/>
					</g>
					<rect x="793" y="310.4" class="st43" width="2.6" height="1.6"/>
					<rect x="788.3" y="310.4" class="st43" width="2.6" height="1.6"/>
					<rect x="783.4" y="310.4" class="st43" width="2.6" height="1.6"/>
				</g>
			</g>
			<g>
				<g>
					<g>
						<rect x="796.8" y="302.7" class="st0" width="14.3" height="16.4"/>
					</g>
					<rect x="807.4" y="310.4" class="st43" width="2.6" height="1.6"/>
					<rect x="802.6" y="310.4" class="st43" width="2.6" height="1.6"/>
					<rect x="797.9" y="310.4" class="st43" width="2.6" height="1.6"/>
				</g>
			</g>
			<g>
				<g>
					<g>
						<rect x="811.2" y="302.7" class="st0" width="14.3" height="16.4"/>
					</g>
					<rect x="821.8" y="310.4" class="st43" width="2.6" height="1.6"/>
					<rect x="817" y="310.4" class="st43" width="2.6" height="1.6"/>
					<rect x="812.2" y="310.4" class="st43" width="2.6" height="1.6"/>
				</g>
			</g>
			<g>
				<g>
					<g>
						<rect x="825.5" y="302.7" class="st0" width="14.3" height="16.4"/>
					</g>
					<rect x="836.1" y="310.4" class="st43" width="2.6" height="1.6"/>
					<rect x="831.4" y="310.4" class="st43" width="2.6" height="1.6"/>
					<rect x="826.6" y="310.4" class="st43" width="2.6" height="1.6"/>
				</g>
			</g>
			<g>
				<g>
					<g>
						<rect x="840" y="302.7" class="st0" width="14.3" height="16.4"/>
					</g>
					<rect x="850.6" y="310.4" class="st43" width="2.6" height="1.6"/>
					<rect x="845.8" y="310.4" class="st43" width="2.6" height="1.6"/>
					<rect x="841" y="310.4" class="st43" width="2.6" height="1.6"/>
				</g>
			</g>
			<g>
				<g>
					<g>
						<rect x="854.3" y="302.7" class="st0" width="14.3" height="16.4"/>
					</g>
					<rect x="864.9" y="310.4" class="st43" width="2.6" height="1.6"/>
					<rect x="860.1" y="310.4" class="st43" width="2.6" height="1.6"/>
					<rect x="855.4" y="310.4" class="st43" width="2.6" height="1.6"/>
				</g>
			</g>
		</g>
	</g>
</g>
<text transform="matrix(1 0 0 1 611.4482 328.3808)" class="st38 st39 st40">Roxanne’s weight levels off</text>
<line class="st44" x1="104.6" y1="467.1" x2="951.7" y2="467.1"/>
<text transform="matrix(1 0 0 1 460.4917 490.6025)" class="st38 st39 st40">Roxanne’s goal weight</text>
<text transform="matrix(1 0 0 1 847.9307 262.1918)" class="st38 st39 st40">Roxanne’s </text>
<text transform="matrix(1 0 0 1 847.9307 281.9037)" class="st38 st39 st40">current weight</text>
<g>
	<polygon class="st41" points="835.9,262.5 827.9,269.6 826.4,259.8 	"/>
	<path class="st42" d="M796.7,301.9c1.2-21.2,13.1-34.4,32.6-38.3"/>
</g>
</svg>
