<?xml version="1.0" encoding="UTF-8"?>
<svg width="50px" height="51px" viewBox="0 0 50 51" version="1.1" xmlns="http://www.w3.org/2000/svg" xmlns:xlink="http://www.w3.org/1999/xlink">
    <!-- Generator: Sketch 52.2 (67145) - http://www.bohemiancoding.com/sketch -->
    <title>scale</title>
    <desc>Created with Sketch.</desc>
    <g id="Page-1" stroke="none" stroke-width="1" fill="none" fill-rule="evenodd">
        <g id="Desktop" transform="translate(-505.000000, -4889.000000)">
            <g id="scale" transform="translate(505.000000, 4889.000000)">
                <path d="M0,42.5589312 C0,47.220277 3.80632971,51 8.50259802,51 L41.497402,51 C46.1936703,51 50,47.220277 50,42.5589312 L50,8.44106883 C50,3.77878515 46.1936703,0 41.497402,0 L8.50259802,0 C3.80632971,0 0,3.77878515 0,8.44106883 L0,42.5589312 Z" id="Stroke-1" fill="#F67102"></path>
                <path d="M10,14.0755199 L17.2943757,19 L33.2038227,19 L40,14.0755199 C40,14.0755199 36.685571,6 25.2495692,6 C13.8135673,6 10,14.0755199 10,14.0755199 Z" id="Stroke-3" fill="#FFFFFF"></path>
                <polygon id="Stroke-5" fill="#F67102" points="28 10 23 19 26.5185185 19"></polygon>
            </g>
        </g>
    </g>
</svg>