<?xml version="1.0" encoding="UTF-8"?>
<svg width="82px" height="53px" viewBox="0 0 82 53" version="1.1" xmlns="http://www.w3.org/2000/svg" xmlns:xlink="http://www.w3.org/1999/xlink">
    <!-- Generator: Sketch 52.2 (67145) - http://www.bohemiancoding.com/sketch -->
    <title>serving</title>
    <desc>Created with Sketch.</desc>
    <g id="Page-1" stroke="none" stroke-width="1" fill="none" fill-rule="evenodd">
        <g id="Lesson-2" transform="translate(-710.000000, -5416.000000)" fill="#F67102">
            <path d="M791.966316,5440.67385 C791.967315,5448.16414 791.891399,5455.65344 791.99928,5463.14175 C792.052221,5466.8051 789.177398,5467.43665 786.464396,5466.65738 C785.32965,5466.33219 784.71433,5465.1613 784.843188,5463.89227 C785.390583,5458.4939 785.916002,5453.09157 786.557293,5447.70411 C786.734098,5446.21399 786.368502,5445.05896 785.13087,5444.33224 C783.164043,5443.17722 782.709545,5441.61769 782.998226,5439.41968 C783.861273,5432.84547 784.839192,5426.31489 787.60114,5420.20269 C788.136548,5419.01694 788.802812,5417.86687 789.578954,5416.82487 C789.906592,5416.38369 790.674743,5416.2657 791.242116,5416 C791.483849,5416.53736 791.931355,5417.07273 791.934351,5417.61108 C791.980301,5425.29867 791.966316,5432.98626 791.966316,5440.67385 Z M720.408791,5419.53427 C720.402797,5418.75897 720.479712,5418.01638 721.448642,5417.98366 C722.357637,5417.95293 722.659304,5418.63206 722.715242,5419.4143 C722.993934,5423.24818 723.262637,5427.08405 723.530341,5430.91991 C723.645214,5432.58056 723.691164,5434.24816 723.869966,5435.90187 C724.090722,5437.93927 723.363526,5439.52061 721.619453,5440.53088 C719.88437,5441.5362 719.311004,5442.89248 719.436865,5444.87238 C719.867389,5451.63793 720.136092,5458.41241 720.507682,5465.18193 C720.586594,5466.61158 720.277935,5467.85186 718.948405,5468.51216 C717.605888,5469.17939 716.144503,5469.17245 714.809978,5468.42788 C713.589327,5467.74776 713.317627,5466.58481 713.38755,5465.25926 C713.75814,5458.25179 714.077787,5451.24235 714.469354,5444.23687 C714.551264,5442.76657 714.075789,5441.68392 712.823173,5440.93836 C710.597633,5439.61182 709.78553,5437.75387 710.047241,5435.13549 C710.546689,5430.12775 710.785425,5425.09523 711.133041,5420.07361 C711.150022,5419.83566 711.170999,5419.59871 711.193974,5419.36275 C711.273885,5418.56564 711.598527,5417.92715 712.506523,5417.98961 C713.38755,5418.05207 713.509415,5418.72922 713.489437,5419.47181 C713.37856,5423.63286 713.273675,5427.7959 713.181777,5431.95695 C713.154807,5433.19129 713.883002,5433.85852 714.833951,5433.35686 C715.256484,5433.13378 715.606098,5432.37534 715.620083,5431.85087 C715.723968,5427.88711 715.736953,5423.92137 715.777908,5419.95662 C715.780905,5419.68001 715.682014,5419.32805 715.814867,5419.13968 C716.123526,5418.70642 716.494117,5418.11255 716.932632,5418.01936 C717.662825,5417.86568 718.081363,5418.4308 718.096346,5419.18429 C718.131308,5420.84891 718.162273,5422.51452 718.182251,5424.17815 C718.213217,5426.75588 718.249177,5429.33262 718.248178,5431.91035 C718.248178,5432.83933 718.50889,5433.49764 719.568719,5433.47186 C720.604574,5433.44807 720.736429,5432.74217 720.72644,5431.89945 C720.703465,5429.83825 720.718449,5427.77706 720.718449,5425.71587 C720.61756,5425.71686 720.516672,5425.71686 720.414784,5425.71686 C720.414784,5423.65566 720.426771,5421.59447 720.408791,5419.53427 Z M752.45308,5465.18276 C739.488715,5465.18276 728.97902,5454.75157 728.97902,5441.88404 C728.97902,5429.01651 739.488715,5418.58531 752.45308,5418.58531 C765.417446,5418.58531 775.92714,5429.01651 775.92714,5441.88404 C775.92714,5454.75157 765.417446,5465.18276 752.45308,5465.18276 Z M752.443565,5458.66314 C762.097879,5458.66314 769.924248,5450.89523 769.924248,5441.31303 C769.924248,5431.73082 762.097879,5423.96291 752.443565,5423.96291 C742.78925,5423.96291 734.962882,5431.73082 734.962882,5441.31303 C734.962882,5450.89523 742.78925,5458.66314 752.443565,5458.66314 Z" id="serving"></path>
        </g>
    </g>
</svg>