<?xml version="1.0" encoding="UTF-8"?>
<svg width="82px" height="53px" viewBox="0 0 82 53" version="1.1" xmlns="http://www.w3.org/2000/svg" xmlns:xlink="http://www.w3.org/1999/xlink">
    <!-- Generator: Sketch 51.1 (57501) - http://www.bohemiancoding.com/sketch -->
    <title>serving</title>
    <desc>Created with Sketch.</desc>
    <defs></defs>
    <g id="Page-1" stroke="none" stroke-width="1" fill="none" fill-rule="evenodd">
        <g id="Lesson-4" transform="translate(-233.000000, -2725.000000)" fill="#F67102">
            <path d="M314.966316,2749.67385 C314.967315,2757.16414 314.891399,2764.65344 314.99928,2772.14175 C315.052221,2775.8051 312.177398,2776.43665 309.464396,2775.65738 C308.32965,2775.33219 307.71433,2774.1613 307.843188,2772.89227 C308.390583,2767.4939 308.916002,2762.09157 309.557293,2756.70411 C309.734098,2755.21399 309.368502,2754.05896 308.13087,2753.33224 C306.164043,2752.17722 305.709545,2750.61769 305.998226,2748.41968 C306.861273,2741.84547 307.839192,2735.31489 310.60114,2729.20269 C311.136548,2728.01694 311.802812,2726.86687 312.578954,2725.82487 C312.906592,2725.38369 313.674743,2725.2657 314.242116,2725 C314.483849,2725.53736 314.931355,2726.07273 314.934351,2726.61108 C314.980301,2734.29867 314.966316,2741.98626 314.966316,2749.67385 Z M243.408791,2728.53427 C243.402797,2727.75897 243.479712,2727.01638 244.448642,2726.98366 C245.357637,2726.95293 245.659304,2727.63206 245.715242,2728.4143 C245.993934,2732.24818 246.262637,2736.08405 246.530341,2739.91991 C246.645214,2741.58056 246.691164,2743.24816 246.869966,2744.90187 C247.090722,2746.93927 246.363526,2748.52061 244.619453,2749.53088 C242.88437,2750.5362 242.311004,2751.89248 242.436865,2753.87238 C242.867389,2760.63793 243.136092,2767.41241 243.507682,2774.18193 C243.586594,2775.61158 243.277935,2776.85186 241.948405,2777.51216 C240.605888,2778.17939 239.144503,2778.17245 237.809978,2777.42788 C236.589327,2776.74776 236.317627,2775.58481 236.38755,2774.25926 C236.75814,2767.25179 237.077787,2760.24235 237.469354,2753.23687 C237.551264,2751.76657 237.075789,2750.68392 235.823173,2749.93836 C233.597633,2748.61182 232.78553,2746.75387 233.047241,2744.13549 C233.546689,2739.12775 233.785425,2734.09523 234.133041,2729.07361 C234.150022,2728.83566 234.170999,2728.59871 234.193974,2728.36275 C234.273885,2727.56564 234.598527,2726.92715 235.506523,2726.98961 C236.38755,2727.05207 236.509415,2727.72922 236.489437,2728.47181 C236.37856,2732.63286 236.273675,2736.7959 236.181777,2740.95695 C236.154807,2742.19129 236.883002,2742.85852 237.833951,2742.35686 C238.256484,2742.13378 238.606098,2741.37534 238.620083,2740.85087 C238.723968,2736.88711 238.736953,2732.92137 238.777908,2728.95662 C238.780905,2728.68001 238.682014,2728.32805 238.814867,2728.13968 C239.123526,2727.70642 239.494117,2727.11255 239.932632,2727.01936 C240.662825,2726.86568 241.081363,2727.4308 241.096346,2728.18429 C241.131308,2729.84891 241.162273,2731.51452 241.182251,2733.17815 C241.213217,2735.75588 241.249177,2738.33262 241.248178,2740.91035 C241.248178,2741.83933 241.50889,2742.49764 242.568719,2742.47186 C243.604574,2742.44807 243.736429,2741.74217 243.72644,2740.89945 C243.703465,2738.83825 243.718449,2736.77706 243.718449,2734.71587 C243.61756,2734.71686 243.516672,2734.71686 243.414784,2734.71686 C243.414784,2732.65566 243.426771,2730.59447 243.408791,2728.53427 Z M275.45308,2774.18276 C262.488715,2774.18276 251.97902,2763.75157 251.97902,2750.88404 C251.97902,2738.01651 262.488715,2727.58531 275.45308,2727.58531 C288.417446,2727.58531 298.92714,2738.01651 298.92714,2750.88404 C298.92714,2763.75157 288.417446,2774.18276 275.45308,2774.18276 Z M275.443565,2767.66314 C285.097879,2767.66314 292.924248,2759.89523 292.924248,2750.31303 C292.924248,2740.73082 285.097879,2732.96291 275.443565,2732.96291 C265.78925,2732.96291 257.962882,2740.73082 257.962882,2750.31303 C257.962882,2759.89523 265.78925,2767.66314 275.443565,2767.66314 Z" id="serving"></path>
        </g>
    </g>
</svg>