<?xml version="1.0" encoding="UTF-8"?>
<svg width="103px" height="103px" viewBox="0 0 103 103" version="1.1" xmlns="http://www.w3.org/2000/svg" xmlns:xlink="http://www.w3.org/1999/xlink">
    <!-- Generator: Sketch 52.2 (67145) - http://www.bohemiancoding.com/sketch -->
    <title>Group 10</title>
    <desc>Created with Sketch.</desc>
    <g id="Page-1" stroke="none" stroke-width="1" fill="none" fill-rule="evenodd">
        <g id="Desktop" transform="translate(-73.000000, -3318.000000)">
            <g id="Group-10" transform="translate(73.000000, 3318.000000)">
                <rect id="Rectangle-6" fill-opacity="0.7" fill="#05BCB0" x="0" y="0" width="103" height="103"></rect>
                <g id="skin" transform="translate(7.000000, 17.000000)">
                    <path d="M82.8073813,45.2085029 C82.9021146,47.9169712 82.6400701,50.6243018 82.9830964,53.3395973 C83.1985383,55.0467554 81.3168596,57.1483691 79.4913333,57.7138818 C69.2635729,60.8831805 59.0396325,64.0649955 48.8160741,67.2479484 C44.6420783,68.5477553 40.4734304,69.8650093 36.2994346,71.1636784 C35.6951277,71.351424 35.0545319,71.4451072 34.6431295,72 L31.5872161,72 C31.2292922,71.6051652 31.0558691,71.1287842 31.0784065,70.6118199 C31.2487737,66.6657472 30.6058859,62.7007103 31.4351844,58.7641197 C31.6215951,57.8792497 31.0237821,56.9951383 31.027602,56.03517 C31.062745,47.4641059 31.0360057,38.8926626 31.0677108,30.3212192 C31.0707667,29.5042411 30.7571536,28.5010344 31.8358911,28 C32.8091995,28.818116 32.545627,29.95521 32.5490649,30.9838287 C32.5769501,38.7731881 32.5589966,46.5629267 32.5700743,54.3526653 C32.5716022,55.2219847 32.437142,56.1193711 32.9096626,56.9223157 C33.495634,57.6501621 34.1423417,57.3258741 34.7794997,57.0171367 C35.8020847,56.5214123 36.8185579,56.0135508 37.8331212,55.4988621 C37.9969945,55.4135232 38.1662158,55.3460106 38.3396388,55.283808 C40.027267,54.6189228 41.4730961,54.7402938 42.4043857,56.5202745 C42.7665115,57.1954003 43.2321563,57.7753258 43.9418922,58.1254051 C44.3066918,58.3529757 44.6424603,58.6287153 45.0580645,58.7728433 C44.8048057,58.5259292 44.4862267,58.3465278 44.2734588,58.051824 C44.0377714,57.7514309 43.8750441,57.4187987 43.7940624,57.0463416 C43.4651697,55.5910282 44.1531322,54.3462175 44.6241248,53.0558927 C45.6493838,50.9914489 46.4038124,48.8314254 46.9053642,46.5845459 C47.5360284,44.6031653 47.9352071,42.5671678 48.2113852,40.5141025 C48.3485194,39.4976209 48.6342473,38.4124888 46.7609723,38.4883456 C45.3865752,38.5441004 44.7005227,36.8983863 43.4518,36.3104958 C42.9487203,36.0738225 43.2913646,35.0395145 43.7635032,34.4603476 C44.335341,34.1531274 44.8407127,34.3670437 45.2429473,34.7516378 C45.6944585,35.1836425 45.8449623,34.6272326 46.1394759,34.5559272 C47.1013247,34.4485898 48.0574436,34.4580719 48.9551182,33.9175919 C49.4761514,33.6039239 50.195437,33.6099924 50.6041655,34.320771 C51.151174,36.7261913 50.4704692,39.0887525 50.268779,41.4528308 C49.8986314,45.7941176 49.3581168,50.1357837 46.7086398,53.8561823 C46.5275769,54.1103027 46.453853,54.4334529 46.3900608,54.743328 C46.3407842,54.9826564 46.2685883,55.2272947 46.4053404,55.4651059 C48.3580691,54.3412868 48.6755021,54.4395214 49.8585226,56.6181298 C50.9322942,54.8495276 51.2955659,52.9777602 51.2974758,51.0100338 C51.3012957,46.2788428 51.2944199,41.5480312 51.3028237,36.8168402 C51.3043516,36.0006206 51.2268078,35.1734018 51.5098618,34.3810772 C52.3009614,33.3179436 52.9171099,34.0674091 53.4931496,34.6158541 C53.8739928,34.9776912 54.0031052,35.6258879 54.7116951,35.5879595 C55.0524295,35.9251431 55.5375557,36.2001241 55.2373122,36.808496 C53.8262442,37.5128267 53.4148419,38.6260258 53.4713763,40.1841252 C53.5886469,43.4387628 53.4664104,46.7013654 53.5217988,49.9594166 C53.5554139,51.9248673 53.2395088,53.8212882 52.7322272,55.7006413 C52.316241,57.0527895 51.4628771,58.1007517 50.3925435,58.9928281 C50.197347,59.2211572 49.8390411,59.4730019 50.1797755,59.7684642 C50.6461843,60.1735398 51.0419251,59.8124612 51.2749385,59.435832 C52.2043181,57.9319702 53.6157682,56.7558099 54.2708796,55.0691332 C54.5279583,52.2552238 56.2075647,50.8613544 58.9032624,50.4816909 C59.4842679,49.82515 60.0939227,49.2080546 60.9965631,49.0009655 C62.6681478,48.6709882 64.3328566,48.3220468 65.9620405,47.808496 C67.9040735,47.1963313 68.4640696,47.550962 68.7028128,49.5960623 C68.8433849,50.8025653 69.0466031,51.9756913 69.8674978,52.9129026 C70.4649289,53.5952348 70.8014614,53.3524929 70.8125391,52.5066892 C71.0329468,51.9870699 71.3179108,51.5049997 71.6238841,51.0362044 C72.1063364,50.2973588 72.7541901,49.8281843 73.6702001,50.1073374 C74.6198252,50.3971105 74.7978322,51.1750224 74.7130306,52.0511689 C74.6775056,52.4198331 74.5376976,52.7782567 74.6098935,53.1560237 C74.6213532,53.4310048 74.5736045,53.6976415 74.4834551,53.9555548 C74.4357065,54.1178884 74.380318,54.2802221 74.3337153,54.4410385 C74.4750513,55.5686504 75.1523182,55.0968209 75.6672396,54.8400455 C76.9029746,54.2237087 77.5141573,52.7816702 77.2116218,51.3293911 C77.4904739,49.7360182 77.8029411,48.1487139 78.1837843,46.5750638 C78.4236735,46.4544514 78.6459912,46.5530653 78.8614331,46.6164058 C79.18154,44.1453693 80.2744111,43.2157437 82.4040008,43.5802358 C82.6954585,44.0850631 82.7867539,44.6232674 82.8073813,45.2085029 Z" id="Fill-4" fill="#F67102"></path>
                    <path d="M30.0409123,72 C27.0275849,71.6444338 24.6968159,69.7774315 22.1750797,68.3730756 C15.716884,64.7771186 9.30195423,61.1035564 2.86091568,57.476632 C0.870306921,56.3554605 -0.167703982,54.7847011 0.0221442213,52.4677378 C0.0232631694,49.5142625 0.0169224632,46.564145 0.0247551003,43.6147738 C1.39434764,42.2410123 2.56737829,43.5427651 3.7799451,43.9348953 C4.29093142,44.1005526 4.63631342,44.617672 4.9626733,45.0668868 C5.53520177,45.9634508 6.2058247,46.9413511 7.24719244,47.1111125 C9.95206311,47.551746 12.134012,49.2284663 14.6758892,50.0142191 C16.0536874,50.4403016 16.3725876,51.663703 16.903342,52.772189 C17.1883008,53.3665405 17.2453672,54.6100894 18.4825508,53.7206143 C20.2292289,51.853985 21.5678639,53.4986186 23.0135449,54.2410915 C24.0508098,55.0279636 25.4263701,55.1630266 26.4375262,56.0032522 C27.5781074,56.7233391 28.7474082,57.3919378 29.9312554,58.0471049 C30.1054383,58.1646321 30.2576152,58.3008143 30.3989757,58.4552785 C30.7137731,58.7828621 30.9345789,59.1940204 30.930849,59.6174912 C30.8916859,63.7451185 31.1885801,67.8768499 30.7868777,72 L30.0409123,72 Z" id="Fill-6" fill="#F67102"></path>
                    <path d="M0,12.9283948 L0,9.09308455 C1.01638357,8.76708318 1.8393325,9.3730622 2.667581,9.74585436 C11.7351609,13.8281586 20.8447588,17.813046 29.9342941,21.8443407 C30.5108126,22.0997724 31.0914951,22.3490675 31.5203824,22.8495755 C32.1124211,24.5359615 32.2309046,26.2150603 31.4484596,27.879585 C30.6361098,28.244323 30.0065955,27.6905042 29.3407413,27.4089924 C27.554026,26.6530527 25.8010009,25.9937629 23.774669,26.0037347 C21.6991267,26.0137065 19.706485,25.3544167 18.1120687,23.850208 C17.9519457,23.7573935 17.8005292,23.6484707 17.6574405,23.5311102 C16.8000443,22.7774717 16.1050424,21.8324512 15.0833593,21.2655924 C14.9266431,21.1712437 14.7809047,21.0634715 14.6374375,20.9507134 C13.2145005,19.6221619 11.3778178,19.4399847 9.60927257,19.227892 C7.77902506,19.0085123 6.10360098,18.455077 4.51486287,17.553012 C4.27486764,17.4103385 4.0749978,17.2239424 3.91676751,16.9930567 C3.14908562,15.5947026 2.26367737,14.3117913 0.71506464,13.6877863 C0.377405742,13.5305386 0.220689616,13.1987842 0,12.9283948" id="Fill-10" fill="#F67102"></path>
                    <path d="M0,6 C0.503490955,6.14100391 1.00698191,6.28200782 1.51047286,6.42301173 C1.59489278,6.41494339 1.67969125,6.40725925 1.76411116,6.39842249 C2.93387586,6.6573779 3.91360112,7.41196013 5.07314458,7.7024205 C6.13161127,8.21994712 7.1790996,8.75783669 8.25611596,9.23809524 C12.418434,11.7216082 17.2163621,12.495785 21.6069547,14.3653355 C24.4405109,15.571745 27.3119236,16.6882501 30.0989164,18.0053111 C32.1340799,18.967365 32.5682935,20.9341198 31.2414245,23 C22.8872603,19.4330237 14.6178945,15.6654914 6.31521512,11.975569 C4.19828172,11.0346464 2.02948497,10.2105227 0,9.07365471 L0,6 Z" id="Fill-12" fill="#F67102"></path>
                    <path d="M31,23 C20.6666667,18.4598497 10.3333333,13.9196993 0,9.3799289 L0,9 C4.95717402,11.1219029 9.92341535,13.2217699 14.8688774,15.3710277 C19.9941745,17.5985508 25.1005813,19.8712855 30.211144,22.134142 C30.4880748,22.2568591 30.7257139,22.4696193 30.9818654,22.6405873 C30.9897993,22.7602649 30.9954663,22.8799425 31,23 Z" id="Fill-16" fill="#ABE7F1"></path>
                    <path d="M0.388495575,53 C0.257079646,52.9931676 0.127876106,52.9760865 0,52.9479975 L0,43.0789165 C0.188495575,42.9570713 0.355309735,42.9764299 0.5,43.1362331 C0.462831858,46.4241554 0.425663717,49.7120777 0.388495575,53" id="Fill-20" fill="#F67102"></path>
                    <path d="M31.4952522,19.5480471 C31.5244654,18.1185389 32.8948291,18.4018927 33.6657536,18.2849224 C38.1960731,17.5977702 42.7191841,16.8843673 47.1918359,15.8683086 C47.671008,15.7590591 48.1315898,15.5641087 48.5713051,15.3019871 C46.7858865,15.0931392 45.0983511,15.6563724 43.4404082,16.0648033 C39.6495237,16.9990214 35.7615148,17.290482 31.9512813,18.0826372 C30.4750672,18.3899254 29.2124507,17.2568964 27.9099981,16.6677986 C22.5522248,14.2457802 17.0108257,12.3402841 11.4485601,10.4915359 C10.0838872,10.0379383 8.98782384,8.85588214 7.41865868,8.97362451 C6.34801455,8.72848876 5.43178295,8.15290231 4.51706893,7.57422754 C3.4464248,6.84847131 2.27372424,6.33658155 1.07750137,5.8733329 C1.03500947,5.55214717 0.786887126,5.15568353 1.44854671,5.08503811 C6.18146148,4.58048312 10.9109617,4.03964032 15.6450147,3.54666655 C21.8127898,2.90429508 27.9752535,2.16811576 34.1574456,1.72030873 C37.8675196,1.45123848 41.4933686,0.813113457 45.1184589,0.0715295727 C47.0503227,-0.323775944 48.5986213,1.0401053 50.4018714,1.21884207 C50.8905282,1.63653794 50.9375728,2.2217754 50.9349171,2.79890601 C50.9178444,6.38753891 51.1098168,9.97655784 50.9041863,13.5594001 C50.6112957,14.5048134 49.5455837,15.3907765 50.6803451,16.4604948 C50.7440829,16.7565879 50.738392,17.0519089 50.6864153,17.3495462 C50.6704809,19.1106631 49.8183665,19.8823582 48.0735429,20.0699739 C46.5434551,20.2348132 45.0152642,20.5857241 43.4980758,20.9057517 C42.2957826,21.1350597 41.0373395,21.0605539 39.8832291,21.5809366 C39.6567321,21.9121594 39.3281787,21.9692934 38.9688945,21.9519215 C37.1155647,21.6257173 35.376432,22.5977674 33.5378985,22.4487557 C33.2882586,22.4286816 33.1566096,22.5016433 33.4092846,22.48929 C33.4126992,22.48929 33.4218046,22.6093486 33.4282542,22.6776778 C33.185064,23.0440302 32.9119018,23.1258708 32.5909362,22.7780483 C30.890122,22.1800715 31.4717299,20.7104152 31.4952522,19.5480471 Z" id="Fill-24" fill="#F67102"></path>
                    <path d="M51.0091604,1 C52.7843274,2.4989878 55.0730033,2.40431873 57.1645218,2.689788 C60.2695646,3.11342293 63.2273015,3.91609965 66.1445575,4.97500422 C69.1682635,6.07228814 72.1934688,7.18638587 75.4401951,7.51827588 C76.2291998,8.51833211 76.0676507,9.58271945 75.6665889,10.6639206 C75.5368997,10.8558174 75.3524863,10.9654726 75.1193457,10.9947141 C71.1173488,10.9004105 67.2173041,11.7831356 63.2681574,12.2020188 C59.7421871,12.5759433 56.2926809,13.3895856 52.8053175,14 C51.7910435,13.7953101 51.3243875,13.1041163 51.3341329,12.1786257 C51.3734895,8.44742169 50.9315719,4.73120396 51.0091604,1" id="Fill-26" fill="#F67102"></path>
                    <path d="M51.0914583,1 C51.5789217,4.87024275 51.9848404,8.74875525 51.8765954,12.659595 C51.8520599,13.5256633 52.2821534,13.8744963 52.9276545,14.1391283 C53.2105348,15.1987839 52.5776623,16.1155984 52.5036949,17.1218766 C52.058447,20.0625243 52.9907974,22.9434043 52.8161621,25.8874351 C52.6794126,28.1868014 52.7992037,30.5034589 52.3940066,32.7877893 C52.410965,33.2561578 52.2597828,33.6790427 52.0728797,34.0921543 C51.9971082,39.9020292 51.9408208,45.71228 51.8358231,51.5214031 C51.7932468,53.8711396 51.2040331,56.0457078 49.5197407,58 C48.9608357,56.8929813 49.9206081,55.1837744 48.4495584,54.8638855 C47.2292763,54.5985017 47.2022151,56.284027 46.2842974,57.0613834 C45.8996668,55.6525188 45.8275034,54.3857436 46.5632087,53.3723234 C49.4547937,49.3889354 49.5229881,44.628191 50.031018,40.00916 C50.247508,38.036073 50.6187884,36.0505813 50.4261123,34.0387768 C50.2413741,33.7854218 50.0858621,33.5177826 50.0479764,33.1926311 C50.0010702,32.76298 50.0479764,32.3415987 50.1399846,31.9228486 C50.4701319,30.4196337 50.2438999,28.8957444 50.2965791,27.3808767 C50.3041562,23.8354096 50.1637986,20.2846799 50.7407445,16.7670292 L50.7208995,16.0295179 C50.4805956,15.3660584 50.2677138,14.7029749 50.7310024,14.0432744 C50.7490432,9.79788574 50.7674449,5.55212118 50.7854857,1.30673253 C50.8875969,1.20448835 50.989708,1.10224418 51.0914583,1" id="Fill-28" fill="#50D0C7"></path>
                    <path d="M75.0608866,8.24052494 C75.1829088,5.49355724 75.304931,2.7469677 75.4266016,0 C76.2083174,2.84302081 76.0156137,5.78171657 76.429153,8.64856158 C77.0631762,9.42492787 76.9791321,10.3695762 76.9692859,11.2975854 C76.9626045,12.4547606 76.9650661,13.6115577 76.9728024,14.768733 C76.8792637,17.9377293 77.1373741,21.1101291 76.8873517,24.2764783 C76.4207134,25.6960979 76.7153953,27.1709292 76.6257248,28.6181546 C76.6222083,29.18691 76.6440105,29.7560436 76.6281863,30.3251772 C76.6360547,35.1733738 76.6611068,40.0221763 76.5956832,44.8688732 C76.5880103,45.4372911 76.579093,46.0056801 76.5687576,46.5740357 C76.5374609,48.3109331 76.3939881,50.1128743 75.7124923,51.7393484 C75.3010629,52.7210566 74.9870403,53.9247458 73.6627301,54 C73.2217622,53.5779714 73.5006199,53.0848483 73.5354331,52.6102552 C73.5860706,51.9216225 73.6658949,51.1649206 72.8289702,50.9550408 C72.1457162,50.7837334 71.7979353,51.2965209 71.4958688,51.8766212 C71.2567474,52.3353315 71.2388133,53.0111068 70.5717351,53.1041346 C70.3948557,52.9899297 70.2675587,52.8299672 70.1877344,52.6257598 C69.8948108,51.3608084 69.8803931,50.0599317 70.6153396,49.0112888 C72.7174975,46.0101964 73.0568388,42.4573658 73.5498507,38.9336536 C73.9468625,36.0906328 74.2450609,33.2389143 74.3575886,30.3652623 C74.4458525,29.8464243 74.5910835,29.3370403 74.574556,28.8000504 C74.5291933,27.9079666 74.5928418,27.0173954 74.5706879,26.1249335 C74.5822923,22.0952408 74.5611933,18.0674389 74.5819406,14.039637 C74.5861604,13.2364212 74.4440942,12.3893386 74.9645348,11.6757472 C75.1132823,10.5344547 75.1917,9.3908933 75.0608866,8.24052494 Z" id="Fill-30" fill="#50D0C7"></path>
                    <path d="M76.8619988,46.2176875 C77.0010037,40.59146 77.0066391,34.9612946 77.0675007,29.3327043 C77.2801406,28.4387772 77.9413533,29.5784358 78.514279,28.9046432 C79.355071,27.9158102 78.7224107,27.2802162 78.5871627,26.4906462 C78.2126007,26.272087 77.8316521,26.0570719 77.9150551,25.4978752 C78.0766013,24.9024489 78.4011966,24.4283131 78.8696808,24.0569593 C80.6046126,23.8131968 80.9897823,24.3293704 81.7065969,26.041221 C81.7065969,25.4978752 82.291169,29.6409991 81.7065969,30.053702 C81.1182679,29.3405293 81.5941774,31.8955578 81.182798,32.1121481 C81.0032186,32.2074478 80.8146227,32.2393456 80.6158833,32.2145362 C79.2299665,31.7337058 78.5559805,32.2531287 78.3872961,33.7802869 C78.0581926,36.7582061 78.3102799,39.7404572 78.2246228,42.7183764 C78.2024571,43.4965262 78.2291311,44.2754635 78.2283797,45.0555823 C78.0397838,47.5243175 77.8158732,49.9989597 76.9401421,52.3164755 C76.4254482,53.6790252 75.8728097,55.181374 74,54.982111 C74.1108283,54.6993622 74.2216565,54.4166135 74.3328605,54.1334709 C76.6523643,52.0156119 76.7913693,49.0896744 76.8619988,46.2176875 Z" id="Fill-32" fill="#F67102"></path>
                    <path d="M81.8646407,13.319452 C81.8534543,14.4047788 82.3463776,15.5450954 81.5175014,16.5425107 C80.7229061,16.7845386 80.0730123,17.4075161 79.2257327,17.480233 C78.512329,17.5417349 78.2286996,17.928473 78.0121886,18.5626656 C77.8563007,19.0188646 77.8902208,19.6411186 77.0191249,20 C77.0205683,17.9447529 76.945872,16.0168508 77.082274,14.0806278 C77.3377569,13.7286202 77.7231465,13.6247906 78.1146705,13.5314525 C79.3585261,13.3520118 80.5688225,12.5691294 81.8646407,13.319452" id="Fill-38" fill="#F67102"></path>
                    <path d="M81.9671923,13.3898997 C80.7394908,13.5932665 79.5117893,13.7966332 78.2840879,14 C76.1590376,13.8517259 77.3925731,12.3152525 77.0611265,11.4273083 C77.0589388,11.2589696 77.1001417,11.0991328 77.1891109,10.9515389 C78.2607517,10.412855 79.470951,10.3036898 80.6191637,10 C80.7044866,10.0037409 80.7898094,10.0091821 80.875497,10.0146234 C81.5606324,9.97483421 82.0295436,10.1462336 81.9985503,10.9120898 C81.9650045,11.7371195 81.9755787,12.5638497 81.9671923,13.3898997" id="Fill-40" fill="#F67102"></path>
                    <path d="M77.1981964,10 C76.9613651,9.3428246 76.974561,8.67283599 77.0447075,8 C78.1621899,8.18251708 79.2734217,8.40774487 80.4009747,8.52932802 C80.9565906,8.58912301 81.1291788,8.70102506 80.9041544,9.12556948 L80.9215174,9.11588838 C79.8332047,9.5464123 78.6202258,9.63069476 77.4909365,9.94789294 L77.4249571,9.98775626 C77.3496017,9.9917426 77.273899,9.99572893 77.1981964,10" id="Fill-44" fill="#F67102"></path>
                    <path d="M43.1105127,32.594633 C43.5101817,31.3418276 45.0398109,31.2781256 45.5209481,29.9415217 C46.0152372,28.5677583 47.1802688,28.7046417 48.4231154,29.2453501 C49.6601166,29.7834043 49.0785142,28.5207402 49.2805406,28.0376669 C49.5943576,27.9136756 49.7448728,28.1153985 49.8760256,28.3573143 C49.9377661,28.5211194 49.9732029,28.6917497 49.9903733,28.8669301 C50.0926652,29.9301463 49.3623742,30.3495177 48.6258725,30.7662347 C48.4136168,30.8974305 48.1838254,30.947482 47.9383248,30.9323149 C47.7797724,30.9129768 47.6237773,30.8807466 47.4696088,30.8439663 C46.120817,31.2102527 45.6447944,32.4983217 44.8823544,33.4728102 C44.917426,33.7029715 44.9773398,33.9278243 45.0124113,34.158744 C44.9839157,34.5045547 44.8414377,34.7586042 44.4929146,34.8427818 C44.29856,35.693279 42.5570405,34.3301326 43.1105127,32.594633 Z" id="Fill-50" fill="#F67102"></path>
                    <path d="M56.9856261,35.8543577 C56.9791493,35.9608162 56.9600999,36.0649686 56.9277158,36.1664308 C56.7334112,36.3316912 56.8858069,36.0326852 56.7684622,36.2471394 C56.0198182,37.614573 55.0909663,38.7744702 53.5510075,39.2863931 C53.4637609,43.0647066 53.5064317,46.8372552 53.6710191,50.6086508 C53.6691142,51.1674615 53.6660663,51.7266565 53.6637803,52.2854672 C53.70988,53.4130811 53.5616752,54.5164824 53.2252616,55.5895219 C53.0244803,56.2309627 52.8827522,56.9504219 52,57 C53.2698374,51.7220446 52.6934005,46.3510822 52.6926386,41.0208584 C52.6926386,39.02851 52.9799045,37.5676851 55.0364848,36.9516098 C54.3625147,35.2390511 54.3754684,35.2171445 56.208408,35 C56.6267342,35.1364359 57.0877313,35.2363608 56.9856261,35.8543577" id="Fill-54" fill="#F67102"></path>
                    <path d="M54.8349531,35.402113 C54.5569575,34.8395039 54.2789619,34.2765273 54,33.7120808 C54.1552652,33.3526872 54.4696611,33.3839228 54.6635815,33.4904915 C55.4321765,33.9127239 56.1192733,34.3452458 55.5974276,32.7173174 C55.5468537,32.5589343 55.8741346,32.2429031 56.0258564,32 C57.1977543,32.6471291 57.2950367,33.2839688 56.4107982,34.5234727 C55.1390409,34.2089113 55.3584094,35.1599449 55.4473164,36 C55.1045733,35.9853009 54.8455833,35.8592559 54.8349531,35.402113" id="Fill-68" fill="#F67102"></path>
                    <path d="M46.9541565,47 C46.9694377,47.1660094 46.9850244,47.3320188 47,47.4980283 C46.7368582,49.8229269 46.2814792,52.0623288 45.1522005,54 C45.1017726,53.9225545 45.0510391,53.845109 45,53.7676635 C45.2796455,51.3434659 45.780868,49.019334 46.9541565,47" id="Fill-76" fill="#F67102"></path>
                    <path d="M33.1973589,23.1802475 C33.509435,23.2422281 33.7813543,23.1813812 33.9874928,22.9240105 C35.8614792,22.486367 37.7171082,21.9326987 39.6786748,22.0596834 C39.9938104,22.1061688 40.2794978,22.0608172 40.4940501,21.7992892 C41.6444483,21.4512152 42.7982885,21.1216597 44.0205866,21.1575631 C45.8230555,20.5986039 47.7211361,20.5188605 49.548464,20.0676114 C50.5324981,19.82498 51.0365622,20.2304995 50.9979351,21.3631574 C50.9195337,23.677982 50.9780479,25.9969638 50.9726937,28.3136781 C50.9684868,28.6628859 50.8981167,28.9656083 50.4617456,29 C49.9010794,28.1262246 50.2318954,27.1609899 50.2525475,26.2547125 C50.2842905,24.864306 49.641016,24.5748112 48.482204,24.9576548 C43.2545468,26.6829078 37.6746566,26.8276552 32.4309367,28.4727869 C31.6484518,27.002637 32.1907605,25.4315797 32.0917069,23.9100313 C32.0435187,23.171555 32.7437777,23.3042087 33.1973589,23.1802475" id="Fill-106" fill="#F67102"></path>
                    <path d="M52.2440955,17 C52.5216362,17.7496296 51.9889604,18.6640741 52.6943764,19.327037 C53.4424355,20.4496296 53.1576671,21.6566667 53.0254016,22.6803704 C55.6161432,22.1581481 58.1262969,20.7544444 61,21.1974074 C60.9906041,21.3225926 60.9812082,21.4481481 60.9718123,21.5737037 C58.8667669,22.4774074 56.6117484,22.8077778 54.4149122,23.3533333 C53.8229698,23.5007407 53.3849759,23.6037037 53.3947332,24.3418519 C53.4117181,25.6977778 53.3997925,27.0540741 53.4077429,28.4103704 C53.4099112,28.7966667 53.4973654,29.2637037 53.9288545,29.2403704 C55.5492877,29.1522222 56.0161922,30.6755556 57.0096291,31.457037 C57.2109184,31.85 57.3580005,32.3007407 56.9500012,32.5892593 C56.6045208,32.8337037 56.510923,32.3422222 56.308911,32.172963 C55.4911054,31.9781481 55.0216712,31.2596296 54.3672099,30.8259259 C54.1352032,30.9033333 53.9292159,31.0151852 53.7506936,31.1788889 C53.529167,32.1074074 52.9542095,32.6955556 52.0840036,33 C52.2480707,28.0792593 52.303362,23.1588889 52.0023315,18.2396296 C51.9773962,17.8333333 52.1588095,17.4137037 52.2440955,17" id="Fill-122" fill="#F67102"></path>
                    <path d="M50.7954781,33 C48.3822943,32.9732158 48.3822943,32.9732158 48,30.3774396 C48.3184472,30.3611078 48.6365004,30.3451027 48.9549476,30.3287709 C49.6111539,30.174272 50.1254777,29.9283151 50.2559307,29.2887619 C50.3394837,28.8804669 50.6496545,28.9555931 50.9298723,29.2031832 C50.9684958,30.1579402 51.1048606,31.1130239 50.8439546,32.059615 C50.8277957,32.3728589 50.8116369,32.6864294 50.7954781,33" id="Fill-124" fill="#F67102"></path>
                    <path d="M70.7950523,52.9806787 C70.670647,52.9871191 70.5458943,52.9935596 70.4218365,53 C70.3592864,52.9211993 70.2970838,52.8423987 70.2334911,52.7643557 C69.8227453,51.762299 70.0680808,50.731071 70.1202059,49.7085565 C70.2637237,48.7110461 70.5639643,47.7836228 71.146028,46.9823563 C72.8140314,43.6011255 73.2883698,39.8899169 73.6577631,36.1525677 C73.6226655,35.9710988 73.604248,35.7873569 73.5969505,35.6024784 C73.604943,35.3334953 73.6184955,35.0641334 73.6866056,34.8038638 C74.6728126,33.2949067 73.8297759,32.4777286 72.7139512,31.7594301 C73.2146997,29.8985219 73.4774102,29.7276609 74.9998108,30.2690367 C75.0137108,35.1247493 74.2596343,39.8823399 73.4204201,44.6247766 C73.1907221,45.9223357 72.7407087,47.1755695 71.9789872,48.2219515 C70.9469101,49.6399848 70.5851618,51.2156194 70.7950523,52.9806787" id="Fill-128" fill="#F67102"></path>
                    <path d="M70.6883898,25.01422 C71.3673551,24.9438824 72.0310808,25.1327764 72.4994987,25.6189463 C73.4335272,26.5881894 74.2123521,26.3484223 75,25.45571 C74.9847604,26.499272 74.9699218,27.5423917 74.9546822,28.5859538 C73.3769801,29.6321701 72.6735512,28.5284451 72.04231,27.1345222 C72.4072589,28.1139399 72.6887909,29.1309595 71.1985161,28.6324031 C70.4561861,28.3842309 69.6532986,28.1891436 69,27.6490041 C69.0713856,26.388236 70.34229,26.0617634 70.6883898,25.01422" id="Fill-130" fill="#F67102"></path>
                    <path d="M78.1243919,26.5382167 C77.7332058,27.349757 78.6124623,28.1182642 77.0736621,27.9900137 C77.1048759,26.6583467 76.7704423,25.308867 77.3128329,24 C77.393097,24.7342338 77.3026985,25.521549 78.1243919,26.024932 C78.3165392,26.5258212 77.6947533,26.5489042 78,26.5382167 L78.1243919,26.5382167 Z" id="Fill-136" fill="#F67102"></path>
                    <path d="M70.5735178,28.2959716 C70.2032234,28.8793031 70.9664204,28.9049606 70.9801224,29.2992565 C71.1558495,30.8168239 72.0488722,31.588059 73.291294,31.9963156 C73.291294,31.9963156 73.2782772,32.0136722 73.2782772,32.0132949 C73.7759995,31.8951948 74.3004405,31.334125 74.7272554,32.1759183 C75.2075077,33.1233603 75.0290402,33.9372323 74.3840222,34.6854511 C73.9890643,34.3251137 74.2490583,33.852336 74.1760956,33.4282322 C74.1267687,34.1960715 74.2062398,34.966552 74.1367025,35.7343913 C74.0548336,37.7552991 73.6650139,39.7162135 73.1857892,41.6537343 C73.0511678,42.1963156 73.1172796,42.992831 72.2804347,43 C72.3965585,40.3802908 73.2169611,37.8986794 73.5245692,35.3144379 C73.6266485,34.4594385 73.7773697,33.7463101 72.5918109,34.1138164 C71.8351223,34.3488847 71.2301824,33.942892 70.962995,33.1742981 C70.7783616,32.6430363 70.4330731,32.4143824 70.0634638,32.1272445 C68.5675565,30.9658639 68.6703209,28.2525802 70.2422739,27.0617689 C71.0633615,27.2070358 71.2366908,26.106026 71.9265826,26 C71.9265826,26 71.9464504,26.0169792 71.9464504,26.0173566 C72.3917628,27.4368217 70.8592029,27.4104095 70.5735178,28.2959716" id="Fill-144" fill="#F67102"></path>
                    <path d="M47,30.5122059 C45.8754205,31.091804 46.3797024,31.9907916 46.7438372,32.9107588 C45.8005516,32.9455159 45.0156663,32.6781054 44.2744029,33 C43.7951804,32.6796711 44.0290682,32.3493221 44.3294717,32.1313857 C44.9633818,31.6720284 45.4951981,31.1788533 45.8407704,30.4270354 C46.1844865,29.6792881 46.6401964,30.0481517 47,30.5122059" id="Fill-162" fill="#F67102"></path>
                    <path d="M54.0538137,30.9831007 C54.0510777,30.644524 54.0950811,30.3451967 54.2822664,30.1671862 C54.5715942,29.8397103 54.7870511,30.0062235 54.8267225,30.5537347 C54.8673059,31.1155183 54.9744644,31.6507392 55,32.2129194 C54.7640234,32.9206003 54.4233963,33.1223984 54.0389939,32.9324941 C53.7720097,32.2002327 54.99772,31.7137764 54.0538137,30.9831007" id="Fill-172" fill="#F67102"></path>
                    <path d="M55.0430749,32 C54.3296885,31.6562276 55.1169649,30.4040546 54,30.3044723 C54.3757455,29.894969 54.8717694,29.8634182 54.9161696,30.4267317 C54.9768058,31.1997267 55.628562,31.2388366 56,31.6158031 C55.7816435,31.7094696 55.5626243,31.8028074 55.3442677,31.8964739 C55.2481776,31.9428141 55.1474486,31.9773229 55.0430749,32" id="Fill-174" fill="#F67102"></path>
                    <path d="M64.6814836,16.0958018 C61.3223755,16.6118875 57.9640319,17.1308808 54.6041594,17.6422419 C53.6994019,17.7803493 52.5649193,18.6169898 52.1066159,17.1221583 C51.6769803,15.7210944 52.5897648,14.1960973 54.0552655,13.9242437 C57.5806471,13.2704139 61.1132913,12.6325755 64.6661941,12.1382962 C68.0960162,11.6610986 71.5541239,11.3717998 75,11 C74.9980888,14.0816135 74.9850927,14.0289146 71.8832309,14.7267207 C69.4969187,15.2631592 67.0062555,15.2853291 64.6814836,16.0958018" id="Fill-176" fill="#F67102"></path>
                    <path d="M60.8128992,20.962167 C57.885492,21.6390214 54.9584683,22.3158758 52,23 L52,19.0295544 C56.2078123,18.2382967 60.4160081,17.4466563 64.6238205,16.6553986 C67.6693363,16.1396271 70.7305744,15.7003796 73.7515482,15.0698222 C74.9234314,14.8249455 75.0292691,15.2328182 74.9947568,16.1576103 C74.9456727,17.4833878 74.9629288,18.8110785 74.9518082,20.138004 C74.8455871,20.3239572 74.7455015,20.3296965 74.6527019,20.1276732 C74.5924971,18.5248789 73.3815,18.4384068 72.2368432,18.3901968 C71.7578896,18.3703005 71.1888206,18.5241137 70.7938469,18.793478 C67.7525492,20.8688078 64.3093754,21.0214731 60.8128992,20.962167" id="Fill-178" fill="#F67102"></path>
                    <path d="M71,47 C72.2219817,43.4010961 73.0743399,39.7165391 73.7913483,36 C74.3488511,37.5208034 73.6490969,38.9603649 73.3193497,40.3661063 C72.7860028,42.6357317 72.6253469,45.0674732 71,47" id="Fill-182" fill="#F67102"></path>
                    <path d="M70.5,52 C69.7870848,51.0010628 69.8822592,50.0014879 70.4967284,49 C70.4979181,49.999256 70.4988103,50.9994686 70.5,52" id="Fill-184" fill="#F67102"></path>
                    <path d="M72.7592143,31.95953 C72.6055144,32.6199035 72.1684608,32.8089732 71.5721832,33 C71.536764,32.1881359 71.9601698,31.2639261 70.7513673,31.0787709 C69.3657935,30.8662144 70.2626471,29.8699781 70.5671223,29.1618478 C71.4987452,28.6357411 72.1294672,29.5419443 73,29.7591982 C72.3475066,30.5229141 71.5175921,31.1531462 72.7592143,31.95953" id="Fill-188" fill="#F67102"></path>
                </g>
            </g>
        </g>
    </g>
</svg>