<?xml version="1.0" encoding="UTF-8"?>
<svg width="35px" height="35px" viewBox="0 0 35 35" version="1.1" xmlns="http://www.w3.org/2000/svg" xmlns:xlink="http://www.w3.org/1999/xlink">
    <!-- Generator: Sketch 52.2 (67145) - http://www.bohemiancoding.com/sketch -->
    <title>Combined Shape</title>
    <desc>Created with Sketch.</desc>
    <g id="Page-1" stroke="none" stroke-width="1" fill="none" fill-rule="evenodd">
        <g id="Lesson-15" transform="translate(-142.000000, -754.000000)" fill="#32C5DD" stroke="#32C5DD">
            <path d="M159.362192,770.932805 C159.920235,770.466583 160.390692,770.118539 160.807765,769.717994 C163.413423,767.21479 166.605068,766.116534 170.202942,765.954776 C171.208503,765.909775 172.21031,765.782476 173.21608,765.749841 C174.307141,765.71457 174.959442,766.26309 174.99823,767.163911 C175.037226,768.062907 174.430177,768.654198 173.357259,768.75251 C171.802622,768.894809 170.250071,769.081297 168.691681,769.16096 C166.107918,769.292719 164.269255,770.719559 162.306096,772.498701 C164.674858,772.400186 165.774886,773.875879 166.809434,775.363531 C168.208085,777.37477 169.541882,779.429793 170.865044,781.489073 C171.476055,782.440165 171.286287,783.301458 170.466114,783.776193 C169.648027,784.250118 168.851628,783.961466 168.211213,783.004293 C166.717261,780.771295 165.198701,778.553702 163.708293,776.318271 C163.251182,775.633128 162.685841,775.34103 161.861289,775.628466 C161.73429,775.672858 161.586647,775.66171 161.448805,775.677521 C157.386938,776.147391 156.012477,775.488802 154.102495,771.920789 C153.277526,770.37942 152.657548,768.734064 151.908695,767.056274 C149.660884,768.569873 148.474105,770.606247 148.468892,773.267358 C148.466181,774.737578 148.13002,775.305962 147.232272,775.268867 C146.355795,775.232381 145.939349,774.573589 146.007123,773.167019 C146.211697,768.920552 148.355448,765.926802 152.286562,764.121106 C153.289412,763.66056 154.345022,763.300962 155.319303,762.791564 C158.102009,761.336953 160.057452,759.189496 160.889302,756.176286 C161.108057,755.383913 161.522835,754.883231 162.420374,755.023503 C163.194252,755.144518 163.521236,755.803309 163.259524,756.794739 C162.397644,760.060722 160.44512,762.560075 157.468684,764.267459 C156.833066,764.632125 156.692304,764.917939 156.926282,765.604704 C157.545843,767.423576 158.082823,769.26657 159.362192,770.932805 Z M143,788 L143,787 L175.926979,787 C175.954181,787.171188 175.996518,787.329493 175.99979,787.488047 C176.003063,787.647343 175.967271,787.807011 175.944773,788 L143,788 Z M150.511423,763.999886 C149.150685,764.012867 148.024707,762.914626 148.000386,761.551201 C147.975652,760.158722 149.143884,758.977856 150.523584,759.000315 C151.860413,759.022156 153.002675,760.180769 152.999995,761.511845 C152.997522,762.85446 151.864535,763.987111 150.511423,763.999886 Z" id="Combined-Shape"></path>
        </g>
    </g>
</svg>