<?xml version="1.0" encoding="UTF-8"?>
<svg width="43px" height="51px" viewBox="0 0 43 51" version="1.1" xmlns="http://www.w3.org/2000/svg" xmlns:xlink="http://www.w3.org/1999/xlink">
    <!-- Generator: Sketch 52.2 (67145) - http://www.bohemiancoding.com/sketch -->
    <title>Combined Shape</title>
    <desc>Created with Sketch.</desc>
    <g id="Page-1" stroke="none" stroke-width="1" fill="none" fill-rule="evenodd">
        <g id="Lesson-12" transform="translate(-369.000000, -1442.000000)" fill="#32C5DD">
            <path d="M383.312394,1462.80432 C387.854355,1464.89504 400.92422,1464.52175 404.245221,1462.20649 C401.525861,1458.79248 387.306605,1459.19846 383.312394,1462.80432 Z M378.033066,1460.9835 C385.708122,1454.40172 394.378595,1454.4868 403.333635,1456.52343 C404.746778,1456.8446 406.171612,1457.68359 407.278803,1458.63725 C409.897509,1460.89278 409.398232,1464.63641 406.362369,1466.30961 C403.514983,1467.87913 400.326,1468.19804 397.163821,1468.53668 C389.344485,1469.37399 381.945443,1468.02196 375.019444,1464.2896 C374.561797,1464.04281 374.093031,1463.80953 373.660762,1463.52358 C367.743865,1459.61006 367.411395,1453.31368 372.945351,1448.87304 C377.345598,1445.3424 382.576738,1443.66977 388.056518,1442.75584 C395.404236,1441.53059 402.718878,1441.72442 409.902926,1443.85797 C410.625751,1444.07236 411.553019,1444.5189 411.814776,1445.10603 C412.118448,1445.78641 412.031196,1446.86093 411.680761,1447.54863 C411.184621,1448.52201 410.108226,1448.64034 409.049224,1448.31973 C404.977455,1447.088 400.809879,1446.54004 396.554767,1446.58117 C390.259208,1446.6423 384.155831,1447.59371 378.562567,1450.62062 C377.170524,1451.37396 375.854042,1452.38228 374.750844,1453.51032 C373.096474,1455.20183 373.180875,1456.95476 374.881722,1458.58485 C375.85062,1459.51371 377.027955,1460.23015 378.033066,1460.9835 Z M386.264205,1477.17462 C390.429505,1479.20628 398.036641,1478.86679 399.24471,1476.25074 C396.395296,1473.92148 389.503309,1474.37052 386.264205,1477.17462 Z M375.457249,1466.95561 C376.06372,1467.2191 376.523377,1467.47011 377.015437,1467.62349 C378.646746,1468.13161 379.827287,1468.73015 379.878041,1470.82976 C379.908437,1472.09396 381.104462,1473.33209 381.867785,1474.75134 C382.388233,1474.31699 382.652901,1474.08762 382.926746,1473.86934 C384.689959,1472.46313 386.49303,1471.59527 389.006089,1471.75891 C392.365054,1471.97775 395.774487,1471.65296 399.150084,1471.40583 C401.979712,1471.19837 404.850346,1474.89057 403.837839,1477.62505 C403.131292,1479.53356 401.606653,1480.6993 399.814479,1481.56632 C397.265863,1482.79974 394.519678,1483.13201 391.723885,1482.92621 C386.085561,1482.51212 381.102742,1480.68377 377.493159,1476.24159 C375.661413,1473.98749 374.6988,1471.41665 375.096806,1468.49107 C375.162472,1468.0068 375.318749,1467.5339 375.457249,1466.95561 Z M380.014377,1480.97951 C381.651342,1481.73481 383.146917,1482.38558 384.59771,1483.12549 C384.915977,1483.28754 385.132004,1483.74152 385.298743,1484.10635 C386.561391,1486.87291 388.688995,1488.29322 391.695918,1488.37809 C392.116707,1488.38977 392.542848,1488.36128 392.95744,1488.41881 C394.179249,1488.5877 395.042514,1489.56229 395.033783,1490.71716 C395.024207,1491.95377 394.110244,1492.86799 392.785632,1492.9651 C386.423945,1493.43275 381.170561,1489.15731 380.218293,1482.73133 C380.138022,1482.1902 380.090705,1481.64395 380.014377,1480.97951 Z" id="Combined-Shape"></path>
        </g>
    </g>
</svg>