<?xml version="1.0" encoding="UTF-8"?>
<svg width="64px" height="54px" viewBox="0 0 64 54" version="1.1" xmlns="http://www.w3.org/2000/svg" xmlns:xlink="http://www.w3.org/1999/xlink">
    <!-- Generator: Sketch 52.2 (67145) - http://www.bohemiancoding.com/sketch -->
    <title>stages</title>
    <desc>Created with Sketch.</desc>
    <g id="Page-1" stroke="none" stroke-width="1" fill="none" fill-rule="evenodd">
        <g id="Lesson-1" transform="translate(-235.000000, -3298.000000)" fill="#F67102">
            <path d="M298.962497,3313.89779 C298.095279,3314.33437 297.356284,3314.70872 296.615099,3315.07915 C286.934975,3319.91828 277.253288,3324.75443 267.578637,3329.6045 C267.173331,3329.80762 266.860282,3329.8611 266.43027,3329.64531 C256.129208,3324.47844 245.820016,3319.32721 235.512856,3314.17191 C235.376659,3314.10389 235.248438,3314.01976 235.026395,3313.89076 C235.321305,3313.72532 235.547726,3313.58584 235.784624,3313.46747 C245.952147,3308.38206 256.12139,3303.3001 266.286567,3298.20985 C266.701881,3298.00188 267.04464,3297.89946 267.517184,3298.13651 C277.817464,3303.30511 288.127438,3308.45446 298.435067,3313.60851 C298.573922,3313.67794 298.70746,3313.75753 298.962497,3313.89779 Z M298.99105,3324.56571 C296.44569,3325.83745 294.073898,3327.02147 291.702732,3328.20705 C283.674481,3332.22118 275.648576,3336.24031 267.609848,3340.23348 C267.291952,3340.39141 266.776719,3340.45552 266.480245,3340.30822 C256.112571,3335.1548 245.759908,3329.97073 235.405681,3324.7901 C235.313737,3324.74413 235.227891,3324.68627 235.043533,3324.57759 C235.283089,3324.43467 235.460879,3324.31286 235.651961,3324.21701 C237.860973,3323.10805 240.079993,3322.01847 242.276183,3320.8848 C242.773434,3320.6282 243.156379,3320.64853 243.647062,3320.89512 C251.155233,3324.66907 258.676226,3328.41752 266.182364,3332.19553 C266.752013,3332.48216 267.187498,3332.4845 267.760587,3332.19569 C275.288616,3328.40314 282.831814,3324.64124 290.36344,3320.85619 C290.80299,3320.6354 291.149658,3320.61741 291.592806,3320.84431 C293.995401,3322.07383 296.413321,3323.27317 298.99105,3324.56571 Z M298.9999,3335.24119 C294.728862,3337.3739 290.609813,3339.42858 286.492485,3341.48669 C280.210553,3344.62703 273.927839,3347.76612 267.652318,3350.91929 C267.199007,3351.14711 266.834513,3351.20341 266.348677,3350.95947 C256.119545,3345.82544 245.881031,3340.71048 235.644706,3335.59052 C235.459566,3335.49811 235.280368,3335.39381 235,3335.24166 C235.288812,3335.08733 235.506945,3334.96427 235.730552,3334.85215 C237.939408,3333.74397 240.156082,3332.65143 242.352428,3331.51932 C242.801674,3331.28805 243.13724,3331.31573 243.57679,3331.53636 C251.133279,3335.32986 258.701964,3339.09958 266.255794,3342.8987 C266.782911,3343.16374 267.171642,3343.15623 267.694381,3342.89354 C275.225381,3339.10786 282.771393,3335.35159 290.303175,3331.56733 C290.798393,3331.31839 291.171331,3331.30744 291.666862,3331.56248 C294.04522,3332.78543 296.445783,3333.96539 298.9999,3335.24119 Z" id="stages"></path>
        </g>
    </g>
</svg>