<?xml version="1.0" encoding="UTF-8"?>
<svg width="61px" height="62px" viewBox="0 0 61 62" version="1.1" xmlns="http://www.w3.org/2000/svg" xmlns:xlink="http://www.w3.org/1999/xlink">
    <!-- Generator: Sketch 52.2 (67145) - http://www.bohemiancoding.com/sketch -->
    <title>start</title>
    <desc>Created with Sketch.</desc>
    <g id="Page-1" stroke="none" stroke-width="1" fill="none" fill-rule="evenodd">
        <g id="Lesson-1" transform="translate(-440.000000, -2424.000000)" fill="#F67102">
            <path d="M469.377685,2424 L471.281794,2424 C471.809776,2424.09874 472.334766,2424.25433 472.866829,2424.28698 C477.024587,2424.54104 480.9427,2425.57715 484.63776,2427.55552 C496.317565,2433.80834 502.599493,2446.10671 500.648326,2459.03316 C498.788555,2471.35492 490.100649,2481.02725 478.062326,2484.0926 C476.106534,2484.59066 474.087635,2484.83955 472.09784,2485.20351 L469.105669,2485.20351 C468.720223,2485.1045 468.338585,2484.98644 467.949059,2484.90919 C465.520775,2484.42609 463.029112,2484.1538 460.674545,2483.43269 C455.923521,2481.97795 451.916731,2479.23766 448.34435,2475.62584 C452.467835,2470.56499 456.545893,2465.55963 460.583964,2460.60323 C461.589334,2461.66002 462.429862,2462.73339 463.460801,2463.57256 C464.477052,2464.40003 465.686433,2464.99003 466.831347,2465.69673 C464.798846,2468.18866 462.804428,2470.63408 460.814089,2473.07433 C465.830057,2477.46521 477.171203,2477.18803 484.92528,2470.80246 C493.132807,2464.04314 494.926477,2451.69772 489.101263,2442.54276 C483.060613,2433.04941 470.753267,2430.32545 461.341256,2434.7185 C456.036952,2437.19439 452.420776,2441.22566 450.261788,2446.62843 C447.485325,2453.57734 448.615006,2460.1555 452.20942,2466.43552 C450.29443,2468.76207 448.461861,2470.98797 446.620588,2473.2253 C444.363674,2470.89821 441.6748,2465.39751 440.898196,2461.42146 C440.519278,2459.48117 440.294593,2457.51069 440,2455.55381 L440,2453.6497 C440.129751,2452.62583 440.233661,2451.59789 440.393335,2450.57864 C441.488197,2443.57968 444.379451,2437.48109 449.536595,2432.54755 C453.329852,2428.91886 457.643476,2426.19408 462.878144,2425.16695 C465.037676,2424.74315 467.210808,2424.38681 469.377685,2424 Z M465.430657,2472.2788 C466.999371,2470.35646 468.52021,2468.45643 470.096812,2466.60346 C470.310072,2466.35294 470.797524,2466.24984 471.165833,2466.2308 C476.159768,2465.97239 480.330311,2462.65978 481.680868,2457.84674 C483.066244,2452.90993 481.267133,2447.91762 477.140384,2445.06119 C473.302244,2442.40468 469.259548,2442.25535 465.200531,2444.2737 C461.076231,2446.3247 459.107654,2449.90497 458.797012,2454.44328 C458.784772,2454.62308 458.760018,2454.82165 458.817685,2454.98377 C459.529006,2456.97792 458.783683,2458.48597 457.374099,2459.89882 C456.32439,2460.95125 455.460469,2462.18892 454.505966,2463.35342 C450.958339,2458.11767 451.071497,2448.50327 457.05448,2442.05025 C463.239843,2435.37852 473.874565,2434.33507 481.307119,2439.70547 C488.946405,2445.22467 491.257994,2455.42199 486.674531,2463.66733 C482.004567,2472.06935 472.534072,2474.54986 465.430657,2472.2788 Z" id="start"></path>
        </g>
    </g>
</svg>