<?xml version="1.0" encoding="UTF-8"?>
<svg width="105px" height="95px" viewBox="0 0 105 95" version="1.1" xmlns="http://www.w3.org/2000/svg" xmlns:xlink="http://www.w3.org/1999/xlink">
    <!-- Generator: Sketch 52.2 (67145) - http://www.bohemiancoding.com/sketch -->
    <title>Group 5</title>
    <desc>Created with Sketch.</desc>
    <g id="Page-1" stroke="none" stroke-width="1" fill="none" fill-rule="evenodd">
        <g id="Lesson-11" transform="translate(-55.000000, -2560.000000)">
            <g id="Group-5" transform="translate(55.000000, 2560.000000)">
                <g id="Rectangle-13" fill="#05BCB0" fill-opacity="0.7" fill-rule="nonzero">
                    <rect id="Rectangle-12" x="0" y="0.1" width="105" height="94"></rect>
                </g>
                <g id="Group-3" transform="translate(18.000000, 16.100000)" fill="#FFFFFF">
                    <path d="M38.6231419,10.3227535 C38.501337,10.2250302 38.3523186,10.1983038 38.206415,10.1630513 C37.0427928,9.69279887 35.8442521,9.35142317 34.5999731,9.17712808 C34.5322673,9.09416165 34.4404628,9.10695094 34.3501337,9.11432938 C33.1324124,8.88740144 31.9040353,8.77836453 30.6653301,8.78213573 C30.5550007,8.7822997 30.4446714,8.7822997 30.334342,8.78246366 C29.6789234,8.71835324 29.0285868,8.82361895 28.3803814,8.87690766 C27.8298822,8.92216208 27.2667598,8.9352793 26.7303592,9.10662301 C26.6159314,9.10990232 26.4936347,9.0764534 26.4000269,9.17712808 C25.1555839,9.35142317 23.9570432,9.69279887 22.793421,10.1630513 C22.6476814,10.1984678 22.498499,10.2250302 22.3765302,10.3229174 C21.4797968,10.5931322 20.6461791,11.0022256 19.841906,11.4759212 C19.596001,11.5724968 19.3648504,11.6939951 19.1712412,11.8781281 C19.0494363,11.9014111 18.9418939,11.9519124 18.8577944,12.0458645 C18.7199237,12.1281751 18.582053,12.2104857 18.4443462,12.2927963 C17.1253121,13.0998333 15.8959513,14.0196785 14.8395437,15.1574336 C14.6482296,15.3497649 14.4569156,15.5420961 14.2657655,15.7344274 C13.1206681,16.7887241 12.2260659,18.0415828 11.4022844,19.3505176 C11.273758,19.4587347 11.2331018,19.6194206 11.1585106,19.7597749 C11.0194923,19.8932426 10.9519504,20.0649143 10.8989989,20.2444563 C10.792768,20.3895655 10.650471,20.5161467 10.6562088,20.7186438 C10.063086,21.5148592 9.72488477,22.4310972 9.41373305,23.3599605 C9.33225655,23.4567 9.28045257,23.5663928 9.2684852,23.6933019 C8.82159395,24.8625383 8.49503218,26.0642398 8.29437375,27.3000461 C8.30798049,27.5194316 8.47814671,27.4623717 8.60077131,27.4625356 C12.2421317,27.4651591 15.8834921,27.4648312 19.5248525,27.4640113 C19.6568215,27.4638474 19.8101023,27.4956566 19.849611,27.3034893 C20.3833887,26.5795826 20.928314,25.8684652 21.6352088,25.2952426 C21.9157043,25.0678228 22.2737419,24.9305839 22.4698101,24.6015055 C22.5591556,24.5952749 22.6547306,24.6064245 22.713256,24.514276 C23.4245771,24.2419297 24.1355702,23.9697473 24.8468913,23.697401 C25.4431288,23.659689 26.0257596,23.5075292 26.6305218,23.5254014 C29.8044989,23.6185337 32.9848695,23.3443838 36.1542563,23.6959253 C36.8650855,23.9685996 37.5757508,24.2414378 38.28658,24.514276 C38.3396955,24.5449375 38.3931388,24.575599 38.4464183,24.6064245 C39.1115092,25.1306215 39.8320106,25.5902162 40.3528373,26.280346 C40.6364477,26.6561544 40.9343205,27.0213051 41.2256359,27.3913747 C41.3120305,27.4825394 41.4254747,27.4640113 41.5325253,27.4640113 C45.155033,27.4646672 48.7773767,27.4651591 52.3998844,27.4625356 C52.5228369,27.4625356 52.6921834,27.5187757 52.706282,27.3000461 C52.6093955,26.516292 52.4134912,25.7541814 52.1729961,25.0050241 C52.0210269,24.5316563 51.9208616,24.0369731 51.6634811,23.6011534 C51.6531531,23.5157275 51.6595466,23.4250547 51.586103,23.3599605 C51.2751152,22.4310972 50.936914,21.5148592 50.3436273,20.7186438 C50.3493651,20.5163107 50.207232,20.3895655 50.1010011,20.2446202 C50.0480496,20.0649143 49.9803437,19.8932426 49.8414894,19.7597749 C49.7668982,19.6194206 49.726078,19.4587347 49.5975517,19.3505176 C48.7736062,18.0435504 47.8824467,16.7898719 46.7398084,15.7350833 C46.5471828,15.542752 46.3545573,15.3504207 46.1620957,15.1580894 C45.8202878,14.7334194 45.40602,14.3838454 44.9856865,14.0431256 C44.2091186,13.4138268 43.4345181,12.7805929 42.5554899,12.2926323 C42.4176192,12.2103217 42.2799124,12.1281751 42.1420417,12.0458645 C42.0008922,11.9184635 41.8389229,11.8330376 41.64974,11.803032 C41.5261318,11.6334919 41.3558016,11.5341289 41.1579301,11.4759212 C40.3538209,11.0022256 39.5200392,10.5931322 38.6231419,10.3227535 M11.1593303,43.0410405 C11.2332657,43.1817227 11.2727744,43.3425726 11.4024483,43.4502978 C12.1972131,44.7803841 13.1501767,45.985201 14.2631425,47.0634366 C14.4293742,47.2823302 14.6211801,47.4753174 14.8410191,47.6404304 C15.9010333,48.7753981 17.133181,49.6932757 18.4522152,50.5012965 C18.5597576,50.6308291 18.7207434,50.6705087 18.861237,50.744457 C19.0112391,50.8528381 19.1576345,50.9681057 19.3466534,51.0035222 C19.4710813,51.1756857 19.6705922,51.2284825 19.8471519,51.3175157 C20.6835566,51.7859645 21.5371746,52.2162094 22.4619412,52.4874079 C22.5578441,52.5708663 22.6683374,52.6197279 22.7958801,52.62891 C23.9673712,53.0660414 25.157879,53.4333236 26.4001908,53.6104061 C26.6459318,53.5846636 26.5611766,53.3911845 26.5613405,53.2623078 C26.5659307,49.9990709 26.5647832,46.735998 26.5649471,43.4725971 C26.5649471,43.3091237 26.5857671,43.1382719 26.4065843,43.0405486 C26.0414975,42.5356995 25.6924764,42.018717 25.3078811,41.5296085 C24.7398406,40.8066856 24.2565554,40.0180127 23.6147435,39.3528055 C23.6149075,39.2819725 23.5904809,39.2245847 23.5245784,39.190152 C23.2939196,38.8036858 23.0430965,38.4319766 22.7140757,38.1199506 C22.651124,37.995665 22.6001397,37.8625252 22.4706298,37.7871011 C21.9322619,36.9979363 21.3591395,36.2348419 20.7527379,35.4965062 C20.6733925,35.3258184 20.51962,35.3356563 20.3678147,35.3356563 C16.445139,35.3361482 12.5224633,35.3356563 8.59978769,35.3381158 C8.47683522,35.3382797 8.30748868,35.2820396 8.29322619,35.5006054 C8.46404816,36.7449378 8.8424139,37.9327023 9.27504266,39.1057099 C9.28422312,39.2332749 9.33324017,39.3439514 9.41668391,39.4398711 C9.6878351,40.3646353 10.1178409,41.2184025 10.5863718,42.0549533 C10.6753893,42.2317079 10.728013,42.4310896 10.9003104,42.5555393 C10.9355568,42.7445912 11.0508042,42.8910122 11.1593303,43.0410405 M46.1617678,47.6368232 C46.3535737,47.4451478 46.5453795,47.2536363 46.7371854,47.0621249 C47.850643,45.985037 48.8027869,44.7798922 49.5975517,43.4502978 C49.7270616,43.3427366 49.7667343,43.1817227 49.8406697,43.0410405 C49.9490318,42.8910122 50.0642793,42.7447552 50.0996896,42.5555393 C50.2718231,42.4310896 50.3246107,42.2317079 50.4136282,42.0551173 C50.8818313,41.2184025 51.3121649,40.3646353 51.5833161,39.4398711 C51.6665959,39.3439514 51.7156129,39.2332749 51.7247934,39.1057099 C52.1575861,37.9327023 52.5357879,36.7449378 52.7066099,35.5006054 C52.6923474,35.2820396 52.5230008,35.3382797 52.4002123,35.3382797 C48.4773727,35.3356563 44.554861,35.3361482 40.6321853,35.3356563 C40.48038,35.3356563 40.3266075,35.3258184 40.2470982,35.4965062 C39.6406966,36.2346779 39.0677381,36.9977723 38.5293702,37.7871011 C38.3996963,37.8625252 38.348712,37.995665 38.2859243,38.1199506 C37.9569035,38.4319766 37.7060804,38.8036858 37.4752577,39.190152 C37.3777154,39.2431128 37.3818138,39.3385406 37.3755842,39.4295413 C37.316567,39.4583992 37.2365659,39.4715164 37.2016474,39.5182465 C36.3293406,40.6902703 35.461788,41.8655734 34.5934157,43.0405486 C34.4334135,43.1276141 34.4343971,43.2778063 34.4343971,43.4316057 C34.4353807,46.7222249 34.4345611,50.01268 34.4371841,53.3031352 C34.4371841,53.4261091 34.3801341,53.5963051 34.5996453,53.6104061 C35.841957,53.4333236 37.0324648,53.0662054 38.203956,52.62891 C38.3314987,52.6197279 38.4421559,52.5708663 38.5378949,52.4874079 C38.8277349,52.454123 39.0957712,52.3355761 39.3439713,52.2048958 C39.9549631,51.8830319 40.6528413,51.7266091 41.181373,51.2478304 C41.3759658,51.2386484 41.5340007,51.1586333 41.6530187,51.0035222 C41.8422016,50.9681057 41.988597,50.8530021 42.138599,50.744457 C42.2792566,50.6705087 42.4400785,50.6308291 42.5476209,50.5012965 C43.8674747,49.691636 45.1022454,48.7749062 46.1617678,47.6368232 M7.22501512,51.1510909 C7.12878432,50.9535128 6.99878257,50.7841366 6.81517354,50.659687 C6.02253994,49.5411159 5.22990634,48.4225448 4.43727274,47.3038097 C4.37923917,47.1944449 4.32104167,47.08508 4.26284417,46.9757152 C3.90956073,46.3205099 3.55611336,45.6656326 3.20266599,45.0105914 C3.14692753,44.7898941 3.00807321,44.6146152 2.88643223,44.4298263 C2.78102098,44.0484431 2.61577285,43.6941142 2.40167162,43.3619205 C2.38544189,43.2074652 2.34003144,43.0644875 2.23658743,42.9444649 C1.82936884,41.7808033 1.40362542,40.6233725 1.0696865,39.4352801 C1.02230882,39.2927943 0.974767197,39.1503084 0.927061637,39.0079866 C0.91624182,38.56692 0.749518268,38.1576627 0.667549954,37.7313529 C0.524597213,36.9879344 0.394267593,36.2423843 0.258528064,35.4978179 C0.253937838,35.3886171 0.24901974,35.2792522 0.244429514,35.1700514 C0.115903197,33.9717931 0.0219675083,32.7710754 0,31.5657667 C0,31.455418 0,31.3452334 0,31.2350487 C0.0218035717,30.029576 0.116067133,28.8290222 0.244429514,27.630928 L0.255085395,27.3015217 C0.257380508,27.1798595 0.277380776,27.0626243 0.302299144,26.9417819 C0.518203685,25.8937159 0.720665421,24.8430264 0.927225574,23.7929928 C0.974767197,23.6505069 1.02230882,23.5080211 1.06985044,23.3653713 C1.12657252,23.1850095 1.19149142,23.0064513 1.23886911,22.8236301 C1.5019874,21.8109805 1.91428802,20.8488323 2.23658743,19.8563505 C2.34003144,19.7363279 2.38544189,19.5931862 2.40150768,19.4385669 C2.61626466,19.1068652 2.7806931,18.7522083 2.88643223,18.370989 C3.01954877,18.201285 3.12496002,18.0197754 3.12741907,17.7954709 C3.23774842,17.7841573 3.28135557,17.7010269 3.32611027,17.615437 C3.63758986,17.0182755 3.95038095,16.4219338 4.26284417,15.8252642 C4.32104167,15.7157353 4.37923917,15.6063705 4.43727274,15.4970057 L6.81517354,12.1411284 C7.00107768,12.0163508 7.12944006,11.8432035 7.23042503,11.647101 C7.33927895,11.5449506 7.46042812,11.4531301 7.55534742,11.3393382 C8.32552171,10.4153938 9.22848466,9.62147398 10.0594794,8.75737697 C10.2621051,8.54651763 10.5942407,8.45912414 10.668504,8.12578273 C10.9267042,8.07905263 11.0955589,7.90852874 11.2445773,7.71013076 C12.3626251,6.91785054 13.4810008,6.12557033 14.5993765,5.33312615 C14.6816727,5.27983744 14.7639689,5.22654872 14.8462651,5.17309604 C15.5867668,4.84385377 16.2984157,4.46083089 16.9844905,4.02943825 C17.2105591,3.92974736 17.4654806,3.88859207 17.648106,3.70117976 C17.9789301,3.64051261 18.2602454,3.46982476 18.5404131,3.29716932 C18.6948414,3.28093676 18.837958,3.23551838 18.9577957,3.13205629 C19.1012403,3.09040911 19.2502587,3.06220708 19.3873097,3.0054751 C20.6861796,2.46848882 22.0340666,2.09054886 23.3942488,1.74917316 C25.579524,1.20070931 27.8047998,0.972633609 30.049912,0.907539394 C31.4258321,0.867531867 32.7930636,0.992801338 34.1601311,1.14020612 C35.7040863,1.30679484 37.2132869,1.62833075 38.7098644,2.03545653 C39.8408632,2.34305538 40.9349763,2.75575598 42.0418764,3.13222026 C42.162042,3.23551838 42.3049947,3.28093676 42.4595869,3.29700536 C42.7394268,3.47031666 43.0210699,3.63985675 43.3517301,3.70117976 C43.5338637,3.88957587 43.7896048,3.92941943 44.0156734,4.02927428 C44.1140354,4.17307183 44.2784638,4.21652263 44.4210887,4.2907989 C45.372249,4.78548213 46.3263602,5.27590227 47.2057163,5.89454326 C48.0591704,6.49482013 48.9057391,7.10477096 49.7554227,7.71045869 C49.8795227,7.89754307 50.054607,8.0239603 50.2496916,8.12676652 C50.4834652,8.45322139 50.8369126,8.65014368 51.1160967,8.93003241 C52.0105349,9.8267585 52.9110388,10.71709 53.7700668,11.6484127 C53.8707239,11.8450071 54.0013814,12.0163508 54.1849904,12.1434239 C54.977624,13.2611752 55.7700937,14.3790904 56.5625633,15.4970057 C56.6207608,15.6063705 56.6789583,15.7157353 56.7369919,15.8252642 C57.0902753,16.4801415 57.4438866,17.1351827 57.7971701,17.7900601 C57.8530725,18.0107573 57.9917629,18.1862002 58.1135678,18.3708251 C58.2188151,18.7523723 58.3840632,19.1067012 58.5983284,19.4387309 C58.6143942,19.5933502 58.6599686,19.7363279 58.7634126,19.8563505 C59.1706312,21.0198481 59.5963746,22.1774429 59.9301496,23.3653713 C59.9776912,23.5080211 60.0252328,23.6505069 60.0729384,23.7928288 C60.1096602,24.2286485 60.2473669,24.6439725 60.3317943,25.0699543 C60.4788455,25.8122251 60.6058963,26.5584311 60.741308,27.3029974 C60.7460622,27.4123623 60.7508163,27.5215631 60.7554065,27.630764 C60.8839329,28.8290222 60.9778686,30.029576 61,31.2350487 C61,31.3452334 61,31.455418 60.9998361,31.5657667 C60.9780325,32.7710754 60.8837689,33.9716292 60.7555705,35.1700514 C60.7508163,35.2792522 60.7460622,35.3886171 60.741308,35.4978179 C60.5908142,35.7016268 60.6752415,35.9467549 60.627372,36.1708954 C60.4260579,37.1130399 60.254908,38.061579 60.0727744,39.0078226 L59.9301496,39.4352801 C59.8732635,39.6158058 59.8085086,39.794364 59.760803,39.9771853 C59.4978487,40.9898349 59.085548,41.9519831 58.7632486,42.9444649 C58.6599686,43.0644875 58.6143942,43.2074652 58.5983284,43.3620845 C58.3835714,43.6939502 58.2193069,44.0486071 58.1134038,44.4298263 C57.9917629,44.6146152 57.8530725,44.7900581 57.7971701,45.0105914 C57.4438866,45.6654687 57.0904393,46.3205099 56.7371558,46.9757152 C56.6789583,47.08508 56.6207608,47.1944449 56.5627273,47.3038097 C55.7704215,48.4222168 54.9782797,49.540624 54.185974,50.6590311 C53.9877746,50.8082395 53.8172805,50.9771238 53.7705586,51.2353691 C53.4146522,51.3262058 53.3103885,51.6803708 53.0843199,51.9051672 C52.147422,52.836326 51.2192128,53.776175 50.2498555,54.6740488 C50.0537873,54.7748875 49.8806703,54.9034363 49.7559145,55.0893729 C48.6375388,55.882145 47.5191631,56.6749171 46.4004596,57.4675253 C46.2911138,57.5257329 46.1817681,57.5839406 46.0724224,57.6419843 C45.4174955,57.9954934 44.7627326,58.3490026 44.1078058,58.7023477 C43.8492777,58.8223703 43.5786184,58.9191098 43.351894,59.0996356 C43.020906,59.1603028 42.7397546,59.3308266 42.459423,59.503646 C42.3049947,59.5197146 42.162042,59.565297 42.0418764,59.6687591 C41.1210444,59.9584857 40.2246389,60.3175697 39.2995445,60.5999179 C36.5493436,61.4394201 33.7340599,61.8263781 30.8681197,61.8947517 C29.5194131,61.9268889 28.1792311,61.8068663 26.8397049,61.6596255 C25.2967334,61.4902493 23.7852376,61.180191 22.2898077,60.7663426 C21.1602843,60.4538248 20.0650237,60.0450594 18.9579597,59.6685951 C18.837958,59.565133 18.6948414,59.5197146 18.5402491,59.503646 C18.2604093,59.3303348 17.9787662,59.1609586 17.6482699,59.0996356 C17.4654806,58.9122233 17.2105591,58.870904 16.9843266,58.7715411 C16.2985797,58.3396566 15.5866029,57.9571256 14.8462651,57.6275554 C14.7639689,57.5742666 14.6815088,57.520814 14.5993765,57.4676892 C14.2742902,57.2438766 13.9469087,57.0233433 13.6247732,56.7954316 C12.826074,56.2304072 12.0298338,55.6619396 11.23261,55.0947837 C11.126543,54.8924506 10.9422782,54.7796425 10.751292,54.6747047 C10.5147315,54.3310335 10.1412838,54.1346031 9.85685376,53.8402854 C8.9852027,52.9384764 8.1030597,52.0466693 7.22501512,51.1510909" id="Fill-1"></path>
                </g>
            </g>
        </g>
    </g>
</svg>