<?xml version="1.0" encoding="UTF-8"?>
<svg width="58px" height="58px" viewBox="0 0 58 58" version="1.1" xmlns="http://www.w3.org/2000/svg" xmlns:xlink="http://www.w3.org/1999/xlink">
    <!-- Generator: Sketch 52.2 (67145) - http://www.bohemiancoding.com/sketch -->
    <title>Combined Shape</title>
    <desc>Created with Sketch.</desc>
    <g id="Page-1" stroke="none" stroke-width="1" fill="none" fill-rule="evenodd">
        <g id="Lesson-12" transform="translate(-448.000000, -7371.000000)" fill="#FF1307">
            <path d="M448.005589,7397.00001 C448.006251,7394.14985 448.00655,7391.29968 448.000054,7388.44952 C447.999331,7388.1774 448.078214,7387.9875 448.271802,7387.79471 C453.748919,7382.34 459.221151,7376.88041 464.688136,7371.41576 C464.891133,7371.21285 465.091416,7371.12702 465.379266,7371.12756 C465.594106,7371.12799 465.808947,7371.12837 466.023788,7371.1287 L466.023788,7371 L486.05022,7371 L486.05022,7371.12974 C486.875172,7371.12888 487.700123,7371.1275 488.525073,7371.1254 C488.887103,7371.12449 489.131169,7371.23742 489.383558,7371.48984 C494.812187,7376.91745 500.248596,7382.33747 505.689347,7387.75297 C505.900124,7387.96275 506.000175,7388.16711 505.99927,7388.47138 C505.988053,7392.13604 505.990043,7395.80088 505.990043,7399.46555 C505.990043,7403.51001 505.987872,7407.55429 505.999994,7411.59857 C506.000899,7411.93067 505.898496,7412.15617 505.665646,7412.38799 C500.196671,7417.83295 494.736742,7423.28694 489.265053,7428.729 C489.118685,7428.87445 488.859421,7428.97907 488.652263,7428.97997 C485.0886,7428.99569 481.523852,7429.02551 477.961455,7428.95612 C477.451973,7428.94618 476.951717,7428.98142 476.446758,7428.98341 C472.752649,7428.99786 469.05854,7428.9881 465.36443,7428.99587 C465.092682,7428.99642 464.898189,7428.92035 464.704962,7428.72719 C459.209572,7423.23562 453.708211,7417.74983 448.213907,7412.25699 C448.1068,7412.14985 448.014528,7411.96916 448.014166,7411.82262 C448.013269,7411.54843 448.012459,7411.27423 448.01173,7411.00002 L448,7411.00002 L448,7397.00001 L448.005589,7397.00001 Z M468.414811,7409.15535 C468.562084,7409.16781 468.677151,7409.18588 468.792219,7409.18606 C470.125449,7409.18805 471.45886,7409.17685 472.791728,7409.19401 C473.131866,7409.19835 473.206768,7409.07783 473.205864,7408.75983 C473.193199,7404.5298 473.193018,7400.29959 473.189762,7396.06938 C473.1894,7395.60177 473.189581,7395.13434 473.189581,7394.62336 L475.98703,7394.62336 L475.98703,7390.92888 L475.553717,7390.92888 C472.385735,7390.92888 469.217753,7390.92906 466.049771,7390.92924 C465.983734,7390.92924 465.899785,7390.90521 465.855458,7390.93647 C465.757398,7391.00622 465.605964,7391.1027 465.604517,7391.19033 C465.586967,7392.24463 465.596737,7393.29929 465.589862,7394.35377 C465.588414,7394.58849 465.700587,7394.64359 465.907746,7394.6398 C466.356437,7394.63185 466.80531,7394.63781 467.254183,7394.63781 C467.629963,7394.63799 468.005561,7394.63781 468.414811,7394.63781 L468.414811,7409.15535 Z M489.630701,7391.00206 C489.630701,7392.23361 489.629796,7393.47077 489.630882,7394.70792 C489.6345,7399.40014 489.642461,7404.09254 489.634319,7408.78476 C489.633777,7409.10096 489.708498,7409.19203 490.023668,7409.18841 C491.369925,7409.17323 492.716181,7409.18281 494.062619,7409.18046 C494.17642,7409.18028 494.290221,7409.16022 494.437855,7409.14613 L494.437855,7401.85096 C494.721002,7401.85096 494.968687,7401.8477 495.21601,7401.8515 C496.128953,7401.86505 497.037193,7401.84283 497.912504,7401.53548 C498.926403,7401.17971 499.669458,7400.52906 499.741285,7399.42562 C499.844593,7397.83902 499.849478,7396.24483 499.851106,7394.65389 C499.85183,7393.91525 499.725183,7393.18293 499.308876,7392.53644 C498.669671,7391.54339 497.6612,7391.14336 496.57855,7391.08897 C494.314646,7390.97532 492.044772,7390.98363 489.77743,7390.94316 C489.753729,7390.9428 489.729666,7390.96141 489.630701,7391.00206 Z M454.156903,7402.63332 C454.253155,7403.86903 454.301823,7405.05234 454.448372,7406.22336 C454.596368,7407.4074 455.28985,7408.27505 456.348256,7408.78494 C458.676388,7409.90609 461.009767,7409.8817 463.289049,7408.63208 C464.143735,7408.16356 464.650142,7407.41571 464.818763,7406.44055 C465.041119,7405.15497 465.011447,7403.87102 464.846625,7402.584 C464.682346,7401.3033 464.110988,7400.25153 463.053667,7399.49861 C462.120279,7398.83405 461.161562,7398.20472 460.213339,7397.56112 C459.907939,7397.35388 459.584266,7397.17048 459.296415,7396.94191 C458.610532,7396.39697 458.338965,7394.83187 458.775173,7394.06721 C458.957725,7393.74703 459.240148,7393.65759 459.582456,7393.70638 C459.895455,7393.75083 460.032234,7393.97054 460.059192,7394.25458 C460.092663,7394.60764 460.104061,7394.96323 460.112202,7395.31809 C460.120706,7395.69555 460.114192,7396.07318 460.114192,7396.4584 L464.508297,7396.4584 C464.508297,7395.67657 464.524219,7394.92817 464.505222,7394.18068 C464.462162,7392.49199 463.520632,7391.49045 461.98133,7390.97875 C460.333473,7390.43073 458.660648,7390.38556 456.997231,7390.87395 C455.589641,7391.28718 454.527436,7392.12466 454.285178,7393.65199 C454.139715,7394.56843 454.096113,7395.51468 454.129945,7396.44322 C454.188927,7398.05457 454.895978,7399.33563 456.278058,7400.23653 C457.337911,7400.92747 458.377321,7401.65202 459.398999,7402.39843 C460.33293,7403.08088 460.745256,7404.88105 460.257303,7405.93915 C460.083978,7406.31479 459.792871,7406.46693 459.354492,7406.41688 C458.975818,7406.37333 458.788199,7406.13609 458.76685,7405.7843 C458.728494,7405.15407 458.714382,7404.52239 458.700089,7403.89126 C458.6905,7403.47532 458.69828,7403.05902 458.69828,7402.63332 L454.156903,7402.63332 Z M476.551875,7400.66042 C476.536316,7400.66927 476.520756,7400.67795 476.505378,7400.6868 C476.543191,7400.76287 476.561464,7400.86514 476.622435,7400.91031 C476.920598,7401.13147 476.901059,7401.43827 476.905582,7401.75971 C476.921141,7402.85322 476.932539,7403.94799 476.990435,7405.03987 C477.09121,7406.93635 477.99764,7408.31371 479.760927,7409.06446 C481.127628,7409.64645 482.560366,7409.68259 483.998713,7409.39873 C486.38854,7408.92678 487.774419,7407.18533 487.804272,7405.20809 C487.856559,7401.75736 487.866148,7398.30482 487.80192,7394.85464 C487.772429,7393.27183 486.939635,7392.05365 485.54471,7391.27489 C484.286201,7390.57221 482.907017,7390.45982 481.507387,7390.60347 C478.865352,7390.8745 477.007985,7392.54349 476.972705,7395.35712 C476.950451,7397.14862 476.925845,7398.93993 476.900516,7400.73143 C476.899249,7400.81021 476.880071,7400.88881 476.861074,7401.02667 C476.728457,7400.86947 476.640166,7400.76504 476.551875,7400.66042 Z M483.013363,7400.51164 C483.013363,7402.30013 483.013863,7404.08862 483.012364,7405.87711 C483.012239,7406.02452 483.00449,7406.1736 482.988744,7406.31935 C482.933133,7406.83206 482.793292,7407.02153 482.496988,7406.9981 C482.235052,7406.97725 482.108333,7406.78409 482.094211,7406.28374 C482.067592,7405.34337 482.051096,7404.40171 482.048847,7403.4606 C482.042848,7400.9583 482.044473,7398.456 482.048847,7395.95369 C482.049597,7395.53766 482.068717,7395.11978 482.09896,7394.70596 C482.135451,7394.20893 482.296662,7393.98882 482.580468,7394.00045 C482.839405,7394.01115 482.976122,7394.20487 482.994868,7394.7019 C483.026235,7395.53415 483.036733,7396.36825 483.042356,7397.20199 C483.049854,7398.30508 483.044231,7399.40836 483.044231,7400.51164 L483.013363,7400.51164 Z M494.060793,7397.93805 L494.060793,7393.04581 C494.683887,7392.87051 495.001607,7393.19067 495.039149,7394.14105 C495.075305,7395.05626 495.065983,7395.98056 495.030583,7396.89656 C494.994427,7397.83212 494.67784,7398.14753 494.060793,7397.93805 Z" id="Combined-Shape"></path>
        </g>
    </g>
</svg>