<?xml version="1.0" encoding="UTF-8"?>
<svg width="56px" height="56px" viewBox="0 0 56 56" version="1.1" xmlns="http://www.w3.org/2000/svg" xmlns:xlink="http://www.w3.org/1999/xlink">
    <!-- Generator: Sketch 52.2 (67145) - http://www.bohemiancoding.com/sketch -->
    <title>Fill 1</title>
    <desc>Created with Sketch.</desc>
    <g id="Page-1" stroke="none" stroke-width="1" fill="none" fill-rule="evenodd">
        <g id="Lesson-12" transform="translate(-279.000000, -5831.000000)" fill="#32C5DD">
            <path d="M318.651003,5856.06735 C318.651003,5852.812 318.652285,5849.55665 318.650148,5846.3013 C318.649507,5845.65313 318.376679,5845.49141 317.776329,5845.73282 C314.884607,5846.89648 311.993954,5848.06292 309.090909,5849.1986 C308.581145,5849.39792 308.383094,5849.66325 308.385657,5850.21635 C308.404886,5854.46787 308.395913,5858.71939 308.395913,5862.97092 C308.395913,5864.37641 308.395272,5865.78169 308.39634,5867.18698 C308.396981,5868.09599 308.569822,5868.20879 309.395143,5867.88876 C309.907256,5867.69008 310.42172,5867.47688 310.954558,5867.35511 C313.223924,5866.83747 315.517005,5866.48391 317.853242,5866.47472 C318.571099,5866.47194 318.649507,5866.38991 318.649935,5865.6736 C318.651644,5862.47144 318.650789,5859.2695 318.651003,5856.06735 M306.4483,5858.72516 C306.4483,5855.96801 306.448514,5853.21042 306.4483,5850.45327 C306.4483,5849.48187 306.418176,5849.44876 305.526196,5849.09819 C302.727411,5847.99883 299.930335,5846.89584 297.134114,5845.79029 C296.371178,5845.48863 296.127406,5845.64608 296.125911,5846.47178 C296.12356,5848.01934 296.12527,5849.56711 296.12527,5851.11468 C296.12527,5855.93553 296.125056,5860.7566 296.125483,5865.57746 C296.125483,5866.34441 296.247476,5866.47088 297.025795,5866.47515 C298.003447,5866.4807 298.972553,5866.56509 299.944009,5866.67981 C301.832227,5866.90263 303.691817,5867.22522 305.480048,5867.89709 C306.298106,5868.20451 306.447659,5868.0883 306.448086,5867.21069 C306.448941,5864.38218 306.4483,5861.55367 306.4483,5858.72516 M324.083423,5859.6267 C324.083423,5856.22714 324.084492,5852.82738 324.082569,5849.42783 C324.082355,5848.75296 323.93152,5848.64635 323.277758,5848.84204 C322.51354,5849.07084 321.748467,5849.2973 320.985531,5849.53101 C320.036936,5849.82198 320.03779,5849.82476 320.03779,5850.82948 C320.03779,5856.22266 320.038217,5861.61584 320.037149,5867.00902 C320.037149,5867.69457 319.958954,5867.76528 319.266736,5867.77319 C318.360656,5867.78344 317.456712,5867.79797 316.549991,5867.86035 C313.496965,5868.07057 310.524912,5868.5615 307.815645,5870.09773 C307.55179,5870.24728 307.303959,5870.28253 307.017244,5870.10457 C305.579181,5869.21137 303.978532,5868.75312 302.341991,5868.39678 C300.162357,5867.92188 297.952599,5867.76742 295.727671,5867.77191 C294.833769,5867.77361 294.817959,5867.75652 294.817959,5866.88575 C294.817746,5861.43916 294.808986,5855.99257 294.831205,5850.54598 C294.833555,5849.99331 294.638068,5849.73888 294.137705,5849.60151 C293.315802,5849.37591 292.50095,5849.12425 291.686952,5848.8711 C290.895814,5848.6252 290.775958,5848.70403 290.775958,5849.52097 C290.775317,5855.71528 290.775531,5861.90937 290.775531,5868.10346 C290.775531,5868.70869 290.769549,5869.31391 290.778095,5869.91892 C290.784931,5870.40323 290.964609,5870.53184 291.445744,5870.49317 C292.329818,5870.42246 293.215174,5870.35388 294.101385,5870.32525 C295.861628,5870.26864 297.618453,5870.33615 299.371433,5870.51795 C301.331437,5870.72112 303.229056,5871.1565 304.947638,5872.14969 C306.49573,5873.04438 307.998314,5873.26037 309.607936,5872.27787 C310.71634,5871.60129 311.947806,5871.17253 313.222214,5870.88925 C314.560504,5870.59187 315.916739,5870.48313 317.282162,5870.37695 C319.261181,5870.22314 321.226312,5870.38614 323.195503,5870.45301 C324.025738,5870.48121 324.083423,5870.49702 324.083423,5869.66555 C324.084064,5866.3192 324.083637,5862.97305 324.083423,5859.6267 M307.036899,5831 C322.472947,5831.0188 335.023468,5843.56166 334.999967,5859.0736 C334.976679,5874.46355 322.358432,5887.11964 306.746979,5886.99915 C291.596793,5886.88229 278.778571,5874.4283 279.002901,5858.57006 C279.216762,5843.46723 291.531844,5830.99594 307.036899,5831" id="Fill-1"></path>
        </g>
    </g>
</svg>