<?xml version="1.0" encoding="UTF-8"?>
<svg width="64px" height="64px" viewBox="0 0 64 64" version="1.1" xmlns="http://www.w3.org/2000/svg" xmlns:xlink="http://www.w3.org/1999/xlink">
    <!-- Generator: Sketch 51 (57462) - http://www.bohemiancoding.com/sketch -->
    <title>stress</title>
    <desc>Created with Sketch.</desc>
    <defs></defs>
    <g id="Page-1" stroke="none" stroke-width="1" fill="none" fill-rule="evenodd">
        <g id="Lesson-1" transform="translate(-55.000000, -4559.000000)">
            <g id="stress" transform="translate(55.000000, 4559.000000)">
                <rect id="Rectangle-3" fill-opacity="0.7" fill="#05BCB0" fill-rule="nonzero" x="0" y="0" width="64" height="64"></rect>
                <g transform="translate(10.000000, 12.000000)" fill="#FFFFFF">
                    <path d="M20.004591,37.8230109 C29.8492225,37.8208064 37.8503974,29.8205903 37.8327566,19.996131 C37.8151159,10.1408084 29.8337868,2.16153536 20.0001808,2.17145572 C10.1489341,2.18137607 2.14555413,10.1837966 2.17201523,19.9983356 C2.19847633,29.861374 10.1654723,37.8252154 20.004591,37.8230109 Z M21.1743921,0 C21.9329436,0.102510346 22.6959053,0.177464147 23.4489441,0.310837823 C28.0619957,1.13202285 31.9198035,3.31339893 35.0179572,6.81748914 C37.8437821,10.0129461 39.489883,13.7562271 39.8967224,17.9966282 C40.4005858,23.2290649 39.0620952,27.9831199 35.8525844,32.1595899 C32.8790184,36.029631 28.9859291,38.5317652 24.2030854,39.5282099 C18.210749,40.7781748 12.7233786,39.5425393 7.84571592,35.8433487 C4.14005949,33.0336834 1.72989436,29.322368 0.604195099,24.8097083 C0.335173924,23.730594 0.242560076,22.6073892 0.0683578397,21.5051274 C0.0496145611,21.3926967 0.0231534618,21.2813683 0,21.1689376 L0,18.825529 C0.0231534618,18.7142006 0.0584349275,18.6028722 0.0661527481,18.4893392 C0.292174637,15.3754496 1.18633928,12.4621717 2.81369689,9.80241406 C5.98461861,4.61627236 10.5679015,1.43404258 16.5569303,0.311940085 C17.307764,0.170850577 18.0729308,0.102510346 18.8303797,0 L21.1743921,0 Z" id="Fill-1"></path>
                    <path d="M20.0447362,26.7589331 L21.1866378,26.7589331 C22.6312657,26.7589331 24.0747807,26.7635007 25.5194086,26.7589331 C26.2072207,26.7566494 26.5900805,26.4894477 26.7581381,25.9242136 C27.0297015,25.0027106 26.4554118,24.2353624 25.4793419,24.2342205 C21.8555295,24.2307949 18.23283,24.2330787 14.6090175,24.2353624 C14.4654451,24.2353624 14.3196468,24.2456394 14.1783003,24.2741866 C13.5828643,24.3952266 13.1721804,24.9250623 13.1810841,25.5462489 C13.1933267,26.2736311 13.7342274,26.7555075 14.5700638,26.7589331 C16.3953256,26.7646426 18.2194744,26.760075 20.0447362,26.7589331 Z M20.0302677,22.0052567 C21.869998,22.0052567 23.7097283,21.9995473 25.5494587,22.0075405 C27.4704354,22.0166756 28.8238003,23.3092919 28.9874061,25.2733379 C29.147673,27.1917084 27.7598062,28.8588637 25.8800091,28.9787618 C25.3168491,29.0153022 24.7503502,28.9936064 24.1849642,28.9936064 C20.9774005,28.9947483 17.7709497,28.9947483 14.564499,28.9936064 C13.1788581,28.9924645 12.0914918,28.4272303 11.4136964,27.1608774 C10.203904,24.9056502 11.7909914,22.0726281 14.312969,22.0201013 C16.2183642,21.9801352 18.1237595,22.0121081 20.0302677,22.0121081 L20.0302677,22.0052567 Z" id="Fill-4"></path>
                    <path d="M15.2402798,16.0205773 C14.4523761,15.1471849 13.7159021,14.3298085 13,13.5352958 C13.4854968,12.9957131 13.9473359,12.4835667 14.3834602,12 C15.5704588,13.3238068 16.7903724,14.6830523 18,16.030866 C16.8263732,17.3340955 15.6167455,18.6773364 14.4256326,20 C13.9771652,19.4981423 13.5122403,18.9768505 13.0277721,18.4338382 C13.7282452,17.6690483 14.4719194,16.858531 15.2402798,16.0205773" id="Fill-6"></path>
                    <path d="M27,18.4396638 C26.503895,18.9947286 26.0457155,19.5076222 25.6059861,20 C24.4067241,18.6733153 23.1941369,17.3295341 22,16.0085482 C23.196187,14.6784442 24.4077491,13.330104 25.602911,12 C26.0313653,12.4798404 26.4885199,12.9938738 26.9569496,13.5193047 C26.2527675,14.298903 25.5137351,15.1172532 24.7562526,15.9572589 C25.5434604,16.8280382 26.2855679,17.6486679 27,18.4396638" id="Fill-8"></path>
                </g>
            </g>
        </g>
    </g>
</svg>