<?xml version="1.0" encoding="UTF-8"?>
<svg width="53px" height="52px" viewBox="0 0 53 52" version="1.1" xmlns="http://www.w3.org/2000/svg" xmlns:xlink="http://www.w3.org/1999/xlink">
    <!-- Generator: Sketch 52.2 (67145) - http://www.bohemiancoding.com/sketch -->
    <title>stress</title>
    <desc>Created with Sketch.</desc>
    <g id="Page-1" stroke="none" stroke-width="1" fill="none" fill-rule="evenodd">
        <g id="Lesson-10" transform="translate(-293.000000, -758.000000)">
            <g id="stress" transform="translate(293.000000, 758.000000)">
                <path d="M26.5033042,51.9999993 C41.1346345,51.9967839 53.0261749,40.3279767 52.9999567,25.9983986 C52.9737387,11.6238045 41.1116936,-0.0144559778 26.4967497,1.34774191e-05 C11.8555877,0.014482918 -0.0392298907,11.6865054 9.72384938e-05,26.0016142 C0.0394243677,40.3874623 11.8801672,52.0032147 26.5033042,51.9999993 Z" id="Fill-1-path" fill="#32C5DD" fill-rule="nonzero"></path>
                <path d="M26.5671043,36.7984758 L28.2799567,36.7984758 C30.4468985,36.7984758 32.612171,36.805001 34.7791129,36.7984758 C35.810831,36.7952134 36.3851207,36.4134967 36.6372071,35.6060194 C37.0445522,34.2895866 36.1831177,33.1933748 34.7190128,33.1917436 C29.2832942,33.1868498 23.849245,33.1901124 18.4135263,33.1933748 C18.1981677,33.1933748 17.9794702,33.2080563 17.7674505,33.248838 C16.8742965,33.4217523 16.2582706,34.1786604 16.2716262,35.0660698 C16.2899901,36.1051873 17.1013411,36.7935821 18.3550957,36.7984758 C21.0929884,36.8066323 23.8292116,36.8001071 26.5671043,36.7984758 Z M26.5454015,30.0075096 C29.304997,30.0075096 32.0645924,29.9993533 34.824188,30.0107721 C37.705653,30.0238223 39.7357004,31.870417 39.9811091,34.676197 C40.2215094,37.4167263 38.1397092,39.7983767 35.3200136,39.9696597 C34.4752736,40.0218603 33.6255253,39.9908663 32.7774463,39.9908663 C27.9661007,39.9924976 23.1564245,39.9924976 18.3467485,39.9908663 C16.2682872,39.989235 14.6372377,39.1817576 13.6205446,37.372682 C11.805856,34.1509288 14.1864871,30.1037544 17.9694535,30.0287161 C20.8275463,29.9716217 23.6856392,30.0172973 26.5454015,30.0172973 L26.5454015,30.0075096 Z" id="Fill-4" fill="#FFFFFF" fill-rule="nonzero"></path>
                <path d="M19.1363917,21.0308659 C18.0333265,19.7207773 17.0022629,18.4947128 16,17.3029437 C16.6796955,16.4935696 17.3262703,15.7253501 17.9368443,15 C19.5986423,16.9857102 21.3065214,19.0245784 23,21.046299 C21.3569225,23.0011432 19.6634437,25.0160046 17.9958856,27 C17.3680313,26.2472135 16.7171364,25.4652758 16.0388809,24.6507573 C17.0195433,23.5035725 18.0606872,22.2877965 19.1363917,21.0308659" id="Fill-6" fill="#FFFFFF"></path>
                <path d="M37,24.6594957 C36.305453,25.4920929 35.6640017,26.2614333 35.0483805,27 C33.3694137,25.0099729 31.6717917,22.9943011 30,21.0128223 C31.6746618,19.0176663 33.3708487,16.995156 35.0440754,15 C35.6439114,15.7197606 36.2839279,16.4908107 36.9397294,17.278957 C35.9538745,18.4483545 34.9192291,19.6758798 33.8587536,20.9358883 C34.9608446,22.2420573 35.9997951,23.4730018 37,24.6594957" id="Fill-8" fill="#FFFFFF"></path>
            </g>
        </g>
    </g>
</svg>