<?xml version="1.0" encoding="UTF-8"?>
<svg width="66px" height="62px" viewBox="0 0 66 62" version="1.1" xmlns="http://www.w3.org/2000/svg" xmlns:xlink="http://www.w3.org/1999/xlink">
    <!-- Generator: Sketch 51.1 (57501) - http://www.bohemiancoding.com/sketch -->
    <title>Fill 1</title>
    <desc>Created with Sketch.</desc>
    <defs></defs>
    <g id="Page-1" stroke="none" stroke-width="1" fill="none" fill-rule="evenodd">
        <g id="Lesson-4" transform="translate(-655.000000, -12803.000000)" fill="#F67102">
            <path d="M668.563656,12852.7399 C670.007449,12851.2961 671.420481,12849.883 672.79003,12848.5133 C672.130218,12847.8538 671.446732,12847.1703 670.759541,12846.4835 C670.401854,12846.7576 666.688095,12850.5024 666.554748,12850.7363 C667.353544,12851.2796 668.022858,12851.9583 668.563656,12852.7399 M703.201949,12848.4578 C704.619169,12849.8747 706.037193,12851.2925 707.441529,12852.6967 C707.727227,12852.3678 708.025649,12851.9833 708.367553,12851.6422 C708.707686,12851.303 709.091301,12851.0075 709.413396,12850.7295 C707.997949,12849.314 706.57928,12847.8952 705.171401,12846.4873 C704.522701,12847.1364 703.845657,12847.8136 703.201949,12848.4578 M683.781533,12837.6428 C683.194192,12838.1406 679.363835,12842.0126 679.27848,12842.1611 C679.978232,12842.8609 680.660268,12843.5431 681.322174,12844.2051 C682.808483,12842.7188 684.330867,12841.1963 685.832153,12839.695 C685.165255,12839.0276 684.482574,12838.3444 683.781533,12837.6428 M681.621884,12835.5231 C680.942424,12834.8431 680.259582,12834.1598 679.614908,12833.5148 C678.116682,12835.0132 676.5885,12836.5417 675.106379,12838.0243 C675.761521,12838.6793 676.44549,12839.3628 677.112711,12840.0298 C678.607394,12838.5359 680.1301,12837.0142 681.621884,12835.5231 M682.762102,12850.7202 C682.766772,12850.1604 682.584788,12849.8023 682.276221,12849.4965 C681.58597,12848.8122 680.897492,12848.126 680.210462,12847.4385 C676.766136,12843.9927 673.322615,12840.5463 669.878449,12837.1007 C669.794705,12837.0169 669.711926,12836.93 669.617713,12836.8594 C669.138757,12836.5008 668.613259,12836.4391 668.076809,12836.689 C667.538588,12836.9398 667.250796,12837.3827 667.225994,12837.9829 C667.206024,12838.4678 667.424405,12838.8418 667.759062,12839.1759 C671.877212,12843.2889 675.991819,12847.4056 680.108036,12851.5207 C680.199994,12851.6127 680.29163,12851.7085 680.397278,12851.7832 C680.884125,12852.1271 681.408657,12852.1818 681.941725,12851.9169 C682.475759,12851.6515 682.73875,12851.1965 682.762102,12850.7202 M708.788854,12838.0998 C708.789176,12837.3115 708.267542,12836.6924 707.566341,12836.5731 C707.034561,12836.4826 706.585077,12836.6399 706.20726,12837.0197 C705.52168,12837.709 704.8361,12838.3981 704.148587,12839.0853 C700.70265,12842.5298 697.255908,12845.9736 693.809649,12849.4179 C693.734279,12849.4933 693.657298,12849.5679 693.589336,12849.6497 C693.090249,12850.2501 693.131478,12851.106 693.683549,12851.6496 C694.231916,12852.1897 695.100768,12852.2219 695.688592,12851.7211 C695.787637,12851.6367 695.877662,12851.5415 695.969782,12851.4494 C700.027216,12847.3923 704.084651,12843.3352 708.141603,12839.2777 C708.242097,12839.1771 708.344845,12839.078 708.437287,12838.9703 C708.67,12838.6989 708.780318,12838.3797 708.788854,12838.0998 M657.976222,12856.8822 C657.975739,12859.3349 659.950988,12861.3258 662.394403,12861.3355 C664.852957,12861.3454 666.859611,12859.3502 666.864926,12856.8909 C666.870079,12854.4333 664.870833,12852.441 662.403261,12852.4448 C659.951793,12852.4487 657.976544,12854.4284 657.976222,12856.8822 M713.61207,12852.445 C711.153678,12852.4381 709.158297,12854.4054 709.147185,12856.8472 C709.13575,12859.3206 711.110839,12861.3255 713.568909,12861.3355 C716.01313,12861.3454 718.023971,12859.3612 718.037499,12856.9258 C718.051188,12854.4555 716.072395,12852.4519 713.61207,12852.445 M712.919726,12806.4089 C712.776555,12806.4216 712.682664,12806.4213 712.592799,12806.4391 C710.166133,12806.9253 707.740433,12807.4151 705.312962,12807.8969 C705.139675,12807.9314 705.009709,12808.0032 704.887796,12808.1253 C700.019003,12812.9973 695.148438,12817.8674 690.279001,12822.7384 C690.224084,12822.7935 690.180279,12822.8597 690.177058,12822.8637 C690.883413,12823.5699 691.565772,12824.252 692.291775,12824.9781 C692.352329,12824.902 692.430759,12824.7805 692.530609,12824.6807 C696.033073,12821.1747 699.53747,12817.6708 703.041707,12814.1667 C703.1422,12814.066 703.240439,12813.9626 703.347053,12813.8687 C703.948566,12813.3386 704.815164,12813.3581 705.37577,12813.9116 C705.944591,12814.4732 705.966815,12815.3594 705.42489,12815.9677 C705.338246,12816.0648 705.243389,12816.155 705.15127,12816.2471 C701.630285,12819.7681 698.109783,12823.2894 694.586382,12826.8078 C694.495712,12826.8986 694.374927,12826.9593 694.293759,12827.0164 C695.041825,12827.7628 695.727566,12828.4473 696.428123,12829.1464 C696.467902,12829.11 696.547943,12829.0423 696.621864,12828.9684 C701.459413,12824.1317 706.295675,12819.294 711.136123,12814.4603 C711.295883,12814.3007 711.383331,12814.1284 711.426009,12813.9105 C711.696891,12812.5275 711.976953,12811.1462 712.252828,12809.7643 C712.47298,12808.6616 712.6912,12807.5586 712.919726,12806.4089 M701.018304,12837.9536 C700.901383,12837.8615 700.779309,12837.7838 700.679459,12837.6842 C690.861189,12827.8688 681.044689,12818.052 671.228029,12808.2351 C671.186156,12808.1933 671.141063,12808.154 671.102734,12808.109 C670.997731,12807.9863 670.86696,12807.9316 670.706557,12807.8995 C668.267329,12807.4149 665.829711,12806.9226 663.390966,12806.4353 C663.30545,12806.4182 663.213492,12806.4332 663.111227,12806.4332 C663.121856,12806.535 663.123949,12806.6174 663.139893,12806.697 C663.626418,12809.1241 664.116647,12811.5505 664.597374,12813.9787 C664.634415,12814.1656 664.713329,12814.3031 664.844583,12814.4331 C665.535477,12815.1169 666.221057,12815.8062 666.908408,12816.4937 C671.636446,12821.2215 676.364483,12825.9494 681.092359,12830.6775 C685.543878,12835.129 689.995235,12839.5805 694.447076,12844.0315 C694.535974,12844.1204 694.630026,12844.2043 694.721662,12844.2905 C694.710389,12844.2613 694.699277,12844.2324 694.688003,12844.2034 C695.370201,12843.5204 696.05256,12842.8375 696.780334,12842.1091 C696.700777,12842.0453 696.570167,12841.9595 696.461943,12841.8514 C687.934791,12833.3272 679.40925,12824.8013 670.883709,12816.2754 C670.77468,12816.1664 670.661463,12816.0611 670.560808,12815.9447 C670.039497,12815.342 670.069291,12814.4685 670.626355,12813.9151 C671.183258,12813.3618 672.057746,12813.3383 672.6562,12813.8634 C672.762813,12813.9572 672.860408,12814.0614 672.961063,12814.162 C679.541953,12820.7426 686.122683,12827.3235 692.703574,12833.9042 C694.682044,12835.8827 696.660354,12837.8611 698.639147,12839.8391 C698.728206,12839.928 698.822419,12840.0115 698.895857,12840.0802 C699.600279,12839.3743 700.277001,12838.6962 701.018304,12837.9536 M672.868943,12835.8803 C674.409042,12834.3402 675.933036,12832.8163 677.476195,12831.2733 C677.419989,12831.2118 677.34623,12831.1242 677.265384,12831.0434 C672.276449,12826.0554 667.287354,12821.0674 662.296325,12816.0815 C662.035428,12815.821 661.878085,12815.5187 661.806418,12815.1568 C661.300407,12812.6008 660.788275,12810.046 660.277271,12807.4909 C660.100763,12806.6084 659.926187,12805.7252 659.743881,12804.8438 C659.51165,12803.7211 660.42012,12802.8138 661.545682,12803.0396 C664.958926,12803.7245 668.372976,12804.4061 671.787669,12805.0847 C672.170158,12805.1607 672.501916,12805.3079 672.782944,12805.5893 C677.65061,12810.4639 682.521657,12815.3349 687.391739,12820.2073 C687.58403,12820.3997 687.772455,12820.5964 687.978435,12820.8073 C688.065079,12820.7352 688.139805,12820.6827 688.203419,12820.6191 C693.200245,12815.6222 698.197071,12810.6254 703.18987,12805.6242 C703.478629,12805.335 703.809099,12805.1673 704.206564,12805.0884 C707.633337,12804.4074 711.058337,12803.7176 714.484787,12803.0343 C715.678795,12802.7962 716.46664,12803.844 716.276282,12804.7631 C715.988006,12806.1549 715.713259,12807.5496 715.435291,12808.9434 C715.020915,12811.0229 714.607506,12813.1025 714.196512,12815.1824 C714.127584,12815.5309 713.96863,12815.8226 713.71659,12816.0743 C708.74215,12821.0436 703.769964,12826.0148 698.796812,12830.9849 C698.704854,12831.0769 698.60436,12831.1601 698.468758,12831.2828 C700.021419,12832.8358 701.549117,12834.364 703.093242,12835.9086 C703.180369,12835.8347 703.253806,12835.7801 703.318387,12835.7163 C703.613748,12835.4248 703.897192,12835.1208 704.201572,12834.8391 C705.494946,12833.642 707.005573,12833.2718 708.676764,12833.8102 C710.354559,12834.3508 711.370126,12835.5522 711.680787,12837.2793 C711.945227,12838.7487 711.520544,12840.0546 710.475184,12841.1298 C709.533216,12842.0988 708.567735,12843.0454 707.610307,12843.9995 C707.518349,12844.0913 707.410286,12844.167 707.294331,12844.2625 C707.384357,12844.3697 707.437019,12844.4432 707.499989,12844.5063 C709.108855,12846.1168 710.721748,12847.7234 712.324333,12849.3401 C712.486669,12849.5039 712.64208,12849.5445 712.858206,12849.5213 C716.556988,12849.1247 720.098748,12851.6162 720.8539,12855.435 C721.649476,12859.4572 719.107339,12863.2181 715.265385,12864.1035 C711.327287,12865.011 707.446843,12862.6494 706.421131,12858.7485 C706.202589,12857.9171 706.106444,12857.0701 706.221271,12856.2124 C706.257828,12855.9396 706.180687,12855.754 705.984531,12855.56 C704.408679,12854.0002 702.844423,12852.4289 701.276302,12850.8614 C701.193202,12850.7786 701.106236,12850.6999 700.961937,12850.5628 C700.874005,12850.6821 700.808137,12850.7991 700.716823,12850.891 C699.789349,12851.8245 698.857205,12852.7535 697.927155,12853.6849 C696.948629,12854.6649 695.769921,12855.1089 694.387005,12855.0222 C692.448958,12854.9006 690.742496,12853.4238 690.373858,12851.5128 C690.07431,12849.9607 690.476124,12848.6022 691.578012,12847.4607 C691.913796,12847.1128 692.259082,12846.7742 692.573125,12846.4582 C691.023364,12844.9086 689.49325,12843.3788 687.981656,12841.8672 C686.485524,12843.3633 684.961529,12844.8872 683.419176,12846.4295 C683.472,12846.4878 683.538512,12846.5671 683.611145,12846.6402 C683.902963,12846.9354 684.208471,12847.2177 684.487566,12847.5242 C685.682862,12848.8364 686.058586,12850.3562 685.477848,12852.0369 C684.898077,12853.7148 683.672987,12854.7182 681.921433,12854.986 C680.463629,12855.209 679.177181,12854.7691 678.120064,12853.7234 C677.176163,12852.7895 676.239832,12851.8477 675.303501,12850.906 C675.212187,12850.8142 675.144386,12850.6991 675.053716,12850.5788 C674.927455,12850.6852 674.853856,12850.7387 674.790403,12850.802 C673.179765,12852.4108 671.571866,12854.0224 669.957363,12855.6274 C669.809199,12855.7748 669.761368,12855.9099 669.784559,12856.1236 C670.208436,12860.0197 667.460963,12863.5903 663.581325,12864.1994 C659.534197,12864.8349 655.760206,12862.107 655.097656,12858.0676 C654.442836,12854.0751 657.150047,12850.2842 661.150793,12849.5907 C661.796433,12849.4788 662.445294,12849.4244 663.096893,12849.517 C663.352315,12849.5532 663.533171,12849.4957 663.72353,12849.3031 C665.281988,12847.726 666.85333,12846.1615 668.423223,12844.596 C668.506645,12844.5129 668.612776,12844.4527 668.733562,12844.3631 C668.598443,12844.2175 668.515986,12844.1228 668.42741,12844.0343 C667.471431,12843.0765 666.509654,12842.1246 665.55899,12841.1613 C664.665175,12840.2556 664.23244,12839.1606 664.257081,12837.8858 C664.296376,12835.8538 665.830838,12834.0321 667.834916,12833.6691 C669.389509,12833.3872 670.744081,12833.7971 671.877051,12834.9083 C672.139398,12835.1657 672.39643,12835.4285 672.657488,12835.6872 C672.731731,12835.7608 672.811772,12835.8284 672.868943,12835.8803" id="Fill-1"></path>
        </g>
    </g>
</svg>