<?xml version="1.0" encoding="UTF-8"?>
<svg width="54px" height="55px" viewBox="0 0 54 55" version="1.1" xmlns="http://www.w3.org/2000/svg" xmlns:xlink="http://www.w3.org/1999/xlink">
    <!-- Generator: Sketch 52.2 (67145) - http://www.bohemiancoding.com/sketch -->
    <title>target</title>
    <desc>Created with Sketch.</desc>
    <g id="Page-1" stroke="none" stroke-width="1" fill="none" fill-rule="evenodd">
        <g id="Desktop" transform="translate(-394.000000, -5936.000000)" fill="#F67102">
            <g id="target" transform="translate(394.000000, 5936.000000)">
                <path d="M40.6412302,13.0724211 C40.5710126,13.0478693 40.5007949,13.0230386 40.4305773,12.9982079 C40.4305773,12.5861295 40.3469849,12.1511733 40.4511968,11.7672736 C40.5891242,11.2594992 40.4885347,10.9699005 40.0666718,10.6459851 C36.4348608,7.85713209 32.3683693,6.19375259 27.8047817,5.71750489 C23.1899241,5.23567725 18.796865,6.01993753 14.7030667,8.15063682 C7.98474575,11.6478629 3.73602286,17.122898 2.10931482,24.5595603 C0.933727074,29.9347145 1.64649158,35.1062009 4.06760603,40.0176623 C9.16674225,50.3609142 21.0028684,55.6716201 31.9891385,52.3027326 C41.6794477,49.3316947 47.4141648,42.5994996 48.9784572,32.5966238 C50.0094301,26.0056012 48.1807071,20.001588 44.1245254,14.691998 C43.8269364,14.3022394 43.5340844,14.2531359 43.0943884,14.3449259 C42.6839497,14.430299 42.2506625,14.4057472 41.8271276,14.429741 C41.7984276,14.3440889 41.7694489,14.2584369 41.7404702,14.1725058 C36.4777715,19.4547541 31.2150729,24.7370023 25.9849752,29.9860499 C25.5700783,29.6253069 25.1922407,29.2966486 24.763133,28.9236297 C30.0904765,23.6053909 35.365714,18.3390455 40.6412302,13.0724211 M28.1085007,4 C28.2227437,4.04352352 28.3336429,4.11271475 28.4509509,4.1261066 C32.2538477,4.56385273 35.7652857,5.82296572 38.9933454,7.87554588 C39.716141,8.33505377 40.416088,8.83055226 41.1048893,9.29480309 C41.3030033,9.02166513 45.5481039,3.24887543 47.5359413,0.715471802 C47.7153451,0.486830273 47.1078487,7.46509279 47.1078487,7.46509279 C47.1078487,7.46509279 54.0059923,5.20362916 53.815469,5.41409685 C53.815469,5.41409685 46.0022892,13.4125183 45.5455961,13.616744 C45.5455961,13.70407 45.5291563,13.7556845 45.5481039,13.7849791 C45.6394982,13.9267096 45.73758,14.064534 45.8384481,14.1995685 C48.7413334,18.0829263 50.3719425,22.4813124 50.7999355,27.275037 C50.9768728,29.258984 50.8486978,31.3112851 50.5575176,33.2876992 C49.7079402,39.055681 47.1071021,43.9601674 42.8756549,47.9816287 C38.5681387,52.0753501 33.3915402,54.2813786 27.5367288,54.8890338 C24.829171,55.1697047 22.1193841,54.9040997 19.4695052,54.2487359 C14.5358819,53.0286825 10.2969115,50.5916446 6.81723861,46.869826 C3.63626927,43.4671799 1.53587097,39.4861732 0.535269982,34.9318279 C0.332419098,34.0080691 0.177215881,33.0739875 0,32.1446489 L0,26.7959994 C0.141271151,25.9857924 0.257464583,25.1700055 0.427993072,24.3659364 C1.5495244,19.0728073 4.03862734,14.5357598 7.9864176,10.828449 C11.3811048,7.6400725 15.359267,5.53531992 19.9100371,4.53734802 C20.8560244,4.33005333 21.8142719,4.17772102 22.7666679,4 L28.1085007,4 Z" id="Fill-1"></path>
                <path d="M36.6586966,14.0736993 C35.5309043,15.1986281 34.4344473,16.276396 33.3585107,17.3744153 C33.0764933,17.6626524 32.8687931,17.5655562 32.5928764,17.3846798 C29.9859486,15.6746769 27.1211287,14.9531134 24.0117274,15.1284414 C18.5538449,15.4360977 13.4719856,19.3831971 11.7870911,24.6491404 C9.63993202,31.36043 12.6508907,38.4434593 18.9678587,41.5411056 C26.8316241,45.397212 36.4412909,40.8883417 38.4875115,32.3660692 C39.402335,28.5560142 38.8593752,24.9556869 36.7460472,21.6383258 C36.4027457,21.0993031 36.4426774,20.8041307 36.8941271,20.3777396 C37.9198718,19.4092744 38.888492,18.380332 39.8820696,17.3741379 C44.3768779,22.3124509 46.2988667,32.7866345 39.8496251,40.9249609 C33.3102599,49.1770285 20.7309527,50.4051568 12.7521064,43.5804033 C4.32929752,36.3764198 3.86952874,23.9625315 10.9088717,16.2378349 C18.3855218,8.03348313 30.1182222,8.57749928 36.6586966,14.0736993" id="Fill-6"></path>
                <path d="M30.2978565,21.3556759 C29.0747588,22.5611499 27.9100674,23.7267853 26.7156002,24.8614671 C26.5801777,24.9901542 26.2744032,24.9841354 26.0525164,24.9686586 C23.1112984,24.7668864 20.9296494,26.7906268 20.9705911,29.6951141 C20.9980764,31.6334453 22.4052687,33.3889204 24.3610226,33.9245911 C26.2016816,34.4281617 28.3589947,33.5531469 29.3579151,31.9300847 C29.9319579,30.9974617 30.0977289,29.9974858 30.0218579,28.9249979 C30.0052521,28.6916989 30.0502021,28.3747102 30.1970769,28.2213749 C31.2670011,27.1067556 32.3692779,26.0233767 33.4646833,24.9331192 C33.5210855,24.876944 33.6066909,24.849143 33.6756906,24.8098777 C35.4874327,27.2331498 35.8599163,32.7781583 32.0769598,36.4034652 C28.5857487,39.7490426 22.7625781,39.9000851 19.1894837,36.6327518 C15.3896351,33.1582008 14.9306871,27.3343225 18.1052442,23.4857479 C21.6199323,19.2244574 27.2701743,19.3284962 30.2978565,21.3556759" id="Fill-8"></path>
            </g>
        </g>
    </g>
</svg>