<?xml version="1.0" encoding="UTF-8"?>
<svg width="54px" height="55px" viewBox="0 0 54 55" version="1.1" xmlns="http://www.w3.org/2000/svg" xmlns:xlink="http://www.w3.org/1999/xlink">
    <!-- Generator: Sketch 51.1 (57501) - http://www.bohemiancoding.com/sketch -->
    <title>target</title>
    <desc>Created with Sketch.</desc>
    <defs></defs>
    <g id="Page-1" stroke="none" stroke-width="1" fill="none" fill-rule="evenodd">
        <g id="Lesson-3" transform="translate(-458.000000, -1622.000000)" fill="#32C5DD">
            <g id="target" transform="translate(458.000000, 1622.000000)">
                <path d="M41.0863625,11.4918923 C41.0161449,11.4673405 40.9459273,11.4425098 40.8757097,11.4176791 C40.8757097,11.0056007 40.7921173,10.5706445 40.8963291,10.1867448 C41.0342566,9.67897044 40.9336671,9.38937167 40.5118041,9.06545627 C36.8799931,6.2766033 32.8135016,4.6132238 28.249914,4.1369761 C23.6350565,3.65514846 19.2419974,4.43940874 15.148199,6.57010803 C8.4298781,10.0673341 4.18115521,15.5423692 2.55444716,22.9790315 C1.37885942,28.3541857 2.09162392,33.5256721 4.51273838,38.4371335 C9.61187459,48.7803854 21.4480007,54.0910913 32.4342708,50.7222038 C42.1245801,47.7511659 47.8592972,41.0189708 49.4235895,31.0160951 C50.4545624,24.4250724 48.6258394,18.4210592 44.5696577,13.1114693 C44.2720688,12.7217106 43.9792167,12.6726071 43.5395207,12.7643971 C43.1290821,12.8497702 42.6957948,12.8252184 42.27226,12.8492122 C42.2435599,12.7635601 42.2145812,12.6779081 42.1856025,12.591977 C36.9229039,17.8742253 31.6602052,23.1564735 26.4301076,28.4055211 C26.0152106,28.0447781 25.637373,27.7161198 25.2082654,27.3431009 C30.5356088,22.0248621 35.8108464,16.7585167 41.0863625,11.4918923 M28.1085007,3.29002648 C28.2227437,3.33355 28.3336429,3.40274123 28.4509509,3.41613308 C32.2538477,3.85387921 35.7652857,5.1129922 38.9933454,7.16557237 C39.716141,7.62508025 40.416088,8.12057874 41.1048893,8.58482958 C41.3030033,8.31169162 45.5481039,2.53890192 47.5359413,0.00549828678 C47.7153451,-0.223143242 47.1078487,6.75511927 47.1078487,6.75511927 C47.1078487,6.75511927 54.0059923,4.49365564 53.815469,4.70412333 C53.815469,4.70412333 46.0022892,12.7025448 45.5455961,12.9067705 C45.5455961,12.9940965 45.5291563,13.0457109 45.5481039,13.0750056 C45.6394982,13.216736 45.73758,13.3545605 45.8384481,13.489595 C48.7413334,17.3729528 50.3719425,21.7713389 50.7999355,26.5650635 C50.9768728,28.5490105 50.8486978,30.6013116 50.5575176,32.5777256 C49.7079402,38.3457075 47.1071021,43.2501939 42.8756549,47.2716552 C38.5681387,51.3653766 33.3915402,53.5714051 27.5367288,54.1790603 C24.829171,54.4597312 22.1193841,54.1941261 19.4695052,53.5387624 C14.5358819,52.318709 10.2969115,49.8816711 6.81723861,46.1598525 C3.63626927,42.7572064 1.53587097,38.7761997 0.535269982,34.2218543 C0.332419098,33.2980956 0.177215881,32.364014 0,31.4346754 L0,26.0860259 C0.141271151,25.2758189 0.257464583,24.460032 0.427993072,23.6559629 C1.5495244,18.3628338 4.03862734,13.8257863 7.9864176,10.1184755 C11.3811048,6.93009899 15.359267,4.8253464 19.9100371,3.82737451 C20.8560244,3.62007981 21.8142719,3.46774751 22.7666679,3.29002648 L28.1085007,3.29002648 Z" id="Fill-1"></path>
                <path d="M36.6586966,13.0736993 C35.5309043,14.1986281 34.4344473,15.276396 33.3585107,16.3744153 C33.0764933,16.6626524 32.8687931,16.5655562 32.5928764,16.3846798 C29.9859486,14.6746769 27.1211287,13.9531134 24.0117274,14.1284414 C18.5538449,14.4360977 13.4719856,18.3831971 11.7870911,23.6491404 C9.63993202,30.36043 12.6508907,37.4434593 18.9678587,40.5411056 C26.8316241,44.397212 36.4412909,39.8883417 38.4875115,31.3660692 C39.402335,27.5560142 38.8593752,23.9556869 36.7460472,20.6383258 C36.4027457,20.0993031 36.4426774,19.8041307 36.8941271,19.3777396 C37.9198718,18.4092744 38.888492,17.380332 39.8820696,16.3741379 C44.3768779,21.3124509 46.2988667,31.7866345 39.8496251,39.9249609 C33.3102599,48.1770285 20.7309527,49.4051568 12.7521064,42.5804033 C4.32929752,35.3764198 3.86952874,22.9625315 10.9088717,15.2378349 C18.3855218,7.03348313 30.1182222,7.57749928 36.6586966,13.0736993" id="Fill-6"></path>
                <path d="M30.2978565,20.3556759 C29.0747588,21.5611499 27.9100674,22.7267853 26.7156002,23.8614671 C26.5801777,23.9901542 26.2744032,23.9841354 26.0525164,23.9686586 C23.1112984,23.7668864 20.9296494,25.7906268 20.9705911,28.6951141 C20.9980764,30.6334453 22.4052687,32.3889204 24.3610226,32.9245911 C26.2016816,33.4281617 28.3589947,32.5531469 29.3579151,30.9300847 C29.9319579,29.9974617 30.0977289,28.9974858 30.0218579,27.9249979 C30.0052521,27.6916989 30.0502021,27.3747102 30.1970769,27.2213749 C31.2670011,26.1067556 32.3692779,25.0233767 33.4646833,23.9331192 C33.5210855,23.876944 33.6066909,23.849143 33.6756906,23.8098777 C35.4874327,26.2331498 35.8599163,31.7781583 32.0769598,35.4034652 C28.5857487,38.7490426 22.7625781,38.9000851 19.1894837,35.6327518 C15.3896351,32.1582008 14.9306871,26.3343225 18.1052442,22.4857479 C21.6199323,18.2244574 27.2701743,18.3284962 30.2978565,20.3556759" id="Fill-8"></path>
            </g>
        </g>
    </g>
</svg>