<?xml version="1.0" encoding="UTF-8"?>
<svg width="48px" height="48px" viewBox="0 0 48 48" version="1.1" xmlns="http://www.w3.org/2000/svg" xmlns:xlink="http://www.w3.org/1999/xlink">
    <!-- Generator: Sketch 52.2 (67145) - http://www.bohemiancoding.com/sketch -->
    <title>Group 11</title>
    <desc>Created with Sketch.</desc>
    <g id="Page-1" stroke="none" stroke-width="1" fill="none" fill-rule="evenodd">
        <g id="Lesson-10" transform="translate(-292.000000, -8825.000000)" fill="#32C5DD">
            <g id="Group-11" transform="translate(292.000000, 8825.000000)">
                <path d="M5.93044242,27.1870045 C5.93044242,27.514407 5.91879691,27.8423015 5.93342845,28.1692118 C5.95144415,28.571525 6.17798413,28.8113182 6.58358625,28.83829 C6.99326927,28.8655571 7.28739301,28.6378717 7.31347099,28.2554428 C7.36134697,27.5549631 7.36144651,26.847199 7.31615842,26.1465225 C7.29177252,25.767342 7.01028963,25.5304035 6.5962271,25.5497956 C6.18694221,25.5689909 5.95771481,25.8036654 5.935021,26.2048958 C5.91650763,26.5314122 5.9312387,26.8596021 5.93044242,27.1870045 M11.4062203,40.8756933 C11.6111614,40.6827562 11.8673625,40.5350018 11.9783432,40.3153883 C12.1486464,39.9786343 11.9575406,39.6927724 11.6761572,39.4647917 C9.53457805,37.7305236 8.17643304,35.5203113 7.57315588,32.8512828 C7.44843945,32.2995418 7.12963121,32.0570907 6.68859489,32.1570046 C6.27692119,32.2503231 6.08740795,32.6179864 6.19928446,33.1307462 C6.8568078,36.1427302 8.43064355,38.6005123 10.8144891,40.562958 C10.9599087,40.6827562 11.1538014,40.7446733 11.4062203,40.8756933 M28.7680812,45.7975575 C29.0694709,45.7975575 29.2814789,45.7976559 29.4933873,45.7975575 C32.5620286,45.7969669 35.6305704,45.7989356 38.6991121,45.7930294 C39.2225628,45.792045 39.6482709,45.9431462 39.8865559,46.4335608 C40.0762682,46.823963 40.022022,47.2038325 39.7688068,47.5479693 C39.4991685,47.9145497 39.1086956,48.0008792 38.6707449,47.9999933 C35.9670957,47.9941855 33.263347,47.9973355 30.5596979,47.997237 C20.955836,47.9966464 11.3518746,47.9961542 1.7479132,47.9955636 L1.49907755,47.9955636 C0.529713369,47.9950714 -0.00807024821,47.595416 9.15612734e-05,46.8817457 C0.00805430223,46.1853019 0.537377507,45.7970653 1.47588606,45.7972622 C4.47813801,45.7976559 7.48038995,45.797459 10.4826419,45.7975575 L11.2712518,45.7975575 C10.4185418,45.1903963 9.64008436,44.698899 8.93289343,44.1221549 C4.57677646,40.5691596 2.36412982,35.9827696 2.30012929,30.4042303 C2.2624058,27.1237094 2.29316189,23.8424994 2.29306235,20.5616831 L2.29306235,20 L37.7007835,20 L37.7007835,20.5418972 C37.7007835,23.8227135 37.7431851,27.1042188 37.6918254,30.3842475 C37.5898028,36.9048317 34.7052999,41.9138129 29.1799539,45.4505661 C29.0825099,45.5128769 28.9831747,45.5722345 28.8877213,45.6371047 C28.8629373,45.6539375 28.8493011,45.686914 28.7680812,45.7975575" id="Fill-1"></path>
                <path d="M38,34.9903312 C38.2504175,33.8136526 38.4898345,32.6891817 38.74679,31.4821826 C38.9002784,31.4821826 39.1004671,31.4854957 39.3006558,31.4816806 C40.1120997,31.4660183 40.9314309,31.5123023 41.7330159,31.4178267 C43.2590786,31.2377105 44.3872545,29.9188667 44.3547718,28.4580585 C44.3214589,26.9505646 43.156753,25.6979843 41.5988303,25.5594334 C40.8782963,25.4953787 40.1483184,25.5317232 39.4226993,25.5235909 C39.2351715,25.5214825 39.0476438,25.5232897 38.792245,25.5232897 L38.792245,23.7880904 L38.792245,22.0280926 C40.7301006,22.0104223 42.6491724,21.8156479 44.4277281,22.7663279 C45.927431,23.567915 47.0042366,24.7269233 47.5885094,26.2806008 C49.1616875,30.4637332 46.0356719,34.8691493 41.4163878,34.986014 C40.2820889,35.0147282 39.1463372,34.9903312 38,34.9903312" id="Fill-4"></path>
                <path d="M19.3382508,1.26237754 C19.2970991,1.5579628 19.2313341,1.9130998 19.2003973,2.27204029 C19.0018377,4.57347584 20.2299692,6.62681537 22.21683,7.2915562 C24.7941161,8.153861 26.4213126,10.0328922 26.9212625,12.9821159 C27.0821726,13.9311402 26.9629007,14.9598203 26.8606536,15.9375338 C26.778642,16.7213781 26.1848116,17.1181361 25.5652006,16.9690394 C24.940628,16.8186387 24.6281471,16.2212739 24.7602608,15.4299313 C25.2309278,12.6089395 24.0687558,10.465729 21.6164815,9.63265668 C18.3245364,8.51432288 16.3712392,4.74126394 17.1838645,1.07035579 C17.3425371,0.353670202 17.8312019,-0.0727550071 18.3986679,0.0102696768 C18.9435637,0.0899255582 19.333873,0.584161504 19.3382508,1.26237754" id="Fill-7"></path>
                <path d="M17,13.9013135 C16.9387874,14.2888551 16.9025709,14.6808328 16.8109187,15.0631832 C16.6452782,15.755114 16.0301531,16.1084885 15.2847152,15.9704987 C14.5979346,15.8433632 14.2296594,15.2929144 14.4034098,14.6120267 C14.6601471,13.6052302 14.4339605,12.6820581 13.5902048,11.9530344 C13.1546069,11.5767245 12.5632558,11.2970641 11.9870134,11.0796972 C11.2253558,10.7923917 10.8343064,10.2906452 11.0667142,9.686303 C11.2830134,9.12377305 11.967572,8.87072895 12.7486709,9.06449976 C15.2195032,9.67743088 16.950119,11.6618591 17,13.9013135" id="Fill-9"></path>
            </g>
        </g>
    </g>
</svg>