<?xml version="1.0" encoding="UTF-8"?>
<svg width="92px" height="90px" viewBox="0 0 92 90" version="1.1" xmlns="http://www.w3.org/2000/svg" xmlns:xlink="http://www.w3.org/1999/xlink">
    <!-- Generator: Sketch 52.2 (67145) - http://www.bohemiancoding.com/sketch -->
    <title>Group 4</title>
    <desc>Created with Sketch.</desc>
    <g id="Page-1" stroke="none" stroke-width="1" fill="none" fill-rule="evenodd">
        <g id="Lesson-10" transform="translate(-47.000000, -4089.000000)" fill-rule="nonzero">
            <g id="Group-4" transform="translate(47.000000, 4089.000000)">
                <rect id="Rectangle" fill="#97B306" x="0" y="0" width="92" height="90"></rect>
                <g id="wheel" transform="translate(5.000000, 9.000000)" fill="#FFFFFF">
                    <path d="M30.2731434,45.7993649 C30.2784948,42.193176 27.5197921,39.3027851 24.0550353,39.2842183 C20.566765,39.2654887 17.7680083,42.1439903 17.7530894,45.7658144 C17.7381705,49.3804724 20.5145488,52.2698861 24.0003867,52.3021336 C27.5400623,52.3347069 30.2702245,49.3255864 30.2731434,45.7993649 M11.8155218,29.6234691 C11.7034677,29.1874756 11.6433056,28.8532737 11.5315759,28.5374756 C11.2221705,27.6630457 10.8881164,26.7972476 10.5696299,25.9259121 C10.2626569,25.0864984 10.5472515,24.177215 11.3418461,23.7606027 C12.6406029,23.0793323 13.9685488,22.4529479 15.2935759,21.823632 C15.7790894,21.5930131 16.2826029,21.3915473 16.7939002,21.2268893 C17.5215218,20.9926874 18.1541164,21.1946418 18.5360083,21.8575082 C19.0417921,22.7356841 19.4880623,23.650505 19.9215218,24.5679317 C20.3875759,25.5542509 21.1309272,25.9926874 22.2135218,25.9220033 C23.0484948,25.8672802 23.886711,25.8643486 24.7236299,25.8400815 C25.9481164,25.8047395 26.5708191,25.3198861 26.9914677,24.1850326 C27.3234137,23.2891043 27.7108191,22.4122313 28.1084407,21.5430131 C28.3690353,20.9733063 29.1918461,20.6654887 29.8283326,20.9120685 C31.7544948,21.6584854 33.6749813,22.4205375 35.5863867,23.204088 C36.2793056,23.4881271 36.583684,24.3180945 36.3446569,25.1239577 C36.0680083,26.0562053 35.7817921,26.9856841 35.4899002,27.9135343 C35.1954137,28.8500164 35.3844948,29.6436646 36.1079002,30.3249349 C36.8123326,30.9884528 37.4810894,31.6897558 38.1761164,32.3633714 C38.818765,32.9861727 39.5658461,33.1462704 40.4074677,32.8216776 C41.2846029,32.4835668 42.160765,32.1423616 43.0409813,31.8119056 C43.8864948,31.4944789 44.6244948,31.7439903 45.0905488,32.5115799 C46.1820623,34.3096255 46.9742245,36.2408958 47.5701705,38.2542509 C47.8252515,39.116303 47.4761164,39.8612541 46.6805488,40.2935017 C45.8066569,40.7682574 44.9340623,41.2457818 44.0703867,41.7387786 C43.3850894,42.1298209 43.0474677,42.7506678 43.0542786,43.530961 C43.063684,44.636987 43.0800623,45.7448046 43.1533596,46.8477362 C43.2115759,47.7255864 43.6283326,48.4066939 44.4706029,48.7747721 C45.3052515,49.1395929 46.1366569,49.5117427 46.9662786,49.8879642 C47.8140623,50.2724919 48.1539542,51.0977362 47.8310894,51.9798209 C47.1279542,53.9024593 46.4240083,55.8247721 45.7160083,57.745619 C45.4215218,58.5444789 44.6984407,58.9277036 43.8863326,58.6702118 C42.9822786,58.3835668 42.0928191,58.0503421 41.1989813,57.7311238 C40.3533056,57.4290066 39.6221164,57.5739577 39.0099542,58.2575082 C38.2559002,59.0998535 37.4724948,59.9167916 36.7421164,60.7793323 C36.1559002,61.4716776 36.2082786,62.2720033 36.5089272,63.0781922 C36.817684,63.9060424 37.1058461,64.7421988 37.4348732,65.5617427 C37.822765,66.5277036 37.5024948,67.3739577 36.6193596,67.8606027 C35.2724407,68.6031108 33.853684,69.2148372 32.4624948,69.8762378 C32.1352515,70.0317753 31.8042786,70.1863356 31.4616299,70.3009935 C30.4344948,70.6451304 29.7879542,70.3783551 29.286711,69.4021336 C28.8564948,68.5643486 28.4473596,67.7154887 28.0297921,66.8713519 C27.6039542,66.0109284 26.9068191,65.6262378 25.9589813,65.6636971 C25.1373056,65.6961076 24.3151434,65.7203747 23.4928191,65.740733 C22.0508732,65.7765636 21.4933596,66.1987134 20.9728191,67.5628828 C20.647684,68.4146743 20.273738,69.2490392 19.8926569,70.0777036 C19.6213596,70.6677688 18.7935218,70.918746 18.0850353,70.63829 C16.669684,70.0777036 15.2614677,69.4993649 13.8488732,68.9316124 C13.4671434,68.7783551 13.0805488,68.6374756 12.6965488,68.4899186 C11.8211975,68.1539251 11.424711,67.3697232 11.6917921,66.4656515 C11.9713596,65.5189089 12.2664948,64.5770522 12.5585488,63.6342183 C12.8386029,62.7301466 12.6501705,61.9568567 11.9613056,61.2961076 C11.2521705,60.6159773 10.5670353,59.9106027 9.86276502,59.2249349 C9.21914339,58.5982248 8.46703529,58.4483877 7.62962988,58.7669545 C6.76449475,59.0959447 5.90422448,59.4376385 5.03957583,59.7676059 C4.15481907,60.1050652 3.41000826,59.851645 2.92335961,59.0413844 C1.85617042,57.2643486 1.07860286,55.3586483 0.483467723,53.3777036 C0.212008263,52.473632 0.548656912,51.7413844 1.36335961,51.298062 C2.23692718,50.8228177 3.11033258,50.3465962 3.9725488,49.8513193 C4.62217042,49.4783551 4.97860285,48.8905701 4.97535961,48.143176 C4.97033258,46.9633714 4.96157583,45.7803095 4.86508934,44.6060424 C4.80135961,43.8280294 4.41152177,43.1874756 3.64481907,42.8511564 C2.77027853,42.4676059 1.89687312,42.0811238 1.02962988,41.6811238 C0.246386642,41.3198861 -0.10096471,40.4633714 0.194008263,39.6470848 C0.909792047,37.6664659 1.62768393,35.6868242 2.34946772,33.7084854 C2.55800826,33.1368242 3.30476502,32.701645 3.94238664,32.882101 C4.91065691,33.1563681 5.85557583,33.5150001 6.80681907,33.8485506 C7.63595421,34.13943 8.21276502,34.1193975 8.96681907,33.3684203 C9.78768393,32.5508307 10.5660623,31.6850326 11.3001705,30.7884528 C11.5717921,30.4568567 11.6650353,29.9778665 11.8155218,29.6234691" id="Fill-1"></path>
                    <path d="M68.9997346,22.7638539 C69.044195,19.2584357 66.1432365,16.2278903 62.7369875,16.2622539 C59.3868818,16.2961266 56.5435271,19.2882176 56.5811724,22.835363 C56.6189799,26.4270176 59.3742252,29.264963 62.8302893,29.2441812 C66.2959271,29.2232357 69.0166101,26.3654903 68.9997346,22.7638539 M84.2726856,22.7365266 C84.1986931,23.6964176 84.1462818,24.5689266 84.0599573,25.4379994 C83.987912,26.1622539 83.471912,26.6497266 82.7506478,26.7050357 C82.0181875,26.761163 81.2849158,26.8071448 80.5513195,26.8455994 C79.5910403,26.8958357 78.9299761,27.3500903 78.5841912,28.2667812 C78.2815686,29.0690903 77.945195,29.858963 77.6576629,30.6665085 C77.4006365,31.3881448 77.5075686,32.0593812 78.0289233,32.6512539 C78.5927912,33.291563 79.1475724,33.9403812 79.6932667,34.5967266 C80.2009912,35.2070903 80.1703233,35.8955085 79.6309573,36.4729812 C78.4665497,37.719563 77.3084705,38.972363 76.1343271,40.2096176 C75.5221044,40.8546721 74.8091158,40.8769266 74.1493497,40.2806357 C73.5393988,39.7293448 72.9576818,39.1461448 72.3504893,38.5912539 C71.7686101,38.0594357 71.1005686,37.9659994 70.3866063,38.2836176 C69.5579233,38.6522903 68.7305384,39.0243994 67.9143497,39.4199085 C67.3133233,39.7108539 66.9659158,40.2109266 66.9214554,40.8883812 C66.8654742,41.7456721 66.8344818,42.604763 66.7918063,43.4630357 C66.7415044,44.4700539 66.3444441,44.9143266 65.3643686,45.0467085 C63.6948327,45.2726903 62.0231875,45.2656539 60.352678,45.0645448 C59.5106893,44.9630903 59.0719271,44.4913266 59.0118893,43.6327266 C58.9500667,42.7459812 58.9101497,41.8575994 58.850761,40.9706903 C58.8043535,40.2742539 58.4554856,39.7659994 57.8354742,39.4714539 C57.0695875,39.1075266 56.2951007,38.7604539 55.5149346,38.4284357 C54.4790403,37.9875994 53.6912478,38.2345266 52.9641422,39.0772539 C52.4865988,39.6306721 51.9323044,40.1246903 51.3679497,40.590563 C50.906795,40.9711812 50.2041912,40.9247085 49.7860365,40.4974539 C48.5211875,39.2048903 47.2660742,37.9021812 46.0380592,36.5742721 C45.5021007,35.9948357 45.5390969,35.3335812 46.041629,34.7338539 C46.5899195,34.0794721 47.1364252,33.4239448 47.6889346,32.7733266 C48.1752403,32.2005994 48.2750327,31.5481812 48.0243346,30.861563 C47.705161,29.9870903 47.3486667,29.1260357 46.9911988,28.2664539 C46.6973384,27.5597085 46.1615422,27.1738539 45.3950063,27.1340903 C44.7199875,27.0989085 44.0441573,27.0774721 43.3699497,27.0319812 C42.1187309,26.9477085 41.587478,26.3718721 41.4956365,25.2935085 C41.3554403,23.648963 41.3140629,22.0104721 41.4998554,20.3690357 C41.6283686,19.2337266 42.0436025,18.8432903 43.1687422,18.7829085 C43.8875724,18.7442903 44.6067271,18.7091085 45.3247459,18.6559266 C46.1962667,18.5914539 46.7395271,18.1141266 47.0230025,17.2795812 C47.2654252,16.5664539 47.5586365,15.8701812 47.8435724,15.1722721 C48.2026629,14.2928903 48.1225044,13.5169266 47.4387233,12.8033085 C46.8800478,12.2202721 46.3742705,11.5843812 45.8581082,10.9610903 C45.3883535,10.3935994 45.4256742,9.60225388 45.9389158,9.06258115 C47.2074969,7.72894479 48.4796478,6.39890842 49.7516365,5.06870842 C50.0779497,4.72769024 50.852112,4.74389024 51.2035761,5.07050842 C51.9050441,5.72210842 52.6087837,6.37207206 53.3310214,6.99994479 C53.8408554,7.4432357 54.4473988,7.53225388 55.0680592,7.28761751 C55.9431497,6.9428357 56.8112629,6.57661751 57.6676931,6.18634479 C58.3329761,5.88312661 58.6401422,5.31612661 58.6745422,4.59007206 C58.7151082,3.7316357 58.7470742,2.87270842 58.8007837,2.01525388 C58.8553044,1.14339934 59.314512,0.671962973 60.1732139,0.559872064 C61.8724441,0.338144791 63.571512,0.328981155 65.2720403,0.545144791 C66.0564252,0.644962973 66.5372139,1.14798116 66.5896252,1.95814479 C66.6434969,2.78614479 66.6890931,3.6146357 66.728361,4.44345388 C66.7718478,5.35801751 67.201361,5.96085388 68.069312,6.27389024 C68.7740252,6.52785388 69.4628365,6.82829024 70.1513233,7.12610842 C70.9568025,7.47449024 71.6633007,7.35438115 72.2956441,6.73779933 C72.9060818,6.14281751 73.5288516,5.5604357 74.1441573,4.97036297 C74.5816214,4.55079933 75.4690441,4.62247206 75.8422516,5.09914479 C75.986829,5.28356297 76.1601271,5.44572661 76.3241761,5.61410842 C77.3819761,6.70081751 78.4418856,7.78572661 79.4991988,8.87309024 C80.0570629,9.4466357 80.0862705,10.2196539 79.5740025,10.8375448 C79.0857497,11.4264721 78.6236214,12.0414176 78.0952893,12.5913994 C77.4179988,13.2968357 77.2865648,14.0655994 77.6461422,14.9528357 C77.9904667,15.8019448 78.3023384,16.6656176 78.6794403,17.4995085 C78.9562629,18.1113448 79.4855686,18.4291266 80.1544214,18.4701994 C80.9610365,18.5197812 81.7684629,18.5510357 82.5755648,18.5916176 C83.4451384,18.6354721 83.9382592,19.0666539 84.0357799,19.9429266 C84.1420629,20.8987266 84.200478,21.8600903 84.2726856,22.7365266" id="Fill-4"></path>
                </g>
            </g>
        </g>
    </g>
</svg>