<?xml version="1.0" encoding="UTF-8"?>
<svg width="50px" height="52px" viewBox="0 0 50 52" version="1.1" xmlns="http://www.w3.org/2000/svg" xmlns:xlink="http://www.w3.org/1999/xlink">
    <!-- Generator: Sketch 51 (57462) - http://www.bohemiancoding.com/sketch -->
    <title>Group 11</title>
    <desc>Created with Sketch.</desc>
    <defs></defs>
    <g id="Page-1" stroke="none" stroke-width="1" fill="none" fill-rule="evenodd">
        <g id="Lesson-2" transform="translate(-468.000000, -5915.000000)">
            <g id="Group-11" transform="translate(468.000000, 5915.000000)">
                <rect id="Rectangle-12" fill-opacity="0.6" fill="#F67102" fill-rule="nonzero" x="0" y="0" width="50" height="52"></rect>
                <path d="M9.64754222,19.2062311 C7.74228889,23.0262756 7.35683111,26.9874133 8.51008,31.0634978 C9.29069778,33.8227111 10.6943956,36.2356044 12.7966533,38.2819511 C14.0722489,34.4349378 14.0114044,30.7785156 12.3574222,27.1558044 C11.1943067,24.6088889 10.1014089,22.0221778 9.64754222,19.2062311 M40.3082089,21.3139156 C38.7542089,23.4240667 36.71148,24.4409911 34.4358978,25.1305067 C31.5696311,25.9991022 28.9252,27.2844 26.9260489,29.6098089 C24.1961067,32.7858889 23.0583156,38.0464667 26.1240533,42.1194267 C26.5422356,42.6750844 26.9275289,43.0325867 27.7421867,42.8454489 C32.6793022,41.7127556 36.5021422,39.04744 38.9865689,34.6227333 C41.3256267,30.4565333 41.73164,26.0425156 40.3082089,21.3139156 M24.2885244,43.2618222 C24.389,43.0186089 24.4154756,42.9850622 24.4072533,42.9697689 C24.2923067,42.7536889 24.1778533,42.5367867 24.05304,42.3261333 C23.1018933,40.7241156 22.4503644,39.0132356 22.4493778,37.1356089 C22.4464178,31.9603778 24.6881244,27.9989111 29.1682489,25.4350578 C30.8355511,24.4807867 32.6987067,23.8555689 34.5021689,23.1560222 C36.0028889,22.5738889 37.4031333,21.8674356 38.4795867,20.64068 C39.37844,19.6161911 39.4172489,19.0695778 38.7300356,17.9291556 C33.1499422,8.66731556 20.36932,7.12647111 12.68516,14.7379467 C11.6092,15.8038756 11.3252044,16.9117378 11.4845511,18.3373067 C11.7812089,20.9901244 12.77692,23.4069644 13.8012444,25.82512 C14.7647244,28.0995511 15.7416889,30.4098311 15.5343244,32.9282978 C15.3649467,34.9853333 14.9234133,37.0237867 14.5226622,39.0546756 C14.4254756,39.5468578 14.45228,39.8397333 14.8832889,40.0513733 C16.4958311,40.8431733 18.0593689,41.7786978 19.7439378,42.3657644 C21.2037111,42.87472 22.80244,42.9848978 24.2885244,43.2618222 M23.1022222,8 L25.8977778,8 C26.0512044,8.04555111 26.202,8.11494667 26.3587156,8.13336444 C33.2329867,8.94177333 38.1490533,12.5161378 41.2345244,18.6689911 C42.2754578,20.7447733 42.7115644,22.9871378 43,25.2666667 L43,27.8977778 C42.9524756,28.0808044 42.8855467,28.2613644 42.8598933,28.4475156 C41.8074489,36.1408844 37.6277644,41.34588 30.34896,44.0005067 C28.9321067,44.5171911 27.3848489,44.6760444 25.8977778,45 L22.9377778,45 C22.7851733,44.9528044 22.6355289,44.8834089 22.4793067,44.8617022 C14.8467822,43.8000489 9.68783111,39.6239822 7.02761333,32.4275644 C6.47754667,30.9395067 6.33201333,29.3019689 6,27.7333333 L6,25.2666667 C6.04834667,25.0009244 6.10705333,24.7364978 6.14356,24.4691111 C7.16311556,17.0095822 11.1938133,11.8826978 18.1873067,9.16229333 C19.7411422,8.55779556 21.4595867,8.37624889 23.1022222,8" id="tennis" fill="#FFFFFF"></path>
            </g>
        </g>
    </g>
</svg>