<?xml version="1.0" encoding="UTF-8"?>
<svg width="51px" height="51px" viewBox="0 0 51 51" version="1.1" xmlns="http://www.w3.org/2000/svg" xmlns:xlink="http://www.w3.org/1999/xlink">
    <!-- Generator: Sketch 52.2 (67145) - http://www.bohemiancoding.com/sketch -->
    <title>Group 11</title>
    <desc>Created with Sketch.</desc>
    <g id="Page-1" stroke="none" stroke-width="1" fill="none" fill-rule="evenodd">
        <g id="Desktop" transform="translate(-616.000000, -1416.000000)">
            <g id="Group-11" transform="translate(616.000000, 1416.000000)">
                <circle id="Oval" fill="#F67102" fill-rule="nonzero" cx="25.5" cy="25.5" r="25.5"></circle>
                <g id="Group-9" transform="translate(9.000000, 12.000000)" fill="#FFFFFF">
                    <path d="M29.1218061,12.4622994 C31.2898509,12.1711374 32.8956789,13.3861679 32.9945903,15.3816394 C33.0991208,17.493397 31.6825714,18.7803445 29.2849906,18.7592164 C29.068925,19.2502018 28.8853425,19.756302 28.6350236,20.2226651 C26.2147355,24.7308413 20.3424021,25.3166596 17.1651534,21.369273 C17.0045859,21.1697746 16.8917423,21.0905441 16.6311859,21.2147125 C13.5470755,22.6838496 10.080944,21.2424229 8.75968824,17.9563471 C8.72535791,17.8711031 8.68679402,17.7878095 8.64515118,17.691839 C7.14369968,17.9371692 5.9448323,17.4578042 5.29347976,15.9696518 C4.69801022,14.6090809 5.0377727,13.3860867 6.04943973,12.3535707 C4.92708434,10.757096 4.73511161,9.0760274 5.82552287,7.42283173 C6.904542,5.78686362 8.45125411,5.37982188 10.2321206,5.91005693 C11.2196948,2.42927717 13.3257758,0.245846446 16.8189251,0.018475158 C20.3302402,-0.209952538 22.6802512,1.69198635 24.0652413,5.04932902 C26.1877177,4.3911062 28.0465586,4.83934781 29.3394111,6.82831838 C30.560216,8.70644748 30.3560044,10.6295145 29.1218061,12.4622994" id="Fill-1"></path>
                    <path d="M5.00484714,19.0000052 C6.65645018,19.0027729 7.98361967,20.1026513 7.9998598,21.481997 C8.01600766,22.8526549 6.63504274,24.0068123 4.98685381,23.9999697 C3.34115626,23.9931272 2.0097422,22.8809476 2.00005348,21.5051386 C1.99027249,20.1085713 3.32325521,18.9972374 5.00484714,19.0000052" id="Fill-4"></path>
                    <path d="M1.49898351,26.9999817 C0.655878931,26.9958116 -0.00800808803,26.325341 7.29947587e-05,25.4862428 C0.00795856748,24.666757 0.6818166,23.999414 1.50093861,24.0000004 C2.33218225,24.0005868 3.00428069,24.6825251 2.99997947,25.5209718 C2.99580859,26.3390241 2.32097301,27.0040215 1.49898351,26.9999817" id="Fill-6"></path>
                </g>
            </g>
        </g>
    </g>
</svg>