<?xml version="1.0" encoding="UTF-8"?>
<svg width="92px" height="91px" viewBox="0 0 92 91" version="1.1" xmlns="http://www.w3.org/2000/svg" xmlns:xlink="http://www.w3.org/1999/xlink">
    <!-- Generator: Sketch 52.2 (67145) - http://www.bohemiancoding.com/sketch -->
    <title>Group 2</title>
    <desc>Created with Sketch.</desc>
    <g id="Page-1" stroke="none" stroke-width="1" fill="none" fill-rule="evenodd">
        <g id="Lesson-10" transform="translate(-42.000000, -3893.000000)" fill-rule="nonzero">
            <g id="Group-2" transform="translate(42.000000, 3893.000000)">
                <rect id="Rectangle" fill="#97B306" x="0" y="0.4" width="92" height="90"></rect>
                <path d="M44.5,12.4 C25.4415323,12.4 10,27.8415323 10,46.9 C10,65.9584677 25.4415323,81.4 44.5,81.4 C63.5584677,81.4 79,65.9584677 79,46.9 C79,27.8415323 63.5584677,12.4 44.5,12.4 Z M45,75.4 C29.53,75.4 17,62.87 17,47.4 C17,31.93 29.53,19.4 45,19.4 C60.47,19.4 73,31.93 73,47.4 C73,62.87 60.47,75.4 45,75.4 Z M52.6553317,61.0784174 L40.6905471,52.4368247 C40.2536703,52.1146907 40,51.6104811 40,51.0782599 L40,28.0806987 C40,27.1563144 40.761011,26.4 41.6911356,26.4 L46.2008307,26.4 C47.1309553,26.4 47.8919663,27.1563144 47.8919663,28.0806987 L47.8919663,47.9269497 L57.3059547,54.7337796 C58.0669657,55.2800067 58.2219865,56.3304434 57.6723674,57.0867579 L55.0229216,60.714266 C54.4733025,61.4565746 53.4163427,61.6246445 52.6553317,61.0784174 Z" id="clock" fill="#FFFFFF"></path>
            </g>
        </g>
    </g>
</svg>