<?xml version="1.0" encoding="UTF-8"?>
<svg width="47px" height="47px" viewBox="0 0 47 47" version="1.1" xmlns="http://www.w3.org/2000/svg" xmlns:xlink="http://www.w3.org/1999/xlink">
    <!-- Generator: Sketch 52.2 (67145) - http://www.bohemiancoding.com/sketch -->
    <title>Fill 1</title>
    <desc>Created with Sketch.</desc>
    <g id="Page-1" stroke="none" stroke-width="1" fill="none" fill-rule="evenodd">
        <g id="Lesson-13" transform="translate(-592.000000, -1270.000000)" fill="#32C5DD">
            <path d="M625.5,1304 C625.776142,1304 626,1303.77614 626,1303.5 C626,1303.22386 625.776142,1303 625.5,1303 C625.223858,1303 625,1303.22386 625,1303.5 C625,1303.77614 625.223858,1304 625.5,1304 Z M618.122973,1294 C617.355426,1294.81698 616.678082,1295.47579 616.094888,1296.20272 C615.948986,1296.3848 615.976213,1296.90655 616.143107,1297.06848 C618.705127,1299.55597 621.288348,1302.0245 623.902328,1304.46321 C624.696893,1305.20456 625.784095,1305.15302 626.50072,1304.46262 C627.168089,1303.81942 627.18243,1302.69871 626.44689,1301.97158 C625.082433,1300.62178 623.671836,1299.31425 622.283061,1297.98678 C620.969732,1296.73158 619.659936,1295.47302 618.122973,1294 M607.655571,1287.93117 C607.079792,1287.3087 606.592348,1286.76269 606.08392,1286.2374 C605.589681,1285.72679 605.074058,1285.23731 604.576222,1284.74662 C604.402749,1284.90757 604.331202,1284.94318 604.310017,1284.9983 C603.688671,1286.62367 604.025225,1288.10579 605.105435,1289.38955 C606.190642,1290.67874 607.619397,1291.25533 609.290975,1290.88495 C609.966281,1290.73547 610.408757,1290.85518 610.850834,1291.36739 C611.318292,1291.90878 611.863094,1292.38236 612.490435,1293 C613.180131,1292.26085 613.772298,1291.63195 614.35687,1290.996 C614.510558,1290.82862 614.640463,1290.63931 614.78116,1290.46005 C614.854107,1290.3673 614.927053,1290.27436 615,1290.18141 C614.502764,1289.79232 614.002729,1289.40625 613.508491,1289.01313 C612.929914,1288.55283 612.711873,1288.06857 612.849972,1287.22622 C613.241686,1284.83434 611.959623,1282.82572 609.753437,1282.18313 C608.779349,1281.89946 607.774084,1281.84233 606.592948,1282.77924 C607.712329,1283.7063 608.831711,1284.63315 609.996659,1285.59783 C609.116103,1286.4756 608.460382,1287.12904 607.655571,1287.93117 M610.515151,1299.69786 C614.009923,1296.22941 617.478998,1292.78042 620.963409,1289.34655 C621.13935,1289.17324 621.457245,1289.02727 621.691832,1289.04963 C622.812132,1289.15606 623.393627,1288.54109 623.831924,1287.63065 C624.084955,1287.10493 624.382749,1286.59101 624.728827,1286.12202 C625.159871,1285.53852 625.056255,1285.15029 624.565113,1284.62228 C623.941965,1283.95245 623.413521,1283.76133 622.64904,1284.35766 C622.190641,1284.71525 621.668207,1285.00327 621.14453,1285.26231 C620.410719,1285.62549 620.002471,1286.11291 619.920407,1286.99042 C619.871707,1287.51035 619.524178,1288.08908 619.143491,1288.47711 C616.101108,1291.57927 613.013755,1294.63713 609.953965,1297.7221 C609.482717,1298.1971 609.059341,1298.61764 608.463754,1297.94594 C606.771285,1299.60904 605.097052,1301.1949 603.497837,1302.85304 C602.779154,1303.59783 602.874688,1304.67516 603.552754,1305.37668 C604.275581,1306.12395 605.368319,1306.24363 606.156218,1305.49284 C607.823198,1303.90407 609.414952,1302.23641 611.068048,1300.57021 C610.887755,1300.28571 610.730673,1300.03765 610.515151,1299.69786 M615.462812,1316.99998 C602.430501,1316.98473 592.064669,1306.57998 592.000289,1293.53411 C591.935485,1280.42935 602.776967,1269.97906 615.531005,1270.00003 C628.439003,1270.02121 639.129065,1280.71279 638.998822,1293.70951 C638.86985,1306.60943 628.446839,1317.01545 615.462812,1316.99998" id="Fill-1"></path>
        </g>
    </g>
</svg>