<?xml version="1.0" encoding="UTF-8"?>
<svg width="150px" height="150px" viewBox="0 0 150 150" version="1.1" xmlns="http://www.w3.org/2000/svg" xmlns:xlink="http://www.w3.org/1999/xlink">
    <!-- Generator: Sketch 51.1 (57501) - http://www.bohemiancoding.com/sketch -->
    <title>veggie</title>
    <desc>Created with Sketch.</desc>
    <defs></defs>
    <g id="Page-1" stroke="none" stroke-width="1" fill="none" fill-rule="evenodd">
        <g id="Lesson-4" transform="translate(-140.000000, -7282.000000)">
            <g id="veggie" transform="translate(140.000000, 7282.000000)">
                <circle id="Oval-8" fill="#97B306" fill-rule="nonzero" cx="75" cy="75" r="75"></circle>
                <path d="M79.5550391,136 C76.1554756,135.218105 73.7428983,133.121205 71.5598526,130.515876 C65.4473247,123.219672 59.2549596,115.912607 56.5789198,106.621682 C55.1623103,101.704235 54.8719029,96.4762998 53.9283281,91.4147151 C53.7332262,90.3697205 53.1379409,89.1213543 52.3146208,88.5127202 C46.8767163,84.4892195 45.6142922,77.5755707 49.3127458,71.8456238 C49.7937644,71.0997633 50.0098235,69.8676865 49.7633265,69.0295189 C47.2030505,60.3284702 51.4678485,52.143255 60.2708867,49.3059243 C61.5233312,48.9016491 61.9309994,48.4307352 62.0053477,47.1413984 C62.3601238,40.9928614 65.6618869,36.9886119 71.3867059,34.7273364 C72.2185086,34.3990787 73.1027045,33.505132 73.4055865,32.6743687 C75.7577871,26.2173188 82.3687979,23.3237154 88.7432913,25.9863045 C89.5032407,26.3037024 90.6374265,26.3273962 91.3839034,26.0040748 C97.4550158,23.3730775 103.806057,26.0746625 105.699194,32.368324 C106.120335,33.7697126 106.76502,34.3082525 108.072352,34.6671146 C113.476326,36.1504443 116.858425,39.6793373 118.52702,44.9433063 C118.770024,45.7108862 119.340361,46.596935 120.017978,46.9755419 C127.301117,51.0429749 130.802473,57.2537081 129.844927,65.3757399 C128.92231,73.202093 124.046259,78.213822 116.558038,80.7609038 C116.261643,80.8616024 115.982712,81.011663 115.520654,81.2155283 C118.834393,85.0865003 119.388263,89.5088464 118.913731,93.8137108 C113.64598,94.1296279 108.444094,93.8694899 103.494692,94.8508075 C91.1693411,97.2937353 86.3706325,105.603837 89.2996561,118.467587 C89.7731899,120.543755 90.4203694,122.582901 91.0276303,124.627477 C92.3354618,129.033534 90.9941985,132.195173 86.605154,134.593182 C86.0757342,133.493889 85.4919254,132.429149 85.0378519,131.31258 C80.0495301,119.048578 76.4803128,106.489885 76.3116569,93.1186931 C76.2707404,89.8953512 77.6653948,88.1355941 80.3758643,87.1735278 C82.3847653,86.4602461 84.5179128,86.0209239 86.6335959,85.6941471 C88.0541973,85.4749796 89.1319982,85.1215473 89.0012649,83.5128381 C88.8680368,81.8824096 87.6160912,81.5062707 86.2788198,81.767396 C83.2265477,82.3622087 80.2037155,83.1036267 77.0286939,83.8169083 C77.9792544,77.1322994 80.3114956,70.8183996 84.2295013,65.1042486 C84.5723018,64.6037174 85.4684733,64.3386432 86.1520784,64.2260977 C90.5595853,63.4970202 94.9281716,63.7433369 99.1974605,65.0657462 C100.653989,65.5169153 102.140456,65.9320502 102.748215,64.1377397 C103.370945,62.2990033 101.865018,61.6301475 100.428449,61.3591498 C96.6476631,60.644881 92.8414294,60.0614215 89.1799004,59.4483449 C93.07146,53.9923574 97.5972256,52.634901 103.901862,55.0176072 C104.718196,55.32612 106.347871,55.0393265 106.809429,54.4356286 C107.732545,53.2277393 106.927688,52.0351521 105.562473,51.5671999 C103.001199,50.689049 100.390526,49.9535544 97.4265738,49.0443055 C97.7953214,48.2954832 98.5338146,47.3018251 98.742888,46.2089493 C98.9100469,45.3362282 98.4325213,44.3425702 98.2409122,43.4032103 C97.3043233,43.6697654 95.8897097,43.6519951 95.522958,44.2566802 C94.475096,45.9833647 93.8598514,47.9662383 93.0594845,49.8424898 C92.7890363,50.4777794 92.6388428,51.2809 92.1583232,51.6930731 C82.3842663,60.0796855 82.2046328,60.2776273 76.8430726,70.2556722 C74.1146398,68.3996591 72.8342523,65.7859385 72.5588143,62.6247928 C72.4874599,61.8083445 72.7778673,60.8847805 72.482969,60.1833458 C72.1306878,59.346659 71.327327,58.6955736 70.7195671,57.964028 C70.0090169,58.6931055 68.7535785,59.3698592 68.6757374,60.159652 C68.163782,65.3949911 69.842856,69.8301713 74.0422874,73.2707062 C74.6236013,73.7475436 75.1101086,74.9830758 74.9085199,75.6509443 C72.3003417,84.3144778 71.9710136,93.1103016 73.0408308,102.016203 C73.0867371,102.399746 73.0468186,102.792668 73.0468186,103.181147 L72.1696084,103.935893 C71.3762272,102.824259 70.556899,101.729409 69.7964506,100.595563 C68.9980796,99.4044566 67.9621933,98.7647245 66.6803089,99.6853267 C65.3689845,100.626661 65.6708685,101.997445 66.6418873,102.902252 C68.4906151,104.624987 70.5399336,106.136453 72.5024293,107.739239 C73.033845,108.172638 73.8556682,108.524095 74.0333057,109.074482 C76.9204148,118.034188 79.7256909,127.020056 82.5489303,136 L79.5550391,136 Z M50.0281086,31.359665 C55.8130133,23.6302601 63.5544662,24.0620015 68.7592257,32.3672261 C67.2599742,33.4818591 65.6769852,34.517545 64.2614711,35.7412236 C61.4128932,38.2033832 59.7877848,41.3859342 58.7874481,44.9607531 C58.5482698,45.8143675 57.7946327,46.8061392 57.0048932,47.1895256 C48.5218372,51.3100656 44.2221443,59.758875 45.9861466,68.8486354 C46.1852111,69.8724793 45.9946708,71.14698 45.5313569,72.0899032 C42.1613002,78.9568121 43.546729,86.1977324 49.2759758,91.4062608 C49.8796878,91.9544491 50.5139865,92.8460567 50.5290291,93.5901322 C50.8048112,107.231681 56.6955158,118.598569 65.1494893,128.950988 C65.9342146,129.91118 66.7064044,130.881735 67.4800984,131.850316 C67.5202122,131.900151 67.5222178,131.979592 67.6450662,132.388143 C60.9601092,129.218421 55.3236255,125.18867 51.0134027,119.471426 C50.7145552,119.075211 50.398158,118.687384 50.1454414,118.264031 C48.2916846,115.163881 46.2403675,112.744155 42.3608661,111.392681 C37.4795238,109.691373 35.0661801,105.448959 35.031582,100.100793 C35.0250635,99.0522779 34.3852492,97.8137968 33.6531732,96.9947217 C29.2055608,92.0181001 26.7215166,86.4103959 28.6730507,79.8173344 C29.4713144,77.1208009 31.4629622,74.7667 33.1592726,71.826911 C32.5590705,69.9070187 31.4363869,67.2465047 30.9224294,64.4769452 C29.9421496,59.1899632 31.0232152,54.3737027 35.1238436,50.4510236 C35.6067129,49.989677 35.667385,48.9579384 35.6784163,48.1872183 C35.7260514,44.8566417 35.082727,41.3948157 35.7982561,38.2231199 C37.1937133,32.0346618 42.5955316,29.3677334 48.9039207,31.0902583 C49.2915199,31.1958499 49.6856375,31.2782509 50.0281086,31.359665 Z" id="Combined-Shape" fill="#FFFFFF"></path>
            </g>
        </g>
    </g>
</svg>