<?xml version="1.0" encoding="UTF-8"?>
<svg width="109px" height="61px" viewBox="0 0 109 61" version="1.1" xmlns="http://www.w3.org/2000/svg" xmlns:xlink="http://www.w3.org/1999/xlink">
    <!-- Generator: Sketch 52.2 (67145) - http://www.bohemiancoding.com/sketch -->
    <title>Group 20</title>
    <desc>Created with Sketch.</desc>
    <g id="Page-1" stroke="none" stroke-width="1" fill="none" fill-rule="evenodd">
        <g id="Desktop" transform="translate(-81.000000, -5322.000000)">
            <g id="Group-20" transform="translate(81.000000, 5321.000000)">
                <path d="M42.875,9 L40.3886328,9 C41.9600781,12.15625 42.875,15.8091518 42.875,19.7142857 C42.875,31.5301339 35.1320898,39 25,39 C14.8679102,39 6.125,31.5301339 6.125,19.7142857 C6.125,15.8091518 7.03992188,12.15625 8.61136719,9 L6.125,9 C2.74763672,9 0,12.2042411 0,16.1428571 L0,51.8571429 C0,55.7957589 2.74763672,59 6.125,59 L42.875,59 C46.2523633,59 49,55.7957589 49,51.8571429 L49,16.1428571 C49,12.2042411 46.2523633,9 42.875,9 Z M25,35 C33.2846875,35 40,28.2846875 40,20 C40,11.7153125 33.2846875,5 25,5 C16.7153125,5 10,11.7153125 10,20 C10,28.2846875 16.7153125,35 25,35 Z M24.4351853,18.3878449 L27.3408157,10.9261427 C27.6436658,10.1481679 28.4604957,9.79108032 29.1605121,10.1253143 C29.8631243,10.4566916 30.1884718,11.3527434 29.8882176,12.1250048 L26.9747997,19.6047994 C27.5528107,20.2865986 27.9222879,21.1864593 27.9222879,22.1910658 C27.9222879,24.2945497 26.3725607,26 24.4611439,26 C22.5497272,26 21,24.2945497 21,22.1910658 C21,20.0980564 22.5367479,18.4040329 24.4351853,18.3878449 Z" id="weight" fill="#F67102" fill-rule="nonzero"></path>
                <g id="Group-278" transform="translate(65.000000, 0.500000)" fill="#05BCB0">
                    <path d="M12.8885506,48.5094227 C12.8174644,48.3126322 12.6022665,48.3114692 12.3794431,48.3115918 C9.35243067,48.3131113 6.32541825,48.3099203 3.29856206,48.3153906 C2.87831725,48.3161503 2.51525073,48.1787866 2.12156414,48.0546427 C1.51822383,47.8642481 1.06064128,47.5446952 0.645083221,47.1240949 C0.254989807,46.7291743 -0.0121546627,46.2851735 0.0187778548,45.7000103 C0.0365874861,45.3670857 -0.0293393946,45.0352247 0.0165907071,44.6939428 C0.0673637787,44.3160407 -0.0365257371,43.9203604 0.315605043,43.6081011 C0.421525481,43.5141954 0.445896556,43.3093655 0.411527092,43.1388765 C0.411370867,43.1388765 0.414495364,43.137205 0.414495364,43.137205 C0.74194262,43.2292873 0.702417736,42.8746337 0.878951801,42.7720668 C1.13391073,42.6243704 1.43167527,42.5096474 1.63773583,42.3339921 C1.87394778,42.132657 2.08906938,42.080082 2.36714959,42.080234 C6.48882943,42.0812976 10.6106655,42.0797781 14.7323453,42.080082 C15.1210327,42.080082 15.5101888,42.0943654 15.8921585,42.0022831 C16.0438528,42.027507 16.1957034,42.0746118 16.3473977,42.0747637 C18.8997991,42.0776508 21.4523566,42.0747637 24.0049142,42.0732442 C24.1053668,42.3476677 24.4054747,42.5382142 24.3600133,42.8773688 C24.3554828,42.9121656 24.4114113,42.966564 24.4520297,42.9931555 C24.8180645,43.2329341 24.8407171,43.6786063 24.9895994,44.0104673 C25.2080017,44.4967104 25.1409812,45.0979805 25.100519,45.6519937 C25.0614628,46.1827585 24.8221264,46.6187059 24.4681209,47.0330762 C24.1361431,47.4214629 23.6873092,47.6974059 23.4111036,48.1274272 C23.2922165,48.3129593 23.1395849,48.4261628 22.9264942,48.4729637 C22.9154842,48.4051189 22.8881252,48.3606432 22.8500596,48.3362732 C22.8222162,48.4349134 22.7212584,48.472226 22.6545547,48.5424287 C22.4275751,48.7818352 22.035915,48.8811275 21.9944341,49.2812127 C21.9043258,49.2881186 21.8469984,49.333698 21.8257142,49.4214804 C21.6038615,49.4547824 21.4511435,49.599961 21.2960952,49.7414564 C21.1955779,49.740996 21.1446201,49.7933278 21.1351432,49.8895508 C20.9740359,49.8794221 20.8906081,49.9487886 20.9007064,50.1136108 C20.8430682,50.1403138 20.7751763,50.1555069 20.7296561,50.1957149 C19.8302826,50.9895931 18.9335502,51.7863871 18.0363518,52.5824138 C17.9310183,52.581493 17.8789731,52.6329041 17.8797498,52.7364934 C17.8259956,52.7859094 17.7725521,52.8351719 17.7189532,52.8844344 C17.5514762,52.8824393 17.415071,52.9185038 17.4181781,53.1249152 C17.4169353,53.1743311 17.4158477,53.2237471 17.4146049,53.2733165 L17.4139834,53.2737769 C17.1703805,53.2427768 17.1105672,53.4907774 16.943867,53.5764113 C16.7464056,53.5883816 16.5637034,53.6117084 16.7007301,53.8825754 C16.6796012,53.9101993 16.6587831,53.9376696 16.6376543,53.96514 C16.5358941,53.9568528 16.4801202,54.0028926 16.4697112,54.1031057 L16.4662933,54.1051007 C16.2296815,54.1758484 16.0440274,54.3214874 15.8639663,54.4838541 C15.3999088,54.9023551 14.9280834,55.312569 14.4595205,55.7260057 C14.2373571,55.7101987 14.1345094,55.8131742 14.1477149,56.0318629 C13.4560565,56.6311465 12.768282,57.2351876 12.0714967,57.8289465 C11.1292441,58.6318791 10.2005077,59.4492376 9.29258949,60.2903832 C8.9397691,60.6174186 8.60310606,60.9943304 8.125377,61.1433457 C7.91688516,61.2082617 7.79865693,61.3159946 7.70171289,61.4832722 C7.65355159,61.4889505 7.60539028,61.4944752 7.55722898,61.5 C7.44987588,61.4944752 7.34267814,61.488797 7.2354804,61.4831188 C6.76769433,61.3577373 6.30037433,61.3489897 5.83383112,61.4897178 C5.5388043,61.5524853 5.37676482,61.2541479 5.15833,61.21793 C4.58241403,61.1224743 4.34720044,60.6565524 3.9968658,60.3163189 C3.84834256,60.1722146 3.63285956,60.0538925 3.65787237,59.7934612 C3.79179186,59.5365596 3.67201004,59.404579 3.4263874,59.3342917 C3.33721131,59.2451281 3.40277282,59.0577465 3.22488672,59.0247514 C3.21105976,58.9754889 3.19723281,58.9259194 3.18340585,58.8765035 C3.19412563,58.8243251 3.20469004,58.7721468 3.21540982,58.7199684 C3.28889464,58.4840916 3.36098124,58.2482148 3.17610398,58.0266103 C3.16507349,57.9521794 3.15388763,57.8777486 3.14285714,57.8033177 C3.16056807,57.75958 3.17812365,57.7159957 3.19521314,57.6721045 C3.36129196,57.6595203 3.32897728,57.4815001 3.42063911,57.4069157 C3.67682617,57.3467572 3.83373881,57.2354945 3.66113491,56.953578 C3.67045645,56.8665629 3.64808475,56.7308992 3.69500318,56.7008199 C3.90333966,56.5676117 3.99236039,56.3414032 4.13575678,56.1646107 C4.30401063,55.9575855 4.60400894,55.8619763 4.66211322,55.565634 C4.68867962,55.5387775 4.71524601,55.5117675 4.74181241,55.484911 C4.88567488,55.4634258 5.05144298,55.4689506 5.03559636,55.2514897 C5.06822176,55.203148 5.10084716,55.1544993 5.13347256,55.1061576 C5.35470383,55.1167468 5.49887702,55.0341822 5.51581116,54.797845 C5.51581116,54.797845 5.51891834,54.7947757 5.51891834,54.7949291 C5.67054877,54.7973846 5.78163048,54.721726 5.88820679,54.6238149 C6.08333774,54.4444134 6.28639201,54.2736061 6.48540694,54.0981948 C7.10544488,53.5523172 7.7680512,53.0506377 8.29673802,52.409151 C8.32874199,52.3598885 8.36059059,52.310933 8.39274991,52.2618239 C8.53241769,52.2665814 8.61569014,52.1734277 8.72273252,52.10268 C9.14826094,51.82061 9.42775185,51.3737178 9.87767164,51.1232617 C10.0459255,51.1264845 10.1831075,51.0916478 10.1796896,50.8837018 C10.1803111,50.8336719 10.1807771,50.7837956 10.1812432,50.7339192 C10.2082757,50.7087508 10.2351528,50.6835825 10.2621853,50.6584141 C10.4493929,50.6763696 10.5074972,50.4842305 10.6484079,50.4266808 C10.8857965,50.4486264 10.9860031,50.3415074 10.9543098,50.1097741 C10.9529116,50.0869077 10.9544652,50.0640413 10.9591259,50.0414819 C11.2917496,50.0044966 11.4281549,49.7480554 11.5749692,49.503431 C11.6267037,49.4492576 11.6785937,49.3950842 11.7303282,49.3407574 C11.8370599,49.3596337 11.8931445,49.3146682 11.9006017,49.2086234 L11.9009125,49.208163 C12.0051584,49.2020244 12.0516107,49.1466232 12.0441535,49.0448755 C12.0441535,49.0448755 12.0457071,49.0430339 12.0457071,49.0431873 C12.2717545,49.0597616 12.4115776,48.9719793 12.4289778,48.7353351 C12.4567871,48.7101667 12.484441,48.6851518 12.5124056,48.6599834 C12.6823547,48.7205811 12.7533596,48.5353742 12.8885506,48.5094227 Z M19.3058788,15.6014578 C19.3375595,15.5845734 19.3692402,15.567689 19.4009209,15.5512609 C19.531233,15.4829627 19.6615452,15.4142082 19.7920134,15.3454536 C20.1014853,15.1791954 20.4117375,15.014154 20.5663954,14.6772263 C20.9073919,14.5783536 21.1645828,14.3402986 21.4437786,14.1487898 C22.029481,13.7467582 22.5849073,13.3032001 23.1598415,12.8859574 C23.858065,12.379425 24.5636234,11.8827798 25.2660606,11.3817235 C25.3414387,11.375639 25.4168169,11.3694024 25.4921951,11.3630137 C26.2996623,11.6535473 27.0389302,12.0805252 27.8061333,12.4527429 C28.8586186,12.9635344 29.7757977,13.6583813 30.67581,14.3766533 C31.1129409,14.7255979 31.3465664,15.2163107 31.5864345,15.7170628 C32.0859904,16.7599416 31.9392917,17.8537778 31.9708163,18.9359013 C31.990012,19.592416 31.9906363,20.2492349 32,20.9059017 C31.8564225,21.0158786 31.742653,21.1425877 31.7496758,21.3363782 C31.5942376,21.3616288 31.4437934,21.4008736 31.3206601,21.5026364 C30.8485711,21.8934117 30.3299755,22.2237986 29.8377545,22.5864332 C28.9622441,23.2319959 28.120287,23.9219751 27.2049807,24.5155155 C26.8316792,24.7576776 26.5570093,25.1353712 26.1069251,25.2701423 C25.6791579,25.1654894 25.5262167,25.583949 25.2245479,25.7241961 C24.9057123,25.8723531 24.6023269,26.0869829 24.3509102,26.3300576 C23.9801058,26.6888894 23.5264322,26.9342458 23.123635,27.2466835 C22.7311379,27.5510593 22.3512818,27.8805335 21.9007295,28.1240645 C21.519781,28.3298719 21.2012575,28.644287 20.8491806,28.9030292 C20.5626499,29.1137041 20.2472476,29.2909144 19.9811611,29.5227329 C19.6208129,29.8368438 19.2205127,30.0908706 18.8231776,30.3523508 C18.7440539,30.4042209 18.711749,30.4897078 18.7031656,30.5821918 C18.6238858,30.5646989 18.5748822,30.5249977 18.5330575,30.4481813 C18.1516408,29.7477063 17.6836095,29.0989493 17.2461664,28.432091 C16.8135612,27.7731425 16.4166944,27.0884872 15.9403917,26.4613301 C15.448951,25.8140942 15.0655055,25.1028193 14.5867058,24.44813 C14.267402,24.011569 13.9740046,23.5465631 13.7018317,23.0715179 C13.3517835,22.4604846 12.9258891,21.8890005 12.5099826,21.3161473 C12.3846644,21.1435004 12.2847844,20.9819576 12.2857208,20.7699137 C12.3792022,20.6527876 12.5788061,20.6695199 12.635925,20.5066081 C13.2339564,20.3519104 13.6064775,19.8639356 14.0854332,19.5384163 C14.6829964,19.1322777 15.2718201,18.7030181 15.8401996,18.2541361 C16.3146295,17.8796368 16.8801999,17.6157227 17.2716046,17.1403733 C17.7088916,16.9307631 18.0909325,16.6262353 18.4336457,16.3107553 C18.649168,16.1122494 18.9600444,16.1032748 19.1200084,15.8630902 C19.1935139,15.8703916 19.2290961,15.8379917 19.2251945,15.7652823 C19.2520373,15.7106741 19.2790361,15.656066 19.3058788,15.6014578 Z M25.1428571,11.4114029 C24.4457428,11.9120904 23.7455308,12.4086726 23.0525981,12.9149858 C22.4818657,13.3318959 21.9308031,13.7754141 21.3495389,14.1771196 C21.0724587,14.3686976 20.8170618,14.6066496 20.4788041,14.7054795 C20.1551052,14.5435505 19.9802458,14.2195404 19.6825666,14.0200561 C18.6361981,13.318972 17.8040284,12.3629068 16.7672624,11.6434251 C16.3026228,11.3209356 15.8920362,10.9148207 15.4961632,10.5096181 C15.3205294,10.3297477 15.1520201,10.2902158 14.9262052,10.2903678 C11.2529188,10.2938649 7.57963246,10.2718182 3.90681074,10.3098297 C3.10654635,10.3180402 2.53411028,10.0048254 2.07039988,9.46095691 C1.66879633,8.98991842 1.35284135,8.42704414 1.44453025,7.78328139 C1.51004444,7.32273407 1.69744911,6.88894684 2.02378104,6.50928799 C2.31418083,6.17174588 2.59404879,5.86750184 3.06178606,5.80242616 C3.25693472,5.96146627 3.45146387,5.79163089 3.64692229,5.79223907 C7.72227684,5.80485889 11.7977863,5.80485889 15.8731408,5.79223907 C16.0684444,5.79163089 16.2631284,5.96161831 16.4582771,5.80227411 C16.9066543,5.74616914 17.189465,6.09693925 17.4894674,6.29794406 C17.8182774,6.5182587 18.1571546,6.72793013 18.4952574,6.93501678 C18.6790998,7.04768286 18.8200405,7.20489842 19.0007853,7.32440658 C19.6477186,7.75195992 20.2906251,8.19669445 20.949639,8.59490292 C21.5894478,8.98140384 22.165601,9.46110896 22.8459884,9.79439378 C23.3250319,10.0290008 23.7241573,10.4174783 24.1706761,10.720658 C24.4293255,10.8962711 24.7028434,11.0556153 24.9859638,11.1891117 C25.1036725,11.2446085 25.1382107,11.3046667 25.1428571,11.4114029 Z M15.7606552,42.0022831 C15.7609657,41.5674444 15.4033474,41.3026868 15.1926274,40.9947971 C14.8941722,40.5585819 14.5772382,40.118084 14.2138743,39.7225536 C13.7293892,39.1956386 13.4359031,38.5287737 12.9023483,38.0326018 C12.7424061,37.8837808 12.678274,37.6269767 12.5220586,37.4388474 C12.026393,36.8426457 11.5280877,36.2452205 11.0825788,35.6130754 C10.8016706,35.2140272 10.5254209,34.8088609 10.2064682,34.4440736 C9.71033681,33.8766266 9.34340145,33.2224567 8.88422758,32.6297729 C8.4604584,32.0828214 8.04833549,31.5149156 7.62736141,30.9652109 C7.40157892,30.6707809 7.39288303,30.2793802 7.08138396,30.0415419 C6.97672275,29.9613958 6.97796502,29.7637835 6.97967314,29.6065503 C6.98308938,29.2752592 6.8962858,28.9823587 6.74162324,28.6707982 C6.51894643,28.2224998 6.5183253,27.6649947 6.71895183,27.2289324 C6.90001261,26.8356962 6.8191098,26.4204352 6.98945601,26.0587069 C7.16151034,25.6934607 7.29117222,25.2968597 7.56913002,24.9914172 C7.71028289,24.8363253 7.72286087,24.635807 7.86013165,24.4707732 C8.41713425,23.8011552 9.11342631,23.3055951 9.80040135,22.7818921 C10.5392411,22.2187278 11.3445423,21.7473339 12.0574498,21.151897 C12.1723597,21.0559969 12.2204976,21.1543442 12.3062142,21.2187364 C12.6371238,21.4677401 12.7108835,21.877036 12.9568529,22.1832432 C13.3026697,22.6136464 13.5801616,23.0980411 13.8772193,23.5653053 C14.2042468,24.0799843 14.4809623,24.6307596 14.8525562,25.1111776 C15.1867267,25.5434161 15.4170124,26.0356113 15.7702828,26.4595906 C16.0775892,26.8283546 16.2799238,27.2882772 16.5566394,27.691914 C16.878853,28.1619313 17.187557,28.6409728 17.5001431,29.1171082 C17.6920737,29.4095498 17.8836938,29.7022974 18.0691025,29.9985628 C18.284481,30.3428547 18.5119716,30.6816404 18.6984673,31.0407686 C18.8382226,31.3102676 18.9644682,31.6008739 19.0717693,31.8706788 C19.2837315,32.4038648 19.5217814,32.9141082 19.8075034,33.4095153 C19.8674429,33.5135218 19.869151,33.6533187 19.8848347,33.7781264 C19.8972574,33.878768 19.8849899,33.9817037 19.9638741,34.0647559 C20.3159022,34.4352024 20.4222715,34.9309155 20.655197,35.3591773 C20.8559789,35.7288591 20.974305,36.1308134 21.196516,36.494683 C21.3926393,36.8157264 21.5255621,37.1866318 21.6917157,37.5336768 C21.9083364,37.9859519 22.1075654,38.4467922 22.3220122,38.8996791 C22.4830413,39.2396884 22.7381724,39.5544608 22.7867762,39.9516737 C22.8046339,40.0962121 22.8504426,40.2506922 23.0179937,40.3270146 C23.0683056,40.3498042 23.1257605,40.421844 23.1274687,40.4732354 C23.1470344,41.0481769 23.5794995,41.466497 23.7142857,41.9958592 C21.0628167,41.9980005 18.4116583,42.0001418 15.7606552,42.0022831 Z M26.3002914,25.3572667 C26.7475287,25.2213619 27.0204613,24.840491 27.3914015,24.5964452 C28.3009184,23.9977585 29.1375499,23.301975 30.0075226,22.6511351 C30.4966302,22.2852966 31.0119456,21.9521304 31.4810485,21.5582212 C31.603403,21.4554489 31.7528956,21.4158739 31.9073506,21.390411 C32.1289533,21.4769237 32.0498649,21.6698901 32.050175,21.8217477 C32.0546722,23.9684607 32.0526562,26.1151738 32.0532765,28.2620403 C32.0535867,28.9607382 32.1680323,29.0747081 32.8886674,29.0751682 C35.8729374,29.0770089 38.8570523,29.075475 41.8411672,29.0774691 C42.5543587,29.0780827 43.3784291,29.7053002 43.7189745,30.3299101 C43.9554644,30.7638545 43.9974898,31.184914 43.999971,31.645395 C44.0036929,32.3393379 43.6482602,32.8619425 43.1579119,33.2825418 C42.5718822,33.7848987 41.8118579,33.9011694 41.0777312,33.9063847 C37.4350114,33.9320011 33.7918263,33.9283197 30.1487962,33.9099127 C29.3593076,33.9059246 28.5854817,33.698386 27.9786718,33.1802297 C27.764978,32.9975405 27.4935962,32.7350878 27.4712653,32.4010012 C27.4326515,31.8280842 27.1891833,31.3036389 27.1164529,30.7373178 C27.0595403,30.2946301 27.1499492,29.8387508 26.9978203,29.4095616 C26.7272138,28.6455188 26.8025804,27.8296298 26.6406818,27.0638998 C26.5304232,26.5426757 26.4496289,25.9998234 26.2857143,25.4836613 C26.2905216,25.4414786 26.295484,25.399296 26.3002914,25.3572667 Z M43.9989125,6.51063467 C43.8803739,6.94582959 43.8780435,7.3808709 44,7.81575858 C43.9972035,7.94203116 43.9947178,8.06830375 43.9920767,8.19442271 C43.6473361,8.49520339 43.5980874,8.91088904 43.5379637,9.32427044 C43.4828114,9.70385627 43.2359467,10.0103207 43.0790345,10.3447434 C42.9704389,10.5760895 42.8020302,10.7817817 42.7717353,11.051071 C42.7717353,11.051071 42.7672299,11.0556795 42.7670746,11.0555259 C42.5098008,11.060288 42.4871185,11.248468 42.4631932,11.4357262 C42.4631932,11.4357262 42.4572896,11.4420245 42.4571343,11.4418709 C42.1336778,11.5808936 41.8970667,11.8048661 41.7667209,12.1328369 C41.7382903,12.1578763 41.7098596,12.1829158 41.6815844,12.2079552 C41.3342027,12.2591095 41.1258669,12.5555889 40.8244713,12.6846266 C40.4068675,12.8632823 40.0987915,13.2648352 39.5974495,13.2728233 C39.5472687,13.2735914 39.475493,13.2754348 39.450791,13.3060044 C39.1374328,13.6921957 38.7008753,13.5728359 38.3016038,13.5772907 C37.4416943,13.586815 36.5816293,13.5765227 35.7215644,13.5811312 C35.5317163,13.5822065 35.3625308,13.5614683 35.2366904,13.402629 C35.1492235,13.2923326 35.0255581,13.2772782 34.8908623,13.2659106 C34.6733603,13.2474766 34.5038641,13.1545387 34.320541,13.0070671 C34.0767835,12.8104383 33.7388786,12.7509888 33.4679333,12.5422243 C32.9518322,12.1446653 32.4801637,11.7262146 32.0571224,11.2232749 C31.6457329,10.7344679 31.4644295,10.1292197 31.0752563,9.64010551 C31.0208808,9.57159265 31.0297363,9.44516646 31.0286488,9.34516226 C31.0238327,8.90351546 30.7418569,8.57062898 30.5757786,8.1924257 C30.5743804,8.09211427 30.5729822,7.99195645 30.5714286,7.89179864 C30.6865493,7.40621758 30.6828207,6.92032929 30.5732929,6.434441 C30.5745357,6.3089365 30.5756233,6.183432 30.5765554,6.05777388 C30.804311,5.80138831 30.972409,5.50506251 31.009695,5.16987179 C31.03999,4.89551312 31.1748412,4.67461291 31.2567151,4.43251365 C31.3960717,4.02112925 31.8085487,3.74523442 31.7986057,3.27885539 C31.7986057,3.27885539 31.7993825,3.2779337 31.7995379,3.2779337 C31.8582634,3.25796358 31.9406035,3.25581295 31.9722966,3.21510464 C32.2893834,2.80909681 32.6933156,2.48865325 33.0455134,2.12181758 C33.2187382,1.94131845 33.5931523,1.93947506 33.5802576,1.58631123 C33.5802576,1.58631123 33.5835201,1.5832389 33.5836755,1.5832389 C34.1038159,1.55005779 34.4872408,1.16955026 34.9836113,1.04281683 C35.2206885,0.982138404 35.4565227,0.828522125 35.7251377,0.826217881 C36.1797168,0.822377474 36.6113028,0.726674532 37.0307709,0.557235776 C37.2018207,0.48810845 37.3997475,0.476279997 37.5606989,0.551244741 C37.9871581,0.74987059 38.4275996,0.849260323 38.8966271,0.82376002 C39.409621,0.795801858 39.7686546,1.23621973 40.2645591,1.26187365 C40.2912807,1.2632562 40.3194006,1.31302787 40.3395973,1.34482644 C40.4750699,1.55804583 40.6843379,1.58538953 40.9111614,1.57048875 C40.9352419,1.57248577 40.9587011,1.5775551 40.9812281,1.58569677 C40.9462724,1.89154678 41.1356545,1.91812239 41.3686923,1.89031785 C41.3955693,1.916279 41.4224463,1.94239377 41.449168,1.96850853 C41.4522752,2.00614452 41.4404679,2.06113915 41.461286,2.07895864 C42.1134812,2.64042614 42.6539735,3.29390979 43.1143009,4.01544545 C43.1779979,4.11560327 43.2270912,4.2131496 43.2255376,4.3329703 C43.2244501,4.43527874 43.2225858,4.53835527 43.3310261,4.60056986 C43.5101545,4.70333915 43.5222725,4.87078089 43.546353,5.05681021 C43.6004178,5.47172778 43.6008839,5.9173686 43.9925428,6.20831784 C43.9947178,6.30909012 43.9967375,6.4098624 43.9989125,6.51063467 Z" id="Combined-Shape"></path>
                </g>
            </g>
        </g>
    </g>
</svg>