<?xml version="1.0" encoding="UTF-8"?>
<svg width="86px" height="73px" viewBox="0 0 86 73" version="1.1" xmlns="http://www.w3.org/2000/svg" xmlns:xlink="http://www.w3.org/1999/xlink">
    <!-- Generator: Sketch 51.1 (57501) - http://www.bohemiancoding.com/sketch -->
    <title>Group 7</title>
    <desc>Created with Sketch.</desc>
    <defs></defs>
    <g id="Page-1" stroke="none" stroke-width="1" fill="none" fill-rule="evenodd">
        <g id="Lesson-1" transform="translate(-466.000000, -777.000000)" fill="#32C5DD">
            <g id="Group-7" transform="translate(509.500000, 812.500000) rotate(16.000000) translate(-509.500000, -812.500000) translate(471.000000, 772.000000)">
                <path d="M30.1833243,56.0462378 C30.1886757,52.4400489 27.429973,49.549658 23.9652162,49.5310912 C20.4769459,49.5123616 17.6781892,52.3908632 17.6632703,56.0126873 C17.6483514,59.6273453 20.4247297,62.516759 23.9105676,62.5490065 C27.4502432,62.5815798 30.1804054,59.5724593 30.1833243,56.0462378 M11.7257027,39.870342 C11.6136486,39.4343485 11.5534865,39.1001466 11.4417568,38.7843485 C11.1323514,37.9099186 10.7982973,37.0441205 10.4798108,36.172785 C10.1728378,35.3333713 10.4574324,34.4240879 11.252027,34.0074756 C12.5507838,33.3262052 13.8787297,32.6998208 15.2037568,32.0705049 C15.6892703,31.839886 16.1927838,31.6384202 16.7040811,31.4737622 C17.4317027,31.2395603 18.0642973,31.4415147 18.4461892,32.1043811 C18.951973,32.982557 19.3982432,33.8973779 19.8317027,34.8148046 C20.2977568,35.8011238 21.0411081,36.2395603 22.1237027,36.1688762 C22.9586757,36.1141531 23.7968919,36.1112215 24.6338108,36.0869544 C25.8582973,36.0516124 26.481,35.566759 26.9016486,34.4319055 C27.2335946,33.5359772 27.621,32.6591042 28.0186216,31.789886 C28.2792162,31.2201792 29.102027,30.9123616 29.7385135,31.1589414 C31.6646757,31.9053583 33.5851622,32.6674104 35.4965676,33.4509609 C36.1894865,33.735 36.4938649,34.5649674 36.2548378,35.3708306 C35.9781892,36.3030782 35.691973,37.232557 35.4000811,38.1604072 C35.1055946,39.0968893 35.2946757,39.8905375 36.0180811,40.5718078 C36.7225135,41.2353257 37.3912703,41.9366287 38.0862973,42.6102443 C38.7289459,43.2330456 39.476027,43.3931433 40.3176486,43.0685505 C41.1947838,42.7304397 42.0709459,42.3892345 42.9511622,42.0587785 C43.7966757,41.7413518 44.5346757,41.9908632 45.0007297,42.7584528 C46.0922432,44.5564984 46.8844054,46.4877687 47.4803514,48.5011238 C47.7354324,49.3631759 47.3862973,50.108127 46.5907297,50.5403746 C45.7168378,51.0151303 44.8442432,51.4926547 43.9805676,51.9856515 C43.2952703,52.3766938 42.9576486,52.9975407 42.9644595,53.7778339 C42.9738649,54.8838599 42.9902432,55.9916775 43.0635405,57.0946091 C43.1217568,57.9724593 43.5385135,58.6535668 44.3807838,59.021645 C45.2154324,59.3864658 46.0468378,59.7586156 46.8764595,60.1348371 C47.7242432,60.5193648 48.0641351,61.3446091 47.7412703,62.2266938 C47.0381351,64.1493322 46.3341892,66.071645 45.6261892,67.9924919 C45.3317027,68.7913518 44.6086216,69.1745765 43.7965135,68.9170847 C42.8924595,68.6304397 42.003,68.297215 41.1091622,67.9779967 C40.2634865,67.6758795 39.5322973,67.8208306 38.9201351,68.5043811 C38.1660811,69.3467264 37.3826757,70.1636645 36.6522973,71.0262052 C36.0660811,71.7185505 36.1184595,72.5188762 36.4191081,73.3250651 C36.7278649,74.1529153 37.016027,74.9890717 37.3450541,75.8086156 C37.7329459,76.7745765 37.4126757,77.6208306 36.5295405,78.1074756 C35.1826216,78.8499837 33.7638649,79.4617101 32.3726757,80.1231107 C32.0454324,80.2786482 31.7144595,80.4332085 31.3718108,80.5478664 C30.3446757,80.8920033 29.6981351,80.625228 29.1968919,79.6490065 C28.7666757,78.8112215 28.3575405,77.9623616 27.939973,77.1182248 C27.5141351,76.2578013 26.817,75.8731107 25.8691622,75.91057 C25.0474865,75.9429805 24.2253243,75.9672476 23.403,75.9876059 C21.9610541,76.0234365 21.4035405,76.4455863 20.883,77.8097557 C20.5578649,78.6615472 20.1839189,79.4959121 19.8028378,80.3245765 C19.5315405,80.9146417 18.7037027,81.1656189 17.9952162,80.8851629 C16.5798649,80.3245765 15.1716486,79.7462378 13.7590541,79.1784853 C13.3773243,79.025228 12.9907297,78.8843485 12.6067297,78.7367915 C11.7313784,78.400798 11.3348919,77.6165961 11.601973,76.7125244 C11.8815405,75.7657818 12.1766757,74.8239251 12.4687297,73.8810912 C12.7487838,72.9770195 12.5603514,72.2037296 11.8714865,71.5429805 C11.1623514,70.8628502 10.4772162,70.1574756 9.77294595,69.4718078 C9.12932432,68.8450977 8.37721622,68.6952606 7.53981081,69.0138274 C6.67467568,69.3428176 5.81440541,69.6845114 4.94975676,70.0144788 C4.065,70.3519381 3.32018919,70.0985179 2.83354054,69.2882573 C1.76635135,67.5112215 0.988783784,65.6055212 0.393648649,63.6245765 C0.122189189,62.7205049 0.458837838,61.9882573 1.27354054,61.5449349 C2.14710811,61.0696906 3.02051351,60.5934691 3.88272973,60.0981922 C4.53235135,59.725228 4.88878378,59.137443 4.88554054,58.3900489 C4.88051351,57.2102443 4.87175676,56.0271824 4.77527027,54.8529153 C4.71154054,54.0749023 4.3217027,53.4343485 3.555,53.0980293 C2.68045946,52.7144788 1.80705405,52.3279967 0.939810811,51.9279967 C0.156567568,51.566759 -0.190783784,50.7102443 0.104189189,49.8939577 C0.819972973,47.9133388 1.53786486,45.9336971 2.25964865,43.9553583 C2.46818919,43.3836971 3.21494595,42.9485179 3.85256757,43.1289739 C4.82083784,43.403241 5.76575676,43.761873 6.717,44.0954235 C7.54613514,44.3863029 8.12294595,44.3662704 8.877,43.6152932 C9.69786486,42.7977036 10.4762432,41.9319055 11.2103514,41.0353257 C11.481973,40.7037296 11.5752162,40.2247394 11.7257027,39.870342" id="Fill-1"></path>
                <path d="M61.6770879,22.4226818 C61.7215483,18.9172636 58.8205898,15.8867182 55.4143408,15.9210818 C52.0642351,15.9549545 49.2208804,18.9470455 49.2585257,22.4941909 C49.2963332,26.0858455 52.0515785,28.9237909 55.5076426,28.9030091 C58.9732804,28.8820636 61.6939634,26.0243182 61.6770879,22.4226818 M76.9500389,22.3953545 C76.8760464,23.3552455 76.8236351,24.2277545 76.7373106,25.0968273 C76.6652653,25.8210818 76.1492653,26.3085545 75.4280011,26.3638636 C74.6955408,26.4199909 73.9622691,26.4659727 73.2286728,26.5044273 C72.2683936,26.5546636 71.6073294,27.0089182 71.2615445,27.9256091 C70.9589219,28.7279182 70.6225483,29.5177909 70.3350162,30.3253364 C70.0779898,31.0469727 70.1849219,31.7182091 70.7062766,32.3100818 C71.2701445,32.9503909 71.8249257,33.5992091 72.37062,34.2555545 C72.8783445,34.8659182 72.8476766,35.5543364 72.3083106,36.1318091 C71.143903,37.3783909 69.9858238,38.6311909 68.8116804,39.8684455 C68.1994577,40.5135 67.4864691,40.5357545 66.826703,39.9394636 C66.2167521,39.3881727 65.6350351,38.8049727 65.0278426,38.2500818 C64.4459634,37.7182636 63.7779219,37.6248273 63.0639596,37.9424455 C62.2352766,38.3111182 61.4078917,38.6832273 60.591703,39.0787364 C59.9906766,39.3696818 59.6432691,39.8697545 59.5988087,40.5472091 C59.5428275,41.4045 59.5118351,42.2635909 59.4691596,43.1218636 C59.4188577,44.1288818 59.0217974,44.5731545 58.0417219,44.7055364 C56.372186,44.9315182 54.7005408,44.9244818 53.0300313,44.7233727 C52.1880426,44.6219182 51.7492804,44.1501545 51.6892426,43.2915545 C51.62742,42.4048091 51.587503,41.5164273 51.5281143,40.6295182 C51.4817068,39.9330818 51.1328389,39.4248273 50.5128275,39.1302818 C49.7469408,38.7663545 48.972454,38.4192818 48.1922879,38.0872636 C47.1563936,37.6464273 46.3686011,37.8933545 45.6414955,38.7360818 C45.1639521,39.2895 44.6096577,39.7835182 44.045303,40.2493909 C43.5841483,40.6300091 42.8815445,40.5835364 42.4633898,40.1562818 C41.1985408,38.8637182 39.9434275,37.5610091 38.7154125,36.2331 C38.179454,35.6536636 38.2164502,34.9924091 38.7189823,34.3926818 C39.2672728,33.7383 39.8137785,33.0827727 40.3662879,32.4321545 C40.8525936,31.8594273 40.952386,31.2070091 40.7016879,30.5203909 C40.3825143,29.6459182 40.02602,28.7848636 39.6685521,27.9252818 C39.3746917,27.2185364 38.8388955,26.8326818 38.0723596,26.7929182 C37.3973408,26.7577364 36.7215106,26.7363 36.047303,26.6908091 C34.7960842,26.6065364 34.2648313,26.0307 34.1729898,24.9523364 C34.0327936,23.3077909 33.9914162,21.6693 34.1772087,20.0278636 C34.3057219,18.8925545 34.7209558,18.5021182 35.8460955,18.4417364 C36.5649257,18.4031182 37.2840804,18.3679364 38.0020992,18.3147545 C38.87362,18.2502818 39.4168804,17.7729545 39.7003558,16.9384091 C39.9427785,16.2252818 40.2359898,15.5290091 40.5209257,14.8311 C40.8800162,13.9517182 40.7998577,13.1757545 40.1160766,12.4621364 C39.5574011,11.8791 39.0516238,11.2432091 38.5354615,10.6199182 C38.0657068,10.0524273 38.1030275,9.26108182 38.6162691,8.72140909 C39.8848502,7.38777273 41.1570011,6.05773636 42.4289898,4.72753636 C42.755303,4.38651818 43.5294653,4.40271818 43.8809294,4.72933636 C44.5823974,5.38093636 45.286137,6.0309 46.0083747,6.65877273 C46.5182087,7.10206364 47.1247521,7.19108182 47.7454125,6.94644545 C48.620503,6.60166364 49.4886162,6.23544545 50.3450464,5.84517273 C51.0103294,5.54195455 51.3174955,4.97495455 51.3518955,4.2489 C51.3924615,3.39046364 51.4244275,2.53153636 51.478137,1.67408182 C51.5326577,0.802227273 51.9918653,0.330790909 52.8505672,0.2187 C54.5497974,-0.00302727273 56.2488653,-0.0121909091 57.9493936,0.203972727 C58.7337785,0.303790909 59.2145672,0.806809091 59.2669785,1.61697273 C59.3208502,2.44497273 59.3664464,3.27346364 59.4057143,4.10228182 C59.4492011,5.01684545 59.8787143,5.61968182 60.7466653,5.93271818 C61.4513785,6.18668182 62.1401898,6.48711818 62.8286766,6.78493636 C63.6341558,7.13331818 64.340654,7.01320909 64.9729974,6.39662727 C65.5834351,5.80164545 66.2062049,5.21926364 66.8215106,4.62919091 C67.2589747,4.20962727 68.1463974,4.2813 68.5196049,4.75797273 C68.6641823,4.94239091 68.8374804,5.10455455 69.0015294,5.27293636 C70.0593294,6.35964545 71.1192389,7.44455455 72.1765521,8.53191818 C72.7344162,9.10546364 72.7636238,9.87848182 72.2513558,10.4963727 C71.763103,11.0853 71.3009747,11.7002455 70.7726426,12.2502273 C70.0953521,12.9556636 69.9639181,13.7244273 70.3234955,14.6116636 C70.66782,15.4607727 70.9796917,16.3244455 71.3567936,17.1583364 C71.6336162,17.7701727 72.1629219,18.0879545 72.8317747,18.1290273 C73.6383898,18.1786091 74.4458162,18.2098636 75.2529181,18.2504455 C76.1224917,18.2943 76.6156125,18.7254818 76.7131332,19.6017545 C76.8194162,20.5575545 76.8778313,21.5189182 76.9500389,22.3953545" id="Fill-4"></path>
            </g>
        </g>
    </g>
</svg>