<?xml version="1.0" encoding="UTF-8"?>
<svg width="39px" height="48px" viewBox="0 0 39 48" version="1.1" xmlns="http://www.w3.org/2000/svg" xmlns:xlink="http://www.w3.org/1999/xlink">
    <!-- Generator: Sketch 52.2 (67145) - http://www.bohemiancoding.com/sketch -->
    <title>Fill 1</title>
    <desc>Created with Sketch.</desc>
    <g id="Page-1" stroke="none" stroke-width="1" fill="none" fill-rule="evenodd">
        <g id="Lesson-10" transform="translate(-285.000000, -2326.000000)" fill="#F67102">
            <path d="M320.999991,2367.52505 C321.004621,2365.58443 319.177717,2363.98667 316.96936,2364.00008 C314.857399,2364.01278 313.023385,2365.60664 313.000237,2367.44991 C312.976096,2369.37668 314.801182,2370.99233 317.010531,2370.99997 C319.190944,2371.00733 320.995362,2369.43553 320.999991,2367.52505 M305.085054,2360.09285 C304.985297,2359.86135 304.919878,2359.6709 304.825154,2359.49553 C303.546671,2357.12654 302.251167,2354.76611 300.993702,2352.38653 C300.750526,2351.92643 300.511199,2351.85506 300.01286,2351.98474 C296.139374,2352.99416 292.501366,2352.63356 289.41498,2349.90745 C286.837738,2347.63115 285.471487,2344.71416 285.085041,2341.34185 C284.788583,2338.75383 285.277006,2336.30695 286.397417,2333.85282 C286.58287,2334.07069 286.725992,2334.21632 286.843214,2334.37994 C288.997157,2337.38498 291.158945,2340.3848 293.287283,2343.40724 C293.594397,2343.84327 293.868061,2343.93465 294.369656,2343.78815 C296.232914,2343.24348 298.113193,2342.7548 299.975267,2342.2065 C300.327523,2342.10279 300.695172,2341.88275 300.937015,2341.61397 C302.241399,2340.16374 303.493241,2338.66782 304.798957,2337.2186 C305.141297,2336.83871 305.142037,2336.57066 304.887761,2336.14986 C302.99209,2333.01224 301.121579,2329.85983 299.245001,2326.7109 C299.124523,2326.50899 299.019291,2326.29823 298.857371,2326 C300.685255,2326.00247 302.378897,2326.23585 303.99084,2326.85291 C308.560254,2328.60252 311.679942,2331.6943 312.780224,2336.45578 C313.575169,2339.89597 312.328508,2342.86895 310.166572,2345.54168 C310.013533,2345.73097 309.853538,2345.9149 309.69813,2346.10245 C309.68333,2346.12044 309.679186,2346.14669 309.6373,2346.24924 C310.003172,2346.72777 310.393318,2347.24619 310.791901,2347.75851 C314.695877,2352.77252 318.621905,2357.77014 322.499388,2362.80358 C325.553361,2366.76814 323.736577,2372.26822 318.943672,2373.70264 C315.856546,2374.62647 312.508336,2373.34798 310.854212,2370.55835" id="Fill-1"></path>
        </g>
    </g>
</svg>